<?xml version="1.0" standalone="no"?>
 <!DOCTYPE svg PUBLIC "-//W3C//DTD SVG 1.1//EN" 
 "http://www.w3.org/Graphics/SVG/1.1/DTD/svg11.dtd"> 
<svg xmlns="http://www.w3.org/2000/svg" version="1.1" 
    width="13.8532cm" height="12.1793cm" viewBox="0 0 54540 47950 ">
<title>SVG Picture created as np08-F.Fab.svg date 2017/09/02 14:27:28 </title>
  <desc>Picture generated by PCBNEW </desc>
<g style="fill:#000000; fill-opacity:1;stroke:#000000; stroke-opacity:1;
stroke-linecap:round; stroke-linejoin:round; "
 transform="translate(0 0) scale(1 1)">
</g>
<g style="fill:#000000; fill-opacity:0.0; 
stroke:#000000; stroke-width:-0.000393701; stroke-opacity:1; 
stroke-linecap:round; stroke-linejoin:round;">
</g>
<g style="fill:#000000; fill-opacity:0.0; 
stroke:#000000; stroke-width:59.0551; stroke-opacity:1; 
stroke-linecap:round; stroke-linejoin:round;">
<path d="M19897 39214
L19879 39195
L19860 39158
L19860 39064
L19879 39026
L19897 39008
L19935 38989
L19972 38989
L20029 39008
L20254 39233
L20254 38989
" />
<path d="M20216 38820
L20235 38802
L20254 38820
L20235 38839
L20216 38820
L20254 38820
" />
<path d="M19860 38445
L19860 38633
L20047 38652
L20029 38633
L20010 38595
L20010 38502
L20029 38464
L20047 38445
L20085 38427
L20179 38427
L20216 38445
L20235 38464
L20254 38502
L20254 38595
L20235 38633
L20216 38652
" />
<path d="M20254 38258
L19991 38258
" />
<path d="M20029 38258
L20010 38239
L19991 38202
L19991 38145
L20010 38108
L20047 38089
L20254 38089
" />
<path d="M20047 38089
L20010 38070
L19991 38033
L19991 37977
L20010 37939
L20047 37920
L20254 37920
" />
<path d="M20254 37733
L19991 37733
" />
<path d="M20029 37733
L20010 37714
L19991 37677
L19991 37620
L20010 37583
L20047 37564
L20254 37564
" />
<path d="M20047 37564
L20010 37545
L19991 37508
L19991 37452
L20010 37414
L20047 37395
L20254 37395
" />
<path d="M49610 37727
L49628 37709
L49666 37690
L49760 37690
L49797 37709
L49816 37727
L49835 37765
L49835 37802
L49816 37859
L49591 38084
L49835 38084
" />
<path d="M50003 38046
L50022 38065
L50003 38084
L49985 38065
L50003 38046
L50003 38084
" />
<path d="M50378 37690
L50191 37690
L50172 37877
L50191 37859
L50228 37840
L50322 37840
L50360 37859
L50378 37877
L50397 37915
L50397 38009
L50378 38046
L50360 38065
L50322 38084
L50228 38084
L50191 38065
L50172 38046
" />
<path d="M50566 38084
L50566 37821
" />
<path d="M50566 37859
L50585 37840
L50622 37821
L50678 37821
L50716 37840
L50735 37877
L50735 38084
" />
<path d="M50735 37877
L50753 37840
L50791 37821
L50847 37821
L50885 37840
L50903 37877
L50903 38084
" />
<path d="M51091 38084
L51091 37821
" />
<path d="M51091 37859
L51109 37840
L51147 37821
L51203 37821
L51241 37840
L51259 37877
L51259 38084
" />
<path d="M51259 37877
L51278 37840
L51316 37821
L51372 37821
L51409 37840
L51428 37877
L51428 38084
" />
<path d="M51578 13909
L51597 13890
L51634 13871
L51728 13871
L51766 13890
L51784 13909
L51803 13946
L51803 13984
L51784 14040
L51559 14265
L51803 14265
" />
<path d="M51972 14227
L51991 14246
L51972 14265
L51953 14246
L51972 14227
L51972 14265
" />
<path d="M52347 13871
L52159 13871
L52141 14059
L52159 14040
L52197 14021
L52291 14021
L52328 14040
L52347 14059
L52366 14096
L52366 14190
L52347 14227
L52328 14246
L52291 14265
L52197 14265
L52159 14246
L52141 14227
" />
<path d="M52534 14265
L52534 14002
" />
<path d="M52534 14040
L52553 14021
L52591 14002
L52647 14002
L52684 14021
L52703 14059
L52703 14265
" />
<path d="M52703 14059
L52722 14021
L52759 14002
L52816 14002
L52853 14021
L52872 14059
L52872 14265
" />
<path d="M53059 14265
L53059 14002
" />
<path d="M53059 14040
L53078 14021
L53115 14002
L53172 14002
L53209 14021
L53228 14059
L53228 14265
" />
<path d="M53228 14059
L53247 14021
L53284 14002
L53340 14002
L53378 14021
L53397 14059
L53397 14265
" />
<path d="M23439 44576
L23758 44576
L23796 44557
L23814 44538
L23833 44501
L23833 44426
L23814 44389
L23796 44370
L23758 44351
L23439 44351
" />
<path d="M23814 44182
L23833 44126
L23833 44032
L23814 43995
L23796 43976
L23758 43957
L23721 43957
L23683 43976
L23664 43995
L23646 44032
L23627 44107
L23608 44145
L23589 44164
L23552 44182
L23514 44182
L23477 44164
L23458 44145
L23439 44107
L23439 44014
L23458 43957
" />
<path d="M23627 43657
L23646 43601
L23664 43582
L23702 43564
L23758 43564
L23796 43582
L23814 43601
L23833 43639
L23833 43789
L23439 43789
L23439 43657
L23458 43620
L23477 43601
L23514 43582
L23552 43582
L23589 43601
L23608 43620
L23627 43657
L23627 43789
" />
<path d="M23871 43489
L23871 43189
" />
<path d="M23627 42964
L23646 42907
L23664 42889
L23702 42870
L23758 42870
L23796 42889
L23814 42907
L23833 42945
L23833 43095
L23439 43095
L23439 42964
L23458 42926
L23477 42907
L23514 42889
L23552 42889
L23589 42907
L23608 42926
L23627 42964
L23627 43095
" />
<path d="M47167 33181
L47167 33368
L46773 33368
" />
<path d="M46811 33068
L46792 33050
L46773 33012
L46773 32918
L46792 32881
L46811 32862
L46848 32843
L46886 32843
L46942 32862
L47167 33087
L47167 32843
" />
<path d="M47167 32656
L47167 32581
L47148 32543
L47130 32525
L47073 32487
L46998 32468
L46848 32468
L46811 32487
L46792 32506
L46773 32543
L46773 32618
L46792 32656
L46811 32675
L46848 32693
L46942 32693
L46980 32675
L46998 32656
L47017 32618
L47017 32543
L46998 32506
L46980 32487
L46942 32468
" />
<path d="M46773 32337
L46773 32093
L46923 32225
L46923 32168
L46942 32131
L46961 32112
L46998 32093
L47092 32093
L47130 32112
L47148 32131
L47167 32168
L47167 32281
L47148 32318
L47130 32337
" />
<path d="M47167 31925
L46773 31925
L46773 31831
L46792 31775
L46830 31737
L46867 31718
L46942 31700
L46998 31700
L47073 31718
L47111 31737
L47148 31775
L47167 31831
L47167 31925
" />
<path d="M27139 46249
L27458 46249
L27496 46230
L27514 46212
L27533 46174
L27533 46099
L27514 46062
L27496 46043
L27458 46024
L27139 46024
" />
<path d="M27514 45855
L27533 45799
L27533 45705
L27514 45668
L27496 45649
L27458 45630
L27421 45630
L27383 45649
L27364 45668
L27346 45705
L27327 45780
L27308 45818
L27289 45837
L27252 45855
L27214 45855
L27177 45837
L27158 45818
L27139 45780
L27139 45687
L27158 45630
" />
<path d="M27327 45330
L27346 45274
L27364 45255
L27402 45237
L27458 45237
L27496 45255
L27514 45274
L27533 45312
L27533 45462
L27139 45462
L27139 45330
L27158 45293
L27177 45274
L27214 45255
L27252 45255
L27289 45274
L27308 45293
L27327 45330
L27327 45462
" />
<path d="M27383 45068
L27383 44768
" />
<path d="M27139 44618
L27139 44356
L27533 44524
" />
<path d="M27308 44149
L27289 44187
L27271 44206
L27233 44224
L27214 44224
L27177 44206
L27158 44187
L27139 44149
L27139 44074
L27158 44037
L27177 44018
L27214 43999
L27233 43999
L27271 44018
L27289 44037
L27308 44074
L27308 44149
L27327 44187
L27346 44206
L27383 44224
L27458 44224
L27496 44206
L27514 44187
L27533 44149
L27533 44074
L27514 44037
L27496 44018
L27458 43999
L27383 43999
L27346 44018
L27327 44037
L27308 44074
" />
<path d="M27533 43643
L27533 43831
L27139 43831
" />
<path d="M27139 43437
L27139 43399
L27158 43362
L27177 43343
L27214 43324
L27289 43306
L27383 43306
L27458 43324
L27496 43343
L27514 43362
L27533 43399
L27533 43437
L27514 43474
L27496 43493
L27458 43512
L27383 43531
L27289 43531
L27214 43512
L27177 43493
L27158 43474
L27139 43437
" />
<path d="M27139 42949
L27139 43137
L27327 43156
L27308 43137
L27289 43099
L27289 43006
L27308 42968
L27327 42949
L27364 42931
L27458 42931
L27496 42949
L27514 42968
L27533 43006
L27533 43099
L27514 43137
L27496 43156
" />
<path d="M50933 37027
L50539 37027
L50821 36896
L50539 36765
L50933 36765
" />
<path d="M50539 36502
L50539 36427
L50558 36390
L50596 36352
L50671 36334
L50802 36334
L50877 36352
L50914 36390
L50933 36427
L50933 36502
L50914 36540
L50877 36577
L50802 36596
L50671 36596
L50596 36577
L50558 36540
L50539 36502
" />
<path d="M50539 36221
L50539 35996
" />
<path d="M50933 36109
L50539 36109
" />
<path d="M50539 35790
L50539 35715
L50558 35677
L50596 35640
L50671 35621
L50802 35621
L50877 35640
L50914 35677
L50933 35715
L50933 35790
L50914 35827
L50877 35865
L50802 35884
L50671 35884
L50596 35865
L50558 35827
L50539 35790
" />
<path d="M50933 35227
L50746 35359
" />
<path d="M50933 35452
L50539 35452
L50539 35302
L50558 35265
L50577 35246
L50614 35227
L50671 35227
L50708 35246
L50727 35265
L50746 35302
L50746 35452
" />
<path d="M50971 35152
L50971 34853
" />
<path d="M50577 34778
L50558 34759
L50539 34721
L50539 34628
L50558 34590
L50577 34571
L50614 34553
L50652 34553
L50708 34571
L50933 34796
L50933 34553
" />
<path d="M23096 14577
L22871 14577
" />
<path d="M22983 14577
L22983 14184
L22946 14240
L22908 14277
L22871 14296
" />
<path d="M23340 14184
L23377 14184
L23415 14202
L23433 14221
L23452 14259
L23471 14334
L23471 14427
L23452 14502
L23433 14540
L23415 14559
L23377 14577
L23340 14577
L23302 14559
L23283 14540
L23265 14502
L23246 14427
L23246 14334
L23265 14259
L23283 14221
L23302 14202
L23340 14184
" />
<path d="M24108 14315
L24108 14577
" />
<path d="M23940 14315
L23940 14521
L23958 14559
L23996 14577
L24052 14577
L24090 14559
L24108 14540
" />
<path d="M24427 14371
L24296 14371
" />
<path d="M24296 14577
L24296 14184
L24483 14184
" />
<path d="M24633 14427
L24933 14427
" />
<path d="M25271 14559
L25233 14577
L25158 14577
L25121 14559
L25102 14521
L25102 14371
L25121 14334
L25158 14315
L25233 14315
L25271 14334
L25289 14371
L25289 14409
L25102 14446
" />
<path d="M25514 14577
L25477 14559
L25458 14521
L25458 14184
" />
<path d="M25814 14559
L25777 14577
L25702 14577
L25664 14559
L25646 14521
L25646 14371
L25664 14334
L25702 14315
L25777 14315
L25814 14334
L25833 14371
L25833 14409
L25646 14446
" />
<path d="M26171 14559
L26133 14577
L26058 14577
L26021 14559
L26002 14540
L25983 14502
L25983 14390
L26002 14352
L26021 14334
L26058 14315
L26133 14315
L26171 14334
" />
<path d="M26283 14315
L26433 14315
" />
<path d="M26339 14184
L26339 14521
L26358 14559
L26395 14577
L26433 14577
" />
<path d="M26564 14577
L26564 14315
" />
<path d="M26564 14390
L26583 14352
L26602 14334
L26639 14315
L26677 14315
" />
<path d="M30177 29335
L30196 29354
L30214 29410
L30214 29447
L30196 29504
L30158 29541
L30121 29560
L30046 29579
L29989 29579
L29914 29560
L29877 29541
L29839 29504
L29821 29447
L29821 29410
L29839 29354
L29858 29335
" />
<path d="M20909 31326
L20928 31307
L20965 31288
L21059 31288
L21097 31307
L21115 31326
L21134 31363
L21134 31401
L21115 31457
L20890 31682
L21134 31682
" />
<path d="M21284 31326
L21303 31307
L21340 31288
L21434 31288
L21471 31307
L21490 31326
L21509 31363
L21509 31401
L21490 31457
L21265 31682
L21509 31682
" />
<path d="M21678 31420
L21678 31813
" />
<path d="M21678 31438
L21715 31420
L21790 31420
L21828 31438
L21846 31457
L21865 31495
L21865 31607
L21846 31645
L21828 31663
L21790 31682
L21715 31682
L21678 31663
" />
<path d="M22165 31476
L22034 31476
" />
<path d="M22034 31682
L22034 31288
L22221 31288
" />
<path d="M20909 33338
L20928 33319
L20965 33300
L21059 33300
L21097 33319
L21115 33338
L21134 33375
L21134 33413
L21115 33469
L20890 33694
L21134 33694
" />
<path d="M21284 33338
L21303 33319
L21340 33300
L21434 33300
L21471 33319
L21490 33338
L21509 33375
L21509 33413
L21490 33469
L21265 33694
L21509 33694
" />
<path d="M21678 33431
L21678 33825
" />
<path d="M21678 33450
L21715 33431
L21790 33431
L21828 33450
L21846 33469
L21865 33506
L21865 33619
L21846 33656
L21828 33675
L21790 33694
L21715 33694
L21678 33675
" />
<path d="M22165 33488
L22034 33488
" />
<path d="M22034 33694
L22034 33300
L22221 33300
" />
<path d="M23621 39521
L23640 39502
L23677 39484
L23771 39484
L23808 39502
L23827 39521
L23846 39559
L23846 39596
L23827 39652
L23602 39877
L23846 39877
" />
<path d="M23996 39521
L24015 39502
L24052 39484
L24146 39484
L24183 39502
L24202 39521
L24221 39559
L24221 39596
L24202 39652
L23977 39877
L24221 39877
" />
<path d="M24464 39484
L24502 39484
L24539 39502
L24558 39521
L24577 39559
L24596 39634
L24596 39727
L24577 39802
L24558 39840
L24539 39859
L24502 39877
L24464 39877
L24427 39859
L24408 39840
L24389 39802
L24371 39727
L24371 39634
L24389 39559
L24408 39521
L24427 39502
L24464 39484
" />
<path d="M24764 39615
L24764 39877
" />
<path d="M24764 39652
L24783 39634
L24821 39615
L24877 39615
L24914 39634
L24933 39671
L24933 39877
" />
<path d="M25252 39671
L25121 39671
" />
<path d="M25121 39877
L25121 39484
L25308 39484
" />
<path d="M41027 40420
L41027 40645
" />
<path d="M41027 40532
L40633 40532
L40689 40570
L40727 40607
L40745 40645
" />
<path d="M40633 40176
L40633 40139
L40652 40101
L40670 40082
L40708 40064
L40783 40045
L40877 40045
L40952 40064
L40989 40082
L41008 40101
L41027 40139
L41027 40176
L41008 40214
L40989 40232
L40952 40251
L40877 40270
L40783 40270
L40708 40251
L40670 40232
L40652 40214
L40633 40176
" />
<path d="M40633 39801
L40633 39764
L40652 39726
L40670 39708
L40708 39689
L40783 39670
L40877 39670
L40952 39689
L40989 39708
L41008 39726
L41027 39764
L41027 39801
L41008 39839
L40989 39858
L40952 39876
L40877 39895
L40783 39895
L40708 39876
L40670 39858
L40652 39839
L40633 39801
" />
<path d="M40764 39333
L41027 39333
" />
<path d="M40764 39501
L40970 39501
L41008 39483
L41027 39445
L41027 39389
L41008 39351
L40989 39333
" />
<path d="M40820 39014
L40820 39145
" />
<path d="M41027 39145
L40633 39145
L40633 38958
" />
<path d="M40877 38808
L40877 38508
" />
<path d="M41008 38170
L41027 38208
L41027 38283
L41008 38320
L40970 38339
L40820 38339
L40783 38320
L40764 38283
L40764 38208
L40783 38170
L40820 38151
L40858 38151
L40895 38339
" />
<path d="M41027 37927
L41008 37964
L40970 37983
L40633 37983
" />
<path d="M41008 37627
L41027 37664
L41027 37739
L41008 37777
L40970 37795
L40820 37795
L40783 37777
L40764 37739
L40764 37664
L40783 37627
L40820 37608
L40858 37608
L40895 37795
" />
<path d="M41008 37270
L41027 37308
L41027 37383
L41008 37420
L40989 37439
L40952 37458
L40839 37458
L40802 37439
L40783 37420
L40764 37383
L40764 37308
L40783 37270
" />
<path d="M40764 37158
L40764 37008
" />
<path d="M40633 37102
L40970 37102
L41008 37083
L41027 37045
L41027 37008
" />
<path d="M41027 36877
L40764 36877
" />
<path d="M40839 36877
L40802 36858
L40783 36839
L40764 36802
L40764 36764
" />
<path d="M46058 44177
L45833 44177
" />
<path d="M45946 44177
L45946 43784
L45908 43840
L45871 43877
L45833 43896
" />
<path d="M46302 43784
L46340 43784
L46377 43802
L46396 43821
L46415 43859
L46433 43934
L46433 44027
L46415 44102
L46396 44140
L46377 44159
L46340 44177
L46302 44177
L46265 44159
L46246 44140
L46227 44102
L46208 44027
L46208 43934
L46227 43859
L46246 43821
L46265 43802
L46302 43784
" />
<path d="M46677 43784
L46715 43784
L46752 43802
L46771 43821
L46790 43859
L46808 43934
L46808 44027
L46790 44102
L46771 44140
L46752 44159
L46715 44177
L46677 44177
L46640 44159
L46621 44140
L46602 44102
L46583 44027
L46583 43934
L46602 43859
L46621 43821
L46640 43802
L46677 43784
" />
<path d="M47146 43915
L47146 44177
" />
<path d="M46977 43915
L46977 44121
L46996 44159
L47033 44177
L47090 44177
L47127 44159
L47146 44140
" />
<path d="M47464 43971
L47333 43971
" />
<path d="M47333 44177
L47333 43784
L47521 43784
" />
<path d="M47671 44027
L47971 44027
" />
<path d="M48308 44159
L48271 44177
L48196 44177
L48158 44159
L48139 44121
L48139 43971
L48158 43934
L48196 43915
L48271 43915
L48308 43934
L48327 43971
L48327 44009
L48139 44046
" />
<path d="M48552 44177
L48514 44159
L48496 44121
L48496 43784
" />
<path d="M48852 44159
L48814 44177
L48739 44177
L48702 44159
L48683 44121
L48683 43971
L48702 43934
L48739 43915
L48814 43915
L48852 43934
L48871 43971
L48871 44009
L48683 44046
" />
<path d="M49208 44159
L49171 44177
L49096 44177
L49058 44159
L49039 44140
L49021 44102
L49021 43990
L49039 43952
L49058 43934
L49096 43915
L49171 43915
L49208 43934
" />
<path d="M49320 43915
L49470 43915
" />
<path d="M49377 43784
L49377 44121
L49395 44159
L49433 44177
L49470 44177
" />
<path d="M49602 44177
L49602 43915
" />
<path d="M49602 43990
L49620 43952
L49639 43934
L49677 43915
L49714 43915
" />
<path d="M40908 44109
L40683 44109
" />
<path d="M40796 44109
L40796 43716
L40758 43772
L40721 43809
L40683 43828
" />
<path d="M41152 43716
L41190 43716
L41227 43734
L41246 43753
L41265 43791
L41283 43866
L41283 43959
L41265 44034
L41246 44072
L41227 44091
L41190 44109
L41152 44109
L41115 44091
L41096 44072
L41077 44034
L41058 43959
L41058 43866
L41077 43791
L41096 43753
L41115 43734
L41152 43716
" />
<path d="M41527 43716
L41565 43716
L41602 43734
L41621 43753
L41640 43791
L41658 43866
L41658 43959
L41640 44034
L41621 44072
L41602 44091
L41565 44109
L41527 44109
L41490 44091
L41471 44072
L41452 44034
L41433 43959
L41433 43866
L41452 43791
L41471 43753
L41490 43734
L41527 43716
" />
<path d="M42296 43847
L42296 44109
" />
<path d="M42127 43847
L42127 44053
L42146 44091
L42183 44109
L42240 44109
L42277 44091
L42296 44072
" />
<path d="M42614 43903
L42483 43903
" />
<path d="M42483 44109
L42483 43716
L42671 43716
" />
<path d="M42821 43959
L43121 43959
" />
<path d="M43458 44091
L43421 44109
L43346 44109
L43308 44091
L43289 44053
L43289 43903
L43308 43866
L43346 43847
L43421 43847
L43458 43866
L43477 43903
L43477 43941
L43289 43978
" />
<path d="M43702 44109
L43664 44091
L43646 44053
L43646 43716
" />
<path d="M44002 44091
L43964 44109
L43889 44109
L43852 44091
L43833 44053
L43833 43903
L43852 43866
L43889 43847
L43964 43847
L44002 43866
L44021 43903
L44021 43941
L43833 43978
" />
<path d="M44358 44091
L44320 44109
L44246 44109
L44208 44091
L44189 44072
L44171 44034
L44171 43922
L44189 43884
L44208 43866
L44246 43847
L44320 43847
L44358 43866
" />
<path d="M44470 43847
L44620 43847
" />
<path d="M44527 43716
L44527 44053
L44545 44091
L44583 44109
L44620 44109
" />
<path d="M44752 44109
L44752 43847
" />
<path d="M44752 43922
L44770 43884
L44789 43866
L44827 43847
L44864 43847
" />
<path d="M50308 44177
L50083 44177
" />
<path d="M50196 44177
L50196 43784
L50158 43840
L50121 43877
L50083 43896
" />
<path d="M50552 43784
L50590 43784
L50627 43802
L50646 43821
L50665 43859
L50683 43934
L50683 44027
L50665 44102
L50646 44140
L50627 44159
L50590 44177
L50552 44177
L50515 44159
L50496 44140
L50477 44102
L50458 44027
L50458 43934
L50477 43859
L50496 43821
L50515 43802
L50552 43784
" />
<path d="M50927 43784
L50965 43784
L51002 43802
L51021 43821
L51040 43859
L51058 43934
L51058 44027
L51040 44102
L51021 44140
L51002 44159
L50965 44177
L50927 44177
L50890 44159
L50871 44140
L50852 44102
L50833 44027
L50833 43934
L50852 43859
L50871 43821
L50890 43802
L50927 43784
" />
<path d="M51696 43915
L51696 44177
" />
<path d="M51527 43915
L51527 44121
L51546 44159
L51583 44177
L51640 44177
L51677 44159
L51696 44140
" />
<path d="M52014 43971
L51883 43971
" />
<path d="M51883 44177
L51883 43784
L52071 43784
" />
<path d="M52221 44027
L52521 44027
" />
<path d="M52858 44159
L52821 44177
L52746 44177
L52708 44159
L52689 44121
L52689 43971
L52708 43934
L52746 43915
L52821 43915
L52858 43934
L52877 43971
L52877 44009
L52689 44046
" />
<path d="M53102 44177
L53064 44159
L53046 44121
L53046 43784
" />
<path d="M53402 44159
L53364 44177
L53289 44177
L53252 44159
L53233 44121
L53233 43971
L53252 43934
L53289 43915
L53364 43915
L53402 43934
L53421 43971
L53421 44009
L53233 44046
" />
<path d="M53758 44159
L53720 44177
L53646 44177
L53608 44159
L53589 44140
L53571 44102
L53571 43990
L53589 43952
L53608 43934
L53646 43915
L53720 43915
L53758 43934
" />
<path d="M53870 43915
L54020 43915
" />
<path d="M53927 43784
L53927 44121
L53945 44159
L53983 44177
L54020 44177
" />
<path d="M54152 44177
L54152 43915
" />
<path d="M54152 43990
L54170 43952
L54189 43934
L54227 43915
L54264 43915
" />
<path d="M45108 44584
L45146 44584
L45183 44602
L45202 44621
L45221 44659
L45240 44734
L45240 44827
L45221 44902
L45202 44940
L45183 44959
L45146 44977
L45108 44977
L45071 44959
L45052 44940
L45033 44902
L45015 44827
L45015 44734
L45033 44659
L45052 44621
L45071 44602
L45108 44584
" />
<path d="M45408 44940
L45427 44959
L45408 44977
L45389 44959
L45408 44940
L45408 44977
" />
<path d="M45802 44977
L45577 44977
" />
<path d="M45689 44977
L45689 44584
L45652 44640
L45614 44677
L45577 44696
" />
<path d="M46139 44715
L46139 44977
" />
<path d="M45971 44715
L45971 44921
L45989 44959
L46027 44977
L46083 44977
L46121 44959
L46139 44940
" />
<path d="M46458 44771
L46327 44771
" />
<path d="M46327 44977
L46327 44584
L46514 44584
" />
<path d="M44439 42946
L44439 42909
L44458 42871
L44477 42852
L44514 42834
L44589 42815
L44683 42815
L44758 42834
L44796 42852
L44814 42871
L44833 42909
L44833 42946
L44814 42984
L44796 43002
L44758 43021
L44683 43040
L44589 43040
L44514 43021
L44477 43002
L44458 42984
L44439 42946
" />
<path d="M44796 42646
L44814 42627
L44833 42646
L44814 42665
L44796 42646
L44833 42646
" />
<path d="M44833 42252
L44833 42477
" />
<path d="M44833 42365
L44439 42365
L44496 42402
L44533 42440
L44552 42477
" />
<path d="M44571 41915
L44833 41915
" />
<path d="M44571 42084
L44777 42084
L44814 42065
L44833 42027
L44833 41971
L44814 41934
L44796 41915
" />
<path d="M44627 41596
L44627 41727
" />
<path d="M44833 41727
L44439 41727
L44439 41540
" />
<path d="M43608 32384
L43646 32384
L43683 32402
L43702 32421
L43721 32459
L43740 32534
L43740 32627
L43721 32702
L43702 32740
L43683 32759
L43646 32777
L43608 32777
L43571 32759
L43552 32740
L43533 32702
L43515 32627
L43515 32534
L43533 32459
L43552 32421
L43571 32402
L43608 32384
" />
<path d="M43908 32740
L43927 32759
L43908 32777
L43889 32759
L43908 32740
L43908 32777
" />
<path d="M44302 32777
L44077 32777
" />
<path d="M44189 32777
L44189 32384
L44152 32440
L44114 32477
L44077 32496
" />
<path d="M44639 32515
L44639 32777
" />
<path d="M44471 32515
L44471 32721
L44489 32759
L44527 32777
L44583 32777
L44621 32759
L44639 32740
" />
<path d="M44958 32571
L44827 32571
" />
<path d="M44827 32777
L44827 32384
L45014 32384
" />
<path d="M27764 14977
L27633 14790
" />
<path d="M27540 14977
L27540 14584
L27689 14584
L27727 14602
L27746 14621
L27764 14659
L27764 14715
L27746 14752
L27727 14771
L27689 14790
L27540 14790
" />
<path d="M27933 14584
L27933 14902
L27952 14940
L27971 14959
L28008 14977
L28083 14977
L28121 14959
L28139 14940
L28158 14902
L28158 14584
" />
<path d="M28346 14977
L28346 14584
L28571 14977
L28571 14584
" />
<path d="M39629 42295
L39236 42295
L39236 42202
L39254 42145
L39292 42108
L39329 42089
L39404 42070
L39461 42070
L39535 42089
L39573 42108
L39610 42145
L39629 42202
L39629 42295
" />
<path d="M48422 14993
L48235 14993
L48235 14599
" />
<path d="M48553 14787
L48684 14787
" />
<path d="M48741 14993
L48553 14993
L48553 14599
L48741 14599
" />
<path d="M48909 14993
L48909 14599
L49003 14599
L49059 14618
L49097 14656
L49116 14693
L49134 14768
L49134 14824
L49116 14899
L49097 14937
L49059 14974
L49003 14993
L48909 14993
" />
<path d="M49209 15031
L49509 15031
" />
<path d="M49809 14993
L49584 14993
" />
<path d="M49697 14993
L49697 14599
L49659 14656
L49622 14693
L49584 14712
" />
<path d="M45722 14993
L45535 14993
L45535 14599
" />
<path d="M45853 14787
L45984 14787
" />
<path d="M46041 14993
L45853 14993
L45853 14599
L46041 14599
" />
<path d="M46209 14993
L46209 14599
L46303 14599
L46359 14618
L46397 14656
L46416 14693
L46434 14768
L46434 14824
L46416 14899
L46397 14937
L46359 14974
L46303 14993
L46209 14993
" />
<path d="M46509 15031
L46809 15031
" />
<path d="M46884 14637
L46903 14618
L46941 14599
L47034 14599
L47072 14618
L47091 14637
L47109 14674
L47109 14712
L47091 14768
L46866 14993
L47109 14993
" />
<path d="M43122 14993
L42935 14993
L42935 14599
" />
<path d="M43253 14787
L43384 14787
" />
<path d="M43441 14993
L43253 14993
L43253 14599
L43441 14599
" />
<path d="M43609 14993
L43609 14599
L43703 14599
L43759 14618
L43797 14656
L43816 14693
L43834 14768
L43834 14824
L43816 14899
L43797 14937
L43759 14974
L43703 14993
L43609 14993
" />
<path d="M43909 15031
L44209 15031
" />
<path d="M44472 14731
L44472 14993
" />
<path d="M44378 14581
L44284 14862
L44528 14862
" />
<path d="M40522 14993
L40335 14993
L40335 14599
" />
<path d="M40653 14787
L40784 14787
" />
<path d="M40841 14993
L40653 14993
L40653 14599
L40841 14599
" />
<path d="M41009 14993
L41009 14599
L41103 14599
L41159 14618
L41197 14656
L41216 14693
L41234 14768
L41234 14824
L41216 14899
L41197 14937
L41159 14974
L41103 14993
L41009 14993
" />
<path d="M41309 15031
L41609 15031
" />
<path d="M41759 14768
L41722 14749
L41703 14731
L41684 14693
L41684 14674
L41703 14637
L41722 14618
L41759 14599
L41834 14599
L41872 14618
L41891 14637
L41909 14674
L41909 14693
L41891 14731
L41872 14749
L41834 14768
L41759 14768
L41722 14787
L41703 14806
L41684 14843
L41684 14918
L41703 14956
L41722 14974
L41759 14993
L41834 14993
L41872 14974
L41891 14956
L41909 14918
L41909 14843
L41891 14806
L41872 14787
L41834 14768
" />
<path d="M37635 14993
L37447 14993
L37447 14599
" />
<path d="M37766 14787
L37897 14787
" />
<path d="M37953 14993
L37766 14993
L37766 14599
L37953 14599
" />
<path d="M38122 14993
L38122 14599
L38216 14599
L38272 14618
L38309 14656
L38328 14693
L38347 14768
L38347 14824
L38328 14899
L38309 14937
L38272 14974
L38216 14993
L38122 14993
" />
<path d="M38422 15031
L38722 15031
" />
<path d="M39022 14993
L38797 14993
" />
<path d="M38909 14993
L38909 14599
L38872 14656
L38834 14693
L38797 14712
" />
<path d="M39359 14599
L39284 14599
L39247 14618
L39228 14637
L39191 14693
L39172 14768
L39172 14918
L39191 14956
L39209 14974
L39247 14993
L39322 14993
L39359 14974
L39378 14956
L39397 14918
L39397 14824
L39378 14787
L39359 14768
L39322 14749
L39247 14749
L39209 14768
L39191 14787
L39172 14824
" />
<path d="M35035 14993
L34847 14993
L34847 14599
" />
<path d="M35166 14787
L35297 14787
" />
<path d="M35353 14993
L35166 14993
L35166 14599
L35353 14599
" />
<path d="M35522 14993
L35522 14599
L35616 14599
L35672 14618
L35709 14656
L35728 14693
L35747 14768
L35747 14824
L35728 14899
L35709 14937
L35672 14974
L35616 14993
L35522 14993
" />
<path d="M35822 15031
L36122 15031
" />
<path d="M36178 14599
L36422 14599
L36291 14749
L36347 14749
L36384 14768
L36403 14787
L36422 14824
L36422 14918
L36403 14956
L36384 14974
L36347 14993
L36234 14993
L36197 14974
L36178 14956
" />
<path d="M36572 14637
L36591 14618
L36628 14599
L36722 14599
L36759 14618
L36778 14637
L36797 14674
L36797 14712
L36778 14768
L36553 14993
L36797 14993
" />
<path d="M32535 14993
L32347 14993
L32347 14599
" />
<path d="M32666 14787
L32797 14787
" />
<path d="M32853 14993
L32666 14993
L32666 14599
L32853 14599
" />
<path d="M33022 14993
L33022 14599
L33116 14599
L33172 14618
L33209 14656
L33228 14693
L33247 14768
L33247 14824
L33228 14899
L33209 14937
L33172 14974
L33116 14993
L33022 14993
" />
<path d="M33322 15031
L33622 15031
" />
<path d="M33884 14599
L33809 14599
L33772 14618
L33753 14637
L33716 14693
L33697 14768
L33697 14918
L33716 14956
L33734 14974
L33772 14993
L33847 14993
L33884 14974
L33903 14956
L33922 14918
L33922 14824
L33903 14787
L33884 14768
L33847 14749
L33772 14749
L33734 14768
L33716 14787
L33697 14824
" />
<path d="M34259 14731
L34259 14993
" />
<path d="M34166 14581
L34072 14862
L34316 14862
" />
<path d="M29947 14993
L29760 14993
L29760 14599
" />
<path d="M30078 14787
L30210 14787
" />
<path d="M30266 14993
L30078 14993
L30078 14599
L30266 14599
" />
<path d="M30434 14993
L30434 14599
L30528 14599
L30584 14618
L30622 14656
L30641 14693
L30659 14768
L30659 14824
L30641 14899
L30622 14937
L30584 14974
L30528 14993
L30434 14993
" />
<path d="M30734 15031
L31034 15031
" />
<path d="M31334 14993
L31109 14993
" />
<path d="M31222 14993
L31222 14599
L31184 14656
L31147 14693
L31109 14712
" />
<path d="M31484 14637
L31503 14618
L31541 14599
L31634 14599
L31672 14618
L31691 14637
L31709 14674
L31709 14712
L31691 14768
L31466 14993
L31709 14993
" />
<path d="M31934 14768
L31897 14749
L31878 14731
L31859 14693
L31859 14674
L31878 14637
L31897 14618
L31934 14599
L32009 14599
L32047 14618
L32066 14637
L32084 14674
L32084 14693
L32066 14731
L32047 14749
L32009 14768
L31934 14768
L31897 14787
L31878 14806
L31859 14843
L31859 14918
L31878 14956
L31897 14974
L31934 14993
L32009 14993
L32047 14974
L32066 14956
L32084 14918
L32084 14843
L32066 14806
L32047 14787
L32009 14768
" />
<path d="M36945 41663
L37002 41682
L37095 41682
L37133 41663
L37152 41645
L37170 41607
L37170 41570
L37152 41532
L37133 41513
L37095 41495
L37020 41476
L36983 41457
L36964 41438
L36945 41401
L36945 41363
L36964 41326
L36983 41307
L37020 41288
L37114 41288
L37170 41307
" />
<path d="M37564 41682
L37433 41495
" />
<path d="M37339 41682
L37339 41288
L37489 41288
L37527 41307
L37545 41326
L37564 41363
L37564 41420
L37545 41457
L37527 41476
L37489 41495
L37339 41495
" />
<path d="M37677 41288
L37808 41682
L37939 41288
" />
<path d="M38239 41288
L38164 41288
L38127 41307
L38108 41326
L38070 41382
L38052 41457
L38052 41607
L38070 41645
L38089 41663
L38127 41682
L38202 41682
L38239 41663
L38258 41645
L38277 41607
L38277 41513
L38258 41476
L38239 41457
L38202 41438
L38127 41438
L38089 41457
L38070 41476
L38052 41513
" />
<path d="M36953 40392
L37010 40410
L37103 40410
L37141 40392
L37160 40373
L37178 40335
L37178 40298
L37160 40260
L37141 40242
L37103 40223
L37028 40204
L36991 40185
L36972 40167
L36953 40129
L36953 40092
L36972 40054
L36991 40035
L37028 40017
L37122 40017
L37178 40035
" />
<path d="M37572 40410
L37441 40223
" />
<path d="M37347 40410
L37347 40017
L37497 40017
L37534 40035
L37553 40054
L37572 40092
L37572 40148
L37553 40185
L37534 40204
L37497 40223
L37347 40223
" />
<path d="M37684 40017
L37816 40410
L37947 40017
" />
<path d="M38266 40017
L38078 40017
L38059 40204
L38078 40185
L38116 40167
L38209 40167
L38247 40185
L38266 40204
L38284 40242
L38284 40335
L38266 40373
L38247 40392
L38209 40410
L38116 40410
L38078 40392
L38059 40373
" />
<path d="M36945 39136
L37002 39155
L37095 39155
L37133 39136
L37152 39117
L37170 39080
L37170 39042
L37152 39005
L37133 38986
L37095 38967
L37020 38948
L36983 38930
L36964 38911
L36945 38873
L36945 38836
L36964 38798
L36983 38780
L37020 38761
L37114 38761
L37170 38780
" />
<path d="M37564 39155
L37433 38967
" />
<path d="M37339 39155
L37339 38761
L37489 38761
L37527 38780
L37545 38798
L37564 38836
L37564 38892
L37545 38930
L37527 38948
L37489 38967
L37339 38967
" />
<path d="M37677 38761
L37808 39155
L37939 38761
" />
<path d="M38239 38892
L38239 39155
" />
<path d="M38145 38742
L38052 39023
L38295 39023
" />
<path d="M31411 46069
L31730 46069
L31767 46051
L31786 46032
L31805 45994
L31805 45919
L31786 45882
L31767 45863
L31730 45844
L31411 45844
" />
<path d="M31786 45676
L31805 45619
L31805 45526
L31786 45488
L31767 45469
L31730 45451
L31692 45451
L31655 45469
L31636 45488
L31617 45526
L31599 45601
L31580 45638
L31561 45657
L31524 45676
L31486 45676
L31449 45657
L31430 45638
L31411 45601
L31411 45507
L31430 45451
" />
<path d="M31599 45151
L31617 45094
L31636 45076
L31674 45057
L31730 45057
L31767 45076
L31786 45094
L31805 45132
L31805 45282
L31411 45282
L31411 45151
L31430 45113
L31449 45094
L31486 45076
L31524 45076
L31561 45094
L31580 45113
L31599 45151
L31599 45282
" />
<path d="M31655 44888
L31655 44588
" />
<path d="M31805 44213
L31805 44401
L31411 44401
" />
<path d="M31805 44082
L31411 44082
L31692 43951
L31411 43820
L31805 43820
" />
<path d="M31411 43670
L31411 43407
L31805 43576
" />
<path d="M31580 43201
L31561 43238
L31542 43257
L31505 43276
L31486 43276
L31449 43257
L31430 43238
L31411 43201
L31411 43126
L31430 43088
L31449 43070
L31486 43051
L31505 43051
L31542 43070
L31561 43088
L31580 43126
L31580 43201
L31599 43238
L31617 43257
L31655 43276
L31730 43276
L31767 43257
L31786 43238
L31805 43201
L31805 43126
L31786 43088
L31767 43070
L31730 43051
L31655 43051
L31617 43070
L31599 43088
L31580 43126
" />
<path d="M31411 42807
L31411 42770
L31430 42732
L31449 42713
L31486 42695
L31561 42676
L31655 42676
L31730 42695
L31767 42713
L31786 42732
L31805 42770
L31805 42807
L31786 42845
L31767 42863
L31730 42882
L31655 42901
L31561 42901
L31486 42882
L31449 42863
L31430 42845
L31411 42807
" />
<path d="M31411 42320
L31411 42507
L31599 42526
L31580 42507
L31561 42470
L31561 42376
L31580 42339
L31599 42320
L31636 42301
L31730 42301
L31767 42320
L31786 42339
L31805 42376
L31805 42470
L31786 42507
L31767 42526
" />
<path d="M36961 37864
L37017 37883
L37111 37883
L37149 37864
L37167 37845
L37186 37808
L37186 37770
L37167 37733
L37149 37714
L37111 37695
L37036 37677
L36999 37658
L36980 37639
L36961 37602
L36961 37564
L36980 37527
L36999 37508
L37036 37489
L37130 37489
L37186 37508
" />
<path d="M37580 37883
L37449 37695
" />
<path d="M37355 37883
L37355 37489
L37505 37489
L37542 37508
L37561 37527
L37580 37564
L37580 37620
L37561 37658
L37542 37677
L37505 37695
L37355 37695
" />
<path d="M37692 37489
L37824 37883
L37955 37489
" />
<path d="M38049 37489
L38292 37489
L38161 37639
L38217 37639
L38255 37658
L38274 37677
L38292 37714
L38292 37808
L38274 37845
L38255 37864
L38217 37883
L38105 37883
L38067 37864
L38049 37845
" />
<path d="M36926 36628
L36982 36647
L37076 36647
L37113 36628
L37132 36609
L37151 36572
L37151 36534
L37132 36497
L37113 36478
L37076 36459
L37001 36440
L36963 36422
L36944 36403
L36926 36365
L36926 36328
L36944 36290
L36963 36272
L37001 36253
L37094 36253
L37151 36272
" />
<path d="M37544 36647
L37413 36459
" />
<path d="M37319 36647
L37319 36253
L37469 36253
L37507 36272
L37526 36290
L37544 36328
L37544 36384
L37526 36422
L37507 36440
L37469 36459
L37319 36459
" />
<path d="M37657 36253
L37788 36647
L37919 36253
" />
<path d="M38032 36290
L38051 36272
L38088 36253
L38182 36253
L38219 36272
L38238 36290
L38257 36328
L38257 36365
L38238 36422
L38013 36647
L38257 36647
" />
<path d="M36945 35360
L37002 35379
L37095 35379
L37133 35360
L37152 35341
L37170 35304
L37170 35266
L37152 35229
L37133 35210
L37095 35191
L37020 35173
L36983 35154
L36964 35135
L36945 35098
L36945 35060
L36964 35023
L36983 35004
L37020 34985
L37114 34985
L37170 35004
" />
<path d="M37564 35379
L37433 35191
" />
<path d="M37339 35379
L37339 34985
L37489 34985
L37527 35004
L37545 35023
L37564 35060
L37564 35116
L37545 35154
L37527 35173
L37489 35191
L37339 35191
" />
<path d="M37677 34985
L37808 35379
L37939 34985
" />
<path d="M38277 35379
L38052 35379
" />
<path d="M38164 35379
L38164 34985
L38127 35041
L38089 35079
L38052 35098
" />
<path d="M24029 20042
L23823 20042
L23786 20061
L23767 20098
L23767 20173
L23786 20211
" />
<path d="M24010 20042
L24029 20080
L24029 20173
L24010 20211
L23973 20230
L23935 20230
L23898 20211
L23879 20173
L23879 20080
L23861 20042
" />
<path d="M23767 19855
L24029 19855
" />
<path d="M23804 19855
L23786 19836
L23767 19799
L23767 19742
L23786 19705
L23823 19686
L24029 19686
" />
<path d="M24029 19330
L23823 19330
L23786 19349
L23767 19386
L23767 19461
L23786 19499
" />
<path d="M24010 19330
L24029 19367
L24029 19461
L24010 19499
L23973 19517
L23935 19517
L23898 19499
L23879 19461
L23879 19367
L23861 19330
" />
<path d="M24029 19086
L24010 19124
L23973 19142
L23636 19142
" />
<path d="M24029 18880
L24010 18917
L23992 18936
L23954 18955
L23842 18955
L23804 18936
L23786 18917
L23767 18880
L23767 18824
L23786 18786
L23804 18767
L23842 18749
L23954 18749
L23992 18767
L24010 18786
L24029 18824
L24029 18880
" />
<path d="M23767 18411
L24085 18411
L24123 18430
L24142 18449
L24160 18486
L24160 18542
L24142 18580
" />
<path d="M24010 18411
L24029 18449
L24029 18524
L24010 18561
L23992 18580
L23954 18599
L23842 18599
L23804 18580
L23786 18561
L23767 18524
L23767 18449
L23786 18411
" />
<path d="M21127 20013
L21108 20050
L21108 20106
L21127 20163
L21164 20200
L21202 20219
L21277 20238
L21333 20238
L21408 20219
L21445 20200
L21483 20163
L21502 20106
L21502 20069
L21483 20013
L21464 19994
L21333 19994
L21333 20069
" />
<path d="M21502 19825
L21108 19825
L21502 19600
L21108 19600
" />
<path d="M21502 19413
L21108 19413
L21108 19319
L21127 19263
L21164 19225
L21202 19206
L21277 19188
L21333 19188
L21408 19206
L21445 19225
L21483 19263
L21502 19319
L21502 19413
" />
<path d="M35333 34115
L34939 34115
L34939 33965
L34958 33927
L34977 33908
L35014 33890
L35071 33890
L35108 33908
L35127 33927
L35146 33965
L35146 34115
" />
<path d="M34939 33646
L34939 33571
L34958 33534
L34996 33496
L35071 33477
L35202 33477
L35277 33496
L35314 33534
L35333 33571
L35333 33646
L35314 33683
L35277 33721
L35202 33740
L35071 33740
L34996 33721
L34958 33683
L34939 33646
" />
<path d="M35333 33084
L35146 33215
" />
<path d="M35333 33309
L34939 33309
L34939 33159
L34958 33121
L34977 33102
L35014 33084
L35071 33084
L35108 33102
L35127 33121
L35146 33159
L35146 33309
" />
<path d="M34939 32971
L34939 32746
" />
<path d="M35333 32859
L34939 32859
" />
<path d="M35333 32615
L34939 32615
L34939 32521
L34958 32465
L34996 32427
L35033 32409
L35108 32390
L35164 32390
L35239 32409
L35277 32427
L35314 32465
L35333 32521
L35333 32615
" />
<path d="M35127 32221
L35127 31921
" />
<path d="M35239 31921
L35239 32221
" />
<path d="M35071 31565
L35333 31565
" />
<path d="M34921 31659
L35202 31752
L35202 31509
" />
<path d="M35183 31359
L35183 31059
" />
<path d="M34939 30909
L34939 30646
L35333 30815
" />
<path d="M22639 20231
L22639 19931
" />
<path d="M22789 20081
L22489 20081
" />
<path d="M22395 19556
L22395 19743
L22583 19762
L22564 19743
L22545 19706
L22545 19612
L22564 19574
L22583 19556
L22620 19537
L22714 19537
L22752 19556
L22770 19574
L22789 19612
L22789 19706
L22770 19743
L22752 19762
" />
<path d="M22395 19425
L22789 19293
L22395 19162
" />
<path d="M38318 44859
L38355 44877
L38430 44877
L38468 44859
L38486 44821
L38486 44802
L38468 44765
L38430 44746
L38374 44746
L38337 44727
L38318 44690
L38318 44671
L38337 44634
L38374 44615
L38430 44615
L38468 44634
" />
<path d="M38618 44615
L38693 44877
L38768 44690
L38843 44877
L38918 44615
" />
<path d="M38974 44915
L39274 44915
" />
<path d="M39536 44877
L39536 44671
L39518 44634
L39480 44615
L39405 44615
L39368 44634
" />
<path d="M39536 44859
L39499 44877
L39405 44877
L39368 44859
L39349 44821
L39349 44784
L39368 44746
L39405 44727
L39499 44727
L39536 44709
" />
<path d="M39780 44877
L39743 44859
L39724 44821
L39724 44484
" />
<path d="M39930 44877
L39930 44615
" />
<path d="M39930 44484
L39911 44502
L39930 44521
L39949 44502
L39930 44484
L39930 44521
" />
<path d="M40118 44877
L40118 44615
" />
<path d="M40118 44652
L40136 44634
L40174 44615
L40230 44615
L40268 44634
L40286 44671
L40286 44877
" />
<path d="M40286 44671
L40305 44634
L40343 44615
L40399 44615
L40436 44634
L40455 44671
L40455 44877
" />
<path d="M40792 44859
L40755 44877
L40680 44877
L40642 44859
L40624 44821
L40624 44671
L40642 44634
L40680 44615
L40755 44615
L40792 44634
L40811 44671
L40811 44709
L40624 44746
" />
<path d="M40980 44615
L40980 44877
" />
<path d="M40980 44652
L40999 44634
L41036 44615
L41092 44615
L41130 44634
L41149 44671
L41149 44877
" />
<path d="M41280 44615
L41430 44615
" />
<path d="M41336 44484
L41336 44821
L41355 44859
L41392 44877
L41430 44877
" />
<path d="M34471 47009
L34771 47009
" />
<path d="M36758 47009
L37058 47009
" />
<path d="M36908 47158
L36908 46859
" />
<path d="M50933 32727
L50539 32727
L50821 32596
L50539 32465
L50933 32465
" />
<path d="M50539 32202
L50539 32127
L50558 32090
L50596 32052
L50671 32034
L50802 32034
L50877 32052
L50914 32090
L50933 32127
L50933 32202
L50914 32240
L50877 32277
L50802 32296
L50671 32296
L50596 32277
L50558 32240
L50539 32202
" />
<path d="M50539 31921
L50539 31696
" />
<path d="M50933 31809
L50539 31809
" />
<path d="M50539 31490
L50539 31415
L50558 31377
L50596 31340
L50671 31321
L50802 31321
L50877 31340
L50914 31377
L50933 31415
L50933 31490
L50914 31527
L50877 31565
L50802 31584
L50671 31584
L50596 31565
L50558 31527
L50539 31490
" />
<path d="M50933 30927
L50746 31059
" />
<path d="M50933 31152
L50539 31152
L50539 31002
L50558 30965
L50577 30946
L50614 30927
L50671 30927
L50708 30946
L50727 30965
L50746 31002
L50746 31152
" />
<path d="M50971 30852
L50971 30553
" />
<path d="M50933 30253
L50933 30478
" />
<path d="M50933 30365
L50539 30365
L50596 30403
L50633 30440
L50652 30478
" />
<path d="M34433 20252
L34039 20252
L34039 20102
L34058 20065
L34077 20046
L34114 20027
L34171 20027
L34208 20046
L34227 20065
L34246 20102
L34246 20252
" />
<path d="M34039 19784
L34039 19709
L34058 19671
L34096 19634
L34171 19615
L34302 19615
L34377 19634
L34414 19671
L34433 19709
L34433 19784
L34414 19821
L34377 19859
L34302 19877
L34171 19877
L34096 19859
L34058 19821
L34039 19784
" />
<path d="M34433 19221
L34246 19352
" />
<path d="M34433 19446
L34039 19446
L34039 19296
L34058 19259
L34077 19240
L34114 19221
L34171 19221
L34208 19240
L34227 19259
L34246 19296
L34246 19446
" />
<path d="M34039 19109
L34039 18884
" />
<path d="M34433 18996
L34039 18996
" />
<path d="M34227 18621
L34246 18565
L34264 18546
L34302 18528
L34358 18528
L34396 18546
L34414 18565
L34433 18603
L34433 18752
L34039 18752
L34039 18621
L34058 18584
L34077 18565
L34114 18546
L34152 18546
L34189 18565
L34208 18584
L34227 18621
L34227 18752
" />
<path d="M41833 25952
L41439 25952
L41439 25802
L41458 25765
L41477 25746
L41514 25727
L41571 25727
L41608 25746
L41627 25765
L41646 25802
L41646 25952
" />
<path d="M41439 25484
L41439 25409
L41458 25371
L41496 25334
L41571 25315
L41702 25315
L41777 25334
L41814 25371
L41833 25409
L41833 25484
L41814 25521
L41777 25559
L41702 25577
L41571 25577
L41496 25559
L41458 25521
L41439 25484
" />
<path d="M41833 24921
L41646 25052
" />
<path d="M41833 25146
L41439 25146
L41439 24996
L41458 24959
L41477 24940
L41514 24921
L41571 24921
L41608 24940
L41627 24959
L41646 24996
L41646 25146
" />
<path d="M41439 24809
L41439 24584
" />
<path d="M41833 24696
L41439 24696
" />
<path d="M41627 24321
L41646 24265
L41664 24246
L41702 24228
L41758 24228
L41796 24246
L41814 24265
L41833 24303
L41833 24452
L41439 24452
L41439 24321
L41458 24284
L41477 24265
L41514 24246
L41552 24246
L41589 24265
L41608 24284
L41627 24321
L41627 24452
" />
<path d="M28878 17404
L28878 17666
" />
<path d="M28784 17254
L28690 17535
L28934 17535
" />
<path d="M29047 17273
L29309 17273
L29140 17666
" />
<path d="M29534 17273
L29572 17273
L29609 17291
L29628 17310
L29647 17348
L29665 17423
L29665 17516
L29647 17591
L29628 17629
L29609 17648
L29572 17666
L29534 17666
L29497 17648
L29478 17629
L29459 17591
L29440 17516
L29440 17423
L29459 17348
L29478 17310
L29497 17291
L29534 17273
" />
<path d="M28952 19347
L28727 19347
" />
<path d="M28839 19347
L28839 18954
L28802 19010
L28764 19047
L28727 19066
" />
<path d="M29121 19347
L29121 18954
" />
<path d="M29346 19347
L29177 19122
" />
<path d="M29346 18954
L29121 19179
" />
<path d="M47277 16451
L47146 16264
" />
<path d="M47052 16451
L47052 16058
L47202 16058
L47239 16076
L47258 16095
L47277 16133
L47277 16189
L47258 16226
L47239 16245
L47202 16264
L47052 16264
" />
<path d="M47177 19851
L47046 19664
" />
<path d="M46952 19851
L46952 19458
L47102 19458
L47139 19476
L47158 19495
L47177 19533
L47177 19589
L47158 19626
L47139 19645
L47102 19664
L46952 19664
" />
<path d="M47177 23251
L47046 23064
" />
<path d="M46952 23251
L46952 22858
L47102 22858
L47139 22876
L47158 22895
L47177 22933
L47177 22989
L47158 23026
L47139 23045
L47102 23064
L46952 23064
" />
<path d="M47177 26651
L47046 26464
" />
<path d="M46952 26651
L46952 26258
L47102 26258
L47139 26276
L47158 26295
L47177 26333
L47177 26389
L47158 26426
L47139 26445
L47102 26464
L46952 26464
" />
<path d="M47177 18151
L47046 17964
" />
<path d="M46952 18151
L46952 17758
L47102 17758
L47139 17776
L47158 17795
L47177 17833
L47177 17889
L47158 17926
L47139 17945
L47102 17964
L46952 17964
" />
<path d="M47177 21551
L47046 21364
" />
<path d="M46952 21551
L46952 21158
L47102 21158
L47139 21176
L47158 21195
L47177 21233
L47177 21289
L47158 21326
L47139 21345
L47102 21364
L46952 21364
" />
<path d="M47177 24951
L47046 24764
" />
<path d="M46952 24951
L46952 24558
L47102 24558
L47139 24576
L47158 24595
L47177 24633
L47177 24689
L47158 24726
L47139 24745
L47102 24764
L46952 24764
" />
<path d="M47969 28351
L47838 28164
" />
<path d="M47744 28351
L47744 27958
L47894 27958
L47932 27976
L47950 27995
L47969 28033
L47969 28089
L47950 28126
L47932 28145
L47894 28164
L47744 28164
" />
<path d="M20636 17820
L20448 17951
" />
<path d="M20636 18045
L20242 18045
L20242 17895
L20261 17857
L20279 17839
L20317 17820
L20373 17820
L20411 17839
L20429 17857
L20448 17895
L20448 18045
" />
<path d="M20429 17651
L20429 17520
" />
<path d="M20636 17464
L20636 17651
L20242 17651
L20242 17464
" />
<path d="M20617 17314
L20636 17257
L20636 17164
L20617 17126
L20598 17107
L20561 17089
L20523 17089
L20486 17107
L20467 17126
L20448 17164
L20429 17239
L20411 17276
L20392 17295
L20354 17314
L20317 17314
L20279 17295
L20261 17276
L20242 17239
L20242 17145
L20261 17089
" />
<path d="M20429 16920
L20429 16789
" />
<path d="M20636 16733
L20636 16920
L20242 16920
L20242 16733
" />
<path d="M20242 16620
L20242 16395
" />
<path d="M20636 16508
L20242 16508
" />
<path d="M27825 41056
L27825 40662
L27975 40662
L28013 40681
L28031 40700
L28050 40737
L28050 40794
L28031 40831
L28013 40850
L27975 40869
L27825 40869
" />
<path d="M28219 41056
L28219 40662
" />
<path d="M28631 41019
L28613 41037
L28556 41056
L28519 41056
L28463 41037
L28425 41000
L28406 40962
L28388 40887
L28388 40831
L28406 40756
L28425 40719
L28463 40681
L28519 40662
L28556 40662
L28613 40681
L28631 40700
" />
<path d="M29006 41056
L28781 41056
" />
<path d="M28894 41056
L28894 40662
L28856 40719
L28819 40756
L28781 40775
" />
<path d="M29231 40831
L29194 40812
L29175 40794
L29156 40756
L29156 40737
L29175 40700
L29194 40681
L29231 40662
L29306 40662
L29344 40681
L29363 40700
L29381 40737
L29381 40756
L29363 40794
L29344 40812
L29306 40831
L29231 40831
L29194 40850
L29175 40869
L29156 40906
L29156 40981
L29175 41019
L29194 41037
L29231 41056
L29306 41056
L29344 41037
L29363 41019
L29381 40981
L29381 40906
L29363 40869
L29344 40850
L29306 40831
" />
<path d="M29681 40850
L29550 40850
" />
<path d="M29550 41056
L29550 40662
L29738 40662
" />
<path d="M30056 40794
L30056 41056
" />
<path d="M29962 40644
L29869 40925
L30112 40925
" />
<path d="M30450 40662
L30262 40662
L30244 40850
L30262 40831
L30300 40812
L30394 40812
L30431 40831
L30450 40850
L30469 40887
L30469 40981
L30450 41019
L30431 41037
L30394 41056
L30300 41056
L30262 41037
L30244 41019
" />
<path d="M30825 40662
L30637 40662
L30619 40850
L30637 40831
L30675 40812
L30769 40812
L30806 40831
L30825 40850
L30844 40887
L30844 40981
L30825 41019
L30806 41037
L30769 41056
L30675 41056
L30637 41037
L30619 41019
" />
<path d="M31087 40662
L31125 40662
L31162 40681
L31181 40700
L31200 40737
L31219 40812
L31219 40906
L31200 40981
L31181 41019
L31162 41037
L31125 41056
L31087 41056
L31050 41037
L31031 41019
L31012 40981
L30994 40906
L30994 40812
L31012 40737
L31031 40700
L31050 40681
L31087 40662
" />
<path d="M48147 39265
L47960 39265
L47960 38871
" />
<path d="M48279 39265
L48279 38871
L48410 39152
L48541 38871
L48541 39265
" />
<path d="M48691 38871
L48953 38871
L48785 39265
" />
<path d="M49160 39040
L49122 39021
L49103 39002
L49085 38965
L49085 38946
L49103 38909
L49122 38890
L49160 38871
L49235 38871
L49272 38890
L49291 38909
L49310 38946
L49310 38965
L49291 39002
L49272 39021
L49235 39040
L49160 39040
L49122 39059
L49103 39077
L49085 39115
L49085 39190
L49103 39227
L49122 39246
L49160 39265
L49235 39265
L49272 39246
L49291 39227
L49310 39190
L49310 39115
L49291 39077
L49272 39059
L49235 39040
" />
<path d="M49553 38871
L49591 38871
L49628 38890
L49647 38909
L49666 38946
L49685 39021
L49685 39115
L49666 39190
L49647 39227
L49628 39246
L49591 39265
L49553 39265
L49516 39246
L49497 39227
L49478 39190
L49460 39115
L49460 39021
L49478 38946
L49497 38909
L49516 38890
L49553 38871
" />
<path d="M50041 38871
L49853 38871
L49835 39059
L49853 39040
L49891 39021
L49985 39021
L50022 39040
L50041 39059
L50060 39096
L50060 39190
L50041 39227
L50022 39246
L49985 39265
L49891 39265
L49853 39246
L49835 39227
" />
<path d="M50453 39227
L50435 39246
L50378 39265
L50341 39265
L50285 39246
L50247 39209
L50228 39171
L50210 39096
L50210 39040
L50228 38965
L50247 38927
L50285 38890
L50341 38871
L50378 38871
L50435 38890
L50453 38909
" />
<path d="M50566 38871
L50791 38871
" />
<path d="M50678 39265
L50678 38871
" />
<path d="M51955 42884
L51955 43202
L51974 43240
L51993 43259
L52030 43277
L52105 43277
L52143 43259
L52161 43240
L52180 43202
L52180 42884
" />
<path d="M52574 43277
L52349 43277
" />
<path d="M52461 43277
L52461 42884
L52424 42940
L52386 42977
L52349 42996
" />
<path d="M36527 19784
L36527 20102
L36546 20140
L36565 20159
L36602 20177
L36677 20177
L36715 20159
L36733 20140
L36752 20102
L36752 19784
" />
<path d="M37127 20177
L36940 20177
L36940 19784
" />
<path d="M37258 20177
L37258 19784
L37483 20177
L37483 19784
" />
<path d="M37652 19821
L37671 19802
L37708 19784
L37802 19784
L37839 19802
L37858 19821
L37877 19859
L37877 19896
L37858 19952
L37633 20177
L37877 20177
" />
<path d="M38102 19952
L38064 19934
L38046 19915
L38027 19877
L38027 19859
L38046 19821
L38064 19802
L38102 19784
L38177 19784
L38214 19802
L38233 19821
L38252 19859
L38252 19877
L38233 19915
L38214 19934
L38177 19952
L38102 19952
L38064 19971
L38046 19990
L38027 20027
L38027 20102
L38046 20140
L38064 20159
L38102 20177
L38177 20177
L38214 20159
L38233 20140
L38252 20102
L38252 20027
L38233 19990
L38214 19971
L38177 19952
" />
<path d="M38496 19784
L38533 19784
L38571 19802
L38589 19821
L38608 19859
L38627 19934
L38627 20027
L38608 20102
L38589 20140
L38571 20159
L38533 20177
L38496 20177
L38458 20159
L38439 20140
L38421 20102
L38402 20027
L38402 19934
L38421 19859
L38439 19821
L38458 19802
L38496 19784
" />
<path d="M38758 19784
L39002 19784
L38871 19934
L38927 19934
L38964 19952
L38983 19971
L39002 20009
L39002 20102
L38983 20140
L38964 20159
L38927 20177
L38814 20177
L38777 20159
L38758 20140
" />
<path d="M23037 32428
L23056 32446
L23075 32503
L23075 32540
L23056 32596
L23018 32634
L22981 32652
L22906 32671
L22850 32671
L22775 32652
L22737 32634
L22700 32596
L22681 32540
L22681 32503
L22700 32446
L22718 32428
" />
<path d="M23075 32259
L22812 32259
" />
<path d="M22887 32259
L22850 32240
L22831 32221
L22812 32184
L22812 32146
" />
<path d="M22812 32053
L23075 31959
" />
<path d="M22812 31865
L23075 31959
L23168 31996
L23187 32015
L23206 32053
" />
<path d="M23056 31734
L23075 31696
L23075 31621
L23056 31584
L23018 31565
L23000 31565
L22962 31584
L22943 31621
L22943 31678
L22925 31715
L22887 31734
L22868 31734
L22831 31715
L22812 31678
L22812 31621
L22831 31584
" />
<path d="M22812 31453
L22812 31303
" />
<path d="M22681 31396
L23018 31396
L23056 31378
L23075 31340
L23075 31303
" />
<path d="M23075 31003
L22868 31003
L22831 31021
L22812 31059
L22812 31134
L22831 31171
" />
<path d="M23056 31003
L23075 31040
L23075 31134
L23056 31171
L23018 31190
L22981 31190
L22943 31171
L22925 31134
L22925 31040
L22906 31003
" />
<path d="M23075 30759
L23056 30796
L23018 30815
L22681 30815
" />
<path d="M20707 35092
L20764 35111
L20857 35111
L20895 35092
L20914 35074
L20932 35036
L20932 34999
L20914 34961
L20895 34943
L20857 34924
L20782 34905
L20745 34886
L20726 34868
L20707 34830
L20707 34793
L20726 34755
L20745 34736
L20782 34718
L20876 34718
L20932 34736
" />
<path d="M21101 34905
L21232 34905
" />
<path d="M21289 35111
L21101 35111
L21101 34718
L21289 34718
" />
<path d="M21457 35111
L21457 34718
L21682 35111
L21682 34718
" />
<path d="M21851 35092
L21907 35111
L22001 35111
L22038 35092
L22057 35074
L22076 35036
L22076 34999
L22057 34961
L22038 34943
L22001 34924
L21926 34905
L21888 34886
L21870 34868
L21851 34830
L21851 34793
L21870 34755
L21888 34736
L21926 34718
L22020 34718
L22076 34736
" />
<path d="M22151 35149
L22451 35149
" />
<path d="M22545 35111
L22545 34718
L22638 34718
L22695 34736
L22732 34774
L22751 34811
L22770 34886
L22770 34943
L22751 35017
L22732 35055
L22695 35092
L22638 35111
L22545 35111
" />
<path d="M22901 34718
L23145 34718
L23013 34868
L23070 34868
L23107 34886
L23126 34905
L23145 34943
L23145 35036
L23126 35074
L23107 35092
L23070 35111
L22957 35111
L22920 35092
L22901 35074
" />
<path d="M20723 36356
L20779 36375
L20873 36375
L20911 36356
L20929 36338
L20948 36300
L20948 36263
L20929 36225
L20911 36206
L20873 36188
L20798 36169
L20761 36150
L20742 36131
L20723 36094
L20723 36056
L20742 36019
L20761 36000
L20798 35981
L20892 35981
L20948 36000
" />
<path d="M21117 36169
L21248 36169
" />
<path d="M21304 36375
L21117 36375
L21117 35981
L21304 35981
" />
<path d="M21473 36375
L21473 35981
L21698 36375
L21698 35981
" />
<path d="M21867 36356
L21923 36375
L22017 36375
L22054 36356
L22073 36338
L22092 36300
L22092 36263
L22073 36225
L22054 36206
L22017 36188
L21942 36169
L21904 36150
L21885 36131
L21867 36094
L21867 36056
L21885 36019
L21904 36000
L21942 35981
L22035 35981
L22092 36000
" />
<path d="M22167 36413
L22467 36413
" />
<path d="M22560 36375
L22560 35981
L22654 35981
L22710 36000
L22748 36038
L22767 36075
L22785 36150
L22785 36206
L22767 36281
L22748 36319
L22710 36356
L22654 36375
L22560 36375
" />
<path d="M22935 36019
L22954 36000
L22992 35981
L23085 35981
L23123 36000
L23142 36019
L23160 36056
L23160 36094
L23142 36150
L22917 36375
L23160 36375
" />
<path d="M23026 39498
L23045 39442
L23045 39348
L23026 39311
L23007 39292
L22970 39273
L22932 39273
L22895 39292
L22876 39311
L22858 39348
L22839 39423
L22820 39461
L22801 39479
L22764 39498
L22726 39498
L22689 39479
L22670 39461
L22651 39423
L22651 39329
L22670 39273
" />
<path d="M22839 39104
L22839 38973
" />
<path d="M23045 38917
L23045 39104
L22651 39104
L22651 38917
" />
<path d="M23045 38748
L22651 38748
L23045 38523
L22651 38523
" />
<path d="M23026 38355
L23045 38298
L23045 38205
L23026 38167
L23007 38148
L22970 38130
L22932 38130
L22895 38148
L22876 38167
L22858 38205
L22839 38280
L22820 38317
L22801 38336
L22764 38355
L22726 38355
L22689 38336
L22670 38317
L22651 38280
L22651 38186
L22670 38130
" />
<path d="M23082 38055
L23082 37755
" />
<path d="M23045 37661
L22651 37661
L22651 37567
L22670 37511
L22708 37473
L22745 37455
L22820 37436
L22876 37436
L22951 37455
L22989 37473
L23026 37511
L23045 37567
L23045 37661
" />
<path d="M23045 37061
L23045 37286
" />
<path d="M23045 37173
L22651 37173
L22708 37211
L22745 37248
L22764 37286
" />
<path d="M41590 47277
L41402 47277
L41402 46884
" />
<path d="M41721 47277
L41721 46884
L41852 47165
L41983 46884
L41983 47277
" />
<path d="M42133 46884
L42396 46884
L42227 47277
" />
<path d="M42602 47052
L42565 47034
L42546 47015
L42527 46977
L42527 46959
L42546 46921
L42565 46902
L42602 46884
L42677 46884
L42715 46902
L42733 46921
L42752 46959
L42752 46977
L42733 47015
L42715 47034
L42677 47052
L42602 47052
L42565 47071
L42546 47090
L42527 47127
L42527 47202
L42546 47240
L42565 47259
L42602 47277
L42677 47277
L42715 47259
L42733 47240
L42752 47202
L42752 47127
L42733 47090
L42715 47071
L42677 47052
" />
<path d="M43108 47277
L42921 47277
L42921 46884
" />
<path d="M43314 46884
L43352 46884
L43389 46902
L43408 46921
L43427 46959
L43446 47034
L43446 47127
L43427 47202
L43408 47240
L43389 47259
L43352 47277
L43314 47277
L43277 47259
L43258 47240
L43239 47202
L43221 47127
L43221 47034
L43239 46959
L43258 46921
L43277 46902
L43314 46884
" />
<path d="M43802 46884
L43614 46884
L43596 47071
L43614 47052
L43652 47034
L43746 47034
L43783 47052
L43802 47071
L43821 47109
L43821 47202
L43802 47240
L43783 47259
L43746 47277
L43652 47277
L43614 47259
L43596 47240
" />
<path d="M43971 47165
L44158 47165
" />
<path d="M43933 47277
L44064 46884
L44196 47277
" />
<path d="M44552 47240
L44533 47259
L44477 47277
L44439 47277
L44383 47259
L44346 47221
L44327 47184
L44308 47109
L44308 47052
L44327 46977
L44346 46940
L44383 46902
L44439 46884
L44477 46884
L44533 46902
L44552 46921
" />
<path d="M44683 46884
L44945 46884
L44683 47277
L44945 47277
" />
<path d="M20476 13909
L20495 13890
L20532 13871
L20626 13871
L20663 13890
L20682 13909
L20701 13946
L20701 13984
L20682 14040
L20457 14265
L20701 14265
" />
<path d="M20870 14227
L20888 14246
L20870 14265
L20851 14246
L20870 14227
L20870 14265
" />
<path d="M21244 13871
L21057 13871
L21038 14059
L21057 14040
L21094 14021
L21188 14021
L21226 14040
L21244 14059
L21263 14096
L21263 14190
L21244 14227
L21226 14246
L21188 14265
L21094 14265
L21057 14246
L21038 14227
" />
<path d="M21432 14265
L21432 14002
" />
<path d="M21432 14040
L21451 14021
L21488 14002
L21544 14002
L21582 14021
L21601 14059
L21601 14265
" />
<path d="M21601 14059
L21619 14021
L21657 14002
L21713 14002
L21751 14021
L21769 14059
L21769 14265
" />
<path d="M21957 14265
L21957 14002
" />
<path d="M21957 14040
L21976 14021
L22013 14002
L22069 14002
L22107 14021
L22126 14059
L22126 14265
" />
<path d="M22126 14059
L22144 14021
L22182 14002
L22238 14002
L22276 14021
L22294 14059
L22294 14265
" />
</g>
<g style="fill:#000000; fill-opacity:0.0; 
stroke:#000000; stroke-width:39.3701; stroke-opacity:1; 
stroke-linecap:round; stroke-linejoin:round;">
<path d="M38548 33400
L38548 31293
" />
<path d="M38548 31293
L46548 31293
" />
<path d="M46548 31293
L46548 33793
" />
<path d="M46548 33793
L38942 33793
" />
<path d="M38942 33793
L38548 33400
" />
<path d="M28816 46146
L28816 43146
" />
<path d="M28816 43146
L27816 43146
" />
<path d="M27816 43146
L27816 46146
" />
<path d="M27816 46146
L28816 46146
" />
<path d="M53659 37048
L53659 33150
" />
<path d="M51179 37068
L54131 37068
" />
<path d="M54131 37068
L54131 33131
" />
<path d="M54131 33131
L51179 33131
" />
<path d="M51179 33131
L51179 37068
" />
<circle cx="24955.6" cy="12907.6" r="1240.16" /> 
<path d="M24955 14265
L24955 13793
" />
<path d="M24699 14029
L25211 14029
" />
<path d="M28792 30126
L29619 30126
" />
<path d="M29619 30126
L29619 28787
" />
<path d="M29619 28787
L28792 28787
" />
<path d="M28792 28787
L28792 30126
" />
<path d="M20887 30260
L20887 31087
" />
<path d="M20887 31087
L22225 31087
" />
<path d="M22225 31087
L22225 30260
" />
<path d="M22225 30260
L20887 30260
" />
<path d="M20887 32272
L20887 33098
" />
<path d="M20887 33098
L22225 33098
" />
<path d="M22225 33098
L22225 32272
" />
<path d="M22225 32272
L20887 32272
" />
<path d="M24922 39248
L24922 38421
" />
<path d="M24922 38421
L23583 38421
" />
<path d="M23583 38421
L23583 39248
" />
<path d="M23583 39248
L24922 39248
" />
<circle cx="42506.5" cy="38723.8" r="1240.16" /> 
<path d="M42506 37365
L42506 37837
" />
<path d="M42762 37601
L42250 37601
" />
<circle cx="48753.2" cy="45599.8" r="1240.16" /> 
<path d="M47394 45599
L47867 45599
" />
<path d="M47631 45343
L47631 45855
" />
<circle cx="42506.5" cy="42323.8" r="1240.16" /> 
<path d="M42506 43682
L42506 43209
" />
<path d="M42250 43445
L42762 43445
" />
<circle cx="52055.6" cy="45591.9" r="1240.16" /> 
<path d="M52055 46950
L52055 46477
" />
<path d="M51799 46713
L52311 46713
" />
<path d="M45342 46661
L46168 46661
" />
<path d="M46168 46661
L46168 45322
" />
<path d="M46168 45322
L45342 45322
" />
<path d="M45342 45322
L45342 46661
" />
<path d="M44193 41293
L45019 41293
" />
<path d="M45019 41293
L45019 39954
" />
<path d="M45019 39954
L44193 39954
" />
<path d="M44193 39954
L44193 41293
" />
<path d="M41778 32086
L41778 32913
" />
<path d="M41778 32913
L43116 32913
" />
<path d="M43116 32913
L43116 32086
" />
<path d="M43116 32086
L41778 32086
" />
<path d="M28635 13803.7 A1141.73 1141.73 0.0 1 0 27477.7 13803.7 " />
<circle cx="28056.4" cy="12819.5" r="984.252" /> 
<path d="M27477 13803
L28634 13803
" />
<path d="M40183 39247
L38727 39247
" />
<path d="M38727 39247
L38727 42751
" />
<path d="M38727 42751
L40183 42751
" />
<path d="M40183 42751
L40183 39247
" />
<path d="M39455 38499
L39455 39247
" />
<path d="M39455 43499
L39455 42751
" />
<path d="M40183 39773
L38727 39773
" />
<path d="M49691.7 13799.8 A1141.73 1141.73 0.0 1 0 48534.4 13799.8 " />
<circle cx="49113.1" cy="12815.5" r="984.252" /> 
<path d="M48534 13799
L49691 13799
" />
<path d="M47091.7 13799.8 A1141.73 1141.73 0.0 1 0 45934.4 13799.8 " />
<circle cx="46513.1" cy="12815.5" r="984.252" /> 
<path d="M45934 13799
L47091 13799
" />
<path d="M44491.7 13799.8 A1141.73 1141.73 0.0 1 0 43334.4 13799.8 " />
<circle cx="43913.1" cy="12815.5" r="984.252" /> 
<path d="M43334 13799
L44491 13799
" />
<path d="M41891.7 13799.8 A1141.73 1141.73 0.0 1 0 40734.4 13799.8 " />
<circle cx="41313.1" cy="12815.5" r="984.252" /> 
<path d="M40734 13799
L41891 13799
" />
<path d="M39291.7 13799.8 A1141.73 1141.73 0.0 1 0 38134.4 13799.8 " />
<circle cx="38713.1" cy="12815.5" r="984.252" /> 
<path d="M38134 13799
L39291 13799
" />
<path d="M36691.7 13799.8 A1141.73 1141.73 0.0 1 0 35534.4 13799.8 " />
<circle cx="36113.1" cy="12815.5" r="984.252" /> 
<path d="M35534 13799
L36691 13799
" />
<path d="M34091.7 13799.8 A1141.73 1141.73 0.0 1 0 32934.4 13799.8 " />
<circle cx="33513.1" cy="12815.5" r="984.252" /> 
<path d="M32934 13799
L34091 13799
" />
<path d="M31491.7 13799.8 A1141.73 1141.73 0.0 1 0 30334.4 13799.8 " />
<circle cx="30913.1" cy="12815.5" r="984.252" /> 
<path d="M30334 13799
L31491 13799
" />
<path d="M33694 42000
L36694 42000
" />
<path d="M36694 42000
L36694 41000
" />
<path d="M36694 41000
L33694 41000
" />
<path d="M33694 41000
L33694 42000
" />
<path d="M33694 40740
L36694 40740
" />
<path d="M36694 40740
L36694 39740
" />
<path d="M36694 39740
L33694 39740
" />
<path d="M33694 39740
L33694 40740
" />
<path d="M33694 39476
L36694 39476
" />
<path d="M36694 39476
L36694 38476
" />
<path d="M36694 38476
L33694 38476
" />
<path d="M33694 38476
L33694 39476
" />
<path d="M31127 46095
L31127 43095
" />
<path d="M31127 43095
L30127 43095
" />
<path d="M30127 43095
L30127 46095
" />
<path d="M30127 46095
L31127 46095
" />
<path d="M33694 38221
L36694 38221
" />
<path d="M36694 38221
L36694 37221
" />
<path d="M36694 37221
L33694 37221
" />
<path d="M33694 37221
L33694 38221
" />
<path d="M33694 36961
L36694 36961
" />
<path d="M36694 36961
L36694 35961
" />
<path d="M36694 35961
L33694 35961
" />
<path d="M33694 35961
L33694 36961
" />
<path d="M33694 35701
L36694 35701
" />
<path d="M36694 35701
L36694 34701
" />
<path d="M36694 34701
L33694 34701
" />
<path d="M33694 34701
L33694 35701
" />
<path d="M24402 28433
L24402 20433
" />
<path d="M24402 20433
L23402 20433
" />
<path d="M23402 20433
L23402 28433
" />
<path d="M23402 28433
L24402 28433
" />
<path d="M21843 28433
L21843 20433
" />
<path d="M21843 20433
L20843 20433
" />
<path d="M20843 20433
L20843 28433
" />
<path d="M20843 28433
L21843 28433
" />
<path d="M34694 34437
L34694 30437
" />
<path d="M34694 30437
L33694 30437
" />
<path d="M33694 30437
L33694 34437
" />
<path d="M33694 34437
L34694 34437
" />
<path d="M23123 28433
L23123 20433
" />
<path d="M23123 20433
L22123 20433
" />
<path d="M22123 20433
L22123 28433
" />
<path d="M22123 28433
L23123 28433
" />
<path d="M41455 45199
L38455 45199
" />
<path d="M38455 45199
L38455 46199
" />
<path d="M38455 46199
L41455 46199
" />
<path d="M41455 46199
L41455 45199
" />
<path d="M37804 44095
L33906 44095
" />
<path d="M37824 46576
L37824 43623
" />
<path d="M37824 43623
L33887 43623
" />
<path d="M33887 43623
L33887 46576
" />
<path d="M33887 46576
L37824 46576
" />
<path d="M53659 32848
L53659 28950
" />
<path d="M51179 32868
L54131 32868
" />
<path d="M54131 32868
L54131 28931
" />
<path d="M54131 28931
L51179 28931
" />
<path d="M51179 28931
L51179 32868
" />
<path d="M34690 28465
L34690 20465
" />
<path d="M34690 20465
L33690 20465
" />
<path d="M33690 20465
L33690 28465
" />
<path d="M33690 28465
L34690 28465
" />
<path d="M40186 20476
L40186 28476
" />
<path d="M40186 28476
L41186 28476
" />
<path d="M41186 28476
L41186 20476
" />
<path d="M41186 20476
L40186 20476
" />
<path d="M30989 18197
L30989 16780
" />
<path d="M30989 16780
L27091 16780
" />
<path d="M27091 16780
L27091 18197
" />
<path d="M27091 18197
L30989 18197
" />
<path d="M31540 17488
L30989 17488
" />
<path d="M26540 17488
L27091 17488
" />
<path d="M30993 19874
L30993 18457
" />
<path d="M30993 18457
L27095 18457
" />
<path d="M27095 18457
L27095 19874
" />
<path d="M27095 19874
L30993 19874
" />
<path d="M31544 19165
L30993 19165
" />
<path d="M26544 19165
L27095 19165
" />
<path d="M49104 18108
L49104 16691
" />
<path d="M49104 16691
L45206 16691
" />
<path d="M45206 16691
L45206 18108
" />
<path d="M45206 18108
L49104 18108
" />
<path d="M49655 17399
L49104 17399
" />
<path d="M44655 17399
L45206 17399
" />
<path d="M49004 21508
L49004 20091
" />
<path d="M49004 20091
L45106 20091
" />
<path d="M45106 20091
L45106 21508
" />
<path d="M45106 21508
L49004 21508
" />
<path d="M49555 20799
L49004 20799
" />
<path d="M44555 20799
L45106 20799
" />
<path d="M49004 24908
L49004 23491
" />
<path d="M49004 23491
L45106 23491
" />
<path d="M45106 23491
L45106 24908
" />
<path d="M45106 24908
L49004 24908
" />
<path d="M49555 24199
L49004 24199
" />
<path d="M44555 24199
L45106 24199
" />
<path d="M49004 28308
L49004 26891
" />
<path d="M49004 26891
L45106 26891
" />
<path d="M45106 26891
L45106 28308
" />
<path d="M45106 28308
L49004 28308
" />
<path d="M49555 27599
L49004 27599
" />
<path d="M44555 27599
L45106 27599
" />
<path d="M49004 19808
L49004 18391
" />
<path d="M49004 18391
L45106 18391
" />
<path d="M45106 18391
L45106 19808
" />
<path d="M45106 19808
L49004 19808
" />
<path d="M49555 19099
L49004 19099
" />
<path d="M44555 19099
L45106 19099
" />
<path d="M49004 23208
L49004 21791
" />
<path d="M49004 21791
L45106 21791
" />
<path d="M45106 21791
L45106 23208
" />
<path d="M45106 23208
L49004 23208
" />
<path d="M49555 22499
L49004 22499
" />
<path d="M44555 22499
L45106 22499
" />
<path d="M49004 26608
L49004 25191
" />
<path d="M49004 25191
L45106 25191
" />
<path d="M45106 25191
L45106 26608
" />
<path d="M45106 26608
L49004 26608
" />
<path d="M49555 25899
L49004 25899
" />
<path d="M44555 25899
L45106 25899
" />
<path d="M49796 30008
L49796 28591
" />
<path d="M49796 28591
L45898 28591
" />
<path d="M45898 28591
L45898 30008
" />
<path d="M45898 30008
L49796 30008
" />
<path d="M50347 29299
L49796 29299
" />
<path d="M45347 29299
L45898 29299
" />
<path d="M23391 17051
L23391 18232
" />
<path d="M23391 18232
L21028 18232
" />
<path d="M21028 18232
L21028 15870
" />
<path d="M21028 15870
L23391 15870
" />
<path d="M23391 15870
L23391 17051
" />
<circle cx="22209.9" cy="17051.7" r="793.529" /> 
<path d="M27007 20437
L32412 20437
" />
<path d="M32412 20437
L32412 40437
" />
<path d="M32412 40437
L26613 40437
" />
<path d="M26613 40437
L26613 20831
" />
<path d="M26613 20831
L27007 20437
" />
<circle cx="53055.6" cy="41599.8" r="728.346" /> 
<path d="M51638 39631
L54157 39631
" />
<path d="M54157 39631
L54157 43568
" />
<path d="M54157 43568
L51638 43568
" />
<path d="M51638 43568
L51638 39631
" />
<path d="M47996 39631
L51638 39631
" />
<path d="M51638 39631
L51638 43568
" />
<path d="M51638 43568
L47996 43568
" />
<path d="M47996 43568
L47996 39631
" />
<path d="M47996 40599
L46496 40599
" />
<path d="M47996 41599
L46496 41599
" />
<path d="M47996 42599
L46496 42599
" />
<path d="M36605 20476
L38711 20476
" />
<path d="M38711 20476
L38711 29476
" />
<path d="M38711 29476
L36211 29476
" />
<path d="M36211 29476
L36211 20870
" />
<path d="M36211 20870
L36605 20476
" />
<path d="M25200.1 30465.1 A915.354 915.354 0.0 0 0 23369.3 30465.1 " />
<path d="M23369.3 32984.8 A915.354 915.354 0.0 0 0 25200.1 32984.8 " />
<path d="M25032.7 30465.1 A748.031 748.031 0.0 0 0 23536.7 30465.1 " />
<path d="M23536.7 32984.8 A748.031 748.031 0.0 0 0 25032.7 32984.8 " />
<path d="M25200 30465
L25200 32984
" />
<path d="M23369 30465
L23369 32984
" />
<path d="M25032 30465
L25032 32984
" />
<path d="M23536 30465
L23536 32984
" />
<path d="M23351 35441
L25351 35441
" />
<path d="M25351 35441
L25351 34441
" />
<path d="M25351 34441
L23351 34441
" />
<path d="M23351 34441
L23351 35441
" />
<path d="M23343 36705
L25343 36705
" />
<path d="M25343 36705
L25343 35705
" />
<path d="M25343 35705
L23343 35705
" />
<path d="M23343 35705
L23343 36705
" />
<path d="M23343 37957
L25343 37957
" />
<path d="M25343 37957
L25343 36957
" />
<path d="M25343 36957
L23343 36957
" />
<path d="M23343 36957
L23343 37957
" />
<path d="M44444 46396
L44444 45018
" />
<path d="M44446 45009.4 A976.378 976.378 0.0 0 0 42779.2 45699.8 " />
<path d="M42779.2 45699.8 A976.378 976.378 0.0 0 0 44446 46390.2 " />
</g> 
</svg>
