<?xml version="1.0" standalone="no"?>
 <!DOCTYPE svg PUBLIC "-//W3C//DTD SVG 1.1//EN" 
 "http://www.w3.org/Graphics/SVG/1.1/DTD/svg11.dtd"> 
<svg xmlns="http://www.w3.org/2000/svg" version="1.1" 
    width="13.8532cm" height="12.1793cm" viewBox="0 0 54540 47950 ">
<title>SVG Picture created as np08-Cmts.User.svg date 2017/09/02 14:27:28 </title>
  <desc>Picture generated by PCBNEW </desc>
<g style="fill:#000000; fill-opacity:1;stroke:#000000; stroke-opacity:1;
stroke-linecap:round; stroke-linejoin:round; "
 transform="translate(0 0) scale(1 1)">
</g>
<g style="fill:#000000; fill-opacity:0.0; 
stroke:#000000; stroke-width:-0.000393701; stroke-opacity:1; 
stroke-linecap:round; stroke-linejoin:round;">
</g>
<g style="fill:#000000; fill-opacity:0.0; 
stroke:#000000; stroke-width:118.11; stroke-opacity:1; 
stroke-linecap:round; stroke-linejoin:round;">
<path d="M2598 31355
L2598 31243
L2570 31186
L2542 31158
L2458 31102
L2345 31074
L2120 31073
L2064 31101
L2036 31129
L2008 31186
L2008 31298
L2036 31354
L2064 31383
L2120 31411
L2260 31411
L2317 31383
L2345 31355
L2373 31299
L2373 31186
L2345 31130
L2317 31102
L2261 31074
" />
<path d="M2008 30539
L2008 30820
L2289 30849
L2261 30820
L2233 30764
L2233 30624
L2262 30567
L2290 30539
L2346 30511
L2487 30511
L2543 30540
L2571 30568
L2599 30624
L2599 30765
L2571 30821
L2542 30849
" />
<path d="M2571 30230
L2599 30230
L2656 30259
L2684 30287
" />
<path d="M2065 30005
L2037 29977
L2009 29920
L2009 29780
L2038 29723
L2066 29695
L2122 29667
L2178 29667
L2263 29696
L2600 30033
L2600 29668
" />
<path d="M2010 29133
L2010 29414
L2291 29443
L2263 29414
L2235 29358
L2235 29217
L2263 29161
L2291 29133
L2348 29105
L2488 29105
L2545 29134
L2573 29162
L2601 29218
L2601 29359
L2572 29415
L2544 29443
" />
<path d="M2011 28739
L2011 28683
L2039 28627
L2067 28599
L2123 28571
L2236 28543
L2377 28543
L2489 28571
L2545 28599
L2573 28627
L2601 28684
L2601 28740
L2573 28796
L2545 28824
L2489 28852
L2376 28880
L2236 28880
L2123 28852
L2067 28824
L2039 28795
L2011 28739
" />
<path d="M2602 28290
L2208 28289
" />
<path d="M2264 28290
L2236 28261
L2208 28205
L2208 28121
L2237 28065
L2293 28036
L2602 28037
" />
<path d="M2293 28036
L2237 28008
L2209 27952
L2209 27868
L2237 27811
L2293 27783
L2603 27784
" />
<path d="M2603 27503
L2209 27502
" />
<path d="M2265 27502
L2237 27474
L2209 27418
L2209 27333
L2238 27277
L2294 27249
L2603 27249
" />
<path d="M2294 27249
L2238 27221
L2210 27165
L2210 27080
L2238 27024
L2294 26996
L2604 26996
" />
<path d="M2889 10439
L2841 47939
" />
<path d="M17127 10457
L1826 10440
" />
<path d="M17079 47957
L1778 47940
" />
<path d="M2841 47939
L2611 47495
" />
<path d="M2841 47939
L3073 47496
" />
<path d="M2889 10439
L2657 10882
" />
<path d="M2889 10439
L3119 10883
" />
<path d="M33662 805
L33775 805
L33831 777
L33859 749
L33915 665
L33944 552
L33944 327
L33916 271
L33887 243
L33831 215
L33719 215
L33662 243
L33634 271
L33606 327
L33606 468
L33634 524
L33662 552
L33719 580
L33831 580
L33887 552
L33915 524
L33944 468
" />
<path d="M34478 215
L34197 215
L34169 496
L34197 468
L34253 440
L34394 440
L34450 468
L34478 496
L34506 552
L34506 693
L34478 749
L34450 777
L34393 805
L34253 805
L34197 777
L34168 749
" />
<path d="M34787 777
L34787 806
L34759 862
L34731 890
" />
<path d="M35350 806
L35012 806
" />
<path d="M35181 806
L35181 215
L35125 300
L35068 356
L35012 384
" />
<path d="M35715 215
L35772 215
L35828 244
L35856 272
L35884 328
L35912 440
L35912 581
L35884 694
L35856 750
L35828 778
L35771 806
L35715 806
L35659 778
L35631 750
L35603 693
L35575 581
L35575 440
L35603 328
L35631 272
L35659 244
L35715 215
" />
<path d="M36278 216
L36334 216
L36390 244
L36418 272
L36446 328
L36475 441
L36474 581
L36446 694
L36418 750
L36390 778
L36334 806
L36278 806
L36221 778
L36193 750
L36165 694
L36137 581
L36137 441
L36165 328
L36193 272
L36222 244
L36278 216
" />
<path d="M36727 806
L36728 413
" />
<path d="M36728 469
L36756 441
L36812 413
L36896 413
L36953 441
L36981 497
L36981 807
" />
<path d="M36981 497
L37009 441
L37065 413
L37149 413
L37206 441
L37234 497
L37234 807
" />
<path d="M37515 807
L37515 413
" />
<path d="M37515 469
L37543 441
L37599 413
L37684 413
L37740 441
L37768 498
L37768 807
" />
<path d="M37768 498
L37796 441
L37852 413
L37937 413
L37993 441
L38021 498
L38021 807
" />
<path d="M17107 1062
L54548 1078
" />
<path d="M17103 10287
L17107 0
" />
<path d="M54544 10303
L54548 15
" />
<path d="M54548 1078
L54104 1309
" />
<path d="M54548 1078
L54105 847
" />
<path d="M17107 1062
L17550 1294
" />
<path d="M17107 1062
L17551 832
" />
</g>
<g style="fill:#000000; fill-opacity:0.0; 
stroke:#000000; stroke-width:59.0551; stroke-opacity:1; 
stroke-linecap:round; stroke-linejoin:round;">
<circle cx="21394.9" cy="38299.8" r="984.252" /> 
<circle cx="52497.3" cy="38299.8" r="984.252" /> 
<circle cx="52497.3" cy="12709.2" r="984.252" /> 
<circle cx="21394.9" cy="12709.2" r="984.252" /> 
</g> 
</svg>
