<?xml version="1.0" standalone="no"?>
 <!DOCTYPE svg PUBLIC "-//W3C//DTD SVG 1.1//EN" 
 "http://www.w3.org/Graphics/SVG/1.1/DTD/svg11.dtd"> 
<svg xmlns="http://www.w3.org/2000/svg" version="1.1" 
    width="13.8532cm" height="12.1793cm" viewBox="0 0 54540 47950 ">
<title>SVG Picture created as np08-F.SilkS.svg date 2017/09/02 14:27:28 </title>
  <desc>Picture generated by PCBNEW </desc>
<g style="fill:#000000; fill-opacity:1;stroke:#000000; stroke-opacity:1;
stroke-linecap:round; stroke-linejoin:round; "
 transform="translate(0 0) scale(1 1)">
</g>
<g style="fill:#000000; fill-opacity:0.0; 
stroke:#000000; stroke-width:-0.000393701; stroke-opacity:1; 
stroke-linecap:round; stroke-linejoin:round;">
</g>
<g style="fill:#000000; fill-opacity:0.0; 
stroke:#000000; stroke-width:59.0551; stroke-opacity:1; 
stroke-linecap:round; stroke-linejoin:round;">
<path d="M21333 44023
L20939 44023
L20939 43873
L20958 43835
L20977 43817
L21014 43798
L21071 43798
L21108 43817
L21127 43835
L21146 43873
L21146 44023
" />
<path d="M21333 43423
L21333 43648
" />
<path d="M21333 43535
L20939 43535
L20996 43573
L21033 43610
L21052 43648
" />
<path d="M37891 32843
L38210 32843
L38248 32825
L38266 32806
L38285 32768
L38285 32693
L38266 32656
L38248 32637
L38210 32618
L37891 32618
" />
<path d="M37891 32468
L37891 32225
L38041 32356
L38041 32300
L38060 32262
L38079 32243
L38116 32225
L38210 32225
L38248 32243
L38266 32262
L38285 32300
L38285 32412
L38266 32450
L38248 32468
" />
<path d="M28184 46371
L28184 46652
L28166 46709
L28128 46746
L28072 46765
L28034 46765
" />
<path d="M28559 46371
L28372 46371
L28353 46559
L28372 46540
L28409 46521
L28503 46521
L28541 46540
L28559 46559
L28578 46596
L28578 46690
L28559 46727
L28541 46746
L28503 46765
L28409 46765
L28372 46746
L28353 46727
" />
<path d="M51709 36452
L51315 36452
L51315 36302
L51334 36265
L51353 36246
L51390 36227
L51446 36227
L51484 36246
L51503 36265
L51521 36302
L51521 36452
" />
<path d="M51484 36002
L51465 36040
L51446 36058
L51409 36077
L51390 36077
L51353 36058
L51334 36040
L51315 36002
L51315 35927
L51334 35890
L51353 35871
L51390 35852
L51409 35852
L51446 35871
L51465 35890
L51484 35927
L51484 36002
L51503 36040
L51521 36058
L51559 36077
L51634 36077
L51671 36058
L51690 36040
L51709 36002
L51709 35927
L51690 35890
L51671 35871
L51634 35852
L51559 35852
L51521 35871
L51503 35890
L51484 35927
" />
<path d="M23438 12973
L23457 12992
L23476 13048
L23476 13085
L23457 13141
L23419 13179
L23382 13198
L23307 13216
L23251 13216
L23176 13198
L23138 13179
L23101 13141
L23082 13085
L23082 13048
L23101 12992
L23119 12973
" />
<path d="M23476 12598
L23476 12823
" />
<path d="M23476 12710
L23082 12710
L23138 12748
L23176 12785
L23194 12823
" />
<path d="M28515 29522
L28534 29541
L28553 29597
L28553 29635
L28534 29691
L28497 29729
L28459 29747
L28384 29766
L28328 29766
L28253 29747
L28215 29729
L28178 29691
L28159 29635
L28159 29597
L28178 29541
L28197 29522
" />
<path d="M28197 29372
L28178 29354
L28159 29316
L28159 29222
L28178 29185
L28197 29166
L28234 29147
L28272 29147
L28328 29166
L28553 29391
L28553 29147
" />
<path d="M22762 30491
L22743 30510
L22687 30529
L22649 30529
L22593 30510
L22556 30472
L22537 30435
L22518 30360
L22518 30304
L22537 30229
L22556 30191
L22593 30154
L22649 30135
L22687 30135
L22743 30154
L22762 30172
" />
<path d="M22893 30135
L23137 30135
L23006 30285
L23062 30285
L23099 30304
L23118 30322
L23137 30360
L23137 30454
L23118 30491
L23099 30510
L23062 30529
L22949 30529
L22912 30510
L22893 30491
" />
<path d="M22754 33109
L22735 33128
L22679 33147
L22642 33147
L22585 33128
L22548 33090
L22529 33053
L22510 32978
L22510 32922
L22529 32847
L22548 32809
L22585 32772
L22642 32753
L22679 32753
L22735 32772
L22754 32790
" />
<path d="M23091 32884
L23091 33147
" />
<path d="M22998 32734
L22904 33015
L23148 33015
" />
<path d="M25455 39015
L25436 39033
L25380 39052
L25342 39052
L25286 39033
L25249 38996
L25230 38958
L25211 38883
L25211 38827
L25230 38752
L25249 38715
L25286 38677
L25342 38658
L25380 38658
L25436 38677
L25455 38696
" />
<path d="M25811 38658
L25624 38658
L25605 38846
L25624 38827
L25661 38808
L25755 38808
L25792 38827
L25811 38846
L25830 38883
L25830 38977
L25811 39015
L25792 39033
L25755 39052
L25661 39052
L25624 39033
L25605 39015
" />
<path d="M44304 38789
L44323 38808
L44342 38864
L44342 38901
L44323 38958
L44285 38995
L44248 39014
L44173 39033
L44117 39033
L44042 39014
L44004 38995
L43967 38958
L43948 38901
L43948 38864
L43967 38808
L43985 38789
" />
<path d="M43948 38451
L43948 38526
L43967 38564
L43985 38583
L44042 38620
L44117 38639
L44267 38639
L44304 38620
L44323 38601
L44342 38564
L44342 38489
L44323 38451
L44304 38433
L44267 38414
L44173 38414
L44135 38433
L44117 38451
L44098 38489
L44098 38564
L44117 38601
L44135 38620
L44173 38639
" />
<path d="M49889 46940
L49871 46959
L49814 46977
L49777 46977
L49721 46959
L49683 46921
L49664 46884
L49646 46809
L49646 46752
L49664 46677
L49683 46640
L49721 46602
L49777 46584
L49814 46584
L49871 46602
L49889 46621
" />
<path d="M50021 46584
L50283 46584
L50114 46977
" />
<path d="M40989 42389
L41008 42408
L41027 42464
L41027 42501
L41008 42558
L40970 42595
L40933 42614
L40858 42633
L40802 42633
L40727 42614
L40689 42595
L40652 42558
L40633 42501
L40633 42464
L40652 42408
L40670 42389
" />
<path d="M40802 42164
L40783 42201
L40764 42220
L40727 42239
L40708 42239
L40670 42220
L40652 42201
L40633 42164
L40633 42089
L40652 42051
L40670 42033
L40708 42014
L40727 42014
L40764 42033
L40783 42051
L40802 42089
L40802 42164
L40820 42201
L40839 42220
L40877 42239
L40952 42239
L40989 42220
L41008 42201
L41027 42164
L41027 42089
L41008 42051
L40989 42033
L40952 42014
L40877 42014
L40839 42033
L40820 42051
L40802 42089
" />
<path d="M51289 47240
L51271 47259
L51214 47277
L51177 47277
L51121 47259
L51083 47221
L51064 47184
L51046 47109
L51046 47052
L51064 46977
L51083 46940
L51121 46902
L51177 46884
L51214 46884
L51271 46902
L51289 46921
" />
<path d="M51477 47277
L51552 47277
L51589 47259
L51608 47240
L51646 47184
L51664 47109
L51664 46959
L51646 46921
L51627 46902
L51589 46884
L51514 46884
L51477 46902
L51458 46921
L51439 46959
L51439 47052
L51458 47090
L51477 47109
L51514 47127
L51589 47127
L51627 47109
L51646 47090
L51664 47052
" />
<path d="M45602 47440
L45583 47459
L45527 47477
L45489 47477
L45433 47459
L45396 47421
L45377 47384
L45358 47309
L45358 47252
L45377 47177
L45396 47140
L45433 47102
L45489 47084
L45527 47084
L45583 47102
L45602 47121
" />
<path d="M45977 47477
L45752 47477
" />
<path d="M45864 47477
L45864 47084
L45827 47140
L45789 47177
L45752 47196
" />
<path d="M46221 47084
L46258 47084
L46296 47102
L46314 47121
L46333 47159
L46352 47234
L46352 47327
L46333 47402
L46314 47440
L46296 47459
L46258 47477
L46221 47477
L46183 47459
L46164 47440
L46146 47402
L46127 47327
L46127 47234
L46146 47159
L46164 47121
L46183 47102
L46221 47084
" />
<path d="M43916 40876
L43935 40895
L43953 40951
L43953 40989
L43935 41045
L43897 41083
L43860 41101
L43785 41120
L43728 41120
L43653 41101
L43616 41083
L43578 41045
L43560 40989
L43560 40951
L43578 40895
L43597 40876
" />
<path d="M43953 40501
L43953 40726
" />
<path d="M43953 40614
L43560 40614
L43616 40651
L43653 40689
L43672 40726
" />
<path d="M43953 40126
L43953 40351
" />
<path d="M43953 40239
L43560 40239
L43616 40276
L43653 40314
L43672 40351
" />
<path d="M40702 32640
L40683 32659
L40627 32677
L40589 32677
L40533 32659
L40496 32621
L40477 32584
L40458 32509
L40458 32452
L40477 32377
L40496 32340
L40533 32302
L40589 32284
L40627 32284
L40683 32302
L40702 32321
" />
<path d="M41077 32677
L40852 32677
" />
<path d="M40964 32677
L40964 32284
L40927 32340
L40889 32377
L40852 32396
" />
<path d="M41227 32321
L41246 32302
L41283 32284
L41377 32284
L41414 32302
L41433 32321
L41452 32359
L41452 32396
L41433 32452
L41208 32677
L41452 32677
" />
<path d="M27764 14477
L27764 14084
L27858 14084
L27914 14102
L27952 14140
L27971 14177
L27989 14252
L27989 14309
L27971 14384
L27952 14421
L27914 14459
L27858 14477
L27764 14477
" />
<path d="M28364 14477
L28139 14477
" />
<path d="M28252 14477
L28252 14084
L28214 14140
L28177 14177
L28139 14196
" />
<path d="M39658 40990
L39265 40990
L39265 40896
L39283 40840
L39321 40802
L39358 40784
L39433 40765
L39490 40765
L39565 40784
L39602 40802
L39640 40840
L39658 40896
L39658 40990
" />
<path d="M39302 40615
L39283 40596
L39265 40559
L39265 40465
L39283 40427
L39302 40409
L39340 40390
L39377 40390
L39433 40409
L39658 40634
L39658 40390
" />
<path d="M48922 14493
L48922 14099
L49016 14099
L49072 14118
L49109 14156
L49128 14193
L49147 14268
L49147 14324
L49128 14399
L49109 14437
L49072 14474
L49016 14493
L48922 14493
" />
<path d="M49278 14099
L49522 14099
L49391 14249
L49447 14249
L49484 14268
L49503 14287
L49522 14324
L49522 14418
L49503 14456
L49484 14474
L49447 14493
L49334 14493
L49297 14474
L49278 14456
" />
<path d="M46222 14493
L46222 14099
L46316 14099
L46372 14118
L46409 14156
L46428 14193
L46447 14268
L46447 14324
L46428 14399
L46409 14437
L46372 14474
L46316 14493
L46222 14493
" />
<path d="M46784 14231
L46784 14493
" />
<path d="M46691 14081
L46597 14362
L46841 14362
" />
<path d="M43622 14493
L43622 14099
L43716 14099
L43772 14118
L43809 14156
L43828 14193
L43847 14268
L43847 14324
L43828 14399
L43809 14437
L43772 14474
L43716 14493
L43622 14493
" />
<path d="M44203 14099
L44016 14099
L43997 14287
L44016 14268
L44053 14249
L44147 14249
L44184 14268
L44203 14287
L44222 14324
L44222 14418
L44203 14456
L44184 14474
L44147 14493
L44053 14493
L44016 14474
L43997 14456
" />
<path d="M41022 14493
L41022 14099
L41116 14099
L41172 14118
L41209 14156
L41228 14193
L41247 14268
L41247 14324
L41228 14399
L41209 14437
L41172 14474
L41116 14493
L41022 14493
" />
<path d="M41584 14099
L41509 14099
L41472 14118
L41453 14137
L41416 14193
L41397 14268
L41397 14418
L41416 14456
L41434 14474
L41472 14493
L41547 14493
L41584 14474
L41603 14456
L41622 14418
L41622 14324
L41603 14287
L41584 14268
L41547 14249
L41472 14249
L41434 14268
L41416 14287
L41397 14324
" />
<path d="M38322 14493
L38322 14099
L38416 14099
L38472 14118
L38509 14156
L38528 14193
L38547 14268
L38547 14324
L38528 14399
L38509 14437
L38472 14474
L38416 14493
L38322 14493
" />
<path d="M38678 14099
L38941 14099
L38772 14493
" />
<path d="M35722 14493
L35722 14099
L35816 14099
L35872 14118
L35909 14156
L35928 14193
L35947 14268
L35947 14324
L35928 14399
L35909 14437
L35872 14474
L35816 14493
L35722 14493
" />
<path d="M36172 14268
L36134 14249
L36116 14231
L36097 14193
L36097 14174
L36116 14137
L36134 14118
L36172 14099
L36247 14099
L36284 14118
L36303 14137
L36322 14174
L36322 14193
L36303 14231
L36284 14249
L36247 14268
L36172 14268
L36134 14287
L36116 14306
L36097 14343
L36097 14418
L36116 14456
L36134 14474
L36172 14493
L36247 14493
L36284 14474
L36303 14456
L36322 14418
L36322 14343
L36303 14306
L36284 14287
L36247 14268
" />
<path d="M33222 14493
L33222 14099
L33316 14099
L33372 14118
L33409 14156
L33428 14193
L33447 14268
L33447 14324
L33428 14399
L33409 14437
L33372 14474
L33316 14493
L33222 14493
" />
<path d="M33634 14493
L33709 14493
L33747 14474
L33766 14456
L33803 14399
L33822 14324
L33822 14174
L33803 14137
L33784 14118
L33747 14099
L33672 14099
L33634 14118
L33616 14137
L33597 14174
L33597 14268
L33616 14306
L33634 14324
L33672 14343
L33747 14343
L33784 14324
L33803 14306
L33822 14268
" />
<path d="M30434 14493
L30434 14099
L30528 14099
L30584 14118
L30622 14156
L30641 14193
L30659 14268
L30659 14324
L30641 14399
L30622 14437
L30584 14474
L30528 14493
L30434 14493
" />
<path d="M31034 14493
L30809 14493
" />
<path d="M30922 14493
L30922 14099
L30884 14156
L30847 14193
L30809 14212
" />
<path d="M31278 14099
L31316 14099
L31353 14118
L31372 14137
L31391 14174
L31409 14249
L31409 14343
L31391 14418
L31372 14456
L31353 14474
L31316 14493
L31278 14493
L31241 14474
L31222 14456
L31203 14418
L31184 14343
L31184 14249
L31203 14174
L31222 14137
L31241 14118
L31278 14099
" />
<path d="M33037 41631
L33318 41631
L33375 41650
L33412 41688
L33431 41744
L33431 41781
" />
<path d="M33168 41275
L33431 41275
" />
<path d="M33018 41369
L33300 41463
L33300 41219
" />
<path d="M33037 40371
L33318 40371
L33375 40390
L33412 40428
L33431 40484
L33431 40521
" />
<path d="M33037 40015
L33037 40090
L33056 40128
L33075 40146
L33131 40184
L33206 40203
L33356 40203
L33393 40184
L33412 40165
L33431 40128
L33431 40053
L33412 40015
L33393 39997
L33356 39978
L33262 39978
L33225 39997
L33206 40015
L33187 40053
L33187 40128
L33206 40165
L33225 40184
L33262 40203
" />
<path d="M33037 39108
L33318 39108
L33375 39126
L33412 39164
L33431 39220
L33431 39258
" />
<path d="M33037 38958
L33037 38695
L33431 38864
" />
<path d="M30495 46320
L30495 46601
L30477 46657
L30439 46695
L30383 46714
L30346 46714
" />
<path d="M30739 46489
L30702 46470
L30683 46451
L30664 46414
L30664 46395
L30683 46357
L30702 46339
L30739 46320
L30814 46320
L30852 46339
L30870 46357
L30889 46395
L30889 46414
L30870 46451
L30852 46470
L30814 46489
L30739 46489
L30702 46507
L30683 46526
L30664 46564
L30664 46639
L30683 46676
L30702 46695
L30739 46714
L30814 46714
L30852 46695
L30870 46676
L30889 46639
L30889 46564
L30870 46526
L30852 46507
L30814 46489
" />
<path d="M33037 37852
L33318 37852
L33375 37871
L33412 37908
L33431 37964
L33431 38002
" />
<path d="M33431 37646
L33431 37571
L33412 37533
L33393 37514
L33337 37477
L33262 37458
L33112 37458
L33075 37477
L33056 37496
L33037 37533
L33037 37608
L33056 37646
L33075 37664
L33112 37683
L33206 37683
L33243 37664
L33262 37646
L33281 37608
L33281 37533
L33262 37496
L33243 37477
L33206 37458
" />
<path d="M33037 36779
L33318 36779
L33375 36798
L33412 36836
L33431 36892
L33431 36929
" />
<path d="M33431 36386
L33431 36611
" />
<path d="M33431 36498
L33037 36498
L33093 36536
L33131 36573
L33150 36611
" />
<path d="M33037 36142
L33037 36104
L33056 36067
L33075 36048
L33112 36029
L33187 36011
L33281 36011
L33356 36029
L33393 36048
L33412 36067
L33431 36104
L33431 36142
L33412 36179
L33393 36198
L33356 36217
L33281 36236
L33187 36236
L33112 36217
L33075 36198
L33056 36179
L33037 36142
" />
<path d="M33037 35520
L33318 35520
L33375 35538
L33412 35576
L33431 35632
L33431 35670
" />
<path d="M33431 35126
L33431 35351
" />
<path d="M33431 35238
L33037 35238
L33093 35276
L33131 35313
L33150 35351
" />
<path d="M33431 34751
L33431 34976
" />
<path d="M33431 34863
L33037 34863
L33093 34901
L33131 34938
L33150 34976
" />
<path d="M23612 29052
L23612 28658
L23762 28658
L23799 28677
L23818 28696
L23837 28733
L23837 28790
L23818 28827
L23799 28846
L23762 28865
L23612 28865
" />
<path d="M23987 28696
L24005 28677
L24043 28658
L24137 28658
L24174 28677
L24193 28696
L24212 28733
L24212 28771
L24193 28827
L23968 29052
L24212 29052
" />
<path d="M21053 29052
L21053 28658
L21203 28658
L21240 28677
L21259 28696
L21278 28733
L21278 28790
L21259 28827
L21240 28846
L21203 28865
L21053 28865
" />
<path d="M21409 28658
L21653 28658
L21521 28808
L21578 28808
L21615 28827
L21634 28846
L21653 28883
L21653 28977
L21634 29015
L21615 29033
L21578 29052
L21465 29052
L21428 29033
L21409 29015
" />
<path d="M33903 35056
L33903 34662
L34053 34662
L34091 34681
L34109 34700
L34128 34737
L34128 34794
L34109 34831
L34091 34850
L34053 34869
L33903 34869
" />
<path d="M34465 34794
L34465 35056
" />
<path d="M34372 34644
L34278 34925
L34522 34925
" />
<path d="M22332 29052
L22332 28658
L22482 28658
L22520 28677
L22538 28696
L22557 28733
L22557 28790
L22538 28827
L22520 28846
L22482 28865
L22332 28865
" />
<path d="M22913 28658
L22726 28658
L22707 28846
L22726 28827
L22763 28808
L22857 28808
L22895 28827
L22913 28846
L22932 28883
L22932 28977
L22913 29015
L22895 29033
L22857 29052
L22763 29052
L22726 29033
L22707 29015
" />
<path d="M42133 45090
L41739 45090
L41739 44940
L41758 44902
L41777 44884
L41814 44865
L41871 44865
L41908 44884
L41927 44902
L41946 44940
L41946 45090
" />
<path d="M41739 44527
L41739 44602
L41758 44640
L41777 44659
L41833 44696
L41908 44715
L42058 44715
L42096 44696
L42114 44677
L42133 44640
L42133 44565
L42114 44527
L42096 44509
L42058 44490
L41964 44490
L41927 44509
L41908 44527
L41889 44565
L41889 44640
L41908 44677
L41927 44696
L41964 44715
" />
<path d="M33809 43481
L33809 43088
L33959 43088
L33996 43106
L34015 43125
L34034 43163
L34034 43219
L34015 43256
L33996 43275
L33959 43294
L33809 43294
" />
<path d="M34165 43088
L34427 43088
L34259 43481
" />
<path d="M51709 32322
L51315 32322
L51315 32172
L51334 32135
L51353 32116
L51390 32097
L51446 32097
L51484 32116
L51503 32135
L51521 32172
L51521 32322
" />
<path d="M51709 31910
L51709 31835
L51690 31797
L51671 31778
L51615 31741
L51540 31722
L51390 31722
L51353 31741
L51334 31760
L51315 31797
L51315 31872
L51334 31910
L51353 31928
L51390 31947
L51484 31947
L51521 31928
L51540 31910
L51559 31872
L51559 31797
L51540 31760
L51521 31741
L51484 31722
" />
<path d="M33712 29084
L33712 28690
L33862 28690
L33899 28709
L33918 28727
L33937 28765
L33937 28821
L33918 28859
L33899 28877
L33862 28896
L33712 28896
" />
<path d="M34312 29084
L34087 29084
" />
<path d="M34199 29084
L34199 28690
L34162 28746
L34124 28784
L34087 28802
" />
<path d="M34555 28690
L34593 28690
L34630 28709
L34649 28727
L34668 28765
L34687 28840
L34687 28934
L34668 29009
L34649 29046
L34630 29065
L34593 29084
L34555 29084
L34518 29065
L34499 29046
L34480 29009
L34462 28934
L34462 28840
L34480 28765
L34499 28727
L34518 28709
L34555 28690
" />
<path d="M41477 21077
L41477 20684
L41627 20684
L41664 20702
L41683 20721
L41702 20759
L41702 20815
L41683 20852
L41664 20871
L41627 20890
L41477 20890
" />
<path d="M42077 21077
L41852 21077
" />
<path d="M41964 21077
L41964 20684
L41927 20740
L41889 20777
L41852 20796
" />
<path d="M42452 21077
L42227 21077
" />
<path d="M42339 21077
L42339 20684
L42302 20740
L42264 20777
L42227 20796
" />
<path d="M32530 17666
L32398 17479
" />
<path d="M32305 17666
L32305 17273
L32455 17273
L32492 17291
L32511 17310
L32530 17348
L32530 17404
L32511 17441
L32492 17460
L32455 17479
L32305 17479
" />
<path d="M32905 17666
L32680 17666
" />
<path d="M32792 17666
L32792 17273
L32755 17329
L32717 17366
L32680 17385
" />
<path d="M32506 19347
L32375 19160
" />
<path d="M32281 19347
L32281 18954
L32431 18954
L32468 18973
L32487 18991
L32506 19029
L32506 19085
L32487 19122
L32468 19141
L32431 19160
L32281 19160
" />
<path d="M32656 18991
L32675 18973
L32712 18954
L32806 18954
L32843 18973
L32862 18991
L32881 19029
L32881 19066
L32862 19122
L32637 19347
L32881 19347
" />
<path d="M47089 18703
L46958 18516
" />
<path d="M46864 18703
L46864 18310
L47014 18310
L47052 18328
L47071 18347
L47089 18385
L47089 18441
L47071 18478
L47052 18497
L47014 18516
L46864 18516
" />
<path d="M47221 18310
L47464 18310
L47333 18460
L47389 18460
L47427 18478
L47446 18497
L47464 18535
L47464 18628
L47446 18666
L47427 18685
L47389 18703
L47277 18703
L47239 18685
L47221 18666
" />
<path d="M46989 22103
L46858 21916
" />
<path d="M46764 22103
L46764 21710
L46914 21710
L46952 21728
L46971 21747
L46989 21785
L46989 21841
L46971 21878
L46952 21897
L46914 21916
L46764 21916
" />
<path d="M47327 21841
L47327 22103
" />
<path d="M47233 21691
L47139 21972
L47383 21972
" />
<path d="M46989 25503
L46858 25316
" />
<path d="M46764 25503
L46764 25110
L46914 25110
L46952 25128
L46971 25147
L46989 25185
L46989 25241
L46971 25278
L46952 25297
L46914 25316
L46764 25316
" />
<path d="M47346 25110
L47158 25110
L47139 25297
L47158 25278
L47196 25260
L47289 25260
L47327 25278
L47346 25297
L47364 25335
L47364 25428
L47346 25466
L47327 25485
L47289 25503
L47196 25503
L47158 25485
L47139 25466
" />
<path d="M47993 27927
L47862 27740
" />
<path d="M47768 27927
L47768 27533
L47918 27533
L47956 27552
L47975 27571
L47993 27608
L47993 27665
L47975 27702
L47956 27721
L47918 27740
L47768 27740
" />
<path d="M48331 27533
L48256 27533
L48218 27552
L48200 27571
L48162 27627
L48143 27702
L48143 27852
L48162 27889
L48181 27908
L48218 27927
L48293 27927
L48331 27908
L48350 27889
L48368 27852
L48368 27758
L48350 27721
L48331 27702
L48293 27683
L48218 27683
L48181 27702
L48162 27721
L48143 27758
" />
<path d="M46989 20403
L46858 20216
" />
<path d="M46764 20403
L46764 20010
L46914 20010
L46952 20028
L46971 20047
L46989 20085
L46989 20141
L46971 20178
L46952 20197
L46914 20216
L46764 20216
" />
<path d="M47121 20010
L47383 20010
L47214 20403
" />
<path d="M46989 23803
L46858 23616
" />
<path d="M46764 23803
L46764 23410
L46914 23410
L46952 23428
L46971 23447
L46989 23485
L46989 23541
L46971 23578
L46952 23597
L46914 23616
L46764 23616
" />
<path d="M47214 23578
L47177 23560
L47158 23541
L47139 23503
L47139 23485
L47158 23447
L47177 23428
L47214 23410
L47289 23410
L47327 23428
L47346 23447
L47364 23485
L47364 23503
L47346 23541
L47327 23560
L47289 23578
L47214 23578
L47177 23597
L47158 23616
L47139 23653
L47139 23728
L47158 23766
L47177 23785
L47214 23803
L47289 23803
L47327 23785
L47346 23766
L47364 23728
L47364 23653
L47346 23616
L47327 23597
L47289 23578
" />
<path d="M46989 27203
L46858 27016
" />
<path d="M46764 27203
L46764 26810
L46914 26810
L46952 26828
L46971 26847
L46989 26885
L46989 26941
L46971 26978
L46952 26997
L46914 27016
L46764 27016
" />
<path d="M47177 27203
L47252 27203
L47289 27185
L47308 27166
L47346 27110
L47364 27035
L47364 26885
L47346 26847
L47327 26828
L47289 26810
L47214 26810
L47177 26828
L47158 26847
L47139 26885
L47139 26978
L47158 27016
L47177 27035
L47214 27053
L47289 27053
L47327 27035
L47346 27016
L47364 26978
" />
<path d="M47594 30603
L47463 30416
" />
<path d="M47369 30603
L47369 30210
L47519 30210
L47557 30228
L47575 30247
L47594 30285
L47594 30341
L47575 30378
L47557 30397
L47519 30416
L47369 30416
" />
<path d="M47969 30603
L47744 30603
" />
<path d="M47857 30603
L47857 30210
L47819 30266
L47782 30303
L47744 30322
" />
<path d="M48213 30210
L48250 30210
L48288 30228
L48307 30247
L48325 30285
L48344 30360
L48344 30453
L48325 30528
L48307 30566
L48288 30585
L48250 30603
L48213 30603
L48175 30585
L48157 30566
L48138 30528
L48119 30453
L48119 30360
L48138 30285
L48157 30247
L48175 30228
L48213 30210
" />
<path d="M24042 17576
L24061 17520
L24061 17426
L24042 17389
L24023 17370
L23986 17351
L23948 17351
L23911 17370
L23892 17389
L23873 17426
L23855 17501
L23836 17539
L23817 17557
L23780 17576
L23742 17576
L23705 17557
L23686 17539
L23667 17501
L23667 17407
L23686 17351
" />
<path d="M23667 17220
L24061 17126
L23780 17051
L24061 16976
L23667 16883
" />
<path d="M24061 16526
L24061 16751
" />
<path d="M24061 16639
L23667 16639
L23723 16676
L23761 16714
L23780 16751
" />
<path d="M28782 22017
L28782 22335
L28801 22373
L28820 22392
L28857 22410
L28932 22410
L28970 22392
L28989 22373
L29007 22335
L29007 22017
" />
<path d="M29251 22017
L29251 22110
" />
<path d="M29157 22073
L29251 22110
L29345 22073
" />
<path d="M29195 22185
L29251 22110
L29307 22185
" />
<path d="M29551 22017
L29551 22110
" />
<path d="M29457 22073
L29551 22110
L29645 22073
" />
<path d="M29495 22185
L29551 22110
L29607 22185
" />
<path d="M29851 22017
L29851 22110
" />
<path d="M29757 22073
L29851 22110
L29945 22073
" />
<path d="M29795 22185
L29851 22110
L29907 22185
" />
<path d="M30301 22410
L30076 22410
" />
<path d="M30188 22410
L30188 22017
L30151 22073
L30113 22110
L30076 22129
" />
<path d="M49155 39984
L49155 40302
L49174 40340
L49193 40359
L49230 40377
L49305 40377
L49343 40359
L49361 40340
L49380 40302
L49380 39984
" />
<path d="M49774 40377
L49549 40377
" />
<path d="M49661 40377
L49661 39984
L49624 40040
L49586 40077
L49549 40096
" />
<path d="M37161 21884
L37161 22202
L37180 22240
L37199 22259
L37236 22277
L37311 22277
L37349 22259
L37368 22240
L37386 22202
L37386 21884
" />
<path d="M37743 22015
L37743 22277
" />
<path d="M37649 21865
L37555 22146
L37799 22146
" />
<path d="M25663 31912
L25850 31912
" />
<path d="M25456 32043
L25663 31912
L25456 31781
" />
<path d="M25850 31443
L25850 31668
" />
<path d="M25850 31556
L25456 31556
L25513 31593
L25550 31631
L25569 31668
" />
<path d="M25490 35076
L25771 35076
L25827 35095
L25865 35132
L25884 35189
L25884 35226
" />
<path d="M25884 34682
L25884 34907
" />
<path d="M25884 34795
L25490 34795
L25546 34832
L25584 34870
L25602 34907
" />
<path d="M25478 36336
L25759 36336
L25816 36355
L25853 36392
L25872 36449
L25872 36486
" />
<path d="M25516 36167
L25497 36149
L25478 36111
L25478 36017
L25497 35980
L25516 35961
L25553 35942
L25591 35942
L25647 35961
L25872 36186
L25872 35942
" />
<path d="M25490 37580
L25771 37580
L25827 37599
L25865 37636
L25884 37693
L25884 37730
" />
<path d="M25490 37430
L25490 37186
L25640 37318
L25640 37261
L25659 37224
L25677 37205
L25715 37186
L25809 37186
L25846 37205
L25865 37224
L25884 37261
L25884 37374
L25865 37411
L25846 37430
" />
<path d="M42139 45999
L42458 45999
L42496 45980
L42514 45962
L42533 45924
L42533 45849
L42514 45812
L42496 45793
L42458 45774
L42139 45774
" />
<path d="M42177 45606
L42158 45587
L42139 45549
L42139 45456
L42158 45418
L42177 45399
L42214 45381
L42252 45381
L42308 45399
L42533 45624
L42533 45381
" />
</g>
<g style="fill:#000000; fill-opacity:0.0; 
stroke:#000000; stroke-width:47.2441; stroke-opacity:1; 
stroke-linecap:round; stroke-linejoin:round;">
<path d="M23005 41331
L19604 41331
" />
<path d="M26305 41331
L24305 41331
" />
<path d="M23005 46134
L19604 46134
" />
<path d="M26305 46134
L24305 46134
" />
<path d="M19604 46134
L19604 41331
" />
<path d="M26305 41331
L26305 46134
" />
<path d="M38501.2 32937.6 A393.701 393.701 0.0 0 0 38501.2 32150.2 " />
<path d="M38501 32937
L38501 33476
" />
<path d="M38501 33476
L46595 33476
" />
<path d="M46595 33476
L46595 31610
" />
<path d="M46595 31610
L38501 31610
" />
<path d="M38501 31610
L38501 32150
" />
<path d="M28863 45146
L28863 43098
" />
<path d="M28863 43098
L27768 43098
" />
<path d="M27768 43098
L27768 45146
" />
<path d="M27768 45146
L28863 45146
" />
<path d="M28863 45646
L28863 46193
" />
<path d="M28863 46193
L28316 46193
" />
<path d="M53655 33099
L53655 37099
" />
<path d="M54155 33099
L51155 33099
" />
<path d="M51155 33099
L51155 37099
" />
<path d="M51155 37099
L54155 37099
" />
<path d="M54155 37099
L54155 33099
" />
<path d="M24570 11691.7 A1275.59 1275.59 0.0 0 0 24569.7 14123.5 " />
<path d="M25341.4 14123.5 A1275.59 1275.59 0.0 0 0 25341.1 11691.7 " />
<path d="M25341.1 11691.7 A1275.59 1275.59 0.0 0 0 24569.7 11691.8 " />
<path d="M23695 12907
L26215 12907
" />
<path d="M23695 12891
L26215 12891
" />
<path d="M23695 12876
L26215 12876
" />
<path d="M23696 12860
L26214 12860
" />
<path d="M23696 12844
L26214 12844
" />
<path d="M23698 12828
L26213 12828
" />
<path d="M23698 12813
L26212 12813
" />
<path d="M23700 12797
L24569 12797
" />
<path d="M25341 12797
L26210 12797
" />
<path d="M23701 12781
L24569 12781
" />
<path d="M25341 12781
L26209 12781
" />
<path d="M23703 12765
L24569 12765
" />
<path d="M25341 12765
L26207 12765
" />
<path d="M23705 12750
L24569 12750
" />
<path d="M25341 12750
L26205 12750
" />
<path d="M23707 12734
L24569 12734
" />
<path d="M25341 12734
L26203 12734
" />
<path d="M23709 12718
L24569 12718
" />
<path d="M25341 12718
L26201 12718
" />
<path d="M23712 12702
L24569 12702
" />
<path d="M25341 12702
L26198 12702
" />
<path d="M23714 12687
L24569 12687
" />
<path d="M25341 12687
L26196 12687
" />
<path d="M23717 12671
L24569 12671
" />
<path d="M25341 12671
L26193 12671
" />
<path d="M23720 12655
L24569 12655
" />
<path d="M25341 12655
L26190 12655
" />
<path d="M23724 12639
L24569 12639
" />
<path d="M25341 12639
L26187 12639
" />
<path d="M23727 12623
L24569 12623
" />
<path d="M25341 12623
L26183 12623
" />
<path d="M23731 12608
L24569 12608
" />
<path d="M25341 12608
L26179 12608
" />
<path d="M23735 12592
L24569 12592
" />
<path d="M25341 12592
L26176 12592
" />
<path d="M23739 12576
L24569 12576
" />
<path d="M25341 12576
L26172 12576
" />
<path d="M23743 12560
L24569 12560
" />
<path d="M25341 12560
L26167 12560
" />
<path d="M23748 12545
L24569 12545
" />
<path d="M25341 12545
L26163 12545
" />
<path d="M23752 12529
L24569 12529
" />
<path d="M25341 12529
L26158 12529
" />
<path d="M23757 12513
L24569 12513
" />
<path d="M25341 12513
L26153 12513
" />
<path d="M23763 12497
L24569 12497
" />
<path d="M25341 12497
L26148 12497
" />
<path d="M23768 12482
L24569 12482
" />
<path d="M25341 12482
L26142 12482
" />
<path d="M23774 12466
L24569 12466
" />
<path d="M25341 12466
L26137 12466
" />
<path d="M23779 12450
L24569 12450
" />
<path d="M25341 12450
L26131 12450
" />
<path d="M23786 12434
L24569 12434
" />
<path d="M25341 12434
L26124 12434
" />
<path d="M23792 12419
L24569 12419
" />
<path d="M25341 12419
L26118 12419
" />
<path d="M23799 12403
L24569 12403
" />
<path d="M25341 12403
L26111 12403
" />
<path d="M23806 12387
L24569 12387
" />
<path d="M25341 12387
L26104 12387
" />
<path d="M23813 12371
L24569 12371
" />
<path d="M25341 12371
L26097 12371
" />
<path d="M23820 12356
L24569 12356
" />
<path d="M25341 12356
L26090 12356
" />
<path d="M23828 12340
L24569 12340
" />
<path d="M25341 12340
L26082 12340
" />
<path d="M23836 12324
L24569 12324
" />
<path d="M25341 12324
L26074 12324
" />
<path d="M23844 12308
L24569 12308
" />
<path d="M25341 12308
L26066 12308
" />
<path d="M23853 12293
L24569 12293
" />
<path d="M25341 12293
L26057 12293
" />
<path d="M23861 12277
L24569 12277
" />
<path d="M25341 12277
L26049 12277
" />
<path d="M23870 12261
L24569 12261
" />
<path d="M25341 12261
L26040 12261
" />
<path d="M23880 12245
L24569 12245
" />
<path d="M25341 12245
L26030 12245
" />
<path d="M23890 12230
L24569 12230
" />
<path d="M25341 12230
L26020 12230
" />
<path d="M23900 12214
L24569 12214
" />
<path d="M25341 12214
L26011 12214
" />
<path d="M23910 12198
L24569 12198
" />
<path d="M25341 12198
L26000 12198
" />
<path d="M23921 12182
L24569 12182
" />
<path d="M25341 12182
L25989 12182
" />
<path d="M23932 12167
L24569 12167
" />
<path d="M25341 12167
L25978 12167
" />
<path d="M23943 12151
L24569 12151
" />
<path d="M25341 12151
L25967 12151
" />
<path d="M23955 12135
L24569 12135
" />
<path d="M25341 12135
L25955 12135
" />
<path d="M23967 12119
L24569 12119
" />
<path d="M25341 12119
L25943 12119
" />
<path d="M23979 12104
L24569 12104
" />
<path d="M25341 12104
L25931 12104
" />
<path d="M23992 12088
L24569 12088
" />
<path d="M25341 12088
L25918 12088
" />
<path d="M24006 12072
L24569 12072
" />
<path d="M25341 12072
L25904 12072
" />
<path d="M24020 12056
L24569 12056
" />
<path d="M25341 12056
L25890 12056
" />
<path d="M24034 12041
L24569 12041
" />
<path d="M25341 12041
L25876 12041
" />
<path d="M24049 12025
L25861 12025
" />
<path d="M24065 12009
L25846 12009
" />
<path d="M24080 11993
L25830 11993
" />
<path d="M24097 11978
L25813 11978
" />
<path d="M24114 11962
L25796 11962
" />
<path d="M24131 11946
L25779 11946
" />
<path d="M24150 11930
L25760 11930
" />
<path d="M24169 11915
L25741 11915
" />
<path d="M24189 11899
L25721 11899
" />
<path d="M24209 11883
L25701 11883
" />
<path d="M24231 11867
L25679 11867
" />
<path d="M24254 11852
L25656 11852
" />
<path d="M24278 11836
L25633 11836
" />
<path d="M24302 11820
L25608 11820
" />
<path d="M24329 11804
L25581 11804
" />
<path d="M24357 11789
L25553 11789
" />
<path d="M24386 11773
L25524 11773
" />
<path d="M24418 11757
L25492 11757
" />
<path d="M24452 11741
L25458 11741
" />
<path d="M24489 11726
L25421 11726
" />
<path d="M24529 11710
L25381 11710
" />
<path d="M24575 11694
L25335 11694
" />
<path d="M24627 11678
L25283 11678
" />
<path d="M24689 11663
L25221 11663
" />
<path d="M24771 11647
L25139 11647
" />
<path d="M24955 14265
L24955 13793
" />
<path d="M24699 14029
L25211 14029
" />
<path d="M28768 30150
L28768 28764
" />
<path d="M29642 30150
L29642 28764
" />
<path d="M28768 30150
L28813 30150
" />
<path d="M29598 30150
L29642 30150
" />
<path d="M28768 28764
L28813 28764
" />
<path d="M29598 28764
L29642 28764
" />
<path d="M20863 30236
L22249 30236
" />
<path d="M20863 31110
L22249 31110
" />
<path d="M20863 30236
L20863 30281
" />
<path d="M20863 31065
L20863 31110
" />
<path d="M22249 30236
L22249 30281
" />
<path d="M22249 31065
L22249 31110
" />
<path d="M20863 32248
L22249 32248
" />
<path d="M20863 33122
L22249 33122
" />
<path d="M20863 32248
L20863 32293
" />
<path d="M20863 33077
L20863 33122
" />
<path d="M22249 32248
L22249 32293
" />
<path d="M22249 33077
L22249 33122
" />
<path d="M24946 39272
L23560 39272
" />
<path d="M24946 38398
L23560 38398
" />
<path d="M24946 39272
L24946 39227
" />
<path d="M24946 38443
L24946 38398
" />
<path d="M23560 39272
L23560 39227
" />
<path d="M23560 38443
L23560 38398
" />
<path d="M42892 39939.7 A1275.59 1275.59 0.0 0 0 42892.3 37507.9 " />
<path d="M42120.6 37507.9 A1275.59 1275.59 0.0 0 0 42120.9 39939.7 " />
<path d="M42120.9 39939.7 A1275.59 1275.59 0.0 0 0 42892.3 39939.6 " />
<path d="M43766 38723
L41246 38723
" />
<path d="M43766 38739
L41246 38739
" />
<path d="M43766 38755
L41246 38755
" />
<path d="M43765 38771
L41247 38771
" />
<path d="M43765 38786
L41247 38786
" />
<path d="M43763 38802
L41248 38802
" />
<path d="M43763 38818
L41249 38818
" />
<path d="M43761 38834
L42892 38834
" />
<path d="M42120 38834
L41251 38834
" />
<path d="M43760 38849
L42892 38849
" />
<path d="M42120 38849
L41252 38849
" />
<path d="M43758 38865
L42892 38865
" />
<path d="M42120 38865
L41254 38865
" />
<path d="M43756 38881
L42892 38881
" />
<path d="M42120 38881
L41256 38881
" />
<path d="M43754 38897
L42892 38897
" />
<path d="M42120 38897
L41258 38897
" />
<path d="M43752 38912
L42892 38912
" />
<path d="M42120 38912
L41260 38912
" />
<path d="M43749 38928
L42892 38928
" />
<path d="M42120 38928
L41263 38928
" />
<path d="M43747 38944
L42892 38944
" />
<path d="M42120 38944
L41265 38944
" />
<path d="M43744 38960
L42892 38960
" />
<path d="M42120 38960
L41268 38960
" />
<path d="M43741 38975
L42892 38975
" />
<path d="M42120 38975
L41271 38975
" />
<path d="M43737 38991
L42892 38991
" />
<path d="M42120 38991
L41274 38991
" />
<path d="M43734 39007
L42892 39007
" />
<path d="M42120 39007
L41278 39007
" />
<path d="M43730 39023
L42892 39023
" />
<path d="M42120 39023
L41282 39023
" />
<path d="M43726 39039
L42892 39039
" />
<path d="M42120 39039
L41285 39039
" />
<path d="M43722 39054
L42892 39054
" />
<path d="M42120 39054
L41289 39054
" />
<path d="M43718 39070
L42892 39070
" />
<path d="M42120 39070
L41294 39070
" />
<path d="M43713 39086
L42892 39086
" />
<path d="M42120 39086
L41298 39086
" />
<path d="M43709 39102
L42892 39102
" />
<path d="M42120 39102
L41303 39102
" />
<path d="M43704 39117
L42892 39117
" />
<path d="M42120 39117
L41308 39117
" />
<path d="M43698 39133
L42892 39133
" />
<path d="M42120 39133
L41313 39133
" />
<path d="M43693 39149
L42892 39149
" />
<path d="M42120 39149
L41319 39149
" />
<path d="M43687 39165
L42892 39165
" />
<path d="M42120 39165
L41324 39165
" />
<path d="M43682 39180
L42892 39180
" />
<path d="M42120 39180
L41330 39180
" />
<path d="M43675 39196
L42892 39196
" />
<path d="M42120 39196
L41337 39196
" />
<path d="M43669 39212
L42892 39212
" />
<path d="M42120 39212
L41343 39212
" />
<path d="M43662 39228
L42892 39228
" />
<path d="M42120 39228
L41350 39228
" />
<path d="M43655 39243
L42892 39243
" />
<path d="M42120 39243
L41357 39243
" />
<path d="M43648 39259
L42892 39259
" />
<path d="M42120 39259
L41364 39259
" />
<path d="M43641 39275
L42892 39275
" />
<path d="M42120 39275
L41371 39275
" />
<path d="M43633 39291
L42892 39291
" />
<path d="M42120 39291
L41379 39291
" />
<path d="M43625 39306
L42892 39306
" />
<path d="M42120 39306
L41387 39306
" />
<path d="M43617 39322
L42892 39322
" />
<path d="M42120 39322
L41395 39322
" />
<path d="M43608 39338
L42892 39338
" />
<path d="M42120 39338
L41404 39338
" />
<path d="M43600 39354
L42892 39354
" />
<path d="M42120 39354
L41412 39354
" />
<path d="M43591 39369
L42892 39369
" />
<path d="M42120 39369
L41421 39369
" />
<path d="M43581 39385
L42892 39385
" />
<path d="M42120 39385
L41431 39385
" />
<path d="M43571 39401
L42892 39401
" />
<path d="M42120 39401
L41441 39401
" />
<path d="M43561 39417
L42892 39417
" />
<path d="M42120 39417
L41450 39417
" />
<path d="M43551 39432
L42892 39432
" />
<path d="M42120 39432
L41461 39432
" />
<path d="M43540 39448
L42892 39448
" />
<path d="M42120 39448
L41472 39448
" />
<path d="M43529 39464
L42892 39464
" />
<path d="M42120 39464
L41483 39464
" />
<path d="M43518 39480
L42892 39480
" />
<path d="M42120 39480
L41494 39480
" />
<path d="M43506 39495
L42892 39495
" />
<path d="M42120 39495
L41506 39495
" />
<path d="M43494 39511
L42892 39511
" />
<path d="M42120 39511
L41518 39511
" />
<path d="M43482 39527
L42892 39527
" />
<path d="M42120 39527
L41530 39527
" />
<path d="M43469 39543
L42892 39543
" />
<path d="M42120 39543
L41543 39543
" />
<path d="M43455 39558
L42892 39558
" />
<path d="M42120 39558
L41557 39558
" />
<path d="M43441 39574
L42892 39574
" />
<path d="M42120 39574
L41571 39574
" />
<path d="M43427 39590
L42892 39590
" />
<path d="M42120 39590
L41585 39590
" />
<path d="M43412 39606
L41600 39606
" />
<path d="M43397 39621
L41615 39621
" />
<path d="M43381 39637
L41631 39637
" />
<path d="M43364 39653
L41648 39653
" />
<path d="M43347 39669
L41665 39669
" />
<path d="M43330 39684
L41682 39684
" />
<path d="M43311 39700
L41701 39700
" />
<path d="M43292 39716
L41720 39716
" />
<path d="M43272 39732
L41740 39732
" />
<path d="M43252 39747
L41760 39747
" />
<path d="M43230 39763
L41782 39763
" />
<path d="M43207 39779
L41805 39779
" />
<path d="M43184 39795
L41828 39795
" />
<path d="M43159 39810
L41853 39810
" />
<path d="M43132 39826
L41880 39826
" />
<path d="M43104 39842
L41908 39842
" />
<path d="M43075 39858
L41937 39858
" />
<path d="M43043 39873
L41969 39873
" />
<path d="M43009 39889
L42003 39889
" />
<path d="M42972 39905
L42040 39905
" />
<path d="M42932 39921
L42080 39921
" />
<path d="M42886 39936
L42126 39936
" />
<path d="M42834 39952
L42178 39952
" />
<path d="M42772 39968
L42240 39968
" />
<path d="M42690 39984
L42322 39984
" />
<path d="M42506 37365
L42506 37837
" />
<path d="M42762 37601
L42250 37601
" />
<path d="M49969.1 45214.2 A1275.59 1275.59 0.0 0 0 47537.4 45213.9 " />
<path d="M47537.4 45985.6 A1275.59 1275.59 0.0 0 0 49969.1 45985.3 " />
<path d="M49969.1 45985.3 A1275.59 1275.59 0.0 0 0 49969 45213.9 " />
<path d="M48753 44339
L48753 46859
" />
<path d="M48768 44339
L48768 46859
" />
<path d="M48784 44339
L48784 46859
" />
<path d="M48800 44340
L48800 46858
" />
<path d="M48816 44341
L48816 46858
" />
<path d="M48831 44342
L48831 46857
" />
<path d="M48847 44343
L48847 46856
" />
<path d="M48863 44344
L48863 45213
" />
<path d="M48863 45985
L48863 46854
" />
<path d="M48879 44345
L48879 45213
" />
<path d="M48879 45985
L48879 46853
" />
<path d="M48894 44347
L48894 45213
" />
<path d="M48894 45985
L48894 46851
" />
<path d="M48910 44349
L48910 45213
" />
<path d="M48910 45985
L48910 46850
" />
<path d="M48926 44351
L48926 45213
" />
<path d="M48926 45985
L48926 46847
" />
<path d="M48942 44353
L48942 45213
" />
<path d="M48942 45985
L48942 46845
" />
<path d="M48957 44356
L48957 45213
" />
<path d="M48957 45985
L48957 46843
" />
<path d="M48973 44358
L48973 45213
" />
<path d="M48973 45985
L48973 46840
" />
<path d="M48989 44361
L48989 45213
" />
<path d="M48989 45985
L48989 46837
" />
<path d="M49005 44364
L49005 45213
" />
<path d="M49005 45985
L49005 46834
" />
<path d="M49020 44368
L49020 45213
" />
<path d="M49020 45985
L49020 46831
" />
<path d="M49037 44371
L49037 45213
" />
<path d="M49037 45985
L49037 46827
" />
<path d="M49052 44375
L49052 45213
" />
<path d="M49052 45985
L49052 46824
" />
<path d="M49068 44379
L49068 45213
" />
<path d="M49068 45985
L49068 46820
" />
<path d="M49084 44383
L49084 45213
" />
<path d="M49084 45985
L49084 46816
" />
<path d="M49100 44387
L49100 45213
" />
<path d="M49100 45985
L49100 46811
" />
<path d="M49115 44392
L49115 45213
" />
<path d="M49115 45985
L49115 46807
" />
<path d="M49131 44397
L49131 45213
" />
<path d="M49131 45985
L49131 46802
" />
<path d="M49147 44402
L49147 45213
" />
<path d="M49147 45985
L49147 46797
" />
<path d="M49163 44407
L49163 45213
" />
<path d="M49163 45985
L49163 46792
" />
<path d="M49178 44412
L49178 45213
" />
<path d="M49178 45985
L49178 46786
" />
<path d="M49194 44418
L49194 45213
" />
<path d="M49194 45985
L49194 46781
" />
<path d="M49210 44424
L49210 45213
" />
<path d="M49210 45985
L49210 46775
" />
<path d="M49226 44430
L49226 45213
" />
<path d="M49226 45985
L49226 46769
" />
<path d="M49241 44436
L49241 45213
" />
<path d="M49241 45985
L49241 46762
" />
<path d="M49257 44443
L49257 45213
" />
<path d="M49257 45985
L49257 46756
" />
<path d="M49273 44450
L49273 45213
" />
<path d="M49273 45985
L49273 46748
" />
<path d="M49289 44457
L49289 45213
" />
<path d="M49289 45985
L49289 46741
" />
<path d="M49304 44465
L49304 45213
" />
<path d="M49304 45985
L49304 46734
" />
<path d="M49320 44472
L49320 45213
" />
<path d="M49320 45985
L49320 46726
" />
<path d="M49336 44480
L49336 45213
" />
<path d="M49336 45985
L49336 46719
" />
<path d="M49352 44488
L49352 45213
" />
<path d="M49352 45985
L49352 46710
" />
<path d="M49367 44497
L49367 45213
" />
<path d="M49367 45985
L49367 46702
" />
<path d="M49383 44506
L49383 45213
" />
<path d="M49383 45985
L49383 46693
" />
<path d="M49399 44515
L49399 45213
" />
<path d="M49399 45985
L49399 46684
" />
<path d="M49415 44524
L49415 45213
" />
<path d="M49415 45985
L49415 46674
" />
<path d="M49430 44534
L49430 45213
" />
<path d="M49430 45985
L49430 46665
" />
<path d="M49446 44544
L49446 45213
" />
<path d="M49446 45985
L49446 46655
" />
<path d="M49462 44554
L49462 45213
" />
<path d="M49462 45985
L49462 46644
" />
<path d="M49478 44565
L49478 45213
" />
<path d="M49478 45985
L49478 46634
" />
<path d="M49493 44576
L49493 45213
" />
<path d="M49493 45985
L49493 46623
" />
<path d="M49509 44587
L49509 45213
" />
<path d="M49509 45985
L49509 46611
" />
<path d="M49525 44599
L49525 45213
" />
<path d="M49525 45985
L49525 46599
" />
<path d="M49541 44611
L49541 45213
" />
<path d="M49541 45985
L49541 46587
" />
<path d="M49556 44624
L49556 45213
" />
<path d="M49556 45985
L49556 46575
" />
<path d="M49572 44637
L49572 45213
" />
<path d="M49572 45985
L49572 46562
" />
<path d="M49588 44650
L49588 45213
" />
<path d="M49588 45985
L49588 46548
" />
<path d="M49603 44664
L49603 45213
" />
<path d="M49603 45985
L49603 46534
" />
<path d="M49619 44678
L49619 45213
" />
<path d="M49619 45985
L49619 46520
" />
<path d="M49635 44693
L49635 46505
" />
<path d="M49651 44709
L49651 46490
" />
<path d="M49666 44724
L49666 46474
" />
<path d="M49682 44741
L49682 46458
" />
<path d="M49698 44758
L49698 46441
" />
<path d="M49714 44776
L49714 46423
" />
<path d="M49729 44794
L49729 46404
" />
<path d="M49745 44813
L49745 46385
" />
<path d="M49761 44833
L49761 46365
" />
<path d="M49777 44854
L49777 46345
" />
<path d="M49792 44875
L49792 46323
" />
<path d="M49808 44898
L49808 46300
" />
<path d="M49824 44922
L49824 46277
" />
<path d="M49840 44947
L49840 46252
" />
<path d="M49855 44973
L49855 46226
" />
<path d="M49871 45001
L49871 46198
" />
<path d="M49887 45030
L49887 46168
" />
<path d="M49903 45062
L49903 46136
" />
<path d="M49918 45096
L49918 46102
" />
<path d="M49934 45133
L49934 46065
" />
<path d="M49950 45174
L49950 46025
" />
<path d="M49966 45219
L49966 45980
" />
<path d="M49981 45271
L49981 45928
" />
<path d="M49997 45333
L49997 45865
" />
<path d="M50013 45415
L50013 45784
" />
<path d="M47394 45599
L47867 45599
" />
<path d="M47631 45343
L47631 45855
" />
<path d="M42120.9 41107.9 A1275.59 1275.59 0.0 0 0 42120.6 43539.6 " />
<path d="M42892.3 43539.6 A1275.59 1275.59 0.0 0 0 42892 41107.9 " />
<path d="M42892 41107.9 A1275.59 1275.59 0.0 0 0 42120.6 41107.9 " />
<path d="M41246 42323
L43766 42323
" />
<path d="M41246 42308
L43766 42308
" />
<path d="M41246 42292
L43766 42292
" />
<path d="M41247 42276
L43765 42276
" />
<path d="M41247 42260
L43765 42260
" />
<path d="M41248 42245
L43763 42245
" />
<path d="M41249 42229
L43763 42229
" />
<path d="M41251 42213
L42120 42213
" />
<path d="M42892 42213
L43761 42213
" />
<path d="M41252 42197
L42120 42197
" />
<path d="M42892 42197
L43760 42197
" />
<path d="M41254 42182
L42120 42182
" />
<path d="M42892 42182
L43758 42182
" />
<path d="M41256 42166
L42120 42166
" />
<path d="M42892 42166
L43756 42166
" />
<path d="M41258 42150
L42120 42150
" />
<path d="M42892 42150
L43754 42150
" />
<path d="M41260 42134
L42120 42134
" />
<path d="M42892 42134
L43752 42134
" />
<path d="M41263 42119
L42120 42119
" />
<path d="M42892 42119
L43749 42119
" />
<path d="M41265 42103
L42120 42103
" />
<path d="M42892 42103
L43747 42103
" />
<path d="M41268 42087
L42120 42087
" />
<path d="M42892 42087
L43744 42087
" />
<path d="M41271 42071
L42120 42071
" />
<path d="M42892 42071
L43741 42071
" />
<path d="M41274 42056
L42120 42056
" />
<path d="M42892 42056
L43737 42056
" />
<path d="M41278 42039
L42120 42039
" />
<path d="M42892 42039
L43734 42039
" />
<path d="M41282 42024
L42120 42024
" />
<path d="M42892 42024
L43730 42024
" />
<path d="M41285 42008
L42120 42008
" />
<path d="M42892 42008
L43726 42008
" />
<path d="M41289 41992
L42120 41992
" />
<path d="M42892 41992
L43722 41992
" />
<path d="M41294 41976
L42120 41976
" />
<path d="M42892 41976
L43718 41976
" />
<path d="M41298 41961
L42120 41961
" />
<path d="M42892 41961
L43713 41961
" />
<path d="M41303 41945
L42120 41945
" />
<path d="M42892 41945
L43709 41945
" />
<path d="M41308 41929
L42120 41929
" />
<path d="M42892 41929
L43704 41929
" />
<path d="M41313 41913
L42120 41913
" />
<path d="M42892 41913
L43698 41913
" />
<path d="M41319 41898
L42120 41898
" />
<path d="M42892 41898
L43693 41898
" />
<path d="M41324 41882
L42120 41882
" />
<path d="M42892 41882
L43687 41882
" />
<path d="M41330 41866
L42120 41866
" />
<path d="M42892 41866
L43682 41866
" />
<path d="M41337 41850
L42120 41850
" />
<path d="M42892 41850
L43675 41850
" />
<path d="M41343 41835
L42120 41835
" />
<path d="M42892 41835
L43669 41835
" />
<path d="M41350 41819
L42120 41819
" />
<path d="M42892 41819
L43662 41819
" />
<path d="M41357 41803
L42120 41803
" />
<path d="M42892 41803
L43655 41803
" />
<path d="M41364 41787
L42120 41787
" />
<path d="M42892 41787
L43648 41787
" />
<path d="M41371 41772
L42120 41772
" />
<path d="M42892 41772
L43641 41772
" />
<path d="M41379 41756
L42120 41756
" />
<path d="M42892 41756
L43633 41756
" />
<path d="M41387 41740
L42120 41740
" />
<path d="M42892 41740
L43625 41740
" />
<path d="M41395 41724
L42120 41724
" />
<path d="M42892 41724
L43617 41724
" />
<path d="M41404 41709
L42120 41709
" />
<path d="M42892 41709
L43608 41709
" />
<path d="M41412 41693
L42120 41693
" />
<path d="M42892 41693
L43600 41693
" />
<path d="M41421 41677
L42120 41677
" />
<path d="M42892 41677
L43591 41677
" />
<path d="M41431 41661
L42120 41661
" />
<path d="M42892 41661
L43581 41661
" />
<path d="M41441 41646
L42120 41646
" />
<path d="M42892 41646
L43571 41646
" />
<path d="M41450 41630
L42120 41630
" />
<path d="M42892 41630
L43561 41630
" />
<path d="M41461 41614
L42120 41614
" />
<path d="M42892 41614
L43551 41614
" />
<path d="M41472 41598
L42120 41598
" />
<path d="M42892 41598
L43540 41598
" />
<path d="M41483 41583
L42120 41583
" />
<path d="M42892 41583
L43529 41583
" />
<path d="M41494 41567
L42120 41567
" />
<path d="M42892 41567
L43518 41567
" />
<path d="M41506 41551
L42120 41551
" />
<path d="M42892 41551
L43506 41551
" />
<path d="M41518 41535
L42120 41535
" />
<path d="M42892 41535
L43494 41535
" />
<path d="M41530 41520
L42120 41520
" />
<path d="M42892 41520
L43482 41520
" />
<path d="M41543 41504
L42120 41504
" />
<path d="M42892 41504
L43469 41504
" />
<path d="M41557 41488
L42120 41488
" />
<path d="M42892 41488
L43455 41488
" />
<path d="M41571 41473
L42120 41473
" />
<path d="M42892 41473
L43441 41473
" />
<path d="M41585 41457
L42120 41457
" />
<path d="M42892 41457
L43427 41457
" />
<path d="M41600 41441
L43412 41441
" />
<path d="M41615 41425
L43397 41425
" />
<path d="M41631 41410
L43381 41410
" />
<path d="M41648 41394
L43364 41394
" />
<path d="M41665 41378
L43347 41378
" />
<path d="M41682 41362
L43330 41362
" />
<path d="M41701 41347
L43311 41347
" />
<path d="M41720 41331
L43292 41331
" />
<path d="M41740 41315
L43272 41315
" />
<path d="M41760 41299
L43252 41299
" />
<path d="M41782 41284
L43230 41284
" />
<path d="M41805 41268
L43207 41268
" />
<path d="M41828 41252
L43184 41252
" />
<path d="M41853 41236
L43159 41236
" />
<path d="M41880 41221
L43132 41221
" />
<path d="M41908 41205
L43104 41205
" />
<path d="M41937 41189
L43075 41189
" />
<path d="M41969 41173
L43043 41173
" />
<path d="M42003 41158
L43009 41158
" />
<path d="M42040 41142
L42972 41142
" />
<path d="M42080 41126
L42932 41126
" />
<path d="M42126 41110
L42886 41110
" />
<path d="M42178 41095
L42834 41095
" />
<path d="M42240 41079
L42772 41079
" />
<path d="M42322 41063
L42690 41063
" />
<path d="M42506 43682
L42506 43209
" />
<path d="M42250 43445
L42762 43445
" />
<path d="M51670 44376 A1275.59 1275.59 0.0 0 0 51669.7 46807.7 " />
<path d="M52441.4 46807.7 A1275.59 1275.59 0.0 0 0 52441.1 44376 " />
<path d="M52441.1 44376 A1275.59 1275.59 0.0 0 0 51669.7 44376.1 " />
<path d="M50795 45591
L53315 45591
" />
<path d="M50795 45576
L53315 45576
" />
<path d="M50795 45560
L53315 45560
" />
<path d="M50796 45544
L53314 45544
" />
<path d="M50796 45528
L53314 45528
" />
<path d="M50798 45513
L53313 45513
" />
<path d="M50798 45497
L53312 45497
" />
<path d="M50800 45481
L51669 45481
" />
<path d="M52441 45481
L53310 45481
" />
<path d="M50801 45465
L51669 45465
" />
<path d="M52441 45465
L53309 45465
" />
<path d="M50803 45450
L51669 45450
" />
<path d="M52441 45450
L53307 45450
" />
<path d="M50805 45434
L51669 45434
" />
<path d="M52441 45434
L53305 45434
" />
<path d="M50807 45418
L51669 45418
" />
<path d="M52441 45418
L53303 45418
" />
<path d="M50809 45402
L51669 45402
" />
<path d="M52441 45402
L53301 45402
" />
<path d="M50812 45387
L51669 45387
" />
<path d="M52441 45387
L53298 45387
" />
<path d="M50814 45371
L51669 45371
" />
<path d="M52441 45371
L53296 45371
" />
<path d="M50817 45355
L51669 45355
" />
<path d="M52441 45355
L53293 45355
" />
<path d="M50820 45339
L51669 45339
" />
<path d="M52441 45339
L53290 45339
" />
<path d="M50824 45324
L51669 45324
" />
<path d="M52441 45324
L53287 45324
" />
<path d="M50827 45308
L51669 45308
" />
<path d="M52441 45308
L53283 45308
" />
<path d="M50831 45292
L51669 45292
" />
<path d="M52441 45292
L53279 45292
" />
<path d="M50835 45276
L51669 45276
" />
<path d="M52441 45276
L53276 45276
" />
<path d="M50839 45260
L51669 45260
" />
<path d="M52441 45260
L53272 45260
" />
<path d="M50843 45245
L51669 45245
" />
<path d="M52441 45245
L53267 45245
" />
<path d="M50848 45229
L51669 45229
" />
<path d="M52441 45229
L53263 45229
" />
<path d="M50852 45213
L51669 45213
" />
<path d="M52441 45213
L53258 45213
" />
<path d="M50857 45197
L51669 45197
" />
<path d="M52441 45197
L53253 45197
" />
<path d="M50863 45182
L51669 45182
" />
<path d="M52441 45182
L53248 45182
" />
<path d="M50868 45166
L51669 45166
" />
<path d="M52441 45166
L53242 45166
" />
<path d="M50874 45150
L51669 45150
" />
<path d="M52441 45150
L53237 45150
" />
<path d="M50879 45134
L51669 45134
" />
<path d="M52441 45134
L53231 45134
" />
<path d="M50886 45119
L51669 45119
" />
<path d="M52441 45119
L53224 45119
" />
<path d="M50892 45103
L51669 45103
" />
<path d="M52441 45103
L53218 45103
" />
<path d="M50899 45087
L51669 45087
" />
<path d="M52441 45087
L53211 45087
" />
<path d="M50906 45071
L51669 45071
" />
<path d="M52441 45071
L53204 45071
" />
<path d="M50913 45056
L51669 45056
" />
<path d="M52441 45056
L53197 45056
" />
<path d="M50920 45040
L51669 45040
" />
<path d="M52441 45040
L53190 45040
" />
<path d="M50928 45024
L51669 45024
" />
<path d="M52441 45024
L53182 45024
" />
<path d="M50936 45008
L51669 45008
" />
<path d="M52441 45008
L53174 45008
" />
<path d="M50944 44993
L51669 44993
" />
<path d="M52441 44993
L53166 44993
" />
<path d="M50953 44977
L51669 44977
" />
<path d="M52441 44977
L53157 44977
" />
<path d="M50961 44961
L51669 44961
" />
<path d="M52441 44961
L53149 44961
" />
<path d="M50970 44945
L51669 44945
" />
<path d="M52441 44945
L53140 44945
" />
<path d="M50980 44930
L51669 44930
" />
<path d="M52441 44930
L53130 44930
" />
<path d="M50990 44914
L51669 44914
" />
<path d="M52441 44914
L53120 44914
" />
<path d="M51000 44898
L51669 44898
" />
<path d="M52441 44898
L53111 44898
" />
<path d="M51010 44882
L51669 44882
" />
<path d="M52441 44882
L53100 44882
" />
<path d="M51021 44867
L51669 44867
" />
<path d="M52441 44867
L53089 44867
" />
<path d="M51032 44851
L51669 44851
" />
<path d="M52441 44851
L53078 44851
" />
<path d="M51043 44835
L51669 44835
" />
<path d="M52441 44835
L53067 44835
" />
<path d="M51055 44819
L51669 44819
" />
<path d="M52441 44819
L53055 44819
" />
<path d="M51067 44804
L51669 44804
" />
<path d="M52441 44804
L53043 44804
" />
<path d="M51079 44788
L51669 44788
" />
<path d="M52441 44788
L53031 44788
" />
<path d="M51092 44772
L51669 44772
" />
<path d="M52441 44772
L53018 44772
" />
<path d="M51106 44756
L51669 44756
" />
<path d="M52441 44756
L53004 44756
" />
<path d="M51120 44741
L51669 44741
" />
<path d="M52441 44741
L52990 44741
" />
<path d="M51134 44725
L51669 44725
" />
<path d="M52441 44725
L52976 44725
" />
<path d="M51149 44709
L52961 44709
" />
<path d="M51165 44693
L52946 44693
" />
<path d="M51180 44678
L52930 44678
" />
<path d="M51197 44662
L52913 44662
" />
<path d="M51214 44646
L52896 44646
" />
<path d="M51231 44630
L52879 44630
" />
<path d="M51250 44615
L52860 44615
" />
<path d="M51269 44599
L52841 44599
" />
<path d="M51289 44583
L52821 44583
" />
<path d="M51309 44567
L52801 44567
" />
<path d="M51331 44552
L52779 44552
" />
<path d="M51354 44536
L52756 44536
" />
<path d="M51378 44520
L52733 44520
" />
<path d="M51402 44504
L52708 44504
" />
<path d="M51429 44489
L52681 44489
" />
<path d="M51457 44473
L52653 44473
" />
<path d="M51486 44457
L52624 44457
" />
<path d="M51518 44441
L52592 44441
" />
<path d="M51552 44426
L52558 44426
" />
<path d="M51589 44410
L52521 44410
" />
<path d="M51629 44394
L52481 44394
" />
<path d="M51675 44378
L52435 44378
" />
<path d="M51727 44363
L52383 44363
" />
<path d="M51789 44347
L52321 44347
" />
<path d="M51871 44331
L52239 44331
" />
<path d="M52055 46950
L52055 46477
" />
<path d="M51799 46713
L52311 46713
" />
<path d="M45318 46684
L45318 45298
" />
<path d="M46192 46684
L46192 45298
" />
<path d="M45318 46684
L45363 46684
" />
<path d="M46147 46684
L46192 46684
" />
<path d="M45318 45298
L45363 45298
" />
<path d="M46147 45298
L46192 45298
" />
<path d="M44169 41316
L44169 39930
" />
<path d="M45043 41316
L45043 39930
" />
<path d="M44169 41316
L44214 41316
" />
<path d="M44998 41316
L45043 41316
" />
<path d="M44169 39930
L44214 39930
" />
<path d="M44998 39930
L45043 39930
" />
<path d="M41754 32062
L43140 32062
" />
<path d="M41754 32936
L43140 32936
" />
<path d="M41754 32062
L41754 32107
" />
<path d="M41754 32891
L41754 32936
" />
<path d="M43140 32062
L43140 32107
" />
<path d="M43140 32891
L43140 32936
" />
<path d="M28056.5 11642.3 A1177.17 1177.17 0.0 0 0 27448.2 13827.3 " />
<path d="M28664.6 13827.3 A1177.17 1177.17 0.0 0 0 28056.2 11642.3 " />
<circle cx="28056.4" cy="12819.5" r="984.252" /> 
<path d="M27448 13827
L28664 13827
" />
<path d="M40207 39224
L38703 39224
" />
<path d="M38703 39224
L38703 42775
" />
<path d="M38703 42775
L40207 42775
" />
<path d="M40207 42775
L40207 39224
" />
<path d="M39455 39121
L39455 39224
" />
<path d="M39455 42877
L39455 42775
" />
<path d="M40207 39773
L38703 39773
" />
<path d="M49113.2 11638.4 A1177.17 1177.17 0.0 0 0 48504.8 13823.4 " />
<path d="M49721.3 13823.4 A1177.17 1177.17 0.0 0 0 49112.9 11638.4 " />
<circle cx="49113.1" cy="12815.5" r="984.252" /> 
<path d="M48504 13823
L49721 13823
" />
<path d="M46513.2 11638.4 A1177.17 1177.17 0.0 0 0 45904.8 13823.4 " />
<path d="M47121.3 13823.4 A1177.17 1177.17 0.0 0 0 46512.9 11638.4 " />
<circle cx="46513.1" cy="12815.5" r="984.252" /> 
<path d="M45904 13823
L47121 13823
" />
<path d="M43913.2 11638.4 A1177.17 1177.17 0.0 0 0 43304.8 13823.4 " />
<path d="M44521.3 13823.4 A1177.17 1177.17 0.0 0 0 43912.9 11638.4 " />
<circle cx="43913.1" cy="12815.5" r="984.252" /> 
<path d="M43304 13823
L44521 13823
" />
<path d="M41313.2 11638.4 A1177.17 1177.17 0.0 0 0 40704.8 13823.4 " />
<path d="M41921.3 13823.4 A1177.17 1177.17 0.0 0 0 41312.9 11638.4 " />
<circle cx="41313.1" cy="12815.5" r="984.252" /> 
<path d="M40704 13823
L41921 13823
" />
<path d="M38713.2 11638.4 A1177.17 1177.17 0.0 0 0 38104.8 13823.4 " />
<path d="M39321.3 13823.4 A1177.17 1177.17 0.0 0 0 38712.9 11638.4 " />
<circle cx="38713.1" cy="12815.5" r="984.252" /> 
<path d="M38104 13823
L39321 13823
" />
<path d="M36113.2 11638.4 A1177.17 1177.17 0.0 0 0 35504.8 13823.4 " />
<path d="M36721.3 13823.4 A1177.17 1177.17 0.0 0 0 36112.9 11638.4 " />
<circle cx="36113.1" cy="12815.5" r="984.252" /> 
<path d="M35504 13823
L36721 13823
" />
<path d="M33513.2 11638.4 A1177.17 1177.17 0.0 0 0 32904.8 13823.4 " />
<path d="M34121.3 13823.4 A1177.17 1177.17 0.0 0 0 33512.9 11638.4 " />
<circle cx="33513.1" cy="12815.5" r="984.252" /> 
<path d="M32904 13823
L34121 13823
" />
<path d="M30913.2 11638.4 A1177.17 1177.17 0.0 0 0 30304.8 13823.4 " />
<path d="M31521.3 13823.4 A1177.17 1177.17 0.0 0 0 30912.9 11638.4 " />
<circle cx="30913.1" cy="12815.5" r="984.252" /> 
<path d="M30304 13823
L31521 13823
" />
<path d="M34694 42047
L36741 42047
" />
<path d="M36741 42047
L36741 40953
" />
<path d="M36741 40953
L34694 40953
" />
<path d="M34694 40953
L34694 42047
" />
<path d="M34194 42047
L33646 42047
" />
<path d="M33646 42047
L33646 41500
" />
<path d="M34694 40787
L36741 40787
" />
<path d="M36741 40787
L36741 39693
" />
<path d="M36741 39693
L34694 39693
" />
<path d="M34694 39693
L34694 40787
" />
<path d="M34194 40787
L33646 40787
" />
<path d="M33646 40787
L33646 40240
" />
<path d="M34694 39524
L36741 39524
" />
<path d="M36741 39524
L36741 38429
" />
<path d="M36741 38429
L34694 38429
" />
<path d="M34694 38429
L34694 39524
" />
<path d="M34194 39524
L33646 39524
" />
<path d="M33646 39524
L33646 38976
" />
<path d="M31174 45095
L31174 43047
" />
<path d="M31174 43047
L30079 43047
" />
<path d="M30079 43047
L30079 45095
" />
<path d="M30079 45095
L31174 45095
" />
<path d="M31174 45595
L31174 46142
" />
<path d="M31174 46142
L30627 46142
" />
<path d="M34694 38268
L36741 38268
" />
<path d="M36741 38268
L36741 37173
" />
<path d="M36741 37173
L34694 37173
" />
<path d="M34694 37173
L34694 38268
" />
<path d="M34194 38268
L33646 38268
" />
<path d="M33646 38268
L33646 37721
" />
<path d="M34694 37008
L36741 37008
" />
<path d="M36741 37008
L36741 35913
" />
<path d="M36741 35913
L34694 35913
" />
<path d="M34694 35913
L34694 37008
" />
<path d="M34194 37008
L33646 37008
" />
<path d="M33646 37008
L33646 36461
" />
<path d="M34694 35748
L36741 35748
" />
<path d="M36741 35748
L36741 34654
" />
<path d="M36741 34654
L34694 34654
" />
<path d="M34694 34654
L34694 35748
" />
<path d="M34194 35748
L33646 35748
" />
<path d="M33646 35748
L33646 35201
" />
<path d="M24450 27433
L24450 20386
" />
<path d="M24450 20386
L23355 20386
" />
<path d="M23355 20386
L23355 27433
" />
<path d="M23355 27433
L24450 27433
" />
<path d="M24450 27933
L24450 28480
" />
<path d="M24450 28480
L23902 28480
" />
<path d="M21891 27433
L21891 20386
" />
<path d="M21891 20386
L20796 20386
" />
<path d="M20796 20386
L20796 27433
" />
<path d="M20796 27433
L21891 27433
" />
<path d="M21891 27933
L21891 28480
" />
<path d="M21891 28480
L21343 28480
" />
<path d="M34741 33437
L34741 30390
" />
<path d="M34741 30390
L33646 30390
" />
<path d="M33646 30390
L33646 33437
" />
<path d="M33646 33437
L34741 33437
" />
<path d="M34741 33937
L34741 34484
" />
<path d="M34741 34484
L34194 34484
" />
<path d="M23170 27433
L23170 20386
" />
<path d="M23170 20386
L22076 20386
" />
<path d="M22076 20386
L22076 27433
" />
<path d="M22076 27433
L23170 27433
" />
<path d="M23170 27933
L23170 28480
" />
<path d="M23170 28480
L22623 28480
" />
<path d="M40455 45152
L38408 45152
" />
<path d="M38408 45152
L38408 46247
" />
<path d="M38408 46247
L40455 46247
" />
<path d="M40455 46247
L40455 45152
" />
<path d="M40955 45152
L41502 45152
" />
<path d="M41502 45152
L41502 45699
" />
<path d="M33855 44099
L37855 44099
" />
<path d="M33855 43599
L33855 46599
" />
<path d="M33855 46599
L37855 46599
" />
<path d="M37855 46599
L37855 43599
" />
<path d="M37855 43599
L33855 43599
" />
<path d="M53655 28899
L53655 32899
" />
<path d="M54155 28899
L51155 28899
" />
<path d="M51155 28899
L51155 32899
" />
<path d="M51155 32899
L54155 32899
" />
<path d="M54155 32899
L54155 28899
" />
<path d="M34737 27465
L34737 20417
" />
<path d="M34737 20417
L33642 20417
" />
<path d="M33642 20417
L33642 27465
" />
<path d="M33642 27465
L34737 27465
" />
<path d="M34737 27965
L34737 28512
" />
<path d="M34737 28512
L34190 28512
" />
<path d="M40139 21476
L40139 28524
" />
<path d="M40139 28524
L41233 28524
" />
<path d="M41233 28524
L41233 21476
" />
<path d="M41233 21476
L40139 21476
" />
<path d="M40139 20976
L40139 20429
" />
<path d="M40139 20429
L40686 20429
" />
<path d="M31013 18032
L31013 18221
" />
<path d="M31013 18221
L27068 18221
" />
<path d="M27068 18221
L27068 18032
" />
<path d="M31013 16945
L31013 16756
" />
<path d="M31013 16756
L27068 16756
" />
<path d="M27068 16756
L27068 16945
" />
<path d="M31016 19709
L31016 19898
" />
<path d="M31016 19898
L27072 19898
" />
<path d="M27072 19898
L27072 19709
" />
<path d="M31016 18622
L31016 18433
" />
<path d="M31016 18433
L27072 18433
" />
<path d="M27072 18433
L27072 18622
" />
<path d="M49128 17943
L49128 18132
" />
<path d="M49128 18132
L45183 18132
" />
<path d="M45183 18132
L45183 17943
" />
<path d="M49128 16856
L49128 16667
" />
<path d="M49128 16667
L45183 16667
" />
<path d="M45183 16667
L45183 16856
" />
<path d="M49028 21343
L49028 21532
" />
<path d="M49028 21532
L45083 21532
" />
<path d="M45083 21532
L45083 21343
" />
<path d="M49028 20256
L49028 20067
" />
<path d="M49028 20067
L45083 20067
" />
<path d="M45083 20067
L45083 20256
" />
<path d="M49028 24743
L49028 24932
" />
<path d="M49028 24932
L45083 24932
" />
<path d="M45083 24932
L45083 24743
" />
<path d="M49028 23656
L49028 23467
" />
<path d="M49028 23467
L45083 23467
" />
<path d="M45083 23467
L45083 23656
" />
<path d="M49028 28143
L49028 28332
" />
<path d="M49028 28332
L45083 28332
" />
<path d="M45083 28332
L45083 28143
" />
<path d="M49028 27056
L49028 26867
" />
<path d="M49028 26867
L45083 26867
" />
<path d="M45083 26867
L45083 27056
" />
<path d="M49028 19643
L49028 19832
" />
<path d="M49028 19832
L45083 19832
" />
<path d="M45083 19832
L45083 19643
" />
<path d="M49028 18556
L49028 18367
" />
<path d="M49028 18367
L45083 18367
" />
<path d="M45083 18367
L45083 18556
" />
<path d="M49028 23043
L49028 23232
" />
<path d="M49028 23232
L45083 23232
" />
<path d="M45083 23232
L45083 23043
" />
<path d="M49028 21956
L49028 21767
" />
<path d="M49028 21767
L45083 21767
" />
<path d="M45083 21767
L45083 21956
" />
<path d="M49028 26443
L49028 26632
" />
<path d="M49028 26632
L45083 26632
" />
<path d="M45083 26632
L45083 26443
" />
<path d="M49028 25356
L49028 25167
" />
<path d="M49028 25167
L45083 25167
" />
<path d="M45083 25167
L45083 25356
" />
<path d="M49820 29843
L49820 30032
" />
<path d="M49820 30032
L45875 30032
" />
<path d="M45875 30032
L45875 29843
" />
<path d="M49820 28756
L49820 28567
" />
<path d="M49820 28567
L45875 28567
" />
<path d="M45875 28567
L45875 28756
" />
</g>
<g style="fill:#000000; fill-opacity:0.0; 
stroke:#000000; stroke-width:59.0551; stroke-opacity:1; 
stroke-linecap:round; stroke-linejoin:round;">
<path d="M20930 16165
L20930 17937
" />
<path d="M22505 15673
L21914 15673
" />
<path d="M23489 17937
L23489 16165
" />
<path d="M21914 18429
L22505 18429
" />
</g>
<g style="fill:#000000; fill-opacity:0.0; 
stroke:#000000; stroke-width:47.2441; stroke-opacity:1; 
stroke-linecap:round; stroke-linejoin:round;">
<path d="M29119.3 20390.3 A393.701 393.701 0.0 0 0 29906.8 20390.3 " />
<path d="M29119 20390
L27079 20390
" />
<path d="M27079 20390
L27079 40484
" />
<path d="M27079 40484
L31946 40484
" />
<path d="M31946 40484
L31946 20390
" />
<path d="M31946 20390
L29906 20390
" />
<path d="M47949 39584
L47949 43615
" />
<path d="M54205 39584
L54205 43615
" />
<path d="M54205 39584
L47949 39584
" />
<path d="M54205 43615
L47949 43615
" />
<path d="M47949 40599
L46909 40599
" />
<path d="M47949 41599
L46916 41599
" />
<path d="M47949 42599
L46916 42599
" />
<path d="M37068.2 20429.7 A393.701 393.701 0.0 0 0 37855.6 20429.7 " />
<path d="M37068 20429
L36528 20429
" />
<path d="M36528 20429
L36528 29524
" />
<path d="M36528 29524
L38394 29524
" />
<path d="M38394 29524
L38394 20429
" />
<path d="M38394 20429
L37855 20429
" />
<path d="M25278.8 30465.1 A994.094 994.094 0.0 0 0 23290.6 30465.1 " />
<path d="M23290.6 32984.8 A994.094 994.094 0.0 0 0 25278.8 32984.8 " />
<path d="M25278 30465
L25278 32984
" />
<path d="M23290 30465
L23290 32984
" />
<path d="M24351 35488
L25398 35488
" />
<path d="M25398 35488
L25398 34394
" />
<path d="M25398 34394
L24351 34394
" />
<path d="M24351 34394
L24351 35488
" />
<path d="M23851 35488
L23304 35488
" />
<path d="M23304 35488
L23304 34941
" />
<path d="M24343 36752
L25391 36752
" />
<path d="M25391 36752
L25391 35658
" />
<path d="M25391 35658
L24343 35658
" />
<path d="M24343 35658
L24343 36752
" />
<path d="M23843 36752
L23296 36752
" />
<path d="M23296 36752
L23296 36205
" />
<path d="M24343 38004
L25391 38004
" />
<path d="M25391 38004
L25391 36910
" />
<path d="M25391 36910
L24343 36910
" />
<path d="M24343 36910
L24343 38004
" />
<path d="M23843 38004
L23296 38004
" />
<path d="M23296 38004
L23296 37457
" />
<path d="M44483 46408
L44483 44991
" />
<path d="M42731.9 45699.8 A1023.62 1023.62 0.0 0 0 44479.4 46423.6 " />
<path d="M44479.4 44976 A1023.62 1023.62 0.0 0 0 42731.9 45699.8 " />
</g> 
</svg>
