<?xml version="1.0" standalone="no"?>
 <!DOCTYPE svg PUBLIC "-//W3C//DTD SVG 1.1//EN" 
 "http://www.w3.org/Graphics/SVG/1.1/DTD/svg11.dtd"> 
<svg xmlns="http://www.w3.org/2000/svg" version="1.1" 
    width="13.8532cm" height="12.1793cm" viewBox="0 0 54540 47950 ">
<title>SVG Picture created as np08-F.CrtYd.svg date 2017/09/02 14:27:28 </title>
  <desc>Picture generated by PCBNEW </desc>
<g style="fill:#000000; fill-opacity:1;stroke:#000000; stroke-opacity:1;
stroke-linecap:round; stroke-linejoin:round; "
 transform="translate(0 0) scale(1 1)">
</g>
<g style="fill:#000000; fill-opacity:0.0; 
stroke:#000000; stroke-width:-0.000393701; stroke-opacity:1; 
stroke-linecap:round; stroke-linejoin:round;">
</g>
<g style="fill:#000000; fill-opacity:0.0; 
stroke:#000000; stroke-width:19.685; stroke-opacity:1; 
stroke-linecap:round; stroke-linejoin:round;">
<circle cx="21394.9" cy="38299.8" r="1082.68" /> 
<circle cx="52497.3" cy="38299.8" r="1082.68" /> 
<circle cx="52497.3" cy="12709.2" r="1082.68" /> 
<path d="M19502 40728
L26411 40728
" />
<path d="M26411 40728
L26411 46732
" />
<path d="M26411 46732
L19502 46732
" />
<path d="M19502 46732
L19502 40728
" />
<path d="M38418 34634
L46646 34634
" />
<path d="M46646 34634
L46646 30461
" />
<path d="M46646 30461
L38418 30461
" />
<path d="M38418 30461
L38418 34634
" />
<path d="M28946 46276
L28946 43047
" />
<path d="M28946 43047
L27686 43047
" />
<path d="M27686 43047
L27686 46276
" />
<path d="M27686 46276
L28946 46276
" />
<path d="M51080 37166
L51080 33032
" />
<path d="M51080 37166
L54230 37166
" />
<path d="M54230 33032
L51080 33032
" />
<path d="M54230 33032
L54230 37166
" />
<path d="M23577 14285
L26333 14285
" />
<path d="M26333 14285
L26333 11529
" />
<path d="M26333 11529
L23577 11529
" />
<path d="M23577 11529
L23577 14285
" />
<path d="M28654 30362
L29757 30362
" />
<path d="M29757 30362
L29757 28551
" />
<path d="M29757 28551
L28654 28551
" />
<path d="M28654 28551
L28654 30362
" />
<path d="M20650 30122
L20650 31224
" />
<path d="M20650 31224
L22461 31224
" />
<path d="M22461 31224
L22461 30122
" />
<path d="M22461 30122
L20650 30122
" />
<path d="M20650 32134
L20650 33236
" />
<path d="M20650 33236
L22461 33236
" />
<path d="M22461 33236
L22461 32134
" />
<path d="M22461 32134
L20650 32134
" />
<path d="M25158 39386
L25158 38284
" />
<path d="M25158 38284
L23347 38284
" />
<path d="M23347 38284
L23347 39386
" />
<path d="M23347 39386
L25158 39386
" />
<path d="M43884 37345
L41128 37345
" />
<path d="M41128 37345
L41128 40101
" />
<path d="M41128 40101
L43884 40101
" />
<path d="M43884 40101
L43884 37345
" />
<path d="M47375 44221
L47375 46977
" />
<path d="M47375 46977
L50131 46977
" />
<path d="M50131 46977
L50131 44221
" />
<path d="M50131 44221
L47375 44221
" />
<path d="M41128 43701
L43884 43701
" />
<path d="M43884 43701
L43884 40945
" />
<path d="M43884 40945
L41128 40945
" />
<path d="M41128 40945
L41128 43701
" />
<path d="M50677 46969
L53433 46969
" />
<path d="M53433 46969
L53433 44213
" />
<path d="M53433 44213
L50677 44213
" />
<path d="M50677 44213
L50677 46969
" />
<path d="M45204 46897
L46306 46897
" />
<path d="M46306 46897
L46306 45086
" />
<path d="M46306 45086
L45204 45086
" />
<path d="M45204 45086
L45204 46897
" />
<path d="M44055 41529
L45157 41529
" />
<path d="M45157 41529
L45157 39718
" />
<path d="M45157 39718
L44055 39718
" />
<path d="M44055 39718
L44055 41529
" />
<path d="M41542 31948
L41542 33050
" />
<path d="M41542 33050
L43353 33050
" />
<path d="M43353 33050
L43353 31948
" />
<path d="M43353 31948
L41542 31948
" />
<path d="M26776 14087
L29335 14087
" />
<path d="M29335 14087
L29335 11547
" />
<path d="M29335 11547
L26776 11547
" />
<path d="M26776 11547
L26776 14087
" />
<path d="M40321 37850
L38589 37850
" />
<path d="M38589 37850
L38589 44149
" />
<path d="M38589 44149
L40321 44149
" />
<path d="M40321 44149
L40321 37850
" />
<path d="M47833 14083
L50392 14083
" />
<path d="M50392 14083
L50392 11543
" />
<path d="M50392 11543
L47833 11543
" />
<path d="M47833 11543
L47833 14083
" />
<path d="M45233 14083
L47792 14083
" />
<path d="M47792 14083
L47792 11543
" />
<path d="M47792 11543
L45233 11543
" />
<path d="M45233 11543
L45233 14083
" />
<path d="M42633 14083
L45192 14083
" />
<path d="M45192 14083
L45192 11543
" />
<path d="M45192 11543
L42633 11543
" />
<path d="M42633 11543
L42633 14083
" />
<path d="M40033 14083
L42592 14083
" />
<path d="M42592 14083
L42592 11543
" />
<path d="M42592 11543
L40033 11543
" />
<path d="M40033 11543
L40033 14083
" />
<path d="M37433 14083
L39992 14083
" />
<path d="M39992 14083
L39992 11543
" />
<path d="M39992 11543
L37433 11543
" />
<path d="M37433 11543
L37433 14083
" />
<path d="M34833 14083
L37392 14083
" />
<path d="M37392 14083
L37392 11543
" />
<path d="M37392 11543
L34833 11543
" />
<path d="M34833 11543
L34833 14083
" />
<path d="M32233 14083
L34792 14083
" />
<path d="M34792 14083
L34792 11543
" />
<path d="M34792 11543
L32233 11543
" />
<path d="M32233 11543
L32233 14083
" />
<path d="M29633 14083
L32192 14083
" />
<path d="M32192 14083
L32192 11543
" />
<path d="M32192 11543
L29633 11543
" />
<path d="M29633 11543
L29633 14083
" />
<path d="M33564 42130
L36792 42130
" />
<path d="M36792 42130
L36792 40870
" />
<path d="M36792 40870
L33564 40870
" />
<path d="M33564 40870
L33564 42130
" />
<path d="M33564 40870
L36792 40870
" />
<path d="M36792 40870
L36792 39610
" />
<path d="M36792 39610
L33564 39610
" />
<path d="M33564 39610
L33564 40870
" />
<path d="M33564 39606
L36792 39606
" />
<path d="M36792 39606
L36792 38347
" />
<path d="M36792 38347
L33564 38347
" />
<path d="M33564 38347
L33564 39606
" />
<path d="M31257 46224
L31257 42996
" />
<path d="M31257 42996
L29997 42996
" />
<path d="M29997 42996
L29997 46224
" />
<path d="M29997 46224
L31257 46224
" />
<path d="M33564 38350
L36792 38350
" />
<path d="M36792 38350
L36792 37091
" />
<path d="M36792 37091
L33564 37091
" />
<path d="M33564 37091
L33564 38350
" />
<path d="M33564 37091
L36792 37091
" />
<path d="M36792 37091
L36792 35831
" />
<path d="M36792 35831
L33564 35831
" />
<path d="M33564 35831
L33564 37091
" />
<path d="M33564 35831
L36792 35831
" />
<path d="M36792 35831
L36792 34571
" />
<path d="M36792 34571
L33564 34571
" />
<path d="M33564 34571
L33564 35831
" />
<path d="M24532 28563
L24532 20335
" />
<path d="M24532 20335
L23272 20335
" />
<path d="M23272 20335
L23272 28563
" />
<path d="M23272 28563
L24532 28563
" />
<path d="M21973 28563
L21973 20335
" />
<path d="M21973 20335
L20713 20335
" />
<path d="M20713 20335
L20713 28563
" />
<path d="M20713 28563
L21973 28563
" />
<path d="M34824 34567
L34824 30315
" />
<path d="M34824 30315
L33564 30315
" />
<path d="M33564 30315
L33564 34567
" />
<path d="M33564 34567
L34824 34567
" />
<path d="M23253 28563
L23253 20335
" />
<path d="M23253 20335
L21993 20335
" />
<path d="M21993 20335
L21993 28563
" />
<path d="M21993 28563
L23253 28563
" />
<path d="M41585 45069
L38357 45069
" />
<path d="M38357 45069
L38357 46329
" />
<path d="M38357 46329
L41585 46329
" />
<path d="M41585 46329
L41585 45069
" />
<path d="M37922 46674
L33788 46674
" />
<path d="M37922 46674
L37922 43524
" />
<path d="M33788 43524
L33788 46674
" />
<path d="M33788 43524
L37922 43524
" />
<path d="M51080 32966
L51080 28832
" />
<path d="M51080 32966
L54230 32966
" />
<path d="M54230 28832
L51080 28832
" />
<path d="M54230 28832
L54230 32966
" />
<path d="M34820 28595
L34820 20366
" />
<path d="M34820 20366
L33560 20366
" />
<path d="M33560 20366
L33560 28595
" />
<path d="M33560 28595
L34820 28595
" />
<path d="M40056 20347
L40056 28575
" />
<path d="M40056 28575
L41316 28575
" />
<path d="M41316 28575
L41316 20347
" />
<path d="M41316 20347
L40056 20347
" />
<path d="M32111 18335
L32111 16642
" />
<path d="M32111 16642
L25969 16642
" />
<path d="M25969 16642
L25969 18335
" />
<path d="M25969 18335
L32111 18335
" />
<path d="M32115 20012
L32115 18319
" />
<path d="M32115 18319
L25973 18319
" />
<path d="M25973 18319
L25973 20012
" />
<path d="M25973 20012
L32115 20012
" />
<path d="M50226 18246
L50226 16553
" />
<path d="M50226 16553
L44084 16553
" />
<path d="M44084 16553
L44084 18246
" />
<path d="M44084 18246
L50226 18246
" />
<path d="M50126 21646
L50126 19953
" />
<path d="M50126 19953
L43984 19953
" />
<path d="M43984 19953
L43984 21646
" />
<path d="M43984 21646
L50126 21646
" />
<path d="M50126 25046
L50126 23353
" />
<path d="M50126 23353
L43984 23353
" />
<path d="M43984 23353
L43984 25046
" />
<path d="M43984 25046
L50126 25046
" />
<path d="M50126 28446
L50126 26753
" />
<path d="M50126 26753
L43984 26753
" />
<path d="M43984 26753
L43984 28446
" />
<path d="M43984 28446
L50126 28446
" />
<path d="M50126 19946
L50126 18253
" />
<path d="M50126 18253
L43984 18253
" />
<path d="M43984 18253
L43984 19946
" />
<path d="M43984 19946
L50126 19946
" />
<path d="M50126 23346
L50126 21653
" />
<path d="M50126 21653
L43984 21653
" />
<path d="M43984 21653
L43984 23346
" />
<path d="M43984 23346
L50126 23346
" />
<path d="M50126 26746
L50126 25053
" />
<path d="M50126 25053
L43984 25053
" />
<path d="M43984 25053
L43984 26746
" />
<path d="M43984 26746
L50126 26746
" />
<path d="M50918 30146
L50918 28453
" />
<path d="M50918 28453
L44776 28453
" />
<path d="M44776 28453
L44776 30146
" />
<path d="M44776 30146
L50918 30146
" />
<path d="M20733 18823
L20733 18921
" />
<path d="M20733 18921
L20831 18921
" />
<path d="M23686 18823
L23686 18921
" />
<path d="M23686 18921
L23587 18921
" />
<path d="M23587 15181
L23686 15181
" />
<path d="M23686 15181
L23686 15280
" />
<path d="M20831 15181
L20733 15181
" />
<path d="M20733 15181
L20733 15280
" />
<path d="M23686 15280
L23686 18823
" />
<path d="M20831 15181
L23587 15181
" />
<path d="M20733 18823
L20733 15280
" />
<path d="M23587 18921
L20831 18921
" />
<path d="M25922 20307
L25922 40543
" />
<path d="M25922 40543
L33087 40543
" />
<path d="M33087 40543
L33087 20307
" />
<path d="M33087 20307
L25922 20307
" />
<path d="M54256 39532
L46043 39532
" />
<path d="M46043 39532
L46043 43666
" />
<path d="M46043 43666
L54256 43666
" />
<path d="M54256 43666
L54256 39532
" />
<path d="M35371 20347
L35371 29598
" />
<path d="M35371 29598
L39544 29598
" />
<path d="M39544 29598
L39544 20347
" />
<path d="M39544 20347
L35371 20347
" />
<path d="M25387 29343
L23182 29343
" />
<path d="M23182 29343
L23182 34106
" />
<path d="M23182 34106
L25387 34106
" />
<path d="M25387 34106
L25387 29343
" />
<path d="M23221 35571
L25465 35571
" />
<path d="M25465 35571
L25465 34311
" />
<path d="M25465 34311
L23221 34311
" />
<path d="M23221 34311
L23221 35571
" />
<path d="M23213 36835
L25457 36835
" />
<path d="M25457 36835
L25457 35575
" />
<path d="M25457 35575
L23213 35575
" />
<path d="M23213 35575
L23213 36835
" />
<path d="M23213 38087
L25457 38087
" />
<path d="M25457 38087
L25457 36827
" />
<path d="M25457 36827
L23213 36827
" />
<path d="M23213 36827
L23213 38087
" />
<path d="M42613 46849
L42613 44565
" />
<path d="M42613 44565
L44621 44565
" />
<path d="M44621 44565
L44621 46849
" />
<path d="M44621 46849
L42613 46849
" />
<circle cx="21394.9" cy="12709.2" r="1082.68" /> 
</g> 
</svg>
