<?xml version="1.0" standalone="no"?>
<!DOCTYPE svg PUBLIC "-//W3C//DTD SVG 1.1//EN" 
"http://www.w3.org/Graphics/SVG/1.1/DTD/svg11.dtd"> 
<svg
  xmlns="http://www.w3.org/2000/svg"
  version="1.1"
  width="11.7in" height="8.267in" viewBox="0 0 117000 82670 "
>
  <title>SVG Picture created as pinguicaro-Eco2.svg </title>
  <desc>Picture generated by wxSVG v0101 </desc>
  <g style="fill:black; stroke:black; stroke-width:1">
</g>
<g style="fill:#000000; fill-opacity:0.0; 
  stroke:#000000; stroke-linecap:round; stroke-linejoin:round; stroke-opacity:1.0; stroke-opacity:1.0; stroke-width:0" 
   transform="translate(0 0) scale(1 1)">
<path d="M66287 25700 L66291 25700" /> 
<path d="M66289 25698 L66289 25702" /> 
</g>
<g style="fill:#000000; fill-opacity:0.0; 
  stroke:#000000; stroke-linecap:round; stroke-linejoin:round; stroke-opacity:1.0; stroke-opacity:1.0; stroke-width:120" 
   transform="translate(0 0) scale(1 1)">
<path d="M65965 23272 L65965 23387" /> 
<path d="M65965 23387 L66003 23444" /> 
<path d="M66003 23444 L66041 23472" /> 
<path d="M66041 23472 L66156 23530" /> 
<path d="M66156 23530 L66308 23558" /> 
<path d="M66308 23558 L66613 23558" /> 
<path d="M66613 23558 L66689 23530" /> 
<path d="M66689 23530 L66727 23501" /> 
<path d="M66727 23501 L66765 23444" /> 
<path d="M66765 23444 L66765 23330" /> 
<path d="M66765 23330 L66727 23272" /> 
<path d="M66727 23272 L66689 23244" /> 
<path d="M66689 23244 L66613 23215" /> 
<path d="M66613 23215 L66422 23215" /> 
<path d="M66422 23215 L66346 23244" /> 
<path d="M66346 23244 L66308 23272" /> 
<path d="M66308 23272 L66270 23330" /> 
<path d="M66270 23330 L66270 23444" /> 
<path d="M66270 23444 L66308 23501" /> 
<path d="M66308 23501 L66346 23530" /> 
<path d="M66346 23530 L66422 23558" /> 
<g style = "stroke-linecap:round;" > 
<path d="M66422 23558 L66422 23558" /> 
</g><path d="M65965 24129 L65965 23786" /> 
<g style = "stroke-linecap:round;" > 
<path d="M65965 23786 L65965 23786" /> 
</g><path d="M65965 23958 L66765 23958" /> 
<path d="M66765 23958 L66651 23901" /> 
<path d="M66651 23901 L66575 23843" /> 
<path d="M66575 23843 L66537 23786" /> 
<g style = "stroke-linecap:round;" > 
<path d="M66537 23786 L66537 23786" /> 
</g><path d="M66003 24414 L65965 24414" /> 
<path d="M65965 24414 L65889 24386" /> 
<path d="M65889 24386 L65851 24357" /> 
<g style = "stroke-linecap:round;" > 
<path d="M65851 24357 L65851 24357" /> 
</g><path d="M66499 24929 L65965 24929" /> 
<g style = "stroke-linecap:round;" > 
<path d="M65965 24929 L65965 24929" /> 
</g><path d="M66803 24786 L66232 24643" /> 
<path d="M66232 24643 L66232 25015" /> 
<g style = "stroke-linecap:round;" > 
<path d="M66232 25015 L66232 25015" /> 
</g><path d="M66499 25500 L65965 25500" /> 
<g style = "stroke-linecap:round;" > 
<path d="M65965 25500 L65965 25500" /> 
</g><path d="M66803 25357 L66232 25214" /> 
<path d="M66232 25214 L66232 25586" /> 
<g style = "stroke-linecap:round;" > 
<path d="M66232 25586 L66232 25586" /> 
</g><path d="M66765 25928 L66765 25985" /> 
<path d="M66765 25985 L66727 26042" /> 
<path d="M66727 26042 L66689 26071" /> 
<path d="M66689 26071 L66613 26100" /> 
<path d="M66613 26100 L66460 26128" /> 
<path d="M66460 26128 L66270 26128" /> 
<path d="M66270 26128 L66118 26100" /> 
<path d="M66118 26100 L66041 26071" /> 
<path d="M66041 26071 L66003 26042" /> 
<path d="M66003 26042 L65965 25985" /> 
<path d="M65965 25985 L65965 25928" /> 
<path d="M65965 25928 L66003 25871" /> 
<path d="M66003 25871 L66041 25842" /> 
<path d="M66041 25842 L66118 25814" /> 
<path d="M66118 25814 L66270 25785" /> 
<path d="M66270 25785 L66460 25785" /> 
<path d="M66460 25785 L66613 25814" /> 
<path d="M66613 25814 L66689 25842" /> 
<path d="M66689 25842 L66727 25871" /> 
<path d="M66727 25871 L66765 25928" /> 
<path d="M65965 26842 L66499 26842" /> 
<g style = "stroke-linecap:round;" > 
<path d="M66499 26842 L66499 26842" /> 
</g><path d="M66422 26842 L66460 26870" /> 
<path d="M66460 26870 L66499 26928" /> 
<path d="M66499 26928 L66499 27013" /> 
<path d="M66499 27013 L66460 27070" /> 
<path d="M66460 27070 L66384 27099" /> 
<path d="M66384 27099 L65965 27099" /> 
<g style = "stroke-linecap:round;" > 
<path d="M65965 27099 L65965 27099" /> 
</g><path d="M66384 27099 L66460 27128" /> 
<path d="M66460 27128 L66499 27185" /> 
<path d="M66499 27185 L66499 27270" /> 
<path d="M66499 27270 L66460 27328" /> 
<path d="M66460 27328 L66384 27356" /> 
<path d="M66384 27356 L65965 27356" /> 
<g style = "stroke-linecap:round;" > 
<path d="M65965 27356 L65965 27356" /> 
</g><path d="M65965 27642 L66499 27642" /> 
<g style = "stroke-linecap:round;" > 
<path d="M66499 27642 L66499 27642" /> 
</g><path d="M66422 27642 L66460 27670" /> 
<path d="M66460 27670 L66499 27728" /> 
<path d="M66499 27728 L66499 27813" /> 
<path d="M66499 27813 L66460 27870" /> 
<path d="M66460 27870 L66384 27899" /> 
<path d="M66384 27899 L65965 27899" /> 
<g style = "stroke-linecap:round;" > 
<path d="M65965 27899 L65965 27899" /> 
</g><path d="M66384 27899 L66460 27928" /> 
<path d="M66460 27928 L66499 27985" /> 
<path d="M66499 27985 L66499 28070" /> 
<path d="M66499 28070 L66460 28128" /> 
<path d="M66460 28128 L66384 28156" /> 
<path d="M66384 28156 L65965 28156" /> 
<g style = "stroke-linecap:round;" > 
<path d="M65965 28156 L65965 28156" /> 
</g><path d="M65649 7700 L65649 43700" /> 
<path d="M62150 7700 L66929 7700" /> 
<path d="M62150 43700 L66929 43700" /> 
<path d="M65649 43700 L65419 43257" /> 
<path d="M65649 43700 L65879 43257" /> 
<path d="M65649 7700 L65419 8143" /> 
<path d="M65649 7700 L65879 8143" /> 
</g>
<g style="fill:#000000; fill-opacity:0.0; 
  stroke:#000000; stroke-linecap:round; stroke-linejoin:round; stroke-opacity:1.0; stroke-opacity:1.0; stroke-width:0" 
   transform="translate(0 0) scale(1 1)">
<path d="M44273 5311 L44277 5311" /> 
<path d="M44275 5309 L44275 5313" /> 
</g>
<g style="fill:#000000; fill-opacity:0.0; 
  stroke:#000000; stroke-linecap:round; stroke-linejoin:round; stroke-opacity:1.0; stroke-opacity:1.0; stroke-width:120" 
   transform="translate(0 0) scale(1 1)">
<path d="M41905 5178 L41847 5140" /> 
<path d="M41847 5140 L41819 5101" /> 
<path d="M41819 5101 L41790 5025" /> 
<path d="M41790 5025 L41790 4987" /> 
<path d="M41790 4987 L41819 4911" /> 
<path d="M41819 4911 L41847 4873" /> 
<path d="M41847 4873 L41905 4835" /> 
<path d="M41905 4835 L42019 4835" /> 
<path d="M42019 4835 L42076 4873" /> 
<path d="M42076 4873 L42105 4911" /> 
<path d="M42105 4911 L42133 4987" /> 
<path d="M42133 4987 L42133 5025" /> 
<path d="M42133 5025 L42105 5101" /> 
<path d="M42105 5101 L42076 5140" /> 
<path d="M42076 5140 L42019 5178" /> 
<path d="M42019 5178 L41905 5178" /> 
<path d="M41905 5178 L41847 5216" /> 
<path d="M41847 5216 L41819 5254" /> 
<path d="M41819 5254 L41790 5330" /> 
<path d="M41790 5330 L41790 5482" /> 
<path d="M41790 5482 L41819 5559" /> 
<path d="M41819 5559 L41847 5597" /> 
<path d="M41847 5597 L41905 5635" /> 
<path d="M41905 5635 L42019 5635" /> 
<path d="M42019 5635 L42076 5597" /> 
<path d="M42076 5597 L42105 5559" /> 
<path d="M42105 5559 L42133 5482" /> 
<path d="M42133 5482 L42133 5330" /> 
<path d="M42133 5330 L42105 5254" /> 
<path d="M42105 5254 L42076 5216" /> 
<path d="M42076 5216 L42019 5178" /> 
<g style = "stroke-linecap:round;" > 
<path d="M42019 5178 L42019 5178" /> 
</g><path d="M42476 5178 L42418 5140" /> 
<path d="M42418 5140 L42390 5101" /> 
<path d="M42390 5101 L42361 5025" /> 
<path d="M42361 5025 L42361 4987" /> 
<path d="M42361 4987 L42390 4911" /> 
<path d="M42390 4911 L42418 4873" /> 
<path d="M42418 4873 L42476 4835" /> 
<path d="M42476 4835 L42590 4835" /> 
<path d="M42590 4835 L42647 4873" /> 
<path d="M42647 4873 L42676 4911" /> 
<path d="M42676 4911 L42704 4987" /> 
<path d="M42704 4987 L42704 5025" /> 
<path d="M42704 5025 L42676 5101" /> 
<path d="M42676 5101 L42647 5140" /> 
<path d="M42647 5140 L42590 5178" /> 
<path d="M42590 5178 L42476 5178" /> 
<path d="M42476 5178 L42418 5216" /> 
<path d="M42418 5216 L42390 5254" /> 
<path d="M42390 5254 L42361 5330" /> 
<path d="M42361 5330 L42361 5482" /> 
<path d="M42361 5482 L42390 5559" /> 
<path d="M42390 5559 L42418 5597" /> 
<path d="M42418 5597 L42476 5635" /> 
<path d="M42476 5635 L42590 5635" /> 
<path d="M42590 5635 L42647 5597" /> 
<path d="M42647 5597 L42676 5559" /> 
<path d="M42676 5559 L42704 5482" /> 
<path d="M42704 5482 L42704 5330" /> 
<path d="M42704 5330 L42676 5254" /> 
<path d="M42676 5254 L42647 5216" /> 
<path d="M42647 5216 L42590 5178" /> 
<g style = "stroke-linecap:round;" > 
<path d="M42590 5178 L42590 5178" /> 
</g><path d="M42989 5597 L42989 5635" /> 
<path d="M42989 5635 L42961 5711" /> 
<path d="M42961 5711 L42932 5749" /> 
<g style = "stroke-linecap:round;" > 
<path d="M42932 5749 L42932 5749" /> 
</g><path d="M43218 4911 L43247 4873" /> 
<path d="M43247 4873 L43304 4835" /> 
<path d="M43304 4835 L43447 4835" /> 
<path d="M43447 4835 L43504 4873" /> 
<path d="M43504 4873 L43533 4911" /> 
<path d="M43533 4911 L43561 4987" /> 
<path d="M43561 4987 L43561 5063" /> 
<path d="M43561 5063 L43533 5178" /> 
<path d="M43533 5178 L43190 5635" /> 
<path d="M43190 5635 L43561 5635" /> 
<g style = "stroke-linecap:round;" > 
<path d="M43561 5635 L43561 5635" /> 
</g><path d="M44075 4835 L43961 4835" /> 
<path d="M43961 4835 L43904 4873" /> 
<path d="M43904 4873 L43875 4911" /> 
<path d="M43875 4911 L43818 5025" /> 
<path d="M43818 5025 L43789 5178" /> 
<path d="M43789 5178 L43789 5482" /> 
<path d="M43789 5482 L43818 5559" /> 
<path d="M43818 5559 L43846 5597" /> 
<path d="M43846 5597 L43904 5635" /> 
<path d="M43904 5635 L44018 5635" /> 
<path d="M44018 5635 L44075 5597" /> 
<path d="M44075 5597 L44104 5559" /> 
<path d="M44104 5559 L44132 5482" /> 
<path d="M44132 5482 L44132 5292" /> 
<path d="M44132 5292 L44104 5216" /> 
<path d="M44104 5216 L44075 5178" /> 
<path d="M44075 5178 L44018 5140" /> 
<path d="M44018 5140 L43904 5140" /> 
<path d="M43904 5140 L43846 5178" /> 
<path d="M43846 5178 L43818 5216" /> 
<path d="M43818 5216 L43789 5292" /> 
<g style = "stroke-linecap:round;" > 
<path d="M43789 5292 L43789 5292" /> 
</g><path d="M44675 4835 L44389 4835" /> 
<path d="M44389 4835 L44360 5216" /> 
<path d="M44360 5216 L44389 5178" /> 
<path d="M44389 5178 L44446 5140" /> 
<path d="M44446 5140 L44589 5140" /> 
<path d="M44589 5140 L44646 5178" /> 
<path d="M44646 5178 L44675 5216" /> 
<path d="M44675 5216 L44703 5292" /> 
<path d="M44703 5292 L44703 5482" /> 
<path d="M44703 5482 L44675 5559" /> 
<path d="M44675 5559 L44646 5597" /> 
<path d="M44646 5597 L44589 5635" /> 
<path d="M44589 5635 L44446 5635" /> 
<path d="M44446 5635 L44389 5597" /> 
<path d="M44389 5597 L44360 5559" /> 
<g style = "stroke-linecap:round;" > 
<path d="M44360 5559 L44360 5559" /> 
</g><path d="M45417 5635 L45417 5101" /> 
<g style = "stroke-linecap:round;" > 
<path d="M45417 5101 L45417 5101" /> 
</g><path d="M45417 5178 L45445 5140" /> 
<path d="M45445 5140 L45503 5101" /> 
<path d="M45503 5101 L45588 5101" /> 
<path d="M45588 5101 L45645 5140" /> 
<path d="M45645 5140 L45674 5216" /> 
<path d="M45674 5216 L45674 5635" /> 
<g style = "stroke-linecap:round;" > 
<path d="M45674 5635 L45674 5635" /> 
</g><path d="M45674 5216 L45703 5140" /> 
<path d="M45703 5140 L45760 5101" /> 
<path d="M45760 5101 L45845 5101" /> 
<path d="M45845 5101 L45903 5140" /> 
<path d="M45903 5140 L45931 5216" /> 
<path d="M45931 5216 L45931 5635" /> 
<g style = "stroke-linecap:round;" > 
<path d="M45931 5635 L45931 5635" /> 
</g><path d="M46217 5635 L46217 5101" /> 
<g style = "stroke-linecap:round;" > 
<path d="M46217 5101 L46217 5101" /> 
</g><path d="M46217 5178 L46245 5140" /> 
<path d="M46245 5140 L46303 5101" /> 
<path d="M46303 5101 L46388 5101" /> 
<path d="M46388 5101 L46445 5140" /> 
<path d="M46445 5140 L46474 5216" /> 
<path d="M46474 5216 L46474 5635" /> 
<g style = "stroke-linecap:round;" > 
<path d="M46474 5635 L46474 5635" /> 
</g><path d="M46474 5216 L46503 5140" /> 
<path d="M46503 5140 L46560 5101" /> 
<path d="M46560 5101 L46645 5101" /> 
<path d="M46645 5101 L46703 5140" /> 
<path d="M46703 5140 L46731 5216" /> 
<path d="M46731 5216 L46731 5635" /> 
<g style = "stroke-linecap:round;" > 
<path d="M46731 5635 L46731 5635" /> 
</g><path d="M26900 5951 L61650 5951" /> 
<path d="M26900 7450 L26900 4671" /> 
<path d="M61650 7450 L61650 4671" /> 
<path d="M61650 5951 L61207 6181" /> 
<path d="M61650 5951 L61207 5721" /> 
<path d="M26900 5951 L27343 6181" /> 
<path d="M26900 5951 L27343 5721" /> 
</g> 
</svg> 
