<?xml version="1.0" standalone="no"?>
 <!DOCTYPE svg PUBLIC "-//W3C//DTD SVG 1.1//EN" 
 "http://www.w3.org/Graphics/SVG/1.1/DTD/svg11.dtd"> 
<svg xmlns="http://www.w3.org/2000/svg" version="1.1" 
    width="11.397cm" height="9.80694cm" viewBox="0 0 44870 38610 ">
<title>SVG Picture created as pinguicaro-Dwgs_User.svg date 2014/10/07 09:39:42 </title>
  <desc>Picture generated by PCBNEW </desc>
<g style="fill:#000000; fill-opacity:1;stroke:#000000; stroke-opacity:1;
stroke-linecap:round; stroke-linejoin:round; "
 transform="translate(0 0) scale(1 1)">
</g>
<g style="fill:#000000; fill-opacity:0.0; 
stroke:#000000; stroke-width:120; stroke-opacity:1; 
stroke-linecap:round; stroke-linejoin:round;">
<path d="M15400 37703
L15400 36903
" />
<path d="M15657 37703
L15657 37284
L15628 37208
L15571 37170
L15485 37170
L15428 37208
L15400 37246
" />
<path d="M15857 37170
L16085 37170
" />
<path d="M15942 36903
L15942 37589
L15971 37665
L16028 37703
L16085 37703
" />
<path d="M16200 37170
L16428 37170
" />
<path d="M16285 36903
L16285 37589
L16314 37665
L16371 37703
L16428 37703
" />
<path d="M16628 37170
L16628 37970
" />
<path d="M16628 37208
L16685 37170
L16800 37170
L16857 37208
L16885 37246
L16914 37322
L16914 37551
L16885 37627
L16857 37665
L16800 37703
L16685 37703
L16628 37665
" />
<path d="M17171 37627
L17200 37665
L17171 37703
L17142 37665
L17171 37627
L17171 37703
" />
<path d="M17171 37208
L17200 37246
L17171 37284
L17142 37246
L17171 37208
L17171 37284
" />
<path d="M17885 36865
L17371 37894
" />
<path d="M18514 36865
L18000 37894
" />
<path d="M18685 37665
L18742 37703
L18857 37703
L18914 37665
L18942 37589
L18942 37551
L18914 37475
L18857 37437
L18771 37437
L18714 37399
L18685 37322
L18685 37284
L18714 37208
L18771 37170
L18857 37170
L18914 37208
" />
<path d="M19200 37703
L19200 37170
" />
<path d="M19200 36903
L19171 36941
L19200 36979
L19228 36941
L19200 36903
L19200 36979
" />
<path d="M19457 37665
L19514 37703
L19628 37703
L19685 37665
L19714 37589
L19714 37551
L19685 37475
L19628 37437
L19542 37437
L19485 37399
L19457 37322
L19457 37284
L19485 37208
L19542 37170
L19628 37170
L19685 37208
" />
<path d="M19885 37170
L20114 37170
" />
<path d="M19971 36903
L19971 37589
L20000 37665
L20057 37703
L20114 37703
" />
<path d="M20542 37665
L20485 37703
L20371 37703
L20314 37665
L20285 37589
L20285 37284
L20314 37208
L20371 37170
L20485 37170
L20542 37208
L20571 37284
L20571 37360
L20285 37437
" />
<path d="M20828 37703
L20828 37170
" />
<path d="M20828 37246
L20857 37208
L20914 37170
L21000 37170
L21057 37208
L21085 37284
L21085 37703
" />
<path d="M21085 37284
L21114 37208
L21171 37170
L21257 37170
L21314 37208
L21342 37284
L21342 37703
" />
<path d="M21885 37703
L21885 37284
L21857 37208
L21800 37170
L21685 37170
L21628 37208
" />
<path d="M21885 37665
L21828 37703
L21685 37703
L21628 37665
L21600 37589
L21600 37513
L21628 37437
L21685 37399
L21828 37399
L21885 37360
" />
<path d="M22171 37399
L22628 37399
" />
<path d="M22914 37703
L22914 37170
" />
<path d="M22914 36903
L22885 36941
L22914 36979
L22942 36941
L22914 36903
L22914 36979
" />
<path d="M23457 37665
L23399 37703
L23285 37703
L23228 37665
L23199 37627
L23171 37551
L23171 37322
L23199 37246
L23228 37208
L23285 37170
L23399 37170
L23457 37208
" />
<path d="M23971 37703
L23971 37284
L23942 37208
L23885 37170
L23771 37170
L23714 37208
" />
<path d="M23971 37665
L23914 37703
L23771 37703
L23714 37665
L23685 37589
L23685 37513
L23714 37437
L23771 37399
L23914 37399
L23971 37360
" />
<path d="M24257 37703
L24257 37170
" />
<path d="M24257 37322
L24285 37246
L24314 37208
L24371 37170
L24428 37170
" />
<path d="M24714 37703
L24657 37665
L24628 37627
L24600 37551
L24600 37322
L24628 37246
L24657 37208
L24714 37170
L24800 37170
L24857 37208
L24885 37246
L24914 37322
L24914 37551
L24885 37627
L24857 37665
L24800 37703
L24714 37703
" />
<path d="M25171 37627
L25200 37665
L25171 37703
L25142 37665
L25171 37627
L25171 37703
" />
<path d="M25457 37703
L25457 36903
" />
<path d="M25457 37208
L25514 37170
L25628 37170
L25685 37208
L25714 37246
L25742 37322
L25742 37551
L25714 37627
L25685 37665
L25628 37703
L25514 37703
L25457 37665
" />
<path d="M26085 37703
L26028 37665
L25999 37589
L25999 36903
" />
<path d="M26399 37703
L26342 37665
L26314 37627
L26285 37551
L26285 37322
L26314 37246
L26342 37208
L26399 37170
L26485 37170
L26542 37208
L26571 37246
L26599 37322
L26599 37551
L26571 37627
L26542 37665
L26485 37703
L26399 37703
" />
<path d="M27114 37170
L27114 37818
L27085 37894
L27057 37932
L26999 37970
L26914 37970
L26857 37932
" />
<path d="M27114 37665
L27057 37703
L26942 37703
L26885 37665
L26857 37627
L26828 37551
L26828 37322
L26857 37246
L26885 37208
L26942 37170
L27057 37170
L27114 37208
" />
<path d="M27371 37665
L27428 37703
L27542 37703
L27599 37665
L27628 37589
L27628 37551
L27599 37475
L27542 37437
L27457 37437
L27399 37399
L27371 37322
L27371 37284
L27399 37208
L27457 37170
L27542 37170
L27599 37208
" />
<path d="M27885 37170
L27885 37970
" />
<path d="M27885 37208
L27942 37170
L28057 37170
L28114 37208
L28142 37246
L28171 37322
L28171 37551
L28142 37627
L28114 37665
L28057 37703
L27942 37703
L27885 37665
" />
<path d="M28514 37703
L28457 37665
L28428 37627
L28399 37551
L28399 37322
L28428 37246
L28457 37208
L28514 37170
L28599 37170
L28657 37208
L28685 37246
L28714 37322
L28714 37551
L28685 37627
L28657 37665
L28599 37703
L28514 37703
" />
<path d="M28885 37170
L29114 37170
" />
<path d="M28971 36903
L28971 37589
L28999 37665
L29057 37703
L29114 37703
" />
<path d="M29314 37627
L29342 37665
L29314 37703
L29285 37665
L29314 37627
L29314 37703
" />
<path d="M29857 37665
L29799 37703
L29685 37703
L29628 37665
L29599 37627
L29571 37551
L29571 37322
L29599 37246
L29628 37208
L29685 37170
L29799 37170
L29857 37208
" />
<path d="M30199 37703
L30142 37665
L30114 37627
L30085 37551
L30085 37322
L30114 37246
L30142 37208
L30199 37170
L30285 37170
L30342 37208
L30371 37246
L30399 37322
L30399 37551
L30371 37627
L30342 37665
L30285 37703
L30199 37703
" />
<path d="M30657 37703
L30657 37170
" />
<path d="M30657 37246
L30685 37208
L30742 37170
L30828 37170
L30885 37208
L30914 37284
L30914 37703
" />
<path d="M30914 37284
L30942 37208
L30999 37170
L31085 37170
L31142 37208
L31171 37284
L31171 37703
" />
<path d="M31457 37627
L31485 37665
L31457 37703
L31428 37665
L31457 37627
L31457 37703
" />
<path d="M31999 37703
L31999 37284
L31971 37208
L31914 37170
L31799 37170
L31742 37208
" />
<path d="M31999 37665
L31942 37703
L31799 37703
L31742 37665
L31714 37589
L31714 37513
L31742 37437
L31799 37399
L31942 37399
L31999 37360
" />
<path d="M32285 37703
L32285 37170
" />
<path d="M32285 37322
L32314 37246
L32342 37208
L32399 37170
L32457 37170
" />
<path d="M33085 36865
L32571 37894
" />
<path d="M4785 6770
L5014 6770
" />
<path d="M4871 7303
L4871 6618
L4900 6541
L4957 6503
L5014 6503
" />
<path d="M5442 7265
L5385 7303
L5271 7303
L5214 7265
L5185 7189
L5185 6884
L5214 6808
L5271 6770
L5385 6770
L5442 6808
L5471 6884
L5471 6960
L5185 7037
" />
<path d="M5985 7303
L5985 6503
" />
<path d="M5985 7265
L5928 7303
L5814 7303
L5757 7265
L5728 7227
L5700 7151
L5700 6922
L5728 6846
L5757 6808
L5814 6770
L5928 6770
L5985 6808
" />
<path d="M6357 7303
L6300 7265
L6271 7227
L6242 7151
L6242 6922
L6271 6846
L6300 6808
L6357 6770
L6442 6770
L6500 6808
L6528 6846
L6557 6922
L6557 7151
L6528 7227
L6500 7265
L6442 7303
L6357 7303
" />
<path d="M6814 7303
L6814 6770
" />
<path d="M6814 6922
L6842 6846
L6871 6808
L6928 6770
L6985 6770
" />
<path d="M7442 7303
L7442 6884
L7414 6808
L7357 6770
L7242 6770
L7185 6808
" />
<path d="M7442 7265
L7385 7303
L7242 7303
L7185 7265
L7157 7189
L7157 7113
L7185 7037
L7242 6999
L7385 6999
L7442 6960
" />
<path d="M7728 6770
L7728 7570
" />
<path d="M7728 6808
L7785 6770
L7900 6770
L7957 6808
L7985 6846
L8014 6922
L8014 7151
L7985 7227
L7957 7265
L7900 7303
L7785 7303
L7728 7265
" />
<path d="M8271 7303
L8271 6770
" />
<path d="M8271 6922
L8300 6846
L8328 6808
L8385 6770
L8442 6770
" />
<path d="M8728 7303
L8671 7265
L8642 7227
L8614 7151
L8614 6922
L8642 6846
L8671 6808
L8728 6770
L8814 6770
L8871 6808
L8900 6846
L8928 6922
L8928 7151
L8900 7227
L8871 7265
L8814 7303
L8728 7303
" />
<path d="M9185 6770
L9185 7456
L9157 7532
L9100 7570
L9071 7570
" />
<path d="M9185 6503
L9157 6541
L9185 6579
L9214 6541
L9185 6503
L9185 6579
" />
<path d="M9700 7265
L9642 7303
L9528 7303
L9471 7265
L9442 7189
L9442 6884
L9471 6808
L9528 6770
L9642 6770
L9700 6808
L9728 6884
L9728 6960
L9442 7037
" />
<path d="M10242 7265
L10185 7303
L10071 7303
L10014 7265
L9985 7227
L9957 7151
L9957 6922
L9985 6846
L10014 6808
L10071 6770
L10185 6770
L10242 6808
" />
<path d="M10414 6770
L10642 6770
" />
<path d="M10500 6503
L10500 7189
L10528 7265
L10585 7303
L10642 7303
" />
<path d="M10842 7227
L10871 7265
L10842 7303
L10814 7265
L10842 7227
L10842 7303
" />
<path d="M11214 7303
L11157 7265
L11128 7227
L11100 7151
L11100 6922
L11128 6846
L11157 6808
L11214 6770
L11300 6770
L11357 6808
L11385 6846
L11414 6922
L11414 7151
L11385 7227
L11357 7265
L11300 7303
L11214 7303
" />
<path d="M11671 7303
L11671 6770
" />
<path d="M11671 6922
L11700 6846
L11728 6808
L11785 6770
L11842 6770
" />
<path d="M12300 6770
L12300 7418
L12271 7494
L12242 7532
L12185 7570
L12100 7570
L12042 7532
" />
<path d="M12300 7265
L12242 7303
L12128 7303
L12071 7265
L12042 7227
L12014 7151
L12014 6922
L12042 6846
L12071 6808
L12128 6770
L12242 6770
L12300 6808
" />
<path d="M13014 6465
L12500 7494
" />
<path d="M13442 7265
L13385 7303
L13271 7303
L13214 7265
L13185 7189
L13185 6884
L13214 6808
L13271 6770
L13385 6770
L13442 6808
L13471 6884
L13471 6960
L13185 7037
" />
<path d="M13700 7265
L13757 7303
L13871 7303
L13928 7265
L13957 7189
L13957 7151
L13928 7075
L13871 7037
L13785 7037
L13728 6999
L13700 6922
L13700 6884
L13728 6808
L13785 6770
L13871 6770
L13928 6808
" />
<path d="M34819 16865
L34819 16408
" />
<path d="M35123 16637
L34514 16637
" />
<path d="M34819 14751
L34819 14294
" />
</g> 
</svg>
