<?xml version="1.0" standalone="no"?>
 <!DOCTYPE svg PUBLIC "-//W3C//DTD SVG 1.1//EN" 
 "http://www.w3.org/Graphics/SVG/1.1/DTD/svg11.dtd"> 
<svg xmlns="http://www.w3.org/2000/svg" version="1.1" 
    width="11.397cm" height="9.80694cm" viewBox="0 0 44870 38610 ">
<title>SVG Picture created as pinguicaro-Front.svg date 2014/10/07 09:39:42 </title>
  <desc>Picture generated by PCBNEW </desc>
<g style="fill:#000000; fill-opacity:1;stroke:#000000; stroke-opacity:1;
stroke-linecap:round; stroke-linejoin:round; "
 transform="translate(0 0) scale(1 1)">
</g>
<g style="fill:#000000; fill-opacity:0.0; 
stroke:#000000; stroke-width:39.3701; stroke-opacity:1; 
stroke-linecap:round; stroke-linejoin:round;">
</g>
<g style="fill:#000000; fill-opacity:1.0; 
stroke:#000000; stroke-width:39.3701; stroke-opacity:1; 
stroke-linecap:round; stroke-linejoin:round;">
<circle cx="28510" cy="25610" r="280.315" /> 
<circle cx="28510" cy="26610" r="280.315" /> 
<circle cx="29297" cy="26610" r="280.315" /> 
<circle cx="29297" cy="25610" r="280.315" /> 
<circle cx="30360" cy="23748" r="767.815" /> 
<circle cx="30360" cy="28472" r="767.815" /> 
<circle cx="4250" cy="33420" r="255.315" /> 
<circle cx="6250" cy="33420" r="255.315" /> 
<circle cx="4250" cy="36420" r="255.315" /> 
<circle cx="6250" cy="36420" r="255.315" /> 
<polyline style="fill-rule:evenodd;"
points="14155,15924
14155,16435
13644,16435
13644,15924
14155,15924
" /> 
<circle cx="12900" cy="16180" r="255.315" /> 
<circle cx="11900" cy="16180" r="255.315" /> 
<circle cx="10900" cy="16180" r="255.315" /> 
<circle cx="9900" cy="16180" r="255.315" /> 
<circle cx="8900" cy="16180" r="255.315" /> 
<circle cx="7900" cy="16180" r="255.315" /> 
<circle cx="6900" cy="16180" r="255.315" /> 
<polyline style="fill-rule:evenodd;"
points="7644,31555
7644,31044
8155,31044
8155,31555
7644,31555
" /> 
<circle cx="8900" cy="31300" r="255.315" /> 
<circle cx="9900" cy="31300" r="255.315" /> 
<circle cx="10900" cy="31300" r="255.315" /> 
<circle cx="11900" cy="31300" r="255.315" /> 
<circle cx="12900" cy="31300" r="255.315" /> 
<circle cx="13900" cy="31300" r="255.315" /> 
<circle cx="14900" cy="31300" r="255.315" /> 
<polyline style="fill-rule:evenodd;"
points="7614,32671
7614,32160
8125,32160
8125,32671
7614,32671
" /> 
<circle cx="8870" cy="32416" r="255.315" /> 
<circle cx="9870" cy="32416" r="255.315" /> 
<circle cx="10870" cy="32416" r="255.315" /> 
<circle cx="11870" cy="32416" r="255.315" /> 
<circle cx="12870" cy="32416" r="255.315" /> 
<circle cx="13870" cy="32416" r="255.315" /> 
<circle cx="14870" cy="32416" r="255.315" /> 
<polyline style="fill-rule:evenodd;"
points="7644,30435
7644,29924
8155,29924
8155,30435
7644,30435
" /> 
<circle cx="8900" cy="30180" r="255.315" /> 
<circle cx="9900" cy="30180" r="255.315" /> 
<circle cx="10900" cy="30180" r="255.315" /> 
<circle cx="11900" cy="30180" r="255.315" /> 
<circle cx="12900" cy="30180" r="255.315" /> 
<circle cx="13900" cy="30180" r="255.315" /> 
<circle cx="14900" cy="30180" r="255.315" /> 
<polyline style="fill-rule:evenodd;"
points="6650,22019
6650,21508
7161,21508
7161,22019
6650,22019
" /> 
<circle cx="7906" cy="21764" r="255.315" /> 
<circle cx="8906" cy="21764" r="255.315" /> 
<circle cx="9906" cy="21764" r="255.315" /> 
<circle cx="10906" cy="21764" r="255.315" /> 
<circle cx="11906" cy="21764" r="255.315" /> 
<circle cx="12906" cy="21764" r="255.315" /> 
<circle cx="13906" cy="21764" r="255.315" /> 
<circle cx="16195" cy="35195" r="280.315" /> 
<circle cx="16195" cy="31195" r="280.315" /> 
<circle cx="24400" cy="19710" r="280.315" /> 
<circle cx="28400" cy="19710" r="280.315" /> 
<circle cx="24850" cy="18525" r="280.315" /> 
<circle cx="28850" cy="18525" r="280.315" /> 
<circle cx="27260" cy="30020" r="280.315" /> 
<circle cx="31260" cy="30020" r="280.315" /> 
<circle cx="4290" cy="31938" r="280.315" /> 
<circle cx="4290" cy="27938" r="280.315" /> 
<circle cx="5750" cy="13630" r="280.315" /> 
<circle cx="5750" cy="9630" r="280.315" /> 
<circle cx="6750" cy="13630" r="280.315" /> 
<circle cx="6750" cy="9630" r="280.315" /> 
<circle cx="7750" cy="12630" r="280.315" /> 
<circle cx="7750" cy="8630" r="280.315" /> 
<circle cx="8750" cy="12630" r="280.315" /> 
<circle cx="8750" cy="8630" r="280.315" /> 
<circle cx="9750" cy="12630" r="280.315" /> 
<circle cx="9750" cy="8630" r="280.315" /> 
<circle cx="10750" cy="12630" r="280.315" /> 
<circle cx="10750" cy="8630" r="280.315" /> 
<circle cx="11750" cy="12630" r="280.315" /> 
<circle cx="11750" cy="8630" r="280.315" /> 
<circle cx="12750" cy="12630" r="280.315" /> 
<circle cx="12750" cy="8630" r="280.315" /> 
<circle cx="26980" cy="16160" r="280.315" /> 
<circle cx="30980" cy="16160" r="280.315" /> 
<circle cx="5324" cy="31674" r="280.315" /> 
<circle cx="5324" cy="27674" r="280.315" /> 
<polyline style="fill-rule:evenodd;"
points="22880,18860
22319,18860
22319,18299
22880,18299
22880,18860
" /> 
<circle cx="22600" cy="17580" r="280.315" /> 
<circle cx="22600" cy="16580" r="280.315" /> 
<polyline style="fill-rule:evenodd;"
points="21880,18860
21319,18860
21319,18299
21880,18299
21880,18860
" /> 
<circle cx="21600" cy="17580" r="280.315" /> 
<circle cx="21600" cy="16580" r="280.315" /> 
<polyline style="fill-rule:evenodd;"
points="24069,32649
24630,32649
24630,33210
24069,33210
24069,32649
" /> 
<circle cx="24350" cy="33930" r="280.315" /> 
<circle cx="24350" cy="34930" r="280.315" /> 
<polyline style="fill-rule:evenodd;"
points="23069,32649
23630,32649
23630,33210
23069,33210
23069,32649
" /> 
<circle cx="23350" cy="33930" r="280.315" /> 
<circle cx="23350" cy="34930" r="280.315" /> 
<polyline style="fill-rule:evenodd;"
points="22069,32649
22630,32649
22630,33210
22069,33210
22069,32649
" /> 
<circle cx="22350" cy="33930" r="280.315" /> 
<circle cx="22350" cy="34930" r="280.315" /> 
<polyline style="fill-rule:evenodd;"
points="28297,20627
28858,20627
28858,21188
28297,21188
28297,20627
" /> 
<circle cx="28578" cy="21908" r="280.315" /> 
<circle cx="28578" cy="22908" r="280.315" /> 
<polyline style="fill-rule:evenodd;"
points="28464,12970
28464,9509
31925,9509
31925,12970
28464,12970
" /> 
<circle cx="23695" cy="10240" r="330.315" /> 
<polyline style="fill-rule:evenodd;"
points="23364,11570
23364,10909
24025,10909
24025,11570
23364,11570
" /> 
<circle cx="23695" cy="12240" r="330.315" /> 
<circle cx="4100" cy="26050" r="310.315" /> 
<circle cx="5100" cy="26050" r="310.315" /> 
<circle cx="1500" cy="27880" r="310.315" /> 
<circle cx="2500" cy="27880" r="310.315" /> 
<circle cx="1500" cy="24380" r="310.315" /> 
<circle cx="2500" cy="24380" r="310.315" /> 
<circle cx="1500" cy="20880" r="310.315" /> 
<circle cx="2500" cy="20880" r="310.315" /> 
<circle cx="1500" cy="17380" r="310.315" /> 
<circle cx="2500" cy="17380" r="310.315" /> 
<circle cx="1500" cy="13880" r="310.315" /> 
<circle cx="2500" cy="13880" r="310.315" /> 
<circle cx="1500" cy="10380" r="310.315" /> 
<circle cx="2500" cy="10380" r="310.315" /> 
<circle cx="1500" cy="6880" r="310.315" /> 
<circle cx="2500" cy="6880" r="310.315" /> 
<circle cx="27630" cy="13990" r="310.315" /> 
<circle cx="27630" cy="14990" r="310.315" /> 
<circle cx="1500" cy="31380" r="310.315" /> 
<circle cx="2500" cy="31380" r="310.315" /> 
<polyline style="fill-rule:evenodd;"
points="6605,29440
6605,28579
7186,28579
7186,29440
6605,29440
" /> 
</g>
<g style="fill:#000000; fill-opacity:1.0; 
stroke:#000000; stroke-width:620; stroke-opacity:1; 
stroke-linecap:round; stroke-linejoin:round;">
<path d="M7896 28869
L7896 29149
" />
<path d="M8896 28869
L8896 29149
" />
<path d="M9896 28869
L9896 29149
" />
<path d="M10896 28869
L10896 29149
" />
<path d="M11896 28869
L11896 29149
" />
<path d="M12896 28869
L12896 29149
" />
<path d="M13896 28869
L13896 29149
" />
<path d="M14896 28869
L14896 29149
" />
<path d="M15896 28869
L15896 29149
" />
<path d="M16896 28869
L16896 29149
" />
<path d="M17896 28869
L17896 29149
" />
<path d="M18896 28869
L18896 29149
" />
<path d="M19896 28869
L19896 29149
" />
<path d="M20896 28869
L20896 29149
" />
<path d="M21896 28869
L21896 29149
" />
<path d="M22896 28869
L22896 29149
" />
<path d="M23896 28869
L23896 29149
" />
<path d="M24896 28869
L24896 29149
" />
<path d="M25896 28869
L25896 29149
" />
<path d="M25896 22869
L25896 23149
" />
<path d="M24896 22869
L24896 23149
" />
<path d="M23896 22869
L23896 23149
" />
<path d="M22896 22869
L22896 23149
" />
<path d="M21896 22869
L21896 23149
" />
<path d="M20896 22869
L20896 23149
" />
<path d="M19896 22869
L19896 23149
" />
<path d="M18896 22869
L18896 23149
" />
<path d="M17896 22869
L17896 23149
" />
<path d="M16896 22869
L16896 23149
" />
<path d="M15896 22869
L15896 23149
" />
<path d="M14896 22869
L14896 23149
" />
<path d="M13896 22869
L13896 23149
" />
<path d="M12896 22869
L12896 23149
" />
<path d="M11896 22869
L11896 23149
" />
<path d="M10896 22869
L10896 23149
" />
<path d="M9896 22869
L9896 23149
" />
<path d="M8896 22869
L8896 23149
" />
<path d="M7896 22869
L7896 23149
" />
<path d="M6896 22869
L6896 23149
" />
<path d="M10252 27337
L10252 27617
" />
<path d="M11252 27337
L11252 27617
" />
<path d="M12252 27337
L12252 27617
" />
<path d="M13252 27337
L13252 27617
" />
<path d="M14252 27337
L14252 27617
" />
<path d="M15252 27337
L15252 27617
" />
<path d="M16252 27337
L16252 27617
" />
<path d="M17252 27337
L17252 27617
" />
<path d="M18252 27337
L18252 27617
" />
<path d="M19252 27337
L19252 27617
" />
<path d="M20252 27337
L20252 27617
" />
<path d="M21252 27337
L21252 27617
" />
<path d="M22252 27337
L22252 27617
" />
</g>
<g style="fill:#000000; fill-opacity:1.0; 
stroke:#000000; stroke-width:39.3701; stroke-opacity:1; 
stroke-linecap:round; stroke-linejoin:round;">
<polyline style="fill-rule:evenodd;"
points="8961,27908
8961,27047
9542,27047
9542,27908
8961,27908
" /> 
</g>
<g style="fill:#000000; fill-opacity:1.0; 
stroke:#000000; stroke-width:620; stroke-opacity:1; 
stroke-linecap:round; stroke-linejoin:round;">
<path d="M22252 24337
L22252 24617
" />
<path d="M21252 24337
L21252 24617
" />
<path d="M20252 24337
L20252 24617
" />
<path d="M19252 24337
L19252 24617
" />
<path d="M18252 24337
L18252 24617
" />
<path d="M17252 24337
L17252 24617
" />
<path d="M16252 24337
L16252 24617
" />
<path d="M15252 24337
L15252 24617
" />
<path d="M14252 24337
L14252 24617
" />
<path d="M13252 24337
L13252 24617
" />
<path d="M12252 24337
L12252 24617
" />
<path d="M11252 24337
L11252 24617
" />
<path d="M10252 24337
L10252 24617
" />
<path d="M9252 24337
L9252 24617
" />
</g>
<g style="fill:#000000; fill-opacity:1.0; 
stroke:#000000; stroke-width:39.3701; stroke-opacity:1; 
stroke-linecap:round; stroke-linejoin:round;">
<polyline style="fill-rule:evenodd;"
points="6619,20880
6619,20019
7200,20019
7200,20880
6619,20880
" /> 
</g>
<g style="fill:#000000; fill-opacity:1.0; 
stroke:#000000; stroke-width:620; stroke-opacity:1; 
stroke-linecap:round; stroke-linejoin:round;">
<path d="M7910 20309
L7910 20589
" />
<path d="M8910 20309
L8910 20589
" />
<path d="M9910 20309
L9910 20589
" />
<path d="M10910 20309
L10910 20589
" />
<path d="M11910 20309
L11910 20589
" />
<path d="M12910 20309
L12910 20589
" />
<path d="M13910 20309
L13910 20589
" />
<path d="M14910 20309
L14910 20589
" />
<path d="M14910 17309
L14910 17589
" />
<path d="M13910 17309
L13910 17589
" />
<path d="M12910 17309
L12910 17589
" />
<path d="M11910 17309
L11910 17589
" />
<path d="M10910 17309
L10910 17589
" />
<path d="M9910 17309
L9910 17589
" />
<path d="M8910 17309
L8910 17589
" />
<path d="M7910 17309
L7910 17589
" />
<path d="M6910 17309
L6910 17589
" />
</g>
<g style="fill:#000000; fill-opacity:1.0; 
stroke:#000000; stroke-width:39.3701; stroke-opacity:1; 
stroke-linecap:round; stroke-linejoin:round;">
<polyline style="fill-rule:evenodd;"
points="22330,11489
22330,12350
21749,12350
21749,11489
22330,11489
" /> 
</g>
<g style="fill:#000000; fill-opacity:1.0; 
stroke:#000000; stroke-width:620; stroke-opacity:1; 
stroke-linecap:round; stroke-linejoin:round;">
<path d="M21040 12059
L21040 11779
" />
<path d="M20040 12059
L20040 11779
" />
<path d="M19040 12059
L19040 11779
" />
<path d="M18040 12059
L18040 11779
" />
<path d="M17040 12059
L17040 11779
" />
<path d="M16040 12059
L16040 11779
" />
<path d="M15040 12059
L15040 11779
" />
<path d="M15040 15059
L15040 14779
" />
<path d="M16040 15059
L16040 14779
" />
<path d="M17040 15059
L17040 14779
" />
<path d="M18040 15059
L18040 14779
" />
<path d="M19040 15059
L19040 14779
" />
<path d="M20040 15059
L20040 14779
" />
<path d="M21040 15059
L21040 14779
" />
<path d="M22040 15059
L22040 14779
" />
</g>
<g style="fill:#000000; fill-opacity:1.0; 
stroke:#000000; stroke-width:39.3701; stroke-opacity:1; 
stroke-linecap:round; stroke-linejoin:round;">
<polyline style="fill-rule:evenodd;"
points="26355,17294
26355,17805
25844,17805
25844,17294
26355,17294
" /> 
<circle cx="29100" cy="17550" r="255.315" /> 
</g>
<g style="fill:#000000; fill-opacity:1.0; 
stroke:#000000; stroke-width:787; stroke-opacity:1; 
stroke-linecap:round; stroke-linejoin:round;">
<path d="M18749 31791
L18749 31988
" />
<path d="M20671 31791
L20671 31988
" />
</g>
<g style="fill:#000000; fill-opacity:1.0; 
stroke:#000000; stroke-width:39.3701; stroke-opacity:1; 
stroke-linecap:round; stroke-linejoin:round;">
<polyline style="fill-rule:evenodd;"
points="3205,33894
3205,34405
2694,34405
2694,33894
3205,33894
" /> 
<circle cx="1950" cy="34150" r="255.315" /> 
<polyline style="fill-rule:evenodd;"
points="30630,18980
30119,18980
30119,18469
30630,18469
30630,18980
" /> 
<circle cx="30375" cy="17725" r="255.315" /> 
<circle cx="20850" cy="33680" r="255.315" /> 
<circle cx="20850" cy="34680" r="255.315" /> 
<circle cx="19100" cy="33680" r="255.315" /> 
<circle cx="19100" cy="34680" r="255.315" /> 
<circle cx="23210" cy="30660" r="255.315" /> 
<circle cx="23210" cy="31660" r="255.315" /> 
<polyline style="fill-rule:evenodd;"
points="23719,7960
23719,6999
24680,6999
24680,7960
23719,7960
" /> 
<circle cx="26200" cy="7480" r="480.315" /> 
<polyline style="fill-rule:evenodd;"
points="27719,7960
27719,6999
28680,6999
28680,7960
27719,7960
" /> 
<circle cx="30200" cy="7480" r="480.315" /> 
<polyline style="fill-rule:evenodd;"
points="14580,35199
14580,36160
13619,36160
13619,35199
14580,35199
" /> 
<circle cx="12100" cy="35680" r="480.315" /> 
<polyline style="fill-rule:evenodd;"
points="10580,35199
10580,36160
9619,36160
9619,35199
10580,35199
" /> 
<circle cx="8100" cy="35680" r="480.315" /> 
<polyline style="fill-rule:evenodd;"
points="32479,14109
33440,14109
33440,15070
32479,15070
32479,14109
" /> 
<circle cx="32960" cy="16590" r="480.315" /> 
<polyline style="fill-rule:evenodd;"
points="22150,6899
22150,7860
21189,7860
21189,6899
22150,6899
" /> 
<circle cx="19670" cy="7380" r="480.315" /> 
<polyline style="fill-rule:evenodd;"
points="18135,6894
18135,7855
17174,7855
17174,6894
18135,6894
" /> 
<circle cx="15655" cy="7375" r="480.315" /> 
<polyline style="fill-rule:evenodd;"
points="26185,30184
26185,30695
25674,30695
25674,30184
26185,30184
" /> 
<circle cx="24930" cy="30440" r="255.315" /> 
<polyline style="fill-rule:evenodd;"
points="24664,21695
24664,21184
25175,21184
25175,21695
24664,21695
" /> 
<circle cx="25920" cy="21440" r="255.315" /> 
<polyline style="fill-rule:evenodd;"
points="16604,21595
16604,21084
17115,21084
17115,21595
16604,21595
" /> 
<circle cx="17860" cy="21340" r="255.315" /> 
<circle cx="18860" cy="21340" r="255.315" /> 
<circle cx="19860" cy="21340" r="255.315" /> 
<polyline style="fill-rule:evenodd;"
points="31414,22245
31414,21734
31925,21734
31925,22245
31414,22245
" /> 
<circle cx="32670" cy="21990" r="255.315" /> 
<circle cx="33670" cy="21990" r="255.315" /> 
<polyline style="fill-rule:evenodd;"
points="34055,19424
34055,19935
33544,19935
33544,19424
34055,19424
" /> 
<circle cx="32800" cy="19680" r="255.315" /> 
<circle cx="31800" cy="19680" r="255.315" /> 
<polyline style="fill-rule:evenodd;"
points="16931,18923
16420,18923
16420,18412
16931,18412
16931,18923
" /> 
<circle cx="16676" cy="17668" r="255.315" /> 
<circle cx="28090" cy="33360" r="280.315" /> 
<circle cx="32090" cy="33360" r="280.315" /> 
<polyline style="fill-rule:evenodd;"
points="31659,31179
32170,31179
32170,31690
31659,31690
31659,31179
" /> 
<circle cx="32915" cy="31435" r="255.315" /> 
<circle cx="32915" cy="32435" r="255.315" /> 
<circle cx="27780" cy="34725" r="310.315" /> 
<circle cx="27780" cy="35725" r="310.315" /> 
<polyline style="fill-rule:evenodd;"
points="29514,14685
29514,14174
30025,14174
30025,14685
29514,14685
" /> 
<circle cx="30770" cy="14430" r="255.315" /> 
<polyline style="fill-rule:evenodd;"
points="30355,31324
30355,31835
29844,31835
29844,31324
30355,31324
" /> 
<circle cx="29100" cy="31580" r="255.315" /> 
<polyline style="fill-rule:evenodd;"
points="30479,34439
30990,34439
30990,34950
30479,34950
30479,34439
" /> 
<circle cx="30735" cy="35695" r="255.315" /> 
<circle cx="23800" cy="13370" r="255.315" /> 
<circle cx="23800" cy="14370" r="255.315" /> 
<circle cx="27800" cy="32280" r="255.315" /> 
<circle cx="27800" cy="31280" r="255.315" /> 
<circle cx="17040" cy="30170" r="255.315" /> 
<circle cx="18040" cy="30170" r="255.315" /> 
<circle cx="17570" cy="13350" r="255.315" /> 
<circle cx="16570" cy="13350" r="255.315" /> 
<circle cx="13300" cy="18980" r="255.315" /> 
<circle cx="12300" cy="18980" r="255.315" /> 
<circle cx="33600" cy="36180" r="780.315" /> 
<circle cx="33600" cy="7680" r="780.315" /> 
<circle cx="14300" cy="9930" r="780.315" /> 
<circle cx="1450" cy="36430" r="780.315" /> 
<circle cx="17310" cy="25740" r="255.815" /> 
<circle cx="25100" cy="25760" r="255.815" /> 
<circle cx="24090" cy="15792" r="255.815" /> 
<circle cx="26004" cy="15814" r="255.815" /> 
</g>
<g style="fill:#000000; fill-opacity:1.0; 
stroke:#000000; stroke-width:197; stroke-opacity:1; 
stroke-linecap:round; stroke-linejoin:round;">
<path d="M25080 25739
L17310 25739
" />
<path d="M25100 25759
L25080 25739
" />
<path d="M25982 15791
L24090 15791
" />
<path d="M26004 15813
L25982 15791
" />
</g>
<g style="fill:#FFFFFF; fill-opacity:1.0; 
stroke:#FFFFFF; stroke-width:39.3701; stroke-opacity:1; 
stroke-linecap:round; stroke-linejoin:round;">
<circle cx="17310" cy="25740" r="105.315" /> 
<circle cx="25100" cy="25760" r="105.315" /> 
<circle cx="24090" cy="15792" r="105.315" /> 
<circle cx="26004" cy="15814" r="105.315" /> 
<circle cx="28510" cy="25610" r="140.315" /> 
<circle cx="28510" cy="26610" r="140.315" /> 
<circle cx="29297" cy="26610" r="140.315" /> 
<circle cx="29297" cy="25610" r="140.315" /> 
<circle cx="30360" cy="23748" r="433.315" /> 
<circle cx="30360" cy="28472" r="433.315" /> 
<circle cx="4250" cy="33420" r="140.315" /> 
<circle cx="6250" cy="33420" r="140.315" /> 
<circle cx="4250" cy="36420" r="140.315" /> 
<circle cx="6250" cy="36420" r="140.315" /> 
<circle cx="13900" cy="16180" r="140.315" /> 
<circle cx="12900" cy="16180" r="140.315" /> 
<circle cx="11900" cy="16180" r="140.315" /> 
<circle cx="10900" cy="16180" r="140.315" /> 
<circle cx="9900" cy="16180" r="140.315" /> 
<circle cx="8900" cy="16180" r="140.315" /> 
<circle cx="7900" cy="16180" r="140.315" /> 
<circle cx="6900" cy="16180" r="140.315" /> 
<circle cx="7900" cy="31300" r="140.315" /> 
<circle cx="8900" cy="31300" r="140.315" /> 
<circle cx="9900" cy="31300" r="140.315" /> 
<circle cx="10900" cy="31300" r="140.315" /> 
<circle cx="11900" cy="31300" r="140.315" /> 
<circle cx="12900" cy="31300" r="140.315" /> 
<circle cx="13900" cy="31300" r="140.315" /> 
<circle cx="14900" cy="31300" r="140.315" /> 
<circle cx="7870" cy="32416" r="140.315" /> 
<circle cx="8870" cy="32416" r="140.315" /> 
<circle cx="9870" cy="32416" r="140.315" /> 
<circle cx="10870" cy="32416" r="140.315" /> 
<circle cx="11870" cy="32416" r="140.315" /> 
<circle cx="12870" cy="32416" r="140.315" /> 
<circle cx="13870" cy="32416" r="140.315" /> 
<circle cx="14870" cy="32416" r="140.315" /> 
<circle cx="7900" cy="30180" r="140.315" /> 
<circle cx="8900" cy="30180" r="140.315" /> 
<circle cx="9900" cy="30180" r="140.315" /> 
<circle cx="10900" cy="30180" r="140.315" /> 
<circle cx="11900" cy="30180" r="140.315" /> 
<circle cx="12900" cy="30180" r="140.315" /> 
<circle cx="13900" cy="30180" r="140.315" /> 
<circle cx="14900" cy="30180" r="140.315" /> 
<circle cx="6906" cy="21764" r="140.315" /> 
<circle cx="7906" cy="21764" r="140.315" /> 
<circle cx="8906" cy="21764" r="140.315" /> 
<circle cx="9906" cy="21764" r="140.315" /> 
<circle cx="10906" cy="21764" r="140.315" /> 
<circle cx="11906" cy="21764" r="140.315" /> 
<circle cx="12906" cy="21764" r="140.315" /> 
<circle cx="13906" cy="21764" r="140.315" /> 
<circle cx="16195" cy="35195" r="140.315" /> 
<circle cx="16195" cy="31195" r="140.315" /> 
<circle cx="24400" cy="19710" r="140.315" /> 
<circle cx="28400" cy="19710" r="140.315" /> 
<circle cx="24850" cy="18525" r="140.315" /> 
<circle cx="28850" cy="18525" r="140.315" /> 
<circle cx="27260" cy="30020" r="140.315" /> 
<circle cx="31260" cy="30020" r="140.315" /> 
<circle cx="4290" cy="31938" r="140.315" /> 
<circle cx="4290" cy="27938" r="140.315" /> 
<circle cx="5750" cy="13630" r="140.315" /> 
<circle cx="5750" cy="9630" r="140.315" /> 
<circle cx="6750" cy="13630" r="140.315" /> 
<circle cx="6750" cy="9630" r="140.315" /> 
<circle cx="7750" cy="12630" r="140.315" /> 
<circle cx="7750" cy="8630" r="140.315" /> 
<circle cx="8750" cy="12630" r="140.315" /> 
<circle cx="8750" cy="8630" r="140.315" /> 
<circle cx="9750" cy="12630" r="140.315" /> 
<circle cx="9750" cy="8630" r="140.315" /> 
<circle cx="10750" cy="12630" r="140.315" /> 
<circle cx="10750" cy="8630" r="140.315" /> 
<circle cx="11750" cy="12630" r="140.315" /> 
<circle cx="11750" cy="8630" r="140.315" /> 
<circle cx="12750" cy="12630" r="140.315" /> 
<circle cx="12750" cy="8630" r="140.315" /> 
<circle cx="26980" cy="16160" r="140.315" /> 
<circle cx="30980" cy="16160" r="140.315" /> 
<circle cx="5324" cy="31674" r="140.315" /> 
<circle cx="5324" cy="27674" r="140.315" /> 
<circle cx="22600" cy="18580" r="180.315" /> 
<circle cx="22600" cy="17580" r="180.315" /> 
<circle cx="22600" cy="16580" r="180.315" /> 
<circle cx="21600" cy="18580" r="180.315" /> 
<circle cx="21600" cy="17580" r="180.315" /> 
<circle cx="21600" cy="16580" r="180.315" /> 
<circle cx="24350" cy="32930" r="180.315" /> 
<circle cx="24350" cy="33930" r="180.315" /> 
<circle cx="24350" cy="34930" r="180.315" /> 
<circle cx="23350" cy="32930" r="180.315" /> 
<circle cx="23350" cy="33930" r="180.315" /> 
<circle cx="23350" cy="34930" r="180.315" /> 
<circle cx="22350" cy="32930" r="180.315" /> 
<circle cx="22350" cy="33930" r="180.315" /> 
<circle cx="22350" cy="34930" r="180.315" /> 
<circle cx="28578" cy="20908" r="180.315" /> 
<circle cx="28578" cy="21908" r="180.315" /> 
<circle cx="28578" cy="22908" r="180.315" /> 
<circle cx="30195" cy="11240" r="580.315" /> 
<circle cx="23695" cy="10240" r="205.315" /> 
<circle cx="23695" cy="11240" r="205.315" /> 
<circle cx="23695" cy="12240" r="205.315" /> 
<circle cx="4100" cy="26050" r="140.315" /> 
<circle cx="5100" cy="26050" r="140.315" /> 
<circle cx="1500" cy="27880" r="140.315" /> 
<circle cx="2500" cy="27880" r="140.315" /> 
<circle cx="1500" cy="24380" r="140.315" /> 
<circle cx="2500" cy="24380" r="140.315" /> 
<circle cx="1500" cy="20880" r="140.315" /> 
<circle cx="2500" cy="20880" r="140.315" /> 
<circle cx="1500" cy="17380" r="140.315" /> 
<circle cx="2500" cy="17380" r="140.315" /> 
<circle cx="1500" cy="13880" r="140.315" /> 
<circle cx="2500" cy="13880" r="140.315" /> 
<circle cx="1500" cy="10380" r="140.315" /> 
<circle cx="2500" cy="10380" r="140.315" /> 
<circle cx="1500" cy="6880" r="140.315" /> 
<circle cx="2500" cy="6880" r="140.315" /> 
<circle cx="27630" cy="13990" r="140.315" /> 
<circle cx="27630" cy="14990" r="140.315" /> 
<circle cx="1500" cy="31380" r="140.315" /> 
<circle cx="2500" cy="31380" r="140.315" /> 
<circle cx="6896" cy="29010" r="140.315" /> 
<circle cx="7896" cy="29010" r="140.315" /> 
<circle cx="8896" cy="29010" r="140.315" /> 
<circle cx="9896" cy="29010" r="140.315" /> 
<circle cx="10896" cy="29010" r="140.315" /> 
<circle cx="11896" cy="29010" r="140.315" /> 
<circle cx="12896" cy="29010" r="140.315" /> 
<circle cx="13896" cy="29010" r="140.315" /> 
<circle cx="14896" cy="29010" r="140.315" /> 
<circle cx="15896" cy="29010" r="140.315" /> 
<circle cx="16896" cy="29010" r="140.315" /> 
<circle cx="17896" cy="29010" r="140.315" /> 
<circle cx="18896" cy="29010" r="140.315" /> 
<circle cx="19896" cy="29010" r="140.315" /> 
<circle cx="20896" cy="29010" r="140.315" /> 
<circle cx="21896" cy="29010" r="140.315" /> 
<circle cx="22896" cy="29010" r="140.315" /> 
<circle cx="23896" cy="29010" r="140.315" /> 
<circle cx="24896" cy="29010" r="140.315" /> 
<circle cx="25896" cy="29010" r="140.315" /> 
<circle cx="25896" cy="23010" r="140.315" /> 
<circle cx="24896" cy="23010" r="140.315" /> 
<circle cx="23896" cy="23010" r="140.315" /> 
<circle cx="22896" cy="23010" r="140.315" /> 
<circle cx="21896" cy="23010" r="140.315" /> 
<circle cx="20896" cy="23010" r="140.315" /> 
<circle cx="19896" cy="23010" r="140.315" /> 
<circle cx="18896" cy="23010" r="140.315" /> 
<circle cx="17896" cy="23010" r="140.315" /> 
<circle cx="16896" cy="23010" r="140.315" /> 
<circle cx="15896" cy="23010" r="140.315" /> 
<circle cx="14896" cy="23010" r="140.315" /> 
<circle cx="13896" cy="23010" r="140.315" /> 
<circle cx="12896" cy="23010" r="140.315" /> 
<circle cx="11896" cy="23010" r="140.315" /> 
<circle cx="10896" cy="23010" r="140.315" /> 
<circle cx="9896" cy="23010" r="140.315" /> 
<circle cx="8896" cy="23010" r="140.315" /> 
<circle cx="7896" cy="23010" r="140.315" /> 
<circle cx="6896" cy="23010" r="140.315" /> 
<circle cx="10252" cy="27478" r="140.315" /> 
<circle cx="11252" cy="27478" r="140.315" /> 
<circle cx="12252" cy="27478" r="140.315" /> 
<circle cx="13252" cy="27478" r="140.315" /> 
<circle cx="14252" cy="27478" r="140.315" /> 
<circle cx="15252" cy="27478" r="140.315" /> 
<circle cx="16252" cy="27478" r="140.315" /> 
<circle cx="17252" cy="27478" r="140.315" /> 
<circle cx="18252" cy="27478" r="140.315" /> 
<circle cx="19252" cy="27478" r="140.315" /> 
<circle cx="20252" cy="27478" r="140.315" /> 
<circle cx="21252" cy="27478" r="140.315" /> 
<circle cx="22252" cy="27478" r="140.315" /> 
<circle cx="9252" cy="27478" r="140.315" /> 
<circle cx="22252" cy="24478" r="140.315" /> 
<circle cx="21252" cy="24478" r="140.315" /> 
<circle cx="20252" cy="24478" r="140.315" /> 
<circle cx="19252" cy="24478" r="140.315" /> 
<circle cx="18252" cy="24478" r="140.315" /> 
<circle cx="17252" cy="24478" r="140.315" /> 
<circle cx="16252" cy="24478" r="140.315" /> 
<circle cx="15252" cy="24478" r="140.315" /> 
<circle cx="14252" cy="24478" r="140.315" /> 
<circle cx="13252" cy="24478" r="140.315" /> 
<circle cx="12252" cy="24478" r="140.315" /> 
<circle cx="11252" cy="24478" r="140.315" /> 
<circle cx="10252" cy="24478" r="140.315" /> 
<circle cx="9252" cy="24478" r="140.315" /> 
<circle cx="6910" cy="20450" r="140.315" /> 
<circle cx="7910" cy="20450" r="140.315" /> 
<circle cx="8910" cy="20450" r="140.315" /> 
<circle cx="9910" cy="20450" r="140.315" /> 
<circle cx="10910" cy="20450" r="140.315" /> 
<circle cx="11910" cy="20450" r="140.315" /> 
<circle cx="12910" cy="20450" r="140.315" /> 
<circle cx="13910" cy="20450" r="140.315" /> 
<circle cx="14910" cy="20450" r="140.315" /> 
<circle cx="14910" cy="17450" r="140.315" /> 
<circle cx="13910" cy="17450" r="140.315" /> 
<circle cx="12910" cy="17450" r="140.315" /> 
<circle cx="11910" cy="17450" r="140.315" /> 
<circle cx="10910" cy="17450" r="140.315" /> 
<circle cx="9910" cy="17450" r="140.315" /> 
<circle cx="8910" cy="17450" r="140.315" /> 
<circle cx="7910" cy="17450" r="140.315" /> 
<circle cx="6910" cy="17450" r="140.315" /> 
<circle cx="22040" cy="11920" r="140.315" /> 
<circle cx="21040" cy="11920" r="140.315" /> 
<circle cx="20040" cy="11920" r="140.315" /> 
<circle cx="19040" cy="11920" r="140.315" /> 
<circle cx="18040" cy="11920" r="140.315" /> 
<circle cx="17040" cy="11920" r="140.315" /> 
<circle cx="16040" cy="11920" r="140.315" /> 
<circle cx="15040" cy="11920" r="140.315" /> 
<circle cx="15040" cy="14920" r="140.315" /> 
<circle cx="16040" cy="14920" r="140.315" /> 
<circle cx="17040" cy="14920" r="140.315" /> 
<circle cx="18040" cy="14920" r="140.315" /> 
<circle cx="19040" cy="14920" r="140.315" /> 
<circle cx="20040" cy="14920" r="140.315" /> 
<circle cx="21040" cy="14920" r="140.315" /> 
<circle cx="22040" cy="14920" r="140.315" /> 
<circle cx="26100" cy="17550" r="140.315" /> 
<circle cx="29100" cy="17550" r="140.315" /> 
<circle cx="18749" cy="31890" r="216.315" /> 
<circle cx="20671" cy="31890" r="216.315" /> 
<circle cx="2950" cy="34150" r="140.315" /> 
<circle cx="1950" cy="34150" r="140.315" /> 
<circle cx="30375" cy="18725" r="140.315" /> 
<circle cx="30375" cy="17725" r="140.315" /> 
<circle cx="20850" cy="33680" r="140.315" /> 
<circle cx="20850" cy="34680" r="140.315" /> 
<circle cx="19100" cy="33680" r="140.315" /> 
<circle cx="19100" cy="34680" r="140.315" /> 
<circle cx="23210" cy="30660" r="140.315" /> 
<circle cx="23210" cy="31660" r="140.315" /> 
<circle cx="24200" cy="7480" r="280.315" /> 
<circle cx="26200" cy="7480" r="280.315" /> 
<circle cx="28200" cy="7480" r="280.315" /> 
<circle cx="30200" cy="7480" r="280.315" /> 
<circle cx="14100" cy="35680" r="280.315" /> 
<circle cx="12100" cy="35680" r="280.315" /> 
<circle cx="10100" cy="35680" r="280.315" /> 
<circle cx="8100" cy="35680" r="280.315" /> 
<circle cx="32960" cy="14590" r="280.315" /> 
<circle cx="32960" cy="16590" r="280.315" /> 
<circle cx="21670" cy="7380" r="280.315" /> 
<circle cx="19670" cy="7380" r="280.315" /> 
<circle cx="17655" cy="7375" r="280.315" /> 
<circle cx="15655" cy="7375" r="280.315" /> 
<circle cx="25930" cy="30440" r="140.315" /> 
<circle cx="24930" cy="30440" r="140.315" /> 
<circle cx="24920" cy="21440" r="140.315" /> 
<circle cx="25920" cy="21440" r="140.315" /> 
<circle cx="16860" cy="21340" r="140.315" /> 
<circle cx="17860" cy="21340" r="140.315" /> 
<circle cx="18860" cy="21340" r="140.315" /> 
<circle cx="19860" cy="21340" r="140.315" /> 
<circle cx="31670" cy="21990" r="140.315" /> 
<circle cx="32670" cy="21990" r="140.315" /> 
<circle cx="33670" cy="21990" r="140.315" /> 
<circle cx="33800" cy="19680" r="140.315" /> 
<circle cx="32800" cy="19680" r="140.315" /> 
<circle cx="31800" cy="19680" r="140.315" /> 
<circle cx="16676" cy="18668" r="140.315" /> 
<circle cx="16676" cy="17668" r="140.315" /> 
<circle cx="28090" cy="33360" r="140.315" /> 
<circle cx="32090" cy="33360" r="140.315" /> 
<circle cx="31915" cy="31435" r="140.315" /> 
<circle cx="32915" cy="31435" r="140.315" /> 
<circle cx="32915" cy="32435" r="140.315" /> 
<circle cx="27780" cy="34725" r="140.315" /> 
<circle cx="27780" cy="35725" r="140.315" /> 
<circle cx="29770" cy="14430" r="140.315" /> 
<circle cx="30770" cy="14430" r="140.315" /> 
<circle cx="30100" cy="31580" r="140.315" /> 
<circle cx="29100" cy="31580" r="140.315" /> 
<circle cx="30735" cy="34695" r="140.315" /> 
<circle cx="30735" cy="35695" r="140.315" /> 
<circle cx="23800" cy="13370" r="140.315" /> 
<circle cx="23800" cy="14370" r="140.315" /> 
<circle cx="27800" cy="32280" r="140.315" /> 
<circle cx="27800" cy="31280" r="140.315" /> 
<circle cx="17040" cy="30170" r="140.315" /> 
<circle cx="18040" cy="30170" r="140.315" /> 
<circle cx="17570" cy="13350" r="140.315" /> 
<circle cx="16570" cy="13350" r="140.315" /> 
<circle cx="13300" cy="18980" r="140.315" /> 
<circle cx="12300" cy="18980" r="140.315" /> 
<circle cx="33600" cy="36180" r="580.315" /> 
<circle cx="33600" cy="7680" r="580.315" /> 
<circle cx="14300" cy="9930" r="580.315" /> 
<circle cx="1450" cy="36430" r="580.315" /> 
</g> 
</svg>
