<?xml version="1.0" standalone="no"?>
<!DOCTYPE svg PUBLIC "-//W3C//DTD SVG 1.1//EN" 
"http://www.w3.org/Graphics/SVG/1.1/DTD/svg11.dtd"> 
<svg
  xmlns="http://www.w3.org/2000/svg"
  version="1.1"
  width="11.7in" height="8.267in" viewBox="0 0 117000 82670 "
>
  <title>SVG Picture created as pinguicaro-Drawings.svg </title>
  <desc>Picture generated by wxSVG v0101 </desc>
  <g style="fill:black; stroke:black; stroke-width:1">
</g>
<g style="fill:#FFFFFF; fill-opacity:1.0; 
  stroke:#000000; stroke-linecap:round; stroke-linejoin:round; stroke-opacity:1.0; stroke-opacity:1.0; stroke-width:0" 
   transform="translate(0 0) scale(1 1)">
<path d="M60102 35024 L60106 35024" /> 
<path d="M60104 35022 L60104 35026" /> 
</g>
<g style="fill:#000000; fill-opacity:0.0; 
  stroke:#000000; stroke-linecap:round; stroke-linejoin:round; stroke-opacity:1.0; stroke-opacity:1.0; stroke-width:120" 
   transform="translate(0 0) scale(1 1)">
<path d="M60428 38366 L59628 38366" /> 
<path d="M59628 38366 L59628 38138" /> 
<path d="M59628 38138 L59666 38080" /> 
<path d="M59666 38080 L59704 38052" /> 
<path d="M59704 38052 L59780 38023" /> 
<path d="M59780 38023 L59894 38023" /> 
<path d="M59894 38023 L59971 38052" /> 
<path d="M59971 38052 L60009 38080" /> 
<path d="M60009 38080 L60047 38138" /> 
<path d="M60047 38138 L60047 38366" /> 
<g style = "stroke-linecap:round;" > 
<path d="M60047 38366 L60047 38366" /> 
</g><path d="M60428 37766 L59894 37766" /> 
<g style = "stroke-linecap:round;" > 
<path d="M59894 37766 L59894 37766" /> 
</g><path d="M60047 37766 L59971 37738" /> 
<path d="M59971 37738 L59933 37709" /> 
<path d="M59933 37709 L59894 37652" /> 
<path d="M59894 37652 L59894 37595" /> 
<g style = "stroke-linecap:round;" > 
<path d="M59894 37595 L59894 37595" /> 
</g><path d="M60428 37309 L60390 37367" /> 
<path d="M60390 37367 L60352 37395" /> 
<path d="M60352 37395 L60275 37424" /> 
<path d="M60275 37424 L60047 37424" /> 
<path d="M60047 37424 L59971 37395" /> 
<path d="M59971 37395 L59933 37367" /> 
<path d="M59933 37367 L59894 37309" /> 
<path d="M59894 37309 L59894 37224" /> 
<path d="M59894 37224 L59933 37167" /> 
<path d="M59933 37167 L59971 37138" /> 
<path d="M59971 37138 L60047 37109" /> 
<path d="M60047 37109 L60275 37109" /> 
<path d="M60275 37109 L60352 37138" /> 
<path d="M60352 37138 L60390 37167" /> 
<path d="M60390 37167 L60428 37224" /> 
<path d="M60428 37224 L60428 37309" /> 
<path d="M59894 36909 L60428 36766" /> 
<g style = "stroke-linecap:round;" > 
<path d="M60428 36766 L60428 36766" /> 
</g><path d="M59894 36624 L60428 36766" /> 
<path d="M60428 36766 L60618 36824" /> 
<path d="M60618 36824 L60656 36852" /> 
<path d="M60656 36852 L60694 36909" /> 
<g style = "stroke-linecap:round;" > 
<path d="M60694 36909 L60694 36909" /> 
</g><path d="M60390 36167 L60428 36224" /> 
<path d="M60428 36224 L60428 36338" /> 
<path d="M60428 36338 L60390 36395" /> 
<path d="M60390 36395 L60314 36424" /> 
<path d="M60314 36424 L60009 36424" /> 
<path d="M60009 36424 L59933 36395" /> 
<path d="M59933 36395 L59894 36338" /> 
<path d="M59894 36338 L59894 36224" /> 
<path d="M59894 36224 L59933 36167" /> 
<path d="M59933 36167 L60009 36138" /> 
<path d="M60009 36138 L60085 36138" /> 
<path d="M60085 36138 L60161 36424" /> 
<g style = "stroke-linecap:round;" > 
<path d="M60161 36424 L60161 36424" /> 
</g><path d="M60390 35624 L60428 35681" /> 
<path d="M60428 35681 L60428 35795" /> 
<path d="M60428 35795 L60390 35853" /> 
<path d="M60390 35853 L60352 35881" /> 
<path d="M60352 35881 L60275 35910" /> 
<path d="M60275 35910 L60047 35910" /> 
<path d="M60047 35910 L59971 35881" /> 
<path d="M59971 35881 L59933 35853" /> 
<path d="M59933 35853 L59894 35795" /> 
<path d="M59894 35795 L59894 35681" /> 
<path d="M59894 35681 L59933 35624" /> 
<g style = "stroke-linecap:round;" > 
<path d="M59933 35624 L59933 35624" /> 
</g><path d="M59894 35453 L59894 35224" /> 
<g style = "stroke-linecap:round;" > 
<path d="M59894 35224 L59894 35224" /> 
</g><path d="M59628 35367 L60314 35367" /> 
<path d="M60314 35367 L60390 35339" /> 
<path d="M60390 35339 L60428 35281" /> 
<path d="M60428 35281 L60428 35224" /> 
<g style = "stroke-linecap:round;" > 
<path d="M60428 35224 L60428 35224" /> 
</g><path d="M60428 34938 L60390 34996" /> 
<path d="M60390 34996 L60352 35024" /> 
<path d="M60352 35024 L60275 35053" /> 
<path d="M60275 35053 L60047 35053" /> 
<path d="M60047 35053 L59971 35024" /> 
<path d="M59971 35024 L59933 34996" /> 
<path d="M59933 34996 L59894 34938" /> 
<path d="M59894 34938 L59894 34853" /> 
<path d="M59894 34853 L59933 34796" /> 
<path d="M59933 34796 L59971 34767" /> 
<path d="M59971 34767 L60047 34738" /> 
<path d="M60047 34738 L60275 34738" /> 
<path d="M60275 34738 L60352 34767" /> 
<path d="M60352 34767 L60390 34796" /> 
<path d="M60390 34796 L60428 34853" /> 
<path d="M60428 34853 L60428 34938" /> 
<path d="M60428 34024 L59628 34024" /> 
<g style = "stroke-linecap:round;" > 
<path d="M59628 34024 L59628 34024" /> 
</g><path d="M60352 33395 L60390 33424" /> 
<path d="M60390 33424 L60428 33510" /> 
<path d="M60428 33510 L60428 33567" /> 
<path d="M60428 33567 L60390 33652" /> 
<path d="M60390 33652 L60314 33710" /> 
<path d="M60314 33710 L60237 33738" /> 
<path d="M60237 33738 L60085 33767" /> 
<path d="M60085 33767 L59971 33767" /> 
<path d="M59971 33767 L59818 33738" /> 
<path d="M59818 33738 L59742 33710" /> 
<path d="M59742 33710 L59666 33652" /> 
<path d="M59666 33652 L59628 33567" /> 
<path d="M59628 33567 L59628 33510" /> 
<path d="M59628 33510 L59666 33424" /> 
<path d="M59666 33424 L59704 33395" /> 
<g style = "stroke-linecap:round;" > 
<path d="M59704 33395 L59704 33395" /> 
</g><path d="M60199 33167 L60199 32881" /> 
<g style = "stroke-linecap:round;" > 
<path d="M60199 32881 L60199 32881" /> 
</g><path d="M60428 33224 L59628 33024" /> 
<path d="M59628 33024 L60428 32824" /> 
<g style = "stroke-linecap:round;" > 
<path d="M60428 32824 L60428 32824" /> 
</g><path d="M60428 32281 L60047 32481" /> 
<g style = "stroke-linecap:round;" > 
<path d="M60047 32481 L60047 32481" /> 
</g><path d="M60428 32624 L59628 32624" /> 
<path d="M59628 32624 L59628 32396" /> 
<path d="M59628 32396 L59666 32338" /> 
<path d="M59666 32338 L59704 32310" /> 
<path d="M59704 32310 L59780 32281" /> 
<path d="M59780 32281 L59894 32281" /> 
<path d="M59894 32281 L59971 32310" /> 
<path d="M59971 32310 L60009 32338" /> 
<path d="M60009 32338 L60047 32396" /> 
<path d="M60047 32396 L60047 32624" /> 
<g style = "stroke-linecap:round;" > 
<path d="M60047 32624 L60047 32624" /> 
</g><path d="M59628 31910 L59628 31796" /> 
<path d="M59628 31796 L59666 31738" /> 
<path d="M59666 31738 L59742 31681" /> 
<path d="M59742 31681 L59894 31653" /> 
<path d="M59894 31653 L60161 31653" /> 
<path d="M60161 31653 L60314 31681" /> 
<path d="M60314 31681 L60390 31738" /> 
<path d="M60390 31738 L60428 31796" /> 
<path d="M60428 31796 L60428 31910" /> 
<path d="M60428 31910 L60390 31967" /> 
<path d="M60390 31967 L60314 32024" /> 
<path d="M60314 32024 L60161 32053" /> 
<path d="M60161 32053 L59894 32053" /> 
<path d="M59894 32053 L59742 32024" /> 
<path d="M59742 32024 L59666 31967" /> 
<path d="M59666 31967 L59628 31910" /> 
</g> 
</svg> 
