<?xml version="1.0" standalone="no"?>
 <!DOCTYPE svg PUBLIC "-//W3C//DTD SVG 1.1//EN" 
 "http://www.w3.org/Graphics/SVG/1.1/DTD/svg11.dtd"> 
<svg xmlns="http://www.w3.org/2000/svg" version="1.1" 
    width="14.2418cm" height="10.8331cm" viewBox="0 0 56070 42650 ">
<title>SVG Picture created as pinguicaro-B_Mask.svg date 2014/12/18 13:49:20 </title>
  <desc>Picture generated by PCBNEW </desc>
<g style="fill:#000000; fill-opacity:1;stroke:#000000; stroke-opacity:1;
stroke-linecap:round; stroke-linejoin:round; "
 transform="translate(0 0) scale(1 1)">
</g>
<g style="fill:#000000; fill-opacity:0.0; 
stroke:#000000; stroke-width:39.3701; stroke-opacity:1; 
stroke-linecap:round; stroke-linejoin:round;">
</g>
<g style="fill:#000000; fill-opacity:1.0; 
stroke:#000000; stroke-width:39.3701; stroke-opacity:1; 
stroke-linecap:round; stroke-linejoin:round;">
<circle cx="37512.9" cy="27460" r="380.315" /> 
<circle cx="37512.9" cy="28460" r="380.315" /> 
<circle cx="38299.9" cy="28460" r="380.315" /> 
<circle cx="38299.9" cy="27460" r="380.315" /> 
<circle cx="39362.9" cy="25598" r="867.815" /> 
<circle cx="39362.9" cy="30322" r="867.815" /> 
<circle cx="13252.9" cy="35270" r="355.315" /> 
<circle cx="15252.9" cy="35270" r="355.315" /> 
<circle cx="13252.9" cy="38270" r="355.315" /> 
<circle cx="15252.9" cy="38270" r="355.315" /> 
<polyline style="fill-rule:evenodd;"
points="23258,17674
23258,18385
22547,18385
22547,17674
23258,17674
" /> 
<circle cx="21902.9" cy="18030" r="355.315" /> 
<circle cx="20902.9" cy="18030" r="355.315" /> 
<circle cx="19902.9" cy="18030" r="355.315" /> 
<circle cx="18902.9" cy="18030" r="355.315" /> 
<circle cx="17902.9" cy="18030" r="355.315" /> 
<circle cx="16902.9" cy="18030" r="355.315" /> 
<circle cx="15902.9" cy="18030" r="355.315" /> 
<polyline style="fill-rule:evenodd;"
points="16547,33505
16547,32794
17258,32794
17258,33505
16547,33505
" /> 
<circle cx="17902.9" cy="33150" r="355.315" /> 
<circle cx="18902.9" cy="33150" r="355.315" /> 
<circle cx="19902.9" cy="33150" r="355.315" /> 
<circle cx="20902.9" cy="33150" r="355.315" /> 
<circle cx="21902.9" cy="33150" r="355.315" /> 
<circle cx="22902.9" cy="33150" r="355.315" /> 
<circle cx="23902.9" cy="33150" r="355.315" /> 
<polyline style="fill-rule:evenodd;"
points="16517,34621
16517,33910
17228,33910
17228,34621
16517,34621
" /> 
<circle cx="17872.9" cy="34266" r="355.315" /> 
<circle cx="18872.9" cy="34266" r="355.315" /> 
<circle cx="19872.9" cy="34266" r="355.315" /> 
<circle cx="20872.9" cy="34266" r="355.315" /> 
<circle cx="21872.9" cy="34266" r="355.315" /> 
<circle cx="22872.9" cy="34266" r="355.315" /> 
<circle cx="23872.9" cy="34266" r="355.315" /> 
<polyline style="fill-rule:evenodd;"
points="16547,32385
16547,31674
17258,31674
17258,32385
16547,32385
" /> 
<circle cx="17902.9" cy="32030" r="355.315" /> 
<circle cx="18902.9" cy="32030" r="355.315" /> 
<circle cx="19902.9" cy="32030" r="355.315" /> 
<circle cx="20902.9" cy="32030" r="355.315" /> 
<circle cx="21902.9" cy="32030" r="355.315" /> 
<circle cx="22902.9" cy="32030" r="355.315" /> 
<circle cx="23902.9" cy="32030" r="355.315" /> 
<polyline style="fill-rule:evenodd;"
points="15553,23969
15553,23258
16264,23258
16264,23969
15553,23969
" /> 
<circle cx="16908.9" cy="23614" r="355.315" /> 
<circle cx="17908.9" cy="23614" r="355.315" /> 
<circle cx="18908.9" cy="23614" r="355.315" /> 
<circle cx="19908.9" cy="23614" r="355.315" /> 
<circle cx="20908.9" cy="23614" r="355.315" /> 
<circle cx="21908.9" cy="23614" r="355.315" /> 
<circle cx="22908.9" cy="23614" r="355.315" /> 
<circle cx="25197.9" cy="37045" r="380.315" /> 
<circle cx="25197.9" cy="33045" r="380.315" /> 
<circle cx="33402.9" cy="21560" r="380.315" /> 
<circle cx="37402.9" cy="21560" r="380.315" /> 
<circle cx="33852.9" cy="20375" r="380.315" /> 
<circle cx="37852.9" cy="20375" r="380.315" /> 
<circle cx="36262.9" cy="31870" r="380.315" /> 
<circle cx="40262.9" cy="31870" r="380.315" /> 
<circle cx="13292.9" cy="33788" r="380.315" /> 
<circle cx="13292.9" cy="29788" r="380.315" /> 
<circle cx="14752.9" cy="15480" r="380.315" /> 
<circle cx="14752.9" cy="11480" r="380.315" /> 
<circle cx="15752.9" cy="15480" r="380.315" /> 
<circle cx="15752.9" cy="11480" r="380.315" /> 
<circle cx="16752.9" cy="14480" r="380.315" /> 
<circle cx="16752.9" cy="10480" r="380.315" /> 
<circle cx="17752.9" cy="14480" r="380.315" /> 
<circle cx="17752.9" cy="10480" r="380.315" /> 
<circle cx="18752.9" cy="14480" r="380.315" /> 
<circle cx="18752.9" cy="10480" r="380.315" /> 
<circle cx="19752.9" cy="14480" r="380.315" /> 
<circle cx="19752.9" cy="10480" r="380.315" /> 
<circle cx="20752.9" cy="14480" r="380.315" /> 
<circle cx="20752.9" cy="10480" r="380.315" /> 
<circle cx="21752.9" cy="14480" r="380.315" /> 
<circle cx="21752.9" cy="10480" r="380.315" /> 
<circle cx="35982.9" cy="18010" r="380.315" /> 
<circle cx="39982.9" cy="18010" r="380.315" /> 
<circle cx="14326.9" cy="33524" r="380.315" /> 
<circle cx="14326.9" cy="29524" r="380.315" /> 
<polyline style="fill-rule:evenodd;"
points="30383,21760
29622,21760
29622,20999
30383,20999
30383,21760
" /> 
<circle cx="30002.9" cy="20380" r="380.315" /> 
<circle cx="30002.9" cy="19380" r="380.315" /> 
<polyline style="fill-rule:evenodd;"
points="29383,21760
28622,21760
28622,20999
29383,20999
29383,21760
" /> 
<circle cx="29002.9" cy="20380" r="380.315" /> 
<circle cx="29002.9" cy="19380" r="380.315" /> 
<polyline style="fill-rule:evenodd;"
points="32972,34399
33733,34399
33733,35160
32972,35160
32972,34399
" /> 
<circle cx="33352.9" cy="35780" r="380.315" /> 
<circle cx="33352.9" cy="36780" r="380.315" /> 
<polyline style="fill-rule:evenodd;"
points="31972,34399
32733,34399
32733,35160
31972,35160
31972,34399
" /> 
<circle cx="32352.9" cy="35780" r="380.315" /> 
<circle cx="32352.9" cy="36780" r="380.315" /> 
<polyline style="fill-rule:evenodd;"
points="30972,34399
31733,34399
31733,35160
30972,35160
30972,34399
" /> 
<circle cx="31352.9" cy="35780" r="380.315" /> 
<circle cx="31352.9" cy="36780" r="380.315" /> 
<polyline style="fill-rule:evenodd;"
points="37200,22377
37961,22377
37961,23138
37200,23138
37200,22377
" /> 
<circle cx="37580.9" cy="23758" r="380.315" /> 
<circle cx="37580.9" cy="24758" r="380.315" /> 
<polyline style="fill-rule:evenodd;"
points="37367,14920
37367,11259
41028,11259
41028,14920
37367,14920
" /> 
<circle cx="32697.9" cy="12090" r="430.315" /> 
<polyline style="fill-rule:evenodd;"
points="32267,13520
32267,12659
33128,12659
33128,13520
32267,13520
" /> 
<circle cx="32697.9" cy="14090" r="430.315" /> 
<polyline style="fill-rule:evenodd;"
points="15508,31390
15508,30329
16289,30329
16289,31390
15508,31390
" /> 
</g>
<g style="fill:#000000; fill-opacity:1.0; 
stroke:#000000; stroke-width:820; stroke-opacity:1; 
stroke-linecap:round; stroke-linejoin:round;">
<path d="M16898 30719
L16898 30999
" />
<path d="M17898 30719
L17898 30999
" />
<path d="M18898 30719
L18898 30999
" />
<path d="M19898 30719
L19898 30999
" />
<path d="M20898 30719
L20898 30999
" />
<path d="M21898 30719
L21898 30999
" />
<path d="M22898 30719
L22898 30999
" />
<path d="M23898 30719
L23898 30999
" />
<path d="M24898 30719
L24898 30999
" />
<path d="M25898 30719
L25898 30999
" />
<path d="M26898 30719
L26898 30999
" />
<path d="M27898 30719
L27898 30999
" />
<path d="M28898 30719
L28898 30999
" />
<path d="M29898 30719
L29898 30999
" />
<path d="M30898 30719
L30898 30999
" />
<path d="M31898 30719
L31898 30999
" />
<path d="M32898 30719
L32898 30999
" />
<path d="M33898 30719
L33898 30999
" />
<path d="M34898 30719
L34898 30999
" />
<path d="M34898 24719
L34898 24999
" />
<path d="M33898 24719
L33898 24999
" />
<path d="M32898 24719
L32898 24999
" />
<path d="M31898 24719
L31898 24999
" />
<path d="M30898 24719
L30898 24999
" />
<path d="M29898 24719
L29898 24999
" />
<path d="M28898 24719
L28898 24999
" />
<path d="M27898 24719
L27898 24999
" />
<path d="M26898 24719
L26898 24999
" />
<path d="M25898 24719
L25898 24999
" />
<path d="M24898 24719
L24898 24999
" />
<path d="M23898 24719
L23898 24999
" />
<path d="M22898 24719
L22898 24999
" />
<path d="M21898 24719
L21898 24999
" />
<path d="M20898 24719
L20898 24999
" />
<path d="M19898 24719
L19898 24999
" />
<path d="M18898 24719
L18898 24999
" />
<path d="M17898 24719
L17898 24999
" />
<path d="M16898 24719
L16898 24999
" />
<path d="M15898 24719
L15898 24999
" />
<path d="M19254 29187
L19254 29467
" />
<path d="M20254 29187
L20254 29467
" />
<path d="M21254 29187
L21254 29467
" />
<path d="M22254 29187
L22254 29467
" />
<path d="M23254 29187
L23254 29467
" />
<path d="M24254 29187
L24254 29467
" />
<path d="M25254 29187
L25254 29467
" />
<path d="M26254 29187
L26254 29467
" />
<path d="M27254 29187
L27254 29467
" />
<path d="M28254 29187
L28254 29467
" />
<path d="M29254 29187
L29254 29467
" />
<path d="M30254 29187
L30254 29467
" />
<path d="M31254 29187
L31254 29467
" />
</g>
<g style="fill:#000000; fill-opacity:1.0; 
stroke:#000000; stroke-width:39.3701; stroke-opacity:1; 
stroke-linecap:round; stroke-linejoin:round;">
<polyline style="fill-rule:evenodd;"
points="17864,29858
17864,28797
18645,28797
18645,29858
17864,29858
" /> 
</g>
<g style="fill:#000000; fill-opacity:1.0; 
stroke:#000000; stroke-width:820; stroke-opacity:1; 
stroke-linecap:round; stroke-linejoin:round;">
<path d="M31254 26187
L31254 26467
" />
<path d="M30254 26187
L30254 26467
" />
<path d="M29254 26187
L29254 26467
" />
<path d="M28254 26187
L28254 26467
" />
<path d="M27254 26187
L27254 26467
" />
<path d="M26254 26187
L26254 26467
" />
<path d="M25254 26187
L25254 26467
" />
<path d="M24254 26187
L24254 26467
" />
<path d="M23254 26187
L23254 26467
" />
<path d="M22254 26187
L22254 26467
" />
<path d="M21254 26187
L21254 26467
" />
<path d="M20254 26187
L20254 26467
" />
<path d="M19254 26187
L19254 26467
" />
<path d="M18254 26187
L18254 26467
" />
</g>
<g style="fill:#000000; fill-opacity:1.0; 
stroke:#000000; stroke-width:39.3701; stroke-opacity:1; 
stroke-linecap:round; stroke-linejoin:round;">
<polyline style="fill-rule:evenodd;"
points="15522,22830
15522,21769
16303,21769
16303,22830
15522,22830
" /> 
</g>
<g style="fill:#000000; fill-opacity:1.0; 
stroke:#000000; stroke-width:820; stroke-opacity:1; 
stroke-linecap:round; stroke-linejoin:round;">
<path d="M16912 22159
L16912 22439
" />
<path d="M17912 22159
L17912 22439
" />
<path d="M18912 22159
L18912 22439
" />
<path d="M19912 22159
L19912 22439
" />
<path d="M20912 22159
L20912 22439
" />
<path d="M21912 22159
L21912 22439
" />
<path d="M22912 22159
L22912 22439
" />
<path d="M23912 22159
L23912 22439
" />
<path d="M23912 19159
L23912 19439
" />
<path d="M22912 19159
L22912 19439
" />
<path d="M21912 19159
L21912 19439
" />
<path d="M20912 19159
L20912 19439
" />
<path d="M19912 19159
L19912 19439
" />
<path d="M18912 19159
L18912 19439
" />
<path d="M17912 19159
L17912 19439
" />
<path d="M16912 19159
L16912 19439
" />
<path d="M15912 19159
L15912 19439
" />
</g>
<g style="fill:#000000; fill-opacity:1.0; 
stroke:#000000; stroke-width:39.3701; stroke-opacity:1; 
stroke-linecap:round; stroke-linejoin:round;">
<polyline style="fill-rule:evenodd;"
points="31433,13239
31433,14300
30652,14300
30652,13239
31433,13239
" /> 
</g>
<g style="fill:#000000; fill-opacity:1.0; 
stroke:#000000; stroke-width:820; stroke-opacity:1; 
stroke-linecap:round; stroke-linejoin:round;">
<path d="M30042 13909
L30042 13629
" />
<path d="M29042 13909
L29042 13629
" />
<path d="M28042 13909
L28042 13629
" />
<path d="M27042 13909
L27042 13629
" />
<path d="M26042 13909
L26042 13629
" />
<path d="M25042 13909
L25042 13629
" />
<path d="M24042 13909
L24042 13629
" />
<path d="M24042 16909
L24042 16629
" />
<path d="M25042 16909
L25042 16629
" />
<path d="M26042 16909
L26042 16629
" />
<path d="M27042 16909
L27042 16629
" />
<path d="M28042 16909
L28042 16629
" />
<path d="M29042 16909
L29042 16629
" />
<path d="M30042 16909
L30042 16629
" />
<path d="M31042 16909
L31042 16629
" />
</g>
<g style="fill:#000000; fill-opacity:1.0; 
stroke:#000000; stroke-width:39.3701; stroke-opacity:1; 
stroke-linecap:round; stroke-linejoin:round;">
<polyline style="fill-rule:evenodd;"
points="35458,19044
35458,19755
34747,19755
34747,19044
35458,19044
" /> 
<circle cx="38102.9" cy="19400" r="355.315" /> 
</g>
<g style="fill:#000000; fill-opacity:1.0; 
stroke:#000000; stroke-width:987; stroke-opacity:1; 
stroke-linecap:round; stroke-linejoin:round;">
<path d="M27751 33641
L27751 33838
" />
<path d="M29673 33641
L29673 33838
" />
</g>
<g style="fill:#000000; fill-opacity:1.0; 
stroke:#000000; stroke-width:39.3701; stroke-opacity:1; 
stroke-linecap:round; stroke-linejoin:round;">
<polyline style="fill-rule:evenodd;"
points="12308,35644
12308,36355
11597,36355
11597,35644
12308,35644
" /> 
<circle cx="10952.9" cy="36000" r="355.315" /> 
<polyline style="fill-rule:evenodd;"
points="39733,20930
39022,20930
39022,20219
39733,20219
39733,20930
" /> 
<circle cx="39377.9" cy="19575" r="355.315" /> 
<circle cx="29852.9" cy="35530" r="355.315" /> 
<circle cx="29852.9" cy="36530" r="355.315" /> 
<circle cx="28102.9" cy="35530" r="355.315" /> 
<circle cx="28102.9" cy="36530" r="355.315" /> 
<circle cx="32212.9" cy="32510" r="355.315" /> 
<circle cx="32212.9" cy="33510" r="355.315" /> 
<polyline style="fill-rule:evenodd;"
points="32622,9910
32622,8749
33783,8749
33783,9910
32622,9910
" /> 
<circle cx="35202.9" cy="9330" r="580.315" /> 
<polyline style="fill-rule:evenodd;"
points="36622,9910
36622,8749
37783,8749
37783,9910
36622,9910
" /> 
<circle cx="39202.9" cy="9330" r="580.315" /> 
<polyline style="fill-rule:evenodd;"
points="23683,36949
23683,38110
22522,38110
22522,36949
23683,36949
" /> 
<circle cx="21102.9" cy="37530" r="580.315" /> 
<polyline style="fill-rule:evenodd;"
points="19683,36949
19683,38110
18522,38110
18522,36949
19683,36949
" /> 
<circle cx="17102.9" cy="37530" r="580.315" /> 
<polyline style="fill-rule:evenodd;"
points="41382,15859
42543,15859
42543,17020
41382,17020
41382,15859
" /> 
<circle cx="41962.9" cy="18440" r="580.315" /> 
<polyline style="fill-rule:evenodd;"
points="31253,8649
31253,9810
30092,9810
30092,8649
31253,8649
" /> 
<circle cx="28672.9" cy="9230" r="580.315" /> 
<polyline style="fill-rule:evenodd;"
points="27238,8644
27238,9805
26077,9805
26077,8644
27238,8644
" /> 
<circle cx="24657.9" cy="9225" r="580.315" /> 
<polyline style="fill-rule:evenodd;"
points="35288,31934
35288,32645
34577,32645
34577,31934
35288,31934
" /> 
<circle cx="33932.9" cy="32290" r="355.315" /> 
<polyline style="fill-rule:evenodd;"
points="33567,23645
33567,22934
34278,22934
34278,23645
33567,23645
" /> 
<circle cx="34922.9" cy="23290" r="355.315" /> 
<polyline style="fill-rule:evenodd;"
points="25507,23545
25507,22834
26218,22834
26218,23545
25507,23545
" /> 
<circle cx="26862.9" cy="23190" r="355.315" /> 
<circle cx="27862.9" cy="23190" r="355.315" /> 
<circle cx="28862.9" cy="23190" r="355.315" /> 
<polyline style="fill-rule:evenodd;"
points="40297,24335
40297,23624
41008,23624
41008,24335
40297,24335
" /> 
<circle cx="41652.9" cy="23980" r="355.315" /> 
<circle cx="42652.9" cy="23980" r="355.315" /> 
<polyline style="fill-rule:evenodd;"
points="40247,21885
40247,21174
40958,21174
40958,21885
40247,21885
" /> 
<circle cx="41602.9" cy="21530" r="355.315" /> 
<circle cx="42602.9" cy="21530" r="355.315" /> 
<polyline style="fill-rule:evenodd;"
points="26034,20873
25323,20873
25323,20162
26034,20162
26034,20873
" /> 
<circle cx="25678.9" cy="19518" r="355.315" /> 
<circle cx="37092.9" cy="35210" r="380.315" /> 
<circle cx="41092.9" cy="35210" r="380.315" /> 
<polyline style="fill-rule:evenodd;"
points="42608,33989
41897,33989
41897,33278
42608,33278
42608,33989
" /> 
<circle cx="41252.9" cy="33634" r="355.315" /> 
<circle cx="41252.9" cy="32634" r="355.315" /> 
<circle cx="36522.9" cy="37450" r="410.315" /> 
<circle cx="36522.9" cy="38450" r="410.315" /> 
<polyline style="fill-rule:evenodd;"
points="38417,16635
38417,15924
39128,15924
39128,16635
38417,16635
" /> 
<circle cx="39772.9" cy="16280" r="355.315" /> 
<polyline style="fill-rule:evenodd;"
points="39458,33074
39458,33785
38747,33785
38747,33074
39458,33074
" /> 
<circle cx="38102.9" cy="33430" r="355.315" /> 
<polyline style="fill-rule:evenodd;"
points="39382,36189
40093,36189
40093,36900
39382,36900
39382,36189
" /> 
<circle cx="39737.9" cy="37545" r="355.315" /> 
<circle cx="32802.9" cy="15220" r="355.315" /> 
<circle cx="32802.9" cy="16220" r="355.315" /> 
<circle cx="36802.9" cy="34130" r="355.315" /> 
<circle cx="36802.9" cy="33130" r="355.315" /> 
<circle cx="26042.9" cy="32020" r="355.315" /> 
<circle cx="27042.9" cy="32020" r="355.315" /> 
<circle cx="26572.9" cy="15200" r="355.315" /> 
<circle cx="25572.9" cy="15200" r="355.315" /> 
<circle cx="22302.9" cy="20830" r="355.315" /> 
<circle cx="21302.9" cy="20830" r="355.315" /> 
<polyline style="fill-rule:evenodd;"
points="31232,18681
31993,18681
31993,19442
31232,19442
31232,18681
" /> 
<circle cx="31612.9" cy="20062" r="380.315" /> 
<circle cx="31612.9" cy="21062" r="380.315" /> 
<polyline style="fill-rule:evenodd;"
points="32978,20435
32267,20435
32267,19724
32978,19724
32978,20435
" /> 
<circle cx="32622.9" cy="23080" r="355.315" /> 
<polyline style="fill-rule:evenodd;"
points="34636,35809
34636,36520
33925,36520
33925,35809
34636,35809
" /> 
<circle cx="37280.9" cy="36165" r="355.315" /> 
<circle cx="23252.9" cy="11880" r="880.315" /> 
<circle cx="42502.9" cy="11880" r="880.315" /> 
<circle cx="42502.9" cy="38380" r="880.315" /> 
<circle cx="10502.9" cy="38380" r="880.315" /> 
</g> 
</svg>
