<?xml version="1.0" standalone="no"?>
 <!DOCTYPE svg PUBLIC "-//W3C//DTD SVG 1.1//EN" 
 "http://www.w3.org/Graphics/SVG/1.1/DTD/svg11.dtd"> 
<svg xmlns="http://www.w3.org/2000/svg" version="1.1" 
    width="11.397cm" height="9.80694cm" viewBox="0 0 44870 38610 ">
<title>SVG Picture created as pinguicaro-F_Mask.svg date 2014/10/07 09:39:42 </title>
  <desc>Picture generated by PCBNEW </desc>
<g style="fill:#000000; fill-opacity:1;stroke:#000000; stroke-opacity:1;
stroke-linecap:round; stroke-linejoin:round; "
 transform="translate(0 0) scale(1 1)">
</g>
<g style="fill:#000000; fill-opacity:0.0; 
stroke:#000000; stroke-width:39.3701; stroke-opacity:1; 
stroke-linecap:round; stroke-linejoin:round;">
</g>
<g style="fill:#000000; fill-opacity:1.0; 
stroke:#000000; stroke-width:39.3701; stroke-opacity:1; 
stroke-linecap:round; stroke-linejoin:round;">
<circle cx="28510" cy="25610" r="380.315" /> 
<circle cx="28510" cy="26610" r="380.315" /> 
<circle cx="29297" cy="26610" r="380.315" /> 
<circle cx="29297" cy="25610" r="380.315" /> 
<circle cx="30360" cy="23748" r="867.815" /> 
<circle cx="30360" cy="28472" r="867.815" /> 
<circle cx="4250" cy="33420" r="355.315" /> 
<circle cx="6250" cy="33420" r="355.315" /> 
<circle cx="4250" cy="36420" r="355.315" /> 
<circle cx="6250" cy="36420" r="355.315" /> 
<polyline style="fill-rule:evenodd;"
points="14255,15824
14255,16535
13544,16535
13544,15824
14255,15824
" /> 
<circle cx="12900" cy="16180" r="355.315" /> 
<circle cx="11900" cy="16180" r="355.315" /> 
<circle cx="10900" cy="16180" r="355.315" /> 
<circle cx="9900" cy="16180" r="355.315" /> 
<circle cx="8900" cy="16180" r="355.315" /> 
<circle cx="7900" cy="16180" r="355.315" /> 
<circle cx="6900" cy="16180" r="355.315" /> 
<polyline style="fill-rule:evenodd;"
points="7544,31655
7544,30944
8255,30944
8255,31655
7544,31655
" /> 
<circle cx="8900" cy="31300" r="355.315" /> 
<circle cx="9900" cy="31300" r="355.315" /> 
<circle cx="10900" cy="31300" r="355.315" /> 
<circle cx="11900" cy="31300" r="355.315" /> 
<circle cx="12900" cy="31300" r="355.315" /> 
<circle cx="13900" cy="31300" r="355.315" /> 
<circle cx="14900" cy="31300" r="355.315" /> 
<polyline style="fill-rule:evenodd;"
points="7514,32771
7514,32060
8225,32060
8225,32771
7514,32771
" /> 
<circle cx="8870" cy="32416" r="355.315" /> 
<circle cx="9870" cy="32416" r="355.315" /> 
<circle cx="10870" cy="32416" r="355.315" /> 
<circle cx="11870" cy="32416" r="355.315" /> 
<circle cx="12870" cy="32416" r="355.315" /> 
<circle cx="13870" cy="32416" r="355.315" /> 
<circle cx="14870" cy="32416" r="355.315" /> 
<polyline style="fill-rule:evenodd;"
points="7544,30535
7544,29824
8255,29824
8255,30535
7544,30535
" /> 
<circle cx="8900" cy="30180" r="355.315" /> 
<circle cx="9900" cy="30180" r="355.315" /> 
<circle cx="10900" cy="30180" r="355.315" /> 
<circle cx="11900" cy="30180" r="355.315" /> 
<circle cx="12900" cy="30180" r="355.315" /> 
<circle cx="13900" cy="30180" r="355.315" /> 
<circle cx="14900" cy="30180" r="355.315" /> 
<polyline style="fill-rule:evenodd;"
points="6550,22119
6550,21408
7261,21408
7261,22119
6550,22119
" /> 
<circle cx="7906" cy="21764" r="355.315" /> 
<circle cx="8906" cy="21764" r="355.315" /> 
<circle cx="9906" cy="21764" r="355.315" /> 
<circle cx="10906" cy="21764" r="355.315" /> 
<circle cx="11906" cy="21764" r="355.315" /> 
<circle cx="12906" cy="21764" r="355.315" /> 
<circle cx="13906" cy="21764" r="355.315" /> 
<circle cx="16195" cy="35195" r="380.315" /> 
<circle cx="16195" cy="31195" r="380.315" /> 
<circle cx="24400" cy="19710" r="380.315" /> 
<circle cx="28400" cy="19710" r="380.315" /> 
<circle cx="24850" cy="18525" r="380.315" /> 
<circle cx="28850" cy="18525" r="380.315" /> 
<circle cx="27260" cy="30020" r="380.315" /> 
<circle cx="31260" cy="30020" r="380.315" /> 
<circle cx="4290" cy="31938" r="380.315" /> 
<circle cx="4290" cy="27938" r="380.315" /> 
<circle cx="5750" cy="13630" r="380.315" /> 
<circle cx="5750" cy="9630" r="380.315" /> 
<circle cx="6750" cy="13630" r="380.315" /> 
<circle cx="6750" cy="9630" r="380.315" /> 
<circle cx="7750" cy="12630" r="380.315" /> 
<circle cx="7750" cy="8630" r="380.315" /> 
<circle cx="8750" cy="12630" r="380.315" /> 
<circle cx="8750" cy="8630" r="380.315" /> 
<circle cx="9750" cy="12630" r="380.315" /> 
<circle cx="9750" cy="8630" r="380.315" /> 
<circle cx="10750" cy="12630" r="380.315" /> 
<circle cx="10750" cy="8630" r="380.315" /> 
<circle cx="11750" cy="12630" r="380.315" /> 
<circle cx="11750" cy="8630" r="380.315" /> 
<circle cx="12750" cy="12630" r="380.315" /> 
<circle cx="12750" cy="8630" r="380.315" /> 
<circle cx="26980" cy="16160" r="380.315" /> 
<circle cx="30980" cy="16160" r="380.315" /> 
<circle cx="5324" cy="31674" r="380.315" /> 
<circle cx="5324" cy="27674" r="380.315" /> 
<polyline style="fill-rule:evenodd;"
points="22980,18960
22219,18960
22219,18199
22980,18199
22980,18960
" /> 
<circle cx="22600" cy="17580" r="380.315" /> 
<circle cx="22600" cy="16580" r="380.315" /> 
<polyline style="fill-rule:evenodd;"
points="21980,18960
21219,18960
21219,18199
21980,18199
21980,18960
" /> 
<circle cx="21600" cy="17580" r="380.315" /> 
<circle cx="21600" cy="16580" r="380.315" /> 
<polyline style="fill-rule:evenodd;"
points="23969,32549
24730,32549
24730,33310
23969,33310
23969,32549
" /> 
<circle cx="24350" cy="33930" r="380.315" /> 
<circle cx="24350" cy="34930" r="380.315" /> 
<polyline style="fill-rule:evenodd;"
points="22969,32549
23730,32549
23730,33310
22969,33310
22969,32549
" /> 
<circle cx="23350" cy="33930" r="380.315" /> 
<circle cx="23350" cy="34930" r="380.315" /> 
<polyline style="fill-rule:evenodd;"
points="21969,32549
22730,32549
22730,33310
21969,33310
21969,32549
" /> 
<circle cx="22350" cy="33930" r="380.315" /> 
<circle cx="22350" cy="34930" r="380.315" /> 
<polyline style="fill-rule:evenodd;"
points="28197,20527
28958,20527
28958,21288
28197,21288
28197,20527
" /> 
<circle cx="28578" cy="21908" r="380.315" /> 
<circle cx="28578" cy="22908" r="380.315" /> 
<polyline style="fill-rule:evenodd;"
points="28364,13070
28364,9409
32025,9409
32025,13070
28364,13070
" /> 
<circle cx="23695" cy="10240" r="430.315" /> 
<polyline style="fill-rule:evenodd;"
points="23264,11670
23264,10809
24125,10809
24125,11670
23264,11670
" /> 
<circle cx="23695" cy="12240" r="430.315" /> 
<circle cx="4100" cy="26050" r="410.315" /> 
<circle cx="5100" cy="26050" r="410.315" /> 
<circle cx="1500" cy="27880" r="410.315" /> 
<circle cx="2500" cy="27880" r="410.315" /> 
<circle cx="1500" cy="24380" r="410.315" /> 
<circle cx="2500" cy="24380" r="410.315" /> 
<circle cx="1500" cy="20880" r="410.315" /> 
<circle cx="2500" cy="20880" r="410.315" /> 
<circle cx="1500" cy="17380" r="410.315" /> 
<circle cx="2500" cy="17380" r="410.315" /> 
<circle cx="1500" cy="13880" r="410.315" /> 
<circle cx="2500" cy="13880" r="410.315" /> 
<circle cx="1500" cy="10380" r="410.315" /> 
<circle cx="2500" cy="10380" r="410.315" /> 
<circle cx="1500" cy="6880" r="410.315" /> 
<circle cx="2500" cy="6880" r="410.315" /> 
<circle cx="27630" cy="13990" r="410.315" /> 
<circle cx="27630" cy="14990" r="410.315" /> 
<circle cx="1500" cy="31380" r="410.315" /> 
<circle cx="2500" cy="31380" r="410.315" /> 
<polyline style="fill-rule:evenodd;"
points="6505,29540
6505,28479
7286,28479
7286,29540
6505,29540
" /> 
</g>
<g style="fill:#000000; fill-opacity:1.0; 
stroke:#000000; stroke-width:820; stroke-opacity:1; 
stroke-linecap:round; stroke-linejoin:round;">
<path d="M7896 28869
L7896 29149
" />
<path d="M8896 28869
L8896 29149
" />
<path d="M9896 28869
L9896 29149
" />
<path d="M10896 28869
L10896 29149
" />
<path d="M11896 28869
L11896 29149
" />
<path d="M12896 28869
L12896 29149
" />
<path d="M13896 28869
L13896 29149
" />
<path d="M14896 28869
L14896 29149
" />
<path d="M15896 28869
L15896 29149
" />
<path d="M16896 28869
L16896 29149
" />
<path d="M17896 28869
L17896 29149
" />
<path d="M18896 28869
L18896 29149
" />
<path d="M19896 28869
L19896 29149
" />
<path d="M20896 28869
L20896 29149
" />
<path d="M21896 28869
L21896 29149
" />
<path d="M22896 28869
L22896 29149
" />
<path d="M23896 28869
L23896 29149
" />
<path d="M24896 28869
L24896 29149
" />
<path d="M25896 28869
L25896 29149
" />
<path d="M25896 22869
L25896 23149
" />
<path d="M24896 22869
L24896 23149
" />
<path d="M23896 22869
L23896 23149
" />
<path d="M22896 22869
L22896 23149
" />
<path d="M21896 22869
L21896 23149
" />
<path d="M20896 22869
L20896 23149
" />
<path d="M19896 22869
L19896 23149
" />
<path d="M18896 22869
L18896 23149
" />
<path d="M17896 22869
L17896 23149
" />
<path d="M16896 22869
L16896 23149
" />
<path d="M15896 22869
L15896 23149
" />
<path d="M14896 22869
L14896 23149
" />
<path d="M13896 22869
L13896 23149
" />
<path d="M12896 22869
L12896 23149
" />
<path d="M11896 22869
L11896 23149
" />
<path d="M10896 22869
L10896 23149
" />
<path d="M9896 22869
L9896 23149
" />
<path d="M8896 22869
L8896 23149
" />
<path d="M7896 22869
L7896 23149
" />
<path d="M6896 22869
L6896 23149
" />
<path d="M10252 27337
L10252 27617
" />
<path d="M11252 27337
L11252 27617
" />
<path d="M12252 27337
L12252 27617
" />
<path d="M13252 27337
L13252 27617
" />
<path d="M14252 27337
L14252 27617
" />
<path d="M15252 27337
L15252 27617
" />
<path d="M16252 27337
L16252 27617
" />
<path d="M17252 27337
L17252 27617
" />
<path d="M18252 27337
L18252 27617
" />
<path d="M19252 27337
L19252 27617
" />
<path d="M20252 27337
L20252 27617
" />
<path d="M21252 27337
L21252 27617
" />
<path d="M22252 27337
L22252 27617
" />
</g>
<g style="fill:#000000; fill-opacity:1.0; 
stroke:#000000; stroke-width:39.3701; stroke-opacity:1; 
stroke-linecap:round; stroke-linejoin:round;">
<polyline style="fill-rule:evenodd;"
points="8861,28008
8861,26947
9642,26947
9642,28008
8861,28008
" /> 
</g>
<g style="fill:#000000; fill-opacity:1.0; 
stroke:#000000; stroke-width:820; stroke-opacity:1; 
stroke-linecap:round; stroke-linejoin:round;">
<path d="M22252 24337
L22252 24617
" />
<path d="M21252 24337
L21252 24617
" />
<path d="M20252 24337
L20252 24617
" />
<path d="M19252 24337
L19252 24617
" />
<path d="M18252 24337
L18252 24617
" />
<path d="M17252 24337
L17252 24617
" />
<path d="M16252 24337
L16252 24617
" />
<path d="M15252 24337
L15252 24617
" />
<path d="M14252 24337
L14252 24617
" />
<path d="M13252 24337
L13252 24617
" />
<path d="M12252 24337
L12252 24617
" />
<path d="M11252 24337
L11252 24617
" />
<path d="M10252 24337
L10252 24617
" />
<path d="M9252 24337
L9252 24617
" />
</g>
<g style="fill:#000000; fill-opacity:1.0; 
stroke:#000000; stroke-width:39.3701; stroke-opacity:1; 
stroke-linecap:round; stroke-linejoin:round;">
<polyline style="fill-rule:evenodd;"
points="6519,20980
6519,19919
7300,19919
7300,20980
6519,20980
" /> 
</g>
<g style="fill:#000000; fill-opacity:1.0; 
stroke:#000000; stroke-width:820; stroke-opacity:1; 
stroke-linecap:round; stroke-linejoin:round;">
<path d="M7910 20309
L7910 20589
" />
<path d="M8910 20309
L8910 20589
" />
<path d="M9910 20309
L9910 20589
" />
<path d="M10910 20309
L10910 20589
" />
<path d="M11910 20309
L11910 20589
" />
<path d="M12910 20309
L12910 20589
" />
<path d="M13910 20309
L13910 20589
" />
<path d="M14910 20309
L14910 20589
" />
<path d="M14910 17309
L14910 17589
" />
<path d="M13910 17309
L13910 17589
" />
<path d="M12910 17309
L12910 17589
" />
<path d="M11910 17309
L11910 17589
" />
<path d="M10910 17309
L10910 17589
" />
<path d="M9910 17309
L9910 17589
" />
<path d="M8910 17309
L8910 17589
" />
<path d="M7910 17309
L7910 17589
" />
<path d="M6910 17309
L6910 17589
" />
</g>
<g style="fill:#000000; fill-opacity:1.0; 
stroke:#000000; stroke-width:39.3701; stroke-opacity:1; 
stroke-linecap:round; stroke-linejoin:round;">
<polyline style="fill-rule:evenodd;"
points="22430,11389
22430,12450
21649,12450
21649,11389
22430,11389
" /> 
</g>
<g style="fill:#000000; fill-opacity:1.0; 
stroke:#000000; stroke-width:820; stroke-opacity:1; 
stroke-linecap:round; stroke-linejoin:round;">
<path d="M21040 12059
L21040 11779
" />
<path d="M20040 12059
L20040 11779
" />
<path d="M19040 12059
L19040 11779
" />
<path d="M18040 12059
L18040 11779
" />
<path d="M17040 12059
L17040 11779
" />
<path d="M16040 12059
L16040 11779
" />
<path d="M15040 12059
L15040 11779
" />
<path d="M15040 15059
L15040 14779
" />
<path d="M16040 15059
L16040 14779
" />
<path d="M17040 15059
L17040 14779
" />
<path d="M18040 15059
L18040 14779
" />
<path d="M19040 15059
L19040 14779
" />
<path d="M20040 15059
L20040 14779
" />
<path d="M21040 15059
L21040 14779
" />
<path d="M22040 15059
L22040 14779
" />
</g>
<g style="fill:#000000; fill-opacity:1.0; 
stroke:#000000; stroke-width:39.3701; stroke-opacity:1; 
stroke-linecap:round; stroke-linejoin:round;">
<polyline style="fill-rule:evenodd;"
points="26455,17194
26455,17905
25744,17905
25744,17194
26455,17194
" /> 
<circle cx="29100" cy="17550" r="355.315" /> 
</g>
<g style="fill:#000000; fill-opacity:1.0; 
stroke:#000000; stroke-width:987; stroke-opacity:1; 
stroke-linecap:round; stroke-linejoin:round;">
<path d="M18749 31791
L18749 31988
" />
<path d="M20671 31791
L20671 31988
" />
</g>
<g style="fill:#000000; fill-opacity:1.0; 
stroke:#000000; stroke-width:39.3701; stroke-opacity:1; 
stroke-linecap:round; stroke-linejoin:round;">
<polyline style="fill-rule:evenodd;"
points="3305,33794
3305,34505
2594,34505
2594,33794
3305,33794
" /> 
<circle cx="1950" cy="34150" r="355.315" /> 
<polyline style="fill-rule:evenodd;"
points="30730,19080
30019,19080
30019,18369
30730,18369
30730,19080
" /> 
<circle cx="30375" cy="17725" r="355.315" /> 
<circle cx="20850" cy="33680" r="355.315" /> 
<circle cx="20850" cy="34680" r="355.315" /> 
<circle cx="19100" cy="33680" r="355.315" /> 
<circle cx="19100" cy="34680" r="355.315" /> 
<circle cx="23210" cy="30660" r="355.315" /> 
<circle cx="23210" cy="31660" r="355.315" /> 
<polyline style="fill-rule:evenodd;"
points="23619,8060
23619,6899
24780,6899
24780,8060
23619,8060
" /> 
<circle cx="26200" cy="7480" r="580.315" /> 
<polyline style="fill-rule:evenodd;"
points="27619,8060
27619,6899
28780,6899
28780,8060
27619,8060
" /> 
<circle cx="30200" cy="7480" r="580.315" /> 
<polyline style="fill-rule:evenodd;"
points="14680,35099
14680,36260
13519,36260
13519,35099
14680,35099
" /> 
<circle cx="12100" cy="35680" r="580.315" /> 
<polyline style="fill-rule:evenodd;"
points="10680,35099
10680,36260
9519,36260
9519,35099
10680,35099
" /> 
<circle cx="8100" cy="35680" r="580.315" /> 
<polyline style="fill-rule:evenodd;"
points="32379,14009
33540,14009
33540,15170
32379,15170
32379,14009
" /> 
<circle cx="32960" cy="16590" r="580.315" /> 
<polyline style="fill-rule:evenodd;"
points="22250,6799
22250,7960
21089,7960
21089,6799
22250,6799
" /> 
<circle cx="19670" cy="7380" r="580.315" /> 
<polyline style="fill-rule:evenodd;"
points="18235,6794
18235,7955
17074,7955
17074,6794
18235,6794
" /> 
<circle cx="15655" cy="7375" r="580.315" /> 
<polyline style="fill-rule:evenodd;"
points="26285,30084
26285,30795
25574,30795
25574,30084
26285,30084
" /> 
<circle cx="24930" cy="30440" r="355.315" /> 
<polyline style="fill-rule:evenodd;"
points="24564,21795
24564,21084
25275,21084
25275,21795
24564,21795
" /> 
<circle cx="25920" cy="21440" r="355.315" /> 
<polyline style="fill-rule:evenodd;"
points="16504,21695
16504,20984
17215,20984
17215,21695
16504,21695
" /> 
<circle cx="17860" cy="21340" r="355.315" /> 
<circle cx="18860" cy="21340" r="355.315" /> 
<circle cx="19860" cy="21340" r="355.315" /> 
<polyline style="fill-rule:evenodd;"
points="31314,22345
31314,21634
32025,21634
32025,22345
31314,22345
" /> 
<circle cx="32670" cy="21990" r="355.315" /> 
<circle cx="33670" cy="21990" r="355.315" /> 
<polyline style="fill-rule:evenodd;"
points="34155,19324
34155,20035
33444,20035
33444,19324
34155,19324
" /> 
<circle cx="32800" cy="19680" r="355.315" /> 
<circle cx="31800" cy="19680" r="355.315" /> 
<polyline style="fill-rule:evenodd;"
points="17031,19023
16320,19023
16320,18312
17031,18312
17031,19023
" /> 
<circle cx="16676" cy="17668" r="355.315" /> 
<circle cx="28090" cy="33360" r="380.315" /> 
<circle cx="32090" cy="33360" r="380.315" /> 
<polyline style="fill-rule:evenodd;"
points="31559,31079
32270,31079
32270,31790
31559,31790
31559,31079
" /> 
<circle cx="32915" cy="31435" r="355.315" /> 
<circle cx="32915" cy="32435" r="355.315" /> 
<circle cx="27780" cy="34725" r="410.315" /> 
<circle cx="27780" cy="35725" r="410.315" /> 
<polyline style="fill-rule:evenodd;"
points="29414,14785
29414,14074
30125,14074
30125,14785
29414,14785
" /> 
<circle cx="30770" cy="14430" r="355.315" /> 
<polyline style="fill-rule:evenodd;"
points="30455,31224
30455,31935
29744,31935
29744,31224
30455,31224
" /> 
<circle cx="29100" cy="31580" r="355.315" /> 
<polyline style="fill-rule:evenodd;"
points="30379,34339
31090,34339
31090,35050
30379,35050
30379,34339
" /> 
<circle cx="30735" cy="35695" r="355.315" /> 
<circle cx="23800" cy="13370" r="355.315" /> 
<circle cx="23800" cy="14370" r="355.315" /> 
<circle cx="27800" cy="32280" r="355.315" /> 
<circle cx="27800" cy="31280" r="355.315" /> 
<circle cx="17040" cy="30170" r="355.315" /> 
<circle cx="18040" cy="30170" r="355.315" /> 
<circle cx="17570" cy="13350" r="355.315" /> 
<circle cx="16570" cy="13350" r="355.315" /> 
<circle cx="13300" cy="18980" r="355.315" /> 
<circle cx="12300" cy="18980" r="355.315" /> 
<circle cx="33600" cy="36180" r="880.315" /> 
<circle cx="33600" cy="7680" r="880.315" /> 
<circle cx="14300" cy="9930" r="880.315" /> 
<circle cx="1450" cy="36430" r="880.315" /> 
</g> 
</svg>
