<?xml version="1.0" standalone="no"?>
 <!DOCTYPE svg PUBLIC "-//W3C//DTD SVG 1.1//EN" 
 "http://www.w3.org/Graphics/SVG/1.1/DTD/svg11.dtd"> 
<svg xmlns="http://www.w3.org/2000/svg" version="1.1" 
    width="11.397cm" height="9.80694cm" viewBox="0 0 44870 38610 ">
<title>SVG Picture created as pinguicaro-F_Paste.svg date 2014/10/07 09:39:42 </title>
  <desc>Picture generated by PCBNEW </desc>
<g style="fill:#000000; fill-opacity:1;stroke:#000000; stroke-opacity:1;
stroke-linecap:round; stroke-linejoin:round; "
 transform="translate(0 0) scale(1 1)">
</g>
<g style="fill:#000000; fill-opacity:0.0; 
stroke:#000000; stroke-width:39.3701; stroke-opacity:1; 
stroke-linecap:round; stroke-linejoin:round;">
</g>
<g style="fill:#000000; fill-opacity:1.0; 
stroke:#000000; stroke-width:39.3701; stroke-opacity:1; 
stroke-linecap:round; stroke-linejoin:round;">
<circle cx="4100" cy="26050" r="310.315" /> 
<circle cx="5100" cy="26050" r="310.315" /> 
<circle cx="1500" cy="27880" r="310.315" /> 
<circle cx="2500" cy="27880" r="310.315" /> 
<circle cx="1500" cy="24380" r="310.315" /> 
<circle cx="2500" cy="24380" r="310.315" /> 
<circle cx="1500" cy="20880" r="310.315" /> 
<circle cx="2500" cy="20880" r="310.315" /> 
<circle cx="1500" cy="17380" r="310.315" /> 
<circle cx="2500" cy="17380" r="310.315" /> 
<circle cx="1500" cy="13880" r="310.315" /> 
<circle cx="2500" cy="13880" r="310.315" /> 
<circle cx="1500" cy="10380" r="310.315" /> 
<circle cx="2500" cy="10380" r="310.315" /> 
<circle cx="1500" cy="6880" r="310.315" /> 
<circle cx="2500" cy="6880" r="310.315" /> 
<circle cx="27630" cy="13990" r="310.315" /> 
<circle cx="27630" cy="14990" r="310.315" /> 
<circle cx="1500" cy="31380" r="310.315" /> 
<circle cx="2500" cy="31380" r="310.315" /> 
</g> 
</svg>
