<?xml version="1.0" standalone="no"?>
<!DOCTYPE svg PUBLIC "-//W3C//DTD SVG 1.1//EN" 
"http://www.w3.org/Graphics/SVG/1.1/DTD/svg11.dtd"> 
<svg
  xmlns="http://www.w3.org/2000/svg"
  version="1.1"
  width="11.7in" height="8.267in" viewBox="0 0 117000 82670 "
>
  <title>SVG Picture created as pinguicaro-SoldP_Front.svg </title>
  <desc>Picture generated by wxSVG v0101 </desc>
  <g style="fill:black; stroke:black; stroke-width:1">
</g>
<g style="fill:#000000; fill-opacity:0.0; 
  stroke:#000000; stroke-linecap:round; stroke-linejoin:round; stroke-opacity:1.0; stroke-opacity:1.0; stroke-width:60" 
   transform="translate(0 0) scale(1 1)">
<ellipse cx="38055" cy="37205" rx="330" ry="330"  /> 
<ellipse cx="37055" cy="37205" rx="330" ry="330"  /> 
<ellipse cx="28900" cy="30700" rx="330" ry="330"  /> 
<ellipse cx="27900" cy="30700" rx="330" ry="330"  /> 
<ellipse cx="28900" cy="27200" rx="330" ry="330"  /> 
<ellipse cx="27900" cy="27200" rx="330" ry="330"  /> 
<ellipse cx="28900" cy="23700" rx="330" ry="330"  /> 
<ellipse cx="27900" cy="23700" rx="330" ry="330"  /> 
<ellipse cx="28900" cy="20200" rx="330" ry="330"  /> 
<ellipse cx="27900" cy="20200" rx="330" ry="330"  /> 
<ellipse cx="28900" cy="16700" rx="330" ry="330"  /> 
<ellipse cx="27900" cy="16700" rx="330" ry="330"  /> 
<ellipse cx="28900" cy="13200" rx="330" ry="330"  /> 
<ellipse cx="27900" cy="13200" rx="330" ry="330"  /> 
<ellipse cx="28900" cy="9700" rx="330" ry="330"  /> 
<ellipse cx="27900" cy="9700" rx="330" ry="330"  /> 
<ellipse cx="50400" cy="19700" rx="330" ry="330"  /> 
<ellipse cx="51400" cy="19700" rx="330" ry="330"  /> 
<ellipse cx="56080" cy="37040" rx="330" ry="330"  /> 
<ellipse cx="56080" cy="36040" rx="330" ry="330"  /> 
<ellipse cx="28900" cy="34200" rx="330" ry="330"  /> 
<ellipse cx="27900" cy="34200" rx="330" ry="330"  /> 
</g> 
</svg> 
