<?xml version="1.0" standalone="no"?>
<!DOCTYPE svg PUBLIC "-//W3C//DTD SVG 1.1//EN" 
"http://www.w3.org/Graphics/SVG/1.1/DTD/svg11.dtd"> 
<svg
  xmlns="http://www.w3.org/2000/svg"
  version="1.1"
  width="11.7in" height="8.267in" viewBox="0 0 117000 82670 "
>
  <title>SVG Picture created as pinguicaro-Mask_Back.svg </title>
  <desc>Picture generated by wxSVG v0101 </desc>
  <g style="fill:black; stroke:black; stroke-width:1">
</g>
<g style="fill:#000000; fill-opacity:0.0; 
  stroke:#000000; stroke-linecap:round; stroke-linejoin:round; stroke-opacity:1.0; stroke-opacity:1.0; stroke-width:60" 
   transform="translate(0 0) scale(1 1)">
<ellipse cx="54910" cy="28430" rx="300" ry="300"  /> 
<ellipse cx="54910" cy="29430" rx="300" ry="300"  /> 
<ellipse cx="55697" cy="29430" rx="300" ry="300"  /> 
<ellipse cx="55697" cy="28430" rx="300" ry="300"  /> 
<ellipse cx="56760" cy="26568" rx="787" ry="787"  /> 
</g>
<g style="fill:#FFFF00; fill-opacity:1.0; 
  stroke:#808000; stroke-linecap:round; stroke-linejoin:round; stroke-opacity:1.0; stroke-opacity:1.0; stroke-width:0" 
   transform="translate(0 0) scale(1 1)">
<ellipse cx="56760" cy="26568" rx="453" ry="453"  /> 
</g>
<g style="fill:#000000; fill-opacity:0.0; 
  stroke:#000000; stroke-linecap:round; stroke-linejoin:round; stroke-opacity:1.0; stroke-opacity:1.0; stroke-width:60" 
   transform="translate(0 0) scale(1 1)">
<ellipse cx="56760" cy="31292" rx="787" ry="787"  /> 
<path d="M57430 25180 L57430 24580" /> 
<path d="M57430 24580 L58030 24580" /> 
<path d="M58030 24580 L58030 25180" /> 
<path d="M57430 25180 L58030 25180" /> 
<ellipse cx="58730" cy="24880" rx="300" ry="300"  /> 
<ellipse cx="59730" cy="24880" rx="300" ry="300"  /> 
<ellipse cx="59730" cy="21880" rx="300" ry="300"  /> 
<ellipse cx="58730" cy="21880" rx="300" ry="300"  /> 
<ellipse cx="57730" cy="21880" rx="300" ry="300"  /> 
<ellipse cx="34700" cy="38995" rx="275" ry="275"  /> 
<ellipse cx="36700" cy="38995" rx="275" ry="275"  /> 
<ellipse cx="34700" cy="41995" rx="275" ry="275"  /> 
<ellipse cx="36700" cy="41995" rx="275" ry="275"  /> 
<path d="M40575 18725 L40575 19275" /> 
<path d="M40575 19275 L40025 19275" /> 
<path d="M40025 19275 L40025 18725" /> 
<path d="M40575 18725 L40025 18725" /> 
<ellipse cx="39300" cy="19000" rx="275" ry="275"  /> 
<ellipse cx="38300" cy="19000" rx="275" ry="275"  /> 
<ellipse cx="37300" cy="19000" rx="275" ry="275"  /> 
<ellipse cx="36300" cy="19000" rx="275" ry="275"  /> 
<ellipse cx="35300" cy="19000" rx="275" ry="275"  /> 
<ellipse cx="34300" cy="19000" rx="275" ry="275"  /> 
<ellipse cx="33300" cy="19000" rx="275" ry="275"  /> 
<path d="M34025 34395 L34025 33845" /> 
<path d="M34025 33845 L34575 33845" /> 
<path d="M34575 33845 L34575 34395" /> 
<path d="M34025 34395 L34575 34395" /> 
<ellipse cx="35300" cy="34120" rx="275" ry="275"  /> 
<ellipse cx="36300" cy="34120" rx="275" ry="275"  /> 
<ellipse cx="37300" cy="34120" rx="275" ry="275"  /> 
<ellipse cx="38300" cy="34120" rx="275" ry="275"  /> 
<ellipse cx="39300" cy="34120" rx="275" ry="275"  /> 
<ellipse cx="40300" cy="34120" rx="275" ry="275"  /> 
<ellipse cx="41300" cy="34120" rx="275" ry="275"  /> 
<path d="M33995 35511 L33995 34961" /> 
<path d="M33995 34961 L34545 34961" /> 
<path d="M34545 34961 L34545 35511" /> 
<path d="M33995 35511 L34545 35511" /> 
<ellipse cx="35270" cy="35236" rx="275" ry="275"  /> 
<ellipse cx="36270" cy="35236" rx="275" ry="275"  /> 
<ellipse cx="37270" cy="35236" rx="275" ry="275"  /> 
<ellipse cx="38270" cy="35236" rx="275" ry="275"  /> 
<ellipse cx="39270" cy="35236" rx="275" ry="275"  /> 
<ellipse cx="40270" cy="35236" rx="275" ry="275"  /> 
<ellipse cx="41270" cy="35236" rx="275" ry="275"  /> 
<path d="M34025 33275 L34025 32725" /> 
<path d="M34025 32725 L34575 32725" /> 
<path d="M34575 32725 L34575 33275" /> 
<path d="M34025 33275 L34575 33275" /> 
<ellipse cx="35300" cy="33000" rx="275" ry="275"  /> 
<ellipse cx="36300" cy="33000" rx="275" ry="275"  /> 
<ellipse cx="37300" cy="33000" rx="275" ry="275"  /> 
<ellipse cx="38300" cy="33000" rx="275" ry="275"  /> 
<ellipse cx="39300" cy="33000" rx="275" ry="275"  /> 
<ellipse cx="40300" cy="33000" rx="275" ry="275"  /> 
<ellipse cx="41300" cy="33000" rx="275" ry="275"  /> 
<path d="M43019 24607 L43019 24057" /> 
<path d="M43019 24057 L43569 24057" /> 
<path d="M43569 24057 L43569 24607" /> 
<path d="M43019 24607 L43569 24607" /> 
<ellipse cx="44294" cy="24332" rx="275" ry="275"  /> 
<ellipse cx="45294" cy="24332" rx="275" ry="275"  /> 
<ellipse cx="46294" cy="24332" rx="275" ry="275"  /> 
<ellipse cx="47294" cy="24332" rx="275" ry="275"  /> 
<ellipse cx="48294" cy="24332" rx="275" ry="275"  /> 
<ellipse cx="49294" cy="24332" rx="275" ry="275"  /> 
<ellipse cx="50294" cy="24332" rx="275" ry="275"  /> 
<path d="M33031 24859 L33031 24309" /> 
<path d="M33031 24309 L33581 24309" /> 
<path d="M33581 24309 L33581 24859" /> 
<path d="M33031 24859 L33581 24859" /> 
<ellipse cx="34306" cy="24584" rx="275" ry="275"  /> 
<ellipse cx="35306" cy="24584" rx="275" ry="275"  /> 
<ellipse cx="36306" cy="24584" rx="275" ry="275"  /> 
<ellipse cx="37306" cy="24584" rx="275" ry="275"  /> 
<ellipse cx="38306" cy="24584" rx="275" ry="275"  /> 
<ellipse cx="39306" cy="24584" rx="275" ry="275"  /> 
<ellipse cx="40306" cy="24584" rx="275" ry="275"  /> 
<ellipse cx="42595" cy="38015" rx="300" ry="300"  /> 
<ellipse cx="42595" cy="34015" rx="300" ry="300"  /> 
<ellipse cx="56665" cy="13225" rx="300" ry="300"  /> 
<ellipse cx="56665" cy="17225" rx="300" ry="300"  /> 
<ellipse cx="59885" cy="9445" rx="300" ry="300"  /> 
<ellipse cx="59885" cy="13445" rx="300" ry="300"  /> 
<ellipse cx="52360" cy="33285" rx="300" ry="300"  /> 
<ellipse cx="56360" cy="33285" rx="300" ry="300"  /> 
<ellipse cx="31450" cy="34250" rx="300" ry="300"  /> 
<ellipse cx="31450" cy="38250" rx="300" ry="300"  /> 
<ellipse cx="32150" cy="16450" rx="300" ry="300"  /> 
<ellipse cx="32150" cy="12450" rx="300" ry="300"  /> 
<ellipse cx="33150" cy="16450" rx="300" ry="300"  /> 
<ellipse cx="33150" cy="12450" rx="300" ry="300"  /> 
<ellipse cx="34150" cy="15450" rx="300" ry="300"  /> 
<ellipse cx="34150" cy="11450" rx="300" ry="300"  /> 
<ellipse cx="35150" cy="15450" rx="300" ry="300"  /> 
<ellipse cx="35150" cy="11450" rx="300" ry="300"  /> 
<ellipse cx="36150" cy="15450" rx="300" ry="300"  /> 
<ellipse cx="36150" cy="11450" rx="300" ry="300"  /> 
<ellipse cx="37150" cy="15450" rx="300" ry="300"  /> 
<ellipse cx="37150" cy="11450" rx="300" ry="300"  /> 
<ellipse cx="38150" cy="15450" rx="300" ry="300"  /> 
<ellipse cx="38150" cy="11450" rx="300" ry="300"  /> 
<ellipse cx="39150" cy="15450" rx="300" ry="300"  /> 
<ellipse cx="39150" cy="11450" rx="300" ry="300"  /> 
<ellipse cx="49900" cy="23200" rx="300" ry="300"  /> 
<ellipse cx="53900" cy="23200" rx="300" ry="300"  /> 
<ellipse cx="53300" cy="38540" rx="300" ry="300"  /> 
<ellipse cx="53300" cy="34540" rx="300" ry="300"  /> 
<ellipse cx="32970" cy="36220" rx="300" ry="300"  /> 
<ellipse cx="32970" cy="40220" rx="300" ry="300"  /> 
<path d="M50988 17778 L50388 17778" /> 
<path d="M50388 17778 L50388 17178" /> 
<path d="M50388 17178 L50988 17178" /> 
<path d="M50988 17778 L50988 17178" /> 
<ellipse cx="50688" cy="16478" rx="300" ry="300"  /> 
<ellipse cx="50688" cy="15478" rx="300" ry="300"  /> 
<path d="M57044 20056 L57044 19456" /> 
<path d="M57044 19456 L57644 19456" /> 
<path d="M57644 19456 L57644 20056" /> 
<path d="M57044 20056 L57644 20056" /> 
<ellipse cx="58344" cy="19756" rx="300" ry="300"  /> 
<ellipse cx="59344" cy="19756" rx="300" ry="300"  /> 
<path d="M48740 21320 L48140 21320" /> 
<path d="M48140 21320 L48140 20720" /> 
<path d="M48140 20720 L48740 20720" /> 
<path d="M48740 21320 L48740 20720" /> 
<ellipse cx="48440" cy="20020" rx="300" ry="300"  /> 
<ellipse cx="48440" cy="19020" rx="300" ry="300"  /> 
<path d="M47726 21320 L47126 21320" /> 
<path d="M47126 21320 L47126 20720" /> 
<path d="M47126 20720 L47726 20720" /> 
<path d="M47726 21320 L47726 20720" /> 
<ellipse cx="47426" cy="20020" rx="300" ry="300"  /> 
<ellipse cx="47426" cy="19020" rx="300" ry="300"  /> 
<path d="M50600 37150 L51200 37150" /> 
<path d="M51200 37150 L51200 37750" /> 
<path d="M51200 37750 L50600 37750" /> 
<path d="M50600 37150 L50600 37750" /> 
<ellipse cx="50900" cy="38450" rx="300" ry="300"  /> 
<ellipse cx="50900" cy="39450" rx="300" ry="300"  /> 
<path d="M49600 37150 L50200 37150" /> 
<path d="M50200 37150 L50200 37750" /> 
<path d="M50200 37750 L49600 37750" /> 
<path d="M49600 37150 L49600 37750" /> 
<ellipse cx="49900" cy="38450" rx="300" ry="300"  /> 
<ellipse cx="49900" cy="39450" rx="300" ry="300"  /> 
<path d="M48600 37150 L49200 37150" /> 
<path d="M49200 37150 L49200 37750" /> 
<path d="M49200 37750 L48600 37750" /> 
<path d="M48600 37150 L48600 37750" /> 
<ellipse cx="48900" cy="38450" rx="300" ry="300"  /> 
<ellipse cx="48900" cy="39450" rx="300" ry="300"  /> 
<path d="M54678 23428 L55278 23428" /> 
<path d="M55278 23428 L55278 24028" /> 
<path d="M55278 24028 L54678 24028" /> 
<path d="M54678 23428 L54678 24028" /> 
<ellipse cx="54978" cy="24728" rx="300" ry="300"  /> 
<ellipse cx="54978" cy="25728" rx="300" ry="300"  /> 
<path d="M55562 15776 L52062 15776" /> 
<path d="M52062 15776 L52062 12276" /> 
<path d="M52062 12276 L55562 12276" /> 
<path d="M55562 15776 L55562 12276" /> 
<ellipse cx="52812" cy="20526" rx="350" ry="350"  /> 
<path d="M54162 20876 L53462 20876" /> 
<path d="M53462 20876 L53462 20176" /> 
<path d="M53462 20176 L54162 20176" /> 
<path d="M54162 20876 L54162 20176" /> 
<ellipse cx="54812" cy="20526" rx="350" ry="350"  /> 
<path d="M32986 32280 L32986 31380" /> 
<path d="M32986 31380 L33606 31380" /> 
<path d="M33606 31380 L33606 32280" /> 
<path d="M32986 32280 L33606 32280" /> 
<path d="M34606 31690 L34606 31970" /> 
<path d="M33986 31690 L33986 31970" /> 
<path d="M34606 31690 A3.1e+02 3.1e+02 0 0 0 33986 31690 " /> 
<path d="M33986 31970 A3.1e+02 3.1e+02 0 0 0 34606 31970 " /> 
<path d="M35606 31690 L35606 31970" /> 
<path d="M34986 31690 L34986 31970" /> 
<path d="M35606 31690 A3.1e+02 3.1e+02 0 0 0 34986 31690 " /> 
<path d="M34986 31970 A3.1e+02 3.1e+02 0 0 0 35606 31970 " /> 
<path d="M36606 31690 L36606 31970" /> 
<path d="M35986 31690 L35986 31970" /> 
<path d="M36606 31690 A3.1e+02 3.1e+02 0 0 0 35986 31690 " /> 
<path d="M35986 31970 A3.1e+02 3.1e+02 0 0 0 36606 31970 " /> 
<path d="M37606 31690 L37606 31970" /> 
<path d="M36986 31690 L36986 31970" /> 
<path d="M37606 31690 A3.1e+02 3.1e+02 0 0 0 36986 31690 " /> 
<path d="M36986 31970 A3.1e+02 3.1e+02 0 0 0 37606 31970 " /> 
<path d="M38606 31690 L38606 31970" /> 
<path d="M37986 31690 L37986 31970" /> 
<path d="M38606 31690 A3.1e+02 3.1e+02 0 0 0 37986 31690 " /> 
<path d="M37986 31970 A3.1e+02 3.1e+02 0 0 0 38606 31970 " /> 
<path d="M39606 31690 L39606 31970" /> 
<path d="M38986 31690 L38986 31970" /> 
<path d="M39606 31690 A3.1e+02 3.1e+02 0 0 0 38986 31690 " /> 
<path d="M38986 31970 A3.1e+02 3.1e+02 0 0 0 39606 31970 " /> 
<path d="M40606 31690 L40606 31970" /> 
<path d="M39986 31690 L39986 31970" /> 
<path d="M40606 31690 A3.1e+02 3.1e+02 0 0 0 39986 31690 " /> 
<path d="M39986 31970 A3.1e+02 3.1e+02 0 0 0 40606 31970 " /> 
<path d="M41606 31690 L41606 31970" /> 
<path d="M40986 31690 L40986 31970" /> 
<path d="M41606 31690 A3.1e+02 3.1e+02 0 0 0 40986 31690 " /> 
<path d="M40986 31970 A3.1e+02 3.1e+02 0 0 0 41606 31970 " /> 
<path d="M42606 31690 L42606 31970" /> 
<path d="M41986 31690 L41986 31970" /> 
<path d="M42606 31690 A3.1e+02 3.1e+02 0 0 0 41986 31690 " /> 
<path d="M41986 31970 A3.1e+02 3.1e+02 0 0 0 42606 31970 " /> 
<path d="M43606 31690 L43606 31970" /> 
<path d="M42986 31690 L42986 31970" /> 
<path d="M43606 31690 A3.1e+02 3.1e+02 0 0 0 42986 31690 " /> 
<path d="M42986 31970 A3.1e+02 3.1e+02 0 0 0 43606 31970 " /> 
<path d="M44606 31690 L44606 31970" /> 
<path d="M43986 31690 L43986 31970" /> 
<path d="M44606 31690 A3.1e+02 3.1e+02 0 0 0 43986 31690 " /> 
<path d="M43986 31970 A3.1e+02 3.1e+02 0 0 0 44606 31970 " /> 
<path d="M45606 31690 L45606 31970" /> 
<path d="M44986 31690 L44986 31970" /> 
<path d="M45606 31690 A3.1e+02 3.1e+02 0 0 0 44986 31690 " /> 
<path d="M44986 31970 A3.1e+02 3.1e+02 0 0 0 45606 31970 " /> 
<path d="M46606 31690 L46606 31970" /> 
<path d="M45986 31690 L45986 31970" /> 
<path d="M46606 31690 A3.1e+02 3.1e+02 0 0 0 45986 31690 " /> 
<path d="M45986 31970 A3.1e+02 3.1e+02 0 0 0 46606 31970 " /> 
<path d="M47606 31690 L47606 31970" /> 
<path d="M46986 31690 L46986 31970" /> 
<path d="M47606 31690 A3.1e+02 3.1e+02 0 0 0 46986 31690 " /> 
<path d="M46986 31970 A3.1e+02 3.1e+02 0 0 0 47606 31970 " /> 
<path d="M48606 31690 L48606 31970" /> 
<path d="M47986 31690 L47986 31970" /> 
<path d="M48606 31690 A3.1e+02 3.1e+02 0 0 0 47986 31690 " /> 
<path d="M47986 31970 A3.1e+02 3.1e+02 0 0 0 48606 31970 " /> 
<path d="M49606 31690 L49606 31970" /> 
<path d="M48986 31690 L48986 31970" /> 
<path d="M49606 31690 A3.1e+02 3.1e+02 0 0 0 48986 31690 " /> 
<path d="M48986 31970 A3.1e+02 3.1e+02 0 0 0 49606 31970 " /> 
<path d="M50606 31690 L50606 31970" /> 
<path d="M49986 31690 L49986 31970" /> 
<path d="M50606 31690 A3.1e+02 3.1e+02 0 0 0 49986 31690 " /> 
<path d="M49986 31970 A3.1e+02 3.1e+02 0 0 0 50606 31970 " /> 
<path d="M51606 31690 L51606 31970" /> 
<path d="M50986 31690 L50986 31970" /> 
<path d="M51606 31690 A3.1e+02 3.1e+02 0 0 0 50986 31690 " /> 
<path d="M50986 31970 A3.1e+02 3.1e+02 0 0 0 51606 31970 " /> 
<path d="M52606 31690 L52606 31970" /> 
<path d="M51986 31690 L51986 31970" /> 
<path d="M52606 31690 A3.1e+02 3.1e+02 0 0 0 51986 31690 " /> 
<path d="M51986 31970 A3.1e+02 3.1e+02 0 0 0 52606 31970 " /> 
<path d="M52606 25690 L52606 25970" /> 
<path d="M51986 25690 L51986 25970" /> 
<path d="M52606 25690 A3.1e+02 3.1e+02 0 0 0 51986 25690 " /> 
<path d="M51986 25970 A3.1e+02 3.1e+02 0 0 0 52606 25970 " /> 
<path d="M51606 25690 L51606 25970" /> 
<path d="M50986 25690 L50986 25970" /> 
<path d="M51606 25690 A3.1e+02 3.1e+02 0 0 0 50986 25690 " /> 
<path d="M50986 25970 A3.1e+02 3.1e+02 0 0 0 51606 25970 " /> 
<path d="M50606 25690 L50606 25970" /> 
<path d="M49986 25690 L49986 25970" /> 
<path d="M50606 25690 A3.1e+02 3.1e+02 0 0 0 49986 25690 " /> 
<path d="M49986 25970 A3.1e+02 3.1e+02 0 0 0 50606 25970 " /> 
<path d="M49606 25690 L49606 25970" /> 
<path d="M48986 25690 L48986 25970" /> 
<path d="M49606 25690 A3.1e+02 3.1e+02 0 0 0 48986 25690 " /> 
<path d="M48986 25970 A3.1e+02 3.1e+02 0 0 0 49606 25970 " /> 
<path d="M48606 25690 L48606 25970" /> 
<path d="M47986 25690 L47986 25970" /> 
<path d="M48606 25690 A3.1e+02 3.1e+02 0 0 0 47986 25690 " /> 
<path d="M47986 25970 A3.1e+02 3.1e+02 0 0 0 48606 25970 " /> 
<path d="M47606 25690 L47606 25970" /> 
<path d="M46986 25690 L46986 25970" /> 
<path d="M47606 25690 A3.1e+02 3.1e+02 0 0 0 46986 25690 " /> 
<path d="M46986 25970 A3.1e+02 3.1e+02 0 0 0 47606 25970 " /> 
<path d="M46606 25690 L46606 25970" /> 
<path d="M45986 25690 L45986 25970" /> 
<path d="M46606 25690 A3.1e+02 3.1e+02 0 0 0 45986 25690 " /> 
<path d="M45986 25970 A3.1e+02 3.1e+02 0 0 0 46606 25970 " /> 
<path d="M45606 25690 L45606 25970" /> 
<path d="M44986 25690 L44986 25970" /> 
<path d="M45606 25690 A3.1e+02 3.1e+02 0 0 0 44986 25690 " /> 
<path d="M44986 25970 A3.1e+02 3.1e+02 0 0 0 45606 25970 " /> 
<path d="M44606 25690 L44606 25970" /> 
<path d="M43986 25690 L43986 25970" /> 
<path d="M44606 25690 A3.1e+02 3.1e+02 0 0 0 43986 25690 " /> 
<path d="M43986 25970 A3.1e+02 3.1e+02 0 0 0 44606 25970 " /> 
<path d="M43606 25690 L43606 25970" /> 
<path d="M42986 25690 L42986 25970" /> 
<path d="M43606 25690 A3.1e+02 3.1e+02 0 0 0 42986 25690 " /> 
<path d="M42986 25970 A3.1e+02 3.1e+02 0 0 0 43606 25970 " /> 
<path d="M42606 25690 L42606 25970" /> 
<path d="M41986 25690 L41986 25970" /> 
<path d="M42606 25690 A3.1e+02 3.1e+02 0 0 0 41986 25690 " /> 
<path d="M41986 25970 A3.1e+02 3.1e+02 0 0 0 42606 25970 " /> 
<path d="M41606 25690 L41606 25970" /> 
<path d="M40986 25690 L40986 25970" /> 
<path d="M41606 25690 A3.1e+02 3.1e+02 0 0 0 40986 25690 " /> 
<path d="M40986 25970 A3.1e+02 3.1e+02 0 0 0 41606 25970 " /> 
<path d="M40606 25690 L40606 25970" /> 
<path d="M39986 25690 L39986 25970" /> 
<path d="M40606 25690 A3.1e+02 3.1e+02 0 0 0 39986 25690 " /> 
<path d="M39986 25970 A3.1e+02 3.1e+02 0 0 0 40606 25970 " /> 
<path d="M39606 25690 L39606 25970" /> 
<path d="M38986 25690 L38986 25970" /> 
<path d="M39606 25690 A3.1e+02 3.1e+02 0 0 0 38986 25690 " /> 
<path d="M38986 25970 A3.1e+02 3.1e+02 0 0 0 39606 25970 " /> 
<path d="M38606 25690 L38606 25970" /> 
<path d="M37986 25690 L37986 25970" /> 
<path d="M38606 25690 A3.1e+02 3.1e+02 0 0 0 37986 25690 " /> 
<path d="M37986 25970 A3.1e+02 3.1e+02 0 0 0 38606 25970 " /> 
<path d="M37606 25690 L37606 25970" /> 
<path d="M36986 25690 L36986 25970" /> 
<path d="M37606 25690 A3.1e+02 3.1e+02 0 0 0 36986 25690 " /> 
<path d="M36986 25970 A3.1e+02 3.1e+02 0 0 0 37606 25970 " /> 
<path d="M36606 25690 L36606 25970" /> 
<path d="M35986 25690 L35986 25970" /> 
<path d="M36606 25690 A3.1e+02 3.1e+02 0 0 0 35986 25690 " /> 
<path d="M35986 25970 A3.1e+02 3.1e+02 0 0 0 36606 25970 " /> 
<path d="M35606 25690 L35606 25970" /> 
<path d="M34986 25690 L34986 25970" /> 
<path d="M35606 25690 A3.1e+02 3.1e+02 0 0 0 34986 25690 " /> 
<path d="M34986 25970 A3.1e+02 3.1e+02 0 0 0 35606 25970 " /> 
<path d="M34606 25690 L34606 25970" /> 
<path d="M33986 25690 L33986 25970" /> 
<path d="M34606 25690 A3.1e+02 3.1e+02 0 0 0 33986 25690 " /> 
<path d="M33986 25970 A3.1e+02 3.1e+02 0 0 0 34606 25970 " /> 
<path d="M33606 25690 L33606 25970" /> 
<path d="M32986 25690 L32986 25970" /> 
<path d="M33606 25690 A3.1e+02 3.1e+02 0 0 0 32986 25690 " /> 
<path d="M32986 25970 A3.1e+02 3.1e+02 0 0 0 33606 25970 " /> 
<path d="M36962 30158 L36962 30438" /> 
<path d="M36342 30158 L36342 30438" /> 
<path d="M36962 30158 A3.1e+02 3.1e+02 0 0 0 36342 30158 " /> 
<path d="M36342 30438 A3.1e+02 3.1e+02 0 0 0 36962 30438 " /> 
<path d="M37962 30158 L37962 30438" /> 
<path d="M37342 30158 L37342 30438" /> 
<path d="M37962 30158 A3.1e+02 3.1e+02 0 0 0 37342 30158 " /> 
<path d="M37342 30438 A3.1e+02 3.1e+02 0 0 0 37962 30438 " /> 
<path d="M38962 30158 L38962 30438" /> 
<path d="M38342 30158 L38342 30438" /> 
<path d="M38962 30158 A3.1e+02 3.1e+02 0 0 0 38342 30158 " /> 
<path d="M38342 30438 A3.1e+02 3.1e+02 0 0 0 38962 30438 " /> 
<path d="M39962 30158 L39962 30438" /> 
<path d="M39342 30158 L39342 30438" /> 
<path d="M39962 30158 A3.1e+02 3.1e+02 0 0 0 39342 30158 " /> 
<path d="M39342 30438 A3.1e+02 3.1e+02 0 0 0 39962 30438 " /> 
<path d="M40962 30158 L40962 30438" /> 
<path d="M40342 30158 L40342 30438" /> 
<path d="M40962 30158 A3.1e+02 3.1e+02 0 0 0 40342 30158 " /> 
<path d="M40342 30438 A3.1e+02 3.1e+02 0 0 0 40962 30438 " /> 
<path d="M41962 30158 L41962 30438" /> 
<path d="M41342 30158 L41342 30438" /> 
<path d="M41962 30158 A3.1e+02 3.1e+02 0 0 0 41342 30158 " /> 
<path d="M41342 30438 A3.1e+02 3.1e+02 0 0 0 41962 30438 " /> 
<path d="M42962 30158 L42962 30438" /> 
<path d="M42342 30158 L42342 30438" /> 
<path d="M42962 30158 A3.1e+02 3.1e+02 0 0 0 42342 30158 " /> 
<path d="M42342 30438 A3.1e+02 3.1e+02 0 0 0 42962 30438 " /> 
<path d="M43962 30158 L43962 30438" /> 
<path d="M43342 30158 L43342 30438" /> 
<path d="M43962 30158 A3.1e+02 3.1e+02 0 0 0 43342 30158 " /> 
<path d="M43342 30438 A3.1e+02 3.1e+02 0 0 0 43962 30438 " /> 
<path d="M44962 30158 L44962 30438" /> 
<path d="M44342 30158 L44342 30438" /> 
<path d="M44962 30158 A3.1e+02 3.1e+02 0 0 0 44342 30158 " /> 
<path d="M44342 30438 A3.1e+02 3.1e+02 0 0 0 44962 30438 " /> 
<path d="M45962 30158 L45962 30438" /> 
<path d="M45342 30158 L45342 30438" /> 
<path d="M45962 30158 A3.1e+02 3.1e+02 0 0 0 45342 30158 " /> 
<path d="M45342 30438 A3.1e+02 3.1e+02 0 0 0 45962 30438 " /> 
<path d="M46962 30158 L46962 30438" /> 
<path d="M46342 30158 L46342 30438" /> 
<path d="M46962 30158 A3.1e+02 3.1e+02 0 0 0 46342 30158 " /> 
<path d="M46342 30438 A3.1e+02 3.1e+02 0 0 0 46962 30438 " /> 
<path d="M47962 30158 L47962 30438" /> 
<path d="M47342 30158 L47342 30438" /> 
<path d="M47962 30158 A3.1e+02 3.1e+02 0 0 0 47342 30158 " /> 
<path d="M47342 30438 A3.1e+02 3.1e+02 0 0 0 47962 30438 " /> 
<path d="M48962 30158 L48962 30438" /> 
<path d="M48342 30158 L48342 30438" /> 
<path d="M48962 30158 A3.1e+02 3.1e+02 0 0 0 48342 30158 " /> 
<path d="M48342 30438 A3.1e+02 3.1e+02 0 0 0 48962 30438 " /> 
<path d="M35342 30748 L35342 29848" /> 
<path d="M35342 29848 L35962 29848" /> 
<path d="M35962 29848 L35962 30748" /> 
<path d="M35342 30748 L35962 30748" /> 
<path d="M48962 27158 L48962 27438" /> 
<path d="M48342 27158 L48342 27438" /> 
<path d="M48962 27158 A3.1e+02 3.1e+02 0 0 0 48342 27158 " /> 
<path d="M48342 27438 A3.1e+02 3.1e+02 0 0 0 48962 27438 " /> 
<path d="M47962 27158 L47962 27438" /> 
<path d="M47342 27158 L47342 27438" /> 
<path d="M47962 27158 A3.1e+02 3.1e+02 0 0 0 47342 27158 " /> 
<path d="M47342 27438 A3.1e+02 3.1e+02 0 0 0 47962 27438 " /> 
<path d="M46962 27158 L46962 27438" /> 
<path d="M46342 27158 L46342 27438" /> 
<path d="M46962 27158 A3.1e+02 3.1e+02 0 0 0 46342 27158 " /> 
<path d="M46342 27438 A3.1e+02 3.1e+02 0 0 0 46962 27438 " /> 
<path d="M45962 27158 L45962 27438" /> 
<path d="M45342 27158 L45342 27438" /> 
<path d="M45962 27158 A3.1e+02 3.1e+02 0 0 0 45342 27158 " /> 
<path d="M45342 27438 A3.1e+02 3.1e+02 0 0 0 45962 27438 " /> 
<path d="M44962 27158 L44962 27438" /> 
<path d="M44342 27158 L44342 27438" /> 
<path d="M44962 27158 A3.1e+02 3.1e+02 0 0 0 44342 27158 " /> 
<path d="M44342 27438 A3.1e+02 3.1e+02 0 0 0 44962 27438 " /> 
<path d="M43962 27158 L43962 27438" /> 
<path d="M43342 27158 L43342 27438" /> 
<path d="M43962 27158 A3.1e+02 3.1e+02 0 0 0 43342 27158 " /> 
<path d="M43342 27438 A3.1e+02 3.1e+02 0 0 0 43962 27438 " /> 
<path d="M42962 27158 L42962 27438" /> 
<path d="M42342 27158 L42342 27438" /> 
<path d="M42962 27158 A3.1e+02 3.1e+02 0 0 0 42342 27158 " /> 
<path d="M42342 27438 A3.1e+02 3.1e+02 0 0 0 42962 27438 " /> 
<path d="M41962 27158 L41962 27438" /> 
<path d="M41342 27158 L41342 27438" /> 
<path d="M41962 27158 A3.1e+02 3.1e+02 0 0 0 41342 27158 " /> 
<path d="M41342 27438 A3.1e+02 3.1e+02 0 0 0 41962 27438 " /> 
<path d="M40962 27158 L40962 27438" /> 
<path d="M40342 27158 L40342 27438" /> 
<path d="M40962 27158 A3.1e+02 3.1e+02 0 0 0 40342 27158 " /> 
<path d="M40342 27438 A3.1e+02 3.1e+02 0 0 0 40962 27438 " /> 
<path d="M39962 27158 L39962 27438" /> 
<path d="M39342 27158 L39342 27438" /> 
<path d="M39962 27158 A3.1e+02 3.1e+02 0 0 0 39342 27158 " /> 
<path d="M39342 27438 A3.1e+02 3.1e+02 0 0 0 39962 27438 " /> 
<path d="M38962 27158 L38962 27438" /> 
<path d="M38342 27158 L38342 27438" /> 
<path d="M38962 27158 A3.1e+02 3.1e+02 0 0 0 38342 27158 " /> 
<path d="M38342 27438 A3.1e+02 3.1e+02 0 0 0 38962 27438 " /> 
<path d="M37962 27158 L37962 27438" /> 
<path d="M37342 27158 L37342 27438" /> 
<path d="M37962 27158 A3.1e+02 3.1e+02 0 0 0 37342 27158 " /> 
<path d="M37342 27438 A3.1e+02 3.1e+02 0 0 0 37962 27438 " /> 
<path d="M36962 27158 L36962 27438" /> 
<path d="M36342 27158 L36342 27438" /> 
<path d="M36962 27158 A3.1e+02 3.1e+02 0 0 0 36342 27158 " /> 
<path d="M36342 27438 A3.1e+02 3.1e+02 0 0 0 36962 27438 " /> 
<path d="M35962 27158 L35962 27438" /> 
<path d="M35342 27158 L35342 27438" /> 
<path d="M35962 27158 A3.1e+02 3.1e+02 0 0 0 35342 27158 " /> 
<path d="M35342 27438 A3.1e+02 3.1e+02 0 0 0 35962 27438 " /> 
<path d="M33000 23720 L33000 22820" /> 
<path d="M33000 22820 L33620 22820" /> 
<path d="M33620 22820 L33620 23720" /> 
<path d="M33000 23720 L33620 23720" /> 
<path d="M34620 23130 L34620 23410" /> 
<path d="M34000 23130 L34000 23410" /> 
<path d="M34620 23130 A3.1e+02 3.1e+02 0 0 0 34000 23130 " /> 
<path d="M34000 23410 A3.1e+02 3.1e+02 0 0 0 34620 23410 " /> 
<path d="M35620 23130 L35620 23410" /> 
<path d="M35000 23130 L35000 23410" /> 
<path d="M35620 23130 A3.1e+02 3.1e+02 0 0 0 35000 23130 " /> 
<path d="M35000 23410 A3.1e+02 3.1e+02 0 0 0 35620 23410 " /> 
<path d="M36620 23130 L36620 23410" /> 
<path d="M36000 23130 L36000 23410" /> 
<path d="M36620 23130 A3.1e+02 3.1e+02 0 0 0 36000 23130 " /> 
<path d="M36000 23410 A3.1e+02 3.1e+02 0 0 0 36620 23410 " /> 
<path d="M37620 23130 L37620 23410" /> 
<path d="M37000 23130 L37000 23410" /> 
<path d="M37620 23130 A3.1e+02 3.1e+02 0 0 0 37000 23130 " /> 
<path d="M37000 23410 A3.1e+02 3.1e+02 0 0 0 37620 23410 " /> 
<path d="M38620 23130 L38620 23410" /> 
<path d="M38000 23130 L38000 23410" /> 
<path d="M38620 23130 A3.1e+02 3.1e+02 0 0 0 38000 23130 " /> 
<path d="M38000 23410 A3.1e+02 3.1e+02 0 0 0 38620 23410 " /> 
<path d="M39620 23130 L39620 23410" /> 
<path d="M39000 23130 L39000 23410" /> 
<path d="M39620 23130 A3.1e+02 3.1e+02 0 0 0 39000 23130 " /> 
<path d="M39000 23410 A3.1e+02 3.1e+02 0 0 0 39620 23410 " /> 
<path d="M40620 23130 L40620 23410" /> 
<path d="M40000 23130 L40000 23410" /> 
<path d="M40620 23130 A3.1e+02 3.1e+02 0 0 0 40000 23130 " /> 
<path d="M40000 23410 A3.1e+02 3.1e+02 0 0 0 40620 23410 " /> 
<path d="M41620 23130 L41620 23410" /> 
<path d="M41000 23130 L41000 23410" /> 
<path d="M41620 23130 A3.1e+02 3.1e+02 0 0 0 41000 23130 " /> 
<path d="M41000 23410 A3.1e+02 3.1e+02 0 0 0 41620 23410 " /> 
<path d="M41620 20130 L41620 20410" /> 
<path d="M41000 20130 L41000 20410" /> 
<path d="M41620 20130 A3.1e+02 3.1e+02 0 0 0 41000 20130 " /> 
<path d="M41000 20410 A3.1e+02 3.1e+02 0 0 0 41620 20410 " /> 
<path d="M40620 20130 L40620 20410" /> 
<path d="M40000 20130 L40000 20410" /> 
<path d="M40620 20130 A3.1e+02 3.1e+02 0 0 0 40000 20130 " /> 
<path d="M40000 20410 A3.1e+02 3.1e+02 0 0 0 40620 20410 " /> 
<path d="M39620 20130 L39620 20410" /> 
<path d="M39000 20130 L39000 20410" /> 
<path d="M39620 20130 A3.1e+02 3.1e+02 0 0 0 39000 20130 " /> 
<path d="M39000 20410 A3.1e+02 3.1e+02 0 0 0 39620 20410 " /> 
<path d="M38620 20130 L38620 20410" /> 
<path d="M38000 20130 L38000 20410" /> 
<path d="M38620 20130 A3.1e+02 3.1e+02 0 0 0 38000 20130 " /> 
<path d="M38000 20410 A3.1e+02 3.1e+02 0 0 0 38620 20410 " /> 
<path d="M37620 20130 L37620 20410" /> 
<path d="M37000 20130 L37000 20410" /> 
<path d="M37620 20130 A3.1e+02 3.1e+02 0 0 0 37000 20130 " /> 
<path d="M37000 20410 A3.1e+02 3.1e+02 0 0 0 37620 20410 " /> 
<path d="M36620 20130 L36620 20410" /> 
<path d="M36000 20130 L36000 20410" /> 
<path d="M36620 20130 A3.1e+02 3.1e+02 0 0 0 36000 20130 " /> 
<path d="M36000 20410 A3.1e+02 3.1e+02 0 0 0 36620 20410 " /> 
<path d="M35620 20130 L35620 20410" /> 
<path d="M35000 20130 L35000 20410" /> 
<path d="M35620 20130 A3.1e+02 3.1e+02 0 0 0 35000 20130 " /> 
<path d="M35000 20410 A3.1e+02 3.1e+02 0 0 0 35620 20410 " /> 
<path d="M34620 20130 L34620 20410" /> 
<path d="M34000 20130 L34000 20410" /> 
<path d="M34620 20130 A3.1e+02 3.1e+02 0 0 0 34000 20130 " /> 
<path d="M34000 20410 A3.1e+02 3.1e+02 0 0 0 34620 20410 " /> 
<path d="M33620 20130 L33620 20410" /> 
<path d="M33000 20130 L33000 20410" /> 
<path d="M33620 20130 A3.1e+02 3.1e+02 0 0 0 33000 20130 " /> 
<path d="M33000 20410 A3.1e+02 3.1e+02 0 0 0 33620 20410 " /> 
<path d="M48268 14168 L48268 15068" /> 
<path d="M48268 15068 L47648 15068" /> 
<path d="M47648 15068 L47648 14168" /> 
<path d="M48268 14168 L47648 14168" /> 
<path d="M46648 14758 L46648 14478" /> 
<path d="M47268 14758 L47268 14478" /> 
<path d="M46648 14758 A3.1e+02 3.1e+02 0 0 0 47268 14758 " /> 
<path d="M47268 14478 A3.1e+02 3.1e+02 0 0 0 46648 14478 " /> 
<path d="M45648 14758 L45648 14478" /> 
<path d="M46268 14758 L46268 14478" /> 
<path d="M45648 14758 A3.1e+02 3.1e+02 0 0 0 46268 14758 " /> 
<path d="M46268 14478 A3.1e+02 3.1e+02 0 0 0 45648 14478 " /> 
<path d="M44648 14758 L44648 14478" /> 
<path d="M45268 14758 L45268 14478" /> 
<path d="M44648 14758 A3.1e+02 3.1e+02 0 0 0 45268 14758 " /> 
<path d="M45268 14478 A3.1e+02 3.1e+02 0 0 0 44648 14478 " /> 
<path d="M43648 14758 L43648 14478" /> 
<path d="M44268 14758 L44268 14478" /> 
<path d="M43648 14758 A3.1e+02 3.1e+02 0 0 0 44268 14758 " /> 
<path d="M44268 14478 A3.1e+02 3.1e+02 0 0 0 43648 14478 " /> 
<path d="M42648 14758 L42648 14478" /> 
<path d="M43268 14758 L43268 14478" /> 
<path d="M42648 14758 A3.1e+02 3.1e+02 0 0 0 43268 14758 " /> 
<path d="M43268 14478 A3.1e+02 3.1e+02 0 0 0 42648 14478 " /> 
<path d="M41648 14758 L41648 14478" /> 
<path d="M42268 14758 L42268 14478" /> 
<path d="M41648 14758 A3.1e+02 3.1e+02 0 0 0 42268 14758 " /> 
<path d="M42268 14478 A3.1e+02 3.1e+02 0 0 0 41648 14478 " /> 
<path d="M40648 14758 L40648 14478" /> 
<path d="M41268 14758 L41268 14478" /> 
<path d="M40648 14758 A3.1e+02 3.1e+02 0 0 0 41268 14758 " /> 
<path d="M41268 14478 A3.1e+02 3.1e+02 0 0 0 40648 14478 " /> 
<path d="M40648 17758 L40648 17478" /> 
<path d="M41268 17758 L41268 17478" /> 
<path d="M40648 17758 A3.1e+02 3.1e+02 0 0 0 41268 17758 " /> 
<path d="M41268 17478 A3.1e+02 3.1e+02 0 0 0 40648 17478 " /> 
<path d="M41648 17758 L41648 17478" /> 
<path d="M42268 17758 L42268 17478" /> 
<path d="M41648 17758 A3.1e+02 3.1e+02 0 0 0 42268 17758 " /> 
<path d="M42268 17478 A3.1e+02 3.1e+02 0 0 0 41648 17478 " /> 
<path d="M42648 17758 L42648 17478" /> 
<path d="M43268 17758 L43268 17478" /> 
<path d="M42648 17758 A3.1e+02 3.1e+02 0 0 0 43268 17758 " /> 
<path d="M43268 17478 A3.1e+02 3.1e+02 0 0 0 42648 17478 " /> 
<path d="M43648 17758 L43648 17478" /> 
<path d="M44268 17758 L44268 17478" /> 
<path d="M43648 17758 A3.1e+02 3.1e+02 0 0 0 44268 17758 " /> 
<path d="M44268 17478 A3.1e+02 3.1e+02 0 0 0 43648 17478 " /> 
<path d="M44648 17758 L44648 17478" /> 
<path d="M45268 17758 L45268 17478" /> 
<path d="M44648 17758 A3.1e+02 3.1e+02 0 0 0 45268 17758 " /> 
<path d="M45268 17478 A3.1e+02 3.1e+02 0 0 0 44648 17478 " /> 
<path d="M45648 17758 L45648 17478" /> 
<path d="M46268 17758 L46268 17478" /> 
<path d="M45648 17758 A3.1e+02 3.1e+02 0 0 0 46268 17758 " /> 
<path d="M46268 17478 A3.1e+02 3.1e+02 0 0 0 45648 17478 " /> 
<path d="M46648 17758 L46648 17478" /> 
<path d="M47268 17758 L47268 17478" /> 
<path d="M46648 17758 A3.1e+02 3.1e+02 0 0 0 47268 17758 " /> 
<path d="M47268 17478 A3.1e+02 3.1e+02 0 0 0 46648 17478 " /> 
<path d="M47648 17758 L47648 17478" /> 
<path d="M48268 17758 L48268 17478" /> 
<path d="M47648 17758 A3.1e+02 3.1e+02 0 0 0 48268 17758 " /> 
<path d="M48268 17478 A3.1e+02 3.1e+02 0 0 0 47648 17478 " /> 
<path d="M53035 21405 L53035 21955" /> 
<path d="M53035 21955 L52485 21955" /> 
<path d="M52485 21955 L52485 21405" /> 
<path d="M53035 21405 L52485 21405" /> 
<ellipse cx="55760" cy="21680" rx="275" ry="275"  /> 
<path d="M45949 34728 L45949 34924" /> 
<path d="M45161 34728 L45161 34924" /> 
<path d="M45949 34728 A3.9e+02 3.9e+02 0 0 0 45161 34728 " /> 
<path d="M45161 34924 A3.9e+02 3.9e+02 0 0 0 45949 34924 " /> 
<path d="M47871 34728 L47871 34924" /> 
<path d="M47083 34728 L47083 34924" /> 
<path d="M47871 34728 A3.9e+02 3.9e+02 0 0 0 47083 34728 " /> 
<path d="M47083 34924 A3.9e+02 3.9e+02 0 0 0 47871 34924 " /> 
<path d="M31025 39975 L31575 39975" /> 
<path d="M31575 39975 L31575 40525" /> 
<path d="M31575 40525 L31025 40525" /> 
<path d="M31025 39975 L31025 40525" /> 
<ellipse cx="31300" cy="41250" rx="275" ry="275"  /> 
<path d="M49467 13887 L48917 13887" /> 
<path d="M48917 13887 L48917 13337" /> 
<path d="M48917 13337 L49467 13337" /> 
<path d="M49467 13887 L49467 13337" /> 
<ellipse cx="49192" cy="12612" rx="275" ry="275"  /> 
<ellipse cx="47460" cy="37580" rx="275" ry="275"  /> 
<ellipse cx="47460" cy="38580" rx="275" ry="275"  /> 
<ellipse cx="45570" cy="37580" rx="275" ry="275"  /> 
<ellipse cx="45570" cy="38580" rx="275" ry="275"  /> 
<ellipse cx="50296" cy="34466" rx="275" ry="275"  /> 
<ellipse cx="50296" cy="35466" rx="275" ry="275"  /> 
<path d="M51650 10700 L51650 9700" /> 
<path d="M51650 9700 L52650 9700" /> 
<path d="M52650 9700 L52650 10700" /> 
<path d="M51650 10700 L52650 10700" /> 
<ellipse cx="54150" cy="10200" rx="500" ry="500"  /> 
<path d="M55650 10700 L55650 9700" /> 
<path d="M55650 9700 L56650 9700" /> 
<path d="M56650 9700 L56650 10700" /> 
<path d="M55650 10700 L56650 10700" /> 
<ellipse cx="58150" cy="10200" rx="500" ry="500"  /> 
<path d="M42400 41700 L42400 40700" /> 
<path d="M42400 40700 L43400 40700" /> 
<path d="M43400 40700 L43400 41700" /> 
<path d="M42400 41700 L43400 41700" /> 
<ellipse cx="44900" cy="41200" rx="500" ry="500"  /> 
<path d="M38400 41700 L38400 40700" /> 
<path d="M38400 40700 L39400 40700" /> 
<path d="M39400 40700 L39400 41700" /> 
<path d="M38400 41700 L39400 41700" /> 
<ellipse cx="40900" cy="41200" rx="500" ry="500"  /> 
<path d="M58600 14800 L59600 14800" /> 
<path d="M59600 14800 L59600 15800" /> 
<path d="M59600 15800 L58600 15800" /> 
<path d="M58600 14800 L58600 15800" /> 
<ellipse cx="59100" cy="17300" rx="500" ry="500"  /> 
<path d="M48570 9700 L48570 10700" /> 
<path d="M48570 10700 L47570 10700" /> 
<path d="M47570 10700 L47570 9700" /> 
<path d="M48570 9700 L47570 9700" /> 
<ellipse cx="46070" cy="10200" rx="500" ry="500"  /> 
<path d="M44555 9695 L44555 10695" /> 
<path d="M44555 10695 L43555 10695" /> 
<path d="M43555 10695 L43555 9695" /> 
<path d="M44555 9695 L43555 9695" /> 
<ellipse cx="42055" cy="10195" rx="500" ry="500"  /> 
<ellipse cx="58260" cy="12870" rx="800" ry="800"  /> 
<ellipse cx="40726" cy="12832" rx="800" ry="800"  /> 
<ellipse cx="28450" cy="41300" rx="800" ry="800"  /> 
<ellipse cx="58270" cy="41280" rx="800" ry="800"  /> 
</g> 
</svg> 
