<?xml version="1.0" standalone="no"?>
 <!DOCTYPE svg PUBLIC "-//W3C//DTD SVG 1.1//EN" 
 "http://www.w3.org/Graphics/SVG/1.1/DTD/svg11.dtd"> 
<svg xmlns="http://www.w3.org/2000/svg" version="1.1" 
    width="11.397cm" height="9.80694cm" viewBox="0 0 44870 38610 ">
<title>SVG Picture created as pinguicaro-Eco2_User.svg date 2014/10/07 09:39:42 </title>
  <desc>Picture generated by PCBNEW </desc>
<g style="fill:#000000; fill-opacity:1;stroke:#000000; stroke-opacity:1;
stroke-linecap:round; stroke-linejoin:round; "
 transform="translate(0 0) scale(1 1)">
</g>
<g style="fill:#000000; fill-opacity:0.0; 
stroke:#000000; stroke-width:120; stroke-opacity:1; 
stroke-linecap:round; stroke-linejoin:round;">
<path d="M42573 19237
L42611 19180
L42649 19151
L42725 19122
L42763 19122
L42839 19151
L42878 19180
L42916 19237
L42916 19351
L42878 19408
L42839 19437
L42763 19465
L42725 19465
L42649 19437
L42611 19408
L42573 19351
L42573 19237
L42535 19180
L42497 19151
L42420 19122
L42268 19122
L42192 19151
L42154 19180
L42116 19237
L42116 19351
L42154 19408
L42192 19437
L42268 19465
L42420 19465
L42497 19437
L42535 19408
L42573 19351
" />
<path d="M42916 20008
L42916 19722
L42535 19694
L42573 19722
L42611 19780
L42611 19922
L42573 19980
L42535 20008
L42459 20037
L42268 20037
L42192 20008
L42154 19980
L42116 19922
L42116 19780
L42154 19722
L42192 19694
" />
<path d="M42154 20322
L42116 20322
L42039 20294
L42001 20265
" />
<path d="M42916 20522
L42916 20894
L42611 20694
L42611 20780
L42573 20837
L42535 20865
L42459 20894
L42268 20894
L42192 20865
L42154 20837
L42116 20780
L42116 20608
L42154 20551
L42192 20522
" />
<path d="M42649 21408
L42116 21408
" />
<path d="M42954 21265
L42382 21122
L42382 21494
" />
<path d="M42649 21980
L42116 21980
" />
<path d="M42954 21837
L42382 21694
L42382 22065
" />
<path d="M42116 22294
L42649 22294
" />
<path d="M42573 22294
L42611 22322
L42649 22380
L42649 22465
L42611 22522
L42535 22551
L42116 22551
" />
<path d="M42535 22551
L42611 22580
L42649 22637
L42649 22722
L42611 22780
L42535 22808
L42116 22808
" />
<path d="M42116 23094
L42649 23094
" />
<path d="M42573 23094
L42611 23122
L42649 23180
L42649 23265
L42611 23322
L42535 23351
L42116 23351
" />
<path d="M42535 23351
L42611 23380
L42649 23437
L42649 23522
L42611 23580
L42535 23608
L42116 23608
" />
<path d="M41799 4580
L41799 38180
" />
<path d="M35800 4579
L43079 4580
" />
<path d="M35800 38179
L43079 38180
" />
<path d="M41799 38180
L41569 37736
" />
<path d="M41799 38180
L42030 37736
" />
<path d="M41799 4580
L41569 5023
" />
<path d="M41799 4580
L42030 5023
" />
<path d="M15600 1063
L15714 1063
L15771 1025
L15800 987
L15857 873
L15885 720
L15885 416
L15857 340
L15828 301
L15771 263
L15657 263
L15600 301
L15571 340
L15542 416
L15542 606
L15571 682
L15600 720
L15657 759
L15771 759
L15828 720
L15857 682
L15885 606
" />
<path d="M16257 263
L16314 263
L16371 301
L16400 340
L16428 416
L16457 568
L16457 759
L16428 911
L16400 987
L16371 1025
L16314 1063
L16257 1063
L16200 1025
L16171 987
L16142 911
L16114 759
L16114 568
L16142 416
L16171 340
L16200 301
L16257 263
" />
<path d="M16742 1025
L16742 1063
L16714 1140
L16685 1178
" />
<path d="M17257 530
L17257 1063
" />
<path d="M17114 225
L16971 797
L17342 797
" />
<path d="M17542 340
L17571 301
L17628 263
L17771 263
L17828 301
L17857 340
L17885 416
L17885 492
L17857 606
L17514 1063
L17885 1063
" />
<path d="M18400 530
L18400 1063
" />
<path d="M18257 225
L18114 797
L18485 797
" />
<path d="M18714 1063
L18714 530
" />
<path d="M18714 606
L18742 568
L18800 530
L18885 530
L18942 568
L18971 644
L18971 1063
" />
<path d="M18971 644
L19000 568
L19057 530
L19142 530
L19200 568
L19228 644
L19228 1063
" />
<path d="M19514 1063
L19514 530
" />
<path d="M19514 606
L19542 568
L19600 530
L19685 530
L19742 568
L19771 644
L19771 1063
" />
<path d="M19771 644
L19800 568
L19857 530
L19942 530
L20000 568
L20028 644
L20028 1063
" />
<path d="M0 1380
L35600 1380
" />
<path d="M0 4379
L0 100
" />
<path d="M35600 4379
L35600 100
" />
<path d="M35600 1380
L35156 1610
" />
<path d="M35600 1380
L35156 1149
" />
<path d="M0 1380
L443 1610
" />
<path d="M0 1380
L443 1149
" />
</g> 
</svg>
