G04 #@! TF.FileFunction,Legend,Top*
%FSLAX46Y46*%
G04 Gerber Fmt 4.6, Leading zero omitted, Abs format (unit mm)*
G04 Created by KiCad (PCBNEW 4.0.6) date Sat Sep  2 21:00:00 2017*
%MOMM*%
%LPD*%
G01*
G04 APERTURE LIST*
%ADD10C,0.100000*%
%ADD11C,0.120000*%
%ADD12C,0.150000*%
G04 APERTURE END LIST*
D10*
D11*
X93092000Y-134700000D02*
X84452000Y-134700000D01*
X101472000Y-134700000D02*
X96392000Y-134700000D01*
X93092000Y-146900000D02*
X84452000Y-146900000D01*
X101472000Y-146900000D02*
X96392000Y-146900000D01*
X84452000Y-146900000D02*
X84452000Y-134700000D01*
X101472000Y-134700000D02*
X101472000Y-146900000D01*
X132450000Y-111380000D02*
G75*
G02X132450000Y-113380000I0J-1000000D01*
G01*
X132450000Y-113380000D02*
X132450000Y-114750000D01*
X132450000Y-114750000D02*
X153010000Y-114750000D01*
X153010000Y-114750000D02*
X153010000Y-110010000D01*
X153010000Y-110010000D02*
X132450000Y-110010000D01*
X132450000Y-110010000D02*
X132450000Y-111380000D01*
X107970000Y-144390000D02*
X107970000Y-139190000D01*
X107970000Y-139190000D02*
X105190000Y-139190000D01*
X105190000Y-139190000D02*
X105190000Y-144390000D01*
X105190000Y-144390000D02*
X107970000Y-144390000D01*
X107970000Y-145660000D02*
X107970000Y-147050000D01*
X107970000Y-147050000D02*
X106580000Y-147050000D01*
X170942000Y-113792000D02*
X170942000Y-123952000D01*
X172212000Y-113792000D02*
X164592000Y-113792000D01*
X164592000Y-113792000D02*
X164592000Y-123952000D01*
X164592000Y-123952000D02*
X172212000Y-123952000D01*
X172212000Y-123952000D02*
X172212000Y-113792000D01*
X97064643Y-59415560D02*
G75*
G03X97064000Y-65592236I979357J-3088440D01*
G01*
X99023357Y-59415560D02*
G75*
G02X99024000Y-65592236I-979357J-3088440D01*
G01*
X99023357Y-59415560D02*
G75*
G03X97064000Y-59415764I-979357J-3088440D01*
G01*
X94844000Y-62504000D02*
X101244000Y-62504000D01*
X94844000Y-62464000D02*
X101244000Y-62464000D01*
X94844000Y-62424000D02*
X101244000Y-62424000D01*
X94846000Y-62384000D02*
X101242000Y-62384000D01*
X94847000Y-62344000D02*
X101241000Y-62344000D01*
X94850000Y-62304000D02*
X101238000Y-62304000D01*
X94852000Y-62264000D02*
X101236000Y-62264000D01*
X94856000Y-62224000D02*
X97064000Y-62224000D01*
X99024000Y-62224000D02*
X101232000Y-62224000D01*
X94859000Y-62184000D02*
X97064000Y-62184000D01*
X99024000Y-62184000D02*
X101229000Y-62184000D01*
X94864000Y-62144000D02*
X97064000Y-62144000D01*
X99024000Y-62144000D02*
X101224000Y-62144000D01*
X94868000Y-62104000D02*
X97064000Y-62104000D01*
X99024000Y-62104000D02*
X101220000Y-62104000D01*
X94874000Y-62064000D02*
X97064000Y-62064000D01*
X99024000Y-62064000D02*
X101214000Y-62064000D01*
X94879000Y-62024000D02*
X97064000Y-62024000D01*
X99024000Y-62024000D02*
X101209000Y-62024000D01*
X94886000Y-61984000D02*
X97064000Y-61984000D01*
X99024000Y-61984000D02*
X101202000Y-61984000D01*
X94892000Y-61944000D02*
X97064000Y-61944000D01*
X99024000Y-61944000D02*
X101196000Y-61944000D01*
X94900000Y-61904000D02*
X97064000Y-61904000D01*
X99024000Y-61904000D02*
X101188000Y-61904000D01*
X94907000Y-61864000D02*
X97064000Y-61864000D01*
X99024000Y-61864000D02*
X101181000Y-61864000D01*
X94916000Y-61824000D02*
X97064000Y-61824000D01*
X99024000Y-61824000D02*
X101172000Y-61824000D01*
X94925000Y-61783000D02*
X97064000Y-61783000D01*
X99024000Y-61783000D02*
X101163000Y-61783000D01*
X94934000Y-61743000D02*
X97064000Y-61743000D01*
X99024000Y-61743000D02*
X101154000Y-61743000D01*
X94944000Y-61703000D02*
X97064000Y-61703000D01*
X99024000Y-61703000D02*
X101144000Y-61703000D01*
X94954000Y-61663000D02*
X97064000Y-61663000D01*
X99024000Y-61663000D02*
X101134000Y-61663000D01*
X94965000Y-61623000D02*
X97064000Y-61623000D01*
X99024000Y-61623000D02*
X101123000Y-61623000D01*
X94977000Y-61583000D02*
X97064000Y-61583000D01*
X99024000Y-61583000D02*
X101111000Y-61583000D01*
X94989000Y-61543000D02*
X97064000Y-61543000D01*
X99024000Y-61543000D02*
X101099000Y-61543000D01*
X95002000Y-61503000D02*
X97064000Y-61503000D01*
X99024000Y-61503000D02*
X101086000Y-61503000D01*
X95015000Y-61463000D02*
X97064000Y-61463000D01*
X99024000Y-61463000D02*
X101073000Y-61463000D01*
X95029000Y-61423000D02*
X97064000Y-61423000D01*
X99024000Y-61423000D02*
X101059000Y-61423000D01*
X95043000Y-61383000D02*
X97064000Y-61383000D01*
X99024000Y-61383000D02*
X101045000Y-61383000D01*
X95058000Y-61343000D02*
X97064000Y-61343000D01*
X99024000Y-61343000D02*
X101030000Y-61343000D01*
X95074000Y-61303000D02*
X97064000Y-61303000D01*
X99024000Y-61303000D02*
X101014000Y-61303000D01*
X95090000Y-61263000D02*
X97064000Y-61263000D01*
X99024000Y-61263000D02*
X100998000Y-61263000D01*
X95107000Y-61223000D02*
X97064000Y-61223000D01*
X99024000Y-61223000D02*
X100981000Y-61223000D01*
X95125000Y-61183000D02*
X97064000Y-61183000D01*
X99024000Y-61183000D02*
X100963000Y-61183000D01*
X95143000Y-61143000D02*
X97064000Y-61143000D01*
X99024000Y-61143000D02*
X100945000Y-61143000D01*
X95162000Y-61103000D02*
X97064000Y-61103000D01*
X99024000Y-61103000D02*
X100926000Y-61103000D01*
X95181000Y-61063000D02*
X97064000Y-61063000D01*
X99024000Y-61063000D02*
X100907000Y-61063000D01*
X95201000Y-61023000D02*
X97064000Y-61023000D01*
X99024000Y-61023000D02*
X100887000Y-61023000D01*
X95222000Y-60983000D02*
X97064000Y-60983000D01*
X99024000Y-60983000D02*
X100866000Y-60983000D01*
X95244000Y-60943000D02*
X97064000Y-60943000D01*
X99024000Y-60943000D02*
X100844000Y-60943000D01*
X95266000Y-60903000D02*
X97064000Y-60903000D01*
X99024000Y-60903000D02*
X100822000Y-60903000D01*
X95289000Y-60863000D02*
X97064000Y-60863000D01*
X99024000Y-60863000D02*
X100799000Y-60863000D01*
X95313000Y-60823000D02*
X97064000Y-60823000D01*
X99024000Y-60823000D02*
X100775000Y-60823000D01*
X95338000Y-60783000D02*
X97064000Y-60783000D01*
X99024000Y-60783000D02*
X100750000Y-60783000D01*
X95363000Y-60743000D02*
X97064000Y-60743000D01*
X99024000Y-60743000D02*
X100725000Y-60743000D01*
X95390000Y-60703000D02*
X97064000Y-60703000D01*
X99024000Y-60703000D02*
X100698000Y-60703000D01*
X95417000Y-60663000D02*
X97064000Y-60663000D01*
X99024000Y-60663000D02*
X100671000Y-60663000D01*
X95445000Y-60623000D02*
X97064000Y-60623000D01*
X99024000Y-60623000D02*
X100643000Y-60623000D01*
X95474000Y-60583000D02*
X97064000Y-60583000D01*
X99024000Y-60583000D02*
X100614000Y-60583000D01*
X95504000Y-60543000D02*
X97064000Y-60543000D01*
X99024000Y-60543000D02*
X100584000Y-60543000D01*
X95534000Y-60503000D02*
X97064000Y-60503000D01*
X99024000Y-60503000D02*
X100554000Y-60503000D01*
X95566000Y-60463000D02*
X97064000Y-60463000D01*
X99024000Y-60463000D02*
X100522000Y-60463000D01*
X95599000Y-60423000D02*
X97064000Y-60423000D01*
X99024000Y-60423000D02*
X100489000Y-60423000D01*
X95633000Y-60383000D02*
X97064000Y-60383000D01*
X99024000Y-60383000D02*
X100455000Y-60383000D01*
X95669000Y-60343000D02*
X97064000Y-60343000D01*
X99024000Y-60343000D02*
X100419000Y-60343000D01*
X95705000Y-60303000D02*
X97064000Y-60303000D01*
X99024000Y-60303000D02*
X100383000Y-60303000D01*
X95743000Y-60263000D02*
X100345000Y-60263000D01*
X95782000Y-60223000D02*
X100306000Y-60223000D01*
X95822000Y-60183000D02*
X100266000Y-60183000D01*
X95864000Y-60143000D02*
X100224000Y-60143000D01*
X95907000Y-60103000D02*
X100181000Y-60103000D01*
X95952000Y-60063000D02*
X100136000Y-60063000D01*
X95999000Y-60023000D02*
X100089000Y-60023000D01*
X96047000Y-59983000D02*
X100041000Y-59983000D01*
X96098000Y-59943000D02*
X99990000Y-59943000D01*
X96150000Y-59903000D02*
X99938000Y-59903000D01*
X96205000Y-59863000D02*
X99883000Y-59863000D01*
X96263000Y-59823000D02*
X99825000Y-59823000D01*
X96323000Y-59783000D02*
X99765000Y-59783000D01*
X96386000Y-59743000D02*
X99702000Y-59743000D01*
X96453000Y-59703000D02*
X99635000Y-59703000D01*
X96524000Y-59663000D02*
X99564000Y-59663000D01*
X96599000Y-59623000D02*
X99489000Y-59623000D01*
X96680000Y-59583000D02*
X99408000Y-59583000D01*
X96766000Y-59543000D02*
X99322000Y-59543000D01*
X96860000Y-59503000D02*
X99228000Y-59503000D01*
X96963000Y-59463000D02*
X99125000Y-59463000D01*
X97078000Y-59423000D02*
X99010000Y-59423000D01*
X97210000Y-59383000D02*
X98878000Y-59383000D01*
X97368000Y-59343000D02*
X98720000Y-59343000D01*
X97576000Y-59303000D02*
X98512000Y-59303000D01*
X98044000Y-65954000D02*
X98044000Y-64754000D01*
X97394000Y-65354000D02*
X98694000Y-65354000D01*
X107730000Y-106300000D02*
X107730000Y-102780000D01*
X109950000Y-106300000D02*
X109950000Y-102780000D01*
X107730000Y-106300000D02*
X107844000Y-106300000D01*
X109836000Y-106300000D02*
X109950000Y-106300000D01*
X107730000Y-102780000D02*
X107844000Y-102780000D01*
X109836000Y-102780000D02*
X109950000Y-102780000D01*
X87650000Y-106520000D02*
X91170000Y-106520000D01*
X87650000Y-108740000D02*
X91170000Y-108740000D01*
X87650000Y-106520000D02*
X87650000Y-106634000D01*
X87650000Y-108626000D02*
X87650000Y-108740000D01*
X91170000Y-106520000D02*
X91170000Y-106634000D01*
X91170000Y-108626000D02*
X91170000Y-108740000D01*
X87650000Y-111630000D02*
X91170000Y-111630000D01*
X87650000Y-113850000D02*
X91170000Y-113850000D01*
X87650000Y-111630000D02*
X87650000Y-111744000D01*
X87650000Y-113736000D02*
X87650000Y-113850000D01*
X91170000Y-111630000D02*
X91170000Y-111744000D01*
X91170000Y-113736000D02*
X91170000Y-113850000D01*
X98020000Y-129470000D02*
X94500000Y-129470000D01*
X98020000Y-127250000D02*
X94500000Y-127250000D01*
X98020000Y-129470000D02*
X98020000Y-129356000D01*
X98020000Y-127364000D02*
X98020000Y-127250000D01*
X94500000Y-129470000D02*
X94500000Y-129356000D01*
X94500000Y-127364000D02*
X94500000Y-127250000D01*
X143602612Y-131165429D02*
G75*
G03X143603255Y-124988753I-979357J3088440D01*
G01*
X141643898Y-131165429D02*
G75*
G02X141643255Y-124988753I979357J3088440D01*
G01*
X141643898Y-131165429D02*
G75*
G03X143603255Y-131165225I979357J3088440D01*
G01*
X145823255Y-128076989D02*
X139423255Y-128076989D01*
X145823255Y-128116989D02*
X139423255Y-128116989D01*
X145823255Y-128156989D02*
X139423255Y-128156989D01*
X145821255Y-128196989D02*
X139425255Y-128196989D01*
X145820255Y-128236989D02*
X139426255Y-128236989D01*
X145817255Y-128276989D02*
X139429255Y-128276989D01*
X145815255Y-128316989D02*
X139431255Y-128316989D01*
X145811255Y-128356989D02*
X143603255Y-128356989D01*
X141643255Y-128356989D02*
X139435255Y-128356989D01*
X145808255Y-128396989D02*
X143603255Y-128396989D01*
X141643255Y-128396989D02*
X139438255Y-128396989D01*
X145803255Y-128436989D02*
X143603255Y-128436989D01*
X141643255Y-128436989D02*
X139443255Y-128436989D01*
X145799255Y-128476989D02*
X143603255Y-128476989D01*
X141643255Y-128476989D02*
X139447255Y-128476989D01*
X145793255Y-128516989D02*
X143603255Y-128516989D01*
X141643255Y-128516989D02*
X139453255Y-128516989D01*
X145788255Y-128556989D02*
X143603255Y-128556989D01*
X141643255Y-128556989D02*
X139458255Y-128556989D01*
X145781255Y-128596989D02*
X143603255Y-128596989D01*
X141643255Y-128596989D02*
X139465255Y-128596989D01*
X145775255Y-128636989D02*
X143603255Y-128636989D01*
X141643255Y-128636989D02*
X139471255Y-128636989D01*
X145767255Y-128676989D02*
X143603255Y-128676989D01*
X141643255Y-128676989D02*
X139479255Y-128676989D01*
X145760255Y-128716989D02*
X143603255Y-128716989D01*
X141643255Y-128716989D02*
X139486255Y-128716989D01*
X145751255Y-128756989D02*
X143603255Y-128756989D01*
X141643255Y-128756989D02*
X139495255Y-128756989D01*
X145742255Y-128797989D02*
X143603255Y-128797989D01*
X141643255Y-128797989D02*
X139504255Y-128797989D01*
X145733255Y-128837989D02*
X143603255Y-128837989D01*
X141643255Y-128837989D02*
X139513255Y-128837989D01*
X145723255Y-128877989D02*
X143603255Y-128877989D01*
X141643255Y-128877989D02*
X139523255Y-128877989D01*
X145713255Y-128917989D02*
X143603255Y-128917989D01*
X141643255Y-128917989D02*
X139533255Y-128917989D01*
X145702255Y-128957989D02*
X143603255Y-128957989D01*
X141643255Y-128957989D02*
X139544255Y-128957989D01*
X145690255Y-128997989D02*
X143603255Y-128997989D01*
X141643255Y-128997989D02*
X139556255Y-128997989D01*
X145678255Y-129037989D02*
X143603255Y-129037989D01*
X141643255Y-129037989D02*
X139568255Y-129037989D01*
X145665255Y-129077989D02*
X143603255Y-129077989D01*
X141643255Y-129077989D02*
X139581255Y-129077989D01*
X145652255Y-129117989D02*
X143603255Y-129117989D01*
X141643255Y-129117989D02*
X139594255Y-129117989D01*
X145638255Y-129157989D02*
X143603255Y-129157989D01*
X141643255Y-129157989D02*
X139608255Y-129157989D01*
X145624255Y-129197989D02*
X143603255Y-129197989D01*
X141643255Y-129197989D02*
X139622255Y-129197989D01*
X145609255Y-129237989D02*
X143603255Y-129237989D01*
X141643255Y-129237989D02*
X139637255Y-129237989D01*
X145593255Y-129277989D02*
X143603255Y-129277989D01*
X141643255Y-129277989D02*
X139653255Y-129277989D01*
X145577255Y-129317989D02*
X143603255Y-129317989D01*
X141643255Y-129317989D02*
X139669255Y-129317989D01*
X145560255Y-129357989D02*
X143603255Y-129357989D01*
X141643255Y-129357989D02*
X139686255Y-129357989D01*
X145542255Y-129397989D02*
X143603255Y-129397989D01*
X141643255Y-129397989D02*
X139704255Y-129397989D01*
X145524255Y-129437989D02*
X143603255Y-129437989D01*
X141643255Y-129437989D02*
X139722255Y-129437989D01*
X145505255Y-129477989D02*
X143603255Y-129477989D01*
X141643255Y-129477989D02*
X139741255Y-129477989D01*
X145486255Y-129517989D02*
X143603255Y-129517989D01*
X141643255Y-129517989D02*
X139760255Y-129517989D01*
X145466255Y-129557989D02*
X143603255Y-129557989D01*
X141643255Y-129557989D02*
X139780255Y-129557989D01*
X145445255Y-129597989D02*
X143603255Y-129597989D01*
X141643255Y-129597989D02*
X139801255Y-129597989D01*
X145423255Y-129637989D02*
X143603255Y-129637989D01*
X141643255Y-129637989D02*
X139823255Y-129637989D01*
X145401255Y-129677989D02*
X143603255Y-129677989D01*
X141643255Y-129677989D02*
X139845255Y-129677989D01*
X145378255Y-129717989D02*
X143603255Y-129717989D01*
X141643255Y-129717989D02*
X139868255Y-129717989D01*
X145354255Y-129757989D02*
X143603255Y-129757989D01*
X141643255Y-129757989D02*
X139892255Y-129757989D01*
X145329255Y-129797989D02*
X143603255Y-129797989D01*
X141643255Y-129797989D02*
X139917255Y-129797989D01*
X145304255Y-129837989D02*
X143603255Y-129837989D01*
X141643255Y-129837989D02*
X139942255Y-129837989D01*
X145277255Y-129877989D02*
X143603255Y-129877989D01*
X141643255Y-129877989D02*
X139969255Y-129877989D01*
X145250255Y-129917989D02*
X143603255Y-129917989D01*
X141643255Y-129917989D02*
X139996255Y-129917989D01*
X145222255Y-129957989D02*
X143603255Y-129957989D01*
X141643255Y-129957989D02*
X140024255Y-129957989D01*
X145193255Y-129997989D02*
X143603255Y-129997989D01*
X141643255Y-129997989D02*
X140053255Y-129997989D01*
X145163255Y-130037989D02*
X143603255Y-130037989D01*
X141643255Y-130037989D02*
X140083255Y-130037989D01*
X145133255Y-130077989D02*
X143603255Y-130077989D01*
X141643255Y-130077989D02*
X140113255Y-130077989D01*
X145101255Y-130117989D02*
X143603255Y-130117989D01*
X141643255Y-130117989D02*
X140145255Y-130117989D01*
X145068255Y-130157989D02*
X143603255Y-130157989D01*
X141643255Y-130157989D02*
X140178255Y-130157989D01*
X145034255Y-130197989D02*
X143603255Y-130197989D01*
X141643255Y-130197989D02*
X140212255Y-130197989D01*
X144998255Y-130237989D02*
X143603255Y-130237989D01*
X141643255Y-130237989D02*
X140248255Y-130237989D01*
X144962255Y-130277989D02*
X143603255Y-130277989D01*
X141643255Y-130277989D02*
X140284255Y-130277989D01*
X144924255Y-130317989D02*
X140322255Y-130317989D01*
X144885255Y-130357989D02*
X140361255Y-130357989D01*
X144845255Y-130397989D02*
X140401255Y-130397989D01*
X144803255Y-130437989D02*
X140443255Y-130437989D01*
X144760255Y-130477989D02*
X140486255Y-130477989D01*
X144715255Y-130517989D02*
X140531255Y-130517989D01*
X144668255Y-130557989D02*
X140578255Y-130557989D01*
X144620255Y-130597989D02*
X140626255Y-130597989D01*
X144569255Y-130637989D02*
X140677255Y-130637989D01*
X144517255Y-130677989D02*
X140729255Y-130677989D01*
X144462255Y-130717989D02*
X140784255Y-130717989D01*
X144404255Y-130757989D02*
X140842255Y-130757989D01*
X144344255Y-130797989D02*
X140902255Y-130797989D01*
X144281255Y-130837989D02*
X140965255Y-130837989D01*
X144214255Y-130877989D02*
X141032255Y-130877989D01*
X144143255Y-130917989D02*
X141103255Y-130917989D01*
X144068255Y-130957989D02*
X141178255Y-130957989D01*
X143987255Y-130997989D02*
X141259255Y-130997989D01*
X143901255Y-131037989D02*
X141345255Y-131037989D01*
X143807255Y-131077989D02*
X141439255Y-131077989D01*
X143704255Y-131117989D02*
X141542255Y-131117989D01*
X143589255Y-131157989D02*
X141657255Y-131157989D01*
X143457255Y-131197989D02*
X141789255Y-131197989D01*
X143299255Y-131237989D02*
X141947255Y-131237989D01*
X143091255Y-131277989D02*
X142155255Y-131277989D01*
X142623255Y-124626989D02*
X142623255Y-125826989D01*
X143273255Y-125226989D02*
X141973255Y-125226989D01*
X161578440Y-144562643D02*
G75*
G03X155401764Y-144562000I-3088440J-979357D01*
G01*
X161578440Y-146521357D02*
G75*
G02X155401764Y-146522000I-3088440J979357D01*
G01*
X161578440Y-146521357D02*
G75*
G03X161578236Y-144562000I-3088440J979357D01*
G01*
X158490000Y-142342000D02*
X158490000Y-148742000D01*
X158530000Y-142342000D02*
X158530000Y-148742000D01*
X158570000Y-142342000D02*
X158570000Y-148742000D01*
X158610000Y-142344000D02*
X158610000Y-148740000D01*
X158650000Y-142345000D02*
X158650000Y-148739000D01*
X158690000Y-142348000D02*
X158690000Y-148736000D01*
X158730000Y-142350000D02*
X158730000Y-148734000D01*
X158770000Y-142354000D02*
X158770000Y-144562000D01*
X158770000Y-146522000D02*
X158770000Y-148730000D01*
X158810000Y-142357000D02*
X158810000Y-144562000D01*
X158810000Y-146522000D02*
X158810000Y-148727000D01*
X158850000Y-142362000D02*
X158850000Y-144562000D01*
X158850000Y-146522000D02*
X158850000Y-148722000D01*
X158890000Y-142366000D02*
X158890000Y-144562000D01*
X158890000Y-146522000D02*
X158890000Y-148718000D01*
X158930000Y-142372000D02*
X158930000Y-144562000D01*
X158930000Y-146522000D02*
X158930000Y-148712000D01*
X158970000Y-142377000D02*
X158970000Y-144562000D01*
X158970000Y-146522000D02*
X158970000Y-148707000D01*
X159010000Y-142384000D02*
X159010000Y-144562000D01*
X159010000Y-146522000D02*
X159010000Y-148700000D01*
X159050000Y-142390000D02*
X159050000Y-144562000D01*
X159050000Y-146522000D02*
X159050000Y-148694000D01*
X159090000Y-142398000D02*
X159090000Y-144562000D01*
X159090000Y-146522000D02*
X159090000Y-148686000D01*
X159130000Y-142405000D02*
X159130000Y-144562000D01*
X159130000Y-146522000D02*
X159130000Y-148679000D01*
X159170000Y-142414000D02*
X159170000Y-144562000D01*
X159170000Y-146522000D02*
X159170000Y-148670000D01*
X159211000Y-142423000D02*
X159211000Y-144562000D01*
X159211000Y-146522000D02*
X159211000Y-148661000D01*
X159251000Y-142432000D02*
X159251000Y-144562000D01*
X159251000Y-146522000D02*
X159251000Y-148652000D01*
X159291000Y-142442000D02*
X159291000Y-144562000D01*
X159291000Y-146522000D02*
X159291000Y-148642000D01*
X159331000Y-142452000D02*
X159331000Y-144562000D01*
X159331000Y-146522000D02*
X159331000Y-148632000D01*
X159371000Y-142463000D02*
X159371000Y-144562000D01*
X159371000Y-146522000D02*
X159371000Y-148621000D01*
X159411000Y-142475000D02*
X159411000Y-144562000D01*
X159411000Y-146522000D02*
X159411000Y-148609000D01*
X159451000Y-142487000D02*
X159451000Y-144562000D01*
X159451000Y-146522000D02*
X159451000Y-148597000D01*
X159491000Y-142500000D02*
X159491000Y-144562000D01*
X159491000Y-146522000D02*
X159491000Y-148584000D01*
X159531000Y-142513000D02*
X159531000Y-144562000D01*
X159531000Y-146522000D02*
X159531000Y-148571000D01*
X159571000Y-142527000D02*
X159571000Y-144562000D01*
X159571000Y-146522000D02*
X159571000Y-148557000D01*
X159611000Y-142541000D02*
X159611000Y-144562000D01*
X159611000Y-146522000D02*
X159611000Y-148543000D01*
X159651000Y-142556000D02*
X159651000Y-144562000D01*
X159651000Y-146522000D02*
X159651000Y-148528000D01*
X159691000Y-142572000D02*
X159691000Y-144562000D01*
X159691000Y-146522000D02*
X159691000Y-148512000D01*
X159731000Y-142588000D02*
X159731000Y-144562000D01*
X159731000Y-146522000D02*
X159731000Y-148496000D01*
X159771000Y-142605000D02*
X159771000Y-144562000D01*
X159771000Y-146522000D02*
X159771000Y-148479000D01*
X159811000Y-142623000D02*
X159811000Y-144562000D01*
X159811000Y-146522000D02*
X159811000Y-148461000D01*
X159851000Y-142641000D02*
X159851000Y-144562000D01*
X159851000Y-146522000D02*
X159851000Y-148443000D01*
X159891000Y-142660000D02*
X159891000Y-144562000D01*
X159891000Y-146522000D02*
X159891000Y-148424000D01*
X159931000Y-142679000D02*
X159931000Y-144562000D01*
X159931000Y-146522000D02*
X159931000Y-148405000D01*
X159971000Y-142699000D02*
X159971000Y-144562000D01*
X159971000Y-146522000D02*
X159971000Y-148385000D01*
X160011000Y-142720000D02*
X160011000Y-144562000D01*
X160011000Y-146522000D02*
X160011000Y-148364000D01*
X160051000Y-142742000D02*
X160051000Y-144562000D01*
X160051000Y-146522000D02*
X160051000Y-148342000D01*
X160091000Y-142764000D02*
X160091000Y-144562000D01*
X160091000Y-146522000D02*
X160091000Y-148320000D01*
X160131000Y-142787000D02*
X160131000Y-144562000D01*
X160131000Y-146522000D02*
X160131000Y-148297000D01*
X160171000Y-142811000D02*
X160171000Y-144562000D01*
X160171000Y-146522000D02*
X160171000Y-148273000D01*
X160211000Y-142836000D02*
X160211000Y-144562000D01*
X160211000Y-146522000D02*
X160211000Y-148248000D01*
X160251000Y-142861000D02*
X160251000Y-144562000D01*
X160251000Y-146522000D02*
X160251000Y-148223000D01*
X160291000Y-142888000D02*
X160291000Y-144562000D01*
X160291000Y-146522000D02*
X160291000Y-148196000D01*
X160331000Y-142915000D02*
X160331000Y-144562000D01*
X160331000Y-146522000D02*
X160331000Y-148169000D01*
X160371000Y-142943000D02*
X160371000Y-144562000D01*
X160371000Y-146522000D02*
X160371000Y-148141000D01*
X160411000Y-142972000D02*
X160411000Y-144562000D01*
X160411000Y-146522000D02*
X160411000Y-148112000D01*
X160451000Y-143002000D02*
X160451000Y-144562000D01*
X160451000Y-146522000D02*
X160451000Y-148082000D01*
X160491000Y-143032000D02*
X160491000Y-144562000D01*
X160491000Y-146522000D02*
X160491000Y-148052000D01*
X160531000Y-143064000D02*
X160531000Y-144562000D01*
X160531000Y-146522000D02*
X160531000Y-148020000D01*
X160571000Y-143097000D02*
X160571000Y-144562000D01*
X160571000Y-146522000D02*
X160571000Y-147987000D01*
X160611000Y-143131000D02*
X160611000Y-144562000D01*
X160611000Y-146522000D02*
X160611000Y-147953000D01*
X160651000Y-143167000D02*
X160651000Y-144562000D01*
X160651000Y-146522000D02*
X160651000Y-147917000D01*
X160691000Y-143203000D02*
X160691000Y-144562000D01*
X160691000Y-146522000D02*
X160691000Y-147881000D01*
X160731000Y-143241000D02*
X160731000Y-147843000D01*
X160771000Y-143280000D02*
X160771000Y-147804000D01*
X160811000Y-143320000D02*
X160811000Y-147764000D01*
X160851000Y-143362000D02*
X160851000Y-147722000D01*
X160891000Y-143405000D02*
X160891000Y-147679000D01*
X160931000Y-143450000D02*
X160931000Y-147634000D01*
X160971000Y-143497000D02*
X160971000Y-147587000D01*
X161011000Y-143545000D02*
X161011000Y-147539000D01*
X161051000Y-143596000D02*
X161051000Y-147488000D01*
X161091000Y-143648000D02*
X161091000Y-147436000D01*
X161131000Y-143703000D02*
X161131000Y-147381000D01*
X161171000Y-143761000D02*
X161171000Y-147323000D01*
X161211000Y-143821000D02*
X161211000Y-147263000D01*
X161251000Y-143884000D02*
X161251000Y-147200000D01*
X161291000Y-143951000D02*
X161291000Y-147133000D01*
X161331000Y-144022000D02*
X161331000Y-147062000D01*
X161371000Y-144097000D02*
X161371000Y-146987000D01*
X161411000Y-144178000D02*
X161411000Y-146906000D01*
X161451000Y-144264000D02*
X161451000Y-146820000D01*
X161491000Y-144358000D02*
X161491000Y-146726000D01*
X161531000Y-144461000D02*
X161531000Y-146623000D01*
X161571000Y-144576000D02*
X161571000Y-146508000D01*
X161611000Y-144708000D02*
X161611000Y-146376000D01*
X161651000Y-144866000D02*
X161651000Y-146218000D01*
X161691000Y-145074000D02*
X161691000Y-146010000D01*
X155040000Y-145542000D02*
X156240000Y-145542000D01*
X155640000Y-144892000D02*
X155640000Y-146192000D01*
X141643898Y-134132549D02*
G75*
G03X141643255Y-140309225I979357J-3088440D01*
G01*
X143602612Y-134132549D02*
G75*
G02X143603255Y-140309225I-979357J-3088440D01*
G01*
X143602612Y-134132549D02*
G75*
G03X141643255Y-134132753I-979357J-3088440D01*
G01*
X139423255Y-137220989D02*
X145823255Y-137220989D01*
X139423255Y-137180989D02*
X145823255Y-137180989D01*
X139423255Y-137140989D02*
X145823255Y-137140989D01*
X139425255Y-137100989D02*
X145821255Y-137100989D01*
X139426255Y-137060989D02*
X145820255Y-137060989D01*
X139429255Y-137020989D02*
X145817255Y-137020989D01*
X139431255Y-136980989D02*
X145815255Y-136980989D01*
X139435255Y-136940989D02*
X141643255Y-136940989D01*
X143603255Y-136940989D02*
X145811255Y-136940989D01*
X139438255Y-136900989D02*
X141643255Y-136900989D01*
X143603255Y-136900989D02*
X145808255Y-136900989D01*
X139443255Y-136860989D02*
X141643255Y-136860989D01*
X143603255Y-136860989D02*
X145803255Y-136860989D01*
X139447255Y-136820989D02*
X141643255Y-136820989D01*
X143603255Y-136820989D02*
X145799255Y-136820989D01*
X139453255Y-136780989D02*
X141643255Y-136780989D01*
X143603255Y-136780989D02*
X145793255Y-136780989D01*
X139458255Y-136740989D02*
X141643255Y-136740989D01*
X143603255Y-136740989D02*
X145788255Y-136740989D01*
X139465255Y-136700989D02*
X141643255Y-136700989D01*
X143603255Y-136700989D02*
X145781255Y-136700989D01*
X139471255Y-136660989D02*
X141643255Y-136660989D01*
X143603255Y-136660989D02*
X145775255Y-136660989D01*
X139479255Y-136620989D02*
X141643255Y-136620989D01*
X143603255Y-136620989D02*
X145767255Y-136620989D01*
X139486255Y-136580989D02*
X141643255Y-136580989D01*
X143603255Y-136580989D02*
X145760255Y-136580989D01*
X139495255Y-136540989D02*
X141643255Y-136540989D01*
X143603255Y-136540989D02*
X145751255Y-136540989D01*
X139504255Y-136499989D02*
X141643255Y-136499989D01*
X143603255Y-136499989D02*
X145742255Y-136499989D01*
X139513255Y-136459989D02*
X141643255Y-136459989D01*
X143603255Y-136459989D02*
X145733255Y-136459989D01*
X139523255Y-136419989D02*
X141643255Y-136419989D01*
X143603255Y-136419989D02*
X145723255Y-136419989D01*
X139533255Y-136379989D02*
X141643255Y-136379989D01*
X143603255Y-136379989D02*
X145713255Y-136379989D01*
X139544255Y-136339989D02*
X141643255Y-136339989D01*
X143603255Y-136339989D02*
X145702255Y-136339989D01*
X139556255Y-136299989D02*
X141643255Y-136299989D01*
X143603255Y-136299989D02*
X145690255Y-136299989D01*
X139568255Y-136259989D02*
X141643255Y-136259989D01*
X143603255Y-136259989D02*
X145678255Y-136259989D01*
X139581255Y-136219989D02*
X141643255Y-136219989D01*
X143603255Y-136219989D02*
X145665255Y-136219989D01*
X139594255Y-136179989D02*
X141643255Y-136179989D01*
X143603255Y-136179989D02*
X145652255Y-136179989D01*
X139608255Y-136139989D02*
X141643255Y-136139989D01*
X143603255Y-136139989D02*
X145638255Y-136139989D01*
X139622255Y-136099989D02*
X141643255Y-136099989D01*
X143603255Y-136099989D02*
X145624255Y-136099989D01*
X139637255Y-136059989D02*
X141643255Y-136059989D01*
X143603255Y-136059989D02*
X145609255Y-136059989D01*
X139653255Y-136019989D02*
X141643255Y-136019989D01*
X143603255Y-136019989D02*
X145593255Y-136019989D01*
X139669255Y-135979989D02*
X141643255Y-135979989D01*
X143603255Y-135979989D02*
X145577255Y-135979989D01*
X139686255Y-135939989D02*
X141643255Y-135939989D01*
X143603255Y-135939989D02*
X145560255Y-135939989D01*
X139704255Y-135899989D02*
X141643255Y-135899989D01*
X143603255Y-135899989D02*
X145542255Y-135899989D01*
X139722255Y-135859989D02*
X141643255Y-135859989D01*
X143603255Y-135859989D02*
X145524255Y-135859989D01*
X139741255Y-135819989D02*
X141643255Y-135819989D01*
X143603255Y-135819989D02*
X145505255Y-135819989D01*
X139760255Y-135779989D02*
X141643255Y-135779989D01*
X143603255Y-135779989D02*
X145486255Y-135779989D01*
X139780255Y-135739989D02*
X141643255Y-135739989D01*
X143603255Y-135739989D02*
X145466255Y-135739989D01*
X139801255Y-135699989D02*
X141643255Y-135699989D01*
X143603255Y-135699989D02*
X145445255Y-135699989D01*
X139823255Y-135659989D02*
X141643255Y-135659989D01*
X143603255Y-135659989D02*
X145423255Y-135659989D01*
X139845255Y-135619989D02*
X141643255Y-135619989D01*
X143603255Y-135619989D02*
X145401255Y-135619989D01*
X139868255Y-135579989D02*
X141643255Y-135579989D01*
X143603255Y-135579989D02*
X145378255Y-135579989D01*
X139892255Y-135539989D02*
X141643255Y-135539989D01*
X143603255Y-135539989D02*
X145354255Y-135539989D01*
X139917255Y-135499989D02*
X141643255Y-135499989D01*
X143603255Y-135499989D02*
X145329255Y-135499989D01*
X139942255Y-135459989D02*
X141643255Y-135459989D01*
X143603255Y-135459989D02*
X145304255Y-135459989D01*
X139969255Y-135419989D02*
X141643255Y-135419989D01*
X143603255Y-135419989D02*
X145277255Y-135419989D01*
X139996255Y-135379989D02*
X141643255Y-135379989D01*
X143603255Y-135379989D02*
X145250255Y-135379989D01*
X140024255Y-135339989D02*
X141643255Y-135339989D01*
X143603255Y-135339989D02*
X145222255Y-135339989D01*
X140053255Y-135299989D02*
X141643255Y-135299989D01*
X143603255Y-135299989D02*
X145193255Y-135299989D01*
X140083255Y-135259989D02*
X141643255Y-135259989D01*
X143603255Y-135259989D02*
X145163255Y-135259989D01*
X140113255Y-135219989D02*
X141643255Y-135219989D01*
X143603255Y-135219989D02*
X145133255Y-135219989D01*
X140145255Y-135179989D02*
X141643255Y-135179989D01*
X143603255Y-135179989D02*
X145101255Y-135179989D01*
X140178255Y-135139989D02*
X141643255Y-135139989D01*
X143603255Y-135139989D02*
X145068255Y-135139989D01*
X140212255Y-135099989D02*
X141643255Y-135099989D01*
X143603255Y-135099989D02*
X145034255Y-135099989D01*
X140248255Y-135059989D02*
X141643255Y-135059989D01*
X143603255Y-135059989D02*
X144998255Y-135059989D01*
X140284255Y-135019989D02*
X141643255Y-135019989D01*
X143603255Y-135019989D02*
X144962255Y-135019989D01*
X140322255Y-134979989D02*
X144924255Y-134979989D01*
X140361255Y-134939989D02*
X144885255Y-134939989D01*
X140401255Y-134899989D02*
X144845255Y-134899989D01*
X140443255Y-134859989D02*
X144803255Y-134859989D01*
X140486255Y-134819989D02*
X144760255Y-134819989D01*
X140531255Y-134779989D02*
X144715255Y-134779989D01*
X140578255Y-134739989D02*
X144668255Y-134739989D01*
X140626255Y-134699989D02*
X144620255Y-134699989D01*
X140677255Y-134659989D02*
X144569255Y-134659989D01*
X140729255Y-134619989D02*
X144517255Y-134619989D01*
X140784255Y-134579989D02*
X144462255Y-134579989D01*
X140842255Y-134539989D02*
X144404255Y-134539989D01*
X140902255Y-134499989D02*
X144344255Y-134499989D01*
X140965255Y-134459989D02*
X144281255Y-134459989D01*
X141032255Y-134419989D02*
X144214255Y-134419989D01*
X141103255Y-134379989D02*
X144143255Y-134379989D01*
X141178255Y-134339989D02*
X144068255Y-134339989D01*
X141259255Y-134299989D02*
X143987255Y-134299989D01*
X141345255Y-134259989D02*
X143901255Y-134259989D01*
X141439255Y-134219989D02*
X143807255Y-134219989D01*
X141542255Y-134179989D02*
X143704255Y-134179989D01*
X141657255Y-134139989D02*
X143589255Y-134139989D01*
X141789255Y-134099989D02*
X143457255Y-134099989D01*
X141947255Y-134059989D02*
X143299255Y-134059989D01*
X142155255Y-134019989D02*
X143091255Y-134019989D01*
X142623255Y-140670989D02*
X142623255Y-139470989D01*
X141973255Y-140070989D02*
X143273255Y-140070989D01*
X165898643Y-142433560D02*
G75*
G03X165898000Y-148610236I979357J-3088440D01*
G01*
X167857357Y-142433560D02*
G75*
G02X167858000Y-148610236I-979357J-3088440D01*
G01*
X167857357Y-142433560D02*
G75*
G03X165898000Y-142433764I-979357J-3088440D01*
G01*
X163678000Y-145522000D02*
X170078000Y-145522000D01*
X163678000Y-145482000D02*
X170078000Y-145482000D01*
X163678000Y-145442000D02*
X170078000Y-145442000D01*
X163680000Y-145402000D02*
X170076000Y-145402000D01*
X163681000Y-145362000D02*
X170075000Y-145362000D01*
X163684000Y-145322000D02*
X170072000Y-145322000D01*
X163686000Y-145282000D02*
X170070000Y-145282000D01*
X163690000Y-145242000D02*
X165898000Y-145242000D01*
X167858000Y-145242000D02*
X170066000Y-145242000D01*
X163693000Y-145202000D02*
X165898000Y-145202000D01*
X167858000Y-145202000D02*
X170063000Y-145202000D01*
X163698000Y-145162000D02*
X165898000Y-145162000D01*
X167858000Y-145162000D02*
X170058000Y-145162000D01*
X163702000Y-145122000D02*
X165898000Y-145122000D01*
X167858000Y-145122000D02*
X170054000Y-145122000D01*
X163708000Y-145082000D02*
X165898000Y-145082000D01*
X167858000Y-145082000D02*
X170048000Y-145082000D01*
X163713000Y-145042000D02*
X165898000Y-145042000D01*
X167858000Y-145042000D02*
X170043000Y-145042000D01*
X163720000Y-145002000D02*
X165898000Y-145002000D01*
X167858000Y-145002000D02*
X170036000Y-145002000D01*
X163726000Y-144962000D02*
X165898000Y-144962000D01*
X167858000Y-144962000D02*
X170030000Y-144962000D01*
X163734000Y-144922000D02*
X165898000Y-144922000D01*
X167858000Y-144922000D02*
X170022000Y-144922000D01*
X163741000Y-144882000D02*
X165898000Y-144882000D01*
X167858000Y-144882000D02*
X170015000Y-144882000D01*
X163750000Y-144842000D02*
X165898000Y-144842000D01*
X167858000Y-144842000D02*
X170006000Y-144842000D01*
X163759000Y-144801000D02*
X165898000Y-144801000D01*
X167858000Y-144801000D02*
X169997000Y-144801000D01*
X163768000Y-144761000D02*
X165898000Y-144761000D01*
X167858000Y-144761000D02*
X169988000Y-144761000D01*
X163778000Y-144721000D02*
X165898000Y-144721000D01*
X167858000Y-144721000D02*
X169978000Y-144721000D01*
X163788000Y-144681000D02*
X165898000Y-144681000D01*
X167858000Y-144681000D02*
X169968000Y-144681000D01*
X163799000Y-144641000D02*
X165898000Y-144641000D01*
X167858000Y-144641000D02*
X169957000Y-144641000D01*
X163811000Y-144601000D02*
X165898000Y-144601000D01*
X167858000Y-144601000D02*
X169945000Y-144601000D01*
X163823000Y-144561000D02*
X165898000Y-144561000D01*
X167858000Y-144561000D02*
X169933000Y-144561000D01*
X163836000Y-144521000D02*
X165898000Y-144521000D01*
X167858000Y-144521000D02*
X169920000Y-144521000D01*
X163849000Y-144481000D02*
X165898000Y-144481000D01*
X167858000Y-144481000D02*
X169907000Y-144481000D01*
X163863000Y-144441000D02*
X165898000Y-144441000D01*
X167858000Y-144441000D02*
X169893000Y-144441000D01*
X163877000Y-144401000D02*
X165898000Y-144401000D01*
X167858000Y-144401000D02*
X169879000Y-144401000D01*
X163892000Y-144361000D02*
X165898000Y-144361000D01*
X167858000Y-144361000D02*
X169864000Y-144361000D01*
X163908000Y-144321000D02*
X165898000Y-144321000D01*
X167858000Y-144321000D02*
X169848000Y-144321000D01*
X163924000Y-144281000D02*
X165898000Y-144281000D01*
X167858000Y-144281000D02*
X169832000Y-144281000D01*
X163941000Y-144241000D02*
X165898000Y-144241000D01*
X167858000Y-144241000D02*
X169815000Y-144241000D01*
X163959000Y-144201000D02*
X165898000Y-144201000D01*
X167858000Y-144201000D02*
X169797000Y-144201000D01*
X163977000Y-144161000D02*
X165898000Y-144161000D01*
X167858000Y-144161000D02*
X169779000Y-144161000D01*
X163996000Y-144121000D02*
X165898000Y-144121000D01*
X167858000Y-144121000D02*
X169760000Y-144121000D01*
X164015000Y-144081000D02*
X165898000Y-144081000D01*
X167858000Y-144081000D02*
X169741000Y-144081000D01*
X164035000Y-144041000D02*
X165898000Y-144041000D01*
X167858000Y-144041000D02*
X169721000Y-144041000D01*
X164056000Y-144001000D02*
X165898000Y-144001000D01*
X167858000Y-144001000D02*
X169700000Y-144001000D01*
X164078000Y-143961000D02*
X165898000Y-143961000D01*
X167858000Y-143961000D02*
X169678000Y-143961000D01*
X164100000Y-143921000D02*
X165898000Y-143921000D01*
X167858000Y-143921000D02*
X169656000Y-143921000D01*
X164123000Y-143881000D02*
X165898000Y-143881000D01*
X167858000Y-143881000D02*
X169633000Y-143881000D01*
X164147000Y-143841000D02*
X165898000Y-143841000D01*
X167858000Y-143841000D02*
X169609000Y-143841000D01*
X164172000Y-143801000D02*
X165898000Y-143801000D01*
X167858000Y-143801000D02*
X169584000Y-143801000D01*
X164197000Y-143761000D02*
X165898000Y-143761000D01*
X167858000Y-143761000D02*
X169559000Y-143761000D01*
X164224000Y-143721000D02*
X165898000Y-143721000D01*
X167858000Y-143721000D02*
X169532000Y-143721000D01*
X164251000Y-143681000D02*
X165898000Y-143681000D01*
X167858000Y-143681000D02*
X169505000Y-143681000D01*
X164279000Y-143641000D02*
X165898000Y-143641000D01*
X167858000Y-143641000D02*
X169477000Y-143641000D01*
X164308000Y-143601000D02*
X165898000Y-143601000D01*
X167858000Y-143601000D02*
X169448000Y-143601000D01*
X164338000Y-143561000D02*
X165898000Y-143561000D01*
X167858000Y-143561000D02*
X169418000Y-143561000D01*
X164368000Y-143521000D02*
X165898000Y-143521000D01*
X167858000Y-143521000D02*
X169388000Y-143521000D01*
X164400000Y-143481000D02*
X165898000Y-143481000D01*
X167858000Y-143481000D02*
X169356000Y-143481000D01*
X164433000Y-143441000D02*
X165898000Y-143441000D01*
X167858000Y-143441000D02*
X169323000Y-143441000D01*
X164467000Y-143401000D02*
X165898000Y-143401000D01*
X167858000Y-143401000D02*
X169289000Y-143401000D01*
X164503000Y-143361000D02*
X165898000Y-143361000D01*
X167858000Y-143361000D02*
X169253000Y-143361000D01*
X164539000Y-143321000D02*
X165898000Y-143321000D01*
X167858000Y-143321000D02*
X169217000Y-143321000D01*
X164577000Y-143281000D02*
X169179000Y-143281000D01*
X164616000Y-143241000D02*
X169140000Y-143241000D01*
X164656000Y-143201000D02*
X169100000Y-143201000D01*
X164698000Y-143161000D02*
X169058000Y-143161000D01*
X164741000Y-143121000D02*
X169015000Y-143121000D01*
X164786000Y-143081000D02*
X168970000Y-143081000D01*
X164833000Y-143041000D02*
X168923000Y-143041000D01*
X164881000Y-143001000D02*
X168875000Y-143001000D01*
X164932000Y-142961000D02*
X168824000Y-142961000D01*
X164984000Y-142921000D02*
X168772000Y-142921000D01*
X165039000Y-142881000D02*
X168717000Y-142881000D01*
X165097000Y-142841000D02*
X168659000Y-142841000D01*
X165157000Y-142801000D02*
X168599000Y-142801000D01*
X165220000Y-142761000D02*
X168536000Y-142761000D01*
X165287000Y-142721000D02*
X168469000Y-142721000D01*
X165358000Y-142681000D02*
X168398000Y-142681000D01*
X165433000Y-142641000D02*
X168323000Y-142641000D01*
X165514000Y-142601000D02*
X168242000Y-142601000D01*
X165600000Y-142561000D02*
X168156000Y-142561000D01*
X165694000Y-142521000D02*
X168062000Y-142521000D01*
X165797000Y-142481000D02*
X167959000Y-142481000D01*
X165912000Y-142441000D02*
X167844000Y-142441000D01*
X166044000Y-142401000D02*
X167712000Y-142401000D01*
X166202000Y-142361000D02*
X167554000Y-142361000D01*
X166410000Y-142321000D02*
X167346000Y-142321000D01*
X166878000Y-148972000D02*
X166878000Y-147772000D01*
X166228000Y-148372000D02*
X167528000Y-148372000D01*
X149766000Y-148298000D02*
X149766000Y-144778000D01*
X151986000Y-148298000D02*
X151986000Y-144778000D01*
X149766000Y-148298000D02*
X149880000Y-148298000D01*
X151872000Y-148298000D02*
X151986000Y-148298000D01*
X149766000Y-144778000D02*
X149880000Y-144778000D01*
X151872000Y-144778000D02*
X151986000Y-144778000D01*
X146847255Y-134662989D02*
X146847255Y-131142989D01*
X149067255Y-134662989D02*
X149067255Y-131142989D01*
X146847255Y-134662989D02*
X146961255Y-134662989D01*
X148953255Y-134662989D02*
X149067255Y-134662989D01*
X146847255Y-131142989D02*
X146961255Y-131142989D01*
X148953255Y-131142989D02*
X149067255Y-131142989D01*
X140714000Y-111158000D02*
X144234000Y-111158000D01*
X140714000Y-113378000D02*
X144234000Y-113378000D01*
X140714000Y-111158000D02*
X140714000Y-111272000D01*
X140714000Y-113264000D02*
X140714000Y-113378000D01*
X144234000Y-111158000D02*
X144234000Y-111272000D01*
X144234000Y-113264000D02*
X144234000Y-113378000D01*
X105920462Y-59290000D02*
G75*
G03X104375170Y-64840000I-462J-2990000D01*
G01*
X105919538Y-59290000D02*
G75*
G02X107464830Y-64840000I462J-2990000D01*
G01*
X108420000Y-62280000D02*
G75*
G03X108420000Y-62280000I-2500000J0D01*
G01*
X104375000Y-64840000D02*
X107465000Y-64840000D01*
X136784000Y-129348000D02*
X132964000Y-129348000D01*
X132964000Y-129348000D02*
X132964000Y-138368000D01*
X132964000Y-138368000D02*
X136784000Y-138368000D01*
X136784000Y-138368000D02*
X136784000Y-129348000D01*
X134874000Y-129088000D02*
X134874000Y-129348000D01*
X134874000Y-138628000D02*
X134874000Y-138368000D01*
X136784000Y-130743000D02*
X132964000Y-130743000D01*
X159404462Y-59280000D02*
G75*
G03X157859170Y-64830000I-462J-2990000D01*
G01*
X159403538Y-59280000D02*
G75*
G02X160948830Y-64830000I462J-2990000D01*
G01*
X161904000Y-62270000D02*
G75*
G03X161904000Y-62270000I-2500000J0D01*
G01*
X157859000Y-64830000D02*
X160949000Y-64830000D01*
X152800462Y-59280000D02*
G75*
G03X151255170Y-64830000I-462J-2990000D01*
G01*
X152799538Y-59280000D02*
G75*
G02X154344830Y-64830000I462J-2990000D01*
G01*
X155300000Y-62270000D02*
G75*
G03X155300000Y-62270000I-2500000J0D01*
G01*
X151255000Y-64830000D02*
X154345000Y-64830000D01*
X146196462Y-59280000D02*
G75*
G03X144651170Y-64830000I-462J-2990000D01*
G01*
X146195538Y-59280000D02*
G75*
G02X147740830Y-64830000I462J-2990000D01*
G01*
X148696000Y-62270000D02*
G75*
G03X148696000Y-62270000I-2500000J0D01*
G01*
X144651000Y-64830000D02*
X147741000Y-64830000D01*
X139592462Y-59280000D02*
G75*
G03X138047170Y-64830000I-462J-2990000D01*
G01*
X139591538Y-59280000D02*
G75*
G02X141136830Y-64830000I462J-2990000D01*
G01*
X142092000Y-62270000D02*
G75*
G03X142092000Y-62270000I-2500000J0D01*
G01*
X138047000Y-64830000D02*
X141137000Y-64830000D01*
X132988462Y-59280000D02*
G75*
G03X131443170Y-64830000I-462J-2990000D01*
G01*
X132987538Y-59280000D02*
G75*
G02X134532830Y-64830000I462J-2990000D01*
G01*
X135488000Y-62270000D02*
G75*
G03X135488000Y-62270000I-2500000J0D01*
G01*
X131443000Y-64830000D02*
X134533000Y-64830000D01*
X126384462Y-59280000D02*
G75*
G03X124839170Y-64830000I-462J-2990000D01*
G01*
X126383538Y-59280000D02*
G75*
G02X127928830Y-64830000I462J-2990000D01*
G01*
X128884000Y-62270000D02*
G75*
G03X128884000Y-62270000I-2500000J0D01*
G01*
X124839000Y-64830000D02*
X127929000Y-64830000D01*
X119780462Y-59280000D02*
G75*
G03X118235170Y-64830000I-462J-2990000D01*
G01*
X119779538Y-59280000D02*
G75*
G02X121324830Y-64830000I462J-2990000D01*
G01*
X122280000Y-62270000D02*
G75*
G03X122280000Y-62270000I-2500000J0D01*
G01*
X118235000Y-64830000D02*
X121325000Y-64830000D01*
X113176462Y-59280000D02*
G75*
G03X111631170Y-64830000I-462J-2990000D01*
G01*
X113175538Y-59280000D02*
G75*
G02X114720830Y-64830000I462J-2990000D01*
G01*
X115676000Y-62270000D02*
G75*
G03X115676000Y-62270000I-2500000J0D01*
G01*
X111631000Y-64830000D02*
X114721000Y-64830000D01*
X122780000Y-136520000D02*
X127980000Y-136520000D01*
X127980000Y-136520000D02*
X127980000Y-133740000D01*
X127980000Y-133740000D02*
X122780000Y-133740000D01*
X122780000Y-133740000D02*
X122780000Y-136520000D01*
X121510000Y-136520000D02*
X120120000Y-136520000D01*
X120120000Y-136520000D02*
X120120000Y-135130000D01*
X122780000Y-133320000D02*
X127980000Y-133320000D01*
X127980000Y-133320000D02*
X127980000Y-130540000D01*
X127980000Y-130540000D02*
X122780000Y-130540000D01*
X122780000Y-130540000D02*
X122780000Y-133320000D01*
X121510000Y-133320000D02*
X120120000Y-133320000D01*
X120120000Y-133320000D02*
X120120000Y-131930000D01*
X122780000Y-130110000D02*
X127980000Y-130110000D01*
X127980000Y-130110000D02*
X127980000Y-127330000D01*
X127980000Y-127330000D02*
X122780000Y-127330000D01*
X122780000Y-127330000D02*
X122780000Y-130110000D01*
X121510000Y-130110000D02*
X120120000Y-130110000D01*
X120120000Y-130110000D02*
X120120000Y-128720000D01*
X113840000Y-144260000D02*
X113840000Y-139060000D01*
X113840000Y-139060000D02*
X111060000Y-139060000D01*
X111060000Y-139060000D02*
X111060000Y-144260000D01*
X111060000Y-144260000D02*
X113840000Y-144260000D01*
X113840000Y-145530000D02*
X113840000Y-146920000D01*
X113840000Y-146920000D02*
X112450000Y-146920000D01*
X122780000Y-126920000D02*
X127980000Y-126920000D01*
X127980000Y-126920000D02*
X127980000Y-124140000D01*
X127980000Y-124140000D02*
X122780000Y-124140000D01*
X122780000Y-124140000D02*
X122780000Y-126920000D01*
X121510000Y-126920000D02*
X120120000Y-126920000D01*
X120120000Y-126920000D02*
X120120000Y-125530000D01*
X122780000Y-123720000D02*
X127980000Y-123720000D01*
X127980000Y-123720000D02*
X127980000Y-120940000D01*
X127980000Y-120940000D02*
X122780000Y-120940000D01*
X122780000Y-120940000D02*
X122780000Y-123720000D01*
X121510000Y-123720000D02*
X120120000Y-123720000D01*
X120120000Y-123720000D02*
X120120000Y-122330000D01*
X122780000Y-120520000D02*
X127980000Y-120520000D01*
X127980000Y-120520000D02*
X127980000Y-117740000D01*
X127980000Y-117740000D02*
X122780000Y-117740000D01*
X122780000Y-117740000D02*
X122780000Y-120520000D01*
X121510000Y-120520000D02*
X120120000Y-120520000D01*
X120120000Y-120520000D02*
X120120000Y-119130000D01*
X96760000Y-99400000D02*
X96760000Y-81500000D01*
X96760000Y-81500000D02*
X93980000Y-81500000D01*
X93980000Y-81500000D02*
X93980000Y-99400000D01*
X93980000Y-99400000D02*
X96760000Y-99400000D01*
X96760000Y-100670000D02*
X96760000Y-102060000D01*
X96760000Y-102060000D02*
X95370000Y-102060000D01*
X90260000Y-99400000D02*
X90260000Y-81500000D01*
X90260000Y-81500000D02*
X87480000Y-81500000D01*
X87480000Y-81500000D02*
X87480000Y-99400000D01*
X87480000Y-99400000D02*
X90260000Y-99400000D01*
X90260000Y-100670000D02*
X90260000Y-102060000D01*
X90260000Y-102060000D02*
X88870000Y-102060000D01*
X122900000Y-114650000D02*
X122900000Y-106910000D01*
X122900000Y-106910000D02*
X120120000Y-106910000D01*
X120120000Y-106910000D02*
X120120000Y-114650000D01*
X120120000Y-114650000D02*
X122900000Y-114650000D01*
X122900000Y-115920000D02*
X122900000Y-117310000D01*
X122900000Y-117310000D02*
X121510000Y-117310000D01*
X93510000Y-99400000D02*
X93510000Y-81500000D01*
X93510000Y-81500000D02*
X90730000Y-81500000D01*
X90730000Y-81500000D02*
X90730000Y-99400000D01*
X90730000Y-99400000D02*
X93510000Y-99400000D01*
X93510000Y-100670000D02*
X93510000Y-102060000D01*
X93510000Y-102060000D02*
X92120000Y-102060000D01*
X137414000Y-144406000D02*
X132214000Y-144406000D01*
X132214000Y-144406000D02*
X132214000Y-147186000D01*
X132214000Y-147186000D02*
X137414000Y-147186000D01*
X137414000Y-147186000D02*
X137414000Y-144406000D01*
X138684000Y-144406000D02*
X140074000Y-144406000D01*
X140074000Y-144406000D02*
X140074000Y-145796000D01*
X120650000Y-141732000D02*
X130810000Y-141732000D01*
X120650000Y-140462000D02*
X120650000Y-148082000D01*
X120650000Y-148082000D02*
X130810000Y-148082000D01*
X130810000Y-148082000D02*
X130810000Y-140462000D01*
X130810000Y-140462000D02*
X120650000Y-140462000D01*
X170942000Y-103124000D02*
X170942000Y-113284000D01*
X172212000Y-103124000D02*
X164592000Y-103124000D01*
X164592000Y-103124000D02*
X164592000Y-113284000D01*
X164592000Y-113284000D02*
X172212000Y-113284000D01*
X172212000Y-113284000D02*
X172212000Y-103124000D01*
X122890000Y-99480000D02*
X122890000Y-81580000D01*
X122890000Y-81580000D02*
X120110000Y-81580000D01*
X120110000Y-81580000D02*
X120110000Y-99480000D01*
X120110000Y-99480000D02*
X122890000Y-99480000D01*
X122890000Y-100750000D02*
X122890000Y-102140000D01*
X122890000Y-102140000D02*
X121500000Y-102140000D01*
X136610000Y-84270000D02*
X136610000Y-102170000D01*
X136610000Y-102170000D02*
X139390000Y-102170000D01*
X139390000Y-102170000D02*
X139390000Y-84270000D01*
X139390000Y-84270000D02*
X136610000Y-84270000D01*
X136610000Y-83000000D02*
X136610000Y-81610000D01*
X136610000Y-81610000D02*
X138000000Y-81610000D01*
X113430000Y-75520000D02*
X113430000Y-76000000D01*
X113430000Y-76000000D02*
X103410000Y-76000000D01*
X103410000Y-76000000D02*
X103410000Y-75520000D01*
X113430000Y-72760000D02*
X113430000Y-72280000D01*
X113430000Y-72280000D02*
X103410000Y-72280000D01*
X103410000Y-72280000D02*
X103410000Y-72760000D01*
X113440000Y-79780000D02*
X113440000Y-80260000D01*
X113440000Y-80260000D02*
X103420000Y-80260000D01*
X103420000Y-80260000D02*
X103420000Y-79780000D01*
X113440000Y-77020000D02*
X113440000Y-76540000D01*
X113440000Y-76540000D02*
X103420000Y-76540000D01*
X103420000Y-76540000D02*
X103420000Y-77020000D01*
X159442000Y-75294000D02*
X159442000Y-75774000D01*
X159442000Y-75774000D02*
X149422000Y-75774000D01*
X149422000Y-75774000D02*
X149422000Y-75294000D01*
X159442000Y-72534000D02*
X159442000Y-72054000D01*
X159442000Y-72054000D02*
X149422000Y-72054000D01*
X149422000Y-72054000D02*
X149422000Y-72534000D01*
X159188000Y-83930000D02*
X159188000Y-84410000D01*
X159188000Y-84410000D02*
X149168000Y-84410000D01*
X149168000Y-84410000D02*
X149168000Y-83930000D01*
X159188000Y-81170000D02*
X159188000Y-80690000D01*
X159188000Y-80690000D02*
X149168000Y-80690000D01*
X149168000Y-80690000D02*
X149168000Y-81170000D01*
X159188000Y-92566000D02*
X159188000Y-93046000D01*
X159188000Y-93046000D02*
X149168000Y-93046000D01*
X149168000Y-93046000D02*
X149168000Y-92566000D01*
X159188000Y-89806000D02*
X159188000Y-89326000D01*
X159188000Y-89326000D02*
X149168000Y-89326000D01*
X149168000Y-89326000D02*
X149168000Y-89806000D01*
X159188000Y-101202000D02*
X159188000Y-101682000D01*
X159188000Y-101682000D02*
X149168000Y-101682000D01*
X149168000Y-101682000D02*
X149168000Y-101202000D01*
X159188000Y-98442000D02*
X159188000Y-97962000D01*
X159188000Y-97962000D02*
X149168000Y-97962000D01*
X149168000Y-97962000D02*
X149168000Y-98442000D01*
X159188000Y-79612000D02*
X159188000Y-80092000D01*
X159188000Y-80092000D02*
X149168000Y-80092000D01*
X149168000Y-80092000D02*
X149168000Y-79612000D01*
X159188000Y-76852000D02*
X159188000Y-76372000D01*
X159188000Y-76372000D02*
X149168000Y-76372000D01*
X149168000Y-76372000D02*
X149168000Y-76852000D01*
X159188000Y-88248000D02*
X159188000Y-88728000D01*
X159188000Y-88728000D02*
X149168000Y-88728000D01*
X149168000Y-88728000D02*
X149168000Y-88248000D01*
X159188000Y-85488000D02*
X159188000Y-85008000D01*
X159188000Y-85008000D02*
X149168000Y-85008000D01*
X149168000Y-85008000D02*
X149168000Y-85488000D01*
X159188000Y-96884000D02*
X159188000Y-97364000D01*
X159188000Y-97364000D02*
X149168000Y-97364000D01*
X149168000Y-97364000D02*
X149168000Y-96884000D01*
X159188000Y-94124000D02*
X159188000Y-93644000D01*
X159188000Y-93644000D02*
X149168000Y-93644000D01*
X149168000Y-93644000D02*
X149168000Y-94124000D01*
X161200000Y-105520000D02*
X161200000Y-106000000D01*
X161200000Y-106000000D02*
X151180000Y-106000000D01*
X151180000Y-106000000D02*
X151180000Y-105520000D01*
X161200000Y-102760000D02*
X161200000Y-102280000D01*
X161200000Y-102280000D02*
X151180000Y-102280000D01*
X151180000Y-102280000D02*
X151180000Y-102760000D01*
D12*
X87820000Y-70780000D02*
X87820000Y-75280000D01*
X91820000Y-69530000D02*
X90320000Y-69530000D01*
X94320000Y-75280000D02*
X94320000Y-70780000D01*
X90320000Y-76530000D02*
X91820000Y-76530000D01*
D11*
X110620000Y-81510000D02*
G75*
G02X108620000Y-81510000I-1000000J0D01*
G01*
X108620000Y-81510000D02*
X103440000Y-81510000D01*
X103440000Y-81510000D02*
X103440000Y-132550000D01*
X103440000Y-132550000D02*
X115800000Y-132550000D01*
X115800000Y-132550000D02*
X115800000Y-81510000D01*
X115800000Y-81510000D02*
X110620000Y-81510000D01*
X156448000Y-130262000D02*
X156448000Y-140502000D01*
X172338000Y-130262000D02*
X172338000Y-140502000D01*
X172338000Y-130262000D02*
X156448000Y-130262000D01*
X172338000Y-140502000D02*
X156448000Y-140502000D01*
X156448000Y-132842000D02*
X153808000Y-132842000D01*
X156448000Y-135382000D02*
X153824000Y-135382000D01*
X156448000Y-137922000D02*
X153824000Y-137922000D01*
X130810000Y-81610000D02*
G75*
G02X128810000Y-81610000I-1000000J0D01*
G01*
X128810000Y-81610000D02*
X127440000Y-81610000D01*
X127440000Y-81610000D02*
X127440000Y-104710000D01*
X127440000Y-104710000D02*
X132180000Y-104710000D01*
X132180000Y-104710000D02*
X132180000Y-81610000D01*
X132180000Y-81610000D02*
X130810000Y-81610000D01*
X93815000Y-107100000D02*
G75*
G02X98865000Y-107100000I2525000J0D01*
G01*
X93815000Y-113500000D02*
G75*
G03X98865000Y-113500000I2525000J0D01*
G01*
X98865000Y-107100000D02*
X98865000Y-113500000D01*
X93815000Y-107100000D02*
X93815000Y-113500000D01*
X96510000Y-119860000D02*
X99170000Y-119860000D01*
X99170000Y-119860000D02*
X99170000Y-117080000D01*
X99170000Y-117080000D02*
X96510000Y-117080000D01*
X96510000Y-117080000D02*
X96510000Y-119860000D01*
X95240000Y-119860000D02*
X93850000Y-119860000D01*
X93850000Y-119860000D02*
X93850000Y-118470000D01*
X96490000Y-123070000D02*
X99150000Y-123070000D01*
X99150000Y-123070000D02*
X99150000Y-120290000D01*
X99150000Y-120290000D02*
X96490000Y-120290000D01*
X96490000Y-120290000D02*
X96490000Y-123070000D01*
X95220000Y-123070000D02*
X93830000Y-123070000D01*
X93830000Y-123070000D02*
X93830000Y-121680000D01*
X96490000Y-126250000D02*
X99150000Y-126250000D01*
X99150000Y-126250000D02*
X99150000Y-123470000D01*
X99150000Y-123470000D02*
X96490000Y-123470000D01*
X96490000Y-123470000D02*
X96490000Y-126250000D01*
X95220000Y-126250000D02*
X93830000Y-126250000D01*
X93830000Y-126250000D02*
X93830000Y-124860000D01*
X147646000Y-147596000D02*
X147646000Y-143996000D01*
X147634478Y-147634478D02*
G75*
G02X143196000Y-145796000I-1838478J1838478D01*
G01*
X147634478Y-143957522D02*
G75*
G03X143196000Y-145796000I-1838478J-1838478D01*
G01*
D12*
X88844381Y-141538095D02*
X87844381Y-141538095D01*
X87844381Y-141157142D01*
X87892000Y-141061904D01*
X87939619Y-141014285D01*
X88034857Y-140966666D01*
X88177714Y-140966666D01*
X88272952Y-141014285D01*
X88320571Y-141061904D01*
X88368190Y-141157142D01*
X88368190Y-141538095D01*
X88844381Y-140014285D02*
X88844381Y-140585714D01*
X88844381Y-140300000D02*
X87844381Y-140300000D01*
X87987238Y-140395238D01*
X88082476Y-140490476D01*
X88130095Y-140585714D01*
X130902381Y-113141905D02*
X131711905Y-113141905D01*
X131807143Y-113094286D01*
X131854762Y-113046667D01*
X131902381Y-112951429D01*
X131902381Y-112760952D01*
X131854762Y-112665714D01*
X131807143Y-112618095D01*
X131711905Y-112570476D01*
X130902381Y-112570476D01*
X130902381Y-112189524D02*
X130902381Y-111570476D01*
X131283333Y-111903810D01*
X131283333Y-111760952D01*
X131330952Y-111665714D01*
X131378571Y-111618095D01*
X131473810Y-111570476D01*
X131711905Y-111570476D01*
X131807143Y-111618095D01*
X131854762Y-111665714D01*
X131902381Y-111760952D01*
X131902381Y-112046667D01*
X131854762Y-112141905D01*
X131807143Y-112189524D01*
X106246667Y-147502381D02*
X106246667Y-148216667D01*
X106199047Y-148359524D01*
X106103809Y-148454762D01*
X105960952Y-148502381D01*
X105865714Y-148502381D01*
X107199048Y-147502381D02*
X106722857Y-147502381D01*
X106675238Y-147978571D01*
X106722857Y-147930952D01*
X106818095Y-147883333D01*
X107056191Y-147883333D01*
X107151429Y-147930952D01*
X107199048Y-147978571D01*
X107246667Y-148073810D01*
X107246667Y-148311905D01*
X107199048Y-148407143D01*
X107151429Y-148454762D01*
X107056191Y-148502381D01*
X106818095Y-148502381D01*
X106722857Y-148454762D01*
X106675238Y-148407143D01*
X165998381Y-122308095D02*
X164998381Y-122308095D01*
X164998381Y-121927142D01*
X165046000Y-121831904D01*
X165093619Y-121784285D01*
X165188857Y-121736666D01*
X165331714Y-121736666D01*
X165426952Y-121784285D01*
X165474571Y-121831904D01*
X165522190Y-121927142D01*
X165522190Y-122308095D01*
X165426952Y-121165238D02*
X165379333Y-121260476D01*
X165331714Y-121308095D01*
X165236476Y-121355714D01*
X165188857Y-121355714D01*
X165093619Y-121308095D01*
X165046000Y-121260476D01*
X164998381Y-121165238D01*
X164998381Y-120974761D01*
X165046000Y-120879523D01*
X165093619Y-120831904D01*
X165188857Y-120784285D01*
X165236476Y-120784285D01*
X165331714Y-120831904D01*
X165379333Y-120879523D01*
X165426952Y-120974761D01*
X165426952Y-121165238D01*
X165474571Y-121260476D01*
X165522190Y-121308095D01*
X165617429Y-121355714D01*
X165807905Y-121355714D01*
X165903143Y-121308095D01*
X165950762Y-121260476D01*
X165998381Y-121165238D01*
X165998381Y-120974761D01*
X165950762Y-120879523D01*
X165903143Y-120831904D01*
X165807905Y-120784285D01*
X165617429Y-120784285D01*
X165522190Y-120831904D01*
X165474571Y-120879523D01*
X165426952Y-120974761D01*
X94191143Y-62670666D02*
X94238762Y-62718285D01*
X94286381Y-62861142D01*
X94286381Y-62956380D01*
X94238762Y-63099238D01*
X94143524Y-63194476D01*
X94048286Y-63242095D01*
X93857810Y-63289714D01*
X93714952Y-63289714D01*
X93524476Y-63242095D01*
X93429238Y-63194476D01*
X93334000Y-63099238D01*
X93286381Y-62956380D01*
X93286381Y-62861142D01*
X93334000Y-62718285D01*
X93381619Y-62670666D01*
X94286381Y-61718285D02*
X94286381Y-62289714D01*
X94286381Y-62004000D02*
X93286381Y-62004000D01*
X93429238Y-62099238D01*
X93524476Y-62194476D01*
X93572095Y-62289714D01*
X107087143Y-104706666D02*
X107134762Y-104754285D01*
X107182381Y-104897142D01*
X107182381Y-104992380D01*
X107134762Y-105135238D01*
X107039524Y-105230476D01*
X106944286Y-105278095D01*
X106753810Y-105325714D01*
X106610952Y-105325714D01*
X106420476Y-105278095D01*
X106325238Y-105230476D01*
X106230000Y-105135238D01*
X106182381Y-104992380D01*
X106182381Y-104897142D01*
X106230000Y-104754285D01*
X106277619Y-104706666D01*
X106277619Y-104325714D02*
X106230000Y-104278095D01*
X106182381Y-104182857D01*
X106182381Y-103944761D01*
X106230000Y-103849523D01*
X106277619Y-103801904D01*
X106372857Y-103754285D01*
X106468095Y-103754285D01*
X106610952Y-103801904D01*
X107182381Y-104373333D01*
X107182381Y-103754285D01*
X92473334Y-107167143D02*
X92425715Y-107214762D01*
X92282858Y-107262381D01*
X92187620Y-107262381D01*
X92044762Y-107214762D01*
X91949524Y-107119524D01*
X91901905Y-107024286D01*
X91854286Y-106833810D01*
X91854286Y-106690952D01*
X91901905Y-106500476D01*
X91949524Y-106405238D01*
X92044762Y-106310000D01*
X92187620Y-106262381D01*
X92282858Y-106262381D01*
X92425715Y-106310000D01*
X92473334Y-106357619D01*
X92806667Y-106262381D02*
X93425715Y-106262381D01*
X93092381Y-106643333D01*
X93235239Y-106643333D01*
X93330477Y-106690952D01*
X93378096Y-106738571D01*
X93425715Y-106833810D01*
X93425715Y-107071905D01*
X93378096Y-107167143D01*
X93330477Y-107214762D01*
X93235239Y-107262381D01*
X92949524Y-107262381D01*
X92854286Y-107214762D01*
X92806667Y-107167143D01*
X92453334Y-113817143D02*
X92405715Y-113864762D01*
X92262858Y-113912381D01*
X92167620Y-113912381D01*
X92024762Y-113864762D01*
X91929524Y-113769524D01*
X91881905Y-113674286D01*
X91834286Y-113483810D01*
X91834286Y-113340952D01*
X91881905Y-113150476D01*
X91929524Y-113055238D01*
X92024762Y-112960000D01*
X92167620Y-112912381D01*
X92262858Y-112912381D01*
X92405715Y-112960000D01*
X92453334Y-113007619D01*
X93310477Y-113245714D02*
X93310477Y-113912381D01*
X93072381Y-112864762D02*
X92834286Y-113579048D01*
X93453334Y-113579048D01*
X99313334Y-128817143D02*
X99265715Y-128864762D01*
X99122858Y-128912381D01*
X99027620Y-128912381D01*
X98884762Y-128864762D01*
X98789524Y-128769524D01*
X98741905Y-128674286D01*
X98694286Y-128483810D01*
X98694286Y-128340952D01*
X98741905Y-128150476D01*
X98789524Y-128055238D01*
X98884762Y-127960000D01*
X99027620Y-127912381D01*
X99122858Y-127912381D01*
X99265715Y-127960000D01*
X99313334Y-128007619D01*
X100218096Y-127912381D02*
X99741905Y-127912381D01*
X99694286Y-128388571D01*
X99741905Y-128340952D01*
X99837143Y-128293333D01*
X100075239Y-128293333D01*
X100170477Y-128340952D01*
X100218096Y-128388571D01*
X100265715Y-128483810D01*
X100265715Y-128721905D01*
X100218096Y-128817143D01*
X100170477Y-128864762D01*
X100075239Y-128912381D01*
X99837143Y-128912381D01*
X99741905Y-128864762D01*
X99694286Y-128817143D01*
X147190398Y-128243655D02*
X147238017Y-128291274D01*
X147285636Y-128434131D01*
X147285636Y-128529369D01*
X147238017Y-128672227D01*
X147142779Y-128767465D01*
X147047541Y-128815084D01*
X146857065Y-128862703D01*
X146714207Y-128862703D01*
X146523731Y-128815084D01*
X146428493Y-128767465D01*
X146333255Y-128672227D01*
X146285636Y-128529369D01*
X146285636Y-128434131D01*
X146333255Y-128291274D01*
X146380874Y-128243655D01*
X146285636Y-127386512D02*
X146285636Y-127576989D01*
X146333255Y-127672227D01*
X146380874Y-127719846D01*
X146523731Y-127815084D01*
X146714207Y-127862703D01*
X147095160Y-127862703D01*
X147190398Y-127815084D01*
X147238017Y-127767465D01*
X147285636Y-127672227D01*
X147285636Y-127481750D01*
X147238017Y-127386512D01*
X147190398Y-127338893D01*
X147095160Y-127291274D01*
X146857065Y-127291274D01*
X146761826Y-127338893D01*
X146714207Y-127386512D01*
X146666588Y-127481750D01*
X146666588Y-127672227D01*
X146714207Y-127767465D01*
X146761826Y-127815084D01*
X146857065Y-127862703D01*
X161377334Y-148947143D02*
X161329715Y-148994762D01*
X161186858Y-149042381D01*
X161091620Y-149042381D01*
X160948762Y-148994762D01*
X160853524Y-148899524D01*
X160805905Y-148804286D01*
X160758286Y-148613810D01*
X160758286Y-148470952D01*
X160805905Y-148280476D01*
X160853524Y-148185238D01*
X160948762Y-148090000D01*
X161091620Y-148042381D01*
X161186858Y-148042381D01*
X161329715Y-148090000D01*
X161377334Y-148137619D01*
X161710667Y-148042381D02*
X162377334Y-148042381D01*
X161948762Y-149042381D01*
X138770398Y-137387655D02*
X138818017Y-137435274D01*
X138865636Y-137578131D01*
X138865636Y-137673369D01*
X138818017Y-137816227D01*
X138722779Y-137911465D01*
X138627541Y-137959084D01*
X138437065Y-138006703D01*
X138294207Y-138006703D01*
X138103731Y-137959084D01*
X138008493Y-137911465D01*
X137913255Y-137816227D01*
X137865636Y-137673369D01*
X137865636Y-137578131D01*
X137913255Y-137435274D01*
X137960874Y-137387655D01*
X138294207Y-136816227D02*
X138246588Y-136911465D01*
X138198969Y-136959084D01*
X138103731Y-137006703D01*
X138056112Y-137006703D01*
X137960874Y-136959084D01*
X137913255Y-136911465D01*
X137865636Y-136816227D01*
X137865636Y-136625750D01*
X137913255Y-136530512D01*
X137960874Y-136482893D01*
X138056112Y-136435274D01*
X138103731Y-136435274D01*
X138198969Y-136482893D01*
X138246588Y-136530512D01*
X138294207Y-136625750D01*
X138294207Y-136816227D01*
X138341826Y-136911465D01*
X138389445Y-136959084D01*
X138484684Y-137006703D01*
X138675160Y-137006703D01*
X138770398Y-136959084D01*
X138818017Y-136911465D01*
X138865636Y-136816227D01*
X138865636Y-136625750D01*
X138818017Y-136530512D01*
X138770398Y-136482893D01*
X138675160Y-136435274D01*
X138484684Y-136435274D01*
X138389445Y-136482893D01*
X138341826Y-136530512D01*
X138294207Y-136625750D01*
X164933334Y-149709143D02*
X164885715Y-149756762D01*
X164742858Y-149804381D01*
X164647620Y-149804381D01*
X164504762Y-149756762D01*
X164409524Y-149661524D01*
X164361905Y-149566286D01*
X164314286Y-149375810D01*
X164314286Y-149232952D01*
X164361905Y-149042476D01*
X164409524Y-148947238D01*
X164504762Y-148852000D01*
X164647620Y-148804381D01*
X164742858Y-148804381D01*
X164885715Y-148852000D01*
X164933334Y-148899619D01*
X165409524Y-149804381D02*
X165600000Y-149804381D01*
X165695239Y-149756762D01*
X165742858Y-149709143D01*
X165838096Y-149566286D01*
X165885715Y-149375810D01*
X165885715Y-148994857D01*
X165838096Y-148899619D01*
X165790477Y-148852000D01*
X165695239Y-148804381D01*
X165504762Y-148804381D01*
X165409524Y-148852000D01*
X165361905Y-148899619D01*
X165314286Y-148994857D01*
X165314286Y-149232952D01*
X165361905Y-149328190D01*
X165409524Y-149375810D01*
X165504762Y-149423429D01*
X165695239Y-149423429D01*
X165790477Y-149375810D01*
X165838096Y-149328190D01*
X165885715Y-149232952D01*
X150487143Y-150217143D02*
X150439524Y-150264762D01*
X150296667Y-150312381D01*
X150201429Y-150312381D01*
X150058571Y-150264762D01*
X149963333Y-150169524D01*
X149915714Y-150074286D01*
X149868095Y-149883810D01*
X149868095Y-149740952D01*
X149915714Y-149550476D01*
X149963333Y-149455238D01*
X150058571Y-149360000D01*
X150201429Y-149312381D01*
X150296667Y-149312381D01*
X150439524Y-149360000D01*
X150487143Y-149407619D01*
X151439524Y-150312381D02*
X150868095Y-150312381D01*
X151153809Y-150312381D02*
X151153809Y-149312381D01*
X151058571Y-149455238D01*
X150963333Y-149550476D01*
X150868095Y-149598095D01*
X152058571Y-149312381D02*
X152153810Y-149312381D01*
X152249048Y-149360000D01*
X152296667Y-149407619D01*
X152344286Y-149502857D01*
X152391905Y-149693333D01*
X152391905Y-149931429D01*
X152344286Y-150121905D01*
X152296667Y-150217143D01*
X152249048Y-150264762D01*
X152153810Y-150312381D01*
X152058571Y-150312381D01*
X151963333Y-150264762D01*
X151915714Y-150217143D01*
X151868095Y-150121905D01*
X151820476Y-149931429D01*
X151820476Y-149693333D01*
X151868095Y-149502857D01*
X151915714Y-149407619D01*
X151963333Y-149360000D01*
X152058571Y-149312381D01*
X146204398Y-133545846D02*
X146252017Y-133593465D01*
X146299636Y-133736322D01*
X146299636Y-133831560D01*
X146252017Y-133974418D01*
X146156779Y-134069656D01*
X146061541Y-134117275D01*
X145871065Y-134164894D01*
X145728207Y-134164894D01*
X145537731Y-134117275D01*
X145442493Y-134069656D01*
X145347255Y-133974418D01*
X145299636Y-133831560D01*
X145299636Y-133736322D01*
X145347255Y-133593465D01*
X145394874Y-133545846D01*
X146299636Y-132593465D02*
X146299636Y-133164894D01*
X146299636Y-132879180D02*
X145299636Y-132879180D01*
X145442493Y-132974418D01*
X145537731Y-133069656D01*
X145585350Y-133164894D01*
X146299636Y-131641084D02*
X146299636Y-132212513D01*
X146299636Y-131926799D02*
X145299636Y-131926799D01*
X145442493Y-132022037D01*
X145537731Y-132117275D01*
X145585350Y-132212513D01*
X138041143Y-112625143D02*
X137993524Y-112672762D01*
X137850667Y-112720381D01*
X137755429Y-112720381D01*
X137612571Y-112672762D01*
X137517333Y-112577524D01*
X137469714Y-112482286D01*
X137422095Y-112291810D01*
X137422095Y-112148952D01*
X137469714Y-111958476D01*
X137517333Y-111863238D01*
X137612571Y-111768000D01*
X137755429Y-111720381D01*
X137850667Y-111720381D01*
X137993524Y-111768000D01*
X138041143Y-111815619D01*
X138993524Y-112720381D02*
X138422095Y-112720381D01*
X138707809Y-112720381D02*
X138707809Y-111720381D01*
X138612571Y-111863238D01*
X138517333Y-111958476D01*
X138422095Y-112006095D01*
X139374476Y-111815619D02*
X139422095Y-111768000D01*
X139517333Y-111720381D01*
X139755429Y-111720381D01*
X139850667Y-111768000D01*
X139898286Y-111815619D01*
X139945905Y-111910857D01*
X139945905Y-112006095D01*
X139898286Y-112148952D01*
X139326857Y-112720381D01*
X139945905Y-112720381D01*
X105179905Y-66492381D02*
X105179905Y-65492381D01*
X105418000Y-65492381D01*
X105560858Y-65540000D01*
X105656096Y-65635238D01*
X105703715Y-65730476D01*
X105751334Y-65920952D01*
X105751334Y-66063810D01*
X105703715Y-66254286D01*
X105656096Y-66349524D01*
X105560858Y-66444762D01*
X105418000Y-66492381D01*
X105179905Y-66492381D01*
X106703715Y-66492381D02*
X106132286Y-66492381D01*
X106418000Y-66492381D02*
X106418000Y-65492381D01*
X106322762Y-65635238D01*
X106227524Y-65730476D01*
X106132286Y-65778095D01*
X135390381Y-133834095D02*
X134390381Y-133834095D01*
X134390381Y-133596000D01*
X134438000Y-133453142D01*
X134533238Y-133357904D01*
X134628476Y-133310285D01*
X134818952Y-133262666D01*
X134961810Y-133262666D01*
X135152286Y-133310285D01*
X135247524Y-133357904D01*
X135342762Y-133453142D01*
X135390381Y-133596000D01*
X135390381Y-133834095D01*
X134485619Y-132881714D02*
X134438000Y-132834095D01*
X134390381Y-132738857D01*
X134390381Y-132500761D01*
X134438000Y-132405523D01*
X134485619Y-132357904D01*
X134580857Y-132310285D01*
X134676095Y-132310285D01*
X134818952Y-132357904D01*
X135390381Y-132929333D01*
X135390381Y-132310285D01*
X158919905Y-66532381D02*
X158919905Y-65532381D01*
X159158000Y-65532381D01*
X159300858Y-65580000D01*
X159396096Y-65675238D01*
X159443715Y-65770476D01*
X159491334Y-65960952D01*
X159491334Y-66103810D01*
X159443715Y-66294286D01*
X159396096Y-66389524D01*
X159300858Y-66484762D01*
X159158000Y-66532381D01*
X158919905Y-66532381D01*
X159824667Y-65532381D02*
X160443715Y-65532381D01*
X160110381Y-65913333D01*
X160253239Y-65913333D01*
X160348477Y-65960952D01*
X160396096Y-66008571D01*
X160443715Y-66103810D01*
X160443715Y-66341905D01*
X160396096Y-66437143D01*
X160348477Y-66484762D01*
X160253239Y-66532381D01*
X159967524Y-66532381D01*
X159872286Y-66484762D01*
X159824667Y-66437143D01*
X152061905Y-66532381D02*
X152061905Y-65532381D01*
X152300000Y-65532381D01*
X152442858Y-65580000D01*
X152538096Y-65675238D01*
X152585715Y-65770476D01*
X152633334Y-65960952D01*
X152633334Y-66103810D01*
X152585715Y-66294286D01*
X152538096Y-66389524D01*
X152442858Y-66484762D01*
X152300000Y-66532381D01*
X152061905Y-66532381D01*
X153490477Y-65865714D02*
X153490477Y-66532381D01*
X153252381Y-65484762D02*
X153014286Y-66199048D01*
X153633334Y-66199048D01*
X145457905Y-66532381D02*
X145457905Y-65532381D01*
X145696000Y-65532381D01*
X145838858Y-65580000D01*
X145934096Y-65675238D01*
X145981715Y-65770476D01*
X146029334Y-65960952D01*
X146029334Y-66103810D01*
X145981715Y-66294286D01*
X145934096Y-66389524D01*
X145838858Y-66484762D01*
X145696000Y-66532381D01*
X145457905Y-66532381D01*
X146934096Y-65532381D02*
X146457905Y-65532381D01*
X146410286Y-66008571D01*
X146457905Y-65960952D01*
X146553143Y-65913333D01*
X146791239Y-65913333D01*
X146886477Y-65960952D01*
X146934096Y-66008571D01*
X146981715Y-66103810D01*
X146981715Y-66341905D01*
X146934096Y-66437143D01*
X146886477Y-66484762D01*
X146791239Y-66532381D01*
X146553143Y-66532381D01*
X146457905Y-66484762D01*
X146410286Y-66437143D01*
X138853905Y-66532381D02*
X138853905Y-65532381D01*
X139092000Y-65532381D01*
X139234858Y-65580000D01*
X139330096Y-65675238D01*
X139377715Y-65770476D01*
X139425334Y-65960952D01*
X139425334Y-66103810D01*
X139377715Y-66294286D01*
X139330096Y-66389524D01*
X139234858Y-66484762D01*
X139092000Y-66532381D01*
X138853905Y-66532381D01*
X140282477Y-65532381D02*
X140092000Y-65532381D01*
X139996762Y-65580000D01*
X139949143Y-65627619D01*
X139853905Y-65770476D01*
X139806286Y-65960952D01*
X139806286Y-66341905D01*
X139853905Y-66437143D01*
X139901524Y-66484762D01*
X139996762Y-66532381D01*
X140187239Y-66532381D01*
X140282477Y-66484762D01*
X140330096Y-66437143D01*
X140377715Y-66341905D01*
X140377715Y-66103810D01*
X140330096Y-66008571D01*
X140282477Y-65960952D01*
X140187239Y-65913333D01*
X139996762Y-65913333D01*
X139901524Y-65960952D01*
X139853905Y-66008571D01*
X139806286Y-66103810D01*
X131995905Y-66532381D02*
X131995905Y-65532381D01*
X132234000Y-65532381D01*
X132376858Y-65580000D01*
X132472096Y-65675238D01*
X132519715Y-65770476D01*
X132567334Y-65960952D01*
X132567334Y-66103810D01*
X132519715Y-66294286D01*
X132472096Y-66389524D01*
X132376858Y-66484762D01*
X132234000Y-66532381D01*
X131995905Y-66532381D01*
X132900667Y-65532381D02*
X133567334Y-65532381D01*
X133138762Y-66532381D01*
X125391905Y-66532381D02*
X125391905Y-65532381D01*
X125630000Y-65532381D01*
X125772858Y-65580000D01*
X125868096Y-65675238D01*
X125915715Y-65770476D01*
X125963334Y-65960952D01*
X125963334Y-66103810D01*
X125915715Y-66294286D01*
X125868096Y-66389524D01*
X125772858Y-66484762D01*
X125630000Y-66532381D01*
X125391905Y-66532381D01*
X126534762Y-65960952D02*
X126439524Y-65913333D01*
X126391905Y-65865714D01*
X126344286Y-65770476D01*
X126344286Y-65722857D01*
X126391905Y-65627619D01*
X126439524Y-65580000D01*
X126534762Y-65532381D01*
X126725239Y-65532381D01*
X126820477Y-65580000D01*
X126868096Y-65627619D01*
X126915715Y-65722857D01*
X126915715Y-65770476D01*
X126868096Y-65865714D01*
X126820477Y-65913333D01*
X126725239Y-65960952D01*
X126534762Y-65960952D01*
X126439524Y-66008571D01*
X126391905Y-66056190D01*
X126344286Y-66151429D01*
X126344286Y-66341905D01*
X126391905Y-66437143D01*
X126439524Y-66484762D01*
X126534762Y-66532381D01*
X126725239Y-66532381D01*
X126820477Y-66484762D01*
X126868096Y-66437143D01*
X126915715Y-66341905D01*
X126915715Y-66151429D01*
X126868096Y-66056190D01*
X126820477Y-66008571D01*
X126725239Y-65960952D01*
X119041905Y-66532381D02*
X119041905Y-65532381D01*
X119280000Y-65532381D01*
X119422858Y-65580000D01*
X119518096Y-65675238D01*
X119565715Y-65770476D01*
X119613334Y-65960952D01*
X119613334Y-66103810D01*
X119565715Y-66294286D01*
X119518096Y-66389524D01*
X119422858Y-66484762D01*
X119280000Y-66532381D01*
X119041905Y-66532381D01*
X120089524Y-66532381D02*
X120280000Y-66532381D01*
X120375239Y-66484762D01*
X120422858Y-66437143D01*
X120518096Y-66294286D01*
X120565715Y-66103810D01*
X120565715Y-65722857D01*
X120518096Y-65627619D01*
X120470477Y-65580000D01*
X120375239Y-65532381D01*
X120184762Y-65532381D01*
X120089524Y-65580000D01*
X120041905Y-65627619D01*
X119994286Y-65722857D01*
X119994286Y-65960952D01*
X120041905Y-66056190D01*
X120089524Y-66103810D01*
X120184762Y-66151429D01*
X120375239Y-66151429D01*
X120470477Y-66103810D01*
X120518096Y-66056190D01*
X120565715Y-65960952D01*
X111961714Y-66532381D02*
X111961714Y-65532381D01*
X112199809Y-65532381D01*
X112342667Y-65580000D01*
X112437905Y-65675238D01*
X112485524Y-65770476D01*
X112533143Y-65960952D01*
X112533143Y-66103810D01*
X112485524Y-66294286D01*
X112437905Y-66389524D01*
X112342667Y-66484762D01*
X112199809Y-66532381D01*
X111961714Y-66532381D01*
X113485524Y-66532381D02*
X112914095Y-66532381D01*
X113199809Y-66532381D02*
X113199809Y-65532381D01*
X113104571Y-65675238D01*
X113009333Y-65770476D01*
X112914095Y-65818095D01*
X114104571Y-65532381D02*
X114199810Y-65532381D01*
X114295048Y-65580000D01*
X114342667Y-65627619D01*
X114390286Y-65722857D01*
X114437905Y-65913333D01*
X114437905Y-66151429D01*
X114390286Y-66341905D01*
X114342667Y-66437143D01*
X114295048Y-66484762D01*
X114199810Y-66532381D01*
X114104571Y-66532381D01*
X114009333Y-66484762D01*
X113961714Y-66437143D01*
X113914095Y-66341905D01*
X113866476Y-66151429D01*
X113866476Y-65913333D01*
X113914095Y-65722857D01*
X113961714Y-65627619D01*
X114009333Y-65580000D01*
X114104571Y-65532381D01*
X118572381Y-135463333D02*
X119286667Y-135463333D01*
X119429524Y-135510953D01*
X119524762Y-135606191D01*
X119572381Y-135749048D01*
X119572381Y-135844286D01*
X118905714Y-134558571D02*
X119572381Y-134558571D01*
X118524762Y-134796667D02*
X119239048Y-135034762D01*
X119239048Y-134415714D01*
X118572381Y-132263333D02*
X119286667Y-132263333D01*
X119429524Y-132310953D01*
X119524762Y-132406191D01*
X119572381Y-132549048D01*
X119572381Y-132644286D01*
X118572381Y-131358571D02*
X118572381Y-131549048D01*
X118620000Y-131644286D01*
X118667619Y-131691905D01*
X118810476Y-131787143D01*
X119000952Y-131834762D01*
X119381905Y-131834762D01*
X119477143Y-131787143D01*
X119524762Y-131739524D01*
X119572381Y-131644286D01*
X119572381Y-131453809D01*
X119524762Y-131358571D01*
X119477143Y-131310952D01*
X119381905Y-131263333D01*
X119143810Y-131263333D01*
X119048571Y-131310952D01*
X119000952Y-131358571D01*
X118953333Y-131453809D01*
X118953333Y-131644286D01*
X119000952Y-131739524D01*
X119048571Y-131787143D01*
X119143810Y-131834762D01*
X118572381Y-129053333D02*
X119286667Y-129053333D01*
X119429524Y-129100953D01*
X119524762Y-129196191D01*
X119572381Y-129339048D01*
X119572381Y-129434286D01*
X118572381Y-128672381D02*
X118572381Y-128005714D01*
X119572381Y-128434286D01*
X112116667Y-147372381D02*
X112116667Y-148086667D01*
X112069047Y-148229524D01*
X111973809Y-148324762D01*
X111830952Y-148372381D01*
X111735714Y-148372381D01*
X112735714Y-147800952D02*
X112640476Y-147753333D01*
X112592857Y-147705714D01*
X112545238Y-147610476D01*
X112545238Y-147562857D01*
X112592857Y-147467619D01*
X112640476Y-147420000D01*
X112735714Y-147372381D01*
X112926191Y-147372381D01*
X113021429Y-147420000D01*
X113069048Y-147467619D01*
X113116667Y-147562857D01*
X113116667Y-147610476D01*
X113069048Y-147705714D01*
X113021429Y-147753333D01*
X112926191Y-147800952D01*
X112735714Y-147800952D01*
X112640476Y-147848571D01*
X112592857Y-147896190D01*
X112545238Y-147991429D01*
X112545238Y-148181905D01*
X112592857Y-148277143D01*
X112640476Y-148324762D01*
X112735714Y-148372381D01*
X112926191Y-148372381D01*
X113021429Y-148324762D01*
X113069048Y-148277143D01*
X113116667Y-148181905D01*
X113116667Y-147991429D01*
X113069048Y-147896190D01*
X113021429Y-147848571D01*
X112926191Y-147800952D01*
X118572381Y-125863333D02*
X119286667Y-125863333D01*
X119429524Y-125910953D01*
X119524762Y-126006191D01*
X119572381Y-126149048D01*
X119572381Y-126244286D01*
X119572381Y-125339524D02*
X119572381Y-125149048D01*
X119524762Y-125053809D01*
X119477143Y-125006190D01*
X119334286Y-124910952D01*
X119143810Y-124863333D01*
X118762857Y-124863333D01*
X118667619Y-124910952D01*
X118620000Y-124958571D01*
X118572381Y-125053809D01*
X118572381Y-125244286D01*
X118620000Y-125339524D01*
X118667619Y-125387143D01*
X118762857Y-125434762D01*
X119000952Y-125434762D01*
X119096190Y-125387143D01*
X119143810Y-125339524D01*
X119191429Y-125244286D01*
X119191429Y-125053809D01*
X119143810Y-124958571D01*
X119096190Y-124910952D01*
X119000952Y-124863333D01*
X118572381Y-123139523D02*
X119286667Y-123139523D01*
X119429524Y-123187143D01*
X119524762Y-123282381D01*
X119572381Y-123425238D01*
X119572381Y-123520476D01*
X119572381Y-122139523D02*
X119572381Y-122710952D01*
X119572381Y-122425238D02*
X118572381Y-122425238D01*
X118715238Y-122520476D01*
X118810476Y-122615714D01*
X118858095Y-122710952D01*
X118572381Y-121520476D02*
X118572381Y-121425237D01*
X118620000Y-121329999D01*
X118667619Y-121282380D01*
X118762857Y-121234761D01*
X118953333Y-121187142D01*
X119191429Y-121187142D01*
X119381905Y-121234761D01*
X119477143Y-121282380D01*
X119524762Y-121329999D01*
X119572381Y-121425237D01*
X119572381Y-121520476D01*
X119524762Y-121615714D01*
X119477143Y-121663333D01*
X119381905Y-121710952D01*
X119191429Y-121758571D01*
X118953333Y-121758571D01*
X118762857Y-121710952D01*
X118667619Y-121663333D01*
X118620000Y-121615714D01*
X118572381Y-121520476D01*
X118572381Y-119939523D02*
X119286667Y-119939523D01*
X119429524Y-119987143D01*
X119524762Y-120082381D01*
X119572381Y-120225238D01*
X119572381Y-120320476D01*
X119572381Y-118939523D02*
X119572381Y-119510952D01*
X119572381Y-119225238D02*
X118572381Y-119225238D01*
X118715238Y-119320476D01*
X118810476Y-119415714D01*
X118858095Y-119510952D01*
X119572381Y-117987142D02*
X119572381Y-118558571D01*
X119572381Y-118272857D02*
X118572381Y-118272857D01*
X118715238Y-118368095D01*
X118810476Y-118463333D01*
X118858095Y-118558571D01*
X94631905Y-103512381D02*
X94631905Y-102512381D01*
X95012858Y-102512381D01*
X95108096Y-102560000D01*
X95155715Y-102607619D01*
X95203334Y-102702857D01*
X95203334Y-102845714D01*
X95155715Y-102940952D01*
X95108096Y-102988571D01*
X95012858Y-103036190D01*
X94631905Y-103036190D01*
X95584286Y-102607619D02*
X95631905Y-102560000D01*
X95727143Y-102512381D01*
X95965239Y-102512381D01*
X96060477Y-102560000D01*
X96108096Y-102607619D01*
X96155715Y-102702857D01*
X96155715Y-102798095D01*
X96108096Y-102940952D01*
X95536667Y-103512381D01*
X96155715Y-103512381D01*
X88131905Y-103512381D02*
X88131905Y-102512381D01*
X88512858Y-102512381D01*
X88608096Y-102560000D01*
X88655715Y-102607619D01*
X88703334Y-102702857D01*
X88703334Y-102845714D01*
X88655715Y-102940952D01*
X88608096Y-102988571D01*
X88512858Y-103036190D01*
X88131905Y-103036190D01*
X89036667Y-102512381D02*
X89655715Y-102512381D01*
X89322381Y-102893333D01*
X89465239Y-102893333D01*
X89560477Y-102940952D01*
X89608096Y-102988571D01*
X89655715Y-103083810D01*
X89655715Y-103321905D01*
X89608096Y-103417143D01*
X89560477Y-103464762D01*
X89465239Y-103512381D01*
X89179524Y-103512381D01*
X89084286Y-103464762D01*
X89036667Y-103417143D01*
X120771905Y-118762381D02*
X120771905Y-117762381D01*
X121152858Y-117762381D01*
X121248096Y-117810000D01*
X121295715Y-117857619D01*
X121343334Y-117952857D01*
X121343334Y-118095714D01*
X121295715Y-118190952D01*
X121248096Y-118238571D01*
X121152858Y-118286190D01*
X120771905Y-118286190D01*
X122200477Y-118095714D02*
X122200477Y-118762381D01*
X121962381Y-117714762D02*
X121724286Y-118429048D01*
X122343334Y-118429048D01*
X91381905Y-103512381D02*
X91381905Y-102512381D01*
X91762858Y-102512381D01*
X91858096Y-102560000D01*
X91905715Y-102607619D01*
X91953334Y-102702857D01*
X91953334Y-102845714D01*
X91905715Y-102940952D01*
X91858096Y-102988571D01*
X91762858Y-103036190D01*
X91381905Y-103036190D01*
X92858096Y-102512381D02*
X92381905Y-102512381D01*
X92334286Y-102988571D01*
X92381905Y-102940952D01*
X92477143Y-102893333D01*
X92715239Y-102893333D01*
X92810477Y-102940952D01*
X92858096Y-102988571D01*
X92905715Y-103083810D01*
X92905715Y-103321905D01*
X92858096Y-103417143D01*
X92810477Y-103464762D01*
X92715239Y-103512381D01*
X92477143Y-103512381D01*
X92381905Y-103464762D01*
X92334286Y-103417143D01*
X141676381Y-144248095D02*
X140676381Y-144248095D01*
X140676381Y-143867142D01*
X140724000Y-143771904D01*
X140771619Y-143724285D01*
X140866857Y-143676666D01*
X141009714Y-143676666D01*
X141104952Y-143724285D01*
X141152571Y-143771904D01*
X141200190Y-143867142D01*
X141200190Y-144248095D01*
X140676381Y-142819523D02*
X140676381Y-143010000D01*
X140724000Y-143105238D01*
X140771619Y-143152857D01*
X140914476Y-143248095D01*
X141104952Y-143295714D01*
X141485905Y-143295714D01*
X141581143Y-143248095D01*
X141628762Y-143200476D01*
X141676381Y-143105238D01*
X141676381Y-142914761D01*
X141628762Y-142819523D01*
X141581143Y-142771904D01*
X141485905Y-142724285D01*
X141247810Y-142724285D01*
X141152571Y-142771904D01*
X141104952Y-142819523D01*
X141057333Y-142914761D01*
X141057333Y-143105238D01*
X141104952Y-143200476D01*
X141152571Y-143248095D01*
X141247810Y-143295714D01*
X120531905Y-140162381D02*
X120531905Y-139162381D01*
X120912858Y-139162381D01*
X121008096Y-139210000D01*
X121055715Y-139257619D01*
X121103334Y-139352857D01*
X121103334Y-139495714D01*
X121055715Y-139590952D01*
X121008096Y-139638571D01*
X120912858Y-139686190D01*
X120531905Y-139686190D01*
X121436667Y-139162381D02*
X122103334Y-139162381D01*
X121674762Y-140162381D01*
X165998381Y-111818095D02*
X164998381Y-111818095D01*
X164998381Y-111437142D01*
X165046000Y-111341904D01*
X165093619Y-111294285D01*
X165188857Y-111246666D01*
X165331714Y-111246666D01*
X165426952Y-111294285D01*
X165474571Y-111341904D01*
X165522190Y-111437142D01*
X165522190Y-111818095D01*
X165998381Y-110770476D02*
X165998381Y-110580000D01*
X165950762Y-110484761D01*
X165903143Y-110437142D01*
X165760286Y-110341904D01*
X165569810Y-110294285D01*
X165188857Y-110294285D01*
X165093619Y-110341904D01*
X165046000Y-110389523D01*
X164998381Y-110484761D01*
X164998381Y-110675238D01*
X165046000Y-110770476D01*
X165093619Y-110818095D01*
X165188857Y-110865714D01*
X165426952Y-110865714D01*
X165522190Y-110818095D01*
X165569810Y-110770476D01*
X165617429Y-110675238D01*
X165617429Y-110484761D01*
X165569810Y-110389523D01*
X165522190Y-110341904D01*
X165426952Y-110294285D01*
X120285714Y-103592381D02*
X120285714Y-102592381D01*
X120666667Y-102592381D01*
X120761905Y-102640000D01*
X120809524Y-102687619D01*
X120857143Y-102782857D01*
X120857143Y-102925714D01*
X120809524Y-103020952D01*
X120761905Y-103068571D01*
X120666667Y-103116190D01*
X120285714Y-103116190D01*
X121809524Y-103592381D02*
X121238095Y-103592381D01*
X121523809Y-103592381D02*
X121523809Y-102592381D01*
X121428571Y-102735238D01*
X121333333Y-102830476D01*
X121238095Y-102878095D01*
X122428571Y-102592381D02*
X122523810Y-102592381D01*
X122619048Y-102640000D01*
X122666667Y-102687619D01*
X122714286Y-102782857D01*
X122761905Y-102973333D01*
X122761905Y-103211429D01*
X122714286Y-103401905D01*
X122666667Y-103497143D01*
X122619048Y-103544762D01*
X122523810Y-103592381D01*
X122428571Y-103592381D01*
X122333333Y-103544762D01*
X122285714Y-103497143D01*
X122238095Y-103401905D01*
X122190476Y-103211429D01*
X122190476Y-102973333D01*
X122238095Y-102782857D01*
X122285714Y-102687619D01*
X122333333Y-102640000D01*
X122428571Y-102592381D01*
X140009714Y-83256381D02*
X140009714Y-82256381D01*
X140390667Y-82256381D01*
X140485905Y-82304000D01*
X140533524Y-82351619D01*
X140581143Y-82446857D01*
X140581143Y-82589714D01*
X140533524Y-82684952D01*
X140485905Y-82732571D01*
X140390667Y-82780190D01*
X140009714Y-82780190D01*
X141533524Y-83256381D02*
X140962095Y-83256381D01*
X141247809Y-83256381D02*
X141247809Y-82256381D01*
X141152571Y-82399238D01*
X141057333Y-82494476D01*
X140962095Y-82542095D01*
X142485905Y-83256381D02*
X141914476Y-83256381D01*
X142200190Y-83256381D02*
X142200190Y-82256381D01*
X142104952Y-82399238D01*
X142009714Y-82494476D01*
X141914476Y-82542095D01*
X117283334Y-74592381D02*
X116950000Y-74116190D01*
X116711905Y-74592381D02*
X116711905Y-73592381D01*
X117092858Y-73592381D01*
X117188096Y-73640000D01*
X117235715Y-73687619D01*
X117283334Y-73782857D01*
X117283334Y-73925714D01*
X117235715Y-74020952D01*
X117188096Y-74068571D01*
X117092858Y-74116190D01*
X116711905Y-74116190D01*
X118235715Y-74592381D02*
X117664286Y-74592381D01*
X117950000Y-74592381D02*
X117950000Y-73592381D01*
X117854762Y-73735238D01*
X117759524Y-73830476D01*
X117664286Y-73878095D01*
X117223334Y-78862381D02*
X116890000Y-78386190D01*
X116651905Y-78862381D02*
X116651905Y-77862381D01*
X117032858Y-77862381D01*
X117128096Y-77910000D01*
X117175715Y-77957619D01*
X117223334Y-78052857D01*
X117223334Y-78195714D01*
X117175715Y-78290952D01*
X117128096Y-78338571D01*
X117032858Y-78386190D01*
X116651905Y-78386190D01*
X117604286Y-77957619D02*
X117651905Y-77910000D01*
X117747143Y-77862381D01*
X117985239Y-77862381D01*
X118080477Y-77910000D01*
X118128096Y-77957619D01*
X118175715Y-78052857D01*
X118175715Y-78148095D01*
X118128096Y-78290952D01*
X117556667Y-78862381D01*
X118175715Y-78862381D01*
X154265334Y-77226381D02*
X153932000Y-76750190D01*
X153693905Y-77226381D02*
X153693905Y-76226381D01*
X154074858Y-76226381D01*
X154170096Y-76274000D01*
X154217715Y-76321619D01*
X154265334Y-76416857D01*
X154265334Y-76559714D01*
X154217715Y-76654952D01*
X154170096Y-76702571D01*
X154074858Y-76750190D01*
X153693905Y-76750190D01*
X154598667Y-76226381D02*
X155217715Y-76226381D01*
X154884381Y-76607333D01*
X155027239Y-76607333D01*
X155122477Y-76654952D01*
X155170096Y-76702571D01*
X155217715Y-76797810D01*
X155217715Y-77035905D01*
X155170096Y-77131143D01*
X155122477Y-77178762D01*
X155027239Y-77226381D01*
X154741524Y-77226381D01*
X154646286Y-77178762D01*
X154598667Y-77131143D01*
X154011334Y-85862381D02*
X153678000Y-85386190D01*
X153439905Y-85862381D02*
X153439905Y-84862381D01*
X153820858Y-84862381D01*
X153916096Y-84910000D01*
X153963715Y-84957619D01*
X154011334Y-85052857D01*
X154011334Y-85195714D01*
X153963715Y-85290952D01*
X153916096Y-85338571D01*
X153820858Y-85386190D01*
X153439905Y-85386190D01*
X154868477Y-85195714D02*
X154868477Y-85862381D01*
X154630381Y-84814762D02*
X154392286Y-85529048D01*
X155011334Y-85529048D01*
X154011334Y-94498381D02*
X153678000Y-94022190D01*
X153439905Y-94498381D02*
X153439905Y-93498381D01*
X153820858Y-93498381D01*
X153916096Y-93546000D01*
X153963715Y-93593619D01*
X154011334Y-93688857D01*
X154011334Y-93831714D01*
X153963715Y-93926952D01*
X153916096Y-93974571D01*
X153820858Y-94022190D01*
X153439905Y-94022190D01*
X154916096Y-93498381D02*
X154439905Y-93498381D01*
X154392286Y-93974571D01*
X154439905Y-93926952D01*
X154535143Y-93879333D01*
X154773239Y-93879333D01*
X154868477Y-93926952D01*
X154916096Y-93974571D01*
X154963715Y-94069810D01*
X154963715Y-94307905D01*
X154916096Y-94403143D01*
X154868477Y-94450762D01*
X154773239Y-94498381D01*
X154535143Y-94498381D01*
X154439905Y-94450762D01*
X154392286Y-94403143D01*
X156561334Y-100654381D02*
X156228000Y-100178190D01*
X155989905Y-100654381D02*
X155989905Y-99654381D01*
X156370858Y-99654381D01*
X156466096Y-99702000D01*
X156513715Y-99749619D01*
X156561334Y-99844857D01*
X156561334Y-99987714D01*
X156513715Y-100082952D01*
X156466096Y-100130571D01*
X156370858Y-100178190D01*
X155989905Y-100178190D01*
X157418477Y-99654381D02*
X157228000Y-99654381D01*
X157132762Y-99702000D01*
X157085143Y-99749619D01*
X156989905Y-99892476D01*
X156942286Y-100082952D01*
X156942286Y-100463905D01*
X156989905Y-100559143D01*
X157037524Y-100606762D01*
X157132762Y-100654381D01*
X157323239Y-100654381D01*
X157418477Y-100606762D01*
X157466096Y-100559143D01*
X157513715Y-100463905D01*
X157513715Y-100225810D01*
X157466096Y-100130571D01*
X157418477Y-100082952D01*
X157323239Y-100035333D01*
X157132762Y-100035333D01*
X157037524Y-100082952D01*
X156989905Y-100130571D01*
X156942286Y-100225810D01*
X154011334Y-81544381D02*
X153678000Y-81068190D01*
X153439905Y-81544381D02*
X153439905Y-80544381D01*
X153820858Y-80544381D01*
X153916096Y-80592000D01*
X153963715Y-80639619D01*
X154011334Y-80734857D01*
X154011334Y-80877714D01*
X153963715Y-80972952D01*
X153916096Y-81020571D01*
X153820858Y-81068190D01*
X153439905Y-81068190D01*
X154344667Y-80544381D02*
X155011334Y-80544381D01*
X154582762Y-81544381D01*
X154011334Y-90180381D02*
X153678000Y-89704190D01*
X153439905Y-90180381D02*
X153439905Y-89180381D01*
X153820858Y-89180381D01*
X153916096Y-89228000D01*
X153963715Y-89275619D01*
X154011334Y-89370857D01*
X154011334Y-89513714D01*
X153963715Y-89608952D01*
X153916096Y-89656571D01*
X153820858Y-89704190D01*
X153439905Y-89704190D01*
X154582762Y-89608952D02*
X154487524Y-89561333D01*
X154439905Y-89513714D01*
X154392286Y-89418476D01*
X154392286Y-89370857D01*
X154439905Y-89275619D01*
X154487524Y-89228000D01*
X154582762Y-89180381D01*
X154773239Y-89180381D01*
X154868477Y-89228000D01*
X154916096Y-89275619D01*
X154963715Y-89370857D01*
X154963715Y-89418476D01*
X154916096Y-89513714D01*
X154868477Y-89561333D01*
X154773239Y-89608952D01*
X154582762Y-89608952D01*
X154487524Y-89656571D01*
X154439905Y-89704190D01*
X154392286Y-89799429D01*
X154392286Y-89989905D01*
X154439905Y-90085143D01*
X154487524Y-90132762D01*
X154582762Y-90180381D01*
X154773239Y-90180381D01*
X154868477Y-90132762D01*
X154916096Y-90085143D01*
X154963715Y-89989905D01*
X154963715Y-89799429D01*
X154916096Y-89704190D01*
X154868477Y-89656571D01*
X154773239Y-89608952D01*
X154011334Y-98816381D02*
X153678000Y-98340190D01*
X153439905Y-98816381D02*
X153439905Y-97816381D01*
X153820858Y-97816381D01*
X153916096Y-97864000D01*
X153963715Y-97911619D01*
X154011334Y-98006857D01*
X154011334Y-98149714D01*
X153963715Y-98244952D01*
X153916096Y-98292571D01*
X153820858Y-98340190D01*
X153439905Y-98340190D01*
X154487524Y-98816381D02*
X154678000Y-98816381D01*
X154773239Y-98768762D01*
X154820858Y-98721143D01*
X154916096Y-98578286D01*
X154963715Y-98387810D01*
X154963715Y-98006857D01*
X154916096Y-97911619D01*
X154868477Y-97864000D01*
X154773239Y-97816381D01*
X154582762Y-97816381D01*
X154487524Y-97864000D01*
X154439905Y-97911619D01*
X154392286Y-98006857D01*
X154392286Y-98244952D01*
X154439905Y-98340190D01*
X154487524Y-98387810D01*
X154582762Y-98435429D01*
X154773239Y-98435429D01*
X154868477Y-98387810D01*
X154916096Y-98340190D01*
X154963715Y-98244952D01*
X155547143Y-107452381D02*
X155213809Y-106976190D01*
X154975714Y-107452381D02*
X154975714Y-106452381D01*
X155356667Y-106452381D01*
X155451905Y-106500000D01*
X155499524Y-106547619D01*
X155547143Y-106642857D01*
X155547143Y-106785714D01*
X155499524Y-106880952D01*
X155451905Y-106928571D01*
X155356667Y-106976190D01*
X154975714Y-106976190D01*
X156499524Y-107452381D02*
X155928095Y-107452381D01*
X156213809Y-107452381D02*
X156213809Y-106452381D01*
X156118571Y-106595238D01*
X156023333Y-106690476D01*
X155928095Y-106738095D01*
X157118571Y-106452381D02*
X157213810Y-106452381D01*
X157309048Y-106500000D01*
X157356667Y-106547619D01*
X157404286Y-106642857D01*
X157451905Y-106833333D01*
X157451905Y-107071429D01*
X157404286Y-107261905D01*
X157356667Y-107357143D01*
X157309048Y-107404762D01*
X157213810Y-107452381D01*
X157118571Y-107452381D01*
X157023333Y-107404762D01*
X156975714Y-107357143D01*
X156928095Y-107261905D01*
X156880476Y-107071429D01*
X156880476Y-106833333D01*
X156928095Y-106642857D01*
X156975714Y-106547619D01*
X157023333Y-106500000D01*
X157118571Y-106452381D01*
X95724762Y-74363333D02*
X95772381Y-74220476D01*
X95772381Y-73982380D01*
X95724762Y-73887142D01*
X95677143Y-73839523D01*
X95581905Y-73791904D01*
X95486667Y-73791904D01*
X95391429Y-73839523D01*
X95343810Y-73887142D01*
X95296190Y-73982380D01*
X95248571Y-74172857D01*
X95200952Y-74268095D01*
X95153333Y-74315714D01*
X95058095Y-74363333D01*
X94962857Y-74363333D01*
X94867619Y-74315714D01*
X94820000Y-74268095D01*
X94772381Y-74172857D01*
X94772381Y-73934761D01*
X94820000Y-73791904D01*
X94772381Y-73458571D02*
X95772381Y-73220476D01*
X95058095Y-73029999D01*
X95772381Y-72839523D01*
X94772381Y-72601428D01*
X95772381Y-71696666D02*
X95772381Y-72268095D01*
X95772381Y-71982381D02*
X94772381Y-71982381D01*
X94915238Y-72077619D01*
X95010476Y-72172857D01*
X95058095Y-72268095D01*
X107765238Y-85642381D02*
X107765238Y-86451905D01*
X107812857Y-86547143D01*
X107860476Y-86594762D01*
X107955714Y-86642381D01*
X108146191Y-86642381D01*
X108241429Y-86594762D01*
X108289048Y-86547143D01*
X108336667Y-86451905D01*
X108336667Y-85642381D01*
X108955714Y-85642381D02*
X108955714Y-85880476D01*
X108717619Y-85785238D02*
X108955714Y-85880476D01*
X109193810Y-85785238D01*
X108812857Y-86070952D02*
X108955714Y-85880476D01*
X109098572Y-86070952D01*
X109717619Y-85642381D02*
X109717619Y-85880476D01*
X109479524Y-85785238D02*
X109717619Y-85880476D01*
X109955715Y-85785238D01*
X109574762Y-86070952D02*
X109717619Y-85880476D01*
X109860477Y-86070952D01*
X110479524Y-85642381D02*
X110479524Y-85880476D01*
X110241429Y-85785238D02*
X110479524Y-85880476D01*
X110717620Y-85785238D01*
X110336667Y-86070952D02*
X110479524Y-85880476D01*
X110622382Y-86070952D01*
X111622382Y-86642381D02*
X111050953Y-86642381D01*
X111336667Y-86642381D02*
X111336667Y-85642381D01*
X111241429Y-85785238D01*
X111146191Y-85880476D01*
X111050953Y-85928095D01*
X159512095Y-131278381D02*
X159512095Y-132087905D01*
X159559714Y-132183143D01*
X159607333Y-132230762D01*
X159702571Y-132278381D01*
X159893048Y-132278381D01*
X159988286Y-132230762D01*
X160035905Y-132183143D01*
X160083524Y-132087905D01*
X160083524Y-131278381D01*
X161083524Y-132278381D02*
X160512095Y-132278381D01*
X160797809Y-132278381D02*
X160797809Y-131278381D01*
X160702571Y-131421238D01*
X160607333Y-131516476D01*
X160512095Y-131564095D01*
X129048095Y-85304381D02*
X129048095Y-86113905D01*
X129095714Y-86209143D01*
X129143333Y-86256762D01*
X129238571Y-86304381D01*
X129429048Y-86304381D01*
X129524286Y-86256762D01*
X129571905Y-86209143D01*
X129619524Y-86113905D01*
X129619524Y-85304381D01*
X130524286Y-85637714D02*
X130524286Y-86304381D01*
X130286190Y-85256762D02*
X130048095Y-85971048D01*
X130667143Y-85971048D01*
X99841190Y-110776191D02*
X100317381Y-110776191D01*
X99317381Y-111109524D02*
X99841190Y-110776191D01*
X99317381Y-110442857D01*
X100317381Y-109585714D02*
X100317381Y-110157143D01*
X100317381Y-109871429D02*
X99317381Y-109871429D01*
X99460238Y-109966667D01*
X99555476Y-110061905D01*
X99603095Y-110157143D01*
X99402381Y-118813333D02*
X100116667Y-118813333D01*
X100259524Y-118860953D01*
X100354762Y-118956191D01*
X100402381Y-119099048D01*
X100402381Y-119194286D01*
X100402381Y-117813333D02*
X100402381Y-118384762D01*
X100402381Y-118099048D02*
X99402381Y-118099048D01*
X99545238Y-118194286D01*
X99640476Y-118289524D01*
X99688095Y-118384762D01*
X99372381Y-122013333D02*
X100086667Y-122013333D01*
X100229524Y-122060953D01*
X100324762Y-122156191D01*
X100372381Y-122299048D01*
X100372381Y-122394286D01*
X99467619Y-121584762D02*
X99420000Y-121537143D01*
X99372381Y-121441905D01*
X99372381Y-121203809D01*
X99420000Y-121108571D01*
X99467619Y-121060952D01*
X99562857Y-121013333D01*
X99658095Y-121013333D01*
X99800952Y-121060952D01*
X100372381Y-121632381D01*
X100372381Y-121013333D01*
X99402381Y-125173333D02*
X100116667Y-125173333D01*
X100259524Y-125220953D01*
X100354762Y-125316191D01*
X100402381Y-125459048D01*
X100402381Y-125554286D01*
X99402381Y-124792381D02*
X99402381Y-124173333D01*
X99783333Y-124506667D01*
X99783333Y-124363809D01*
X99830952Y-124268571D01*
X99878571Y-124220952D01*
X99973810Y-124173333D01*
X100211905Y-124173333D01*
X100307143Y-124220952D01*
X100354762Y-124268571D01*
X100402381Y-124363809D01*
X100402381Y-124649524D01*
X100354762Y-124744762D01*
X100307143Y-124792381D01*
X141692381Y-146557905D02*
X142501905Y-146557905D01*
X142597143Y-146510286D01*
X142644762Y-146462667D01*
X142692381Y-146367429D01*
X142692381Y-146176952D01*
X142644762Y-146081714D01*
X142597143Y-146034095D01*
X142501905Y-145986476D01*
X141692381Y-145986476D01*
X141787619Y-145557905D02*
X141740000Y-145510286D01*
X141692381Y-145415048D01*
X141692381Y-145176952D01*
X141740000Y-145081714D01*
X141787619Y-145034095D01*
X141882857Y-144986476D01*
X141978095Y-144986476D01*
X142120952Y-145034095D01*
X142692381Y-145605524D01*
X142692381Y-144986476D01*
M02*
