G04 #@! TF.FileFunction,Copper,L1,Top,Signal*
%FSLAX46Y46*%
G04 Gerber Fmt 4.6, Leading zero omitted, Abs format (unit mm)*
G04 Created by KiCad (PCBNEW 4.0.6) date Sat Sep  2 21:00:00 2017*
%MOMM*%
%LPD*%
G01*
G04 APERTURE LIST*
%ADD10C,0.100000*%
%ADD11C,1.520000*%
%ADD12C,3.700000*%
%ADD13C,3.800000*%
%ADD14R,1.600000X2.400000*%
%ADD15O,1.600000X2.400000*%
%ADD16R,1.700000X1.700000*%
%ADD17O,1.700000X1.700000*%
%ADD18R,3.000000X3.000000*%
%ADD19C,3.000000*%
%ADD20R,1.600000X1.600000*%
%ADD21C,1.600000*%
%ADD22R,1.800000X1.800000*%
%ADD23C,1.800000*%
%ADD24R,2.800000X2.800000*%
%ADD25O,2.800000X2.800000*%
%ADD26C,2.400000*%
%ADD27O,2.400000X2.400000*%
%ADD28C,2.000000*%
%ADD29R,2.400000X1.600000*%
%ADD30O,2.400000X1.600000*%
%ADD31O,1.800000X1.800000*%
%ADD32C,2.300000*%
%ADD33C,1.000000*%
%ADD34R,1.000000X1.000000*%
%ADD35C,1.910000*%
%ADD36C,0.800000*%
G04 APERTURE END LIST*
D10*
D11*
X99442000Y-139530000D03*
X99442000Y-142070000D03*
X97442000Y-142070000D03*
X97442000Y-139530000D03*
D12*
X94742000Y-134800000D03*
D13*
X94742000Y-146800000D03*
D14*
X133840000Y-116190000D03*
D15*
X151620000Y-108570000D03*
X136380000Y-116190000D03*
X149080000Y-108570000D03*
X138920000Y-116190000D03*
X146540000Y-108570000D03*
X141460000Y-116190000D03*
X144000000Y-108570000D03*
X144000000Y-116190000D03*
X141460000Y-108570000D03*
X146540000Y-116190000D03*
X138920000Y-108570000D03*
X149080000Y-116190000D03*
X136380000Y-108570000D03*
X151620000Y-116190000D03*
X133840000Y-108570000D03*
D16*
X106580000Y-145660000D03*
D17*
X106580000Y-143120000D03*
X106580000Y-140580000D03*
D18*
X168402000Y-121412000D03*
D19*
X168402000Y-116332000D03*
D20*
X98044000Y-63754000D03*
D21*
X98044000Y-61254000D03*
X108840000Y-105790000D03*
X108840000Y-103290000D03*
X88160000Y-107630000D03*
X90660000Y-107630000D03*
X88160000Y-112740000D03*
X90660000Y-112740000D03*
X97510000Y-128360000D03*
X95010000Y-128360000D03*
D20*
X142623255Y-126826989D03*
D21*
X142623255Y-129326989D03*
D20*
X157240000Y-145542000D03*
D21*
X159740000Y-145542000D03*
D20*
X142623255Y-138470989D03*
D21*
X142623255Y-135970989D03*
D20*
X166878000Y-146772000D03*
D21*
X166878000Y-144272000D03*
X150876000Y-147788000D03*
X150876000Y-145288000D03*
X147957255Y-134152989D03*
X147957255Y-131652989D03*
X141224000Y-112268000D03*
X143724000Y-112268000D03*
D22*
X105920000Y-63550000D03*
D23*
X105920000Y-61010000D03*
D24*
X134874000Y-127508000D03*
D25*
X134874000Y-140208000D03*
D22*
X159404000Y-63540000D03*
D23*
X159404000Y-61000000D03*
D22*
X152800000Y-63540000D03*
D23*
X152800000Y-61000000D03*
D22*
X146196000Y-63540000D03*
D23*
X146196000Y-61000000D03*
D22*
X139592000Y-63540000D03*
D23*
X139592000Y-61000000D03*
D22*
X132988000Y-63540000D03*
D23*
X132988000Y-61000000D03*
D22*
X126384000Y-63540000D03*
D23*
X126384000Y-61000000D03*
D22*
X119780000Y-63540000D03*
D23*
X119780000Y-61000000D03*
D22*
X113176000Y-63540000D03*
D23*
X113176000Y-61000000D03*
D16*
X121510000Y-135130000D03*
D17*
X124050000Y-135130000D03*
X126590000Y-135130000D03*
D16*
X121510000Y-131930000D03*
D17*
X124050000Y-131930000D03*
X126590000Y-131930000D03*
D16*
X121510000Y-128720000D03*
D17*
X124050000Y-128720000D03*
X126590000Y-128720000D03*
D16*
X112450000Y-145530000D03*
D17*
X112450000Y-142990000D03*
X112450000Y-140450000D03*
D16*
X121510000Y-125530000D03*
D17*
X124050000Y-125530000D03*
X126590000Y-125530000D03*
D16*
X121510000Y-122330000D03*
D17*
X124050000Y-122330000D03*
X126590000Y-122330000D03*
D16*
X121510000Y-119130000D03*
D17*
X124050000Y-119130000D03*
X126590000Y-119130000D03*
D16*
X95370000Y-100670000D03*
D17*
X95370000Y-98130000D03*
X95370000Y-95590000D03*
X95370000Y-93050000D03*
X95370000Y-90510000D03*
X95370000Y-87970000D03*
X95370000Y-85430000D03*
X95370000Y-82890000D03*
D16*
X88870000Y-100670000D03*
D17*
X88870000Y-98130000D03*
X88870000Y-95590000D03*
X88870000Y-93050000D03*
X88870000Y-90510000D03*
X88870000Y-87970000D03*
X88870000Y-85430000D03*
X88870000Y-82890000D03*
D16*
X121510000Y-115920000D03*
D17*
X121510000Y-113380000D03*
X121510000Y-110840000D03*
X121510000Y-108300000D03*
D16*
X92120000Y-100670000D03*
D17*
X92120000Y-98130000D03*
X92120000Y-95590000D03*
X92120000Y-93050000D03*
X92120000Y-90510000D03*
X92120000Y-87970000D03*
X92120000Y-85430000D03*
X92120000Y-82890000D03*
D16*
X138684000Y-145796000D03*
D17*
X136144000Y-145796000D03*
X133604000Y-145796000D03*
D18*
X128270000Y-144272000D03*
D19*
X123190000Y-144272000D03*
D18*
X168402000Y-110744000D03*
D19*
X168402000Y-105664000D03*
D16*
X121500000Y-100750000D03*
D17*
X121500000Y-98210000D03*
X121500000Y-95670000D03*
X121500000Y-93130000D03*
X121500000Y-90590000D03*
X121500000Y-88050000D03*
X121500000Y-85510000D03*
X121500000Y-82970000D03*
D16*
X138000000Y-83000000D03*
D17*
X138000000Y-85540000D03*
X138000000Y-88080000D03*
X138000000Y-90620000D03*
X138000000Y-93160000D03*
X138000000Y-95700000D03*
X138000000Y-98240000D03*
X138000000Y-100780000D03*
D26*
X114770000Y-74140000D03*
D27*
X102070000Y-74140000D03*
D26*
X114780000Y-78400000D03*
D27*
X102080000Y-78400000D03*
D26*
X160782000Y-73914000D03*
D27*
X148082000Y-73914000D03*
D26*
X160528000Y-82550000D03*
D27*
X147828000Y-82550000D03*
D26*
X160528000Y-91186000D03*
D27*
X147828000Y-91186000D03*
D26*
X160528000Y-99822000D03*
D27*
X147828000Y-99822000D03*
D26*
X160528000Y-78232000D03*
D27*
X147828000Y-78232000D03*
D26*
X160528000Y-86868000D03*
D27*
X147828000Y-86868000D03*
D26*
X160528000Y-95504000D03*
D27*
X147828000Y-95504000D03*
D26*
X162540000Y-104140000D03*
D27*
X149840000Y-104140000D03*
D28*
X88820000Y-69780000D03*
X93320000Y-69780000D03*
X88820000Y-76280000D03*
X93320000Y-76280000D03*
D29*
X102000000Y-82900000D03*
D30*
X117240000Y-131160000D03*
X102000000Y-85440000D03*
X117240000Y-128620000D03*
X102000000Y-87980000D03*
X117240000Y-126080000D03*
X102000000Y-90520000D03*
X117240000Y-123540000D03*
X102000000Y-93060000D03*
X117240000Y-121000000D03*
X102000000Y-95600000D03*
X117240000Y-118460000D03*
X102000000Y-98140000D03*
X117240000Y-115920000D03*
X102000000Y-100680000D03*
X117240000Y-113380000D03*
X102000000Y-103220000D03*
X117240000Y-110840000D03*
X102000000Y-105760000D03*
X117240000Y-108300000D03*
X102000000Y-108300000D03*
X117240000Y-105760000D03*
X102000000Y-110840000D03*
X117240000Y-103220000D03*
X102000000Y-113380000D03*
X117240000Y-100680000D03*
X102000000Y-115920000D03*
X117240000Y-98140000D03*
X102000000Y-118460000D03*
X117240000Y-95600000D03*
X102000000Y-121000000D03*
X117240000Y-93060000D03*
X102000000Y-123540000D03*
X117240000Y-90520000D03*
X102000000Y-126080000D03*
X117240000Y-87980000D03*
X102000000Y-128620000D03*
X117240000Y-85440000D03*
X102000000Y-131160000D03*
X117240000Y-82900000D03*
D22*
X152758000Y-132842000D03*
D31*
X152758000Y-135382000D03*
X152758000Y-137922000D03*
D29*
X126000000Y-83000000D03*
D30*
X133620000Y-103320000D03*
X126000000Y-85540000D03*
X133620000Y-100780000D03*
X126000000Y-88080000D03*
X133620000Y-98240000D03*
X126000000Y-90620000D03*
X133620000Y-95700000D03*
X126000000Y-93160000D03*
X133620000Y-93160000D03*
X126000000Y-95700000D03*
X133620000Y-90620000D03*
X126000000Y-98240000D03*
X133620000Y-88080000D03*
X126000000Y-100780000D03*
X133620000Y-85540000D03*
X126000000Y-103320000D03*
X133620000Y-83000000D03*
D32*
X96340000Y-107850000D03*
X96340000Y-112750000D03*
D16*
X95240000Y-118470000D03*
D17*
X97780000Y-118470000D03*
D16*
X95220000Y-121680000D03*
D17*
X97760000Y-121680000D03*
D16*
X95220000Y-124860000D03*
D17*
X97760000Y-124860000D03*
D33*
X144526000Y-145796000D03*
X145796000Y-144526000D03*
D34*
X145796000Y-147066000D03*
D35*
X141430000Y-122800000D03*
X141430000Y-118870000D03*
X125840000Y-106400000D03*
X125890000Y-115400000D03*
X112730000Y-109250000D03*
X112700000Y-103290000D03*
X128650000Y-106570000D03*
X128650000Y-111410000D03*
D36*
X141430000Y-118870000D02*
X141430000Y-122800000D01*
X125890000Y-115400000D02*
X125890000Y-106450000D01*
X125890000Y-106450000D02*
X125840000Y-106400000D01*
X112690000Y-104650573D02*
X112690000Y-109210000D01*
X112690000Y-109210000D02*
X112730000Y-109250000D01*
X112700000Y-103290000D02*
X112700000Y-104640573D01*
X112700000Y-104640573D02*
X112690000Y-104650573D01*
X128650000Y-111410000D02*
X128650000Y-106570000D01*
M02*
