M48
;DRILL file {Pcbnew (2012-01-19 BZR 3256)-stable} date mar 16 jul 2013 12:41:19 ART
;FORMAT={-:-/ absolute / inch / decimal}
FMAT,2
INCH,TZ
T1C0.025
T2C0.032
T3C0.040
T4C0.045
T5C0.047
T6C0.060
T7C0.091
T8C0.120
%
G90
G05
M72
T1
X4.035Y1.650
X4.143Y1.566
X4.320Y3.330
X4.365Y2.180
X4.368Y2.010
X4.415Y1.262
X4.530Y2.334
X4.550Y2.010
X4.583Y2.180
X4.640Y3.330
X4.759Y1.564
X4.763Y1.650
X4.784Y1.261
X4.829Y2.332
X4.924Y2.130
X4.981Y2.202
X5.086Y2.742
X5.086Y2.964
X5.123Y2.202
X5.128Y2.133
X5.185Y3.445
X5.188Y2.748
X5.188Y3.014
X5.195Y4.045
X5.365Y3.234
X5.616Y1.963
X5.620Y1.814
X5.886Y3.233
T2
X2.790Y0.970
X2.790Y1.320
X2.790Y1.670
X2.790Y2.020
X2.790Y2.370
X2.790Y2.720
X2.790Y3.070
X2.790Y3.420
X2.890Y0.970
X2.890Y1.320
X2.890Y1.670
X2.890Y2.020
X2.890Y2.370
X2.890Y2.720
X2.890Y3.070
X2.890Y3.420
X3.130Y4.025
X3.130Y4.125
X3.145Y3.425
X3.145Y3.825
X3.215Y1.245
X3.215Y1.645
X3.297Y3.622
X3.297Y4.022
X3.315Y1.245
X3.315Y1.645
X3.330Y2.583
X3.330Y3.183
X3.330Y1.900
X3.331Y2.458
X3.331Y2.027
X3.331Y2.327
X3.415Y1.145
X3.415Y1.545
X3.427Y3.524
X3.430Y2.583
X3.430Y3.183
X3.430Y1.900
X3.430Y3.300
X3.430Y3.412
X3.431Y2.458
X3.431Y2.027
X3.431Y2.327
X3.470Y3.900
X3.470Y4.200
X3.515Y1.145
X3.515Y1.545
X3.527Y3.524
X3.530Y2.583
X3.530Y3.183
X3.530Y1.900
X3.530Y3.300
X3.530Y3.412
X3.531Y2.458
X3.531Y2.027
X3.531Y2.327
X3.565Y2.730
X3.565Y3.030
X3.615Y1.145
X3.615Y1.545
X3.627Y3.524
X3.630Y2.583
X3.630Y3.183
X3.630Y1.900
X3.630Y3.300
X3.630Y3.412
X3.631Y2.458
X3.631Y2.027
X3.631Y2.327
X3.665Y2.730
X3.665Y3.030
X3.670Y3.900
X3.670Y4.200
X3.706Y3.721
X3.715Y1.145
X3.715Y1.545
X3.727Y3.524
X3.730Y2.583
X3.730Y3.183
X3.730Y1.900
X3.730Y3.300
X3.730Y3.412
X3.731Y2.458
X3.731Y2.027
X3.731Y2.327
X3.765Y2.730
X3.765Y3.030
X3.806Y3.721
X3.815Y1.145
X3.815Y1.545
X3.827Y3.524
X3.830Y2.583
X3.830Y3.183
X3.830Y1.900
X3.830Y3.300
X3.830Y3.412
X3.831Y2.458
X3.831Y2.027
X3.831Y2.327
X3.865Y2.730
X3.865Y3.030
X3.915Y1.145
X3.915Y1.545
X3.927Y3.524
X3.930Y2.583
X3.930Y3.183
X3.930Y1.900
X3.930Y3.300
X3.930Y3.412
X3.931Y2.458
X3.931Y2.027
X3.931Y2.327
X3.965Y2.730
X3.965Y3.030
X4.027Y3.524
X4.030Y2.583
X4.030Y3.183
X4.030Y1.900
X4.030Y3.300
X4.030Y3.412
X4.031Y2.458
X4.031Y2.027
X4.031Y2.327
X4.065Y2.730
X4.065Y3.030
X4.096Y1.462
X4.096Y1.762
X4.127Y3.524
X4.130Y2.583
X4.130Y3.183
X4.130Y3.300
X4.130Y3.412
X4.131Y2.027
X4.131Y2.327
X4.165Y2.730
X4.165Y3.030
X4.196Y1.462
X4.196Y1.762
X4.230Y2.583
X4.230Y3.183
X4.260Y3.401
X4.260Y3.802
X4.265Y2.730
X4.265Y3.030
X4.296Y1.462
X4.296Y1.762
X4.329Y2.433
X4.330Y2.583
X4.330Y3.183
X4.365Y2.730
X4.365Y3.030
X4.396Y1.462
X4.396Y1.762
X4.429Y2.433
X4.430Y2.583
X4.430Y3.183
X4.465Y2.730
X4.465Y3.030
X4.496Y1.462
X4.496Y1.762
X4.529Y2.433
X4.530Y2.583
X4.530Y3.183
X4.557Y3.758
X4.557Y3.858
X4.565Y2.730
X4.565Y3.030
X4.596Y1.462
X4.596Y1.762
X4.629Y2.433
X4.630Y2.583
X4.630Y3.183
X4.665Y2.730
X4.665Y3.030
X4.696Y1.462
X4.696Y1.762
X4.729Y2.433
X4.730Y2.583
X4.730Y3.183
X4.746Y3.758
X4.746Y3.858
X4.765Y2.730
X4.765Y3.030
X4.796Y1.462
X4.796Y1.762
X4.829Y2.433
X4.830Y2.583
X4.830Y3.183
X4.865Y2.730
X4.865Y3.030
X4.919Y1.261
X4.919Y1.361
X4.929Y2.433
X4.930Y2.583
X4.930Y3.183
X4.990Y2.320
X5.029Y2.433
X5.030Y2.583
X5.030Y3.183
X5.030Y3.447
X5.030Y3.547
X5.040Y1.970
X5.130Y2.583
X5.130Y3.183
X5.140Y1.970
X5.230Y2.583
X5.230Y3.183
X5.236Y3.329
X5.276Y2.168
X5.330Y3.454
X5.330Y3.854
X5.390Y2.320
X5.491Y2.843
X5.491Y2.943
X5.570Y2.843
X5.570Y2.943
X5.576Y2.168
X5.608Y3.604
X5.608Y3.704
X5.636Y3.329
X5.667Y1.323
X5.667Y1.723
X5.773Y2.188
X5.773Y2.488
X5.873Y2.188
X5.873Y2.488
X5.973Y2.188
X5.973Y2.488
X5.989Y0.945
X5.989Y1.345
T3
X4.743Y1.902
X4.743Y2.002
X4.743Y2.102
X4.844Y1.902
X4.844Y2.002
X4.844Y2.102
X4.890Y3.745
X4.890Y3.845
X4.890Y3.945
X4.990Y3.745
X4.990Y3.845
X4.990Y3.945
X5.069Y1.548
X5.069Y1.648
X5.069Y1.748
X5.090Y3.745
X5.090Y3.845
X5.090Y3.945
X5.498Y2.373
X5.498Y2.473
X5.498Y2.573
X5.734Y1.976
X5.834Y1.976
X5.934Y1.976
T4
X5.281Y2.053
X5.381Y2.053
X5.481Y2.053
T5
X4.556Y3.483
X4.748Y3.483
T6
X3.890Y4.120
X4.090Y4.120
X4.205Y1.020
X4.290Y4.120
X4.405Y1.020
X4.490Y4.120
X4.607Y1.020
X4.807Y1.020
X5.215Y1.020
X5.415Y1.020
X5.615Y1.020
X5.815Y1.020
X5.910Y1.530
X5.910Y1.730
T7
X5.676Y3.129
T8
X2.845Y4.130
X4.073Y1.283
X5.381Y1.403
X5.826Y1.287
X5.827Y4.128
T0
M30
