G04 (created by PCBNEW-RS274X (2012-01-19 BZR 3256)-stable) date mar 16 jul 2013 12:41:11 ART*
G01*
G70*
G90*
%MOIN*%
G04 Gerber Fmt 3.4, Leading zero omitted, Abs format*
%FSLAX34Y34*%
G04 APERTURE LIST*
%ADD10C,0.006000*%
%ADD11C,0.012000*%
G04 APERTURE END LIST*
G54D10*
X04000Y-04000D02*
X113000Y-04000D01*
X113000Y-78670D01*
X04000Y-78670D01*
X04000Y-04000D01*
X04700Y-04700D02*
X112300Y-04700D01*
X112300Y-77970D01*
X04700Y-77970D01*
X04700Y-04700D01*
X25800Y-04000D02*
X25800Y-04700D01*
X15043Y-04552D02*
X14757Y-04552D01*
X14900Y-04552D02*
X14900Y-04052D01*
X14852Y-04124D01*
X14805Y-04171D01*
X14757Y-04195D01*
X25800Y-78670D02*
X25800Y-77970D01*
X15043Y-78522D02*
X14757Y-78522D01*
X14900Y-78522D02*
X14900Y-78022D01*
X14852Y-78094D01*
X14805Y-78141D01*
X14757Y-78165D01*
X47600Y-04000D02*
X47600Y-04700D01*
X36557Y-04100D02*
X36581Y-04076D01*
X36629Y-04052D01*
X36748Y-04052D01*
X36795Y-04076D01*
X36819Y-04100D01*
X36843Y-04148D01*
X36843Y-04195D01*
X36819Y-04267D01*
X36533Y-04552D01*
X36843Y-04552D01*
X47600Y-78670D02*
X47600Y-77970D01*
X36557Y-78070D02*
X36581Y-78046D01*
X36629Y-78022D01*
X36748Y-78022D01*
X36795Y-78046D01*
X36819Y-78070D01*
X36843Y-78118D01*
X36843Y-78165D01*
X36819Y-78237D01*
X36533Y-78522D01*
X36843Y-78522D01*
X69400Y-04000D02*
X69400Y-04700D01*
X58333Y-04052D02*
X58643Y-04052D01*
X58476Y-04243D01*
X58548Y-04243D01*
X58595Y-04267D01*
X58619Y-04290D01*
X58643Y-04338D01*
X58643Y-04457D01*
X58619Y-04505D01*
X58595Y-04529D01*
X58548Y-04552D01*
X58405Y-04552D01*
X58357Y-04529D01*
X58333Y-04505D01*
X69400Y-78670D02*
X69400Y-77970D01*
X58333Y-78022D02*
X58643Y-78022D01*
X58476Y-78213D01*
X58548Y-78213D01*
X58595Y-78237D01*
X58619Y-78260D01*
X58643Y-78308D01*
X58643Y-78427D01*
X58619Y-78475D01*
X58595Y-78499D01*
X58548Y-78522D01*
X58405Y-78522D01*
X58357Y-78499D01*
X58333Y-78475D01*
X91200Y-04000D02*
X91200Y-04700D01*
X80395Y-04219D02*
X80395Y-04552D01*
X80276Y-04029D02*
X80157Y-04386D01*
X80467Y-04386D01*
X91200Y-78670D02*
X91200Y-77970D01*
X80395Y-78189D02*
X80395Y-78522D01*
X80276Y-77999D02*
X80157Y-78356D01*
X80467Y-78356D01*
X102219Y-04052D02*
X101981Y-04052D01*
X101957Y-04290D01*
X101981Y-04267D01*
X102029Y-04243D01*
X102148Y-04243D01*
X102195Y-04267D01*
X102219Y-04290D01*
X102243Y-04338D01*
X102243Y-04457D01*
X102219Y-04505D01*
X102195Y-04529D01*
X102148Y-04552D01*
X102029Y-04552D01*
X101981Y-04529D01*
X101957Y-04505D01*
X102219Y-78022D02*
X101981Y-78022D01*
X101957Y-78260D01*
X101981Y-78237D01*
X102029Y-78213D01*
X102148Y-78213D01*
X102195Y-78237D01*
X102219Y-78260D01*
X102243Y-78308D01*
X102243Y-78427D01*
X102219Y-78475D01*
X102195Y-78499D01*
X102148Y-78522D01*
X102029Y-78522D01*
X101981Y-78499D01*
X101957Y-78475D01*
X04000Y-28890D02*
X04700Y-28890D01*
X04231Y-16510D02*
X04469Y-16510D01*
X04184Y-16652D02*
X04350Y-16152D01*
X04517Y-16652D01*
X113000Y-28890D02*
X112300Y-28890D01*
X112531Y-16510D02*
X112769Y-16510D01*
X112484Y-16652D02*
X112650Y-16152D01*
X112817Y-16652D01*
X04000Y-53780D02*
X04700Y-53780D01*
X04386Y-41280D02*
X04457Y-41304D01*
X04481Y-41328D01*
X04505Y-41376D01*
X04505Y-41447D01*
X04481Y-41495D01*
X04457Y-41519D01*
X04410Y-41542D01*
X04219Y-41542D01*
X04219Y-41042D01*
X04386Y-41042D01*
X04433Y-41066D01*
X04457Y-41090D01*
X04481Y-41138D01*
X04481Y-41185D01*
X04457Y-41233D01*
X04433Y-41257D01*
X04386Y-41280D01*
X04219Y-41280D01*
X113000Y-53780D02*
X112300Y-53780D01*
X112686Y-41280D02*
X112757Y-41304D01*
X112781Y-41328D01*
X112805Y-41376D01*
X112805Y-41447D01*
X112781Y-41495D01*
X112757Y-41519D01*
X112710Y-41542D01*
X112519Y-41542D01*
X112519Y-41042D01*
X112686Y-41042D01*
X112733Y-41066D01*
X112757Y-41090D01*
X112781Y-41138D01*
X112781Y-41185D01*
X112757Y-41233D01*
X112733Y-41257D01*
X112686Y-41280D01*
X112519Y-41280D01*
X04505Y-66385D02*
X04481Y-66409D01*
X04410Y-66432D01*
X04362Y-66432D01*
X04290Y-66409D01*
X04243Y-66361D01*
X04219Y-66313D01*
X04195Y-66218D01*
X04195Y-66147D01*
X04219Y-66051D01*
X04243Y-66004D01*
X04290Y-65956D01*
X04362Y-65932D01*
X04410Y-65932D01*
X04481Y-65956D01*
X04505Y-65980D01*
X112805Y-66385D02*
X112781Y-66409D01*
X112710Y-66432D01*
X112662Y-66432D01*
X112590Y-66409D01*
X112543Y-66361D01*
X112519Y-66313D01*
X112495Y-66218D01*
X112495Y-66147D01*
X112519Y-66051D01*
X112543Y-66004D01*
X112590Y-65956D01*
X112662Y-65932D01*
X112710Y-65932D01*
X112781Y-65956D01*
X112805Y-65980D01*
G54D11*
X79443Y-76413D02*
X79443Y-75813D01*
X79586Y-75813D01*
X79671Y-75841D01*
X79729Y-75899D01*
X79757Y-75956D01*
X79786Y-76070D01*
X79786Y-76156D01*
X79757Y-76270D01*
X79729Y-76327D01*
X79671Y-76384D01*
X79586Y-76413D01*
X79443Y-76413D01*
X80300Y-76413D02*
X80300Y-76099D01*
X80271Y-76041D01*
X80214Y-76013D01*
X80100Y-76013D01*
X80043Y-76041D01*
X80300Y-76384D02*
X80243Y-76413D01*
X80100Y-76413D01*
X80043Y-76384D01*
X80014Y-76327D01*
X80014Y-76270D01*
X80043Y-76213D01*
X80100Y-76184D01*
X80243Y-76184D01*
X80300Y-76156D01*
X80500Y-76013D02*
X80729Y-76013D01*
X80586Y-75813D02*
X80586Y-76327D01*
X80614Y-76384D01*
X80672Y-76413D01*
X80729Y-76413D01*
X81157Y-76384D02*
X81100Y-76413D01*
X80986Y-76413D01*
X80929Y-76384D01*
X80900Y-76327D01*
X80900Y-76099D01*
X80929Y-76041D01*
X80986Y-76013D01*
X81100Y-76013D01*
X81157Y-76041D01*
X81186Y-76099D01*
X81186Y-76156D01*
X80900Y-76213D01*
X81443Y-76356D02*
X81471Y-76384D01*
X81443Y-76413D01*
X81414Y-76384D01*
X81443Y-76356D01*
X81443Y-76413D01*
X81443Y-76041D02*
X81471Y-76070D01*
X81443Y-76099D01*
X81414Y-76070D01*
X81443Y-76041D01*
X81443Y-76099D01*
X82500Y-76413D02*
X82157Y-76413D01*
X82329Y-76413D02*
X82329Y-75813D01*
X82272Y-75899D01*
X82214Y-75956D01*
X82157Y-75984D01*
X83014Y-75813D02*
X82900Y-75813D01*
X82843Y-75841D01*
X82814Y-75870D01*
X82757Y-75956D01*
X82728Y-76070D01*
X82728Y-76299D01*
X82757Y-76356D01*
X82785Y-76384D01*
X82843Y-76413D01*
X82957Y-76413D01*
X83014Y-76384D01*
X83043Y-76356D01*
X83071Y-76299D01*
X83071Y-76156D01*
X83043Y-76099D01*
X83014Y-76070D01*
X82957Y-76041D01*
X82843Y-76041D01*
X82785Y-76070D01*
X82757Y-76099D01*
X82728Y-76156D01*
X83785Y-76013D02*
X83785Y-76527D01*
X83756Y-76584D01*
X83699Y-76613D01*
X83671Y-76613D01*
X83785Y-75813D02*
X83756Y-75841D01*
X83785Y-75870D01*
X83813Y-75841D01*
X83785Y-75813D01*
X83785Y-75870D01*
X84328Y-76013D02*
X84328Y-76413D01*
X84071Y-76013D02*
X84071Y-76327D01*
X84099Y-76384D01*
X84157Y-76413D01*
X84242Y-76413D01*
X84299Y-76384D01*
X84328Y-76356D01*
X84700Y-76413D02*
X84642Y-76384D01*
X84614Y-76327D01*
X84614Y-75813D01*
X85356Y-75870D02*
X85385Y-75841D01*
X85442Y-75813D01*
X85585Y-75813D01*
X85642Y-75841D01*
X85671Y-75870D01*
X85699Y-75927D01*
X85699Y-75984D01*
X85671Y-76070D01*
X85328Y-76413D01*
X85699Y-76413D01*
X86070Y-75813D02*
X86127Y-75813D01*
X86184Y-75841D01*
X86213Y-75870D01*
X86242Y-75927D01*
X86270Y-76041D01*
X86270Y-76184D01*
X86242Y-76299D01*
X86213Y-76356D01*
X86184Y-76384D01*
X86127Y-76413D01*
X86070Y-76413D01*
X86013Y-76384D01*
X85984Y-76356D01*
X85956Y-76299D01*
X85927Y-76184D01*
X85927Y-76041D01*
X85956Y-75927D01*
X85984Y-75870D01*
X86013Y-75841D01*
X86070Y-75813D01*
X86841Y-76413D02*
X86498Y-76413D01*
X86670Y-76413D02*
X86670Y-75813D01*
X86613Y-75899D01*
X86555Y-75956D01*
X86498Y-75984D01*
X87041Y-75813D02*
X87412Y-75813D01*
X87212Y-76041D01*
X87298Y-76041D01*
X87355Y-76070D01*
X87384Y-76099D01*
X87412Y-76156D01*
X87412Y-76299D01*
X87384Y-76356D01*
X87355Y-76384D01*
X87298Y-76413D01*
X87126Y-76413D01*
X87069Y-76384D01*
X87041Y-76356D01*
G54D10*
X71043Y-77613D02*
X71043Y-77013D01*
X71386Y-77613D02*
X71129Y-77270D01*
X71386Y-77013D02*
X71043Y-77356D01*
X71643Y-77613D02*
X71643Y-77213D01*
X71643Y-77013D02*
X71614Y-77041D01*
X71643Y-77070D01*
X71671Y-77041D01*
X71643Y-77013D01*
X71643Y-77070D01*
X72272Y-77556D02*
X72243Y-77584D01*
X72157Y-77613D01*
X72100Y-77613D01*
X72015Y-77584D01*
X71957Y-77527D01*
X71929Y-77470D01*
X71900Y-77356D01*
X71900Y-77270D01*
X71929Y-77156D01*
X71957Y-77099D01*
X72015Y-77041D01*
X72100Y-77013D01*
X72157Y-77013D01*
X72243Y-77041D01*
X72272Y-77070D01*
X72786Y-77613D02*
X72786Y-77299D01*
X72757Y-77241D01*
X72700Y-77213D01*
X72586Y-77213D01*
X72529Y-77241D01*
X72786Y-77584D02*
X72729Y-77613D01*
X72586Y-77613D01*
X72529Y-77584D01*
X72500Y-77527D01*
X72500Y-77470D01*
X72529Y-77413D01*
X72586Y-77384D01*
X72729Y-77384D01*
X72786Y-77356D01*
X73329Y-77613D02*
X73329Y-77013D01*
X73329Y-77584D02*
X73272Y-77613D01*
X73158Y-77613D01*
X73100Y-77584D01*
X73072Y-77556D01*
X73043Y-77499D01*
X73043Y-77327D01*
X73072Y-77270D01*
X73100Y-77241D01*
X73158Y-77213D01*
X73272Y-77213D01*
X73329Y-77241D01*
X74072Y-77299D02*
X74272Y-77299D01*
X74358Y-77613D02*
X74072Y-77613D01*
X74072Y-77013D01*
X74358Y-77013D01*
X74615Y-77556D02*
X74643Y-77584D01*
X74615Y-77613D01*
X74586Y-77584D01*
X74615Y-77556D01*
X74615Y-77613D01*
X74901Y-77613D02*
X74901Y-77013D01*
X75044Y-77013D01*
X75129Y-77041D01*
X75187Y-77099D01*
X75215Y-77156D01*
X75244Y-77270D01*
X75244Y-77356D01*
X75215Y-77470D01*
X75187Y-77527D01*
X75129Y-77584D01*
X75044Y-77613D01*
X74901Y-77613D01*
X75501Y-77556D02*
X75529Y-77584D01*
X75501Y-77613D01*
X75472Y-77584D01*
X75501Y-77556D01*
X75501Y-77613D01*
X75758Y-77441D02*
X76044Y-77441D01*
X75701Y-77613D02*
X75901Y-77013D01*
X76101Y-77613D01*
X76301Y-77556D02*
X76329Y-77584D01*
X76301Y-77613D01*
X76272Y-77584D01*
X76301Y-77556D01*
X76301Y-77613D01*
G54D11*
X104586Y-76413D02*
X104386Y-76127D01*
X104243Y-76413D02*
X104243Y-75813D01*
X104471Y-75813D01*
X104529Y-75841D01*
X104557Y-75870D01*
X104586Y-75927D01*
X104586Y-76013D01*
X104557Y-76070D01*
X104529Y-76099D01*
X104471Y-76127D01*
X104243Y-76127D01*
X105071Y-76384D02*
X105014Y-76413D01*
X104900Y-76413D01*
X104843Y-76384D01*
X104814Y-76327D01*
X104814Y-76099D01*
X104843Y-76041D01*
X104900Y-76013D01*
X105014Y-76013D01*
X105071Y-76041D01*
X105100Y-76099D01*
X105100Y-76156D01*
X104814Y-76213D01*
X105300Y-76013D02*
X105443Y-76413D01*
X105585Y-76013D01*
X105814Y-76356D02*
X105842Y-76384D01*
X105814Y-76413D01*
X105785Y-76384D01*
X105814Y-76356D01*
X105814Y-76413D01*
X105814Y-76041D02*
X105842Y-76070D01*
X105814Y-76099D01*
X105785Y-76070D01*
X105814Y-76041D01*
X105814Y-76099D01*
G54D10*
X71014Y-76384D02*
X71100Y-76413D01*
X71243Y-76413D01*
X71300Y-76384D01*
X71329Y-76356D01*
X71357Y-76299D01*
X71357Y-76241D01*
X71329Y-76184D01*
X71300Y-76156D01*
X71243Y-76127D01*
X71129Y-76099D01*
X71071Y-76070D01*
X71043Y-76041D01*
X71014Y-75984D01*
X71014Y-75927D01*
X71043Y-75870D01*
X71071Y-75841D01*
X71129Y-75813D01*
X71271Y-75813D01*
X71357Y-75841D01*
X71614Y-76413D02*
X71614Y-76013D01*
X71614Y-75813D02*
X71585Y-75841D01*
X71614Y-75870D01*
X71642Y-75841D01*
X71614Y-75813D01*
X71614Y-75870D01*
X71843Y-76013D02*
X72157Y-76013D01*
X71843Y-76413D01*
X72157Y-76413D01*
X72614Y-76384D02*
X72557Y-76413D01*
X72443Y-76413D01*
X72386Y-76384D01*
X72357Y-76327D01*
X72357Y-76099D01*
X72386Y-76041D01*
X72443Y-76013D01*
X72557Y-76013D01*
X72614Y-76041D01*
X72643Y-76099D01*
X72643Y-76156D01*
X72357Y-76213D01*
X72900Y-76356D02*
X72928Y-76384D01*
X72900Y-76413D01*
X72871Y-76384D01*
X72900Y-76356D01*
X72900Y-76413D01*
X72900Y-76041D02*
X72928Y-76070D01*
X72900Y-76099D01*
X72871Y-76070D01*
X72900Y-76041D01*
X72900Y-76099D01*
X73614Y-76241D02*
X73900Y-76241D01*
X73557Y-76413D02*
X73757Y-75813D01*
X73957Y-76413D01*
X74414Y-76013D02*
X74414Y-76413D01*
X74271Y-75784D02*
X74128Y-76213D01*
X74500Y-76213D01*
X104243Y-77613D02*
X104243Y-77013D01*
X104786Y-77613D02*
X104786Y-77013D01*
X104786Y-77584D02*
X104729Y-77613D01*
X104615Y-77613D01*
X104557Y-77584D01*
X104529Y-77556D01*
X104500Y-77499D01*
X104500Y-77327D01*
X104529Y-77270D01*
X104557Y-77241D01*
X104615Y-77213D01*
X104729Y-77213D01*
X104786Y-77241D01*
X105072Y-77556D02*
X105100Y-77584D01*
X105072Y-77613D01*
X105043Y-77584D01*
X105072Y-77556D01*
X105072Y-77613D01*
X105072Y-77241D02*
X105100Y-77270D01*
X105072Y-77299D01*
X105043Y-77270D01*
X105072Y-77241D01*
X105072Y-77299D01*
X106129Y-77613D02*
X105786Y-77613D01*
X105958Y-77613D02*
X105958Y-77013D01*
X105901Y-77099D01*
X105843Y-77156D01*
X105786Y-77184D01*
X106814Y-76984D02*
X106300Y-77756D01*
X107329Y-77613D02*
X106986Y-77613D01*
X107158Y-77613D02*
X107158Y-77013D01*
X107101Y-77099D01*
X107043Y-77156D01*
X106986Y-77184D01*
G54D11*
X70957Y-74613D02*
X71300Y-74613D01*
X71129Y-75213D02*
X71129Y-74613D01*
X71500Y-75213D02*
X71500Y-74813D01*
X71500Y-74613D02*
X71471Y-74641D01*
X71500Y-74670D01*
X71528Y-74641D01*
X71500Y-74613D01*
X71500Y-74670D01*
X71700Y-74813D02*
X71929Y-74813D01*
X71786Y-74613D02*
X71786Y-75127D01*
X71814Y-75184D01*
X71872Y-75213D01*
X71929Y-75213D01*
X72215Y-75213D02*
X72157Y-75184D01*
X72129Y-75127D01*
X72129Y-74613D01*
X72671Y-75184D02*
X72614Y-75213D01*
X72500Y-75213D01*
X72443Y-75184D01*
X72414Y-75127D01*
X72414Y-74899D01*
X72443Y-74841D01*
X72500Y-74813D01*
X72614Y-74813D01*
X72671Y-74841D01*
X72700Y-74899D01*
X72700Y-74956D01*
X72414Y-75013D01*
X72957Y-75156D02*
X72985Y-75184D01*
X72957Y-75213D01*
X72928Y-75184D01*
X72957Y-75156D01*
X72957Y-75213D01*
X72957Y-74841D02*
X72985Y-74870D01*
X72957Y-74899D01*
X72928Y-74870D01*
X72957Y-74841D01*
X72957Y-74899D01*
G54D10*
X71243Y-72499D02*
X71043Y-72499D01*
X71043Y-72813D02*
X71043Y-72213D01*
X71329Y-72213D01*
X71557Y-72813D02*
X71557Y-72413D01*
X71557Y-72213D02*
X71528Y-72241D01*
X71557Y-72270D01*
X71585Y-72241D01*
X71557Y-72213D01*
X71557Y-72270D01*
X71929Y-72813D02*
X71871Y-72784D01*
X71843Y-72727D01*
X71843Y-72213D01*
X72385Y-72784D02*
X72328Y-72813D01*
X72214Y-72813D01*
X72157Y-72784D01*
X72128Y-72727D01*
X72128Y-72499D01*
X72157Y-72441D01*
X72214Y-72413D01*
X72328Y-72413D01*
X72385Y-72441D01*
X72414Y-72499D01*
X72414Y-72556D01*
X72128Y-72613D01*
X72671Y-72756D02*
X72699Y-72784D01*
X72671Y-72813D01*
X72642Y-72784D01*
X72671Y-72756D01*
X72671Y-72813D01*
X72671Y-72441D02*
X72699Y-72470D01*
X72671Y-72499D01*
X72642Y-72470D01*
X72671Y-72441D01*
X72671Y-72499D01*
X73414Y-72413D02*
X73414Y-73013D01*
X73414Y-72441D02*
X73471Y-72413D01*
X73585Y-72413D01*
X73642Y-72441D01*
X73671Y-72470D01*
X73700Y-72527D01*
X73700Y-72699D01*
X73671Y-72756D01*
X73642Y-72784D01*
X73585Y-72813D01*
X73471Y-72813D01*
X73414Y-72784D01*
X73957Y-72813D02*
X73957Y-72413D01*
X73957Y-72213D02*
X73928Y-72241D01*
X73957Y-72270D01*
X73985Y-72241D01*
X73957Y-72213D01*
X73957Y-72270D01*
X74243Y-72413D02*
X74243Y-72813D01*
X74243Y-72470D02*
X74271Y-72441D01*
X74329Y-72413D01*
X74414Y-72413D01*
X74471Y-72441D01*
X74500Y-72499D01*
X74500Y-72813D01*
X75043Y-72413D02*
X75043Y-72899D01*
X75014Y-72956D01*
X74986Y-72984D01*
X74929Y-73013D01*
X74843Y-73013D01*
X74786Y-72984D01*
X75043Y-72784D02*
X74986Y-72813D01*
X74872Y-72813D01*
X74814Y-72784D01*
X74786Y-72756D01*
X74757Y-72699D01*
X74757Y-72527D01*
X74786Y-72470D01*
X74814Y-72441D01*
X74872Y-72413D01*
X74986Y-72413D01*
X75043Y-72441D01*
X75586Y-72413D02*
X75586Y-72813D01*
X75329Y-72413D02*
X75329Y-72727D01*
X75357Y-72784D01*
X75415Y-72813D01*
X75500Y-72813D01*
X75557Y-72784D01*
X75586Y-72756D01*
X75872Y-72813D02*
X75872Y-72413D01*
X75872Y-72213D02*
X75843Y-72241D01*
X75872Y-72270D01*
X75900Y-72241D01*
X75872Y-72213D01*
X75872Y-72270D01*
X76415Y-72784D02*
X76358Y-72813D01*
X76244Y-72813D01*
X76186Y-72784D01*
X76158Y-72756D01*
X76129Y-72699D01*
X76129Y-72527D01*
X76158Y-72470D01*
X76186Y-72441D01*
X76244Y-72413D01*
X76358Y-72413D01*
X76415Y-72441D01*
X76929Y-72813D02*
X76929Y-72499D01*
X76900Y-72441D01*
X76843Y-72413D01*
X76729Y-72413D01*
X76672Y-72441D01*
X76929Y-72784D02*
X76872Y-72813D01*
X76729Y-72813D01*
X76672Y-72784D01*
X76643Y-72727D01*
X76643Y-72670D01*
X76672Y-72613D01*
X76729Y-72584D01*
X76872Y-72584D01*
X76929Y-72556D01*
X77215Y-72813D02*
X77215Y-72413D01*
X77215Y-72527D02*
X77243Y-72470D01*
X77272Y-72441D01*
X77329Y-72413D01*
X77386Y-72413D01*
X77672Y-72813D02*
X77614Y-72784D01*
X77586Y-72756D01*
X77557Y-72699D01*
X77557Y-72527D01*
X77586Y-72470D01*
X77614Y-72441D01*
X77672Y-72413D01*
X77757Y-72413D01*
X77814Y-72441D01*
X77843Y-72470D01*
X77872Y-72527D01*
X77872Y-72699D01*
X77843Y-72756D01*
X77814Y-72784D01*
X77757Y-72813D01*
X77672Y-72813D01*
X78129Y-72756D02*
X78157Y-72784D01*
X78129Y-72813D01*
X78100Y-72784D01*
X78129Y-72756D01*
X78129Y-72813D01*
X78415Y-72813D02*
X78415Y-72213D01*
X78415Y-72441D02*
X78472Y-72413D01*
X78586Y-72413D01*
X78643Y-72441D01*
X78672Y-72470D01*
X78701Y-72527D01*
X78701Y-72699D01*
X78672Y-72756D01*
X78643Y-72784D01*
X78586Y-72813D01*
X78472Y-72813D01*
X78415Y-72784D01*
X78958Y-72813D02*
X78958Y-72413D01*
X78958Y-72527D02*
X78986Y-72470D01*
X79015Y-72441D01*
X79072Y-72413D01*
X79129Y-72413D01*
X79586Y-72813D02*
X79586Y-72213D01*
X79586Y-72784D02*
X79529Y-72813D01*
X79415Y-72813D01*
X79357Y-72784D01*
X79329Y-72756D01*
X79300Y-72699D01*
X79300Y-72527D01*
X79329Y-72470D01*
X79357Y-72441D01*
X79415Y-72413D01*
X79529Y-72413D01*
X79586Y-72441D01*
X71014Y-73984D02*
X71100Y-74013D01*
X71243Y-74013D01*
X71300Y-73984D01*
X71329Y-73956D01*
X71357Y-73899D01*
X71357Y-73841D01*
X71329Y-73784D01*
X71300Y-73756D01*
X71243Y-73727D01*
X71129Y-73699D01*
X71071Y-73670D01*
X71043Y-73641D01*
X71014Y-73584D01*
X71014Y-73527D01*
X71043Y-73470D01*
X71071Y-73441D01*
X71129Y-73413D01*
X71271Y-73413D01*
X71357Y-73441D01*
X71614Y-74013D02*
X71614Y-73413D01*
X71871Y-74013D02*
X71871Y-73699D01*
X71842Y-73641D01*
X71785Y-73613D01*
X71700Y-73613D01*
X71642Y-73641D01*
X71614Y-73670D01*
X72385Y-73984D02*
X72328Y-74013D01*
X72214Y-74013D01*
X72157Y-73984D01*
X72128Y-73927D01*
X72128Y-73699D01*
X72157Y-73641D01*
X72214Y-73613D01*
X72328Y-73613D01*
X72385Y-73641D01*
X72414Y-73699D01*
X72414Y-73756D01*
X72128Y-73813D01*
X72899Y-73984D02*
X72842Y-74013D01*
X72728Y-74013D01*
X72671Y-73984D01*
X72642Y-73927D01*
X72642Y-73699D01*
X72671Y-73641D01*
X72728Y-73613D01*
X72842Y-73613D01*
X72899Y-73641D01*
X72928Y-73699D01*
X72928Y-73756D01*
X72642Y-73813D01*
X73099Y-73613D02*
X73328Y-73613D01*
X73185Y-73413D02*
X73185Y-73927D01*
X73213Y-73984D01*
X73271Y-74013D01*
X73328Y-74013D01*
X73528Y-73956D02*
X73556Y-73984D01*
X73528Y-74013D01*
X73499Y-73984D01*
X73528Y-73956D01*
X73528Y-74013D01*
X73528Y-73641D02*
X73556Y-73670D01*
X73528Y-73699D01*
X73499Y-73670D01*
X73528Y-73641D01*
X73528Y-73699D01*
X74585Y-74013D02*
X74242Y-74013D01*
X74414Y-74013D02*
X74414Y-73413D01*
X74357Y-73499D01*
X74299Y-73556D01*
X74242Y-73584D01*
X75270Y-73384D02*
X74756Y-74156D01*
X75785Y-74013D02*
X75442Y-74013D01*
X75614Y-74013D02*
X75614Y-73413D01*
X75557Y-73499D01*
X75499Y-73556D01*
X75442Y-73584D01*
X70300Y-71970D02*
X70300Y-77970D01*
X70300Y-71970D02*
X112300Y-71970D01*
X70300Y-71970D02*
X112300Y-71970D01*
X70300Y-74370D02*
X112300Y-74370D01*
X103500Y-75570D02*
X103500Y-77970D01*
X70300Y-76770D02*
X112300Y-76770D01*
X70300Y-75570D02*
X112300Y-75570D01*
X76900Y-75570D02*
X76900Y-76770D01*
X57517Y-26568D02*
X57502Y-26715D01*
X57459Y-26856D01*
X57390Y-26986D01*
X57297Y-27101D01*
X57183Y-27195D01*
X57053Y-27265D01*
X56912Y-27309D01*
X56765Y-27324D01*
X56619Y-27311D01*
X56477Y-27269D01*
X56346Y-27201D01*
X56231Y-27108D01*
X56136Y-26995D01*
X56065Y-26866D01*
X56020Y-26725D01*
X56004Y-26578D01*
X56016Y-26432D01*
X56057Y-26290D01*
X56124Y-26158D01*
X56216Y-26043D01*
X56328Y-25947D01*
X56457Y-25875D01*
X56598Y-25829D01*
X56745Y-25812D01*
X56891Y-25823D01*
X57033Y-25863D01*
X57165Y-25929D01*
X57282Y-26020D01*
X57378Y-26132D01*
X57451Y-26261D01*
X57498Y-26401D01*
X57516Y-26547D01*
X57517Y-26568D01*
X52092Y-12306D02*
X52092Y-15746D01*
X55532Y-15746D01*
X55532Y-12306D01*
X52092Y-12306D01*
M02*
