G04 (created by PCBNEW (2013-june-11)-stable) date mar 07 oct 2014 09:39:09 ART*
%MOIN*%
G04 Gerber Fmt 3.4, Leading zero omitted, Abs format*
%FSLAX34Y34*%
G01*
G70*
G90*
G04 APERTURE LIST*
%ADD10C,0.00590551*%
%ADD11C,0.012*%
%ADD12C,0.06*%
%ADD13C,0.1575*%
%ADD14C,0.055*%
%ADD15R,0.055X0.055*%
%ADD16R,0.06X0.06*%
%ADD17R,0.35X0.35*%
%ADD18C,0.07*%
%ADD19R,0.07X0.07*%
%ADD20C,0.066*%
%ADD21R,0.062X0.09*%
%ADD22O,0.062X0.09*%
%ADD23O,0.0787X0.0984*%
%ADD24R,0.1X0.1*%
%ADD25C,0.1*%
%ADD26C,0.16*%
%ADD27C,0.0551*%
%ADD28C,0.0197*%
%ADD29C,0.01*%
G04 APERTURE END LIST*
G54D10*
X4000Y-4000D02*
X112930Y-4000D01*
X112930Y-78680D01*
X4000Y-78680D01*
X4000Y-4000D01*
X4700Y-4700D02*
X112230Y-4700D01*
X112230Y-77980D01*
X4700Y-77980D01*
X4700Y-4700D01*
X25780Y-4000D02*
X25780Y-4700D01*
X15032Y-4552D02*
X14747Y-4552D01*
X14890Y-4552D02*
X14890Y-4052D01*
X14842Y-4123D01*
X14794Y-4171D01*
X14747Y-4195D01*
X25780Y-78680D02*
X25780Y-77980D01*
X15032Y-78532D02*
X14747Y-78532D01*
X14890Y-78532D02*
X14890Y-78032D01*
X14842Y-78103D01*
X14794Y-78151D01*
X14747Y-78175D01*
X47560Y-4000D02*
X47560Y-4700D01*
X36527Y-4100D02*
X36550Y-4076D01*
X36598Y-4052D01*
X36717Y-4052D01*
X36765Y-4076D01*
X36789Y-4100D01*
X36812Y-4147D01*
X36812Y-4195D01*
X36789Y-4266D01*
X36503Y-4552D01*
X36812Y-4552D01*
X47560Y-78680D02*
X47560Y-77980D01*
X36527Y-78080D02*
X36550Y-78056D01*
X36598Y-78032D01*
X36717Y-78032D01*
X36765Y-78056D01*
X36789Y-78080D01*
X36812Y-78127D01*
X36812Y-78175D01*
X36789Y-78246D01*
X36503Y-78532D01*
X36812Y-78532D01*
X69340Y-4000D02*
X69340Y-4700D01*
X58283Y-4052D02*
X58592Y-4052D01*
X58426Y-4242D01*
X58497Y-4242D01*
X58545Y-4266D01*
X58569Y-4290D01*
X58592Y-4338D01*
X58592Y-4457D01*
X58569Y-4504D01*
X58545Y-4528D01*
X58497Y-4552D01*
X58354Y-4552D01*
X58307Y-4528D01*
X58283Y-4504D01*
X69340Y-78680D02*
X69340Y-77980D01*
X58283Y-78032D02*
X58592Y-78032D01*
X58426Y-78222D01*
X58497Y-78222D01*
X58545Y-78246D01*
X58569Y-78270D01*
X58592Y-78318D01*
X58592Y-78437D01*
X58569Y-78484D01*
X58545Y-78508D01*
X58497Y-78532D01*
X58354Y-78532D01*
X58307Y-78508D01*
X58283Y-78484D01*
X91120Y-4000D02*
X91120Y-4700D01*
X80325Y-4219D02*
X80325Y-4552D01*
X80206Y-4028D02*
X80087Y-4385D01*
X80396Y-4385D01*
X91120Y-78680D02*
X91120Y-77980D01*
X80325Y-78199D02*
X80325Y-78532D01*
X80206Y-78008D02*
X80087Y-78365D01*
X80396Y-78365D01*
X102129Y-4052D02*
X101890Y-4052D01*
X101867Y-4290D01*
X101890Y-4266D01*
X101938Y-4242D01*
X102057Y-4242D01*
X102105Y-4266D01*
X102129Y-4290D01*
X102152Y-4338D01*
X102152Y-4457D01*
X102129Y-4504D01*
X102105Y-4528D01*
X102057Y-4552D01*
X101938Y-4552D01*
X101890Y-4528D01*
X101867Y-4504D01*
X102129Y-78032D02*
X101890Y-78032D01*
X101867Y-78270D01*
X101890Y-78246D01*
X101938Y-78222D01*
X102057Y-78222D01*
X102105Y-78246D01*
X102129Y-78270D01*
X102152Y-78318D01*
X102152Y-78437D01*
X102129Y-78484D01*
X102105Y-78508D01*
X102057Y-78532D01*
X101938Y-78532D01*
X101890Y-78508D01*
X101867Y-78484D01*
X4000Y-28890D02*
X4700Y-28890D01*
X4230Y-16509D02*
X4469Y-16509D01*
X4183Y-16652D02*
X4350Y-16152D01*
X4516Y-16652D01*
X112930Y-28890D02*
X112230Y-28890D01*
X112460Y-16509D02*
X112699Y-16509D01*
X112413Y-16652D02*
X112580Y-16152D01*
X112746Y-16652D01*
X4000Y-53780D02*
X4700Y-53780D01*
X4385Y-41280D02*
X4457Y-41304D01*
X4480Y-41328D01*
X4504Y-41375D01*
X4504Y-41447D01*
X4480Y-41494D01*
X4457Y-41518D01*
X4409Y-41542D01*
X4219Y-41542D01*
X4219Y-41042D01*
X4385Y-41042D01*
X4433Y-41066D01*
X4457Y-41090D01*
X4480Y-41137D01*
X4480Y-41185D01*
X4457Y-41232D01*
X4433Y-41256D01*
X4385Y-41280D01*
X4219Y-41280D01*
X112930Y-53780D02*
X112230Y-53780D01*
X112615Y-41280D02*
X112687Y-41304D01*
X112710Y-41328D01*
X112734Y-41375D01*
X112734Y-41447D01*
X112710Y-41494D01*
X112687Y-41518D01*
X112639Y-41542D01*
X112449Y-41542D01*
X112449Y-41042D01*
X112615Y-41042D01*
X112663Y-41066D01*
X112687Y-41090D01*
X112710Y-41137D01*
X112710Y-41185D01*
X112687Y-41232D01*
X112663Y-41256D01*
X112615Y-41280D01*
X112449Y-41280D01*
X4504Y-66384D02*
X4480Y-66408D01*
X4409Y-66432D01*
X4361Y-66432D01*
X4290Y-66408D01*
X4242Y-66360D01*
X4219Y-66313D01*
X4195Y-66218D01*
X4195Y-66146D01*
X4219Y-66051D01*
X4242Y-66003D01*
X4290Y-65956D01*
X4361Y-65932D01*
X4409Y-65932D01*
X4480Y-65956D01*
X4504Y-65980D01*
X112734Y-66384D02*
X112710Y-66408D01*
X112639Y-66432D01*
X112591Y-66432D01*
X112520Y-66408D01*
X112472Y-66360D01*
X112449Y-66313D01*
X112425Y-66218D01*
X112425Y-66146D01*
X112449Y-66051D01*
X112472Y-66003D01*
X112520Y-65956D01*
X112591Y-65932D01*
X112639Y-65932D01*
X112710Y-65956D01*
X112734Y-65980D01*
X79380Y-76422D02*
X79455Y-75822D01*
X79597Y-75822D01*
X79680Y-75851D01*
X79730Y-75908D01*
X79751Y-75965D01*
X79765Y-76080D01*
X79755Y-76165D01*
X79712Y-76280D01*
X79676Y-76337D01*
X79612Y-76394D01*
X79522Y-76422D01*
X79380Y-76422D01*
X80237Y-76422D02*
X80276Y-76108D01*
X80255Y-76051D01*
X80201Y-76022D01*
X80087Y-76022D01*
X80026Y-76051D01*
X80240Y-76394D02*
X80180Y-76422D01*
X80037Y-76422D01*
X79983Y-76394D01*
X79962Y-76337D01*
X79969Y-76280D01*
X80005Y-76222D01*
X80065Y-76194D01*
X80208Y-76194D01*
X80269Y-76165D01*
X80487Y-76022D02*
X80715Y-76022D01*
X80597Y-75822D02*
X80533Y-76337D01*
X80555Y-76394D01*
X80608Y-76422D01*
X80665Y-76422D01*
X81097Y-76394D02*
X81037Y-76422D01*
X80922Y-76422D01*
X80869Y-76394D01*
X80847Y-76337D01*
X80876Y-76108D01*
X80912Y-76051D01*
X80972Y-76022D01*
X81087Y-76022D01*
X81140Y-76051D01*
X81162Y-76108D01*
X81155Y-76165D01*
X80862Y-76222D01*
X81387Y-76365D02*
X81412Y-76394D01*
X81380Y-76422D01*
X81355Y-76394D01*
X81387Y-76365D01*
X81380Y-76422D01*
X81426Y-76051D02*
X81451Y-76080D01*
X81419Y-76108D01*
X81394Y-76080D01*
X81426Y-76051D01*
X81419Y-76108D01*
X82140Y-75822D02*
X82540Y-75822D01*
X82208Y-76422D01*
X83237Y-76422D02*
X83183Y-76394D01*
X83158Y-76365D01*
X83137Y-76308D01*
X83158Y-76137D01*
X83194Y-76080D01*
X83226Y-76051D01*
X83287Y-76022D01*
X83372Y-76022D01*
X83426Y-76051D01*
X83451Y-76080D01*
X83472Y-76137D01*
X83451Y-76308D01*
X83415Y-76365D01*
X83383Y-76394D01*
X83322Y-76422D01*
X83237Y-76422D01*
X83955Y-76394D02*
X83894Y-76422D01*
X83780Y-76422D01*
X83726Y-76394D01*
X83701Y-76365D01*
X83680Y-76308D01*
X83701Y-76137D01*
X83737Y-76080D01*
X83769Y-76051D01*
X83830Y-76022D01*
X83944Y-76022D01*
X83997Y-76051D01*
X84172Y-76022D02*
X84401Y-76022D01*
X84283Y-75822D02*
X84219Y-76337D01*
X84240Y-76394D01*
X84294Y-76422D01*
X84351Y-76422D01*
X85047Y-75880D02*
X85080Y-75851D01*
X85140Y-75822D01*
X85283Y-75822D01*
X85337Y-75851D01*
X85362Y-75880D01*
X85383Y-75937D01*
X85376Y-75994D01*
X85337Y-76080D01*
X84951Y-76422D01*
X85322Y-76422D01*
X85769Y-75822D02*
X85826Y-75822D01*
X85880Y-75851D01*
X85905Y-75880D01*
X85926Y-75937D01*
X85940Y-76051D01*
X85922Y-76194D01*
X85880Y-76308D01*
X85844Y-76365D01*
X85812Y-76394D01*
X85751Y-76422D01*
X85694Y-76422D01*
X85640Y-76394D01*
X85615Y-76365D01*
X85594Y-76308D01*
X85580Y-76194D01*
X85597Y-76051D01*
X85640Y-75937D01*
X85676Y-75880D01*
X85708Y-75851D01*
X85769Y-75822D01*
X86465Y-76422D02*
X86122Y-76422D01*
X86294Y-76422D02*
X86369Y-75822D01*
X86301Y-75908D01*
X86237Y-75965D01*
X86176Y-75994D01*
X87030Y-76022D02*
X86980Y-76422D01*
X86915Y-75794D02*
X86719Y-76222D01*
X87090Y-76222D01*
X70972Y-77622D02*
X70972Y-77022D01*
X71315Y-77622D02*
X71058Y-77280D01*
X71315Y-77022D02*
X70972Y-77365D01*
X71572Y-77622D02*
X71572Y-77222D01*
X71572Y-77022D02*
X71544Y-77051D01*
X71572Y-77080D01*
X71601Y-77051D01*
X71572Y-77022D01*
X71572Y-77080D01*
X72201Y-77565D02*
X72172Y-77594D01*
X72087Y-77622D01*
X72030Y-77622D01*
X71944Y-77594D01*
X71887Y-77537D01*
X71858Y-77480D01*
X71830Y-77365D01*
X71830Y-77280D01*
X71858Y-77165D01*
X71887Y-77108D01*
X71944Y-77051D01*
X72030Y-77022D01*
X72087Y-77022D01*
X72172Y-77051D01*
X72201Y-77080D01*
X72715Y-77622D02*
X72715Y-77308D01*
X72687Y-77251D01*
X72630Y-77222D01*
X72515Y-77222D01*
X72458Y-77251D01*
X72715Y-77594D02*
X72658Y-77622D01*
X72515Y-77622D01*
X72458Y-77594D01*
X72430Y-77537D01*
X72430Y-77480D01*
X72458Y-77422D01*
X72515Y-77394D01*
X72658Y-77394D01*
X72715Y-77365D01*
X73258Y-77622D02*
X73258Y-77022D01*
X73258Y-77594D02*
X73201Y-77622D01*
X73087Y-77622D01*
X73030Y-77594D01*
X73001Y-77565D01*
X72972Y-77508D01*
X72972Y-77337D01*
X73001Y-77280D01*
X73030Y-77251D01*
X73087Y-77222D01*
X73201Y-77222D01*
X73258Y-77251D01*
X74001Y-77308D02*
X74201Y-77308D01*
X74287Y-77622D02*
X74001Y-77622D01*
X74001Y-77022D01*
X74287Y-77022D01*
X74544Y-77565D02*
X74572Y-77594D01*
X74544Y-77622D01*
X74515Y-77594D01*
X74544Y-77565D01*
X74544Y-77622D01*
X74829Y-77622D02*
X74829Y-77022D01*
X74972Y-77022D01*
X75058Y-77051D01*
X75115Y-77108D01*
X75144Y-77165D01*
X75172Y-77280D01*
X75172Y-77365D01*
X75144Y-77480D01*
X75115Y-77537D01*
X75058Y-77594D01*
X74972Y-77622D01*
X74829Y-77622D01*
X75429Y-77565D02*
X75458Y-77594D01*
X75429Y-77622D01*
X75401Y-77594D01*
X75429Y-77565D01*
X75429Y-77622D01*
X75687Y-77451D02*
X75972Y-77451D01*
X75629Y-77622D02*
X75829Y-77022D01*
X76029Y-77622D01*
X76229Y-77565D02*
X76258Y-77594D01*
X76229Y-77622D01*
X76201Y-77594D01*
X76229Y-77565D01*
X76229Y-77622D01*
X104522Y-76422D02*
X104358Y-76137D01*
X104180Y-76422D02*
X104255Y-75822D01*
X104483Y-75822D01*
X104537Y-75851D01*
X104562Y-75880D01*
X104583Y-75937D01*
X104572Y-76022D01*
X104537Y-76080D01*
X104505Y-76108D01*
X104444Y-76137D01*
X104215Y-76137D01*
X105012Y-76394D02*
X104951Y-76422D01*
X104837Y-76422D01*
X104783Y-76394D01*
X104762Y-76337D01*
X104790Y-76108D01*
X104826Y-76051D01*
X104887Y-76022D01*
X105001Y-76022D01*
X105055Y-76051D01*
X105076Y-76108D01*
X105069Y-76165D01*
X104776Y-76222D01*
X105287Y-76022D02*
X105380Y-76422D01*
X105572Y-76022D01*
X105758Y-76365D02*
X105783Y-76394D01*
X105751Y-76422D01*
X105726Y-76394D01*
X105758Y-76365D01*
X105751Y-76422D01*
X105797Y-76051D02*
X105822Y-76080D01*
X105790Y-76108D01*
X105765Y-76080D01*
X105797Y-76051D01*
X105790Y-76108D01*
X70944Y-76394D02*
X71030Y-76422D01*
X71172Y-76422D01*
X71230Y-76394D01*
X71258Y-76365D01*
X71287Y-76308D01*
X71287Y-76251D01*
X71258Y-76194D01*
X71230Y-76165D01*
X71172Y-76137D01*
X71058Y-76108D01*
X71001Y-76080D01*
X70972Y-76051D01*
X70944Y-75994D01*
X70944Y-75937D01*
X70972Y-75880D01*
X71001Y-75851D01*
X71058Y-75822D01*
X71201Y-75822D01*
X71287Y-75851D01*
X71544Y-76422D02*
X71544Y-76022D01*
X71544Y-75822D02*
X71515Y-75851D01*
X71544Y-75880D01*
X71572Y-75851D01*
X71544Y-75822D01*
X71544Y-75880D01*
X71772Y-76022D02*
X72087Y-76022D01*
X71772Y-76422D01*
X72087Y-76422D01*
X72544Y-76394D02*
X72487Y-76422D01*
X72372Y-76422D01*
X72315Y-76394D01*
X72287Y-76337D01*
X72287Y-76108D01*
X72315Y-76051D01*
X72372Y-76022D01*
X72487Y-76022D01*
X72544Y-76051D01*
X72572Y-76108D01*
X72572Y-76165D01*
X72287Y-76222D01*
X72830Y-76365D02*
X72858Y-76394D01*
X72830Y-76422D01*
X72801Y-76394D01*
X72830Y-76365D01*
X72830Y-76422D01*
X72830Y-76051D02*
X72858Y-76080D01*
X72830Y-76108D01*
X72801Y-76080D01*
X72830Y-76051D01*
X72830Y-76108D01*
X73544Y-76251D02*
X73830Y-76251D01*
X73487Y-76422D02*
X73687Y-75822D01*
X73887Y-76422D01*
X74344Y-76022D02*
X74344Y-76422D01*
X74201Y-75794D02*
X74058Y-76222D01*
X74430Y-76222D01*
X104172Y-77622D02*
X104172Y-77022D01*
X104715Y-77622D02*
X104715Y-77022D01*
X104715Y-77594D02*
X104658Y-77622D01*
X104544Y-77622D01*
X104487Y-77594D01*
X104458Y-77565D01*
X104430Y-77508D01*
X104430Y-77337D01*
X104458Y-77280D01*
X104487Y-77251D01*
X104544Y-77222D01*
X104658Y-77222D01*
X104715Y-77251D01*
X105001Y-77565D02*
X105030Y-77594D01*
X105001Y-77622D01*
X104972Y-77594D01*
X105001Y-77565D01*
X105001Y-77622D01*
X105001Y-77251D02*
X105030Y-77280D01*
X105001Y-77308D01*
X104972Y-77280D01*
X105001Y-77251D01*
X105001Y-77308D01*
X106058Y-77622D02*
X105715Y-77622D01*
X105887Y-77622D02*
X105887Y-77022D01*
X105829Y-77108D01*
X105772Y-77165D01*
X105715Y-77194D01*
X106744Y-76994D02*
X106230Y-77765D01*
X107258Y-77622D02*
X106915Y-77622D01*
X107087Y-77622D02*
X107087Y-77022D01*
X107029Y-77108D01*
X106972Y-77165D01*
X106915Y-77194D01*
X70969Y-74622D02*
X71312Y-74622D01*
X71065Y-75222D02*
X71140Y-74622D01*
X71437Y-75222D02*
X71487Y-74822D01*
X71512Y-74622D02*
X71480Y-74651D01*
X71505Y-74680D01*
X71537Y-74651D01*
X71512Y-74622D01*
X71505Y-74680D01*
X71687Y-74822D02*
X71915Y-74822D01*
X71797Y-74622D02*
X71733Y-75137D01*
X71755Y-75194D01*
X71808Y-75222D01*
X71865Y-75222D01*
X72151Y-75222D02*
X72097Y-75194D01*
X72076Y-75137D01*
X72140Y-74622D01*
X72612Y-75194D02*
X72551Y-75222D01*
X72437Y-75222D01*
X72383Y-75194D01*
X72362Y-75137D01*
X72390Y-74908D01*
X72426Y-74851D01*
X72487Y-74822D01*
X72601Y-74822D01*
X72655Y-74851D01*
X72676Y-74908D01*
X72669Y-74965D01*
X72376Y-75022D01*
X72901Y-75165D02*
X72926Y-75194D01*
X72894Y-75222D01*
X72869Y-75194D01*
X72901Y-75165D01*
X72894Y-75222D01*
X72940Y-74851D02*
X72965Y-74880D01*
X72933Y-74908D01*
X72908Y-74880D01*
X72940Y-74851D01*
X72933Y-74908D01*
X71172Y-72508D02*
X70972Y-72508D01*
X70972Y-72822D02*
X70972Y-72222D01*
X71258Y-72222D01*
X71487Y-72822D02*
X71487Y-72422D01*
X71487Y-72222D02*
X71458Y-72251D01*
X71487Y-72280D01*
X71515Y-72251D01*
X71487Y-72222D01*
X71487Y-72280D01*
X71858Y-72822D02*
X71801Y-72794D01*
X71772Y-72737D01*
X71772Y-72222D01*
X72315Y-72794D02*
X72258Y-72822D01*
X72144Y-72822D01*
X72087Y-72794D01*
X72058Y-72737D01*
X72058Y-72508D01*
X72087Y-72451D01*
X72144Y-72422D01*
X72258Y-72422D01*
X72315Y-72451D01*
X72344Y-72508D01*
X72344Y-72565D01*
X72058Y-72622D01*
X72601Y-72765D02*
X72630Y-72794D01*
X72601Y-72822D01*
X72572Y-72794D01*
X72601Y-72765D01*
X72601Y-72822D01*
X72601Y-72451D02*
X72630Y-72480D01*
X72601Y-72508D01*
X72572Y-72480D01*
X72601Y-72451D01*
X72601Y-72508D01*
X73344Y-72422D02*
X73344Y-73022D01*
X73344Y-72451D02*
X73401Y-72422D01*
X73515Y-72422D01*
X73572Y-72451D01*
X73601Y-72480D01*
X73630Y-72537D01*
X73630Y-72708D01*
X73601Y-72765D01*
X73572Y-72794D01*
X73515Y-72822D01*
X73401Y-72822D01*
X73344Y-72794D01*
X73887Y-72822D02*
X73887Y-72422D01*
X73887Y-72222D02*
X73858Y-72251D01*
X73887Y-72280D01*
X73915Y-72251D01*
X73887Y-72222D01*
X73887Y-72280D01*
X74172Y-72422D02*
X74172Y-72822D01*
X74172Y-72480D02*
X74201Y-72451D01*
X74258Y-72422D01*
X74344Y-72422D01*
X74401Y-72451D01*
X74430Y-72508D01*
X74430Y-72822D01*
X74972Y-72422D02*
X74972Y-72908D01*
X74944Y-72965D01*
X74915Y-72994D01*
X74858Y-73022D01*
X74772Y-73022D01*
X74715Y-72994D01*
X74972Y-72794D02*
X74915Y-72822D01*
X74801Y-72822D01*
X74744Y-72794D01*
X74715Y-72765D01*
X74687Y-72708D01*
X74687Y-72537D01*
X74715Y-72480D01*
X74744Y-72451D01*
X74801Y-72422D01*
X74915Y-72422D01*
X74972Y-72451D01*
X75515Y-72422D02*
X75515Y-72822D01*
X75258Y-72422D02*
X75258Y-72737D01*
X75287Y-72794D01*
X75344Y-72822D01*
X75430Y-72822D01*
X75487Y-72794D01*
X75515Y-72765D01*
X75801Y-72822D02*
X75801Y-72422D01*
X75801Y-72222D02*
X75772Y-72251D01*
X75801Y-72280D01*
X75830Y-72251D01*
X75801Y-72222D01*
X75801Y-72280D01*
X76344Y-72794D02*
X76287Y-72822D01*
X76172Y-72822D01*
X76115Y-72794D01*
X76087Y-72765D01*
X76058Y-72708D01*
X76058Y-72537D01*
X76087Y-72480D01*
X76115Y-72451D01*
X76172Y-72422D01*
X76287Y-72422D01*
X76344Y-72451D01*
X76858Y-72822D02*
X76858Y-72508D01*
X76830Y-72451D01*
X76772Y-72422D01*
X76658Y-72422D01*
X76601Y-72451D01*
X76858Y-72794D02*
X76801Y-72822D01*
X76658Y-72822D01*
X76601Y-72794D01*
X76572Y-72737D01*
X76572Y-72680D01*
X76601Y-72622D01*
X76658Y-72594D01*
X76801Y-72594D01*
X76858Y-72565D01*
X77144Y-72822D02*
X77144Y-72422D01*
X77144Y-72537D02*
X77172Y-72480D01*
X77201Y-72451D01*
X77258Y-72422D01*
X77315Y-72422D01*
X77601Y-72822D02*
X77544Y-72794D01*
X77515Y-72765D01*
X77487Y-72708D01*
X77487Y-72537D01*
X77515Y-72480D01*
X77544Y-72451D01*
X77601Y-72422D01*
X77687Y-72422D01*
X77744Y-72451D01*
X77772Y-72480D01*
X77801Y-72537D01*
X77801Y-72708D01*
X77772Y-72765D01*
X77744Y-72794D01*
X77687Y-72822D01*
X77601Y-72822D01*
X78058Y-72765D02*
X78087Y-72794D01*
X78058Y-72822D01*
X78030Y-72794D01*
X78058Y-72765D01*
X78058Y-72822D01*
X78344Y-72822D02*
X78344Y-72222D01*
X78401Y-72594D02*
X78572Y-72822D01*
X78572Y-72422D02*
X78344Y-72651D01*
X78829Y-72822D02*
X78829Y-72422D01*
X78829Y-72222D02*
X78801Y-72251D01*
X78829Y-72280D01*
X78858Y-72251D01*
X78829Y-72222D01*
X78829Y-72280D01*
X79372Y-72794D02*
X79315Y-72822D01*
X79201Y-72822D01*
X79144Y-72794D01*
X79115Y-72765D01*
X79087Y-72708D01*
X79087Y-72537D01*
X79115Y-72480D01*
X79144Y-72451D01*
X79201Y-72422D01*
X79315Y-72422D01*
X79372Y-72451D01*
X79887Y-72822D02*
X79887Y-72508D01*
X79858Y-72451D01*
X79801Y-72422D01*
X79687Y-72422D01*
X79629Y-72451D01*
X79887Y-72794D02*
X79829Y-72822D01*
X79687Y-72822D01*
X79629Y-72794D01*
X79601Y-72737D01*
X79601Y-72680D01*
X79629Y-72622D01*
X79687Y-72594D01*
X79829Y-72594D01*
X79887Y-72565D01*
X80429Y-72822D02*
X80429Y-72222D01*
X80429Y-72794D02*
X80372Y-72822D01*
X80258Y-72822D01*
X80201Y-72794D01*
X80172Y-72765D01*
X80144Y-72708D01*
X80144Y-72537D01*
X80172Y-72480D01*
X80201Y-72451D01*
X80258Y-72422D01*
X80372Y-72422D01*
X80429Y-72451D01*
X80572Y-72880D02*
X81029Y-72880D01*
X81172Y-72422D02*
X81172Y-73022D01*
X81172Y-72451D02*
X81229Y-72422D01*
X81344Y-72422D01*
X81401Y-72451D01*
X81429Y-72480D01*
X81458Y-72537D01*
X81458Y-72708D01*
X81429Y-72765D01*
X81401Y-72794D01*
X81344Y-72822D01*
X81229Y-72822D01*
X81172Y-72794D01*
X81972Y-72794D02*
X81915Y-72822D01*
X81801Y-72822D01*
X81744Y-72794D01*
X81715Y-72765D01*
X81687Y-72708D01*
X81687Y-72537D01*
X81715Y-72480D01*
X81744Y-72451D01*
X81801Y-72422D01*
X81915Y-72422D01*
X81972Y-72451D01*
X82229Y-72822D02*
X82229Y-72222D01*
X82229Y-72451D02*
X82287Y-72422D01*
X82401Y-72422D01*
X82458Y-72451D01*
X82487Y-72480D01*
X82515Y-72537D01*
X82515Y-72708D01*
X82487Y-72765D01*
X82458Y-72794D01*
X82401Y-72822D01*
X82287Y-72822D01*
X82229Y-72794D01*
X70944Y-73994D02*
X71030Y-74022D01*
X71172Y-74022D01*
X71230Y-73994D01*
X71258Y-73965D01*
X71287Y-73908D01*
X71287Y-73851D01*
X71258Y-73794D01*
X71230Y-73765D01*
X71172Y-73737D01*
X71058Y-73708D01*
X71001Y-73680D01*
X70972Y-73651D01*
X70944Y-73594D01*
X70944Y-73537D01*
X70972Y-73480D01*
X71001Y-73451D01*
X71058Y-73422D01*
X71201Y-73422D01*
X71287Y-73451D01*
X71544Y-74022D02*
X71544Y-73422D01*
X71801Y-74022D02*
X71801Y-73708D01*
X71772Y-73651D01*
X71715Y-73622D01*
X71630Y-73622D01*
X71572Y-73651D01*
X71544Y-73680D01*
X72315Y-73994D02*
X72258Y-74022D01*
X72144Y-74022D01*
X72087Y-73994D01*
X72058Y-73937D01*
X72058Y-73708D01*
X72087Y-73651D01*
X72144Y-73622D01*
X72258Y-73622D01*
X72315Y-73651D01*
X72344Y-73708D01*
X72344Y-73765D01*
X72058Y-73822D01*
X72830Y-73994D02*
X72772Y-74022D01*
X72658Y-74022D01*
X72601Y-73994D01*
X72572Y-73937D01*
X72572Y-73708D01*
X72601Y-73651D01*
X72658Y-73622D01*
X72772Y-73622D01*
X72830Y-73651D01*
X72858Y-73708D01*
X72858Y-73765D01*
X72572Y-73822D01*
X73030Y-73622D02*
X73258Y-73622D01*
X73115Y-73422D02*
X73115Y-73937D01*
X73144Y-73994D01*
X73201Y-74022D01*
X73258Y-74022D01*
X73458Y-73965D02*
X73487Y-73994D01*
X73458Y-74022D01*
X73430Y-73994D01*
X73458Y-73965D01*
X73458Y-74022D01*
X73458Y-73651D02*
X73487Y-73680D01*
X73458Y-73708D01*
X73430Y-73680D01*
X73458Y-73651D01*
X73458Y-73708D01*
X70230Y-71980D02*
X70230Y-77980D01*
X70230Y-71980D02*
X112230Y-71980D01*
X70230Y-71980D02*
X112230Y-71980D01*
X70230Y-74380D02*
X112230Y-74380D01*
X103430Y-75580D02*
X103430Y-77980D01*
X70230Y-76780D02*
X112230Y-76780D01*
X70230Y-75580D02*
X112230Y-75580D01*
X76830Y-75580D02*
X76830Y-76780D01*
G54D11*
X63879Y-55563D02*
X63879Y-54763D01*
X63622Y-55563D02*
X63622Y-55144D01*
X63651Y-55068D01*
X63708Y-55030D01*
X63794Y-55030D01*
X63851Y-55068D01*
X63879Y-55106D01*
X63422Y-55030D02*
X63194Y-55030D01*
X63337Y-54763D02*
X63337Y-55449D01*
X63308Y-55525D01*
X63251Y-55563D01*
X63194Y-55563D01*
X63079Y-55030D02*
X62851Y-55030D01*
X62994Y-54763D02*
X62994Y-55449D01*
X62965Y-55525D01*
X62908Y-55563D01*
X62851Y-55563D01*
X62651Y-55030D02*
X62651Y-55830D01*
X62651Y-55068D02*
X62594Y-55030D01*
X62479Y-55030D01*
X62422Y-55068D01*
X62394Y-55106D01*
X62365Y-55182D01*
X62365Y-55411D01*
X62394Y-55487D01*
X62422Y-55525D01*
X62479Y-55563D01*
X62594Y-55563D01*
X62651Y-55525D01*
X62108Y-55487D02*
X62079Y-55525D01*
X62108Y-55563D01*
X62137Y-55525D01*
X62108Y-55487D01*
X62108Y-55563D01*
X62108Y-55068D02*
X62079Y-55106D01*
X62108Y-55144D01*
X62137Y-55106D01*
X62108Y-55068D01*
X62108Y-55144D01*
X61394Y-54725D02*
X61908Y-55754D01*
X60765Y-54725D02*
X61280Y-55754D01*
X60565Y-55563D02*
X60565Y-55030D01*
X60565Y-55182D02*
X60537Y-55106D01*
X60508Y-55068D01*
X60451Y-55030D01*
X60394Y-55030D01*
X60108Y-55563D02*
X60165Y-55525D01*
X60194Y-55487D01*
X60222Y-55411D01*
X60222Y-55182D01*
X60194Y-55106D01*
X60165Y-55068D01*
X60108Y-55030D01*
X60022Y-55030D01*
X59965Y-55068D01*
X59937Y-55106D01*
X59908Y-55182D01*
X59908Y-55411D01*
X59937Y-55487D01*
X59965Y-55525D01*
X60022Y-55563D01*
X60108Y-55563D01*
X59651Y-55563D02*
X59651Y-54763D01*
X59651Y-55068D02*
X59594Y-55030D01*
X59480Y-55030D01*
X59422Y-55068D01*
X59394Y-55106D01*
X59365Y-55182D01*
X59365Y-55411D01*
X59394Y-55487D01*
X59422Y-55525D01*
X59480Y-55563D01*
X59594Y-55563D01*
X59651Y-55525D01*
X59022Y-55563D02*
X59080Y-55525D01*
X59108Y-55487D01*
X59137Y-55411D01*
X59137Y-55182D01*
X59108Y-55106D01*
X59080Y-55068D01*
X59022Y-55030D01*
X58937Y-55030D01*
X58880Y-55068D01*
X58851Y-55106D01*
X58822Y-55182D01*
X58822Y-55411D01*
X58851Y-55487D01*
X58880Y-55525D01*
X58937Y-55563D01*
X59022Y-55563D01*
X58651Y-55030D02*
X58422Y-55030D01*
X58565Y-54763D02*
X58565Y-55449D01*
X58537Y-55525D01*
X58480Y-55563D01*
X58422Y-55563D01*
X58222Y-55563D02*
X58222Y-55030D01*
X58222Y-54763D02*
X58251Y-54801D01*
X58222Y-54840D01*
X58194Y-54801D01*
X58222Y-54763D01*
X58222Y-54840D01*
X57680Y-55525D02*
X57737Y-55563D01*
X57851Y-55563D01*
X57908Y-55525D01*
X57937Y-55487D01*
X57965Y-55411D01*
X57965Y-55182D01*
X57937Y-55106D01*
X57908Y-55068D01*
X57851Y-55030D01*
X57737Y-55030D01*
X57680Y-55068D01*
X57165Y-55563D02*
X57165Y-55144D01*
X57194Y-55068D01*
X57251Y-55030D01*
X57365Y-55030D01*
X57422Y-55068D01*
X57165Y-55525D02*
X57222Y-55563D01*
X57365Y-55563D01*
X57422Y-55525D01*
X57451Y-55449D01*
X57451Y-55373D01*
X57422Y-55297D01*
X57365Y-55259D01*
X57222Y-55259D01*
X57165Y-55220D01*
X56880Y-55563D02*
X56880Y-55030D01*
X56880Y-55182D02*
X56851Y-55106D01*
X56822Y-55068D01*
X56765Y-55030D01*
X56708Y-55030D01*
X56422Y-55563D02*
X56480Y-55525D01*
X56508Y-55487D01*
X56537Y-55411D01*
X56537Y-55182D01*
X56508Y-55106D01*
X56480Y-55068D01*
X56422Y-55030D01*
X56337Y-55030D01*
X56280Y-55068D01*
X56251Y-55106D01*
X56222Y-55182D01*
X56222Y-55411D01*
X56251Y-55487D01*
X56280Y-55525D01*
X56337Y-55563D01*
X56422Y-55563D01*
X55965Y-55487D02*
X55937Y-55525D01*
X55965Y-55563D01*
X55994Y-55525D01*
X55965Y-55487D01*
X55965Y-55563D01*
X55594Y-55563D02*
X55651Y-55525D01*
X55680Y-55487D01*
X55708Y-55411D01*
X55708Y-55182D01*
X55680Y-55106D01*
X55651Y-55068D01*
X55594Y-55030D01*
X55508Y-55030D01*
X55451Y-55068D01*
X55422Y-55106D01*
X55394Y-55182D01*
X55394Y-55411D01*
X55422Y-55487D01*
X55451Y-55525D01*
X55508Y-55563D01*
X55594Y-55563D01*
X55137Y-55563D02*
X55137Y-55030D01*
X55137Y-55182D02*
X55108Y-55106D01*
X55080Y-55068D01*
X55022Y-55030D01*
X54965Y-55030D01*
X54508Y-55030D02*
X54508Y-55678D01*
X54537Y-55754D01*
X54565Y-55792D01*
X54622Y-55830D01*
X54708Y-55830D01*
X54765Y-55792D01*
X54508Y-55525D02*
X54565Y-55563D01*
X54680Y-55563D01*
X54737Y-55525D01*
X54765Y-55487D01*
X54794Y-55411D01*
X54794Y-55182D01*
X54765Y-55106D01*
X54737Y-55068D01*
X54680Y-55030D01*
X54565Y-55030D01*
X54508Y-55068D01*
X53794Y-54725D02*
X54308Y-55754D01*
G54D12*
X66510Y-43830D03*
X66510Y-44830D03*
X67297Y-44830D03*
X67297Y-43830D03*
G54D13*
X68360Y-41968D03*
X68360Y-46692D03*
G54D14*
X42250Y-51640D03*
X44250Y-51640D03*
X42250Y-54640D03*
X44250Y-54640D03*
G54D15*
X51900Y-34400D03*
G54D14*
X50900Y-34400D03*
X49900Y-34400D03*
X48900Y-34400D03*
X47900Y-34400D03*
X46900Y-34400D03*
X45900Y-34400D03*
X44900Y-34400D03*
G54D15*
X45900Y-49520D03*
G54D14*
X46900Y-49520D03*
X47900Y-49520D03*
X48900Y-49520D03*
X49900Y-49520D03*
X50900Y-49520D03*
X51900Y-49520D03*
X52900Y-49520D03*
G54D15*
X45870Y-50636D03*
G54D14*
X46870Y-50636D03*
X47870Y-50636D03*
X48870Y-50636D03*
X49870Y-50636D03*
X50870Y-50636D03*
X51870Y-50636D03*
X52870Y-50636D03*
G54D15*
X45900Y-48400D03*
G54D14*
X46900Y-48400D03*
X47900Y-48400D03*
X48900Y-48400D03*
X49900Y-48400D03*
X50900Y-48400D03*
X51900Y-48400D03*
X52900Y-48400D03*
G54D15*
X44906Y-39984D03*
G54D14*
X45906Y-39984D03*
X46906Y-39984D03*
X47906Y-39984D03*
X48906Y-39984D03*
X49906Y-39984D03*
X50906Y-39984D03*
X51906Y-39984D03*
G54D12*
X54195Y-53415D03*
X54195Y-49415D03*
X62400Y-37930D03*
X66400Y-37930D03*
X62850Y-36745D03*
X66850Y-36745D03*
X65260Y-48240D03*
X69260Y-48240D03*
X42290Y-50158D03*
X42290Y-46158D03*
X43750Y-31850D03*
X43750Y-27850D03*
X44750Y-31850D03*
X44750Y-27850D03*
X45750Y-30850D03*
X45750Y-26850D03*
X46750Y-30850D03*
X46750Y-26850D03*
X47750Y-30850D03*
X47750Y-26850D03*
X48750Y-30850D03*
X48750Y-26850D03*
X49750Y-30850D03*
X49750Y-26850D03*
X50750Y-30850D03*
X50750Y-26850D03*
X64980Y-34380D03*
X68980Y-34380D03*
X43324Y-49894D03*
X43324Y-45894D03*
G54D16*
X60600Y-36800D03*
G54D12*
X60600Y-35800D03*
X60600Y-34800D03*
G54D16*
X59600Y-36800D03*
G54D12*
X59600Y-35800D03*
X59600Y-34800D03*
G54D16*
X62350Y-51150D03*
G54D12*
X62350Y-52150D03*
X62350Y-53150D03*
G54D16*
X61350Y-51150D03*
G54D12*
X61350Y-52150D03*
X61350Y-53150D03*
G54D16*
X60350Y-51150D03*
G54D12*
X60350Y-52150D03*
X60350Y-53150D03*
G54D16*
X66578Y-39128D03*
G54D12*
X66578Y-40128D03*
X66578Y-41128D03*
G54D17*
X68195Y-29460D03*
G54D18*
X61695Y-28460D03*
G54D19*
X61695Y-29460D03*
G54D18*
X61695Y-30460D03*
G54D20*
X42100Y-44270D03*
X43100Y-44270D03*
X39500Y-46100D03*
X40500Y-46100D03*
X39500Y-42600D03*
X40500Y-42600D03*
X39500Y-39100D03*
X40500Y-39100D03*
X39500Y-35600D03*
X40500Y-35600D03*
X39500Y-32100D03*
X40500Y-32100D03*
X39500Y-28600D03*
X40500Y-28600D03*
X39500Y-25100D03*
X40500Y-25100D03*
X65630Y-32210D03*
X65630Y-33210D03*
X39500Y-49600D03*
X40500Y-49600D03*
G54D21*
X44896Y-47230D03*
G54D22*
X45896Y-47230D03*
X46896Y-47230D03*
X47896Y-47230D03*
X48896Y-47230D03*
X49896Y-47230D03*
X50896Y-47230D03*
X51896Y-47230D03*
X52896Y-47230D03*
X53896Y-47230D03*
X54896Y-47230D03*
X55896Y-47230D03*
X56896Y-47230D03*
X57896Y-47230D03*
X58896Y-47230D03*
X59896Y-47230D03*
X60896Y-47230D03*
X61896Y-47230D03*
X62896Y-47230D03*
X63896Y-47230D03*
X63896Y-41230D03*
X62896Y-41230D03*
X61896Y-41230D03*
X60896Y-41230D03*
X59896Y-41230D03*
X58896Y-41230D03*
X57896Y-41230D03*
X56896Y-41230D03*
X55896Y-41230D03*
X54896Y-41230D03*
X53896Y-41230D03*
X52896Y-41230D03*
X51896Y-41230D03*
X50896Y-41230D03*
X49896Y-41230D03*
X48896Y-41230D03*
X47896Y-41230D03*
X46896Y-41230D03*
X45896Y-41230D03*
X44896Y-41230D03*
X48252Y-45698D03*
X49252Y-45698D03*
X50252Y-45698D03*
X51252Y-45698D03*
X52252Y-45698D03*
X53252Y-45698D03*
X54252Y-45698D03*
X55252Y-45698D03*
X56252Y-45698D03*
X57252Y-45698D03*
X58252Y-45698D03*
X59252Y-45698D03*
X60252Y-45698D03*
G54D21*
X47252Y-45698D03*
G54D22*
X60252Y-42698D03*
X59252Y-42698D03*
X58252Y-42698D03*
X57252Y-42698D03*
X56252Y-42698D03*
X55252Y-42698D03*
X54252Y-42698D03*
X53252Y-42698D03*
X52252Y-42698D03*
X51252Y-42698D03*
X50252Y-42698D03*
X49252Y-42698D03*
X48252Y-42698D03*
X47252Y-42698D03*
G54D21*
X44910Y-38670D03*
G54D22*
X45910Y-38670D03*
X46910Y-38670D03*
X47910Y-38670D03*
X48910Y-38670D03*
X49910Y-38670D03*
X50910Y-38670D03*
X51910Y-38670D03*
X52910Y-38670D03*
X52910Y-35670D03*
X51910Y-35670D03*
X50910Y-35670D03*
X49910Y-35670D03*
X48910Y-35670D03*
X47910Y-35670D03*
X46910Y-35670D03*
X45910Y-35670D03*
X44910Y-35670D03*
G54D21*
X60040Y-30140D03*
G54D22*
X59040Y-30140D03*
X58040Y-30140D03*
X57040Y-30140D03*
X56040Y-30140D03*
X55040Y-30140D03*
X54040Y-30140D03*
X53040Y-30140D03*
X53040Y-33140D03*
X54040Y-33140D03*
X55040Y-33140D03*
X56040Y-33140D03*
X57040Y-33140D03*
X58040Y-33140D03*
X59040Y-33140D03*
X60040Y-33140D03*
G54D15*
X64100Y-35770D03*
G54D14*
X67100Y-35770D03*
G54D23*
X56749Y-50110D03*
X58671Y-50110D03*
G54D15*
X40950Y-52370D03*
G54D14*
X39950Y-52370D03*
G54D15*
X68375Y-36945D03*
G54D14*
X68375Y-35945D03*
X58850Y-51900D03*
X58850Y-52900D03*
X57100Y-51900D03*
X57100Y-52900D03*
X61210Y-48880D03*
X61210Y-49880D03*
G54D24*
X62200Y-25700D03*
G54D25*
X64200Y-25700D03*
G54D24*
X66200Y-25700D03*
G54D25*
X68200Y-25700D03*
G54D24*
X52100Y-53900D03*
G54D25*
X50100Y-53900D03*
G54D24*
X48100Y-53900D03*
G54D25*
X46100Y-53900D03*
G54D24*
X70960Y-32810D03*
G54D25*
X70960Y-34810D03*
G54D24*
X59670Y-25600D03*
G54D25*
X57670Y-25600D03*
G54D24*
X55655Y-25595D03*
G54D25*
X53655Y-25595D03*
G54D15*
X63930Y-48660D03*
G54D14*
X62930Y-48660D03*
G54D15*
X62920Y-39660D03*
G54D14*
X63920Y-39660D03*
G54D15*
X54860Y-39560D03*
G54D14*
X55860Y-39560D03*
X56860Y-39560D03*
X57860Y-39560D03*
G54D15*
X69670Y-40210D03*
G54D14*
X70670Y-40210D03*
X71670Y-40210D03*
G54D15*
X71800Y-37900D03*
G54D14*
X70800Y-37900D03*
X69800Y-37900D03*
G54D15*
X54676Y-36888D03*
G54D14*
X54676Y-35888D03*
G54D12*
X66090Y-51580D03*
X70090Y-51580D03*
G54D15*
X69915Y-49655D03*
G54D14*
X70915Y-49655D03*
X70915Y-50655D03*
G54D20*
X65780Y-52945D03*
X65780Y-53945D03*
G54D15*
X67770Y-32650D03*
G54D14*
X68770Y-32650D03*
G54D15*
X68100Y-49800D03*
G54D14*
X67100Y-49800D03*
G54D15*
X68735Y-52915D03*
G54D14*
X68735Y-53915D03*
X61800Y-31590D03*
X61800Y-32590D03*
X65800Y-50500D03*
X65800Y-49500D03*
X55040Y-48390D03*
X56040Y-48390D03*
X55570Y-31570D03*
X54570Y-31570D03*
X51300Y-37200D03*
X50300Y-37200D03*
G54D26*
X71600Y-54400D03*
X71600Y-25900D03*
X52300Y-28150D03*
X39450Y-54650D03*
G54D27*
X55310Y-43960D03*
X63100Y-43980D03*
X62090Y-34012D03*
X64004Y-34034D03*
G54D28*
X52910Y-38670D02*
X52910Y-37910D01*
X51300Y-37500D02*
X51600Y-37800D01*
X51600Y-37800D02*
X52800Y-37800D01*
X51300Y-37500D02*
X51300Y-37200D01*
X52910Y-37910D02*
X52800Y-37800D01*
X56040Y-30140D02*
X56040Y-31100D01*
X56040Y-31100D02*
X55570Y-31570D01*
X56040Y-48390D02*
X56040Y-47374D01*
X56040Y-47374D02*
X55896Y-47230D01*
X70915Y-49655D02*
X70915Y-49885D01*
X67700Y-50400D02*
X67100Y-49800D01*
X70400Y-50400D02*
X67700Y-50400D01*
X70915Y-49885D02*
X70400Y-50400D01*
X67100Y-49800D02*
X67100Y-49700D01*
X67100Y-49700D02*
X66900Y-49500D01*
X66900Y-49500D02*
X65800Y-49500D01*
X68200Y-25700D02*
X69200Y-25700D01*
X71000Y-32770D02*
X70960Y-32810D01*
X71000Y-31450D02*
X71000Y-32770D01*
X71400Y-31050D02*
X71000Y-31450D01*
X71400Y-27900D02*
X71400Y-31050D01*
X69200Y-25700D02*
X71400Y-27900D01*
X65780Y-53945D02*
X64003Y-53945D01*
X47530Y-55330D02*
X46100Y-53900D01*
X52402Y-55330D02*
X47530Y-55330D01*
X53404Y-54328D02*
X52402Y-55330D01*
X63620Y-54328D02*
X53404Y-54328D01*
X64003Y-53945D02*
X63620Y-54328D01*
X60350Y-53150D02*
X59100Y-53150D01*
X59100Y-53150D02*
X58850Y-52900D01*
X62350Y-53150D02*
X61350Y-53150D01*
X61350Y-53150D02*
X60350Y-53150D01*
X61210Y-49880D02*
X62310Y-49880D01*
X62885Y-52615D02*
X62350Y-53150D01*
X62885Y-50455D02*
X62885Y-52615D01*
X62310Y-49880D02*
X62885Y-50455D01*
X46100Y-53900D02*
X45850Y-53900D01*
X45110Y-54640D02*
X44250Y-54640D01*
X45850Y-53900D02*
X45110Y-54640D01*
X50100Y-53900D02*
X50100Y-50866D01*
X50100Y-50866D02*
X49870Y-50636D01*
X39950Y-52370D02*
X39950Y-51520D01*
X60810Y-23735D02*
X61385Y-24310D01*
X51740Y-23735D02*
X60810Y-23735D01*
X51780Y-23775D02*
X51740Y-23735D01*
X40900Y-23775D02*
X51780Y-23775D01*
X40740Y-23935D02*
X40900Y-23775D01*
X39090Y-23935D02*
X40740Y-23935D01*
X38570Y-24455D02*
X39090Y-23935D01*
X38570Y-50140D02*
X38570Y-24455D01*
X39950Y-51520D02*
X38570Y-50140D01*
X39950Y-52370D02*
X39950Y-52765D01*
X43935Y-54955D02*
X44250Y-54640D01*
X43595Y-54955D02*
X43935Y-54955D01*
X42785Y-55765D02*
X43595Y-54955D01*
X41705Y-55765D02*
X42785Y-55765D01*
X41090Y-55150D02*
X41705Y-55765D01*
X41090Y-54535D02*
X41090Y-55150D01*
X41090Y-53530D02*
X41090Y-54535D01*
X40715Y-53530D02*
X41090Y-53530D01*
X39950Y-52765D02*
X40715Y-53530D01*
X45870Y-50636D02*
X45254Y-50636D01*
X45254Y-50636D02*
X44250Y-51640D01*
X44250Y-54640D02*
X44250Y-51640D01*
X68770Y-32650D02*
X68770Y-33635D01*
X66090Y-33670D02*
X65630Y-33210D01*
X68735Y-33670D02*
X66090Y-33670D01*
X68770Y-33635D02*
X68735Y-33670D01*
X70960Y-32810D02*
X68930Y-32810D01*
X68930Y-32810D02*
X68770Y-32650D01*
X70960Y-32810D02*
X70960Y-33600D01*
X70960Y-33600D02*
X70060Y-34500D01*
X70060Y-34500D02*
X70060Y-35510D01*
X70060Y-35510D02*
X69625Y-35945D01*
X69625Y-35945D02*
X68375Y-35945D01*
X64200Y-25700D02*
X64200Y-25610D01*
X64860Y-24950D02*
X64860Y-24110D01*
X64200Y-25610D02*
X64860Y-24950D01*
X61800Y-32590D02*
X61800Y-32560D01*
X62100Y-29460D02*
X61695Y-29460D01*
X62330Y-29690D02*
X62100Y-29460D01*
X62330Y-32030D02*
X62330Y-29690D01*
X61800Y-32560D02*
X62330Y-32030D01*
X56252Y-42698D02*
X56252Y-44498D01*
X56252Y-44498D02*
X56134Y-44616D01*
X62705Y-45892D02*
X62273Y-45892D01*
X62273Y-45892D02*
X61895Y-46269D01*
X70915Y-49655D02*
X70920Y-49655D01*
X69190Y-53915D02*
X68735Y-53915D01*
X71510Y-51595D02*
X69190Y-53915D01*
X71510Y-50245D02*
X71510Y-51595D01*
X70920Y-49655D02*
X71510Y-50245D01*
X65780Y-53945D02*
X68705Y-53945D01*
X68705Y-53945D02*
X68735Y-53915D01*
X61695Y-29460D02*
X61100Y-29460D01*
X61585Y-24110D02*
X64860Y-24110D01*
X61385Y-24310D02*
X61585Y-24110D01*
X64860Y-24110D02*
X65790Y-24110D01*
X60910Y-24785D02*
X61385Y-24310D01*
X60880Y-28975D02*
X60880Y-28290D01*
X60880Y-28290D02*
X60910Y-28260D01*
X60910Y-28260D02*
X60910Y-24785D01*
X60880Y-29240D02*
X60880Y-28975D01*
X61100Y-29460D02*
X60880Y-29240D01*
X68200Y-25700D02*
X68200Y-25510D01*
X65745Y-24155D02*
X65790Y-24110D01*
X66845Y-24155D02*
X65745Y-24155D01*
X68200Y-25510D02*
X66845Y-24155D01*
X59600Y-34800D02*
X58662Y-34800D01*
X56252Y-42258D02*
X56252Y-42698D01*
X58662Y-34800D02*
X57294Y-36168D01*
X57294Y-36168D02*
X57294Y-38554D01*
X57294Y-38554D02*
X57380Y-38640D01*
X57380Y-38640D02*
X57380Y-41700D01*
X57380Y-41700D02*
X57060Y-42020D01*
X57060Y-42020D02*
X56490Y-42020D01*
X56490Y-42020D02*
X56252Y-42258D01*
X54676Y-36888D02*
X53742Y-36888D01*
X52910Y-37720D02*
X52910Y-38670D01*
X53742Y-36888D02*
X52910Y-37720D01*
X66820Y-46040D02*
X65010Y-46040D01*
X65010Y-46040D02*
X64862Y-45892D01*
X64862Y-45892D02*
X62705Y-45892D01*
X61210Y-49880D02*
X61210Y-49654D01*
X61210Y-49654D02*
X62376Y-48488D01*
X62376Y-48488D02*
X62376Y-46750D01*
X62376Y-46750D02*
X61895Y-46269D01*
X60242Y-44616D02*
X56134Y-44616D01*
X61895Y-46269D02*
X60242Y-44616D01*
X56134Y-44616D02*
X54252Y-44616D01*
X54252Y-44616D02*
X54252Y-45698D01*
X52870Y-50636D02*
X51870Y-50636D01*
X51870Y-50636D02*
X50870Y-50636D01*
X50870Y-50636D02*
X49870Y-50636D01*
X49870Y-50636D02*
X48870Y-50636D01*
X48870Y-50636D02*
X47870Y-50636D01*
X47870Y-50636D02*
X46870Y-50636D01*
X46870Y-50636D02*
X45870Y-50636D01*
X58850Y-52900D02*
X57100Y-52900D01*
X57100Y-52900D02*
X57055Y-52855D01*
X57055Y-52855D02*
X55952Y-52855D01*
X55952Y-52855D02*
X55880Y-52855D01*
X55880Y-52855D02*
X53661Y-50636D01*
X53661Y-50636D02*
X52870Y-50636D01*
X67750Y-43830D02*
X67297Y-43830D01*
X67820Y-43900D02*
X67750Y-43830D01*
X67820Y-45040D02*
X67820Y-43900D01*
X66820Y-46040D02*
X67820Y-45040D01*
X67271Y-43804D02*
X67297Y-43830D01*
X56420Y-40720D02*
X56420Y-41580D01*
X56040Y-37780D02*
X56320Y-38060D01*
X56320Y-38060D02*
X56320Y-40620D01*
X56320Y-40620D02*
X56420Y-40720D01*
X56040Y-33140D02*
X56040Y-37780D01*
X56420Y-41580D02*
X56100Y-41900D01*
X60600Y-34800D02*
X59600Y-34800D01*
X57040Y-30140D02*
X57040Y-33140D01*
X57040Y-30140D02*
X56040Y-30140D01*
X56040Y-33140D02*
X57040Y-33140D01*
X52910Y-38670D02*
X52910Y-40120D01*
X53896Y-40796D02*
X53896Y-41230D01*
X53600Y-40500D02*
X53896Y-40796D01*
X53290Y-40500D02*
X53600Y-40500D01*
X52910Y-40120D02*
X53290Y-40500D01*
X54252Y-45698D02*
X54368Y-45698D01*
X55896Y-47226D02*
X55896Y-47230D01*
X54368Y-45698D02*
X55896Y-47226D01*
X53896Y-41230D02*
X54010Y-41230D01*
X54010Y-41230D02*
X54620Y-41840D01*
X54620Y-41840D02*
X56040Y-41840D01*
X56040Y-41840D02*
X56100Y-41900D01*
X56252Y-42052D02*
X56252Y-42088D01*
X56252Y-42088D02*
X56252Y-42698D01*
X56100Y-41900D02*
X56252Y-42052D01*
X42250Y-54640D02*
X42250Y-51640D01*
X41890Y-49550D02*
X41890Y-49630D01*
X40950Y-51470D02*
X40950Y-52370D01*
X41690Y-50730D02*
X40950Y-51470D01*
X41690Y-49830D02*
X41690Y-50730D01*
X41890Y-49630D02*
X41690Y-49830D01*
X42965Y-51040D02*
X42965Y-50530D01*
X41960Y-49480D02*
X41890Y-49550D01*
X41890Y-49550D02*
X41870Y-49570D01*
X42560Y-49480D02*
X41960Y-49480D01*
X42770Y-49690D02*
X42560Y-49480D01*
X42770Y-50335D02*
X42770Y-49690D01*
X42965Y-50530D02*
X42770Y-50335D01*
X44090Y-48120D02*
X44090Y-50005D01*
X44896Y-47314D02*
X44090Y-48120D01*
X44896Y-47230D02*
X44896Y-47314D01*
X42850Y-51040D02*
X42250Y-51640D01*
X43055Y-51040D02*
X42965Y-51040D01*
X42965Y-51040D02*
X42850Y-51040D01*
X44090Y-50005D02*
X43055Y-51040D01*
X44896Y-47230D02*
X44310Y-47230D01*
X43934Y-45894D02*
X43324Y-45894D01*
X44060Y-46020D02*
X43934Y-45894D01*
X44060Y-46980D02*
X44060Y-46020D01*
X44310Y-47230D02*
X44060Y-46980D01*
X47252Y-45698D02*
X45382Y-45698D01*
X44896Y-46184D02*
X44896Y-47230D01*
X45382Y-45698D02*
X44896Y-46184D01*
X69670Y-40210D02*
X66660Y-40210D01*
X66660Y-40210D02*
X66578Y-40128D01*
X47750Y-26850D02*
X47750Y-26065D01*
X40500Y-33540D02*
X40500Y-35600D01*
X41360Y-32680D02*
X40500Y-33540D01*
X41360Y-29300D02*
X41360Y-32680D01*
X41960Y-28700D02*
X41360Y-29300D01*
X41960Y-26140D02*
X41960Y-28700D01*
X42765Y-25335D02*
X41960Y-26140D01*
X47020Y-25335D02*
X42765Y-25335D01*
X47750Y-26065D02*
X47020Y-25335D01*
X48750Y-26850D02*
X48750Y-25620D01*
X40920Y-31680D02*
X40500Y-32100D01*
X40920Y-28940D02*
X40920Y-31680D01*
X41700Y-28160D02*
X40920Y-28940D01*
X41700Y-25740D02*
X41700Y-28160D01*
X42385Y-25055D02*
X41700Y-25740D01*
X48185Y-25055D02*
X42385Y-25055D01*
X48750Y-25620D02*
X48185Y-25055D01*
X49750Y-26850D02*
X49750Y-25720D01*
X41320Y-27780D02*
X40500Y-28600D01*
X41320Y-25500D02*
X41320Y-27780D01*
X42095Y-24725D02*
X41320Y-25500D01*
X48755Y-24725D02*
X42095Y-24725D01*
X49750Y-25720D02*
X48755Y-24725D01*
X50750Y-26850D02*
X50750Y-26030D01*
X41200Y-25100D02*
X40500Y-25100D01*
X41875Y-24425D02*
X41200Y-25100D01*
X49145Y-24425D02*
X41875Y-24425D01*
X50750Y-26030D02*
X49145Y-24425D01*
X46750Y-26850D02*
X46750Y-26125D01*
X40500Y-36940D02*
X40500Y-39100D01*
X41080Y-36360D02*
X40500Y-36940D01*
X41080Y-33720D02*
X41080Y-36360D01*
X41720Y-33080D02*
X41080Y-33720D01*
X41720Y-29660D02*
X41720Y-33080D01*
X42360Y-29020D02*
X41720Y-29660D01*
X42360Y-26380D02*
X42360Y-29020D01*
X43100Y-25640D02*
X42360Y-26380D01*
X46265Y-25640D02*
X43100Y-25640D01*
X46750Y-26125D02*
X46265Y-25640D01*
X45750Y-26865D02*
X45750Y-26395D01*
X40500Y-40580D02*
X40500Y-42600D01*
X41100Y-39980D02*
X40500Y-40580D01*
X41100Y-37460D02*
X41100Y-39980D01*
X41520Y-37040D02*
X41100Y-37460D01*
X41520Y-34200D02*
X41520Y-37040D01*
X42200Y-33520D02*
X41520Y-34200D01*
X42200Y-29760D02*
X42200Y-33520D01*
X42700Y-29260D02*
X42200Y-29760D01*
X42700Y-26760D02*
X42700Y-29260D01*
X43330Y-26130D02*
X42700Y-26760D01*
X45485Y-26130D02*
X43330Y-26130D01*
X45750Y-26395D02*
X45485Y-26130D01*
X44750Y-27850D02*
X44750Y-26985D01*
X40500Y-43820D02*
X40500Y-46100D01*
X41220Y-43100D02*
X40500Y-43820D01*
X41220Y-40540D02*
X41220Y-43100D01*
X41520Y-40240D02*
X41220Y-40540D01*
X41520Y-37620D02*
X41520Y-40240D01*
X41940Y-37200D02*
X41520Y-37620D01*
X41940Y-34320D02*
X41940Y-37200D01*
X42540Y-33720D02*
X41940Y-34320D01*
X42540Y-30020D02*
X42540Y-33720D01*
X43040Y-29520D02*
X42540Y-30020D01*
X43040Y-27220D02*
X43040Y-29520D01*
X43510Y-26750D02*
X43040Y-27220D01*
X44515Y-26750D02*
X43510Y-26750D01*
X44750Y-26985D02*
X44515Y-26750D01*
X43750Y-27850D02*
X43750Y-29410D01*
X40500Y-49040D02*
X40500Y-49600D01*
X41120Y-48420D02*
X40500Y-49040D01*
X41120Y-43664D02*
X41120Y-48420D01*
X41620Y-43164D02*
X41120Y-43664D01*
X41620Y-40900D02*
X41620Y-43164D01*
X41980Y-40540D02*
X41620Y-40900D01*
X41980Y-38060D02*
X41980Y-40540D01*
X42340Y-37700D02*
X41980Y-38060D01*
X42340Y-34760D02*
X42340Y-37700D01*
X43020Y-34080D02*
X42340Y-34760D01*
X43020Y-30140D02*
X43020Y-34080D01*
X43750Y-29410D02*
X43020Y-30140D01*
X66090Y-51580D02*
X66090Y-51770D01*
X65780Y-52080D02*
X65780Y-52945D01*
X66090Y-51770D02*
X65780Y-52080D01*
X70960Y-34810D02*
X70960Y-36510D01*
X71525Y-37625D02*
X71800Y-37900D01*
X71525Y-37075D02*
X71525Y-37625D01*
X70960Y-36510D02*
X71525Y-37075D01*
X70800Y-37900D02*
X70640Y-37900D01*
X67760Y-36430D02*
X67100Y-35770D01*
X69170Y-36430D02*
X67760Y-36430D01*
X70640Y-37900D02*
X69170Y-36430D01*
X55040Y-33140D02*
X55040Y-31260D01*
X57670Y-27470D02*
X57670Y-25600D01*
X55520Y-29620D02*
X57670Y-27470D01*
X55520Y-30780D02*
X55520Y-29620D01*
X55040Y-31260D02*
X55520Y-30780D01*
X55655Y-25595D02*
X55655Y-28465D01*
X55040Y-29080D02*
X55040Y-30140D01*
X55655Y-28465D02*
X55040Y-29080D01*
X43100Y-44270D02*
X42850Y-44270D01*
X42290Y-44830D02*
X42290Y-46158D01*
X42850Y-44270D02*
X42290Y-44830D01*
X58040Y-30140D02*
X58040Y-29100D01*
X53655Y-25085D02*
X53655Y-25595D01*
X53900Y-24840D02*
X53655Y-25085D01*
X58220Y-24840D02*
X53900Y-24840D01*
X58720Y-25340D02*
X58220Y-24840D01*
X58720Y-28420D02*
X58720Y-25340D01*
X58040Y-29100D02*
X58720Y-28420D01*
X59670Y-25600D02*
X59670Y-28130D01*
X58040Y-32340D02*
X58040Y-33140D01*
X58540Y-31840D02*
X58040Y-32340D01*
X58540Y-29260D02*
X58540Y-31840D01*
X59670Y-28130D02*
X58540Y-29260D01*
X65630Y-32210D02*
X65320Y-32210D01*
X64980Y-32550D02*
X64980Y-34380D01*
X65320Y-32210D02*
X64980Y-32550D01*
X57100Y-51900D02*
X57100Y-50461D01*
X57100Y-50461D02*
X56749Y-50110D01*
X56896Y-47230D02*
X56896Y-49963D01*
X56896Y-49963D02*
X56749Y-50110D01*
X55252Y-45698D02*
X55364Y-45698D01*
X55364Y-45698D02*
X56896Y-47230D01*
X58850Y-51900D02*
X58850Y-50289D01*
X58850Y-50289D02*
X58671Y-50110D01*
X57896Y-47230D02*
X57896Y-48316D01*
X58671Y-49091D02*
X58671Y-50110D01*
X57896Y-48316D02*
X58671Y-49091D01*
X56252Y-45698D02*
X56364Y-45698D01*
X56364Y-45698D02*
X57896Y-47230D01*
X44900Y-34400D02*
X44900Y-35660D01*
X44900Y-35660D02*
X44910Y-35670D01*
X43750Y-31850D02*
X43750Y-32476D01*
X44900Y-33626D02*
X44900Y-34400D01*
X43750Y-32476D02*
X44900Y-33626D01*
X45910Y-35670D02*
X45910Y-34410D01*
X44750Y-32510D02*
X44750Y-31850D01*
X45720Y-33480D02*
X44750Y-32510D01*
X45720Y-34220D02*
X45720Y-33480D01*
X45910Y-34410D02*
X45720Y-34220D01*
X46910Y-35670D02*
X46910Y-34410D01*
X45750Y-32290D02*
X45750Y-30850D01*
X46880Y-33420D02*
X45750Y-32290D01*
X46880Y-34380D02*
X46880Y-33420D01*
X46910Y-34410D02*
X46880Y-34380D01*
X47900Y-34400D02*
X47900Y-33340D01*
X46750Y-32190D02*
X46750Y-30850D01*
X47900Y-33340D02*
X46750Y-32190D01*
X47900Y-34400D02*
X47900Y-35660D01*
X47900Y-35660D02*
X47910Y-35670D01*
X47750Y-30850D02*
X47750Y-32530D01*
X48900Y-33680D02*
X48900Y-34400D01*
X47750Y-32530D02*
X48900Y-33680D01*
X48910Y-35670D02*
X48910Y-34410D01*
X48910Y-34410D02*
X48900Y-34400D01*
X49900Y-34400D02*
X49900Y-33700D01*
X48750Y-32550D02*
X48750Y-30850D01*
X49900Y-33700D02*
X48750Y-32550D01*
X49910Y-35670D02*
X49910Y-34410D01*
X49910Y-34410D02*
X49900Y-34400D01*
X49750Y-30850D02*
X49750Y-32210D01*
X50900Y-33360D02*
X50900Y-34400D01*
X49750Y-32210D02*
X50900Y-33360D01*
X50910Y-35670D02*
X50910Y-34410D01*
X50910Y-34410D02*
X50900Y-34400D01*
X51900Y-34400D02*
X51900Y-33420D01*
X50750Y-32270D02*
X50750Y-30850D01*
X51900Y-33420D02*
X50750Y-32270D01*
X51910Y-35670D02*
X51910Y-34410D01*
X51910Y-34410D02*
X51900Y-34400D01*
X45896Y-46594D02*
X45896Y-47230D01*
X48252Y-45698D02*
X48252Y-45788D01*
X46160Y-46330D02*
X45896Y-46594D01*
X47710Y-46330D02*
X46160Y-46330D01*
X48252Y-45788D02*
X47710Y-46330D01*
X45896Y-47230D02*
X45896Y-48396D01*
X45896Y-48396D02*
X45900Y-48400D01*
X49252Y-45698D02*
X49082Y-45698D01*
X46896Y-46764D02*
X46896Y-47230D01*
X47071Y-46588D02*
X46896Y-46764D01*
X47831Y-46588D02*
X47071Y-46588D01*
X48070Y-46350D02*
X47831Y-46588D01*
X48430Y-46350D02*
X48070Y-46350D01*
X49082Y-45698D02*
X48430Y-46350D01*
X46896Y-47230D02*
X46896Y-48396D01*
X46896Y-48396D02*
X46900Y-48400D01*
X50252Y-45698D02*
X50112Y-45698D01*
X47914Y-47230D02*
X47896Y-47230D01*
X48774Y-46370D02*
X47914Y-47230D01*
X49440Y-46370D02*
X48774Y-46370D01*
X50112Y-45698D02*
X49440Y-46370D01*
X47900Y-48400D02*
X47900Y-47234D01*
X47900Y-47234D02*
X47896Y-47230D01*
X48896Y-47230D02*
X48896Y-48396D01*
X48896Y-48396D02*
X48900Y-48400D01*
X51252Y-45698D02*
X51142Y-45698D01*
X48896Y-46964D02*
X48896Y-47230D01*
X49200Y-46660D02*
X48896Y-46964D01*
X49630Y-46660D02*
X49200Y-46660D01*
X49940Y-46350D02*
X49630Y-46660D01*
X50490Y-46350D02*
X49940Y-46350D01*
X51142Y-45698D02*
X50490Y-46350D01*
X41755Y-54780D02*
X41755Y-51375D01*
X43100Y-51570D02*
X43100Y-54545D01*
X43100Y-54545D02*
X42767Y-54877D01*
X42117Y-55142D02*
X41755Y-54780D01*
X42502Y-55142D02*
X42117Y-55142D01*
X42767Y-54877D02*
X42502Y-55142D01*
X44030Y-50640D02*
X43100Y-51570D01*
X49896Y-47230D02*
X49896Y-47666D01*
X45649Y-48986D02*
X44030Y-50605D01*
X49130Y-48986D02*
X45649Y-48986D01*
X49430Y-48686D02*
X49130Y-48986D01*
X49430Y-48132D02*
X49430Y-48686D01*
X49896Y-47666D02*
X49430Y-48132D01*
X44030Y-50605D02*
X44030Y-50640D01*
X42290Y-50710D02*
X42290Y-50158D01*
X42200Y-50800D02*
X42290Y-50710D01*
X42200Y-50930D02*
X42200Y-50800D01*
X41755Y-51375D02*
X42200Y-50930D01*
X52252Y-45698D02*
X52102Y-45698D01*
X49896Y-46874D02*
X49896Y-47230D01*
X50140Y-46630D02*
X49896Y-46874D01*
X50574Y-46630D02*
X50140Y-46630D01*
X50854Y-46350D02*
X50574Y-46630D01*
X51450Y-46350D02*
X50854Y-46350D01*
X52102Y-45698D02*
X51450Y-46350D01*
X50896Y-47230D02*
X50896Y-47404D01*
X50896Y-47404D02*
X49900Y-48400D01*
X53252Y-45698D02*
X53172Y-45698D01*
X50896Y-46834D02*
X50896Y-47230D01*
X51090Y-46640D02*
X50896Y-46834D01*
X51524Y-46640D02*
X51090Y-46640D01*
X51814Y-46350D02*
X51524Y-46640D01*
X52520Y-46350D02*
X51814Y-46350D01*
X53172Y-45698D02*
X52520Y-46350D01*
X51896Y-41230D02*
X51896Y-39994D01*
X51910Y-39980D02*
X51910Y-38670D01*
X51896Y-39994D02*
X51910Y-39980D01*
X54252Y-42698D02*
X54252Y-42640D01*
X51970Y-41230D02*
X51896Y-41230D01*
X52650Y-41910D02*
X51970Y-41230D01*
X53315Y-41910D02*
X52650Y-41910D01*
X53573Y-42168D02*
X53315Y-41910D01*
X53780Y-42168D02*
X53573Y-42168D01*
X54252Y-42640D02*
X53780Y-42168D01*
X50910Y-38670D02*
X50910Y-39980D01*
X50896Y-39994D02*
X50896Y-41230D01*
X50910Y-39980D02*
X50896Y-39994D01*
X53252Y-42698D02*
X53252Y-42662D01*
X51010Y-41230D02*
X50896Y-41230D01*
X51690Y-41910D02*
X51010Y-41230D01*
X52285Y-41910D02*
X51690Y-41910D01*
X52543Y-42168D02*
X52285Y-41910D01*
X52758Y-42168D02*
X52543Y-42168D01*
X53252Y-42662D02*
X52758Y-42168D01*
X49896Y-41230D02*
X49896Y-39994D01*
X49910Y-39980D02*
X49910Y-38670D01*
X49896Y-39994D02*
X49910Y-39980D01*
X52252Y-42698D02*
X52252Y-42320D01*
X50350Y-41230D02*
X49896Y-41230D01*
X50400Y-41280D02*
X50350Y-41230D01*
X50400Y-41550D02*
X50400Y-41280D01*
X50710Y-41860D02*
X50400Y-41550D01*
X51080Y-41860D02*
X50710Y-41860D01*
X51150Y-41790D02*
X51080Y-41860D01*
X51205Y-41790D02*
X51150Y-41790D01*
X51583Y-42168D02*
X51205Y-41790D01*
X52100Y-42168D02*
X51583Y-42168D01*
X52252Y-42320D02*
X52100Y-42168D01*
X48896Y-41230D02*
X48896Y-39994D01*
X48910Y-39980D02*
X48910Y-38670D01*
X48896Y-39994D02*
X48910Y-39980D01*
X51252Y-42698D02*
X51252Y-42310D01*
X49240Y-41230D02*
X48896Y-41230D01*
X49410Y-41400D02*
X49240Y-41230D01*
X49410Y-41650D02*
X49410Y-41400D01*
X49630Y-41870D02*
X49410Y-41650D01*
X50355Y-41870D02*
X49630Y-41870D01*
X50603Y-42118D02*
X50355Y-41870D01*
X51060Y-42118D02*
X50603Y-42118D01*
X51252Y-42310D02*
X51060Y-42118D01*
X47896Y-41230D02*
X47896Y-39994D01*
X47910Y-39980D02*
X47910Y-38670D01*
X47896Y-39994D02*
X47910Y-39980D01*
X50252Y-42698D02*
X50252Y-42190D01*
X48280Y-41230D02*
X47896Y-41230D01*
X48370Y-41320D02*
X48280Y-41230D01*
X48370Y-41540D02*
X48370Y-41320D01*
X48710Y-41880D02*
X48370Y-41540D01*
X49275Y-41880D02*
X48710Y-41880D01*
X49523Y-42128D02*
X49275Y-41880D01*
X50190Y-42128D02*
X49523Y-42128D01*
X50252Y-42190D02*
X50190Y-42128D01*
X46896Y-41230D02*
X46896Y-39994D01*
X46910Y-39980D02*
X46910Y-38670D01*
X46896Y-39994D02*
X46910Y-39980D01*
X49252Y-42698D02*
X49252Y-42350D01*
X47210Y-41230D02*
X46896Y-41230D01*
X47380Y-41400D02*
X47210Y-41230D01*
X47380Y-41610D02*
X47380Y-41400D01*
X47660Y-41890D02*
X47380Y-41610D01*
X48330Y-41890D02*
X47660Y-41890D01*
X48578Y-42138D02*
X48330Y-41890D01*
X49040Y-42138D02*
X48578Y-42138D01*
X49252Y-42350D02*
X49040Y-42138D01*
X45896Y-41230D02*
X45896Y-39994D01*
X45910Y-39980D02*
X45910Y-38670D01*
X45896Y-39994D02*
X45910Y-39980D01*
X48252Y-42698D02*
X48252Y-42602D01*
X46196Y-41530D02*
X45896Y-41230D01*
X46310Y-41530D02*
X46196Y-41530D01*
X46670Y-41890D02*
X46310Y-41530D01*
X47260Y-41890D02*
X46670Y-41890D01*
X47518Y-42148D02*
X47260Y-41890D01*
X47798Y-42148D02*
X47518Y-42148D01*
X48252Y-42602D02*
X47798Y-42148D01*
X44896Y-41230D02*
X44896Y-39994D01*
X44910Y-39980D02*
X44910Y-38670D01*
X44896Y-39994D02*
X44910Y-39980D01*
X47252Y-42698D02*
X47252Y-42612D01*
X45210Y-41230D02*
X44896Y-41230D01*
X45380Y-41400D02*
X45210Y-41230D01*
X45380Y-41730D02*
X45380Y-41400D01*
X45800Y-42150D02*
X45380Y-41730D01*
X46790Y-42150D02*
X45800Y-42150D01*
X47252Y-42612D02*
X46790Y-42150D01*
X58896Y-47230D02*
X58896Y-47891D01*
X59905Y-51150D02*
X60350Y-51150D01*
X59570Y-50815D02*
X59905Y-51150D01*
X59570Y-48565D02*
X59570Y-50815D01*
X58896Y-47891D02*
X59570Y-48565D01*
X57252Y-45698D02*
X57364Y-45698D01*
X57364Y-45698D02*
X58896Y-47230D01*
X61350Y-51150D02*
X61350Y-51130D01*
X59896Y-50146D02*
X59896Y-47230D01*
X60190Y-50440D02*
X59896Y-50146D01*
X60660Y-50440D02*
X60190Y-50440D01*
X61350Y-51130D02*
X60660Y-50440D01*
X58252Y-45698D02*
X58364Y-45698D01*
X58364Y-45698D02*
X59896Y-47230D01*
X60896Y-47230D02*
X60896Y-47454D01*
X62350Y-50880D02*
X62350Y-51150D01*
X61860Y-50390D02*
X62350Y-50880D01*
X60990Y-50390D02*
X61860Y-50390D01*
X60390Y-49790D02*
X60990Y-50390D01*
X60390Y-47960D02*
X60390Y-49790D01*
X60896Y-47454D02*
X60390Y-47960D01*
X59252Y-45698D02*
X59364Y-45698D01*
X59364Y-45698D02*
X60896Y-47230D01*
X60252Y-42698D02*
X61896Y-42698D01*
X61800Y-42800D02*
X61896Y-42800D01*
X61800Y-42794D02*
X61800Y-42800D01*
X61896Y-42698D02*
X61800Y-42794D01*
X66510Y-44830D02*
X63030Y-44830D01*
X61896Y-43696D02*
X61896Y-42800D01*
X61896Y-42800D02*
X61896Y-41230D01*
X63030Y-44830D02*
X61896Y-43696D01*
X60896Y-41230D02*
X60896Y-41704D01*
X59950Y-42000D02*
X59252Y-42698D01*
X60600Y-42000D02*
X59950Y-42000D01*
X60896Y-41704D02*
X60600Y-42000D01*
X67297Y-44830D02*
X67297Y-45003D01*
X59954Y-43400D02*
X59252Y-42698D01*
X61000Y-43400D02*
X59954Y-43400D01*
X63000Y-45400D02*
X61000Y-43400D01*
X66900Y-45400D02*
X63000Y-45400D01*
X67297Y-45003D02*
X66900Y-45400D01*
X60600Y-36800D02*
X60600Y-37920D01*
X59896Y-38624D02*
X59896Y-41230D01*
X60600Y-37920D02*
X59896Y-38624D01*
X59896Y-41230D02*
X59896Y-41384D01*
X58252Y-42688D02*
X58252Y-42698D01*
X58960Y-41980D02*
X58252Y-42688D01*
X59300Y-41980D02*
X58960Y-41980D01*
X59896Y-41384D02*
X59300Y-41980D01*
X58896Y-41230D02*
X58896Y-41664D01*
X57610Y-42340D02*
X57252Y-42698D01*
X57780Y-42340D02*
X57610Y-42340D01*
X58040Y-42080D02*
X57780Y-42340D01*
X58480Y-42080D02*
X58040Y-42080D01*
X58896Y-41664D02*
X58480Y-42080D01*
X58896Y-41230D02*
X58896Y-38444D01*
X59600Y-37740D02*
X59600Y-36800D01*
X58896Y-38444D02*
X59600Y-37740D01*
X63671Y-52600D02*
X63671Y-53048D01*
X56365Y-53415D02*
X56706Y-53756D01*
X56706Y-53756D02*
X58958Y-53756D01*
X56365Y-53415D02*
X54195Y-53415D01*
X62964Y-53756D02*
X58958Y-53756D01*
X63671Y-53048D02*
X62964Y-53756D01*
X62930Y-49140D02*
X62930Y-48660D01*
X63671Y-49881D02*
X62930Y-49140D01*
X63671Y-52614D02*
X63671Y-52600D01*
X63671Y-52600D02*
X63671Y-49881D01*
X48100Y-53900D02*
X48100Y-54390D01*
X48100Y-54390D02*
X48636Y-54926D01*
X48636Y-54926D02*
X50466Y-54926D01*
X50466Y-54926D02*
X51126Y-54266D01*
X51126Y-54266D02*
X51126Y-53380D01*
X51126Y-53380D02*
X51560Y-52946D01*
X51560Y-52946D02*
X52776Y-52946D01*
X52776Y-52946D02*
X53245Y-53415D01*
X53245Y-53415D02*
X54195Y-53415D01*
X62896Y-47230D02*
X62896Y-48626D01*
X62896Y-48626D02*
X62930Y-48660D01*
X63930Y-48660D02*
X63930Y-53270D01*
X52240Y-54040D02*
X52100Y-53900D01*
X63160Y-54040D02*
X52240Y-54040D01*
X63930Y-53270D02*
X63160Y-54040D01*
X65260Y-48240D02*
X64845Y-48240D01*
X64425Y-48660D02*
X63930Y-48660D01*
X64845Y-48240D02*
X64425Y-48660D01*
X63896Y-47230D02*
X63896Y-48626D01*
X63896Y-48626D02*
X63930Y-48660D01*
X63920Y-39660D02*
X63920Y-39325D01*
X63185Y-37080D02*
X62850Y-36745D01*
X63185Y-38590D02*
X63185Y-37080D01*
X63920Y-39325D02*
X63185Y-38590D01*
X66200Y-25700D02*
X66200Y-25900D01*
X66200Y-25900D02*
X65195Y-26905D01*
X65195Y-26905D02*
X64005Y-26905D01*
X64005Y-26905D02*
X63178Y-27732D01*
X63178Y-27732D02*
X63178Y-36417D01*
X63178Y-36417D02*
X62850Y-36745D01*
X63920Y-39660D02*
X63920Y-41206D01*
X63920Y-41206D02*
X63896Y-41230D01*
X63920Y-41206D02*
X63896Y-41230D01*
X62400Y-37930D02*
X62400Y-37355D01*
X62200Y-27185D02*
X62200Y-25700D01*
X62843Y-27828D02*
X62200Y-27185D01*
X62843Y-35677D02*
X62843Y-27828D01*
X62210Y-36310D02*
X62843Y-35677D01*
X62210Y-37165D02*
X62210Y-36310D01*
X62400Y-37355D02*
X62210Y-37165D01*
X62400Y-37930D02*
X62400Y-38570D01*
X62920Y-39090D02*
X62920Y-39660D01*
X62400Y-38570D02*
X62920Y-39090D01*
X62896Y-41230D02*
X62896Y-39684D01*
X62896Y-39684D02*
X62920Y-39660D01*
X57860Y-39560D02*
X57860Y-36548D01*
X59040Y-33976D02*
X59040Y-33140D01*
X59208Y-34144D02*
X59040Y-33976D01*
X60836Y-34144D02*
X59208Y-34144D01*
X61220Y-34528D02*
X60836Y-34144D01*
X61220Y-35146D02*
X61220Y-34528D01*
X61078Y-35288D02*
X61220Y-35146D01*
X59120Y-35288D02*
X61078Y-35288D01*
X57860Y-36548D02*
X59120Y-35288D01*
X57896Y-41230D02*
X57896Y-39596D01*
X57896Y-39596D02*
X57860Y-39560D01*
X59040Y-30140D02*
X59040Y-31820D01*
X56860Y-35590D02*
X56860Y-39560D01*
X58540Y-33910D02*
X56860Y-35590D01*
X58540Y-32320D02*
X58540Y-33910D01*
X59040Y-31820D02*
X58540Y-32320D01*
X56896Y-41230D02*
X56896Y-39596D01*
X56896Y-39596D02*
X56860Y-39560D01*
X54540Y-32500D02*
X54540Y-34160D01*
X54040Y-32000D02*
X54540Y-32500D01*
X54040Y-30140D02*
X54040Y-32000D01*
X55740Y-37920D02*
X55860Y-38040D01*
X55740Y-34940D02*
X55740Y-37920D01*
X55140Y-34340D02*
X55740Y-34940D01*
X54720Y-34340D02*
X55140Y-34340D01*
X54540Y-34160D02*
X54720Y-34340D01*
X55860Y-38040D02*
X55860Y-39560D01*
X55896Y-41230D02*
X55896Y-39596D01*
X55896Y-39596D02*
X55860Y-39560D01*
X54700Y-34820D02*
X55060Y-34820D01*
X54040Y-34160D02*
X54700Y-34820D01*
X54040Y-33140D02*
X54040Y-34160D01*
X54860Y-38520D02*
X54860Y-39560D01*
X55440Y-37940D02*
X54860Y-38520D01*
X55440Y-35200D02*
X55440Y-37940D01*
X55060Y-34820D02*
X55440Y-35200D01*
X54896Y-41230D02*
X54896Y-39596D01*
X54896Y-39596D02*
X54860Y-39560D01*
X50900Y-48400D02*
X50900Y-48226D01*
X50900Y-48226D02*
X51896Y-47230D01*
X51900Y-48400D02*
X51900Y-48226D01*
X51900Y-48226D02*
X52896Y-47230D01*
X52900Y-48400D02*
X52900Y-48226D01*
X52900Y-48226D02*
X53896Y-47230D01*
X55040Y-48390D02*
X55040Y-47374D01*
X55040Y-47374D02*
X54896Y-47230D01*
X55116Y-44154D02*
X53840Y-44154D01*
X55310Y-43960D02*
X55116Y-44154D01*
X64490Y-43980D02*
X63100Y-43980D01*
X65720Y-42750D02*
X64490Y-43980D01*
X65720Y-38120D02*
X65720Y-42750D01*
X65910Y-37930D02*
X65720Y-38120D01*
X66400Y-37930D02*
X65910Y-37930D01*
X66400Y-37930D02*
X66400Y-37195D01*
X66400Y-37195D02*
X66850Y-36745D01*
X70670Y-40210D02*
X70670Y-39805D01*
X70670Y-39805D02*
X70115Y-39250D01*
X70115Y-39250D02*
X68030Y-39250D01*
X68030Y-39250D02*
X66710Y-37930D01*
X66710Y-37930D02*
X66400Y-37930D01*
X69260Y-48240D02*
X69260Y-47475D01*
X70670Y-43185D02*
X70670Y-40210D01*
X69415Y-44440D02*
X70670Y-43185D01*
X69415Y-47320D02*
X69415Y-44440D01*
X69260Y-47475D02*
X69415Y-47320D01*
X43324Y-49894D02*
X43324Y-46854D01*
X44060Y-44330D02*
X44060Y-43120D01*
X42840Y-45550D02*
X44060Y-44330D01*
X42840Y-46370D02*
X42840Y-45550D01*
X43324Y-46854D02*
X42840Y-46370D01*
X53840Y-44154D02*
X45854Y-44154D01*
X45854Y-44154D02*
X44820Y-43120D01*
X44820Y-43120D02*
X44060Y-43120D01*
X43250Y-43120D02*
X42100Y-44270D01*
X44060Y-43120D02*
X43250Y-43120D01*
X53784Y-44210D02*
X53770Y-44210D01*
X53840Y-44154D02*
X53784Y-44210D01*
X54896Y-47230D02*
X54896Y-47244D01*
X54195Y-47945D02*
X54195Y-49415D01*
X54896Y-47244D02*
X54195Y-47945D01*
X55252Y-42698D02*
X55252Y-42728D01*
X55252Y-42728D02*
X53952Y-44027D01*
X53952Y-44027D02*
X53770Y-44210D01*
X54896Y-46756D02*
X54896Y-47230D01*
X53770Y-44210D02*
X53770Y-46240D01*
X53770Y-46240D02*
X53990Y-46460D01*
X53990Y-46460D02*
X54600Y-46460D01*
X54600Y-46460D02*
X54896Y-46756D01*
X55252Y-42698D02*
X55252Y-42370D01*
X53000Y-41230D02*
X52896Y-41230D01*
X53680Y-41910D02*
X53000Y-41230D01*
X54325Y-41910D02*
X53680Y-41910D01*
X54525Y-42110D02*
X54325Y-41910D01*
X54991Y-42110D02*
X54525Y-42110D01*
X55252Y-42370D02*
X54991Y-42110D01*
X66510Y-43830D02*
X66510Y-41196D01*
X61896Y-47230D02*
X61896Y-47584D01*
X61210Y-48270D02*
X61210Y-48880D01*
X61896Y-47584D02*
X61210Y-48270D01*
X60252Y-45698D02*
X60364Y-45698D01*
X60364Y-45698D02*
X61896Y-47230D01*
X66130Y-48300D02*
X66130Y-48860D01*
X66130Y-48300D02*
X66130Y-47530D01*
X66130Y-47530D02*
X68965Y-44695D01*
X68965Y-44695D02*
X68965Y-44240D01*
X68965Y-44240D02*
X70190Y-43015D01*
X70190Y-43015D02*
X70190Y-39790D01*
X70190Y-39790D02*
X70040Y-39640D01*
X70040Y-39640D02*
X67795Y-39640D01*
X67795Y-39640D02*
X67283Y-39128D01*
X66578Y-39128D02*
X67283Y-39128D01*
X65800Y-50320D02*
X65800Y-50500D01*
X65320Y-49840D02*
X65800Y-50320D01*
X65320Y-49270D02*
X65320Y-49840D01*
X65600Y-48990D02*
X65320Y-49270D01*
X66000Y-48990D02*
X65600Y-48990D01*
X66130Y-48860D02*
X66000Y-48990D01*
X70090Y-51580D02*
X69700Y-51580D01*
X66470Y-50500D02*
X65800Y-50500D01*
X66780Y-50810D02*
X66470Y-50500D01*
X68930Y-50810D02*
X66780Y-50810D01*
X69700Y-51580D02*
X68930Y-50810D01*
X70915Y-50655D02*
X70915Y-50755D01*
X70915Y-50755D02*
X70090Y-51580D01*
X70090Y-51580D02*
X70090Y-52100D01*
X69275Y-52915D02*
X68735Y-52915D01*
X70090Y-52100D02*
X69275Y-52915D01*
X69915Y-49655D02*
X68245Y-49655D01*
X68245Y-49655D02*
X68100Y-49800D01*
X63543Y-27807D02*
X63543Y-34093D01*
X63543Y-34093D02*
X63543Y-35213D01*
X63543Y-35213D02*
X64100Y-35770D01*
X61680Y-26735D02*
X61430Y-26485D01*
X61430Y-26485D02*
X61430Y-25180D01*
X61430Y-25180D02*
X61790Y-24820D01*
X61790Y-24820D02*
X62660Y-24820D01*
X62660Y-24820D02*
X63050Y-25210D01*
X63050Y-25210D02*
X63050Y-26095D01*
X63050Y-26095D02*
X63575Y-26620D01*
X63575Y-26620D02*
X64940Y-26620D01*
X64940Y-26620D02*
X65315Y-26245D01*
X65315Y-26245D02*
X65315Y-25090D01*
X65315Y-25090D02*
X65480Y-24925D01*
X65480Y-24925D02*
X66741Y-24925D01*
X66741Y-24925D02*
X66915Y-25099D01*
X66915Y-25099D02*
X66915Y-26610D01*
X66915Y-26610D02*
X66050Y-27475D01*
X66050Y-27475D02*
X63875Y-27475D01*
X63875Y-27475D02*
X63543Y-27807D01*
X61680Y-28580D02*
X61680Y-26735D01*
X68375Y-36945D02*
X67775Y-36945D01*
X65130Y-35770D02*
X64100Y-35770D01*
X65600Y-36240D02*
X65130Y-35770D01*
X67070Y-36240D02*
X65600Y-36240D01*
X67775Y-36945D02*
X67070Y-36240D01*
X69915Y-49655D02*
X69915Y-44620D01*
X68375Y-38260D02*
X68375Y-36945D01*
X68860Y-38745D02*
X68375Y-38260D01*
X70225Y-38745D02*
X68860Y-38745D01*
X71205Y-39725D02*
X70225Y-38745D01*
X71205Y-43330D02*
X71205Y-39725D01*
X69915Y-44620D02*
X71205Y-43330D01*
X64390Y-34012D02*
X64026Y-34012D01*
X61682Y-34420D02*
X61640Y-34420D01*
X62090Y-34012D02*
X61682Y-34420D01*
X64026Y-34012D02*
X64004Y-34034D01*
X62350Y-52150D02*
X61350Y-52150D01*
X61350Y-52150D02*
X60350Y-52150D01*
X60350Y-52150D02*
X59770Y-52150D01*
X53505Y-49520D02*
X52900Y-49520D01*
X54305Y-50320D02*
X53505Y-49520D01*
X54820Y-50320D02*
X54305Y-50320D01*
X56850Y-52350D02*
X54820Y-50320D01*
X59570Y-52350D02*
X56850Y-52350D01*
X59770Y-52150D02*
X59570Y-52350D01*
X42515Y-55495D02*
X41985Y-55495D01*
X43455Y-54555D02*
X42515Y-55495D01*
X40430Y-51245D02*
X40050Y-50865D01*
X53290Y-24160D02*
X51410Y-24160D01*
X51410Y-24160D02*
X51320Y-24070D01*
X51320Y-24070D02*
X41250Y-24070D01*
X41250Y-24070D02*
X40880Y-24440D01*
X40880Y-24440D02*
X39280Y-24440D01*
X39280Y-24440D02*
X38900Y-24820D01*
X38900Y-24820D02*
X38900Y-50000D01*
X38900Y-50000D02*
X39765Y-50865D01*
X39765Y-50865D02*
X40050Y-50865D01*
X43455Y-51720D02*
X45655Y-49520D01*
X45655Y-49520D02*
X45900Y-49520D01*
X43455Y-51720D02*
X43455Y-54555D01*
X40460Y-51275D02*
X40430Y-51245D01*
X40460Y-52825D02*
X40460Y-51275D01*
X40745Y-53110D02*
X40460Y-52825D01*
X41225Y-53110D02*
X40745Y-53110D01*
X41470Y-53355D02*
X41225Y-53110D01*
X41470Y-54980D02*
X41470Y-53355D01*
X41985Y-55495D02*
X41470Y-54980D01*
X68980Y-34380D02*
X68980Y-34620D01*
X68980Y-34620D02*
X68540Y-35060D01*
X68540Y-35060D02*
X64670Y-35060D01*
X64670Y-35060D02*
X64390Y-34780D01*
X64390Y-34780D02*
X64390Y-34420D01*
X67770Y-32250D02*
X67770Y-32650D01*
X64390Y-34420D02*
X64390Y-34012D01*
X64390Y-34012D02*
X64390Y-32400D01*
X64390Y-32400D02*
X65120Y-31670D01*
X65120Y-31670D02*
X67190Y-31670D01*
X67190Y-31670D02*
X67770Y-32250D01*
X61695Y-30460D02*
X61695Y-31485D01*
X61695Y-31485D02*
X61800Y-31590D01*
X61695Y-30460D02*
X61000Y-30460D01*
X60680Y-30140D02*
X60040Y-30140D01*
X61000Y-30460D02*
X60680Y-30140D01*
X60600Y-35800D02*
X61335Y-35800D01*
X61335Y-35800D02*
X61670Y-35465D01*
X61670Y-35465D02*
X61670Y-34450D01*
X61670Y-34450D02*
X61640Y-34420D01*
X60040Y-30630D02*
X60516Y-31106D01*
X61640Y-34420D02*
X60660Y-33440D01*
X60660Y-33440D02*
X60660Y-31250D01*
X60660Y-31250D02*
X60516Y-31106D01*
X60040Y-30630D02*
X60040Y-30140D01*
X60540Y-27020D02*
X60540Y-26828D01*
X60540Y-26828D02*
X60626Y-26742D01*
X60626Y-26742D02*
X60626Y-24646D01*
X60373Y-24393D02*
X60140Y-24160D01*
X60626Y-24646D02*
X60373Y-24393D01*
X60140Y-24160D02*
X53290Y-24160D01*
X60540Y-28040D02*
X60540Y-27020D01*
X59920Y-28660D02*
X60540Y-28040D01*
X59920Y-30140D02*
X59920Y-28660D01*
X60600Y-35800D02*
X60695Y-35800D01*
X59600Y-35800D02*
X60600Y-35800D01*
X45900Y-49520D02*
X46900Y-49520D01*
X46900Y-49520D02*
X47900Y-49520D01*
X47900Y-49520D02*
X48900Y-49520D01*
X48900Y-49520D02*
X49900Y-49520D01*
X49900Y-49520D02*
X50900Y-49520D01*
X50900Y-49520D02*
X51900Y-49520D01*
X51900Y-49520D02*
X52900Y-49520D01*
X60040Y-30140D02*
X59920Y-30140D01*
X52360Y-32460D02*
X53040Y-33140D01*
X52360Y-29660D02*
X52360Y-32460D01*
X52720Y-29300D02*
X52360Y-29660D01*
X53100Y-29300D02*
X52720Y-29300D01*
X53580Y-28820D02*
X53100Y-29300D01*
X53580Y-27360D02*
X53580Y-28820D01*
X52660Y-26440D02*
X53580Y-27360D01*
X52660Y-24790D02*
X52660Y-26440D01*
X53290Y-24160D02*
X52660Y-24790D01*
X59920Y-30140D02*
X59920Y-30140D01*
X50300Y-37200D02*
X50300Y-36580D01*
X50200Y-36600D02*
X50200Y-36580D01*
X50280Y-36600D02*
X50200Y-36600D01*
X50300Y-36580D02*
X50280Y-36600D01*
X43780Y-36580D02*
X50200Y-36580D01*
X50200Y-36580D02*
X51840Y-36580D01*
X51840Y-36580D02*
X52740Y-36580D01*
X43000Y-37360D02*
X43780Y-36580D01*
X43000Y-38080D02*
X43000Y-37360D01*
X42660Y-38420D02*
X43000Y-38080D01*
X42660Y-40560D02*
X42660Y-38420D01*
X42160Y-41060D02*
X42660Y-40560D01*
X42160Y-43240D02*
X42160Y-41060D01*
X41600Y-43800D02*
X42160Y-43240D01*
X41600Y-48640D02*
X41600Y-43800D01*
X41220Y-49020D02*
X41600Y-48640D01*
X41220Y-50140D02*
X41220Y-49020D01*
X40860Y-50500D02*
X41220Y-50140D01*
X39940Y-50500D02*
X40860Y-50500D01*
X52740Y-36580D02*
X52910Y-36410D01*
X39500Y-50060D02*
X39940Y-50500D01*
X54570Y-31570D02*
X54570Y-29410D01*
X54570Y-29410D02*
X54080Y-28920D01*
X54676Y-35888D02*
X54388Y-35888D01*
X54388Y-35888D02*
X53540Y-35040D01*
X39500Y-49600D02*
X39500Y-46100D01*
X39500Y-46100D02*
X39500Y-42600D01*
X39500Y-42600D02*
X39500Y-39100D01*
X39500Y-39100D02*
X39500Y-35600D01*
X39500Y-35600D02*
X39500Y-32100D01*
X39500Y-32100D02*
X39500Y-28600D01*
X39500Y-28600D02*
X39500Y-25100D01*
X39500Y-49600D02*
X39500Y-50060D01*
X52910Y-36410D02*
X52910Y-35670D01*
X53200Y-24860D02*
X53200Y-25020D01*
X59990Y-31550D02*
X59540Y-31100D01*
X59540Y-31100D02*
X59540Y-28624D01*
X59540Y-28624D02*
X60060Y-28104D01*
X60060Y-28104D02*
X60060Y-26740D01*
X60060Y-26740D02*
X60355Y-26445D01*
X60355Y-26445D02*
X60355Y-24895D01*
X60355Y-24895D02*
X59920Y-24460D01*
X59920Y-24460D02*
X53600Y-24460D01*
X53600Y-24460D02*
X53200Y-24860D01*
X53040Y-29960D02*
X53040Y-30140D01*
X54140Y-28860D02*
X54080Y-28920D01*
X54080Y-28920D02*
X53040Y-29960D01*
X54140Y-27360D02*
X54140Y-28860D01*
X52918Y-26138D02*
X54140Y-27360D01*
X52918Y-25301D02*
X52918Y-26138D01*
X53200Y-25020D02*
X52918Y-25301D01*
X60040Y-31620D02*
X60040Y-31760D01*
X60040Y-31760D02*
X60040Y-31900D01*
X60040Y-31900D02*
X60040Y-33140D01*
X53040Y-30140D02*
X53040Y-31620D01*
X53040Y-31620D02*
X53540Y-32120D01*
X53540Y-32120D02*
X53540Y-35040D01*
X53540Y-35040D02*
X52910Y-35670D01*
G54D10*
G36*
X55091Y-37795D02*
X54626Y-38261D01*
X54626Y-37350D01*
X54626Y-36938D01*
X54213Y-36938D01*
X54151Y-37000D01*
X54150Y-37212D01*
X54188Y-37304D01*
X54259Y-37374D01*
X54351Y-37412D01*
X54450Y-37413D01*
X54563Y-37413D01*
X54626Y-37350D01*
X54626Y-38261D01*
X54613Y-38273D01*
X54538Y-38386D01*
X54511Y-38520D01*
X54511Y-39044D01*
X54443Y-39072D01*
X54373Y-39143D01*
X54335Y-39235D01*
X54334Y-39334D01*
X54334Y-39884D01*
X54372Y-39976D01*
X54443Y-40046D01*
X54535Y-40084D01*
X54547Y-40084D01*
X54547Y-40648D01*
X54500Y-40680D01*
X54396Y-40835D01*
X54394Y-40829D01*
X54256Y-40658D01*
X54064Y-40553D01*
X54032Y-40546D01*
X53946Y-40595D01*
X53946Y-41180D01*
X53953Y-41180D01*
X53953Y-41280D01*
X53946Y-41280D01*
X53946Y-41287D01*
X53846Y-41287D01*
X53846Y-41280D01*
X53838Y-41280D01*
X53838Y-41180D01*
X53846Y-41180D01*
X53846Y-40595D01*
X53759Y-40546D01*
X53727Y-40553D01*
X53535Y-40658D01*
X53470Y-40739D01*
X53470Y-38860D01*
X53470Y-38720D01*
X53470Y-38620D01*
X53470Y-38480D01*
X53408Y-38269D01*
X53270Y-38098D01*
X53078Y-37993D01*
X53046Y-37986D01*
X52960Y-38035D01*
X52960Y-38620D01*
X53470Y-38620D01*
X53470Y-38720D01*
X52960Y-38720D01*
X52960Y-39304D01*
X53046Y-39353D01*
X53078Y-39346D01*
X53270Y-39241D01*
X53408Y-39070D01*
X53470Y-38860D01*
X53470Y-40739D01*
X53397Y-40829D01*
X53395Y-40835D01*
X53291Y-40680D01*
X53110Y-40558D01*
X52896Y-40516D01*
X52681Y-40558D01*
X52500Y-40680D01*
X52396Y-40835D01*
X52291Y-40680D01*
X52244Y-40648D01*
X52244Y-40387D01*
X52350Y-40281D01*
X52430Y-40088D01*
X52431Y-39880D01*
X52351Y-39687D01*
X52258Y-39594D01*
X52258Y-39251D01*
X52305Y-39219D01*
X52409Y-39064D01*
X52411Y-39070D01*
X52549Y-39241D01*
X52741Y-39346D01*
X52773Y-39353D01*
X52860Y-39304D01*
X52860Y-38720D01*
X52852Y-38720D01*
X52852Y-38620D01*
X52860Y-38620D01*
X52860Y-38035D01*
X52773Y-37986D01*
X52741Y-37993D01*
X52549Y-38098D01*
X52411Y-38269D01*
X52409Y-38275D01*
X52305Y-38120D01*
X52124Y-37998D01*
X51910Y-37956D01*
X51695Y-37998D01*
X51597Y-38064D01*
X51597Y-37567D01*
X51300Y-37270D01*
X51002Y-37567D01*
X51027Y-37660D01*
X51224Y-37729D01*
X51432Y-37718D01*
X51572Y-37660D01*
X51597Y-37567D01*
X51597Y-38064D01*
X51514Y-38120D01*
X51410Y-38275D01*
X51305Y-38120D01*
X51124Y-37998D01*
X50910Y-37956D01*
X50695Y-37998D01*
X50514Y-38120D01*
X50409Y-38275D01*
X50305Y-38120D01*
X50124Y-37998D01*
X49910Y-37956D01*
X49695Y-37998D01*
X49514Y-38120D01*
X49409Y-38275D01*
X49305Y-38120D01*
X49124Y-37998D01*
X48910Y-37956D01*
X48695Y-37998D01*
X48514Y-38120D01*
X48409Y-38275D01*
X48305Y-38120D01*
X48124Y-37998D01*
X47910Y-37956D01*
X47695Y-37998D01*
X47514Y-38120D01*
X47409Y-38275D01*
X47305Y-38120D01*
X47124Y-37998D01*
X46910Y-37956D01*
X46695Y-37998D01*
X46514Y-38120D01*
X46409Y-38275D01*
X46305Y-38120D01*
X46124Y-37998D01*
X45910Y-37956D01*
X45695Y-37998D01*
X45514Y-38120D01*
X45470Y-38186D01*
X45470Y-38170D01*
X45432Y-38078D01*
X45361Y-38008D01*
X45269Y-37970D01*
X45170Y-37969D01*
X44550Y-37969D01*
X44458Y-38007D01*
X44388Y-38078D01*
X44350Y-38170D01*
X44349Y-38269D01*
X44349Y-39169D01*
X44387Y-39261D01*
X44458Y-39331D01*
X44550Y-39369D01*
X44561Y-39369D01*
X44561Y-39467D01*
X44489Y-39496D01*
X44419Y-39567D01*
X44381Y-39659D01*
X44380Y-39758D01*
X44380Y-40308D01*
X44418Y-40400D01*
X44489Y-40470D01*
X44547Y-40495D01*
X44547Y-40648D01*
X44500Y-40680D01*
X44378Y-40861D01*
X44336Y-41076D01*
X44336Y-41383D01*
X44378Y-41598D01*
X44500Y-41779D01*
X44681Y-41901D01*
X44896Y-41943D01*
X45086Y-41905D01*
X45133Y-41976D01*
X45553Y-42396D01*
X45666Y-42471D01*
X45666Y-42471D01*
X45800Y-42498D01*
X46645Y-42498D01*
X46692Y-42544D01*
X46692Y-42851D01*
X46734Y-43066D01*
X46856Y-43247D01*
X47037Y-43369D01*
X47252Y-43411D01*
X47466Y-43369D01*
X47647Y-43247D01*
X47752Y-43092D01*
X47856Y-43247D01*
X48037Y-43369D01*
X48252Y-43411D01*
X48466Y-43369D01*
X48647Y-43247D01*
X48752Y-43092D01*
X48856Y-43247D01*
X49037Y-43369D01*
X49252Y-43411D01*
X49466Y-43369D01*
X49647Y-43247D01*
X49752Y-43092D01*
X49856Y-43247D01*
X50037Y-43369D01*
X50252Y-43411D01*
X50466Y-43369D01*
X50647Y-43247D01*
X50752Y-43092D01*
X50856Y-43247D01*
X51037Y-43369D01*
X51252Y-43411D01*
X51466Y-43369D01*
X51647Y-43247D01*
X51752Y-43092D01*
X51856Y-43247D01*
X52037Y-43369D01*
X52252Y-43411D01*
X52466Y-43369D01*
X52647Y-43247D01*
X52752Y-43092D01*
X52856Y-43247D01*
X53037Y-43369D01*
X53252Y-43411D01*
X53466Y-43369D01*
X53647Y-43247D01*
X53752Y-43092D01*
X53856Y-43247D01*
X54037Y-43369D01*
X54104Y-43382D01*
X53706Y-43781D01*
X53706Y-43781D01*
X53681Y-43805D01*
X45998Y-43805D01*
X45066Y-42873D01*
X44953Y-42798D01*
X44820Y-42771D01*
X44060Y-42771D01*
X43250Y-42771D01*
X43249Y-42771D01*
X43116Y-42798D01*
X43003Y-42873D01*
X43003Y-42873D01*
X42438Y-43439D01*
X42481Y-43373D01*
X42508Y-43240D01*
X42508Y-41204D01*
X42906Y-40806D01*
X42981Y-40693D01*
X42981Y-40693D01*
X43008Y-40560D01*
X43008Y-38564D01*
X43246Y-38326D01*
X43246Y-38326D01*
X43246Y-38326D01*
X43321Y-38213D01*
X43348Y-38080D01*
X43348Y-38080D01*
X43348Y-38080D01*
X43348Y-37504D01*
X43924Y-36928D01*
X49844Y-36928D01*
X49775Y-37095D01*
X49774Y-37303D01*
X49854Y-37497D01*
X50002Y-37644D01*
X50195Y-37724D01*
X50403Y-37725D01*
X50597Y-37645D01*
X50744Y-37497D01*
X50797Y-37371D01*
X50839Y-37472D01*
X50932Y-37497D01*
X51229Y-37200D01*
X51223Y-37194D01*
X51294Y-37123D01*
X51300Y-37129D01*
X51305Y-37123D01*
X51376Y-37194D01*
X51370Y-37200D01*
X51667Y-37497D01*
X51760Y-37472D01*
X51829Y-37275D01*
X51818Y-37067D01*
X51761Y-36928D01*
X51840Y-36928D01*
X52740Y-36928D01*
X52873Y-36901D01*
X52873Y-36901D01*
X52986Y-36826D01*
X53156Y-36656D01*
X53231Y-36543D01*
X53258Y-36410D01*
X53258Y-36251D01*
X53305Y-36219D01*
X53427Y-36038D01*
X53470Y-35823D01*
X53470Y-35602D01*
X53539Y-35532D01*
X54141Y-36134D01*
X54141Y-36134D01*
X54254Y-36209D01*
X54255Y-36210D01*
X54378Y-36332D01*
X54450Y-36362D01*
X54450Y-36362D01*
X54351Y-36363D01*
X54259Y-36401D01*
X54188Y-36471D01*
X54150Y-36563D01*
X54151Y-36775D01*
X54213Y-36838D01*
X54626Y-36838D01*
X54626Y-36830D01*
X54726Y-36830D01*
X54726Y-36838D01*
X54733Y-36838D01*
X54733Y-36938D01*
X54726Y-36938D01*
X54726Y-37350D01*
X54788Y-37413D01*
X54901Y-37413D01*
X55000Y-37412D01*
X55091Y-37375D01*
X55091Y-37795D01*
X55091Y-37795D01*
G37*
G54D29*
X55091Y-37795D02*
X54626Y-38261D01*
X54626Y-37350D01*
X54626Y-36938D01*
X54213Y-36938D01*
X54151Y-37000D01*
X54150Y-37212D01*
X54188Y-37304D01*
X54259Y-37374D01*
X54351Y-37412D01*
X54450Y-37413D01*
X54563Y-37413D01*
X54626Y-37350D01*
X54626Y-38261D01*
X54613Y-38273D01*
X54538Y-38386D01*
X54511Y-38520D01*
X54511Y-39044D01*
X54443Y-39072D01*
X54373Y-39143D01*
X54335Y-39235D01*
X54334Y-39334D01*
X54334Y-39884D01*
X54372Y-39976D01*
X54443Y-40046D01*
X54535Y-40084D01*
X54547Y-40084D01*
X54547Y-40648D01*
X54500Y-40680D01*
X54396Y-40835D01*
X54394Y-40829D01*
X54256Y-40658D01*
X54064Y-40553D01*
X54032Y-40546D01*
X53946Y-40595D01*
X53946Y-41180D01*
X53953Y-41180D01*
X53953Y-41280D01*
X53946Y-41280D01*
X53946Y-41287D01*
X53846Y-41287D01*
X53846Y-41280D01*
X53838Y-41280D01*
X53838Y-41180D01*
X53846Y-41180D01*
X53846Y-40595D01*
X53759Y-40546D01*
X53727Y-40553D01*
X53535Y-40658D01*
X53470Y-40739D01*
X53470Y-38860D01*
X53470Y-38720D01*
X53470Y-38620D01*
X53470Y-38480D01*
X53408Y-38269D01*
X53270Y-38098D01*
X53078Y-37993D01*
X53046Y-37986D01*
X52960Y-38035D01*
X52960Y-38620D01*
X53470Y-38620D01*
X53470Y-38720D01*
X52960Y-38720D01*
X52960Y-39304D01*
X53046Y-39353D01*
X53078Y-39346D01*
X53270Y-39241D01*
X53408Y-39070D01*
X53470Y-38860D01*
X53470Y-40739D01*
X53397Y-40829D01*
X53395Y-40835D01*
X53291Y-40680D01*
X53110Y-40558D01*
X52896Y-40516D01*
X52681Y-40558D01*
X52500Y-40680D01*
X52396Y-40835D01*
X52291Y-40680D01*
X52244Y-40648D01*
X52244Y-40387D01*
X52350Y-40281D01*
X52430Y-40088D01*
X52431Y-39880D01*
X52351Y-39687D01*
X52258Y-39594D01*
X52258Y-39251D01*
X52305Y-39219D01*
X52409Y-39064D01*
X52411Y-39070D01*
X52549Y-39241D01*
X52741Y-39346D01*
X52773Y-39353D01*
X52860Y-39304D01*
X52860Y-38720D01*
X52852Y-38720D01*
X52852Y-38620D01*
X52860Y-38620D01*
X52860Y-38035D01*
X52773Y-37986D01*
X52741Y-37993D01*
X52549Y-38098D01*
X52411Y-38269D01*
X52409Y-38275D01*
X52305Y-38120D01*
X52124Y-37998D01*
X51910Y-37956D01*
X51695Y-37998D01*
X51597Y-38064D01*
X51597Y-37567D01*
X51300Y-37270D01*
X51002Y-37567D01*
X51027Y-37660D01*
X51224Y-37729D01*
X51432Y-37718D01*
X51572Y-37660D01*
X51597Y-37567D01*
X51597Y-38064D01*
X51514Y-38120D01*
X51410Y-38275D01*
X51305Y-38120D01*
X51124Y-37998D01*
X50910Y-37956D01*
X50695Y-37998D01*
X50514Y-38120D01*
X50409Y-38275D01*
X50305Y-38120D01*
X50124Y-37998D01*
X49910Y-37956D01*
X49695Y-37998D01*
X49514Y-38120D01*
X49409Y-38275D01*
X49305Y-38120D01*
X49124Y-37998D01*
X48910Y-37956D01*
X48695Y-37998D01*
X48514Y-38120D01*
X48409Y-38275D01*
X48305Y-38120D01*
X48124Y-37998D01*
X47910Y-37956D01*
X47695Y-37998D01*
X47514Y-38120D01*
X47409Y-38275D01*
X47305Y-38120D01*
X47124Y-37998D01*
X46910Y-37956D01*
X46695Y-37998D01*
X46514Y-38120D01*
X46409Y-38275D01*
X46305Y-38120D01*
X46124Y-37998D01*
X45910Y-37956D01*
X45695Y-37998D01*
X45514Y-38120D01*
X45470Y-38186D01*
X45470Y-38170D01*
X45432Y-38078D01*
X45361Y-38008D01*
X45269Y-37970D01*
X45170Y-37969D01*
X44550Y-37969D01*
X44458Y-38007D01*
X44388Y-38078D01*
X44350Y-38170D01*
X44349Y-38269D01*
X44349Y-39169D01*
X44387Y-39261D01*
X44458Y-39331D01*
X44550Y-39369D01*
X44561Y-39369D01*
X44561Y-39467D01*
X44489Y-39496D01*
X44419Y-39567D01*
X44381Y-39659D01*
X44380Y-39758D01*
X44380Y-40308D01*
X44418Y-40400D01*
X44489Y-40470D01*
X44547Y-40495D01*
X44547Y-40648D01*
X44500Y-40680D01*
X44378Y-40861D01*
X44336Y-41076D01*
X44336Y-41383D01*
X44378Y-41598D01*
X44500Y-41779D01*
X44681Y-41901D01*
X44896Y-41943D01*
X45086Y-41905D01*
X45133Y-41976D01*
X45553Y-42396D01*
X45666Y-42471D01*
X45666Y-42471D01*
X45800Y-42498D01*
X46645Y-42498D01*
X46692Y-42544D01*
X46692Y-42851D01*
X46734Y-43066D01*
X46856Y-43247D01*
X47037Y-43369D01*
X47252Y-43411D01*
X47466Y-43369D01*
X47647Y-43247D01*
X47752Y-43092D01*
X47856Y-43247D01*
X48037Y-43369D01*
X48252Y-43411D01*
X48466Y-43369D01*
X48647Y-43247D01*
X48752Y-43092D01*
X48856Y-43247D01*
X49037Y-43369D01*
X49252Y-43411D01*
X49466Y-43369D01*
X49647Y-43247D01*
X49752Y-43092D01*
X49856Y-43247D01*
X50037Y-43369D01*
X50252Y-43411D01*
X50466Y-43369D01*
X50647Y-43247D01*
X50752Y-43092D01*
X50856Y-43247D01*
X51037Y-43369D01*
X51252Y-43411D01*
X51466Y-43369D01*
X51647Y-43247D01*
X51752Y-43092D01*
X51856Y-43247D01*
X52037Y-43369D01*
X52252Y-43411D01*
X52466Y-43369D01*
X52647Y-43247D01*
X52752Y-43092D01*
X52856Y-43247D01*
X53037Y-43369D01*
X53252Y-43411D01*
X53466Y-43369D01*
X53647Y-43247D01*
X53752Y-43092D01*
X53856Y-43247D01*
X54037Y-43369D01*
X54104Y-43382D01*
X53706Y-43781D01*
X53706Y-43781D01*
X53681Y-43805D01*
X45998Y-43805D01*
X45066Y-42873D01*
X44953Y-42798D01*
X44820Y-42771D01*
X44060Y-42771D01*
X43250Y-42771D01*
X43249Y-42771D01*
X43116Y-42798D01*
X43003Y-42873D01*
X43003Y-42873D01*
X42438Y-43439D01*
X42481Y-43373D01*
X42508Y-43240D01*
X42508Y-41204D01*
X42906Y-40806D01*
X42981Y-40693D01*
X42981Y-40693D01*
X43008Y-40560D01*
X43008Y-38564D01*
X43246Y-38326D01*
X43246Y-38326D01*
X43246Y-38326D01*
X43321Y-38213D01*
X43348Y-38080D01*
X43348Y-38080D01*
X43348Y-38080D01*
X43348Y-37504D01*
X43924Y-36928D01*
X49844Y-36928D01*
X49775Y-37095D01*
X49774Y-37303D01*
X49854Y-37497D01*
X50002Y-37644D01*
X50195Y-37724D01*
X50403Y-37725D01*
X50597Y-37645D01*
X50744Y-37497D01*
X50797Y-37371D01*
X50839Y-37472D01*
X50932Y-37497D01*
X51229Y-37200D01*
X51223Y-37194D01*
X51294Y-37123D01*
X51300Y-37129D01*
X51305Y-37123D01*
X51376Y-37194D01*
X51370Y-37200D01*
X51667Y-37497D01*
X51760Y-37472D01*
X51829Y-37275D01*
X51818Y-37067D01*
X51761Y-36928D01*
X51840Y-36928D01*
X52740Y-36928D01*
X52873Y-36901D01*
X52873Y-36901D01*
X52986Y-36826D01*
X53156Y-36656D01*
X53231Y-36543D01*
X53258Y-36410D01*
X53258Y-36251D01*
X53305Y-36219D01*
X53427Y-36038D01*
X53470Y-35823D01*
X53470Y-35602D01*
X53539Y-35532D01*
X54141Y-36134D01*
X54141Y-36134D01*
X54254Y-36209D01*
X54255Y-36210D01*
X54378Y-36332D01*
X54450Y-36362D01*
X54450Y-36362D01*
X54351Y-36363D01*
X54259Y-36401D01*
X54188Y-36471D01*
X54150Y-36563D01*
X54151Y-36775D01*
X54213Y-36838D01*
X54626Y-36838D01*
X54626Y-36830D01*
X54726Y-36830D01*
X54726Y-36838D01*
X54733Y-36838D01*
X54733Y-36938D01*
X54726Y-36938D01*
X54726Y-37350D01*
X54788Y-37413D01*
X54901Y-37413D01*
X55000Y-37412D01*
X55091Y-37375D01*
X55091Y-37795D01*
G54D10*
G36*
X55953Y-47280D02*
X55946Y-47280D01*
X55946Y-47287D01*
X55846Y-47287D01*
X55846Y-47280D01*
X55838Y-47280D01*
X55838Y-47180D01*
X55846Y-47180D01*
X55846Y-47172D01*
X55946Y-47172D01*
X55946Y-47180D01*
X55953Y-47180D01*
X55953Y-47280D01*
X55953Y-47280D01*
G37*
G54D29*
X55953Y-47280D02*
X55946Y-47280D01*
X55946Y-47287D01*
X55846Y-47287D01*
X55846Y-47280D01*
X55838Y-47280D01*
X55838Y-47180D01*
X55846Y-47180D01*
X55846Y-47172D01*
X55946Y-47172D01*
X55946Y-47180D01*
X55953Y-47180D01*
X55953Y-47280D01*
G54D10*
G36*
X56547Y-40648D02*
X56500Y-40680D01*
X56396Y-40835D01*
X56291Y-40680D01*
X56244Y-40648D01*
X56244Y-39917D01*
X56304Y-39857D01*
X56360Y-39724D01*
X56414Y-39857D01*
X56547Y-39990D01*
X56547Y-40648D01*
X56547Y-40648D01*
G37*
G54D29*
X56547Y-40648D02*
X56500Y-40680D01*
X56396Y-40835D01*
X56291Y-40680D01*
X56244Y-40648D01*
X56244Y-39917D01*
X56304Y-39857D01*
X56360Y-39724D01*
X56414Y-39857D01*
X56547Y-39990D01*
X56547Y-40648D01*
G54D10*
G36*
X56751Y-51506D02*
X56655Y-51602D01*
X56637Y-51644D01*
X55066Y-50073D01*
X54953Y-49998D01*
X54820Y-49971D01*
X54449Y-49971D01*
X54402Y-49924D01*
X54506Y-49881D01*
X54660Y-49726D01*
X54744Y-49524D01*
X54745Y-49306D01*
X54661Y-49103D01*
X54543Y-48985D01*
X54543Y-48563D01*
X54594Y-48687D01*
X54742Y-48834D01*
X54935Y-48914D01*
X55143Y-48915D01*
X55337Y-48835D01*
X55484Y-48687D01*
X55537Y-48561D01*
X55579Y-48662D01*
X55672Y-48687D01*
X55969Y-48390D01*
X55672Y-48092D01*
X55579Y-48117D01*
X55540Y-48227D01*
X55485Y-48093D01*
X55388Y-47995D01*
X55388Y-47635D01*
X55395Y-47624D01*
X55397Y-47630D01*
X55535Y-47801D01*
X55727Y-47906D01*
X55759Y-47913D01*
X55845Y-47864D01*
X55845Y-47896D01*
X55767Y-47929D01*
X55742Y-48022D01*
X56040Y-48319D01*
X56337Y-48022D01*
X56312Y-47929D01*
X56136Y-47867D01*
X56256Y-47801D01*
X56394Y-47630D01*
X56396Y-47624D01*
X56500Y-47779D01*
X56547Y-47811D01*
X56547Y-48230D01*
X56500Y-48117D01*
X56407Y-48092D01*
X56110Y-48390D01*
X56407Y-48687D01*
X56500Y-48662D01*
X56547Y-48529D01*
X56547Y-49393D01*
X56502Y-49402D01*
X56337Y-49513D01*
X56337Y-48757D01*
X56040Y-48460D01*
X55742Y-48757D01*
X55767Y-48850D01*
X55964Y-48919D01*
X56172Y-48908D01*
X56312Y-48850D01*
X56337Y-48757D01*
X56337Y-49513D01*
X56293Y-49541D01*
X56154Y-49750D01*
X56105Y-49996D01*
X56105Y-50223D01*
X56154Y-50469D01*
X56293Y-50678D01*
X56502Y-50817D01*
X56749Y-50866D01*
X56751Y-50866D01*
X56751Y-51506D01*
X56751Y-51506D01*
G37*
G54D29*
X56751Y-51506D02*
X56655Y-51602D01*
X56637Y-51644D01*
X55066Y-50073D01*
X54953Y-49998D01*
X54820Y-49971D01*
X54449Y-49971D01*
X54402Y-49924D01*
X54506Y-49881D01*
X54660Y-49726D01*
X54744Y-49524D01*
X54745Y-49306D01*
X54661Y-49103D01*
X54543Y-48985D01*
X54543Y-48563D01*
X54594Y-48687D01*
X54742Y-48834D01*
X54935Y-48914D01*
X55143Y-48915D01*
X55337Y-48835D01*
X55484Y-48687D01*
X55537Y-48561D01*
X55579Y-48662D01*
X55672Y-48687D01*
X55969Y-48390D01*
X55672Y-48092D01*
X55579Y-48117D01*
X55540Y-48227D01*
X55485Y-48093D01*
X55388Y-47995D01*
X55388Y-47635D01*
X55395Y-47624D01*
X55397Y-47630D01*
X55535Y-47801D01*
X55727Y-47906D01*
X55759Y-47913D01*
X55845Y-47864D01*
X55845Y-47896D01*
X55767Y-47929D01*
X55742Y-48022D01*
X56040Y-48319D01*
X56337Y-48022D01*
X56312Y-47929D01*
X56136Y-47867D01*
X56256Y-47801D01*
X56394Y-47630D01*
X56396Y-47624D01*
X56500Y-47779D01*
X56547Y-47811D01*
X56547Y-48230D01*
X56500Y-48117D01*
X56407Y-48092D01*
X56110Y-48390D01*
X56407Y-48687D01*
X56500Y-48662D01*
X56547Y-48529D01*
X56547Y-49393D01*
X56502Y-49402D01*
X56337Y-49513D01*
X56337Y-48757D01*
X56040Y-48460D01*
X55742Y-48757D01*
X55767Y-48850D01*
X55964Y-48919D01*
X56172Y-48908D01*
X56312Y-48850D01*
X56337Y-48757D01*
X56337Y-49513D01*
X56293Y-49541D01*
X56154Y-49750D01*
X56105Y-49996D01*
X56105Y-50223D01*
X56154Y-50469D01*
X56293Y-50678D01*
X56502Y-50817D01*
X56749Y-50866D01*
X56751Y-50866D01*
X56751Y-51506D01*
G54D10*
G36*
X58371Y-28275D02*
X57793Y-28853D01*
X57718Y-28966D01*
X57691Y-29100D01*
X57691Y-29558D01*
X57644Y-29590D01*
X57540Y-29745D01*
X57538Y-29739D01*
X57400Y-29568D01*
X57208Y-29463D01*
X57176Y-29456D01*
X57090Y-29505D01*
X57090Y-30090D01*
X57097Y-30090D01*
X57097Y-30190D01*
X57090Y-30190D01*
X57090Y-30774D01*
X57176Y-30823D01*
X57208Y-30816D01*
X57400Y-30711D01*
X57538Y-30540D01*
X57540Y-30534D01*
X57644Y-30689D01*
X57825Y-30811D01*
X58040Y-30853D01*
X58191Y-30823D01*
X58191Y-31695D01*
X57793Y-32093D01*
X57718Y-32206D01*
X57691Y-32340D01*
X57691Y-32558D01*
X57644Y-32590D01*
X57540Y-32745D01*
X57538Y-32739D01*
X57400Y-32568D01*
X57208Y-32463D01*
X57176Y-32456D01*
X57090Y-32505D01*
X57090Y-33090D01*
X57097Y-33090D01*
X57097Y-33190D01*
X57090Y-33190D01*
X57090Y-33774D01*
X57176Y-33823D01*
X57208Y-33816D01*
X57400Y-33711D01*
X57538Y-33540D01*
X57540Y-33534D01*
X57644Y-33689D01*
X57825Y-33811D01*
X58040Y-33853D01*
X58119Y-33837D01*
X56990Y-34967D01*
X56990Y-33774D01*
X56990Y-33190D01*
X56990Y-33090D01*
X56990Y-32505D01*
X56990Y-30774D01*
X56990Y-30190D01*
X56600Y-30190D01*
X56480Y-30190D01*
X56090Y-30190D01*
X56090Y-30774D01*
X56176Y-30823D01*
X56208Y-30816D01*
X56400Y-30711D01*
X56538Y-30540D01*
X56540Y-30534D01*
X56541Y-30540D01*
X56679Y-30711D01*
X56871Y-30816D01*
X56903Y-30823D01*
X56990Y-30774D01*
X56990Y-32505D01*
X56903Y-32456D01*
X56871Y-32463D01*
X56679Y-32568D01*
X56541Y-32739D01*
X56540Y-32745D01*
X56538Y-32739D01*
X56400Y-32568D01*
X56208Y-32463D01*
X56176Y-32456D01*
X56099Y-32499D01*
X56099Y-31645D01*
X56088Y-31437D01*
X56030Y-31297D01*
X55937Y-31272D01*
X55640Y-31570D01*
X55937Y-31867D01*
X56030Y-31842D01*
X56099Y-31645D01*
X56099Y-32499D01*
X56090Y-32505D01*
X56090Y-33090D01*
X56480Y-33090D01*
X56600Y-33090D01*
X56990Y-33090D01*
X56990Y-33190D01*
X56600Y-33190D01*
X56480Y-33190D01*
X56090Y-33190D01*
X56090Y-33774D01*
X56176Y-33823D01*
X56208Y-33816D01*
X56400Y-33711D01*
X56538Y-33540D01*
X56540Y-33534D01*
X56541Y-33540D01*
X56679Y-33711D01*
X56871Y-33816D01*
X56903Y-33823D01*
X56990Y-33774D01*
X56990Y-34967D01*
X56613Y-35343D01*
X56538Y-35456D01*
X56511Y-35590D01*
X56511Y-39166D01*
X56415Y-39262D01*
X56359Y-39395D01*
X56305Y-39263D01*
X56208Y-39165D01*
X56208Y-38040D01*
X56181Y-37906D01*
X56181Y-37906D01*
X56106Y-37793D01*
X56088Y-37775D01*
X56088Y-34940D01*
X56061Y-34806D01*
X55986Y-34693D01*
X55386Y-34093D01*
X55273Y-34018D01*
X55140Y-33991D01*
X54888Y-33991D01*
X54888Y-33823D01*
X55040Y-33853D01*
X55254Y-33811D01*
X55435Y-33689D01*
X55539Y-33534D01*
X55541Y-33540D01*
X55679Y-33711D01*
X55871Y-33816D01*
X55903Y-33823D01*
X55990Y-33774D01*
X55990Y-33190D01*
X55982Y-33190D01*
X55982Y-33090D01*
X55990Y-33090D01*
X55990Y-32505D01*
X55903Y-32456D01*
X55871Y-32463D01*
X55679Y-32568D01*
X55541Y-32739D01*
X55539Y-32745D01*
X55435Y-32590D01*
X55388Y-32558D01*
X55388Y-32062D01*
X55494Y-32099D01*
X55702Y-32088D01*
X55842Y-32030D01*
X55867Y-31937D01*
X55570Y-31640D01*
X55564Y-31646D01*
X55493Y-31575D01*
X55499Y-31570D01*
X55493Y-31564D01*
X55564Y-31493D01*
X55570Y-31499D01*
X55867Y-31202D01*
X55842Y-31109D01*
X55724Y-31067D01*
X55766Y-31026D01*
X55841Y-30913D01*
X55841Y-30913D01*
X55862Y-30811D01*
X55871Y-30816D01*
X55903Y-30823D01*
X55990Y-30774D01*
X55990Y-30190D01*
X55982Y-30190D01*
X55982Y-30090D01*
X55990Y-30090D01*
X55990Y-30082D01*
X56090Y-30082D01*
X56090Y-30090D01*
X56480Y-30090D01*
X56600Y-30090D01*
X56990Y-30090D01*
X56990Y-29505D01*
X56903Y-29456D01*
X56871Y-29463D01*
X56679Y-29568D01*
X56541Y-29739D01*
X56540Y-29745D01*
X56538Y-29739D01*
X56400Y-29568D01*
X56208Y-29463D01*
X56176Y-29456D01*
X56175Y-29457D01*
X57916Y-27716D01*
X57991Y-27603D01*
X57991Y-27603D01*
X58018Y-27470D01*
X58018Y-26267D01*
X58094Y-26236D01*
X58305Y-26025D01*
X58371Y-25866D01*
X58371Y-28275D01*
X58371Y-28275D01*
G37*
G54D29*
X58371Y-28275D02*
X57793Y-28853D01*
X57718Y-28966D01*
X57691Y-29100D01*
X57691Y-29558D01*
X57644Y-29590D01*
X57540Y-29745D01*
X57538Y-29739D01*
X57400Y-29568D01*
X57208Y-29463D01*
X57176Y-29456D01*
X57090Y-29505D01*
X57090Y-30090D01*
X57097Y-30090D01*
X57097Y-30190D01*
X57090Y-30190D01*
X57090Y-30774D01*
X57176Y-30823D01*
X57208Y-30816D01*
X57400Y-30711D01*
X57538Y-30540D01*
X57540Y-30534D01*
X57644Y-30689D01*
X57825Y-30811D01*
X58040Y-30853D01*
X58191Y-30823D01*
X58191Y-31695D01*
X57793Y-32093D01*
X57718Y-32206D01*
X57691Y-32340D01*
X57691Y-32558D01*
X57644Y-32590D01*
X57540Y-32745D01*
X57538Y-32739D01*
X57400Y-32568D01*
X57208Y-32463D01*
X57176Y-32456D01*
X57090Y-32505D01*
X57090Y-33090D01*
X57097Y-33090D01*
X57097Y-33190D01*
X57090Y-33190D01*
X57090Y-33774D01*
X57176Y-33823D01*
X57208Y-33816D01*
X57400Y-33711D01*
X57538Y-33540D01*
X57540Y-33534D01*
X57644Y-33689D01*
X57825Y-33811D01*
X58040Y-33853D01*
X58119Y-33837D01*
X56990Y-34967D01*
X56990Y-33774D01*
X56990Y-33190D01*
X56990Y-33090D01*
X56990Y-32505D01*
X56990Y-30774D01*
X56990Y-30190D01*
X56600Y-30190D01*
X56480Y-30190D01*
X56090Y-30190D01*
X56090Y-30774D01*
X56176Y-30823D01*
X56208Y-30816D01*
X56400Y-30711D01*
X56538Y-30540D01*
X56540Y-30534D01*
X56541Y-30540D01*
X56679Y-30711D01*
X56871Y-30816D01*
X56903Y-30823D01*
X56990Y-30774D01*
X56990Y-32505D01*
X56903Y-32456D01*
X56871Y-32463D01*
X56679Y-32568D01*
X56541Y-32739D01*
X56540Y-32745D01*
X56538Y-32739D01*
X56400Y-32568D01*
X56208Y-32463D01*
X56176Y-32456D01*
X56099Y-32499D01*
X56099Y-31645D01*
X56088Y-31437D01*
X56030Y-31297D01*
X55937Y-31272D01*
X55640Y-31570D01*
X55937Y-31867D01*
X56030Y-31842D01*
X56099Y-31645D01*
X56099Y-32499D01*
X56090Y-32505D01*
X56090Y-33090D01*
X56480Y-33090D01*
X56600Y-33090D01*
X56990Y-33090D01*
X56990Y-33190D01*
X56600Y-33190D01*
X56480Y-33190D01*
X56090Y-33190D01*
X56090Y-33774D01*
X56176Y-33823D01*
X56208Y-33816D01*
X56400Y-33711D01*
X56538Y-33540D01*
X56540Y-33534D01*
X56541Y-33540D01*
X56679Y-33711D01*
X56871Y-33816D01*
X56903Y-33823D01*
X56990Y-33774D01*
X56990Y-34967D01*
X56613Y-35343D01*
X56538Y-35456D01*
X56511Y-35590D01*
X56511Y-39166D01*
X56415Y-39262D01*
X56359Y-39395D01*
X56305Y-39263D01*
X56208Y-39165D01*
X56208Y-38040D01*
X56181Y-37906D01*
X56181Y-37906D01*
X56106Y-37793D01*
X56088Y-37775D01*
X56088Y-34940D01*
X56061Y-34806D01*
X55986Y-34693D01*
X55386Y-34093D01*
X55273Y-34018D01*
X55140Y-33991D01*
X54888Y-33991D01*
X54888Y-33823D01*
X55040Y-33853D01*
X55254Y-33811D01*
X55435Y-33689D01*
X55539Y-33534D01*
X55541Y-33540D01*
X55679Y-33711D01*
X55871Y-33816D01*
X55903Y-33823D01*
X55990Y-33774D01*
X55990Y-33190D01*
X55982Y-33190D01*
X55982Y-33090D01*
X55990Y-33090D01*
X55990Y-32505D01*
X55903Y-32456D01*
X55871Y-32463D01*
X55679Y-32568D01*
X55541Y-32739D01*
X55539Y-32745D01*
X55435Y-32590D01*
X55388Y-32558D01*
X55388Y-32062D01*
X55494Y-32099D01*
X55702Y-32088D01*
X55842Y-32030D01*
X55867Y-31937D01*
X55570Y-31640D01*
X55564Y-31646D01*
X55493Y-31575D01*
X55499Y-31570D01*
X55493Y-31564D01*
X55564Y-31493D01*
X55570Y-31499D01*
X55867Y-31202D01*
X55842Y-31109D01*
X55724Y-31067D01*
X55766Y-31026D01*
X55841Y-30913D01*
X55841Y-30913D01*
X55862Y-30811D01*
X55871Y-30816D01*
X55903Y-30823D01*
X55990Y-30774D01*
X55990Y-30190D01*
X55982Y-30190D01*
X55982Y-30090D01*
X55990Y-30090D01*
X55990Y-30082D01*
X56090Y-30082D01*
X56090Y-30090D01*
X56480Y-30090D01*
X56600Y-30090D01*
X56990Y-30090D01*
X56990Y-29505D01*
X56903Y-29456D01*
X56871Y-29463D01*
X56679Y-29568D01*
X56541Y-29739D01*
X56540Y-29745D01*
X56538Y-29739D01*
X56400Y-29568D01*
X56208Y-29463D01*
X56176Y-29456D01*
X56175Y-29457D01*
X57916Y-27716D01*
X57991Y-27603D01*
X57991Y-27603D01*
X58018Y-27470D01*
X58018Y-26267D01*
X58094Y-26236D01*
X58305Y-26025D01*
X58371Y-25866D01*
X58371Y-28275D01*
G54D10*
G36*
X59195Y-34490D02*
X59118Y-34512D01*
X59045Y-34718D01*
X59056Y-34936D01*
X59062Y-34951D01*
X58986Y-34966D01*
X58873Y-35041D01*
X57613Y-36301D01*
X57538Y-36414D01*
X57511Y-36548D01*
X57511Y-39166D01*
X57415Y-39262D01*
X57359Y-39395D01*
X57305Y-39263D01*
X57208Y-39165D01*
X57208Y-35734D01*
X58764Y-34178D01*
X58793Y-34222D01*
X58961Y-34390D01*
X59074Y-34465D01*
X59074Y-34465D01*
X59195Y-34490D01*
X59195Y-34490D01*
G37*
G54D29*
X59195Y-34490D02*
X59118Y-34512D01*
X59045Y-34718D01*
X59056Y-34936D01*
X59062Y-34951D01*
X58986Y-34966D01*
X58873Y-35041D01*
X57613Y-36301D01*
X57538Y-36414D01*
X57511Y-36548D01*
X57511Y-39166D01*
X57415Y-39262D01*
X57359Y-39395D01*
X57305Y-39263D01*
X57208Y-39165D01*
X57208Y-35734D01*
X58764Y-34178D01*
X58793Y-34222D01*
X58961Y-34390D01*
X59074Y-34465D01*
X59074Y-34465D01*
X59195Y-34490D01*
G54D10*
G36*
X59676Y-34805D02*
X59605Y-34876D01*
X59600Y-34870D01*
X59594Y-34876D01*
X59523Y-34805D01*
X59529Y-34800D01*
X59523Y-34794D01*
X59594Y-34723D01*
X59600Y-34729D01*
X59605Y-34723D01*
X59676Y-34794D01*
X59670Y-34800D01*
X59676Y-34805D01*
X59676Y-34805D01*
G37*
G54D29*
X59676Y-34805D02*
X59605Y-34876D01*
X59600Y-34870D01*
X59594Y-34876D01*
X59523Y-34805D01*
X59529Y-34800D01*
X59523Y-34794D01*
X59594Y-34723D01*
X59600Y-34729D01*
X59605Y-34723D01*
X59676Y-34794D01*
X59670Y-34800D01*
X59676Y-34805D01*
G54D10*
G36*
X60676Y-34805D02*
X60605Y-34876D01*
X60600Y-34870D01*
X60594Y-34876D01*
X60523Y-34805D01*
X60529Y-34800D01*
X60523Y-34794D01*
X60594Y-34723D01*
X60600Y-34729D01*
X60605Y-34723D01*
X60676Y-34794D01*
X60670Y-34800D01*
X60676Y-34805D01*
X60676Y-34805D01*
G37*
G54D29*
X60676Y-34805D02*
X60605Y-34876D01*
X60600Y-34870D01*
X60594Y-34876D01*
X60523Y-34805D01*
X60529Y-34800D01*
X60523Y-34794D01*
X60594Y-34723D01*
X60600Y-34729D01*
X60605Y-34723D01*
X60676Y-34794D01*
X60670Y-34800D01*
X60676Y-34805D01*
G54D10*
G36*
X69841Y-42870D02*
X69397Y-43314D01*
X69397Y-41762D01*
X69240Y-41381D01*
X68948Y-41088D01*
X68567Y-40930D01*
X68154Y-40930D01*
X67773Y-41087D01*
X67480Y-41379D01*
X67322Y-41760D01*
X67322Y-42173D01*
X67479Y-42554D01*
X67771Y-42847D01*
X68152Y-43005D01*
X68565Y-43005D01*
X68946Y-42848D01*
X69239Y-42556D01*
X69397Y-42175D01*
X69397Y-41762D01*
X69397Y-43314D01*
X68718Y-43993D01*
X68643Y-44106D01*
X68616Y-44240D01*
X68616Y-44550D01*
X67851Y-45315D01*
X67851Y-43911D01*
X67840Y-43693D01*
X67778Y-43542D01*
X67682Y-43514D01*
X67612Y-43585D01*
X67612Y-43444D01*
X67584Y-43348D01*
X67378Y-43275D01*
X67160Y-43286D01*
X67009Y-43348D01*
X66981Y-43444D01*
X67297Y-43759D01*
X67612Y-43444D01*
X67612Y-43585D01*
X67367Y-43830D01*
X67682Y-44145D01*
X67778Y-44117D01*
X67851Y-43911D01*
X67851Y-45315D01*
X65883Y-47283D01*
X65808Y-47396D01*
X65781Y-47530D01*
X65781Y-48061D01*
X65726Y-47928D01*
X65571Y-47774D01*
X65369Y-47690D01*
X65151Y-47689D01*
X64948Y-47773D01*
X64827Y-47895D01*
X64711Y-47918D01*
X64598Y-47993D01*
X64382Y-48209D01*
X64346Y-48173D01*
X64254Y-48135D01*
X64244Y-48135D01*
X64244Y-47811D01*
X64291Y-47779D01*
X64413Y-47598D01*
X64456Y-47383D01*
X64456Y-47076D01*
X64413Y-46861D01*
X64291Y-46680D01*
X64110Y-46558D01*
X63896Y-46516D01*
X63681Y-46558D01*
X63500Y-46680D01*
X63396Y-46835D01*
X63291Y-46680D01*
X63110Y-46558D01*
X62896Y-46516D01*
X62681Y-46558D01*
X62500Y-46680D01*
X62396Y-46835D01*
X62291Y-46680D01*
X62110Y-46558D01*
X61896Y-46516D01*
X61711Y-46552D01*
X60812Y-45653D01*
X60812Y-45544D01*
X60769Y-45329D01*
X60647Y-45148D01*
X60466Y-45026D01*
X60252Y-44984D01*
X60037Y-45026D01*
X59856Y-45148D01*
X59752Y-45303D01*
X59647Y-45148D01*
X59466Y-45026D01*
X59252Y-44984D01*
X59037Y-45026D01*
X58856Y-45148D01*
X58752Y-45303D01*
X58647Y-45148D01*
X58466Y-45026D01*
X58252Y-44984D01*
X58037Y-45026D01*
X57856Y-45148D01*
X57752Y-45303D01*
X57647Y-45148D01*
X57466Y-45026D01*
X57252Y-44984D01*
X57037Y-45026D01*
X56856Y-45148D01*
X56752Y-45303D01*
X56647Y-45148D01*
X56466Y-45026D01*
X56252Y-44984D01*
X56037Y-45026D01*
X55856Y-45148D01*
X55752Y-45303D01*
X55647Y-45148D01*
X55466Y-45026D01*
X55252Y-44984D01*
X55037Y-45026D01*
X54856Y-45148D01*
X54752Y-45303D01*
X54750Y-45297D01*
X54612Y-45126D01*
X54420Y-45021D01*
X54388Y-45014D01*
X54302Y-45063D01*
X54302Y-45648D01*
X54309Y-45648D01*
X54309Y-45748D01*
X54302Y-45748D01*
X54302Y-45755D01*
X54202Y-45755D01*
X54202Y-45748D01*
X54194Y-45748D01*
X54194Y-45648D01*
X54202Y-45648D01*
X54202Y-45063D01*
X54118Y-45016D01*
X54118Y-44502D01*
X55116Y-44502D01*
X55204Y-44484D01*
X55205Y-44485D01*
X55414Y-44485D01*
X55607Y-44405D01*
X55755Y-44258D01*
X55835Y-44064D01*
X55835Y-43855D01*
X55755Y-43662D01*
X55608Y-43514D01*
X55414Y-43434D01*
X55205Y-43434D01*
X55012Y-43514D01*
X54864Y-43661D01*
X54805Y-43805D01*
X54667Y-43805D01*
X55092Y-43380D01*
X55252Y-43411D01*
X55466Y-43369D01*
X55647Y-43247D01*
X55751Y-43092D01*
X55753Y-43098D01*
X55891Y-43269D01*
X56083Y-43374D01*
X56115Y-43381D01*
X56202Y-43332D01*
X56202Y-42748D01*
X56194Y-42748D01*
X56194Y-42648D01*
X56202Y-42648D01*
X56202Y-42063D01*
X56115Y-42014D01*
X56083Y-42021D01*
X55891Y-42126D01*
X55753Y-42297D01*
X55751Y-42303D01*
X55647Y-42148D01*
X55466Y-42026D01*
X55385Y-42010D01*
X55238Y-41863D01*
X55202Y-41839D01*
X55202Y-41839D01*
X55291Y-41779D01*
X55396Y-41624D01*
X55500Y-41779D01*
X55681Y-41901D01*
X55896Y-41943D01*
X56110Y-41901D01*
X56291Y-41779D01*
X56396Y-41624D01*
X56500Y-41779D01*
X56681Y-41901D01*
X56896Y-41943D01*
X57110Y-41901D01*
X57291Y-41779D01*
X57396Y-41624D01*
X57500Y-41779D01*
X57681Y-41901D01*
X57718Y-41908D01*
X57635Y-41991D01*
X57610Y-41991D01*
X57476Y-42018D01*
X57464Y-42026D01*
X57252Y-41984D01*
X57037Y-42026D01*
X56856Y-42148D01*
X56752Y-42303D01*
X56750Y-42297D01*
X56612Y-42126D01*
X56420Y-42021D01*
X56388Y-42014D01*
X56302Y-42063D01*
X56302Y-42648D01*
X56309Y-42648D01*
X56309Y-42748D01*
X56302Y-42748D01*
X56302Y-43332D01*
X56388Y-43381D01*
X56420Y-43374D01*
X56612Y-43269D01*
X56750Y-43098D01*
X56752Y-43092D01*
X56856Y-43247D01*
X57037Y-43369D01*
X57252Y-43411D01*
X57466Y-43369D01*
X57647Y-43247D01*
X57752Y-43092D01*
X57856Y-43247D01*
X58037Y-43369D01*
X58252Y-43411D01*
X58466Y-43369D01*
X58647Y-43247D01*
X58752Y-43092D01*
X58856Y-43247D01*
X59037Y-43369D01*
X59252Y-43411D01*
X59436Y-43375D01*
X59707Y-43646D01*
X59707Y-43646D01*
X59820Y-43721D01*
X59953Y-43748D01*
X59953Y-43748D01*
X59954Y-43748D01*
X60855Y-43748D01*
X62753Y-45646D01*
X62753Y-45646D01*
X62866Y-45721D01*
X62999Y-45748D01*
X62999Y-45748D01*
X63000Y-45748D01*
X66900Y-45748D01*
X67033Y-45721D01*
X67033Y-45721D01*
X67146Y-45646D01*
X67417Y-45375D01*
X67608Y-45296D01*
X67762Y-45141D01*
X67846Y-44939D01*
X67847Y-44721D01*
X67763Y-44518D01*
X67608Y-44364D01*
X67533Y-44332D01*
X67584Y-44311D01*
X67612Y-44215D01*
X67297Y-43900D01*
X66981Y-44215D01*
X67009Y-44311D01*
X67064Y-44330D01*
X66985Y-44363D01*
X66903Y-44445D01*
X66821Y-44364D01*
X66740Y-44330D01*
X66821Y-44296D01*
X66975Y-44141D01*
X67019Y-44036D01*
X67226Y-43830D01*
X67019Y-43623D01*
X66976Y-43518D01*
X66858Y-43400D01*
X66858Y-41607D01*
X66889Y-41594D01*
X67043Y-41439D01*
X67127Y-41237D01*
X67128Y-41019D01*
X67044Y-40816D01*
X66889Y-40662D01*
X66808Y-40628D01*
X66889Y-40594D01*
X66925Y-40558D01*
X69154Y-40558D01*
X69182Y-40626D01*
X69253Y-40696D01*
X69345Y-40734D01*
X69444Y-40735D01*
X69841Y-40735D01*
X69841Y-42870D01*
X69841Y-42870D01*
G37*
G54D29*
X69841Y-42870D02*
X69397Y-43314D01*
X69397Y-41762D01*
X69240Y-41381D01*
X68948Y-41088D01*
X68567Y-40930D01*
X68154Y-40930D01*
X67773Y-41087D01*
X67480Y-41379D01*
X67322Y-41760D01*
X67322Y-42173D01*
X67479Y-42554D01*
X67771Y-42847D01*
X68152Y-43005D01*
X68565Y-43005D01*
X68946Y-42848D01*
X69239Y-42556D01*
X69397Y-42175D01*
X69397Y-41762D01*
X69397Y-43314D01*
X68718Y-43993D01*
X68643Y-44106D01*
X68616Y-44240D01*
X68616Y-44550D01*
X67851Y-45315D01*
X67851Y-43911D01*
X67840Y-43693D01*
X67778Y-43542D01*
X67682Y-43514D01*
X67612Y-43585D01*
X67612Y-43444D01*
X67584Y-43348D01*
X67378Y-43275D01*
X67160Y-43286D01*
X67009Y-43348D01*
X66981Y-43444D01*
X67297Y-43759D01*
X67612Y-43444D01*
X67612Y-43585D01*
X67367Y-43830D01*
X67682Y-44145D01*
X67778Y-44117D01*
X67851Y-43911D01*
X67851Y-45315D01*
X65883Y-47283D01*
X65808Y-47396D01*
X65781Y-47530D01*
X65781Y-48061D01*
X65726Y-47928D01*
X65571Y-47774D01*
X65369Y-47690D01*
X65151Y-47689D01*
X64948Y-47773D01*
X64827Y-47895D01*
X64711Y-47918D01*
X64598Y-47993D01*
X64382Y-48209D01*
X64346Y-48173D01*
X64254Y-48135D01*
X64244Y-48135D01*
X64244Y-47811D01*
X64291Y-47779D01*
X64413Y-47598D01*
X64456Y-47383D01*
X64456Y-47076D01*
X64413Y-46861D01*
X64291Y-46680D01*
X64110Y-46558D01*
X63896Y-46516D01*
X63681Y-46558D01*
X63500Y-46680D01*
X63396Y-46835D01*
X63291Y-46680D01*
X63110Y-46558D01*
X62896Y-46516D01*
X62681Y-46558D01*
X62500Y-46680D01*
X62396Y-46835D01*
X62291Y-46680D01*
X62110Y-46558D01*
X61896Y-46516D01*
X61711Y-46552D01*
X60812Y-45653D01*
X60812Y-45544D01*
X60769Y-45329D01*
X60647Y-45148D01*
X60466Y-45026D01*
X60252Y-44984D01*
X60037Y-45026D01*
X59856Y-45148D01*
X59752Y-45303D01*
X59647Y-45148D01*
X59466Y-45026D01*
X59252Y-44984D01*
X59037Y-45026D01*
X58856Y-45148D01*
X58752Y-45303D01*
X58647Y-45148D01*
X58466Y-45026D01*
X58252Y-44984D01*
X58037Y-45026D01*
X57856Y-45148D01*
X57752Y-45303D01*
X57647Y-45148D01*
X57466Y-45026D01*
X57252Y-44984D01*
X57037Y-45026D01*
X56856Y-45148D01*
X56752Y-45303D01*
X56647Y-45148D01*
X56466Y-45026D01*
X56252Y-44984D01*
X56037Y-45026D01*
X55856Y-45148D01*
X55752Y-45303D01*
X55647Y-45148D01*
X55466Y-45026D01*
X55252Y-44984D01*
X55037Y-45026D01*
X54856Y-45148D01*
X54752Y-45303D01*
X54750Y-45297D01*
X54612Y-45126D01*
X54420Y-45021D01*
X54388Y-45014D01*
X54302Y-45063D01*
X54302Y-45648D01*
X54309Y-45648D01*
X54309Y-45748D01*
X54302Y-45748D01*
X54302Y-45755D01*
X54202Y-45755D01*
X54202Y-45748D01*
X54194Y-45748D01*
X54194Y-45648D01*
X54202Y-45648D01*
X54202Y-45063D01*
X54118Y-45016D01*
X54118Y-44502D01*
X55116Y-44502D01*
X55204Y-44484D01*
X55205Y-44485D01*
X55414Y-44485D01*
X55607Y-44405D01*
X55755Y-44258D01*
X55835Y-44064D01*
X55835Y-43855D01*
X55755Y-43662D01*
X55608Y-43514D01*
X55414Y-43434D01*
X55205Y-43434D01*
X55012Y-43514D01*
X54864Y-43661D01*
X54805Y-43805D01*
X54667Y-43805D01*
X55092Y-43380D01*
X55252Y-43411D01*
X55466Y-43369D01*
X55647Y-43247D01*
X55751Y-43092D01*
X55753Y-43098D01*
X55891Y-43269D01*
X56083Y-43374D01*
X56115Y-43381D01*
X56202Y-43332D01*
X56202Y-42748D01*
X56194Y-42748D01*
X56194Y-42648D01*
X56202Y-42648D01*
X56202Y-42063D01*
X56115Y-42014D01*
X56083Y-42021D01*
X55891Y-42126D01*
X55753Y-42297D01*
X55751Y-42303D01*
X55647Y-42148D01*
X55466Y-42026D01*
X55385Y-42010D01*
X55238Y-41863D01*
X55202Y-41839D01*
X55202Y-41839D01*
X55291Y-41779D01*
X55396Y-41624D01*
X55500Y-41779D01*
X55681Y-41901D01*
X55896Y-41943D01*
X56110Y-41901D01*
X56291Y-41779D01*
X56396Y-41624D01*
X56500Y-41779D01*
X56681Y-41901D01*
X56896Y-41943D01*
X57110Y-41901D01*
X57291Y-41779D01*
X57396Y-41624D01*
X57500Y-41779D01*
X57681Y-41901D01*
X57718Y-41908D01*
X57635Y-41991D01*
X57610Y-41991D01*
X57476Y-42018D01*
X57464Y-42026D01*
X57252Y-41984D01*
X57037Y-42026D01*
X56856Y-42148D01*
X56752Y-42303D01*
X56750Y-42297D01*
X56612Y-42126D01*
X56420Y-42021D01*
X56388Y-42014D01*
X56302Y-42063D01*
X56302Y-42648D01*
X56309Y-42648D01*
X56309Y-42748D01*
X56302Y-42748D01*
X56302Y-43332D01*
X56388Y-43381D01*
X56420Y-43374D01*
X56612Y-43269D01*
X56750Y-43098D01*
X56752Y-43092D01*
X56856Y-43247D01*
X57037Y-43369D01*
X57252Y-43411D01*
X57466Y-43369D01*
X57647Y-43247D01*
X57752Y-43092D01*
X57856Y-43247D01*
X58037Y-43369D01*
X58252Y-43411D01*
X58466Y-43369D01*
X58647Y-43247D01*
X58752Y-43092D01*
X58856Y-43247D01*
X59037Y-43369D01*
X59252Y-43411D01*
X59436Y-43375D01*
X59707Y-43646D01*
X59707Y-43646D01*
X59820Y-43721D01*
X59953Y-43748D01*
X59953Y-43748D01*
X59954Y-43748D01*
X60855Y-43748D01*
X62753Y-45646D01*
X62753Y-45646D01*
X62866Y-45721D01*
X62999Y-45748D01*
X62999Y-45748D01*
X63000Y-45748D01*
X66900Y-45748D01*
X67033Y-45721D01*
X67033Y-45721D01*
X67146Y-45646D01*
X67417Y-45375D01*
X67608Y-45296D01*
X67762Y-45141D01*
X67846Y-44939D01*
X67847Y-44721D01*
X67763Y-44518D01*
X67608Y-44364D01*
X67533Y-44332D01*
X67584Y-44311D01*
X67612Y-44215D01*
X67297Y-43900D01*
X66981Y-44215D01*
X67009Y-44311D01*
X67064Y-44330D01*
X66985Y-44363D01*
X66903Y-44445D01*
X66821Y-44364D01*
X66740Y-44330D01*
X66821Y-44296D01*
X66975Y-44141D01*
X67019Y-44036D01*
X67226Y-43830D01*
X67019Y-43623D01*
X66976Y-43518D01*
X66858Y-43400D01*
X66858Y-41607D01*
X66889Y-41594D01*
X67043Y-41439D01*
X67127Y-41237D01*
X67128Y-41019D01*
X67044Y-40816D01*
X66889Y-40662D01*
X66808Y-40628D01*
X66889Y-40594D01*
X66925Y-40558D01*
X69154Y-40558D01*
X69182Y-40626D01*
X69253Y-40696D01*
X69345Y-40734D01*
X69444Y-40735D01*
X69841Y-40735D01*
X69841Y-42870D01*
G54D10*
G36*
X73550Y-56350D02*
X72650Y-56350D01*
X72650Y-54192D01*
X72650Y-25692D01*
X72490Y-25306D01*
X72195Y-25010D01*
X71809Y-24850D01*
X71392Y-24849D01*
X71006Y-25009D01*
X70710Y-25304D01*
X70550Y-25690D01*
X70549Y-26107D01*
X70709Y-26494D01*
X71004Y-26789D01*
X71390Y-26949D01*
X71807Y-26950D01*
X72194Y-26790D01*
X72489Y-26495D01*
X72649Y-26109D01*
X72650Y-25692D01*
X72650Y-54192D01*
X72490Y-53806D01*
X72325Y-53640D01*
X72325Y-38125D01*
X72325Y-37575D01*
X72287Y-37483D01*
X72216Y-37413D01*
X72124Y-37375D01*
X72025Y-37374D01*
X71873Y-37374D01*
X71873Y-37075D01*
X71873Y-37074D01*
X71873Y-37074D01*
X71846Y-36941D01*
X71771Y-36828D01*
X71771Y-36828D01*
X71308Y-36365D01*
X71308Y-35477D01*
X71384Y-35446D01*
X71595Y-35235D01*
X71709Y-34959D01*
X71710Y-34661D01*
X71710Y-34661D01*
X71710Y-33359D01*
X71710Y-32260D01*
X71672Y-32168D01*
X71601Y-32098D01*
X71509Y-32060D01*
X71410Y-32059D01*
X71072Y-32060D01*
X71010Y-32122D01*
X71010Y-32760D01*
X71647Y-32760D01*
X71710Y-32697D01*
X71710Y-32260D01*
X71710Y-33359D01*
X71710Y-32922D01*
X71647Y-32860D01*
X71010Y-32860D01*
X71010Y-33497D01*
X71072Y-33560D01*
X71410Y-33560D01*
X71509Y-33559D01*
X71601Y-33521D01*
X71672Y-33451D01*
X71710Y-33359D01*
X71710Y-34661D01*
X71596Y-34385D01*
X71385Y-34174D01*
X71109Y-34060D01*
X70910Y-34059D01*
X70910Y-33497D01*
X70910Y-32860D01*
X70910Y-32760D01*
X70910Y-32122D01*
X70847Y-32060D01*
X70509Y-32059D01*
X70410Y-32060D01*
X70318Y-32098D01*
X70247Y-32168D01*
X70209Y-32260D01*
X70210Y-32697D01*
X70272Y-32760D01*
X70910Y-32760D01*
X70910Y-32860D01*
X70272Y-32860D01*
X70210Y-32922D01*
X70209Y-33359D01*
X70247Y-33451D01*
X70318Y-33521D01*
X70410Y-33559D01*
X70509Y-33560D01*
X70847Y-33560D01*
X70910Y-33497D01*
X70910Y-34059D01*
X70811Y-34059D01*
X70535Y-34173D01*
X70324Y-34384D01*
X70210Y-34660D01*
X70209Y-34958D01*
X70323Y-35234D01*
X70534Y-35445D01*
X70611Y-35477D01*
X70611Y-36510D01*
X70638Y-36643D01*
X70713Y-36756D01*
X71176Y-37219D01*
X71176Y-37534D01*
X71097Y-37455D01*
X70904Y-37375D01*
X70696Y-37374D01*
X70633Y-37400D01*
X69416Y-36183D01*
X69303Y-36108D01*
X69170Y-36081D01*
X68883Y-36081D01*
X68904Y-36020D01*
X68893Y-35812D01*
X68835Y-35672D01*
X68742Y-35647D01*
X68672Y-35718D01*
X68672Y-35577D01*
X68647Y-35484D01*
X68450Y-35415D01*
X68242Y-35426D01*
X68102Y-35484D01*
X68077Y-35577D01*
X68375Y-35874D01*
X68672Y-35577D01*
X68672Y-35718D01*
X68445Y-35945D01*
X68451Y-35950D01*
X68380Y-36021D01*
X68375Y-36015D01*
X68369Y-36021D01*
X68298Y-35950D01*
X68304Y-35945D01*
X68007Y-35647D01*
X67914Y-35672D01*
X67845Y-35869D01*
X67853Y-36031D01*
X67624Y-35802D01*
X67625Y-35666D01*
X67545Y-35473D01*
X67480Y-35408D01*
X68540Y-35408D01*
X68673Y-35381D01*
X68673Y-35381D01*
X68786Y-35306D01*
X69214Y-34878D01*
X69291Y-34846D01*
X69445Y-34691D01*
X69529Y-34489D01*
X69530Y-34271D01*
X69446Y-34068D01*
X69299Y-33921D01*
X69299Y-32725D01*
X69288Y-32517D01*
X69230Y-32377D01*
X69137Y-32352D01*
X69067Y-32423D01*
X69067Y-32282D01*
X69042Y-32189D01*
X68845Y-32120D01*
X68637Y-32131D01*
X68497Y-32189D01*
X68472Y-32282D01*
X68770Y-32579D01*
X69067Y-32282D01*
X69067Y-32423D01*
X68840Y-32650D01*
X69137Y-32947D01*
X69230Y-32922D01*
X69299Y-32725D01*
X69299Y-33921D01*
X69291Y-33914D01*
X69089Y-33830D01*
X69067Y-33830D01*
X69067Y-33017D01*
X68770Y-32720D01*
X68472Y-33017D01*
X68497Y-33110D01*
X68694Y-33179D01*
X68902Y-33168D01*
X69042Y-33110D01*
X69067Y-33017D01*
X69067Y-33830D01*
X68871Y-33829D01*
X68668Y-33913D01*
X68514Y-34068D01*
X68430Y-34270D01*
X68429Y-34488D01*
X68484Y-34622D01*
X68395Y-34711D01*
X66214Y-34711D01*
X66214Y-33298D01*
X66204Y-33068D01*
X66136Y-32904D01*
X66037Y-32873D01*
X65700Y-33210D01*
X66037Y-33546D01*
X66136Y-33515D01*
X66214Y-33298D01*
X66214Y-34711D01*
X65426Y-34711D01*
X65445Y-34691D01*
X65529Y-34489D01*
X65530Y-34271D01*
X65446Y-34068D01*
X65328Y-33950D01*
X65328Y-33717D01*
X65541Y-33794D01*
X65771Y-33784D01*
X65935Y-33716D01*
X65966Y-33617D01*
X65630Y-33280D01*
X65624Y-33286D01*
X65553Y-33215D01*
X65559Y-33210D01*
X65553Y-33204D01*
X65624Y-33133D01*
X65630Y-33139D01*
X65966Y-32802D01*
X65937Y-32710D01*
X65958Y-32701D01*
X66121Y-32538D01*
X66209Y-32325D01*
X66210Y-32095D01*
X66178Y-32018D01*
X67045Y-32018D01*
X67276Y-32249D01*
X67245Y-32325D01*
X67244Y-32424D01*
X67244Y-32974D01*
X67282Y-33066D01*
X67353Y-33136D01*
X67445Y-33174D01*
X67544Y-33175D01*
X68094Y-33175D01*
X68186Y-33137D01*
X68256Y-33066D01*
X68294Y-32974D01*
X68295Y-32887D01*
X68309Y-32922D01*
X68402Y-32947D01*
X68699Y-32650D01*
X68402Y-32352D01*
X68309Y-32377D01*
X68295Y-32418D01*
X68295Y-32325D01*
X68257Y-32233D01*
X68186Y-32163D01*
X68094Y-32125D01*
X68093Y-32125D01*
X68091Y-32116D01*
X68016Y-32003D01*
X67472Y-31460D01*
X69994Y-31460D01*
X70086Y-31422D01*
X70156Y-31351D01*
X70194Y-31259D01*
X70195Y-31160D01*
X70195Y-27660D01*
X70157Y-27568D01*
X70086Y-27498D01*
X69994Y-27460D01*
X69895Y-27459D01*
X68953Y-27459D01*
X68953Y-25829D01*
X68945Y-25531D01*
X68846Y-25291D01*
X68730Y-25240D01*
X68659Y-25310D01*
X68659Y-25169D01*
X68608Y-25053D01*
X68329Y-24946D01*
X68031Y-24954D01*
X67791Y-25053D01*
X67740Y-25169D01*
X68200Y-25629D01*
X68659Y-25169D01*
X68659Y-25310D01*
X68270Y-25700D01*
X68730Y-26159D01*
X68846Y-26108D01*
X68953Y-25829D01*
X68953Y-27459D01*
X68659Y-27459D01*
X68659Y-26230D01*
X68200Y-25770D01*
X68129Y-25841D01*
X68129Y-25700D01*
X67669Y-25240D01*
X67553Y-25291D01*
X67446Y-25570D01*
X67454Y-25868D01*
X67553Y-26108D01*
X67669Y-26159D01*
X68129Y-25700D01*
X68129Y-25841D01*
X67740Y-26230D01*
X67791Y-26346D01*
X68070Y-26453D01*
X68368Y-26445D01*
X68608Y-26346D01*
X68659Y-26230D01*
X68659Y-27459D01*
X66557Y-27459D01*
X67161Y-26856D01*
X67161Y-26856D01*
X67161Y-26856D01*
X67236Y-26743D01*
X67263Y-26610D01*
X67263Y-25099D01*
X67263Y-25098D01*
X67263Y-25098D01*
X67236Y-24965D01*
X67161Y-24852D01*
X67161Y-24852D01*
X66987Y-24678D01*
X66874Y-24603D01*
X66741Y-24576D01*
X65480Y-24576D01*
X65479Y-24576D01*
X65346Y-24603D01*
X65233Y-24678D01*
X65233Y-24678D01*
X65068Y-24843D01*
X64993Y-24956D01*
X64966Y-25090D01*
X64966Y-26100D01*
X64953Y-26113D01*
X64953Y-25829D01*
X64945Y-25531D01*
X64846Y-25291D01*
X64730Y-25240D01*
X64659Y-25310D01*
X64659Y-25169D01*
X64608Y-25053D01*
X64329Y-24946D01*
X64031Y-24954D01*
X63791Y-25053D01*
X63740Y-25169D01*
X64200Y-25629D01*
X64659Y-25169D01*
X64659Y-25310D01*
X64270Y-25700D01*
X64730Y-26159D01*
X64846Y-26108D01*
X64953Y-25829D01*
X64953Y-26113D01*
X64795Y-26271D01*
X64641Y-26271D01*
X64659Y-26230D01*
X64200Y-25770D01*
X64194Y-25776D01*
X64123Y-25705D01*
X64129Y-25700D01*
X63669Y-25240D01*
X63553Y-25291D01*
X63446Y-25570D01*
X63454Y-25868D01*
X63551Y-26103D01*
X63398Y-25950D01*
X63398Y-25210D01*
X63398Y-25209D01*
X63398Y-25209D01*
X63371Y-25076D01*
X63296Y-24963D01*
X63296Y-24963D01*
X62906Y-24573D01*
X62793Y-24498D01*
X62660Y-24471D01*
X61790Y-24471D01*
X61789Y-24471D01*
X61656Y-24498D01*
X61543Y-24573D01*
X61543Y-24573D01*
X61183Y-24933D01*
X61108Y-25046D01*
X61081Y-25180D01*
X61081Y-26485D01*
X61108Y-26618D01*
X61183Y-26731D01*
X61331Y-26879D01*
X61331Y-27975D01*
X61186Y-28119D01*
X61095Y-28340D01*
X61094Y-28578D01*
X61186Y-28799D01*
X61260Y-28874D01*
X61203Y-28897D01*
X61133Y-28968D01*
X61095Y-29060D01*
X61094Y-29159D01*
X61095Y-29347D01*
X61157Y-29410D01*
X61645Y-29410D01*
X61645Y-29402D01*
X61745Y-29402D01*
X61745Y-29410D01*
X62232Y-29410D01*
X62295Y-29347D01*
X62295Y-29159D01*
X62294Y-29060D01*
X62256Y-28968D01*
X62186Y-28897D01*
X62129Y-28874D01*
X62203Y-28800D01*
X62294Y-28579D01*
X62295Y-28341D01*
X62203Y-28120D01*
X62035Y-27951D01*
X62028Y-27948D01*
X62028Y-27506D01*
X62494Y-27972D01*
X62494Y-33673D01*
X62388Y-33566D01*
X62329Y-33542D01*
X62329Y-32665D01*
X62318Y-32457D01*
X62260Y-32317D01*
X62167Y-32292D01*
X61870Y-32590D01*
X62167Y-32887D01*
X62260Y-32862D01*
X62329Y-32665D01*
X62329Y-33542D01*
X62194Y-33486D01*
X62097Y-33486D01*
X62097Y-32957D01*
X61800Y-32660D01*
X61729Y-32731D01*
X61729Y-32590D01*
X61432Y-32292D01*
X61339Y-32317D01*
X61270Y-32514D01*
X61281Y-32722D01*
X61339Y-32862D01*
X61432Y-32887D01*
X61729Y-32590D01*
X61729Y-32731D01*
X61502Y-32957D01*
X61527Y-33050D01*
X61724Y-33119D01*
X61932Y-33108D01*
X62072Y-33050D01*
X62097Y-32957D01*
X62097Y-33486D01*
X61985Y-33486D01*
X61792Y-33566D01*
X61644Y-33713D01*
X61580Y-33867D01*
X61008Y-33295D01*
X61008Y-31250D01*
X61008Y-31249D01*
X61008Y-31249D01*
X60981Y-31116D01*
X60906Y-31003D01*
X60906Y-31003D01*
X60762Y-30859D01*
X60762Y-30859D01*
X60583Y-30680D01*
X60599Y-30639D01*
X60600Y-30552D01*
X60753Y-30706D01*
X60753Y-30706D01*
X60866Y-30781D01*
X60999Y-30808D01*
X60999Y-30808D01*
X61000Y-30808D01*
X61195Y-30808D01*
X61346Y-30960D01*
X61346Y-31313D01*
X61275Y-31485D01*
X61274Y-31693D01*
X61354Y-31887D01*
X61502Y-32034D01*
X61628Y-32087D01*
X61527Y-32129D01*
X61502Y-32222D01*
X61800Y-32519D01*
X62097Y-32222D01*
X62072Y-32129D01*
X61962Y-32090D01*
X62097Y-32035D01*
X62244Y-31887D01*
X62324Y-31694D01*
X62325Y-31486D01*
X62245Y-31293D01*
X62097Y-31145D01*
X62043Y-31122D01*
X62043Y-30959D01*
X62203Y-30800D01*
X62294Y-30579D01*
X62295Y-30341D01*
X62203Y-30120D01*
X62129Y-30045D01*
X62186Y-30022D01*
X62256Y-29951D01*
X62294Y-29859D01*
X62295Y-29760D01*
X62295Y-29572D01*
X62232Y-29510D01*
X61745Y-29510D01*
X61745Y-29517D01*
X61645Y-29517D01*
X61645Y-29510D01*
X61157Y-29510D01*
X61095Y-29572D01*
X61094Y-29760D01*
X61095Y-29859D01*
X61133Y-29951D01*
X61203Y-30022D01*
X61260Y-30045D01*
X61194Y-30111D01*
X61144Y-30111D01*
X60926Y-29893D01*
X60813Y-29818D01*
X60680Y-29791D01*
X60600Y-29791D01*
X60600Y-29640D01*
X60562Y-29548D01*
X60491Y-29478D01*
X60399Y-29440D01*
X60300Y-29439D01*
X60268Y-29439D01*
X60268Y-28804D01*
X60786Y-28286D01*
X60786Y-28286D01*
X60786Y-28286D01*
X60861Y-28173D01*
X60888Y-28040D01*
X60888Y-27020D01*
X60888Y-26964D01*
X60888Y-26964D01*
X60947Y-26875D01*
X60974Y-26742D01*
X60974Y-26742D01*
X60974Y-26742D01*
X60974Y-24646D01*
X60974Y-24645D01*
X60974Y-24645D01*
X60947Y-24512D01*
X60872Y-24399D01*
X60872Y-24399D01*
X60619Y-24146D01*
X60619Y-24146D01*
X60386Y-23913D01*
X60273Y-23838D01*
X60140Y-23811D01*
X53290Y-23811D01*
X51548Y-23811D01*
X51453Y-23748D01*
X51320Y-23721D01*
X41250Y-23721D01*
X41249Y-23721D01*
X41116Y-23748D01*
X41003Y-23823D01*
X41003Y-23823D01*
X40735Y-24091D01*
X39280Y-24091D01*
X39279Y-24091D01*
X39146Y-24118D01*
X39033Y-24193D01*
X39033Y-24193D01*
X39033Y-24193D01*
X38653Y-24573D01*
X38578Y-24686D01*
X38551Y-24820D01*
X38551Y-50000D01*
X38578Y-50133D01*
X38653Y-50246D01*
X39518Y-51111D01*
X39518Y-51111D01*
X39631Y-51186D01*
X39765Y-51213D01*
X39905Y-51213D01*
X40111Y-51419D01*
X40111Y-51870D01*
X40025Y-51840D01*
X39817Y-51851D01*
X39677Y-51909D01*
X39652Y-52002D01*
X39950Y-52299D01*
X39955Y-52293D01*
X40026Y-52364D01*
X40020Y-52370D01*
X40026Y-52375D01*
X39955Y-52446D01*
X39950Y-52440D01*
X39879Y-52511D01*
X39879Y-52370D01*
X39582Y-52072D01*
X39489Y-52097D01*
X39420Y-52294D01*
X39431Y-52502D01*
X39489Y-52642D01*
X39582Y-52667D01*
X39879Y-52370D01*
X39879Y-52511D01*
X39652Y-52737D01*
X39677Y-52830D01*
X39874Y-52899D01*
X40082Y-52888D01*
X40120Y-52872D01*
X40138Y-52958D01*
X40213Y-53071D01*
X40498Y-53356D01*
X40611Y-53431D01*
X40611Y-53431D01*
X40745Y-53458D01*
X41080Y-53458D01*
X41121Y-53499D01*
X41121Y-54980D01*
X41148Y-55113D01*
X41223Y-55226D01*
X41738Y-55741D01*
X41738Y-55741D01*
X41851Y-55816D01*
X41984Y-55843D01*
X41984Y-55843D01*
X41985Y-55843D01*
X42515Y-55843D01*
X42648Y-55816D01*
X42648Y-55816D01*
X42761Y-55741D01*
X43701Y-54801D01*
X43730Y-54757D01*
X43731Y-54772D01*
X43789Y-54912D01*
X43882Y-54937D01*
X44179Y-54640D01*
X43882Y-54342D01*
X43803Y-54363D01*
X43803Y-51916D01*
X43882Y-51937D01*
X44179Y-51640D01*
X44173Y-51634D01*
X44244Y-51563D01*
X44250Y-51569D01*
X44547Y-51272D01*
X44522Y-51179D01*
X44497Y-51170D01*
X45345Y-50322D01*
X45344Y-50410D01*
X45345Y-50523D01*
X45407Y-50586D01*
X45820Y-50586D01*
X45820Y-50173D01*
X45757Y-50111D01*
X45556Y-50110D01*
X45622Y-50044D01*
X45674Y-50045D01*
X46224Y-50045D01*
X46316Y-50007D01*
X46386Y-49936D01*
X46415Y-49868D01*
X46506Y-49868D01*
X46602Y-49964D01*
X46795Y-50044D01*
X47003Y-50045D01*
X47197Y-49965D01*
X47294Y-49868D01*
X47506Y-49868D01*
X47602Y-49964D01*
X47795Y-50044D01*
X48003Y-50045D01*
X48197Y-49965D01*
X48294Y-49868D01*
X48506Y-49868D01*
X48602Y-49964D01*
X48795Y-50044D01*
X49003Y-50045D01*
X49197Y-49965D01*
X49294Y-49868D01*
X49506Y-49868D01*
X49602Y-49964D01*
X49795Y-50044D01*
X50003Y-50045D01*
X50197Y-49965D01*
X50294Y-49868D01*
X50506Y-49868D01*
X50602Y-49964D01*
X50795Y-50044D01*
X51003Y-50045D01*
X51197Y-49965D01*
X51294Y-49868D01*
X51506Y-49868D01*
X51602Y-49964D01*
X51795Y-50044D01*
X52003Y-50045D01*
X52197Y-49965D01*
X52294Y-49868D01*
X52506Y-49868D01*
X52602Y-49964D01*
X52795Y-50044D01*
X53003Y-50045D01*
X53197Y-49965D01*
X53294Y-49868D01*
X53360Y-49868D01*
X54058Y-50566D01*
X54058Y-50566D01*
X54171Y-50641D01*
X54304Y-50668D01*
X54304Y-50668D01*
X54305Y-50668D01*
X54675Y-50668D01*
X56603Y-52596D01*
X56603Y-52596D01*
X56646Y-52625D01*
X56639Y-52627D01*
X56570Y-52824D01*
X56581Y-53032D01*
X56639Y-53172D01*
X56732Y-53197D01*
X57029Y-52900D01*
X57023Y-52894D01*
X57094Y-52823D01*
X57100Y-52829D01*
X57105Y-52823D01*
X57176Y-52894D01*
X57170Y-52900D01*
X57467Y-53197D01*
X57560Y-53172D01*
X57629Y-52975D01*
X57618Y-52767D01*
X57590Y-52698D01*
X58364Y-52698D01*
X58320Y-52824D01*
X58331Y-53032D01*
X58389Y-53172D01*
X58482Y-53197D01*
X58779Y-52900D01*
X58773Y-52894D01*
X58844Y-52823D01*
X58850Y-52829D01*
X58855Y-52823D01*
X58926Y-52894D01*
X58920Y-52900D01*
X59217Y-53197D01*
X59310Y-53172D01*
X59379Y-52975D01*
X59368Y-52767D01*
X59340Y-52698D01*
X59570Y-52698D01*
X59703Y-52671D01*
X59703Y-52671D01*
X59816Y-52596D01*
X59914Y-52498D01*
X59920Y-52498D01*
X60038Y-52615D01*
X60113Y-52647D01*
X60062Y-52668D01*
X60034Y-52764D01*
X60350Y-53079D01*
X60665Y-52764D01*
X60637Y-52668D01*
X60582Y-52649D01*
X60661Y-52616D01*
X60779Y-52498D01*
X60920Y-52498D01*
X61038Y-52615D01*
X61113Y-52647D01*
X61062Y-52668D01*
X61034Y-52764D01*
X61350Y-53079D01*
X61665Y-52764D01*
X61637Y-52668D01*
X61582Y-52649D01*
X61661Y-52616D01*
X61779Y-52498D01*
X61920Y-52498D01*
X62038Y-52615D01*
X62113Y-52647D01*
X62062Y-52668D01*
X62034Y-52764D01*
X62350Y-53079D01*
X62665Y-52764D01*
X62637Y-52668D01*
X62582Y-52649D01*
X62661Y-52616D01*
X62815Y-52461D01*
X62899Y-52259D01*
X62900Y-52041D01*
X62816Y-51838D01*
X62677Y-51700D01*
X62699Y-51700D01*
X62791Y-51662D01*
X62861Y-51591D01*
X62899Y-51499D01*
X62900Y-51400D01*
X62900Y-50800D01*
X62862Y-50708D01*
X62791Y-50638D01*
X62699Y-50600D01*
X62600Y-50599D01*
X62562Y-50599D01*
X62106Y-50143D01*
X61993Y-50068D01*
X61860Y-50041D01*
X61709Y-50041D01*
X61739Y-49955D01*
X61728Y-49747D01*
X61670Y-49607D01*
X61577Y-49582D01*
X61280Y-49880D01*
X61286Y-49885D01*
X61215Y-49956D01*
X61210Y-49950D01*
X61204Y-49956D01*
X61133Y-49885D01*
X61139Y-49880D01*
X60842Y-49582D01*
X60749Y-49607D01*
X60738Y-49638D01*
X60738Y-49113D01*
X60764Y-49177D01*
X60912Y-49324D01*
X61038Y-49377D01*
X60937Y-49419D01*
X60912Y-49512D01*
X61210Y-49809D01*
X61507Y-49512D01*
X61482Y-49419D01*
X61372Y-49380D01*
X61507Y-49325D01*
X61654Y-49177D01*
X61734Y-48984D01*
X61735Y-48776D01*
X61655Y-48583D01*
X61558Y-48485D01*
X61558Y-48414D01*
X62062Y-47910D01*
X62110Y-47901D01*
X62291Y-47779D01*
X62396Y-47624D01*
X62500Y-47779D01*
X62547Y-47811D01*
X62547Y-48300D01*
X62485Y-48362D01*
X62405Y-48555D01*
X62404Y-48763D01*
X62484Y-48957D01*
X62581Y-49054D01*
X62581Y-49140D01*
X62608Y-49273D01*
X62683Y-49386D01*
X63323Y-50026D01*
X63323Y-52600D01*
X63323Y-52614D01*
X63323Y-52903D01*
X62854Y-53372D01*
X62904Y-53231D01*
X62893Y-53013D01*
X62831Y-52862D01*
X62735Y-52834D01*
X62420Y-53150D01*
X62426Y-53155D01*
X62355Y-53226D01*
X62350Y-53220D01*
X62344Y-53226D01*
X62273Y-53155D01*
X62279Y-53150D01*
X61964Y-52834D01*
X61868Y-52862D01*
X61851Y-52910D01*
X61831Y-52862D01*
X61735Y-52834D01*
X61420Y-53150D01*
X61426Y-53155D01*
X61355Y-53226D01*
X61350Y-53220D01*
X61344Y-53226D01*
X61273Y-53155D01*
X61279Y-53150D01*
X60964Y-52834D01*
X60868Y-52862D01*
X60851Y-52910D01*
X60831Y-52862D01*
X60735Y-52834D01*
X60420Y-53150D01*
X60426Y-53155D01*
X60355Y-53226D01*
X60350Y-53220D01*
X60344Y-53226D01*
X60273Y-53155D01*
X60279Y-53150D01*
X59964Y-52834D01*
X59868Y-52862D01*
X59795Y-53068D01*
X59806Y-53286D01*
X59856Y-53407D01*
X59009Y-53407D01*
X59122Y-53360D01*
X59147Y-53267D01*
X58850Y-52970D01*
X58552Y-53267D01*
X58577Y-53360D01*
X58710Y-53407D01*
X57259Y-53407D01*
X57372Y-53360D01*
X57397Y-53267D01*
X57100Y-52970D01*
X56802Y-53267D01*
X56827Y-53360D01*
X56960Y-53407D01*
X56850Y-53407D01*
X56611Y-53168D01*
X56498Y-53093D01*
X56365Y-53066D01*
X54624Y-53066D01*
X54506Y-52949D01*
X54304Y-52865D01*
X54086Y-52864D01*
X53883Y-52948D01*
X53765Y-53066D01*
X53399Y-53066D01*
X53399Y-50711D01*
X53388Y-50503D01*
X53330Y-50363D01*
X53237Y-50338D01*
X53167Y-50409D01*
X53167Y-50268D01*
X53142Y-50175D01*
X52945Y-50106D01*
X52737Y-50117D01*
X52597Y-50175D01*
X52572Y-50268D01*
X52870Y-50565D01*
X53167Y-50268D01*
X53167Y-50409D01*
X52940Y-50636D01*
X53237Y-50933D01*
X53330Y-50908D01*
X53399Y-50711D01*
X53399Y-53066D01*
X53389Y-53066D01*
X53167Y-52844D01*
X53167Y-51003D01*
X52870Y-50706D01*
X52799Y-50777D01*
X52799Y-50636D01*
X52502Y-50338D01*
X52409Y-50363D01*
X52373Y-50466D01*
X52330Y-50363D01*
X52237Y-50338D01*
X52167Y-50409D01*
X52167Y-50268D01*
X52142Y-50175D01*
X51945Y-50106D01*
X51737Y-50117D01*
X51597Y-50175D01*
X51572Y-50268D01*
X51870Y-50565D01*
X52167Y-50268D01*
X52167Y-50409D01*
X51940Y-50636D01*
X52237Y-50933D01*
X52330Y-50908D01*
X52366Y-50805D01*
X52409Y-50908D01*
X52502Y-50933D01*
X52799Y-50636D01*
X52799Y-50777D01*
X52572Y-51003D01*
X52597Y-51096D01*
X52794Y-51165D01*
X53002Y-51154D01*
X53142Y-51096D01*
X53167Y-51003D01*
X53167Y-52844D01*
X53022Y-52699D01*
X52909Y-52624D01*
X52776Y-52597D01*
X52167Y-52597D01*
X52167Y-51003D01*
X51870Y-50706D01*
X51799Y-50777D01*
X51799Y-50636D01*
X51502Y-50338D01*
X51409Y-50363D01*
X51373Y-50466D01*
X51330Y-50363D01*
X51237Y-50338D01*
X51167Y-50409D01*
X51167Y-50268D01*
X51142Y-50175D01*
X50945Y-50106D01*
X50737Y-50117D01*
X50597Y-50175D01*
X50572Y-50268D01*
X50870Y-50565D01*
X51167Y-50268D01*
X51167Y-50409D01*
X50940Y-50636D01*
X51237Y-50933D01*
X51330Y-50908D01*
X51366Y-50805D01*
X51409Y-50908D01*
X51502Y-50933D01*
X51799Y-50636D01*
X51799Y-50777D01*
X51572Y-51003D01*
X51597Y-51096D01*
X51794Y-51165D01*
X52002Y-51154D01*
X52142Y-51096D01*
X52167Y-51003D01*
X52167Y-52597D01*
X51560Y-52597D01*
X51426Y-52624D01*
X51313Y-52699D01*
X51167Y-52846D01*
X51167Y-51003D01*
X50870Y-50706D01*
X50799Y-50777D01*
X50799Y-50636D01*
X50502Y-50338D01*
X50409Y-50363D01*
X50373Y-50466D01*
X50330Y-50363D01*
X50237Y-50338D01*
X50167Y-50409D01*
X50167Y-50268D01*
X50142Y-50175D01*
X49945Y-50106D01*
X49737Y-50117D01*
X49597Y-50175D01*
X49572Y-50268D01*
X49870Y-50565D01*
X50167Y-50268D01*
X50167Y-50409D01*
X49940Y-50636D01*
X50237Y-50933D01*
X50330Y-50908D01*
X50366Y-50805D01*
X50409Y-50908D01*
X50502Y-50933D01*
X50799Y-50636D01*
X50799Y-50777D01*
X50572Y-51003D01*
X50597Y-51096D01*
X50794Y-51165D01*
X51002Y-51154D01*
X51142Y-51096D01*
X51167Y-51003D01*
X51167Y-52846D01*
X50879Y-53133D01*
X50804Y-53246D01*
X50777Y-53380D01*
X50777Y-53566D01*
X50746Y-53491D01*
X50630Y-53440D01*
X50559Y-53510D01*
X50559Y-53369D01*
X50508Y-53253D01*
X50229Y-53146D01*
X50167Y-53147D01*
X50167Y-51003D01*
X49870Y-50706D01*
X49799Y-50777D01*
X49799Y-50636D01*
X49502Y-50338D01*
X49409Y-50363D01*
X49373Y-50466D01*
X49330Y-50363D01*
X49237Y-50338D01*
X49167Y-50409D01*
X49167Y-50268D01*
X49142Y-50175D01*
X48945Y-50106D01*
X48737Y-50117D01*
X48597Y-50175D01*
X48572Y-50268D01*
X48870Y-50565D01*
X49167Y-50268D01*
X49167Y-50409D01*
X48940Y-50636D01*
X49237Y-50933D01*
X49330Y-50908D01*
X49366Y-50805D01*
X49409Y-50908D01*
X49502Y-50933D01*
X49799Y-50636D01*
X49799Y-50777D01*
X49572Y-51003D01*
X49597Y-51096D01*
X49794Y-51165D01*
X50002Y-51154D01*
X50142Y-51096D01*
X50167Y-51003D01*
X50167Y-53147D01*
X49931Y-53154D01*
X49691Y-53253D01*
X49640Y-53369D01*
X50100Y-53829D01*
X50559Y-53369D01*
X50559Y-53510D01*
X50170Y-53900D01*
X50176Y-53905D01*
X50105Y-53976D01*
X50100Y-53970D01*
X50029Y-54041D01*
X50029Y-53900D01*
X49569Y-53440D01*
X49453Y-53491D01*
X49346Y-53770D01*
X49354Y-54068D01*
X49453Y-54308D01*
X49569Y-54359D01*
X50029Y-53900D01*
X50029Y-54041D01*
X49640Y-54430D01*
X49691Y-54546D01*
X49772Y-54577D01*
X49167Y-54577D01*
X49167Y-51003D01*
X48870Y-50706D01*
X48799Y-50777D01*
X48799Y-50636D01*
X48502Y-50338D01*
X48409Y-50363D01*
X48373Y-50466D01*
X48330Y-50363D01*
X48237Y-50338D01*
X48167Y-50409D01*
X48167Y-50268D01*
X48142Y-50175D01*
X47945Y-50106D01*
X47737Y-50117D01*
X47597Y-50175D01*
X47572Y-50268D01*
X47870Y-50565D01*
X48167Y-50268D01*
X48167Y-50409D01*
X47940Y-50636D01*
X48237Y-50933D01*
X48330Y-50908D01*
X48366Y-50805D01*
X48409Y-50908D01*
X48502Y-50933D01*
X48799Y-50636D01*
X48799Y-50777D01*
X48572Y-51003D01*
X48597Y-51096D01*
X48794Y-51165D01*
X49002Y-51154D01*
X49142Y-51096D01*
X49167Y-51003D01*
X49167Y-54577D01*
X48780Y-54577D01*
X48778Y-54575D01*
X48811Y-54541D01*
X48849Y-54449D01*
X48850Y-54350D01*
X48850Y-53350D01*
X48812Y-53258D01*
X48741Y-53188D01*
X48649Y-53150D01*
X48550Y-53149D01*
X48167Y-53149D01*
X48167Y-51003D01*
X47870Y-50706D01*
X47799Y-50777D01*
X47799Y-50636D01*
X47502Y-50338D01*
X47409Y-50363D01*
X47373Y-50466D01*
X47330Y-50363D01*
X47237Y-50338D01*
X47167Y-50409D01*
X47167Y-50268D01*
X47142Y-50175D01*
X46945Y-50106D01*
X46737Y-50117D01*
X46597Y-50175D01*
X46572Y-50268D01*
X46870Y-50565D01*
X47167Y-50268D01*
X47167Y-50409D01*
X46940Y-50636D01*
X47237Y-50933D01*
X47330Y-50908D01*
X47366Y-50805D01*
X47409Y-50908D01*
X47502Y-50933D01*
X47799Y-50636D01*
X47799Y-50777D01*
X47572Y-51003D01*
X47597Y-51096D01*
X47794Y-51165D01*
X48002Y-51154D01*
X48142Y-51096D01*
X48167Y-51003D01*
X48167Y-53149D01*
X47550Y-53149D01*
X47458Y-53187D01*
X47388Y-53258D01*
X47350Y-53350D01*
X47349Y-53449D01*
X47349Y-54449D01*
X47387Y-54541D01*
X47458Y-54611D01*
X47550Y-54649D01*
X47649Y-54650D01*
X47867Y-54650D01*
X48389Y-55172D01*
X48389Y-55172D01*
X48502Y-55247D01*
X48635Y-55274D01*
X48635Y-55274D01*
X48636Y-55274D01*
X50466Y-55274D01*
X50599Y-55247D01*
X50599Y-55247D01*
X50712Y-55172D01*
X51372Y-54512D01*
X51372Y-54512D01*
X51372Y-54512D01*
X51374Y-54509D01*
X51387Y-54541D01*
X51458Y-54611D01*
X51550Y-54649D01*
X51649Y-54650D01*
X52649Y-54650D01*
X52741Y-54612D01*
X52811Y-54541D01*
X52849Y-54449D01*
X52850Y-54388D01*
X53427Y-54388D01*
X53427Y-56110D01*
X64332Y-56110D01*
X64332Y-54250D01*
X63442Y-54250D01*
X64176Y-53516D01*
X64176Y-53516D01*
X64176Y-53516D01*
X64251Y-53403D01*
X64278Y-53270D01*
X64278Y-53270D01*
X64278Y-53270D01*
X64278Y-49175D01*
X64346Y-49147D01*
X64416Y-49076D01*
X64446Y-49004D01*
X64446Y-49004D01*
X64558Y-48981D01*
X64558Y-48981D01*
X64671Y-48906D01*
X64909Y-48667D01*
X64948Y-48705D01*
X65150Y-48789D01*
X65307Y-48790D01*
X65073Y-49023D01*
X64998Y-49136D01*
X64971Y-49270D01*
X64971Y-49840D01*
X64998Y-49973D01*
X65073Y-50086D01*
X65306Y-50319D01*
X65275Y-50395D01*
X65274Y-50603D01*
X65354Y-50797D01*
X65502Y-50944D01*
X65695Y-51024D01*
X65903Y-51025D01*
X66097Y-50945D01*
X66194Y-50848D01*
X66325Y-50848D01*
X66533Y-51056D01*
X66533Y-51056D01*
X66646Y-51131D01*
X66779Y-51158D01*
X66779Y-51158D01*
X66780Y-51158D01*
X68785Y-51158D01*
X69453Y-51826D01*
X69453Y-51826D01*
X69566Y-51901D01*
X69651Y-51918D01*
X69714Y-51982D01*
X69210Y-52486D01*
X69151Y-52428D01*
X69059Y-52390D01*
X68960Y-52389D01*
X68410Y-52389D01*
X68318Y-52427D01*
X68248Y-52498D01*
X68210Y-52590D01*
X68209Y-52689D01*
X68209Y-53239D01*
X68247Y-53331D01*
X68318Y-53401D01*
X68410Y-53439D01*
X68497Y-53440D01*
X68462Y-53454D01*
X68437Y-53547D01*
X68735Y-53844D01*
X69032Y-53547D01*
X69007Y-53454D01*
X68966Y-53440D01*
X69059Y-53440D01*
X69151Y-53402D01*
X69221Y-53331D01*
X69250Y-53263D01*
X69275Y-53263D01*
X69408Y-53236D01*
X69408Y-53236D01*
X69521Y-53161D01*
X70336Y-52346D01*
X70411Y-52233D01*
X70438Y-52100D01*
X70438Y-52009D01*
X70555Y-51891D01*
X70639Y-51689D01*
X70640Y-51522D01*
X70982Y-51180D01*
X71018Y-51180D01*
X71212Y-51100D01*
X71359Y-50952D01*
X71439Y-50759D01*
X71440Y-50551D01*
X71360Y-50358D01*
X71212Y-50210D01*
X71086Y-50157D01*
X71187Y-50115D01*
X71212Y-50022D01*
X70915Y-49725D01*
X70617Y-50022D01*
X70642Y-50115D01*
X70752Y-50154D01*
X70618Y-50209D01*
X70470Y-50357D01*
X70390Y-50550D01*
X70389Y-50758D01*
X70398Y-50778D01*
X70147Y-51030D01*
X69981Y-51029D01*
X69778Y-51113D01*
X69752Y-51139D01*
X69176Y-50563D01*
X69063Y-50488D01*
X68930Y-50461D01*
X67397Y-50461D01*
X67397Y-50167D01*
X67100Y-49870D01*
X67029Y-49941D01*
X67029Y-49800D01*
X66732Y-49502D01*
X66639Y-49527D01*
X66570Y-49724D01*
X66581Y-49932D01*
X66639Y-50072D01*
X66732Y-50097D01*
X67029Y-49800D01*
X67029Y-49941D01*
X66802Y-50167D01*
X66827Y-50260D01*
X67024Y-50329D01*
X67232Y-50318D01*
X67372Y-50260D01*
X67397Y-50167D01*
X67397Y-50461D01*
X66924Y-50461D01*
X66716Y-50253D01*
X66603Y-50178D01*
X66470Y-50151D01*
X66193Y-50151D01*
X66097Y-50055D01*
X65978Y-50005D01*
X65974Y-50001D01*
X66072Y-49960D01*
X66097Y-49867D01*
X65800Y-49570D01*
X65794Y-49576D01*
X65723Y-49505D01*
X65729Y-49500D01*
X65723Y-49494D01*
X65794Y-49423D01*
X65800Y-49429D01*
X65805Y-49423D01*
X65876Y-49494D01*
X65870Y-49500D01*
X66167Y-49797D01*
X66260Y-49772D01*
X66329Y-49575D01*
X66318Y-49367D01*
X66260Y-49227D01*
X66256Y-49226D01*
X66376Y-49106D01*
X66451Y-48993D01*
X66478Y-48860D01*
X66478Y-48300D01*
X66478Y-47674D01*
X67322Y-46830D01*
X67322Y-46897D01*
X67479Y-47278D01*
X67771Y-47571D01*
X68152Y-47729D01*
X68565Y-47729D01*
X68911Y-47586D01*
X68911Y-47810D01*
X68794Y-47928D01*
X68710Y-48130D01*
X68709Y-48348D01*
X68793Y-48551D01*
X68948Y-48705D01*
X69150Y-48789D01*
X69368Y-48790D01*
X69566Y-48708D01*
X69566Y-49139D01*
X69498Y-49167D01*
X69428Y-49238D01*
X69399Y-49306D01*
X68500Y-49306D01*
X68424Y-49275D01*
X68325Y-49274D01*
X67775Y-49274D01*
X67683Y-49312D01*
X67613Y-49383D01*
X67575Y-49475D01*
X67574Y-49562D01*
X67560Y-49527D01*
X67467Y-49502D01*
X67397Y-49573D01*
X67397Y-49432D01*
X67372Y-49339D01*
X67175Y-49270D01*
X66967Y-49281D01*
X66827Y-49339D01*
X66802Y-49432D01*
X67100Y-49729D01*
X67397Y-49432D01*
X67397Y-49573D01*
X67170Y-49800D01*
X67467Y-50097D01*
X67560Y-50072D01*
X67574Y-50031D01*
X67574Y-50124D01*
X67612Y-50216D01*
X67683Y-50286D01*
X67775Y-50324D01*
X67874Y-50325D01*
X68424Y-50325D01*
X68516Y-50287D01*
X68586Y-50216D01*
X68624Y-50124D01*
X68625Y-50025D01*
X68625Y-50003D01*
X69399Y-50003D01*
X69427Y-50071D01*
X69498Y-50141D01*
X69590Y-50179D01*
X69689Y-50180D01*
X70239Y-50180D01*
X70331Y-50142D01*
X70401Y-50071D01*
X70439Y-49979D01*
X70440Y-49892D01*
X70454Y-49927D01*
X70547Y-49952D01*
X70844Y-49655D01*
X70547Y-49357D01*
X70454Y-49382D01*
X70440Y-49423D01*
X70440Y-49330D01*
X70402Y-49238D01*
X70331Y-49168D01*
X70263Y-49139D01*
X70263Y-44764D01*
X71451Y-43576D01*
X71526Y-43463D01*
X71526Y-43463D01*
X71553Y-43330D01*
X71553Y-40730D01*
X71565Y-40734D01*
X71773Y-40735D01*
X71967Y-40655D01*
X72114Y-40507D01*
X72194Y-40314D01*
X72195Y-40106D01*
X72115Y-39913D01*
X71967Y-39765D01*
X71774Y-39685D01*
X71566Y-39684D01*
X71547Y-39692D01*
X71526Y-39591D01*
X71451Y-39478D01*
X70471Y-38498D01*
X70358Y-38423D01*
X70225Y-38396D01*
X69973Y-38396D01*
X70097Y-38345D01*
X70244Y-38197D01*
X70300Y-38064D01*
X70354Y-38197D01*
X70502Y-38344D01*
X70695Y-38424D01*
X70903Y-38425D01*
X71097Y-38345D01*
X71244Y-38197D01*
X71274Y-38125D01*
X71274Y-38224D01*
X71312Y-38316D01*
X71383Y-38386D01*
X71475Y-38424D01*
X71574Y-38425D01*
X72124Y-38425D01*
X72216Y-38387D01*
X72286Y-38316D01*
X72324Y-38224D01*
X72325Y-38125D01*
X72325Y-53640D01*
X72195Y-53510D01*
X71809Y-53350D01*
X71444Y-53349D01*
X71444Y-49730D01*
X71433Y-49522D01*
X71375Y-49382D01*
X71282Y-49357D01*
X71212Y-49428D01*
X71212Y-49287D01*
X71187Y-49194D01*
X70990Y-49125D01*
X70782Y-49136D01*
X70642Y-49194D01*
X70617Y-49287D01*
X70915Y-49584D01*
X71212Y-49287D01*
X71212Y-49428D01*
X70985Y-49655D01*
X71282Y-49952D01*
X71375Y-49927D01*
X71444Y-49730D01*
X71444Y-53349D01*
X71392Y-53349D01*
X71006Y-53509D01*
X70710Y-53804D01*
X70550Y-54190D01*
X70549Y-54607D01*
X70709Y-54994D01*
X71004Y-55289D01*
X71390Y-55449D01*
X71807Y-55450D01*
X72194Y-55290D01*
X72489Y-54995D01*
X72649Y-54609D01*
X72650Y-54192D01*
X72650Y-56350D01*
X69264Y-56350D01*
X69264Y-53990D01*
X69253Y-53782D01*
X69195Y-53642D01*
X69102Y-53617D01*
X68805Y-53915D01*
X69102Y-54212D01*
X69195Y-54187D01*
X69264Y-53990D01*
X69264Y-56350D01*
X69032Y-56350D01*
X69032Y-54282D01*
X68735Y-53985D01*
X68664Y-54056D01*
X68664Y-53915D01*
X68367Y-53617D01*
X68274Y-53642D01*
X68205Y-53839D01*
X68216Y-54047D01*
X68274Y-54187D01*
X68367Y-54212D01*
X68664Y-53915D01*
X68664Y-54056D01*
X68437Y-54282D01*
X68462Y-54375D01*
X68659Y-54444D01*
X68867Y-54433D01*
X69007Y-54375D01*
X69032Y-54282D01*
X69032Y-56350D01*
X66640Y-56350D01*
X66640Y-51471D01*
X66556Y-51268D01*
X66401Y-51114D01*
X66199Y-51030D01*
X65981Y-51029D01*
X65778Y-51113D01*
X65624Y-51268D01*
X65540Y-51470D01*
X65539Y-51688D01*
X65580Y-51786D01*
X65533Y-51833D01*
X65458Y-51946D01*
X65431Y-52080D01*
X65431Y-52473D01*
X65288Y-52616D01*
X65200Y-52829D01*
X65199Y-53059D01*
X65288Y-53273D01*
X65451Y-53436D01*
X65472Y-53445D01*
X65443Y-53537D01*
X65780Y-53874D01*
X66116Y-53537D01*
X66087Y-53445D01*
X66108Y-53436D01*
X66271Y-53273D01*
X66359Y-53060D01*
X66360Y-52830D01*
X66271Y-52616D01*
X66128Y-52473D01*
X66128Y-52224D01*
X66239Y-52113D01*
X66401Y-52046D01*
X66555Y-51891D01*
X66639Y-51689D01*
X66640Y-51471D01*
X66640Y-56350D01*
X66364Y-56350D01*
X66364Y-54033D01*
X66354Y-53803D01*
X66286Y-53639D01*
X66187Y-53608D01*
X65850Y-53945D01*
X66187Y-54281D01*
X66286Y-54250D01*
X66364Y-54033D01*
X66364Y-56350D01*
X66116Y-56350D01*
X66116Y-54352D01*
X65780Y-54015D01*
X65709Y-54086D01*
X65709Y-53945D01*
X65372Y-53608D01*
X65273Y-53639D01*
X65195Y-53856D01*
X65205Y-54086D01*
X65273Y-54250D01*
X65372Y-54281D01*
X65709Y-53945D01*
X65709Y-54086D01*
X65443Y-54352D01*
X65474Y-54451D01*
X65691Y-54529D01*
X65921Y-54519D01*
X66085Y-54451D01*
X66116Y-54352D01*
X66116Y-56350D01*
X47167Y-56350D01*
X47167Y-51003D01*
X46870Y-50706D01*
X46799Y-50777D01*
X46799Y-50636D01*
X46502Y-50338D01*
X46409Y-50363D01*
X46395Y-50404D01*
X46394Y-50311D01*
X46356Y-50219D01*
X46286Y-50148D01*
X46194Y-50110D01*
X45982Y-50111D01*
X45920Y-50173D01*
X45920Y-50586D01*
X45927Y-50586D01*
X45927Y-50686D01*
X45920Y-50686D01*
X45920Y-51098D01*
X45982Y-51161D01*
X46194Y-51161D01*
X46286Y-51123D01*
X46356Y-51052D01*
X46394Y-50960D01*
X46395Y-50873D01*
X46409Y-50908D01*
X46502Y-50933D01*
X46799Y-50636D01*
X46799Y-50777D01*
X46572Y-51003D01*
X46597Y-51096D01*
X46794Y-51165D01*
X47002Y-51154D01*
X47142Y-51096D01*
X47167Y-51003D01*
X47167Y-56350D01*
X46853Y-56350D01*
X46853Y-54029D01*
X46845Y-53731D01*
X46746Y-53491D01*
X46630Y-53440D01*
X46559Y-53510D01*
X46559Y-53369D01*
X46508Y-53253D01*
X46229Y-53146D01*
X45931Y-53154D01*
X45820Y-53200D01*
X45820Y-51098D01*
X45820Y-50686D01*
X45407Y-50686D01*
X45345Y-50748D01*
X45344Y-50861D01*
X45345Y-50960D01*
X45383Y-51052D01*
X45453Y-51123D01*
X45545Y-51161D01*
X45757Y-51161D01*
X45820Y-51098D01*
X45820Y-53200D01*
X45691Y-53253D01*
X45640Y-53369D01*
X46100Y-53829D01*
X46559Y-53369D01*
X46559Y-53510D01*
X46170Y-53900D01*
X46630Y-54359D01*
X46746Y-54308D01*
X46853Y-54029D01*
X46853Y-56350D01*
X46559Y-56350D01*
X46559Y-54430D01*
X46100Y-53970D01*
X46029Y-54041D01*
X46029Y-53900D01*
X45569Y-53440D01*
X45453Y-53491D01*
X45346Y-53770D01*
X45354Y-54068D01*
X45453Y-54308D01*
X45569Y-54359D01*
X46029Y-53900D01*
X46029Y-54041D01*
X45640Y-54430D01*
X45691Y-54546D01*
X45970Y-54653D01*
X46268Y-54645D01*
X46508Y-54546D01*
X46559Y-54430D01*
X46559Y-56350D01*
X44779Y-56350D01*
X44779Y-54715D01*
X44779Y-51715D01*
X44768Y-51507D01*
X44710Y-51367D01*
X44617Y-51342D01*
X44320Y-51640D01*
X44617Y-51937D01*
X44710Y-51912D01*
X44779Y-51715D01*
X44779Y-54715D01*
X44768Y-54507D01*
X44710Y-54367D01*
X44617Y-54342D01*
X44547Y-54413D01*
X44547Y-54272D01*
X44547Y-52007D01*
X44250Y-51710D01*
X43952Y-52007D01*
X43977Y-52100D01*
X44174Y-52169D01*
X44382Y-52158D01*
X44522Y-52100D01*
X44547Y-52007D01*
X44547Y-54272D01*
X44522Y-54179D01*
X44325Y-54110D01*
X44117Y-54121D01*
X43977Y-54179D01*
X43952Y-54272D01*
X44250Y-54569D01*
X44547Y-54272D01*
X44547Y-54413D01*
X44320Y-54640D01*
X44617Y-54937D01*
X44710Y-54912D01*
X44779Y-54715D01*
X44779Y-56350D01*
X44547Y-56350D01*
X44547Y-55007D01*
X44250Y-54710D01*
X43952Y-55007D01*
X43977Y-55100D01*
X44174Y-55169D01*
X44382Y-55158D01*
X44522Y-55100D01*
X44547Y-55007D01*
X44547Y-56350D01*
X40500Y-56350D01*
X40500Y-54442D01*
X40340Y-54056D01*
X40045Y-53760D01*
X39659Y-53600D01*
X39242Y-53599D01*
X38856Y-53759D01*
X38560Y-54054D01*
X38400Y-54440D01*
X38399Y-54857D01*
X38559Y-55244D01*
X38854Y-55539D01*
X39240Y-55699D01*
X39657Y-55700D01*
X40044Y-55540D01*
X40339Y-55245D01*
X40499Y-54859D01*
X40500Y-54442D01*
X40500Y-56350D01*
X38150Y-56350D01*
X38150Y-22950D01*
X73550Y-22950D01*
X73550Y-56350D01*
X73550Y-56350D01*
G37*
G54D29*
X73550Y-56350D02*
X72650Y-56350D01*
X72650Y-54192D01*
X72650Y-25692D01*
X72490Y-25306D01*
X72195Y-25010D01*
X71809Y-24850D01*
X71392Y-24849D01*
X71006Y-25009D01*
X70710Y-25304D01*
X70550Y-25690D01*
X70549Y-26107D01*
X70709Y-26494D01*
X71004Y-26789D01*
X71390Y-26949D01*
X71807Y-26950D01*
X72194Y-26790D01*
X72489Y-26495D01*
X72649Y-26109D01*
X72650Y-25692D01*
X72650Y-54192D01*
X72490Y-53806D01*
X72325Y-53640D01*
X72325Y-38125D01*
X72325Y-37575D01*
X72287Y-37483D01*
X72216Y-37413D01*
X72124Y-37375D01*
X72025Y-37374D01*
X71873Y-37374D01*
X71873Y-37075D01*
X71873Y-37074D01*
X71873Y-37074D01*
X71846Y-36941D01*
X71771Y-36828D01*
X71771Y-36828D01*
X71308Y-36365D01*
X71308Y-35477D01*
X71384Y-35446D01*
X71595Y-35235D01*
X71709Y-34959D01*
X71710Y-34661D01*
X71710Y-34661D01*
X71710Y-33359D01*
X71710Y-32260D01*
X71672Y-32168D01*
X71601Y-32098D01*
X71509Y-32060D01*
X71410Y-32059D01*
X71072Y-32060D01*
X71010Y-32122D01*
X71010Y-32760D01*
X71647Y-32760D01*
X71710Y-32697D01*
X71710Y-32260D01*
X71710Y-33359D01*
X71710Y-32922D01*
X71647Y-32860D01*
X71010Y-32860D01*
X71010Y-33497D01*
X71072Y-33560D01*
X71410Y-33560D01*
X71509Y-33559D01*
X71601Y-33521D01*
X71672Y-33451D01*
X71710Y-33359D01*
X71710Y-34661D01*
X71596Y-34385D01*
X71385Y-34174D01*
X71109Y-34060D01*
X70910Y-34059D01*
X70910Y-33497D01*
X70910Y-32860D01*
X70910Y-32760D01*
X70910Y-32122D01*
X70847Y-32060D01*
X70509Y-32059D01*
X70410Y-32060D01*
X70318Y-32098D01*
X70247Y-32168D01*
X70209Y-32260D01*
X70210Y-32697D01*
X70272Y-32760D01*
X70910Y-32760D01*
X70910Y-32860D01*
X70272Y-32860D01*
X70210Y-32922D01*
X70209Y-33359D01*
X70247Y-33451D01*
X70318Y-33521D01*
X70410Y-33559D01*
X70509Y-33560D01*
X70847Y-33560D01*
X70910Y-33497D01*
X70910Y-34059D01*
X70811Y-34059D01*
X70535Y-34173D01*
X70324Y-34384D01*
X70210Y-34660D01*
X70209Y-34958D01*
X70323Y-35234D01*
X70534Y-35445D01*
X70611Y-35477D01*
X70611Y-36510D01*
X70638Y-36643D01*
X70713Y-36756D01*
X71176Y-37219D01*
X71176Y-37534D01*
X71097Y-37455D01*
X70904Y-37375D01*
X70696Y-37374D01*
X70633Y-37400D01*
X69416Y-36183D01*
X69303Y-36108D01*
X69170Y-36081D01*
X68883Y-36081D01*
X68904Y-36020D01*
X68893Y-35812D01*
X68835Y-35672D01*
X68742Y-35647D01*
X68672Y-35718D01*
X68672Y-35577D01*
X68647Y-35484D01*
X68450Y-35415D01*
X68242Y-35426D01*
X68102Y-35484D01*
X68077Y-35577D01*
X68375Y-35874D01*
X68672Y-35577D01*
X68672Y-35718D01*
X68445Y-35945D01*
X68451Y-35950D01*
X68380Y-36021D01*
X68375Y-36015D01*
X68369Y-36021D01*
X68298Y-35950D01*
X68304Y-35945D01*
X68007Y-35647D01*
X67914Y-35672D01*
X67845Y-35869D01*
X67853Y-36031D01*
X67624Y-35802D01*
X67625Y-35666D01*
X67545Y-35473D01*
X67480Y-35408D01*
X68540Y-35408D01*
X68673Y-35381D01*
X68673Y-35381D01*
X68786Y-35306D01*
X69214Y-34878D01*
X69291Y-34846D01*
X69445Y-34691D01*
X69529Y-34489D01*
X69530Y-34271D01*
X69446Y-34068D01*
X69299Y-33921D01*
X69299Y-32725D01*
X69288Y-32517D01*
X69230Y-32377D01*
X69137Y-32352D01*
X69067Y-32423D01*
X69067Y-32282D01*
X69042Y-32189D01*
X68845Y-32120D01*
X68637Y-32131D01*
X68497Y-32189D01*
X68472Y-32282D01*
X68770Y-32579D01*
X69067Y-32282D01*
X69067Y-32423D01*
X68840Y-32650D01*
X69137Y-32947D01*
X69230Y-32922D01*
X69299Y-32725D01*
X69299Y-33921D01*
X69291Y-33914D01*
X69089Y-33830D01*
X69067Y-33830D01*
X69067Y-33017D01*
X68770Y-32720D01*
X68472Y-33017D01*
X68497Y-33110D01*
X68694Y-33179D01*
X68902Y-33168D01*
X69042Y-33110D01*
X69067Y-33017D01*
X69067Y-33830D01*
X68871Y-33829D01*
X68668Y-33913D01*
X68514Y-34068D01*
X68430Y-34270D01*
X68429Y-34488D01*
X68484Y-34622D01*
X68395Y-34711D01*
X66214Y-34711D01*
X66214Y-33298D01*
X66204Y-33068D01*
X66136Y-32904D01*
X66037Y-32873D01*
X65700Y-33210D01*
X66037Y-33546D01*
X66136Y-33515D01*
X66214Y-33298D01*
X66214Y-34711D01*
X65426Y-34711D01*
X65445Y-34691D01*
X65529Y-34489D01*
X65530Y-34271D01*
X65446Y-34068D01*
X65328Y-33950D01*
X65328Y-33717D01*
X65541Y-33794D01*
X65771Y-33784D01*
X65935Y-33716D01*
X65966Y-33617D01*
X65630Y-33280D01*
X65624Y-33286D01*
X65553Y-33215D01*
X65559Y-33210D01*
X65553Y-33204D01*
X65624Y-33133D01*
X65630Y-33139D01*
X65966Y-32802D01*
X65937Y-32710D01*
X65958Y-32701D01*
X66121Y-32538D01*
X66209Y-32325D01*
X66210Y-32095D01*
X66178Y-32018D01*
X67045Y-32018D01*
X67276Y-32249D01*
X67245Y-32325D01*
X67244Y-32424D01*
X67244Y-32974D01*
X67282Y-33066D01*
X67353Y-33136D01*
X67445Y-33174D01*
X67544Y-33175D01*
X68094Y-33175D01*
X68186Y-33137D01*
X68256Y-33066D01*
X68294Y-32974D01*
X68295Y-32887D01*
X68309Y-32922D01*
X68402Y-32947D01*
X68699Y-32650D01*
X68402Y-32352D01*
X68309Y-32377D01*
X68295Y-32418D01*
X68295Y-32325D01*
X68257Y-32233D01*
X68186Y-32163D01*
X68094Y-32125D01*
X68093Y-32125D01*
X68091Y-32116D01*
X68016Y-32003D01*
X67472Y-31460D01*
X69994Y-31460D01*
X70086Y-31422D01*
X70156Y-31351D01*
X70194Y-31259D01*
X70195Y-31160D01*
X70195Y-27660D01*
X70157Y-27568D01*
X70086Y-27498D01*
X69994Y-27460D01*
X69895Y-27459D01*
X68953Y-27459D01*
X68953Y-25829D01*
X68945Y-25531D01*
X68846Y-25291D01*
X68730Y-25240D01*
X68659Y-25310D01*
X68659Y-25169D01*
X68608Y-25053D01*
X68329Y-24946D01*
X68031Y-24954D01*
X67791Y-25053D01*
X67740Y-25169D01*
X68200Y-25629D01*
X68659Y-25169D01*
X68659Y-25310D01*
X68270Y-25700D01*
X68730Y-26159D01*
X68846Y-26108D01*
X68953Y-25829D01*
X68953Y-27459D01*
X68659Y-27459D01*
X68659Y-26230D01*
X68200Y-25770D01*
X68129Y-25841D01*
X68129Y-25700D01*
X67669Y-25240D01*
X67553Y-25291D01*
X67446Y-25570D01*
X67454Y-25868D01*
X67553Y-26108D01*
X67669Y-26159D01*
X68129Y-25700D01*
X68129Y-25841D01*
X67740Y-26230D01*
X67791Y-26346D01*
X68070Y-26453D01*
X68368Y-26445D01*
X68608Y-26346D01*
X68659Y-26230D01*
X68659Y-27459D01*
X66557Y-27459D01*
X67161Y-26856D01*
X67161Y-26856D01*
X67161Y-26856D01*
X67236Y-26743D01*
X67263Y-26610D01*
X67263Y-25099D01*
X67263Y-25098D01*
X67263Y-25098D01*
X67236Y-24965D01*
X67161Y-24852D01*
X67161Y-24852D01*
X66987Y-24678D01*
X66874Y-24603D01*
X66741Y-24576D01*
X65480Y-24576D01*
X65479Y-24576D01*
X65346Y-24603D01*
X65233Y-24678D01*
X65233Y-24678D01*
X65068Y-24843D01*
X64993Y-24956D01*
X64966Y-25090D01*
X64966Y-26100D01*
X64953Y-26113D01*
X64953Y-25829D01*
X64945Y-25531D01*
X64846Y-25291D01*
X64730Y-25240D01*
X64659Y-25310D01*
X64659Y-25169D01*
X64608Y-25053D01*
X64329Y-24946D01*
X64031Y-24954D01*
X63791Y-25053D01*
X63740Y-25169D01*
X64200Y-25629D01*
X64659Y-25169D01*
X64659Y-25310D01*
X64270Y-25700D01*
X64730Y-26159D01*
X64846Y-26108D01*
X64953Y-25829D01*
X64953Y-26113D01*
X64795Y-26271D01*
X64641Y-26271D01*
X64659Y-26230D01*
X64200Y-25770D01*
X64194Y-25776D01*
X64123Y-25705D01*
X64129Y-25700D01*
X63669Y-25240D01*
X63553Y-25291D01*
X63446Y-25570D01*
X63454Y-25868D01*
X63551Y-26103D01*
X63398Y-25950D01*
X63398Y-25210D01*
X63398Y-25209D01*
X63398Y-25209D01*
X63371Y-25076D01*
X63296Y-24963D01*
X63296Y-24963D01*
X62906Y-24573D01*
X62793Y-24498D01*
X62660Y-24471D01*
X61790Y-24471D01*
X61789Y-24471D01*
X61656Y-24498D01*
X61543Y-24573D01*
X61543Y-24573D01*
X61183Y-24933D01*
X61108Y-25046D01*
X61081Y-25180D01*
X61081Y-26485D01*
X61108Y-26618D01*
X61183Y-26731D01*
X61331Y-26879D01*
X61331Y-27975D01*
X61186Y-28119D01*
X61095Y-28340D01*
X61094Y-28578D01*
X61186Y-28799D01*
X61260Y-28874D01*
X61203Y-28897D01*
X61133Y-28968D01*
X61095Y-29060D01*
X61094Y-29159D01*
X61095Y-29347D01*
X61157Y-29410D01*
X61645Y-29410D01*
X61645Y-29402D01*
X61745Y-29402D01*
X61745Y-29410D01*
X62232Y-29410D01*
X62295Y-29347D01*
X62295Y-29159D01*
X62294Y-29060D01*
X62256Y-28968D01*
X62186Y-28897D01*
X62129Y-28874D01*
X62203Y-28800D01*
X62294Y-28579D01*
X62295Y-28341D01*
X62203Y-28120D01*
X62035Y-27951D01*
X62028Y-27948D01*
X62028Y-27506D01*
X62494Y-27972D01*
X62494Y-33673D01*
X62388Y-33566D01*
X62329Y-33542D01*
X62329Y-32665D01*
X62318Y-32457D01*
X62260Y-32317D01*
X62167Y-32292D01*
X61870Y-32590D01*
X62167Y-32887D01*
X62260Y-32862D01*
X62329Y-32665D01*
X62329Y-33542D01*
X62194Y-33486D01*
X62097Y-33486D01*
X62097Y-32957D01*
X61800Y-32660D01*
X61729Y-32731D01*
X61729Y-32590D01*
X61432Y-32292D01*
X61339Y-32317D01*
X61270Y-32514D01*
X61281Y-32722D01*
X61339Y-32862D01*
X61432Y-32887D01*
X61729Y-32590D01*
X61729Y-32731D01*
X61502Y-32957D01*
X61527Y-33050D01*
X61724Y-33119D01*
X61932Y-33108D01*
X62072Y-33050D01*
X62097Y-32957D01*
X62097Y-33486D01*
X61985Y-33486D01*
X61792Y-33566D01*
X61644Y-33713D01*
X61580Y-33867D01*
X61008Y-33295D01*
X61008Y-31250D01*
X61008Y-31249D01*
X61008Y-31249D01*
X60981Y-31116D01*
X60906Y-31003D01*
X60906Y-31003D01*
X60762Y-30859D01*
X60762Y-30859D01*
X60583Y-30680D01*
X60599Y-30639D01*
X60600Y-30552D01*
X60753Y-30706D01*
X60753Y-30706D01*
X60866Y-30781D01*
X60999Y-30808D01*
X60999Y-30808D01*
X61000Y-30808D01*
X61195Y-30808D01*
X61346Y-30960D01*
X61346Y-31313D01*
X61275Y-31485D01*
X61274Y-31693D01*
X61354Y-31887D01*
X61502Y-32034D01*
X61628Y-32087D01*
X61527Y-32129D01*
X61502Y-32222D01*
X61800Y-32519D01*
X62097Y-32222D01*
X62072Y-32129D01*
X61962Y-32090D01*
X62097Y-32035D01*
X62244Y-31887D01*
X62324Y-31694D01*
X62325Y-31486D01*
X62245Y-31293D01*
X62097Y-31145D01*
X62043Y-31122D01*
X62043Y-30959D01*
X62203Y-30800D01*
X62294Y-30579D01*
X62295Y-30341D01*
X62203Y-30120D01*
X62129Y-30045D01*
X62186Y-30022D01*
X62256Y-29951D01*
X62294Y-29859D01*
X62295Y-29760D01*
X62295Y-29572D01*
X62232Y-29510D01*
X61745Y-29510D01*
X61745Y-29517D01*
X61645Y-29517D01*
X61645Y-29510D01*
X61157Y-29510D01*
X61095Y-29572D01*
X61094Y-29760D01*
X61095Y-29859D01*
X61133Y-29951D01*
X61203Y-30022D01*
X61260Y-30045D01*
X61194Y-30111D01*
X61144Y-30111D01*
X60926Y-29893D01*
X60813Y-29818D01*
X60680Y-29791D01*
X60600Y-29791D01*
X60600Y-29640D01*
X60562Y-29548D01*
X60491Y-29478D01*
X60399Y-29440D01*
X60300Y-29439D01*
X60268Y-29439D01*
X60268Y-28804D01*
X60786Y-28286D01*
X60786Y-28286D01*
X60786Y-28286D01*
X60861Y-28173D01*
X60888Y-28040D01*
X60888Y-27020D01*
X60888Y-26964D01*
X60888Y-26964D01*
X60947Y-26875D01*
X60974Y-26742D01*
X60974Y-26742D01*
X60974Y-26742D01*
X60974Y-24646D01*
X60974Y-24645D01*
X60974Y-24645D01*
X60947Y-24512D01*
X60872Y-24399D01*
X60872Y-24399D01*
X60619Y-24146D01*
X60619Y-24146D01*
X60386Y-23913D01*
X60273Y-23838D01*
X60140Y-23811D01*
X53290Y-23811D01*
X51548Y-23811D01*
X51453Y-23748D01*
X51320Y-23721D01*
X41250Y-23721D01*
X41249Y-23721D01*
X41116Y-23748D01*
X41003Y-23823D01*
X41003Y-23823D01*
X40735Y-24091D01*
X39280Y-24091D01*
X39279Y-24091D01*
X39146Y-24118D01*
X39033Y-24193D01*
X39033Y-24193D01*
X39033Y-24193D01*
X38653Y-24573D01*
X38578Y-24686D01*
X38551Y-24820D01*
X38551Y-50000D01*
X38578Y-50133D01*
X38653Y-50246D01*
X39518Y-51111D01*
X39518Y-51111D01*
X39631Y-51186D01*
X39765Y-51213D01*
X39905Y-51213D01*
X40111Y-51419D01*
X40111Y-51870D01*
X40025Y-51840D01*
X39817Y-51851D01*
X39677Y-51909D01*
X39652Y-52002D01*
X39950Y-52299D01*
X39955Y-52293D01*
X40026Y-52364D01*
X40020Y-52370D01*
X40026Y-52375D01*
X39955Y-52446D01*
X39950Y-52440D01*
X39879Y-52511D01*
X39879Y-52370D01*
X39582Y-52072D01*
X39489Y-52097D01*
X39420Y-52294D01*
X39431Y-52502D01*
X39489Y-52642D01*
X39582Y-52667D01*
X39879Y-52370D01*
X39879Y-52511D01*
X39652Y-52737D01*
X39677Y-52830D01*
X39874Y-52899D01*
X40082Y-52888D01*
X40120Y-52872D01*
X40138Y-52958D01*
X40213Y-53071D01*
X40498Y-53356D01*
X40611Y-53431D01*
X40611Y-53431D01*
X40745Y-53458D01*
X41080Y-53458D01*
X41121Y-53499D01*
X41121Y-54980D01*
X41148Y-55113D01*
X41223Y-55226D01*
X41738Y-55741D01*
X41738Y-55741D01*
X41851Y-55816D01*
X41984Y-55843D01*
X41984Y-55843D01*
X41985Y-55843D01*
X42515Y-55843D01*
X42648Y-55816D01*
X42648Y-55816D01*
X42761Y-55741D01*
X43701Y-54801D01*
X43730Y-54757D01*
X43731Y-54772D01*
X43789Y-54912D01*
X43882Y-54937D01*
X44179Y-54640D01*
X43882Y-54342D01*
X43803Y-54363D01*
X43803Y-51916D01*
X43882Y-51937D01*
X44179Y-51640D01*
X44173Y-51634D01*
X44244Y-51563D01*
X44250Y-51569D01*
X44547Y-51272D01*
X44522Y-51179D01*
X44497Y-51170D01*
X45345Y-50322D01*
X45344Y-50410D01*
X45345Y-50523D01*
X45407Y-50586D01*
X45820Y-50586D01*
X45820Y-50173D01*
X45757Y-50111D01*
X45556Y-50110D01*
X45622Y-50044D01*
X45674Y-50045D01*
X46224Y-50045D01*
X46316Y-50007D01*
X46386Y-49936D01*
X46415Y-49868D01*
X46506Y-49868D01*
X46602Y-49964D01*
X46795Y-50044D01*
X47003Y-50045D01*
X47197Y-49965D01*
X47294Y-49868D01*
X47506Y-49868D01*
X47602Y-49964D01*
X47795Y-50044D01*
X48003Y-50045D01*
X48197Y-49965D01*
X48294Y-49868D01*
X48506Y-49868D01*
X48602Y-49964D01*
X48795Y-50044D01*
X49003Y-50045D01*
X49197Y-49965D01*
X49294Y-49868D01*
X49506Y-49868D01*
X49602Y-49964D01*
X49795Y-50044D01*
X50003Y-50045D01*
X50197Y-49965D01*
X50294Y-49868D01*
X50506Y-49868D01*
X50602Y-49964D01*
X50795Y-50044D01*
X51003Y-50045D01*
X51197Y-49965D01*
X51294Y-49868D01*
X51506Y-49868D01*
X51602Y-49964D01*
X51795Y-50044D01*
X52003Y-50045D01*
X52197Y-49965D01*
X52294Y-49868D01*
X52506Y-49868D01*
X52602Y-49964D01*
X52795Y-50044D01*
X53003Y-50045D01*
X53197Y-49965D01*
X53294Y-49868D01*
X53360Y-49868D01*
X54058Y-50566D01*
X54058Y-50566D01*
X54171Y-50641D01*
X54304Y-50668D01*
X54304Y-50668D01*
X54305Y-50668D01*
X54675Y-50668D01*
X56603Y-52596D01*
X56603Y-52596D01*
X56646Y-52625D01*
X56639Y-52627D01*
X56570Y-52824D01*
X56581Y-53032D01*
X56639Y-53172D01*
X56732Y-53197D01*
X57029Y-52900D01*
X57023Y-52894D01*
X57094Y-52823D01*
X57100Y-52829D01*
X57105Y-52823D01*
X57176Y-52894D01*
X57170Y-52900D01*
X57467Y-53197D01*
X57560Y-53172D01*
X57629Y-52975D01*
X57618Y-52767D01*
X57590Y-52698D01*
X58364Y-52698D01*
X58320Y-52824D01*
X58331Y-53032D01*
X58389Y-53172D01*
X58482Y-53197D01*
X58779Y-52900D01*
X58773Y-52894D01*
X58844Y-52823D01*
X58850Y-52829D01*
X58855Y-52823D01*
X58926Y-52894D01*
X58920Y-52900D01*
X59217Y-53197D01*
X59310Y-53172D01*
X59379Y-52975D01*
X59368Y-52767D01*
X59340Y-52698D01*
X59570Y-52698D01*
X59703Y-52671D01*
X59703Y-52671D01*
X59816Y-52596D01*
X59914Y-52498D01*
X59920Y-52498D01*
X60038Y-52615D01*
X60113Y-52647D01*
X60062Y-52668D01*
X60034Y-52764D01*
X60350Y-53079D01*
X60665Y-52764D01*
X60637Y-52668D01*
X60582Y-52649D01*
X60661Y-52616D01*
X60779Y-52498D01*
X60920Y-52498D01*
X61038Y-52615D01*
X61113Y-52647D01*
X61062Y-52668D01*
X61034Y-52764D01*
X61350Y-53079D01*
X61665Y-52764D01*
X61637Y-52668D01*
X61582Y-52649D01*
X61661Y-52616D01*
X61779Y-52498D01*
X61920Y-52498D01*
X62038Y-52615D01*
X62113Y-52647D01*
X62062Y-52668D01*
X62034Y-52764D01*
X62350Y-53079D01*
X62665Y-52764D01*
X62637Y-52668D01*
X62582Y-52649D01*
X62661Y-52616D01*
X62815Y-52461D01*
X62899Y-52259D01*
X62900Y-52041D01*
X62816Y-51838D01*
X62677Y-51700D01*
X62699Y-51700D01*
X62791Y-51662D01*
X62861Y-51591D01*
X62899Y-51499D01*
X62900Y-51400D01*
X62900Y-50800D01*
X62862Y-50708D01*
X62791Y-50638D01*
X62699Y-50600D01*
X62600Y-50599D01*
X62562Y-50599D01*
X62106Y-50143D01*
X61993Y-50068D01*
X61860Y-50041D01*
X61709Y-50041D01*
X61739Y-49955D01*
X61728Y-49747D01*
X61670Y-49607D01*
X61577Y-49582D01*
X61280Y-49880D01*
X61286Y-49885D01*
X61215Y-49956D01*
X61210Y-49950D01*
X61204Y-49956D01*
X61133Y-49885D01*
X61139Y-49880D01*
X60842Y-49582D01*
X60749Y-49607D01*
X60738Y-49638D01*
X60738Y-49113D01*
X60764Y-49177D01*
X60912Y-49324D01*
X61038Y-49377D01*
X60937Y-49419D01*
X60912Y-49512D01*
X61210Y-49809D01*
X61507Y-49512D01*
X61482Y-49419D01*
X61372Y-49380D01*
X61507Y-49325D01*
X61654Y-49177D01*
X61734Y-48984D01*
X61735Y-48776D01*
X61655Y-48583D01*
X61558Y-48485D01*
X61558Y-48414D01*
X62062Y-47910D01*
X62110Y-47901D01*
X62291Y-47779D01*
X62396Y-47624D01*
X62500Y-47779D01*
X62547Y-47811D01*
X62547Y-48300D01*
X62485Y-48362D01*
X62405Y-48555D01*
X62404Y-48763D01*
X62484Y-48957D01*
X62581Y-49054D01*
X62581Y-49140D01*
X62608Y-49273D01*
X62683Y-49386D01*
X63323Y-50026D01*
X63323Y-52600D01*
X63323Y-52614D01*
X63323Y-52903D01*
X62854Y-53372D01*
X62904Y-53231D01*
X62893Y-53013D01*
X62831Y-52862D01*
X62735Y-52834D01*
X62420Y-53150D01*
X62426Y-53155D01*
X62355Y-53226D01*
X62350Y-53220D01*
X62344Y-53226D01*
X62273Y-53155D01*
X62279Y-53150D01*
X61964Y-52834D01*
X61868Y-52862D01*
X61851Y-52910D01*
X61831Y-52862D01*
X61735Y-52834D01*
X61420Y-53150D01*
X61426Y-53155D01*
X61355Y-53226D01*
X61350Y-53220D01*
X61344Y-53226D01*
X61273Y-53155D01*
X61279Y-53150D01*
X60964Y-52834D01*
X60868Y-52862D01*
X60851Y-52910D01*
X60831Y-52862D01*
X60735Y-52834D01*
X60420Y-53150D01*
X60426Y-53155D01*
X60355Y-53226D01*
X60350Y-53220D01*
X60344Y-53226D01*
X60273Y-53155D01*
X60279Y-53150D01*
X59964Y-52834D01*
X59868Y-52862D01*
X59795Y-53068D01*
X59806Y-53286D01*
X59856Y-53407D01*
X59009Y-53407D01*
X59122Y-53360D01*
X59147Y-53267D01*
X58850Y-52970D01*
X58552Y-53267D01*
X58577Y-53360D01*
X58710Y-53407D01*
X57259Y-53407D01*
X57372Y-53360D01*
X57397Y-53267D01*
X57100Y-52970D01*
X56802Y-53267D01*
X56827Y-53360D01*
X56960Y-53407D01*
X56850Y-53407D01*
X56611Y-53168D01*
X56498Y-53093D01*
X56365Y-53066D01*
X54624Y-53066D01*
X54506Y-52949D01*
X54304Y-52865D01*
X54086Y-52864D01*
X53883Y-52948D01*
X53765Y-53066D01*
X53399Y-53066D01*
X53399Y-50711D01*
X53388Y-50503D01*
X53330Y-50363D01*
X53237Y-50338D01*
X53167Y-50409D01*
X53167Y-50268D01*
X53142Y-50175D01*
X52945Y-50106D01*
X52737Y-50117D01*
X52597Y-50175D01*
X52572Y-50268D01*
X52870Y-50565D01*
X53167Y-50268D01*
X53167Y-50409D01*
X52940Y-50636D01*
X53237Y-50933D01*
X53330Y-50908D01*
X53399Y-50711D01*
X53399Y-53066D01*
X53389Y-53066D01*
X53167Y-52844D01*
X53167Y-51003D01*
X52870Y-50706D01*
X52799Y-50777D01*
X52799Y-50636D01*
X52502Y-50338D01*
X52409Y-50363D01*
X52373Y-50466D01*
X52330Y-50363D01*
X52237Y-50338D01*
X52167Y-50409D01*
X52167Y-50268D01*
X52142Y-50175D01*
X51945Y-50106D01*
X51737Y-50117D01*
X51597Y-50175D01*
X51572Y-50268D01*
X51870Y-50565D01*
X52167Y-50268D01*
X52167Y-50409D01*
X51940Y-50636D01*
X52237Y-50933D01*
X52330Y-50908D01*
X52366Y-50805D01*
X52409Y-50908D01*
X52502Y-50933D01*
X52799Y-50636D01*
X52799Y-50777D01*
X52572Y-51003D01*
X52597Y-51096D01*
X52794Y-51165D01*
X53002Y-51154D01*
X53142Y-51096D01*
X53167Y-51003D01*
X53167Y-52844D01*
X53022Y-52699D01*
X52909Y-52624D01*
X52776Y-52597D01*
X52167Y-52597D01*
X52167Y-51003D01*
X51870Y-50706D01*
X51799Y-50777D01*
X51799Y-50636D01*
X51502Y-50338D01*
X51409Y-50363D01*
X51373Y-50466D01*
X51330Y-50363D01*
X51237Y-50338D01*
X51167Y-50409D01*
X51167Y-50268D01*
X51142Y-50175D01*
X50945Y-50106D01*
X50737Y-50117D01*
X50597Y-50175D01*
X50572Y-50268D01*
X50870Y-50565D01*
X51167Y-50268D01*
X51167Y-50409D01*
X50940Y-50636D01*
X51237Y-50933D01*
X51330Y-50908D01*
X51366Y-50805D01*
X51409Y-50908D01*
X51502Y-50933D01*
X51799Y-50636D01*
X51799Y-50777D01*
X51572Y-51003D01*
X51597Y-51096D01*
X51794Y-51165D01*
X52002Y-51154D01*
X52142Y-51096D01*
X52167Y-51003D01*
X52167Y-52597D01*
X51560Y-52597D01*
X51426Y-52624D01*
X51313Y-52699D01*
X51167Y-52846D01*
X51167Y-51003D01*
X50870Y-50706D01*
X50799Y-50777D01*
X50799Y-50636D01*
X50502Y-50338D01*
X50409Y-50363D01*
X50373Y-50466D01*
X50330Y-50363D01*
X50237Y-50338D01*
X50167Y-50409D01*
X50167Y-50268D01*
X50142Y-50175D01*
X49945Y-50106D01*
X49737Y-50117D01*
X49597Y-50175D01*
X49572Y-50268D01*
X49870Y-50565D01*
X50167Y-50268D01*
X50167Y-50409D01*
X49940Y-50636D01*
X50237Y-50933D01*
X50330Y-50908D01*
X50366Y-50805D01*
X50409Y-50908D01*
X50502Y-50933D01*
X50799Y-50636D01*
X50799Y-50777D01*
X50572Y-51003D01*
X50597Y-51096D01*
X50794Y-51165D01*
X51002Y-51154D01*
X51142Y-51096D01*
X51167Y-51003D01*
X51167Y-52846D01*
X50879Y-53133D01*
X50804Y-53246D01*
X50777Y-53380D01*
X50777Y-53566D01*
X50746Y-53491D01*
X50630Y-53440D01*
X50559Y-53510D01*
X50559Y-53369D01*
X50508Y-53253D01*
X50229Y-53146D01*
X50167Y-53147D01*
X50167Y-51003D01*
X49870Y-50706D01*
X49799Y-50777D01*
X49799Y-50636D01*
X49502Y-50338D01*
X49409Y-50363D01*
X49373Y-50466D01*
X49330Y-50363D01*
X49237Y-50338D01*
X49167Y-50409D01*
X49167Y-50268D01*
X49142Y-50175D01*
X48945Y-50106D01*
X48737Y-50117D01*
X48597Y-50175D01*
X48572Y-50268D01*
X48870Y-50565D01*
X49167Y-50268D01*
X49167Y-50409D01*
X48940Y-50636D01*
X49237Y-50933D01*
X49330Y-50908D01*
X49366Y-50805D01*
X49409Y-50908D01*
X49502Y-50933D01*
X49799Y-50636D01*
X49799Y-50777D01*
X49572Y-51003D01*
X49597Y-51096D01*
X49794Y-51165D01*
X50002Y-51154D01*
X50142Y-51096D01*
X50167Y-51003D01*
X50167Y-53147D01*
X49931Y-53154D01*
X49691Y-53253D01*
X49640Y-53369D01*
X50100Y-53829D01*
X50559Y-53369D01*
X50559Y-53510D01*
X50170Y-53900D01*
X50176Y-53905D01*
X50105Y-53976D01*
X50100Y-53970D01*
X50029Y-54041D01*
X50029Y-53900D01*
X49569Y-53440D01*
X49453Y-53491D01*
X49346Y-53770D01*
X49354Y-54068D01*
X49453Y-54308D01*
X49569Y-54359D01*
X50029Y-53900D01*
X50029Y-54041D01*
X49640Y-54430D01*
X49691Y-54546D01*
X49772Y-54577D01*
X49167Y-54577D01*
X49167Y-51003D01*
X48870Y-50706D01*
X48799Y-50777D01*
X48799Y-50636D01*
X48502Y-50338D01*
X48409Y-50363D01*
X48373Y-50466D01*
X48330Y-50363D01*
X48237Y-50338D01*
X48167Y-50409D01*
X48167Y-50268D01*
X48142Y-50175D01*
X47945Y-50106D01*
X47737Y-50117D01*
X47597Y-50175D01*
X47572Y-50268D01*
X47870Y-50565D01*
X48167Y-50268D01*
X48167Y-50409D01*
X47940Y-50636D01*
X48237Y-50933D01*
X48330Y-50908D01*
X48366Y-50805D01*
X48409Y-50908D01*
X48502Y-50933D01*
X48799Y-50636D01*
X48799Y-50777D01*
X48572Y-51003D01*
X48597Y-51096D01*
X48794Y-51165D01*
X49002Y-51154D01*
X49142Y-51096D01*
X49167Y-51003D01*
X49167Y-54577D01*
X48780Y-54577D01*
X48778Y-54575D01*
X48811Y-54541D01*
X48849Y-54449D01*
X48850Y-54350D01*
X48850Y-53350D01*
X48812Y-53258D01*
X48741Y-53188D01*
X48649Y-53150D01*
X48550Y-53149D01*
X48167Y-53149D01*
X48167Y-51003D01*
X47870Y-50706D01*
X47799Y-50777D01*
X47799Y-50636D01*
X47502Y-50338D01*
X47409Y-50363D01*
X47373Y-50466D01*
X47330Y-50363D01*
X47237Y-50338D01*
X47167Y-50409D01*
X47167Y-50268D01*
X47142Y-50175D01*
X46945Y-50106D01*
X46737Y-50117D01*
X46597Y-50175D01*
X46572Y-50268D01*
X46870Y-50565D01*
X47167Y-50268D01*
X47167Y-50409D01*
X46940Y-50636D01*
X47237Y-50933D01*
X47330Y-50908D01*
X47366Y-50805D01*
X47409Y-50908D01*
X47502Y-50933D01*
X47799Y-50636D01*
X47799Y-50777D01*
X47572Y-51003D01*
X47597Y-51096D01*
X47794Y-51165D01*
X48002Y-51154D01*
X48142Y-51096D01*
X48167Y-51003D01*
X48167Y-53149D01*
X47550Y-53149D01*
X47458Y-53187D01*
X47388Y-53258D01*
X47350Y-53350D01*
X47349Y-53449D01*
X47349Y-54449D01*
X47387Y-54541D01*
X47458Y-54611D01*
X47550Y-54649D01*
X47649Y-54650D01*
X47867Y-54650D01*
X48389Y-55172D01*
X48389Y-55172D01*
X48502Y-55247D01*
X48635Y-55274D01*
X48635Y-55274D01*
X48636Y-55274D01*
X50466Y-55274D01*
X50599Y-55247D01*
X50599Y-55247D01*
X50712Y-55172D01*
X51372Y-54512D01*
X51372Y-54512D01*
X51372Y-54512D01*
X51374Y-54509D01*
X51387Y-54541D01*
X51458Y-54611D01*
X51550Y-54649D01*
X51649Y-54650D01*
X52649Y-54650D01*
X52741Y-54612D01*
X52811Y-54541D01*
X52849Y-54449D01*
X52850Y-54388D01*
X53427Y-54388D01*
X53427Y-56110D01*
X64332Y-56110D01*
X64332Y-54250D01*
X63442Y-54250D01*
X64176Y-53516D01*
X64176Y-53516D01*
X64176Y-53516D01*
X64251Y-53403D01*
X64278Y-53270D01*
X64278Y-53270D01*
X64278Y-53270D01*
X64278Y-49175D01*
X64346Y-49147D01*
X64416Y-49076D01*
X64446Y-49004D01*
X64446Y-49004D01*
X64558Y-48981D01*
X64558Y-48981D01*
X64671Y-48906D01*
X64909Y-48667D01*
X64948Y-48705D01*
X65150Y-48789D01*
X65307Y-48790D01*
X65073Y-49023D01*
X64998Y-49136D01*
X64971Y-49270D01*
X64971Y-49840D01*
X64998Y-49973D01*
X65073Y-50086D01*
X65306Y-50319D01*
X65275Y-50395D01*
X65274Y-50603D01*
X65354Y-50797D01*
X65502Y-50944D01*
X65695Y-51024D01*
X65903Y-51025D01*
X66097Y-50945D01*
X66194Y-50848D01*
X66325Y-50848D01*
X66533Y-51056D01*
X66533Y-51056D01*
X66646Y-51131D01*
X66779Y-51158D01*
X66779Y-51158D01*
X66780Y-51158D01*
X68785Y-51158D01*
X69453Y-51826D01*
X69453Y-51826D01*
X69566Y-51901D01*
X69651Y-51918D01*
X69714Y-51982D01*
X69210Y-52486D01*
X69151Y-52428D01*
X69059Y-52390D01*
X68960Y-52389D01*
X68410Y-52389D01*
X68318Y-52427D01*
X68248Y-52498D01*
X68210Y-52590D01*
X68209Y-52689D01*
X68209Y-53239D01*
X68247Y-53331D01*
X68318Y-53401D01*
X68410Y-53439D01*
X68497Y-53440D01*
X68462Y-53454D01*
X68437Y-53547D01*
X68735Y-53844D01*
X69032Y-53547D01*
X69007Y-53454D01*
X68966Y-53440D01*
X69059Y-53440D01*
X69151Y-53402D01*
X69221Y-53331D01*
X69250Y-53263D01*
X69275Y-53263D01*
X69408Y-53236D01*
X69408Y-53236D01*
X69521Y-53161D01*
X70336Y-52346D01*
X70411Y-52233D01*
X70438Y-52100D01*
X70438Y-52009D01*
X70555Y-51891D01*
X70639Y-51689D01*
X70640Y-51522D01*
X70982Y-51180D01*
X71018Y-51180D01*
X71212Y-51100D01*
X71359Y-50952D01*
X71439Y-50759D01*
X71440Y-50551D01*
X71360Y-50358D01*
X71212Y-50210D01*
X71086Y-50157D01*
X71187Y-50115D01*
X71212Y-50022D01*
X70915Y-49725D01*
X70617Y-50022D01*
X70642Y-50115D01*
X70752Y-50154D01*
X70618Y-50209D01*
X70470Y-50357D01*
X70390Y-50550D01*
X70389Y-50758D01*
X70398Y-50778D01*
X70147Y-51030D01*
X69981Y-51029D01*
X69778Y-51113D01*
X69752Y-51139D01*
X69176Y-50563D01*
X69063Y-50488D01*
X68930Y-50461D01*
X67397Y-50461D01*
X67397Y-50167D01*
X67100Y-49870D01*
X67029Y-49941D01*
X67029Y-49800D01*
X66732Y-49502D01*
X66639Y-49527D01*
X66570Y-49724D01*
X66581Y-49932D01*
X66639Y-50072D01*
X66732Y-50097D01*
X67029Y-49800D01*
X67029Y-49941D01*
X66802Y-50167D01*
X66827Y-50260D01*
X67024Y-50329D01*
X67232Y-50318D01*
X67372Y-50260D01*
X67397Y-50167D01*
X67397Y-50461D01*
X66924Y-50461D01*
X66716Y-50253D01*
X66603Y-50178D01*
X66470Y-50151D01*
X66193Y-50151D01*
X66097Y-50055D01*
X65978Y-50005D01*
X65974Y-50001D01*
X66072Y-49960D01*
X66097Y-49867D01*
X65800Y-49570D01*
X65794Y-49576D01*
X65723Y-49505D01*
X65729Y-49500D01*
X65723Y-49494D01*
X65794Y-49423D01*
X65800Y-49429D01*
X65805Y-49423D01*
X65876Y-49494D01*
X65870Y-49500D01*
X66167Y-49797D01*
X66260Y-49772D01*
X66329Y-49575D01*
X66318Y-49367D01*
X66260Y-49227D01*
X66256Y-49226D01*
X66376Y-49106D01*
X66451Y-48993D01*
X66478Y-48860D01*
X66478Y-48300D01*
X66478Y-47674D01*
X67322Y-46830D01*
X67322Y-46897D01*
X67479Y-47278D01*
X67771Y-47571D01*
X68152Y-47729D01*
X68565Y-47729D01*
X68911Y-47586D01*
X68911Y-47810D01*
X68794Y-47928D01*
X68710Y-48130D01*
X68709Y-48348D01*
X68793Y-48551D01*
X68948Y-48705D01*
X69150Y-48789D01*
X69368Y-48790D01*
X69566Y-48708D01*
X69566Y-49139D01*
X69498Y-49167D01*
X69428Y-49238D01*
X69399Y-49306D01*
X68500Y-49306D01*
X68424Y-49275D01*
X68325Y-49274D01*
X67775Y-49274D01*
X67683Y-49312D01*
X67613Y-49383D01*
X67575Y-49475D01*
X67574Y-49562D01*
X67560Y-49527D01*
X67467Y-49502D01*
X67397Y-49573D01*
X67397Y-49432D01*
X67372Y-49339D01*
X67175Y-49270D01*
X66967Y-49281D01*
X66827Y-49339D01*
X66802Y-49432D01*
X67100Y-49729D01*
X67397Y-49432D01*
X67397Y-49573D01*
X67170Y-49800D01*
X67467Y-50097D01*
X67560Y-50072D01*
X67574Y-50031D01*
X67574Y-50124D01*
X67612Y-50216D01*
X67683Y-50286D01*
X67775Y-50324D01*
X67874Y-50325D01*
X68424Y-50325D01*
X68516Y-50287D01*
X68586Y-50216D01*
X68624Y-50124D01*
X68625Y-50025D01*
X68625Y-50003D01*
X69399Y-50003D01*
X69427Y-50071D01*
X69498Y-50141D01*
X69590Y-50179D01*
X69689Y-50180D01*
X70239Y-50180D01*
X70331Y-50142D01*
X70401Y-50071D01*
X70439Y-49979D01*
X70440Y-49892D01*
X70454Y-49927D01*
X70547Y-49952D01*
X70844Y-49655D01*
X70547Y-49357D01*
X70454Y-49382D01*
X70440Y-49423D01*
X70440Y-49330D01*
X70402Y-49238D01*
X70331Y-49168D01*
X70263Y-49139D01*
X70263Y-44764D01*
X71451Y-43576D01*
X71526Y-43463D01*
X71526Y-43463D01*
X71553Y-43330D01*
X71553Y-40730D01*
X71565Y-40734D01*
X71773Y-40735D01*
X71967Y-40655D01*
X72114Y-40507D01*
X72194Y-40314D01*
X72195Y-40106D01*
X72115Y-39913D01*
X71967Y-39765D01*
X71774Y-39685D01*
X71566Y-39684D01*
X71547Y-39692D01*
X71526Y-39591D01*
X71451Y-39478D01*
X70471Y-38498D01*
X70358Y-38423D01*
X70225Y-38396D01*
X69973Y-38396D01*
X70097Y-38345D01*
X70244Y-38197D01*
X70300Y-38064D01*
X70354Y-38197D01*
X70502Y-38344D01*
X70695Y-38424D01*
X70903Y-38425D01*
X71097Y-38345D01*
X71244Y-38197D01*
X71274Y-38125D01*
X71274Y-38224D01*
X71312Y-38316D01*
X71383Y-38386D01*
X71475Y-38424D01*
X71574Y-38425D01*
X72124Y-38425D01*
X72216Y-38387D01*
X72286Y-38316D01*
X72324Y-38224D01*
X72325Y-38125D01*
X72325Y-53640D01*
X72195Y-53510D01*
X71809Y-53350D01*
X71444Y-53349D01*
X71444Y-49730D01*
X71433Y-49522D01*
X71375Y-49382D01*
X71282Y-49357D01*
X71212Y-49428D01*
X71212Y-49287D01*
X71187Y-49194D01*
X70990Y-49125D01*
X70782Y-49136D01*
X70642Y-49194D01*
X70617Y-49287D01*
X70915Y-49584D01*
X71212Y-49287D01*
X71212Y-49428D01*
X70985Y-49655D01*
X71282Y-49952D01*
X71375Y-49927D01*
X71444Y-49730D01*
X71444Y-53349D01*
X71392Y-53349D01*
X71006Y-53509D01*
X70710Y-53804D01*
X70550Y-54190D01*
X70549Y-54607D01*
X70709Y-54994D01*
X71004Y-55289D01*
X71390Y-55449D01*
X71807Y-55450D01*
X72194Y-55290D01*
X72489Y-54995D01*
X72649Y-54609D01*
X72650Y-54192D01*
X72650Y-56350D01*
X69264Y-56350D01*
X69264Y-53990D01*
X69253Y-53782D01*
X69195Y-53642D01*
X69102Y-53617D01*
X68805Y-53915D01*
X69102Y-54212D01*
X69195Y-54187D01*
X69264Y-53990D01*
X69264Y-56350D01*
X69032Y-56350D01*
X69032Y-54282D01*
X68735Y-53985D01*
X68664Y-54056D01*
X68664Y-53915D01*
X68367Y-53617D01*
X68274Y-53642D01*
X68205Y-53839D01*
X68216Y-54047D01*
X68274Y-54187D01*
X68367Y-54212D01*
X68664Y-53915D01*
X68664Y-54056D01*
X68437Y-54282D01*
X68462Y-54375D01*
X68659Y-54444D01*
X68867Y-54433D01*
X69007Y-54375D01*
X69032Y-54282D01*
X69032Y-56350D01*
X66640Y-56350D01*
X66640Y-51471D01*
X66556Y-51268D01*
X66401Y-51114D01*
X66199Y-51030D01*
X65981Y-51029D01*
X65778Y-51113D01*
X65624Y-51268D01*
X65540Y-51470D01*
X65539Y-51688D01*
X65580Y-51786D01*
X65533Y-51833D01*
X65458Y-51946D01*
X65431Y-52080D01*
X65431Y-52473D01*
X65288Y-52616D01*
X65200Y-52829D01*
X65199Y-53059D01*
X65288Y-53273D01*
X65451Y-53436D01*
X65472Y-53445D01*
X65443Y-53537D01*
X65780Y-53874D01*
X66116Y-53537D01*
X66087Y-53445D01*
X66108Y-53436D01*
X66271Y-53273D01*
X66359Y-53060D01*
X66360Y-52830D01*
X66271Y-52616D01*
X66128Y-52473D01*
X66128Y-52224D01*
X66239Y-52113D01*
X66401Y-52046D01*
X66555Y-51891D01*
X66639Y-51689D01*
X66640Y-51471D01*
X66640Y-56350D01*
X66364Y-56350D01*
X66364Y-54033D01*
X66354Y-53803D01*
X66286Y-53639D01*
X66187Y-53608D01*
X65850Y-53945D01*
X66187Y-54281D01*
X66286Y-54250D01*
X66364Y-54033D01*
X66364Y-56350D01*
X66116Y-56350D01*
X66116Y-54352D01*
X65780Y-54015D01*
X65709Y-54086D01*
X65709Y-53945D01*
X65372Y-53608D01*
X65273Y-53639D01*
X65195Y-53856D01*
X65205Y-54086D01*
X65273Y-54250D01*
X65372Y-54281D01*
X65709Y-53945D01*
X65709Y-54086D01*
X65443Y-54352D01*
X65474Y-54451D01*
X65691Y-54529D01*
X65921Y-54519D01*
X66085Y-54451D01*
X66116Y-54352D01*
X66116Y-56350D01*
X47167Y-56350D01*
X47167Y-51003D01*
X46870Y-50706D01*
X46799Y-50777D01*
X46799Y-50636D01*
X46502Y-50338D01*
X46409Y-50363D01*
X46395Y-50404D01*
X46394Y-50311D01*
X46356Y-50219D01*
X46286Y-50148D01*
X46194Y-50110D01*
X45982Y-50111D01*
X45920Y-50173D01*
X45920Y-50586D01*
X45927Y-50586D01*
X45927Y-50686D01*
X45920Y-50686D01*
X45920Y-51098D01*
X45982Y-51161D01*
X46194Y-51161D01*
X46286Y-51123D01*
X46356Y-51052D01*
X46394Y-50960D01*
X46395Y-50873D01*
X46409Y-50908D01*
X46502Y-50933D01*
X46799Y-50636D01*
X46799Y-50777D01*
X46572Y-51003D01*
X46597Y-51096D01*
X46794Y-51165D01*
X47002Y-51154D01*
X47142Y-51096D01*
X47167Y-51003D01*
X47167Y-56350D01*
X46853Y-56350D01*
X46853Y-54029D01*
X46845Y-53731D01*
X46746Y-53491D01*
X46630Y-53440D01*
X46559Y-53510D01*
X46559Y-53369D01*
X46508Y-53253D01*
X46229Y-53146D01*
X45931Y-53154D01*
X45820Y-53200D01*
X45820Y-51098D01*
X45820Y-50686D01*
X45407Y-50686D01*
X45345Y-50748D01*
X45344Y-50861D01*
X45345Y-50960D01*
X45383Y-51052D01*
X45453Y-51123D01*
X45545Y-51161D01*
X45757Y-51161D01*
X45820Y-51098D01*
X45820Y-53200D01*
X45691Y-53253D01*
X45640Y-53369D01*
X46100Y-53829D01*
X46559Y-53369D01*
X46559Y-53510D01*
X46170Y-53900D01*
X46630Y-54359D01*
X46746Y-54308D01*
X46853Y-54029D01*
X46853Y-56350D01*
X46559Y-56350D01*
X46559Y-54430D01*
X46100Y-53970D01*
X46029Y-54041D01*
X46029Y-53900D01*
X45569Y-53440D01*
X45453Y-53491D01*
X45346Y-53770D01*
X45354Y-54068D01*
X45453Y-54308D01*
X45569Y-54359D01*
X46029Y-53900D01*
X46029Y-54041D01*
X45640Y-54430D01*
X45691Y-54546D01*
X45970Y-54653D01*
X46268Y-54645D01*
X46508Y-54546D01*
X46559Y-54430D01*
X46559Y-56350D01*
X44779Y-56350D01*
X44779Y-54715D01*
X44779Y-51715D01*
X44768Y-51507D01*
X44710Y-51367D01*
X44617Y-51342D01*
X44320Y-51640D01*
X44617Y-51937D01*
X44710Y-51912D01*
X44779Y-51715D01*
X44779Y-54715D01*
X44768Y-54507D01*
X44710Y-54367D01*
X44617Y-54342D01*
X44547Y-54413D01*
X44547Y-54272D01*
X44547Y-52007D01*
X44250Y-51710D01*
X43952Y-52007D01*
X43977Y-52100D01*
X44174Y-52169D01*
X44382Y-52158D01*
X44522Y-52100D01*
X44547Y-52007D01*
X44547Y-54272D01*
X44522Y-54179D01*
X44325Y-54110D01*
X44117Y-54121D01*
X43977Y-54179D01*
X43952Y-54272D01*
X44250Y-54569D01*
X44547Y-54272D01*
X44547Y-54413D01*
X44320Y-54640D01*
X44617Y-54937D01*
X44710Y-54912D01*
X44779Y-54715D01*
X44779Y-56350D01*
X44547Y-56350D01*
X44547Y-55007D01*
X44250Y-54710D01*
X43952Y-55007D01*
X43977Y-55100D01*
X44174Y-55169D01*
X44382Y-55158D01*
X44522Y-55100D01*
X44547Y-55007D01*
X44547Y-56350D01*
X40500Y-56350D01*
X40500Y-54442D01*
X40340Y-54056D01*
X40045Y-53760D01*
X39659Y-53600D01*
X39242Y-53599D01*
X38856Y-53759D01*
X38560Y-54054D01*
X38400Y-54440D01*
X38399Y-54857D01*
X38559Y-55244D01*
X38854Y-55539D01*
X39240Y-55699D01*
X39657Y-55700D01*
X40044Y-55540D01*
X40339Y-55245D01*
X40499Y-54859D01*
X40500Y-54442D01*
X40500Y-56350D01*
X38150Y-56350D01*
X38150Y-22950D01*
X73550Y-22950D01*
X73550Y-56350D01*
M02*
