G04 (created by PCBNEW (2013-june-11)-stable) date mar 07 oct 2014 09:39:09 ART*
%MOIN*%
G04 Gerber Fmt 3.4, Leading zero omitted, Abs format*
%FSLAX34Y34*%
G01*
G70*
G90*
G04 APERTURE LIST*
%ADD10C,0.00590551*%
%ADD11C,0.005*%
%ADD12C,0.012*%
%ADD13C,0.006*%
%ADD14C,0.008*%
%ADD15C,0.003*%
%ADD16C,0.01*%
%ADD17C,0.015*%
%ADD18C,0.0107*%
%ADD19C,0.0035*%
%ADD20C,0.01125*%
%ADD21C,0.0113*%
%ADD22C,0.0075*%
%ADD23C,0.0106*%
G04 APERTURE END LIST*
G54D10*
X4000Y-4000D02*
X112930Y-4000D01*
X112930Y-78680D01*
X4000Y-78680D01*
X4000Y-4000D01*
X4700Y-4700D02*
X112230Y-4700D01*
X112230Y-77980D01*
X4700Y-77980D01*
X4700Y-4700D01*
X25780Y-4000D02*
X25780Y-4700D01*
X15032Y-4552D02*
X14747Y-4552D01*
X14890Y-4552D02*
X14890Y-4052D01*
X14842Y-4123D01*
X14794Y-4171D01*
X14747Y-4195D01*
X25780Y-78680D02*
X25780Y-77980D01*
X15032Y-78532D02*
X14747Y-78532D01*
X14890Y-78532D02*
X14890Y-78032D01*
X14842Y-78103D01*
X14794Y-78151D01*
X14747Y-78175D01*
X47560Y-4000D02*
X47560Y-4700D01*
X36527Y-4100D02*
X36550Y-4076D01*
X36598Y-4052D01*
X36717Y-4052D01*
X36765Y-4076D01*
X36789Y-4100D01*
X36812Y-4147D01*
X36812Y-4195D01*
X36789Y-4266D01*
X36503Y-4552D01*
X36812Y-4552D01*
X47560Y-78680D02*
X47560Y-77980D01*
X36527Y-78080D02*
X36550Y-78056D01*
X36598Y-78032D01*
X36717Y-78032D01*
X36765Y-78056D01*
X36789Y-78080D01*
X36812Y-78127D01*
X36812Y-78175D01*
X36789Y-78246D01*
X36503Y-78532D01*
X36812Y-78532D01*
X69340Y-4000D02*
X69340Y-4700D01*
X58283Y-4052D02*
X58592Y-4052D01*
X58426Y-4242D01*
X58497Y-4242D01*
X58545Y-4266D01*
X58569Y-4290D01*
X58592Y-4338D01*
X58592Y-4457D01*
X58569Y-4504D01*
X58545Y-4528D01*
X58497Y-4552D01*
X58354Y-4552D01*
X58307Y-4528D01*
X58283Y-4504D01*
X69340Y-78680D02*
X69340Y-77980D01*
X58283Y-78032D02*
X58592Y-78032D01*
X58426Y-78222D01*
X58497Y-78222D01*
X58545Y-78246D01*
X58569Y-78270D01*
X58592Y-78318D01*
X58592Y-78437D01*
X58569Y-78484D01*
X58545Y-78508D01*
X58497Y-78532D01*
X58354Y-78532D01*
X58307Y-78508D01*
X58283Y-78484D01*
X91120Y-4000D02*
X91120Y-4700D01*
X80325Y-4219D02*
X80325Y-4552D01*
X80206Y-4028D02*
X80087Y-4385D01*
X80396Y-4385D01*
X91120Y-78680D02*
X91120Y-77980D01*
X80325Y-78199D02*
X80325Y-78532D01*
X80206Y-78008D02*
X80087Y-78365D01*
X80396Y-78365D01*
X102129Y-4052D02*
X101890Y-4052D01*
X101867Y-4290D01*
X101890Y-4266D01*
X101938Y-4242D01*
X102057Y-4242D01*
X102105Y-4266D01*
X102129Y-4290D01*
X102152Y-4338D01*
X102152Y-4457D01*
X102129Y-4504D01*
X102105Y-4528D01*
X102057Y-4552D01*
X101938Y-4552D01*
X101890Y-4528D01*
X101867Y-4504D01*
X102129Y-78032D02*
X101890Y-78032D01*
X101867Y-78270D01*
X101890Y-78246D01*
X101938Y-78222D01*
X102057Y-78222D01*
X102105Y-78246D01*
X102129Y-78270D01*
X102152Y-78318D01*
X102152Y-78437D01*
X102129Y-78484D01*
X102105Y-78508D01*
X102057Y-78532D01*
X101938Y-78532D01*
X101890Y-78508D01*
X101867Y-78484D01*
X4000Y-28890D02*
X4700Y-28890D01*
X4230Y-16509D02*
X4469Y-16509D01*
X4183Y-16652D02*
X4350Y-16152D01*
X4516Y-16652D01*
X112930Y-28890D02*
X112230Y-28890D01*
X112460Y-16509D02*
X112699Y-16509D01*
X112413Y-16652D02*
X112580Y-16152D01*
X112746Y-16652D01*
X4000Y-53780D02*
X4700Y-53780D01*
X4385Y-41280D02*
X4457Y-41304D01*
X4480Y-41328D01*
X4504Y-41375D01*
X4504Y-41447D01*
X4480Y-41494D01*
X4457Y-41518D01*
X4409Y-41542D01*
X4219Y-41542D01*
X4219Y-41042D01*
X4385Y-41042D01*
X4433Y-41066D01*
X4457Y-41090D01*
X4480Y-41137D01*
X4480Y-41185D01*
X4457Y-41232D01*
X4433Y-41256D01*
X4385Y-41280D01*
X4219Y-41280D01*
X112930Y-53780D02*
X112230Y-53780D01*
X112615Y-41280D02*
X112687Y-41304D01*
X112710Y-41328D01*
X112734Y-41375D01*
X112734Y-41447D01*
X112710Y-41494D01*
X112687Y-41518D01*
X112639Y-41542D01*
X112449Y-41542D01*
X112449Y-41042D01*
X112615Y-41042D01*
X112663Y-41066D01*
X112687Y-41090D01*
X112710Y-41137D01*
X112710Y-41185D01*
X112687Y-41232D01*
X112663Y-41256D01*
X112615Y-41280D01*
X112449Y-41280D01*
X4504Y-66384D02*
X4480Y-66408D01*
X4409Y-66432D01*
X4361Y-66432D01*
X4290Y-66408D01*
X4242Y-66360D01*
X4219Y-66313D01*
X4195Y-66218D01*
X4195Y-66146D01*
X4219Y-66051D01*
X4242Y-66003D01*
X4290Y-65956D01*
X4361Y-65932D01*
X4409Y-65932D01*
X4480Y-65956D01*
X4504Y-65980D01*
X112734Y-66384D02*
X112710Y-66408D01*
X112639Y-66432D01*
X112591Y-66432D01*
X112520Y-66408D01*
X112472Y-66360D01*
X112449Y-66313D01*
X112425Y-66218D01*
X112425Y-66146D01*
X112449Y-66051D01*
X112472Y-66003D01*
X112520Y-65956D01*
X112591Y-65932D01*
X112639Y-65932D01*
X112710Y-65956D01*
X112734Y-65980D01*
X79380Y-76422D02*
X79455Y-75822D01*
X79597Y-75822D01*
X79680Y-75851D01*
X79730Y-75908D01*
X79751Y-75965D01*
X79765Y-76080D01*
X79755Y-76165D01*
X79712Y-76280D01*
X79676Y-76337D01*
X79612Y-76394D01*
X79522Y-76422D01*
X79380Y-76422D01*
X80237Y-76422D02*
X80276Y-76108D01*
X80255Y-76051D01*
X80201Y-76022D01*
X80087Y-76022D01*
X80026Y-76051D01*
X80240Y-76394D02*
X80180Y-76422D01*
X80037Y-76422D01*
X79983Y-76394D01*
X79962Y-76337D01*
X79969Y-76280D01*
X80005Y-76222D01*
X80065Y-76194D01*
X80208Y-76194D01*
X80269Y-76165D01*
X80487Y-76022D02*
X80715Y-76022D01*
X80597Y-75822D02*
X80533Y-76337D01*
X80555Y-76394D01*
X80608Y-76422D01*
X80665Y-76422D01*
X81097Y-76394D02*
X81037Y-76422D01*
X80922Y-76422D01*
X80869Y-76394D01*
X80847Y-76337D01*
X80876Y-76108D01*
X80912Y-76051D01*
X80972Y-76022D01*
X81087Y-76022D01*
X81140Y-76051D01*
X81162Y-76108D01*
X81155Y-76165D01*
X80862Y-76222D01*
X81387Y-76365D02*
X81412Y-76394D01*
X81380Y-76422D01*
X81355Y-76394D01*
X81387Y-76365D01*
X81380Y-76422D01*
X81426Y-76051D02*
X81451Y-76080D01*
X81419Y-76108D01*
X81394Y-76080D01*
X81426Y-76051D01*
X81419Y-76108D01*
X82140Y-75822D02*
X82540Y-75822D01*
X82208Y-76422D01*
X83237Y-76422D02*
X83183Y-76394D01*
X83158Y-76365D01*
X83137Y-76308D01*
X83158Y-76137D01*
X83194Y-76080D01*
X83226Y-76051D01*
X83287Y-76022D01*
X83372Y-76022D01*
X83426Y-76051D01*
X83451Y-76080D01*
X83472Y-76137D01*
X83451Y-76308D01*
X83415Y-76365D01*
X83383Y-76394D01*
X83322Y-76422D01*
X83237Y-76422D01*
X83955Y-76394D02*
X83894Y-76422D01*
X83780Y-76422D01*
X83726Y-76394D01*
X83701Y-76365D01*
X83680Y-76308D01*
X83701Y-76137D01*
X83737Y-76080D01*
X83769Y-76051D01*
X83830Y-76022D01*
X83944Y-76022D01*
X83997Y-76051D01*
X84172Y-76022D02*
X84401Y-76022D01*
X84283Y-75822D02*
X84219Y-76337D01*
X84240Y-76394D01*
X84294Y-76422D01*
X84351Y-76422D01*
X85047Y-75880D02*
X85080Y-75851D01*
X85140Y-75822D01*
X85283Y-75822D01*
X85337Y-75851D01*
X85362Y-75880D01*
X85383Y-75937D01*
X85376Y-75994D01*
X85337Y-76080D01*
X84951Y-76422D01*
X85322Y-76422D01*
X85769Y-75822D02*
X85826Y-75822D01*
X85880Y-75851D01*
X85905Y-75880D01*
X85926Y-75937D01*
X85940Y-76051D01*
X85922Y-76194D01*
X85880Y-76308D01*
X85844Y-76365D01*
X85812Y-76394D01*
X85751Y-76422D01*
X85694Y-76422D01*
X85640Y-76394D01*
X85615Y-76365D01*
X85594Y-76308D01*
X85580Y-76194D01*
X85597Y-76051D01*
X85640Y-75937D01*
X85676Y-75880D01*
X85708Y-75851D01*
X85769Y-75822D01*
X86465Y-76422D02*
X86122Y-76422D01*
X86294Y-76422D02*
X86369Y-75822D01*
X86301Y-75908D01*
X86237Y-75965D01*
X86176Y-75994D01*
X87030Y-76022D02*
X86980Y-76422D01*
X86915Y-75794D02*
X86719Y-76222D01*
X87090Y-76222D01*
X70972Y-77622D02*
X70972Y-77022D01*
X71315Y-77622D02*
X71058Y-77280D01*
X71315Y-77022D02*
X70972Y-77365D01*
X71572Y-77622D02*
X71572Y-77222D01*
X71572Y-77022D02*
X71544Y-77051D01*
X71572Y-77080D01*
X71601Y-77051D01*
X71572Y-77022D01*
X71572Y-77080D01*
X72201Y-77565D02*
X72172Y-77594D01*
X72087Y-77622D01*
X72030Y-77622D01*
X71944Y-77594D01*
X71887Y-77537D01*
X71858Y-77480D01*
X71830Y-77365D01*
X71830Y-77280D01*
X71858Y-77165D01*
X71887Y-77108D01*
X71944Y-77051D01*
X72030Y-77022D01*
X72087Y-77022D01*
X72172Y-77051D01*
X72201Y-77080D01*
X72715Y-77622D02*
X72715Y-77308D01*
X72687Y-77251D01*
X72630Y-77222D01*
X72515Y-77222D01*
X72458Y-77251D01*
X72715Y-77594D02*
X72658Y-77622D01*
X72515Y-77622D01*
X72458Y-77594D01*
X72430Y-77537D01*
X72430Y-77480D01*
X72458Y-77422D01*
X72515Y-77394D01*
X72658Y-77394D01*
X72715Y-77365D01*
X73258Y-77622D02*
X73258Y-77022D01*
X73258Y-77594D02*
X73201Y-77622D01*
X73087Y-77622D01*
X73030Y-77594D01*
X73001Y-77565D01*
X72972Y-77508D01*
X72972Y-77337D01*
X73001Y-77280D01*
X73030Y-77251D01*
X73087Y-77222D01*
X73201Y-77222D01*
X73258Y-77251D01*
X74001Y-77308D02*
X74201Y-77308D01*
X74287Y-77622D02*
X74001Y-77622D01*
X74001Y-77022D01*
X74287Y-77022D01*
X74544Y-77565D02*
X74572Y-77594D01*
X74544Y-77622D01*
X74515Y-77594D01*
X74544Y-77565D01*
X74544Y-77622D01*
X74829Y-77622D02*
X74829Y-77022D01*
X74972Y-77022D01*
X75058Y-77051D01*
X75115Y-77108D01*
X75144Y-77165D01*
X75172Y-77280D01*
X75172Y-77365D01*
X75144Y-77480D01*
X75115Y-77537D01*
X75058Y-77594D01*
X74972Y-77622D01*
X74829Y-77622D01*
X75429Y-77565D02*
X75458Y-77594D01*
X75429Y-77622D01*
X75401Y-77594D01*
X75429Y-77565D01*
X75429Y-77622D01*
X75687Y-77451D02*
X75972Y-77451D01*
X75629Y-77622D02*
X75829Y-77022D01*
X76029Y-77622D01*
X76229Y-77565D02*
X76258Y-77594D01*
X76229Y-77622D01*
X76201Y-77594D01*
X76229Y-77565D01*
X76229Y-77622D01*
X104522Y-76422D02*
X104358Y-76137D01*
X104180Y-76422D02*
X104255Y-75822D01*
X104483Y-75822D01*
X104537Y-75851D01*
X104562Y-75880D01*
X104583Y-75937D01*
X104572Y-76022D01*
X104537Y-76080D01*
X104505Y-76108D01*
X104444Y-76137D01*
X104215Y-76137D01*
X105012Y-76394D02*
X104951Y-76422D01*
X104837Y-76422D01*
X104783Y-76394D01*
X104762Y-76337D01*
X104790Y-76108D01*
X104826Y-76051D01*
X104887Y-76022D01*
X105001Y-76022D01*
X105055Y-76051D01*
X105076Y-76108D01*
X105069Y-76165D01*
X104776Y-76222D01*
X105287Y-76022D02*
X105380Y-76422D01*
X105572Y-76022D01*
X105758Y-76365D02*
X105783Y-76394D01*
X105751Y-76422D01*
X105726Y-76394D01*
X105758Y-76365D01*
X105751Y-76422D01*
X105797Y-76051D02*
X105822Y-76080D01*
X105790Y-76108D01*
X105765Y-76080D01*
X105797Y-76051D01*
X105790Y-76108D01*
X70944Y-76394D02*
X71030Y-76422D01*
X71172Y-76422D01*
X71230Y-76394D01*
X71258Y-76365D01*
X71287Y-76308D01*
X71287Y-76251D01*
X71258Y-76194D01*
X71230Y-76165D01*
X71172Y-76137D01*
X71058Y-76108D01*
X71001Y-76080D01*
X70972Y-76051D01*
X70944Y-75994D01*
X70944Y-75937D01*
X70972Y-75880D01*
X71001Y-75851D01*
X71058Y-75822D01*
X71201Y-75822D01*
X71287Y-75851D01*
X71544Y-76422D02*
X71544Y-76022D01*
X71544Y-75822D02*
X71515Y-75851D01*
X71544Y-75880D01*
X71572Y-75851D01*
X71544Y-75822D01*
X71544Y-75880D01*
X71772Y-76022D02*
X72087Y-76022D01*
X71772Y-76422D01*
X72087Y-76422D01*
X72544Y-76394D02*
X72487Y-76422D01*
X72372Y-76422D01*
X72315Y-76394D01*
X72287Y-76337D01*
X72287Y-76108D01*
X72315Y-76051D01*
X72372Y-76022D01*
X72487Y-76022D01*
X72544Y-76051D01*
X72572Y-76108D01*
X72572Y-76165D01*
X72287Y-76222D01*
X72830Y-76365D02*
X72858Y-76394D01*
X72830Y-76422D01*
X72801Y-76394D01*
X72830Y-76365D01*
X72830Y-76422D01*
X72830Y-76051D02*
X72858Y-76080D01*
X72830Y-76108D01*
X72801Y-76080D01*
X72830Y-76051D01*
X72830Y-76108D01*
X73544Y-76251D02*
X73830Y-76251D01*
X73487Y-76422D02*
X73687Y-75822D01*
X73887Y-76422D01*
X74344Y-76022D02*
X74344Y-76422D01*
X74201Y-75794D02*
X74058Y-76222D01*
X74430Y-76222D01*
X104172Y-77622D02*
X104172Y-77022D01*
X104715Y-77622D02*
X104715Y-77022D01*
X104715Y-77594D02*
X104658Y-77622D01*
X104544Y-77622D01*
X104487Y-77594D01*
X104458Y-77565D01*
X104430Y-77508D01*
X104430Y-77337D01*
X104458Y-77280D01*
X104487Y-77251D01*
X104544Y-77222D01*
X104658Y-77222D01*
X104715Y-77251D01*
X105001Y-77565D02*
X105030Y-77594D01*
X105001Y-77622D01*
X104972Y-77594D01*
X105001Y-77565D01*
X105001Y-77622D01*
X105001Y-77251D02*
X105030Y-77280D01*
X105001Y-77308D01*
X104972Y-77280D01*
X105001Y-77251D01*
X105001Y-77308D01*
X106058Y-77622D02*
X105715Y-77622D01*
X105887Y-77622D02*
X105887Y-77022D01*
X105829Y-77108D01*
X105772Y-77165D01*
X105715Y-77194D01*
X106744Y-76994D02*
X106230Y-77765D01*
X107258Y-77622D02*
X106915Y-77622D01*
X107087Y-77622D02*
X107087Y-77022D01*
X107029Y-77108D01*
X106972Y-77165D01*
X106915Y-77194D01*
X70969Y-74622D02*
X71312Y-74622D01*
X71065Y-75222D02*
X71140Y-74622D01*
X71437Y-75222D02*
X71487Y-74822D01*
X71512Y-74622D02*
X71480Y-74651D01*
X71505Y-74680D01*
X71537Y-74651D01*
X71512Y-74622D01*
X71505Y-74680D01*
X71687Y-74822D02*
X71915Y-74822D01*
X71797Y-74622D02*
X71733Y-75137D01*
X71755Y-75194D01*
X71808Y-75222D01*
X71865Y-75222D01*
X72151Y-75222D02*
X72097Y-75194D01*
X72076Y-75137D01*
X72140Y-74622D01*
X72612Y-75194D02*
X72551Y-75222D01*
X72437Y-75222D01*
X72383Y-75194D01*
X72362Y-75137D01*
X72390Y-74908D01*
X72426Y-74851D01*
X72487Y-74822D01*
X72601Y-74822D01*
X72655Y-74851D01*
X72676Y-74908D01*
X72669Y-74965D01*
X72376Y-75022D01*
X72901Y-75165D02*
X72926Y-75194D01*
X72894Y-75222D01*
X72869Y-75194D01*
X72901Y-75165D01*
X72894Y-75222D01*
X72940Y-74851D02*
X72965Y-74880D01*
X72933Y-74908D01*
X72908Y-74880D01*
X72940Y-74851D01*
X72933Y-74908D01*
X71172Y-72508D02*
X70972Y-72508D01*
X70972Y-72822D02*
X70972Y-72222D01*
X71258Y-72222D01*
X71487Y-72822D02*
X71487Y-72422D01*
X71487Y-72222D02*
X71458Y-72251D01*
X71487Y-72280D01*
X71515Y-72251D01*
X71487Y-72222D01*
X71487Y-72280D01*
X71858Y-72822D02*
X71801Y-72794D01*
X71772Y-72737D01*
X71772Y-72222D01*
X72315Y-72794D02*
X72258Y-72822D01*
X72144Y-72822D01*
X72087Y-72794D01*
X72058Y-72737D01*
X72058Y-72508D01*
X72087Y-72451D01*
X72144Y-72422D01*
X72258Y-72422D01*
X72315Y-72451D01*
X72344Y-72508D01*
X72344Y-72565D01*
X72058Y-72622D01*
X72601Y-72765D02*
X72630Y-72794D01*
X72601Y-72822D01*
X72572Y-72794D01*
X72601Y-72765D01*
X72601Y-72822D01*
X72601Y-72451D02*
X72630Y-72480D01*
X72601Y-72508D01*
X72572Y-72480D01*
X72601Y-72451D01*
X72601Y-72508D01*
X73344Y-72422D02*
X73344Y-73022D01*
X73344Y-72451D02*
X73401Y-72422D01*
X73515Y-72422D01*
X73572Y-72451D01*
X73601Y-72480D01*
X73630Y-72537D01*
X73630Y-72708D01*
X73601Y-72765D01*
X73572Y-72794D01*
X73515Y-72822D01*
X73401Y-72822D01*
X73344Y-72794D01*
X73887Y-72822D02*
X73887Y-72422D01*
X73887Y-72222D02*
X73858Y-72251D01*
X73887Y-72280D01*
X73915Y-72251D01*
X73887Y-72222D01*
X73887Y-72280D01*
X74172Y-72422D02*
X74172Y-72822D01*
X74172Y-72480D02*
X74201Y-72451D01*
X74258Y-72422D01*
X74344Y-72422D01*
X74401Y-72451D01*
X74430Y-72508D01*
X74430Y-72822D01*
X74972Y-72422D02*
X74972Y-72908D01*
X74944Y-72965D01*
X74915Y-72994D01*
X74858Y-73022D01*
X74772Y-73022D01*
X74715Y-72994D01*
X74972Y-72794D02*
X74915Y-72822D01*
X74801Y-72822D01*
X74744Y-72794D01*
X74715Y-72765D01*
X74687Y-72708D01*
X74687Y-72537D01*
X74715Y-72480D01*
X74744Y-72451D01*
X74801Y-72422D01*
X74915Y-72422D01*
X74972Y-72451D01*
X75515Y-72422D02*
X75515Y-72822D01*
X75258Y-72422D02*
X75258Y-72737D01*
X75287Y-72794D01*
X75344Y-72822D01*
X75430Y-72822D01*
X75487Y-72794D01*
X75515Y-72765D01*
X75801Y-72822D02*
X75801Y-72422D01*
X75801Y-72222D02*
X75772Y-72251D01*
X75801Y-72280D01*
X75830Y-72251D01*
X75801Y-72222D01*
X75801Y-72280D01*
X76344Y-72794D02*
X76287Y-72822D01*
X76172Y-72822D01*
X76115Y-72794D01*
X76087Y-72765D01*
X76058Y-72708D01*
X76058Y-72537D01*
X76087Y-72480D01*
X76115Y-72451D01*
X76172Y-72422D01*
X76287Y-72422D01*
X76344Y-72451D01*
X76858Y-72822D02*
X76858Y-72508D01*
X76830Y-72451D01*
X76772Y-72422D01*
X76658Y-72422D01*
X76601Y-72451D01*
X76858Y-72794D02*
X76801Y-72822D01*
X76658Y-72822D01*
X76601Y-72794D01*
X76572Y-72737D01*
X76572Y-72680D01*
X76601Y-72622D01*
X76658Y-72594D01*
X76801Y-72594D01*
X76858Y-72565D01*
X77144Y-72822D02*
X77144Y-72422D01*
X77144Y-72537D02*
X77172Y-72480D01*
X77201Y-72451D01*
X77258Y-72422D01*
X77315Y-72422D01*
X77601Y-72822D02*
X77544Y-72794D01*
X77515Y-72765D01*
X77487Y-72708D01*
X77487Y-72537D01*
X77515Y-72480D01*
X77544Y-72451D01*
X77601Y-72422D01*
X77687Y-72422D01*
X77744Y-72451D01*
X77772Y-72480D01*
X77801Y-72537D01*
X77801Y-72708D01*
X77772Y-72765D01*
X77744Y-72794D01*
X77687Y-72822D01*
X77601Y-72822D01*
X78058Y-72765D02*
X78087Y-72794D01*
X78058Y-72822D01*
X78030Y-72794D01*
X78058Y-72765D01*
X78058Y-72822D01*
X78344Y-72822D02*
X78344Y-72222D01*
X78401Y-72594D02*
X78572Y-72822D01*
X78572Y-72422D02*
X78344Y-72651D01*
X78829Y-72822D02*
X78829Y-72422D01*
X78829Y-72222D02*
X78801Y-72251D01*
X78829Y-72280D01*
X78858Y-72251D01*
X78829Y-72222D01*
X78829Y-72280D01*
X79372Y-72794D02*
X79315Y-72822D01*
X79201Y-72822D01*
X79144Y-72794D01*
X79115Y-72765D01*
X79087Y-72708D01*
X79087Y-72537D01*
X79115Y-72480D01*
X79144Y-72451D01*
X79201Y-72422D01*
X79315Y-72422D01*
X79372Y-72451D01*
X79887Y-72822D02*
X79887Y-72508D01*
X79858Y-72451D01*
X79801Y-72422D01*
X79687Y-72422D01*
X79629Y-72451D01*
X79887Y-72794D02*
X79829Y-72822D01*
X79687Y-72822D01*
X79629Y-72794D01*
X79601Y-72737D01*
X79601Y-72680D01*
X79629Y-72622D01*
X79687Y-72594D01*
X79829Y-72594D01*
X79887Y-72565D01*
X80429Y-72822D02*
X80429Y-72222D01*
X80429Y-72794D02*
X80372Y-72822D01*
X80258Y-72822D01*
X80201Y-72794D01*
X80172Y-72765D01*
X80144Y-72708D01*
X80144Y-72537D01*
X80172Y-72480D01*
X80201Y-72451D01*
X80258Y-72422D01*
X80372Y-72422D01*
X80429Y-72451D01*
X80572Y-72880D02*
X81029Y-72880D01*
X81172Y-72422D02*
X81172Y-73022D01*
X81172Y-72451D02*
X81229Y-72422D01*
X81344Y-72422D01*
X81401Y-72451D01*
X81429Y-72480D01*
X81458Y-72537D01*
X81458Y-72708D01*
X81429Y-72765D01*
X81401Y-72794D01*
X81344Y-72822D01*
X81229Y-72822D01*
X81172Y-72794D01*
X81972Y-72794D02*
X81915Y-72822D01*
X81801Y-72822D01*
X81744Y-72794D01*
X81715Y-72765D01*
X81687Y-72708D01*
X81687Y-72537D01*
X81715Y-72480D01*
X81744Y-72451D01*
X81801Y-72422D01*
X81915Y-72422D01*
X81972Y-72451D01*
X82229Y-72822D02*
X82229Y-72222D01*
X82229Y-72451D02*
X82287Y-72422D01*
X82401Y-72422D01*
X82458Y-72451D01*
X82487Y-72480D01*
X82515Y-72537D01*
X82515Y-72708D01*
X82487Y-72765D01*
X82458Y-72794D01*
X82401Y-72822D01*
X82287Y-72822D01*
X82229Y-72794D01*
X70944Y-73994D02*
X71030Y-74022D01*
X71172Y-74022D01*
X71230Y-73994D01*
X71258Y-73965D01*
X71287Y-73908D01*
X71287Y-73851D01*
X71258Y-73794D01*
X71230Y-73765D01*
X71172Y-73737D01*
X71058Y-73708D01*
X71001Y-73680D01*
X70972Y-73651D01*
X70944Y-73594D01*
X70944Y-73537D01*
X70972Y-73480D01*
X71001Y-73451D01*
X71058Y-73422D01*
X71201Y-73422D01*
X71287Y-73451D01*
X71544Y-74022D02*
X71544Y-73422D01*
X71801Y-74022D02*
X71801Y-73708D01*
X71772Y-73651D01*
X71715Y-73622D01*
X71630Y-73622D01*
X71572Y-73651D01*
X71544Y-73680D01*
X72315Y-73994D02*
X72258Y-74022D01*
X72144Y-74022D01*
X72087Y-73994D01*
X72058Y-73937D01*
X72058Y-73708D01*
X72087Y-73651D01*
X72144Y-73622D01*
X72258Y-73622D01*
X72315Y-73651D01*
X72344Y-73708D01*
X72344Y-73765D01*
X72058Y-73822D01*
X72830Y-73994D02*
X72772Y-74022D01*
X72658Y-74022D01*
X72601Y-73994D01*
X72572Y-73937D01*
X72572Y-73708D01*
X72601Y-73651D01*
X72658Y-73622D01*
X72772Y-73622D01*
X72830Y-73651D01*
X72858Y-73708D01*
X72858Y-73765D01*
X72572Y-73822D01*
X73030Y-73622D02*
X73258Y-73622D01*
X73115Y-73422D02*
X73115Y-73937D01*
X73144Y-73994D01*
X73201Y-74022D01*
X73258Y-74022D01*
X73458Y-73965D02*
X73487Y-73994D01*
X73458Y-74022D01*
X73430Y-73994D01*
X73458Y-73965D01*
X73458Y-74022D01*
X73458Y-73651D02*
X73487Y-73680D01*
X73458Y-73708D01*
X73430Y-73680D01*
X73458Y-73651D01*
X73458Y-73708D01*
X70230Y-71980D02*
X70230Y-77980D01*
X70230Y-71980D02*
X112230Y-71980D01*
X70230Y-71980D02*
X112230Y-71980D01*
X70230Y-74380D02*
X112230Y-74380D01*
X103430Y-75580D02*
X103430Y-77980D01*
X70230Y-76780D02*
X112230Y-76780D01*
X70230Y-75580D02*
X112230Y-75580D01*
X76830Y-75580D02*
X76830Y-76780D01*
G54D11*
X72410Y-46730D02*
X72410Y-41930D01*
X72410Y-41930D02*
X65710Y-41930D01*
X65710Y-41930D02*
X65710Y-46730D01*
X65710Y-46730D02*
X72410Y-46730D01*
X44250Y-53140D02*
G75*
G03X44250Y-53140I-1000J0D01*
G74*
G01*
X41750Y-54640D02*
X41750Y-51640D01*
X41750Y-51640D02*
X44750Y-51640D01*
X44750Y-51640D02*
X44750Y-54640D01*
X41750Y-54640D02*
X44750Y-54640D01*
G54D12*
X52400Y-34900D02*
X44400Y-34900D01*
X44400Y-34900D02*
X44400Y-33900D01*
X44400Y-33900D02*
X52400Y-33900D01*
X52400Y-33900D02*
X52400Y-34900D01*
X51400Y-33900D02*
X51400Y-34900D01*
X45400Y-49020D02*
X53400Y-49020D01*
X53400Y-49020D02*
X53400Y-50020D01*
X53400Y-50020D02*
X45400Y-50020D01*
X45400Y-50020D02*
X45400Y-49020D01*
X46400Y-50020D02*
X46400Y-49020D01*
X45370Y-50136D02*
X53370Y-50136D01*
X53370Y-50136D02*
X53370Y-51136D01*
X53370Y-51136D02*
X45370Y-51136D01*
X45370Y-51136D02*
X45370Y-50136D01*
X46370Y-51136D02*
X46370Y-50136D01*
X45400Y-47900D02*
X53400Y-47900D01*
X53400Y-47900D02*
X53400Y-48900D01*
X53400Y-48900D02*
X45400Y-48900D01*
X45400Y-48900D02*
X45400Y-47900D01*
X46400Y-48900D02*
X46400Y-47900D01*
X44406Y-39484D02*
X52406Y-39484D01*
X52406Y-39484D02*
X52406Y-40484D01*
X52406Y-40484D02*
X44406Y-40484D01*
X44406Y-40484D02*
X44406Y-39484D01*
X45406Y-40484D02*
X45406Y-39484D01*
X54195Y-53415D02*
X54195Y-53015D01*
X54195Y-53015D02*
X53795Y-53015D01*
X53795Y-53015D02*
X53795Y-49815D01*
X53795Y-49815D02*
X54595Y-49815D01*
X54595Y-49815D02*
X54595Y-53015D01*
X54595Y-53015D02*
X54195Y-53015D01*
X53995Y-53015D02*
X53795Y-52815D01*
X54195Y-49415D02*
X54195Y-49815D01*
X62400Y-37930D02*
X62800Y-37930D01*
X62800Y-37930D02*
X62800Y-37530D01*
X62800Y-37530D02*
X66000Y-37530D01*
X66000Y-37530D02*
X66000Y-38330D01*
X66000Y-38330D02*
X62800Y-38330D01*
X62800Y-38330D02*
X62800Y-37930D01*
X62800Y-37730D02*
X63000Y-37530D01*
X66400Y-37930D02*
X66000Y-37930D01*
X62850Y-36745D02*
X63250Y-36745D01*
X63250Y-36745D02*
X63250Y-36345D01*
X63250Y-36345D02*
X66450Y-36345D01*
X66450Y-36345D02*
X66450Y-37145D01*
X66450Y-37145D02*
X63250Y-37145D01*
X63250Y-37145D02*
X63250Y-36745D01*
X63250Y-36545D02*
X63450Y-36345D01*
X66850Y-36745D02*
X66450Y-36745D01*
X65260Y-48240D02*
X65660Y-48240D01*
X65660Y-48240D02*
X65660Y-47840D01*
X65660Y-47840D02*
X68860Y-47840D01*
X68860Y-47840D02*
X68860Y-48640D01*
X68860Y-48640D02*
X65660Y-48640D01*
X65660Y-48640D02*
X65660Y-48240D01*
X65660Y-48040D02*
X65860Y-47840D01*
X69260Y-48240D02*
X68860Y-48240D01*
X42290Y-50158D02*
X42290Y-49758D01*
X42290Y-49758D02*
X41890Y-49758D01*
X41890Y-49758D02*
X41890Y-46558D01*
X41890Y-46558D02*
X42690Y-46558D01*
X42690Y-46558D02*
X42690Y-49758D01*
X42690Y-49758D02*
X42290Y-49758D01*
X42090Y-49758D02*
X41890Y-49558D01*
X42290Y-46158D02*
X42290Y-46558D01*
X43750Y-31850D02*
X43750Y-31450D01*
X43750Y-31450D02*
X43350Y-31450D01*
X43350Y-31450D02*
X43350Y-28250D01*
X43350Y-28250D02*
X44150Y-28250D01*
X44150Y-28250D02*
X44150Y-31450D01*
X44150Y-31450D02*
X43750Y-31450D01*
X43550Y-31450D02*
X43350Y-31250D01*
X43750Y-27850D02*
X43750Y-28250D01*
X44750Y-31850D02*
X44750Y-31450D01*
X44750Y-31450D02*
X44350Y-31450D01*
X44350Y-31450D02*
X44350Y-28250D01*
X44350Y-28250D02*
X45150Y-28250D01*
X45150Y-28250D02*
X45150Y-31450D01*
X45150Y-31450D02*
X44750Y-31450D01*
X44550Y-31450D02*
X44350Y-31250D01*
X44750Y-27850D02*
X44750Y-28250D01*
X45750Y-30850D02*
X45750Y-30450D01*
X45750Y-30450D02*
X45350Y-30450D01*
X45350Y-30450D02*
X45350Y-27250D01*
X45350Y-27250D02*
X46150Y-27250D01*
X46150Y-27250D02*
X46150Y-30450D01*
X46150Y-30450D02*
X45750Y-30450D01*
X45550Y-30450D02*
X45350Y-30250D01*
X45750Y-26850D02*
X45750Y-27250D01*
X46750Y-30850D02*
X46750Y-30450D01*
X46750Y-30450D02*
X46350Y-30450D01*
X46350Y-30450D02*
X46350Y-27250D01*
X46350Y-27250D02*
X47150Y-27250D01*
X47150Y-27250D02*
X47150Y-30450D01*
X47150Y-30450D02*
X46750Y-30450D01*
X46550Y-30450D02*
X46350Y-30250D01*
X46750Y-26850D02*
X46750Y-27250D01*
X47750Y-30850D02*
X47750Y-30450D01*
X47750Y-30450D02*
X47350Y-30450D01*
X47350Y-30450D02*
X47350Y-27250D01*
X47350Y-27250D02*
X48150Y-27250D01*
X48150Y-27250D02*
X48150Y-30450D01*
X48150Y-30450D02*
X47750Y-30450D01*
X47550Y-30450D02*
X47350Y-30250D01*
X47750Y-26850D02*
X47750Y-27250D01*
X48750Y-30850D02*
X48750Y-30450D01*
X48750Y-30450D02*
X48350Y-30450D01*
X48350Y-30450D02*
X48350Y-27250D01*
X48350Y-27250D02*
X49150Y-27250D01*
X49150Y-27250D02*
X49150Y-30450D01*
X49150Y-30450D02*
X48750Y-30450D01*
X48550Y-30450D02*
X48350Y-30250D01*
X48750Y-26850D02*
X48750Y-27250D01*
X49750Y-30850D02*
X49750Y-30450D01*
X49750Y-30450D02*
X49350Y-30450D01*
X49350Y-30450D02*
X49350Y-27250D01*
X49350Y-27250D02*
X50150Y-27250D01*
X50150Y-27250D02*
X50150Y-30450D01*
X50150Y-30450D02*
X49750Y-30450D01*
X49550Y-30450D02*
X49350Y-30250D01*
X49750Y-26850D02*
X49750Y-27250D01*
X50750Y-30850D02*
X50750Y-30450D01*
X50750Y-30450D02*
X50350Y-30450D01*
X50350Y-30450D02*
X50350Y-27250D01*
X50350Y-27250D02*
X51150Y-27250D01*
X51150Y-27250D02*
X51150Y-30450D01*
X51150Y-30450D02*
X50750Y-30450D01*
X50550Y-30450D02*
X50350Y-30250D01*
X50750Y-26850D02*
X50750Y-27250D01*
X64980Y-34380D02*
X65380Y-34380D01*
X65380Y-34380D02*
X65380Y-33980D01*
X65380Y-33980D02*
X68580Y-33980D01*
X68580Y-33980D02*
X68580Y-34780D01*
X68580Y-34780D02*
X65380Y-34780D01*
X65380Y-34780D02*
X65380Y-34380D01*
X65380Y-34180D02*
X65580Y-33980D01*
X68980Y-34380D02*
X68580Y-34380D01*
X43324Y-49894D02*
X43324Y-49494D01*
X43324Y-49494D02*
X42924Y-49494D01*
X42924Y-49494D02*
X42924Y-46294D01*
X42924Y-46294D02*
X43724Y-46294D01*
X43724Y-46294D02*
X43724Y-49494D01*
X43724Y-49494D02*
X43324Y-49494D01*
X43124Y-49494D02*
X42924Y-49294D01*
X43324Y-45894D02*
X43324Y-46294D01*
G54D13*
X61100Y-37300D02*
X60100Y-37300D01*
X60100Y-37300D02*
X60100Y-34300D01*
X60100Y-34300D02*
X61100Y-34300D01*
X61100Y-34300D02*
X61100Y-37300D01*
X60100Y-36300D02*
X61100Y-36300D01*
X60100Y-37300D02*
X59100Y-37300D01*
X59100Y-37300D02*
X59100Y-34300D01*
X59100Y-34300D02*
X60100Y-34300D01*
X60100Y-34300D02*
X60100Y-37300D01*
X59100Y-36300D02*
X60100Y-36300D01*
X61850Y-50650D02*
X62850Y-50650D01*
X62850Y-50650D02*
X62850Y-53650D01*
X62850Y-53650D02*
X61850Y-53650D01*
X61850Y-53650D02*
X61850Y-50650D01*
X62850Y-51650D02*
X61850Y-51650D01*
X60850Y-50650D02*
X61850Y-50650D01*
X61850Y-50650D02*
X61850Y-53650D01*
X61850Y-53650D02*
X60850Y-53650D01*
X60850Y-53650D02*
X60850Y-50650D01*
X61850Y-51650D02*
X60850Y-51650D01*
X59850Y-50650D02*
X60850Y-50650D01*
X60850Y-50650D02*
X60850Y-53650D01*
X60850Y-53650D02*
X59850Y-53650D01*
X59850Y-53650D02*
X59850Y-50650D01*
X60850Y-51650D02*
X59850Y-51650D01*
X66078Y-38628D02*
X67078Y-38628D01*
X67078Y-38628D02*
X67078Y-41628D01*
X67078Y-41628D02*
X66078Y-41628D01*
X66078Y-41628D02*
X66078Y-38628D01*
X67078Y-39628D02*
X66078Y-39628D01*
G54D12*
X61695Y-28460D02*
X63695Y-28460D01*
X61695Y-29460D02*
X63695Y-29460D01*
X61695Y-30460D02*
X63695Y-30460D01*
X63695Y-27960D02*
X63695Y-31460D01*
X63695Y-31460D02*
X69695Y-31460D01*
X69695Y-31460D02*
X69695Y-27460D01*
X63695Y-27960D02*
X63695Y-27460D01*
X66695Y-30960D02*
X66695Y-27460D01*
X66695Y-30960D02*
X66695Y-31460D01*
X63695Y-27460D02*
X69695Y-27460D01*
G54D14*
X43720Y-45020D02*
X43720Y-43520D01*
G54D15*
X43407Y-44270D02*
G75*
G03X43407Y-44270I-707J0D01*
G74*
G01*
G54D16*
X43699Y-43519D02*
G75*
G03X43699Y-45020I-999J-750D01*
G74*
G01*
G54D13*
X42700Y-43820D02*
G75*
G03X42250Y-44270I0J-450D01*
G74*
G01*
X42700Y-44720D02*
G75*
G03X43150Y-44270I0J450D01*
G74*
G01*
X42700Y-43620D02*
G75*
G03X42050Y-44270I0J-650D01*
G74*
G01*
X42700Y-44920D02*
G75*
G03X43350Y-44270I0J650D01*
G74*
G01*
X42700Y-43420D02*
G75*
G03X41850Y-44270I0J-850D01*
G74*
G01*
X42700Y-45120D02*
G75*
G03X43550Y-44270I0J850D01*
G74*
G01*
G54D14*
X41120Y-46850D02*
X41120Y-45350D01*
G54D15*
X40807Y-46100D02*
G75*
G03X40807Y-46100I-707J0D01*
G74*
G01*
G54D16*
X41099Y-45349D02*
G75*
G03X41099Y-46850I-999J-750D01*
G74*
G01*
G54D13*
X40100Y-45650D02*
G75*
G03X39650Y-46100I0J-450D01*
G74*
G01*
X40100Y-46550D02*
G75*
G03X40550Y-46100I0J450D01*
G74*
G01*
X40100Y-45450D02*
G75*
G03X39450Y-46100I0J-650D01*
G74*
G01*
X40100Y-46750D02*
G75*
G03X40750Y-46100I0J650D01*
G74*
G01*
X40100Y-45250D02*
G75*
G03X39250Y-46100I0J-850D01*
G74*
G01*
X40100Y-46950D02*
G75*
G03X40950Y-46100I0J850D01*
G74*
G01*
G54D14*
X41120Y-43350D02*
X41120Y-41850D01*
G54D15*
X40807Y-42600D02*
G75*
G03X40807Y-42600I-707J0D01*
G74*
G01*
G54D16*
X41099Y-41849D02*
G75*
G03X41099Y-43350I-999J-750D01*
G74*
G01*
G54D13*
X40100Y-42150D02*
G75*
G03X39650Y-42600I0J-450D01*
G74*
G01*
X40100Y-43050D02*
G75*
G03X40550Y-42600I0J450D01*
G74*
G01*
X40100Y-41950D02*
G75*
G03X39450Y-42600I0J-650D01*
G74*
G01*
X40100Y-43250D02*
G75*
G03X40750Y-42600I0J650D01*
G74*
G01*
X40100Y-41750D02*
G75*
G03X39250Y-42600I0J-850D01*
G74*
G01*
X40100Y-43450D02*
G75*
G03X40950Y-42600I0J850D01*
G74*
G01*
G54D14*
X41120Y-39850D02*
X41120Y-38350D01*
G54D15*
X40807Y-39100D02*
G75*
G03X40807Y-39100I-707J0D01*
G74*
G01*
G54D16*
X41099Y-38349D02*
G75*
G03X41099Y-39850I-999J-750D01*
G74*
G01*
G54D13*
X40100Y-38650D02*
G75*
G03X39650Y-39100I0J-450D01*
G74*
G01*
X40100Y-39550D02*
G75*
G03X40550Y-39100I0J450D01*
G74*
G01*
X40100Y-38450D02*
G75*
G03X39450Y-39100I0J-650D01*
G74*
G01*
X40100Y-39750D02*
G75*
G03X40750Y-39100I0J650D01*
G74*
G01*
X40100Y-38250D02*
G75*
G03X39250Y-39100I0J-850D01*
G74*
G01*
X40100Y-39950D02*
G75*
G03X40950Y-39100I0J850D01*
G74*
G01*
G54D14*
X41120Y-36350D02*
X41120Y-34850D01*
G54D15*
X40807Y-35600D02*
G75*
G03X40807Y-35600I-707J0D01*
G74*
G01*
G54D16*
X41099Y-34849D02*
G75*
G03X41099Y-36350I-999J-750D01*
G74*
G01*
G54D13*
X40100Y-35150D02*
G75*
G03X39650Y-35600I0J-450D01*
G74*
G01*
X40100Y-36050D02*
G75*
G03X40550Y-35600I0J450D01*
G74*
G01*
X40100Y-34950D02*
G75*
G03X39450Y-35600I0J-650D01*
G74*
G01*
X40100Y-36250D02*
G75*
G03X40750Y-35600I0J650D01*
G74*
G01*
X40100Y-34750D02*
G75*
G03X39250Y-35600I0J-850D01*
G74*
G01*
X40100Y-36450D02*
G75*
G03X40950Y-35600I0J850D01*
G74*
G01*
G54D14*
X41120Y-32850D02*
X41120Y-31350D01*
G54D15*
X40807Y-32100D02*
G75*
G03X40807Y-32100I-707J0D01*
G74*
G01*
G54D16*
X41099Y-31349D02*
G75*
G03X41099Y-32850I-999J-750D01*
G74*
G01*
G54D13*
X40100Y-31650D02*
G75*
G03X39650Y-32100I0J-450D01*
G74*
G01*
X40100Y-32550D02*
G75*
G03X40550Y-32100I0J450D01*
G74*
G01*
X40100Y-31450D02*
G75*
G03X39450Y-32100I0J-650D01*
G74*
G01*
X40100Y-32750D02*
G75*
G03X40750Y-32100I0J650D01*
G74*
G01*
X40100Y-31250D02*
G75*
G03X39250Y-32100I0J-850D01*
G74*
G01*
X40100Y-32950D02*
G75*
G03X40950Y-32100I0J850D01*
G74*
G01*
G54D14*
X41120Y-29350D02*
X41120Y-27850D01*
G54D15*
X40807Y-28600D02*
G75*
G03X40807Y-28600I-707J0D01*
G74*
G01*
G54D16*
X41099Y-27849D02*
G75*
G03X41099Y-29350I-999J-750D01*
G74*
G01*
G54D13*
X40100Y-28150D02*
G75*
G03X39650Y-28600I0J-450D01*
G74*
G01*
X40100Y-29050D02*
G75*
G03X40550Y-28600I0J450D01*
G74*
G01*
X40100Y-27950D02*
G75*
G03X39450Y-28600I0J-650D01*
G74*
G01*
X40100Y-29250D02*
G75*
G03X40750Y-28600I0J650D01*
G74*
G01*
X40100Y-27750D02*
G75*
G03X39250Y-28600I0J-850D01*
G74*
G01*
X40100Y-29450D02*
G75*
G03X40950Y-28600I0J850D01*
G74*
G01*
G54D14*
X41120Y-25850D02*
X41120Y-24350D01*
G54D15*
X40807Y-25100D02*
G75*
G03X40807Y-25100I-707J0D01*
G74*
G01*
G54D16*
X41099Y-24349D02*
G75*
G03X41099Y-25850I-999J-750D01*
G74*
G01*
G54D13*
X40100Y-24650D02*
G75*
G03X39650Y-25100I0J-450D01*
G74*
G01*
X40100Y-25550D02*
G75*
G03X40550Y-25100I0J450D01*
G74*
G01*
X40100Y-24450D02*
G75*
G03X39450Y-25100I0J-650D01*
G74*
G01*
X40100Y-25750D02*
G75*
G03X40750Y-25100I0J650D01*
G74*
G01*
X40100Y-24250D02*
G75*
G03X39250Y-25100I0J-850D01*
G74*
G01*
X40100Y-25950D02*
G75*
G03X40950Y-25100I0J850D01*
G74*
G01*
G54D14*
X64880Y-33830D02*
X66380Y-33830D01*
G54D15*
X66337Y-32810D02*
G75*
G03X66337Y-32810I-707J0D01*
G74*
G01*
G54D16*
X66380Y-33809D02*
G75*
G03X64879Y-33809I-750J999D01*
G74*
G01*
G54D13*
X66080Y-32810D02*
G75*
G03X65630Y-32360I-450J0D01*
G74*
G01*
X65180Y-32810D02*
G75*
G03X65630Y-33260I450J0D01*
G74*
G01*
X66280Y-32810D02*
G75*
G03X65630Y-32160I-650J0D01*
G74*
G01*
X64980Y-32810D02*
G75*
G03X65630Y-33460I650J0D01*
G74*
G01*
X66480Y-32810D02*
G75*
G03X65630Y-31960I-850J0D01*
G74*
G01*
X64780Y-32810D02*
G75*
G03X65630Y-33660I850J0D01*
G74*
G01*
G54D14*
X41120Y-50350D02*
X41120Y-48850D01*
G54D15*
X40807Y-49600D02*
G75*
G03X40807Y-49600I-707J0D01*
G74*
G01*
G54D16*
X41099Y-48849D02*
G75*
G03X41099Y-50350I-999J-750D01*
G74*
G01*
G54D13*
X40100Y-49150D02*
G75*
G03X39650Y-49600I0J-450D01*
G74*
G01*
X40100Y-50050D02*
G75*
G03X40550Y-49600I0J450D01*
G74*
G01*
X40100Y-48950D02*
G75*
G03X39450Y-49600I0J-650D01*
G74*
G01*
X40100Y-50250D02*
G75*
G03X40750Y-49600I0J650D01*
G74*
G01*
X40100Y-48750D02*
G75*
G03X39250Y-49600I0J-850D01*
G74*
G01*
X40100Y-50450D02*
G75*
G03X40950Y-49600I0J850D01*
G74*
G01*
G54D17*
X43896Y-43730D02*
X44396Y-43730D01*
X44396Y-43730D02*
X44396Y-44730D01*
X44396Y-44730D02*
X43896Y-44730D01*
X43896Y-41730D02*
X64896Y-41730D01*
X64896Y-41730D02*
X64896Y-46730D01*
X64896Y-46730D02*
X43896Y-46730D01*
X43896Y-46730D02*
X43896Y-41730D01*
X46252Y-43198D02*
X61252Y-43198D01*
X61252Y-43198D02*
X61252Y-45198D01*
X61252Y-45198D02*
X46252Y-45198D01*
X46252Y-45198D02*
X46252Y-43198D01*
X46252Y-43698D02*
X46752Y-43698D01*
X46752Y-43698D02*
X46752Y-44698D01*
X46752Y-44698D02*
X46252Y-44698D01*
X43910Y-36670D02*
X44410Y-36670D01*
X44410Y-36670D02*
X44410Y-37670D01*
X44410Y-37670D02*
X43910Y-37670D01*
X43910Y-36170D02*
X53910Y-36170D01*
X53910Y-36170D02*
X53910Y-38170D01*
X53910Y-38170D02*
X43910Y-38170D01*
X43910Y-38170D02*
X43910Y-36170D01*
X61040Y-32140D02*
X61040Y-32140D01*
X61040Y-32140D02*
X60540Y-32140D01*
X60540Y-32140D02*
X60540Y-31140D01*
X60540Y-31140D02*
X61040Y-31140D01*
X61040Y-32640D02*
X52040Y-32640D01*
X52040Y-32640D02*
X52040Y-30640D01*
X52040Y-30640D02*
X61040Y-30640D01*
X61040Y-30640D02*
X61040Y-32640D01*
G54D12*
X64100Y-35770D02*
X64400Y-35770D01*
X64400Y-35770D02*
X64400Y-36170D01*
X64400Y-36170D02*
X66800Y-36170D01*
X66800Y-36170D02*
X66800Y-35770D01*
X66800Y-35770D02*
X67100Y-35770D01*
X66800Y-35770D02*
X66800Y-35370D01*
X66800Y-35370D02*
X64400Y-35370D01*
X64400Y-35370D02*
X64400Y-35770D01*
X64600Y-36170D02*
X64600Y-35370D01*
X64700Y-35370D02*
X64700Y-36170D01*
G54D17*
X59560Y-49716D02*
X59639Y-49874D01*
X59639Y-49874D02*
X59679Y-50110D01*
X59679Y-50110D02*
X59639Y-50307D01*
X59639Y-50307D02*
X59482Y-50582D01*
X59482Y-50582D02*
X59245Y-50740D01*
X59245Y-50740D02*
X59009Y-50819D01*
X59009Y-50819D02*
X56411Y-50819D01*
X56411Y-50819D02*
X56135Y-50740D01*
X56135Y-50740D02*
X55978Y-50622D01*
X55978Y-50622D02*
X55820Y-50425D01*
X55820Y-50425D02*
X55741Y-50189D01*
X55741Y-50189D02*
X55741Y-49992D01*
X55741Y-49992D02*
X55820Y-49795D01*
X55820Y-49795D02*
X56017Y-49559D01*
X56017Y-49559D02*
X56214Y-49441D01*
X56214Y-49441D02*
X56411Y-49401D01*
X56450Y-49401D02*
X59049Y-49401D01*
X59049Y-49401D02*
X59206Y-49441D01*
X59206Y-49441D02*
X59403Y-49559D01*
X59403Y-49559D02*
X59600Y-49756D01*
X56454Y-49193D02*
X56273Y-49212D01*
X56273Y-49212D02*
X56116Y-49256D01*
X56116Y-49256D02*
X55946Y-49342D01*
X55946Y-49342D02*
X55832Y-49433D01*
X55832Y-49433D02*
X55702Y-49571D01*
X55702Y-49571D02*
X55588Y-49783D01*
X55588Y-49783D02*
X55537Y-50019D01*
X55537Y-50019D02*
X55537Y-50220D01*
X55537Y-50220D02*
X55604Y-50496D01*
X55604Y-50496D02*
X55761Y-50728D01*
X55761Y-50728D02*
X55942Y-50874D01*
X55942Y-50874D02*
X56108Y-50956D01*
X56108Y-50956D02*
X56285Y-51019D01*
X56285Y-51019D02*
X56458Y-51031D01*
X59348Y-50945D02*
X59497Y-50858D01*
X59497Y-50858D02*
X59623Y-50748D01*
X59623Y-50748D02*
X59722Y-50618D01*
X59722Y-50618D02*
X59840Y-50401D01*
X59840Y-50401D02*
X59883Y-50216D01*
X59883Y-50216D02*
X59891Y-50035D01*
X59891Y-50035D02*
X59856Y-49854D01*
X59856Y-49854D02*
X59781Y-49677D01*
X59781Y-49677D02*
X59639Y-49492D01*
X59639Y-49492D02*
X59501Y-49366D01*
X59501Y-49366D02*
X59348Y-49275D01*
X59348Y-49275D02*
X59179Y-49220D01*
X59179Y-49220D02*
X59005Y-49193D01*
X56450Y-51027D02*
X58990Y-51027D01*
X58990Y-51027D02*
X59155Y-51012D01*
X59155Y-51012D02*
X59348Y-50945D01*
X56450Y-49193D02*
X58990Y-49193D01*
G54D11*
X41451Y-52370D02*
G75*
G03X41451Y-52370I-1001J0D01*
G74*
G01*
X69376Y-36445D02*
G75*
G03X69376Y-36445I-1001J0D01*
G74*
G01*
G54D12*
X59350Y-51420D02*
X59350Y-53400D01*
X59350Y-53400D02*
X58350Y-53400D01*
X58350Y-53400D02*
X58350Y-51400D01*
X58350Y-51400D02*
X59350Y-51400D01*
X59100Y-51400D02*
X59350Y-51650D01*
X57600Y-51420D02*
X57600Y-53400D01*
X57600Y-53400D02*
X56600Y-53400D01*
X56600Y-53400D02*
X56600Y-51400D01*
X56600Y-51400D02*
X57600Y-51400D01*
X57350Y-51400D02*
X57600Y-51650D01*
X61710Y-48400D02*
X61710Y-50380D01*
X61710Y-50380D02*
X60710Y-50380D01*
X60710Y-50380D02*
X60710Y-48380D01*
X60710Y-48380D02*
X61710Y-48380D01*
X61460Y-48380D02*
X61710Y-48630D01*
X65200Y-26700D02*
X61200Y-26700D01*
X65200Y-27200D02*
X65200Y-24200D01*
X65200Y-24200D02*
X61200Y-24200D01*
X61200Y-24200D02*
X61200Y-27200D01*
X61200Y-27200D02*
X65200Y-27200D01*
X69200Y-26700D02*
X65200Y-26700D01*
X69200Y-27200D02*
X69200Y-24200D01*
X69200Y-24200D02*
X65200Y-24200D01*
X65200Y-24200D02*
X65200Y-27200D01*
X65200Y-27200D02*
X69200Y-27200D01*
X49100Y-52900D02*
X53100Y-52900D01*
X49100Y-52400D02*
X49100Y-55400D01*
X49100Y-55400D02*
X53100Y-55400D01*
X53100Y-55400D02*
X53100Y-52400D01*
X53100Y-52400D02*
X49100Y-52400D01*
X45100Y-52900D02*
X49100Y-52900D01*
X45100Y-52400D02*
X45100Y-55400D01*
X45100Y-55400D02*
X49100Y-55400D01*
X49100Y-55400D02*
X49100Y-52400D01*
X49100Y-52400D02*
X45100Y-52400D01*
X69960Y-35810D02*
X69960Y-31810D01*
X69460Y-35810D02*
X72460Y-35810D01*
X72460Y-35810D02*
X72460Y-31810D01*
X72460Y-31810D02*
X69460Y-31810D01*
X69460Y-31810D02*
X69460Y-35810D01*
X56670Y-24600D02*
X60670Y-24600D01*
X56670Y-24100D02*
X56670Y-27100D01*
X56670Y-27100D02*
X60670Y-27100D01*
X60670Y-27100D02*
X60670Y-24100D01*
X60670Y-24100D02*
X56670Y-24100D01*
X52655Y-24595D02*
X56655Y-24595D01*
X52655Y-24095D02*
X52655Y-27095D01*
X52655Y-27095D02*
X56655Y-27095D01*
X56655Y-27095D02*
X56655Y-24095D01*
X56655Y-24095D02*
X52655Y-24095D01*
X64430Y-48160D02*
X64430Y-49160D01*
X64430Y-49160D02*
X62430Y-49160D01*
X62430Y-49160D02*
X62430Y-48160D01*
X62430Y-48160D02*
X64430Y-48160D01*
X62420Y-40160D02*
X62420Y-39160D01*
X62420Y-39160D02*
X64420Y-39160D01*
X64420Y-39160D02*
X64420Y-40160D01*
X64420Y-40160D02*
X62420Y-40160D01*
X54360Y-39060D02*
X54360Y-39060D01*
X54360Y-40060D02*
X54360Y-39060D01*
X54360Y-39060D02*
X54360Y-39060D01*
X54360Y-39060D02*
X58360Y-39060D01*
X58360Y-39060D02*
X58360Y-40060D01*
X58360Y-40060D02*
X54360Y-40060D01*
X55360Y-40060D02*
X55360Y-39060D01*
X69170Y-40710D02*
X69170Y-39710D01*
X69170Y-39710D02*
X72170Y-39710D01*
X72170Y-39710D02*
X72170Y-40710D01*
X72170Y-40710D02*
X69170Y-40710D01*
X70170Y-39710D02*
X70170Y-40710D01*
X72300Y-37400D02*
X72300Y-38400D01*
X72300Y-38400D02*
X69300Y-38400D01*
X69300Y-38400D02*
X69300Y-37400D01*
X69300Y-37400D02*
X72300Y-37400D01*
X71300Y-38400D02*
X71300Y-37400D01*
X55176Y-37388D02*
X54176Y-37388D01*
X54176Y-37388D02*
X54176Y-35388D01*
X54176Y-35388D02*
X55176Y-35388D01*
X55176Y-35388D02*
X55176Y-37388D01*
X66090Y-51580D02*
X66490Y-51580D01*
X66490Y-51580D02*
X66490Y-51180D01*
X66490Y-51180D02*
X69690Y-51180D01*
X69690Y-51180D02*
X69690Y-51980D01*
X69690Y-51980D02*
X66490Y-51980D01*
X66490Y-51980D02*
X66490Y-51580D01*
X66490Y-51380D02*
X66690Y-51180D01*
X70090Y-51580D02*
X69690Y-51580D01*
X69415Y-49655D02*
X70915Y-51155D01*
X70915Y-51155D02*
X71415Y-51155D01*
X71415Y-51155D02*
X71915Y-50655D01*
X71915Y-50655D02*
X71915Y-49655D01*
X71915Y-49655D02*
X70915Y-48655D01*
X70915Y-48655D02*
X69915Y-48655D01*
X69915Y-48655D02*
X69415Y-49155D01*
X69415Y-49155D02*
X69415Y-49655D01*
G54D14*
X65030Y-54565D02*
X66530Y-54565D01*
G54D15*
X66487Y-53545D02*
G75*
G03X66487Y-53545I-707J0D01*
G74*
G01*
G54D16*
X66530Y-54544D02*
G75*
G03X65029Y-54544I-750J999D01*
G74*
G01*
G54D13*
X66230Y-53545D02*
G75*
G03X65780Y-53095I-450J0D01*
G74*
G01*
X65330Y-53545D02*
G75*
G03X65780Y-53995I450J0D01*
G74*
G01*
X66430Y-53545D02*
G75*
G03X65780Y-52895I-650J0D01*
G74*
G01*
X65130Y-53545D02*
G75*
G03X65780Y-54195I650J0D01*
G74*
G01*
X66630Y-53545D02*
G75*
G03X65780Y-52695I-850J0D01*
G74*
G01*
X64930Y-53545D02*
G75*
G03X65780Y-54395I850J0D01*
G74*
G01*
G54D11*
X69271Y-32650D02*
G75*
G03X69271Y-32650I-1001J0D01*
G74*
G01*
X68601Y-49800D02*
G75*
G03X68601Y-49800I-1001J0D01*
G74*
G01*
X69736Y-53415D02*
G75*
G03X69736Y-53415I-1001J0D01*
G74*
G01*
G54D12*
X62300Y-31110D02*
X62300Y-33090D01*
X62300Y-33090D02*
X61300Y-33090D01*
X61300Y-33090D02*
X61300Y-31090D01*
X61300Y-31090D02*
X62300Y-31090D01*
X62050Y-31090D02*
X62300Y-31340D01*
X65300Y-50980D02*
X65300Y-49000D01*
X65300Y-49000D02*
X66300Y-49000D01*
X66300Y-49000D02*
X66300Y-51000D01*
X66300Y-51000D02*
X65300Y-51000D01*
X65550Y-51000D02*
X65300Y-50750D01*
X54560Y-47890D02*
X56540Y-47890D01*
X56540Y-47890D02*
X56540Y-48890D01*
X56540Y-48890D02*
X54540Y-48890D01*
X54540Y-48890D02*
X54540Y-47890D01*
X54540Y-48140D02*
X54790Y-47890D01*
X56050Y-32070D02*
X54070Y-32070D01*
X54070Y-32070D02*
X54070Y-31070D01*
X54070Y-31070D02*
X56070Y-31070D01*
X56070Y-31070D02*
X56070Y-32070D01*
X56070Y-31820D02*
X55820Y-32070D01*
X51780Y-37700D02*
X49800Y-37700D01*
X49800Y-37700D02*
X49800Y-36700D01*
X49800Y-36700D02*
X51800Y-36700D01*
X51800Y-36700D02*
X51800Y-37700D01*
X51800Y-37450D02*
X51550Y-37700D01*
G54D17*
X72500Y-54400D02*
G75*
G03X72500Y-54400I-900J0D01*
G74*
G01*
X72500Y-25900D02*
G75*
G03X72500Y-25900I-900J0D01*
G74*
G01*
X53200Y-28150D02*
G75*
G03X53200Y-28150I-900J0D01*
G74*
G01*
X40350Y-54650D02*
G75*
G03X40350Y-54650I-900J0D01*
G74*
G01*
G54D10*
X66780Y-43830D02*
G75*
G03X66780Y-43830I-270J0D01*
G74*
G01*
X66780Y-44830D02*
G75*
G03X66780Y-44830I-270J0D01*
G74*
G01*
X67567Y-44830D02*
G75*
G03X67567Y-44830I-270J0D01*
G74*
G01*
X67567Y-43830D02*
G75*
G03X67567Y-43830I-270J0D01*
G74*
G01*
X69117Y-41968D02*
G75*
G03X69117Y-41968I-757J0D01*
G74*
G01*
X69117Y-46692D02*
G75*
G03X69117Y-46692I-757J0D01*
G74*
G01*
X42495Y-51640D02*
G75*
G03X42495Y-51640I-245J0D01*
G74*
G01*
X44495Y-51640D02*
G75*
G03X44495Y-51640I-245J0D01*
G74*
G01*
X42495Y-54640D02*
G75*
G03X42495Y-54640I-245J0D01*
G74*
G01*
X44495Y-54640D02*
G75*
G03X44495Y-54640I-245J0D01*
G74*
G01*
X51654Y-34154D02*
X51654Y-34645D01*
X52145Y-34645D01*
X52145Y-34154D01*
X51654Y-34154D01*
X51145Y-34400D02*
G75*
G03X51145Y-34400I-245J0D01*
G74*
G01*
X50145Y-34400D02*
G75*
G03X50145Y-34400I-245J0D01*
G74*
G01*
X49145Y-34400D02*
G75*
G03X49145Y-34400I-245J0D01*
G74*
G01*
X48145Y-34400D02*
G75*
G03X48145Y-34400I-245J0D01*
G74*
G01*
X47145Y-34400D02*
G75*
G03X47145Y-34400I-245J0D01*
G74*
G01*
X46145Y-34400D02*
G75*
G03X46145Y-34400I-245J0D01*
G74*
G01*
X45145Y-34400D02*
G75*
G03X45145Y-34400I-245J0D01*
G74*
G01*
X45654Y-49274D02*
X45654Y-49765D01*
X46145Y-49765D01*
X46145Y-49274D01*
X45654Y-49274D01*
X47145Y-49520D02*
G75*
G03X47145Y-49520I-245J0D01*
G74*
G01*
X48145Y-49520D02*
G75*
G03X48145Y-49520I-245J0D01*
G74*
G01*
X49145Y-49520D02*
G75*
G03X49145Y-49520I-245J0D01*
G74*
G01*
X50145Y-49520D02*
G75*
G03X50145Y-49520I-245J0D01*
G74*
G01*
X51145Y-49520D02*
G75*
G03X51145Y-49520I-245J0D01*
G74*
G01*
X52145Y-49520D02*
G75*
G03X52145Y-49520I-245J0D01*
G74*
G01*
X53145Y-49520D02*
G75*
G03X53145Y-49520I-245J0D01*
G74*
G01*
X45624Y-50390D02*
X45624Y-50881D01*
X46115Y-50881D01*
X46115Y-50390D01*
X45624Y-50390D01*
X47115Y-50636D02*
G75*
G03X47115Y-50636I-245J0D01*
G74*
G01*
X48115Y-50636D02*
G75*
G03X48115Y-50636I-245J0D01*
G74*
G01*
X49115Y-50636D02*
G75*
G03X49115Y-50636I-245J0D01*
G74*
G01*
X50115Y-50636D02*
G75*
G03X50115Y-50636I-245J0D01*
G74*
G01*
X51115Y-50636D02*
G75*
G03X51115Y-50636I-245J0D01*
G74*
G01*
X52115Y-50636D02*
G75*
G03X52115Y-50636I-245J0D01*
G74*
G01*
X53115Y-50636D02*
G75*
G03X53115Y-50636I-245J0D01*
G74*
G01*
X45654Y-48154D02*
X45654Y-48645D01*
X46145Y-48645D01*
X46145Y-48154D01*
X45654Y-48154D01*
X47145Y-48400D02*
G75*
G03X47145Y-48400I-245J0D01*
G74*
G01*
X48145Y-48400D02*
G75*
G03X48145Y-48400I-245J0D01*
G74*
G01*
X49145Y-48400D02*
G75*
G03X49145Y-48400I-245J0D01*
G74*
G01*
X50145Y-48400D02*
G75*
G03X50145Y-48400I-245J0D01*
G74*
G01*
X51145Y-48400D02*
G75*
G03X51145Y-48400I-245J0D01*
G74*
G01*
X52145Y-48400D02*
G75*
G03X52145Y-48400I-245J0D01*
G74*
G01*
X53145Y-48400D02*
G75*
G03X53145Y-48400I-245J0D01*
G74*
G01*
X44660Y-39738D02*
X44660Y-40229D01*
X45151Y-40229D01*
X45151Y-39738D01*
X44660Y-39738D01*
X46151Y-39984D02*
G75*
G03X46151Y-39984I-245J0D01*
G74*
G01*
X47151Y-39984D02*
G75*
G03X47151Y-39984I-245J0D01*
G74*
G01*
X48151Y-39984D02*
G75*
G03X48151Y-39984I-245J0D01*
G74*
G01*
X49151Y-39984D02*
G75*
G03X49151Y-39984I-245J0D01*
G74*
G01*
X50151Y-39984D02*
G75*
G03X50151Y-39984I-245J0D01*
G74*
G01*
X51151Y-39984D02*
G75*
G03X51151Y-39984I-245J0D01*
G74*
G01*
X52151Y-39984D02*
G75*
G03X52151Y-39984I-245J0D01*
G74*
G01*
X54465Y-53415D02*
G75*
G03X54465Y-53415I-270J0D01*
G74*
G01*
X54465Y-49415D02*
G75*
G03X54465Y-49415I-270J0D01*
G74*
G01*
X62670Y-37930D02*
G75*
G03X62670Y-37930I-270J0D01*
G74*
G01*
X66670Y-37930D02*
G75*
G03X66670Y-37930I-270J0D01*
G74*
G01*
X63120Y-36745D02*
G75*
G03X63120Y-36745I-270J0D01*
G74*
G01*
X67120Y-36745D02*
G75*
G03X67120Y-36745I-270J0D01*
G74*
G01*
X65530Y-48240D02*
G75*
G03X65530Y-48240I-270J0D01*
G74*
G01*
X69530Y-48240D02*
G75*
G03X69530Y-48240I-270J0D01*
G74*
G01*
X42560Y-50158D02*
G75*
G03X42560Y-50158I-270J0D01*
G74*
G01*
X42560Y-46158D02*
G75*
G03X42560Y-46158I-270J0D01*
G74*
G01*
X44020Y-31850D02*
G75*
G03X44020Y-31850I-270J0D01*
G74*
G01*
X44020Y-27850D02*
G75*
G03X44020Y-27850I-270J0D01*
G74*
G01*
X45020Y-31850D02*
G75*
G03X45020Y-31850I-270J0D01*
G74*
G01*
X45020Y-27850D02*
G75*
G03X45020Y-27850I-270J0D01*
G74*
G01*
X46020Y-30850D02*
G75*
G03X46020Y-30850I-270J0D01*
G74*
G01*
X46020Y-26850D02*
G75*
G03X46020Y-26850I-270J0D01*
G74*
G01*
X47020Y-30850D02*
G75*
G03X47020Y-30850I-270J0D01*
G74*
G01*
X47020Y-26850D02*
G75*
G03X47020Y-26850I-270J0D01*
G74*
G01*
X48020Y-30850D02*
G75*
G03X48020Y-30850I-270J0D01*
G74*
G01*
X48020Y-26850D02*
G75*
G03X48020Y-26850I-270J0D01*
G74*
G01*
X49020Y-30850D02*
G75*
G03X49020Y-30850I-270J0D01*
G74*
G01*
X49020Y-26850D02*
G75*
G03X49020Y-26850I-270J0D01*
G74*
G01*
X50020Y-30850D02*
G75*
G03X50020Y-30850I-270J0D01*
G74*
G01*
X50020Y-26850D02*
G75*
G03X50020Y-26850I-270J0D01*
G74*
G01*
X51020Y-30850D02*
G75*
G03X51020Y-30850I-270J0D01*
G74*
G01*
X51020Y-26850D02*
G75*
G03X51020Y-26850I-270J0D01*
G74*
G01*
X65250Y-34380D02*
G75*
G03X65250Y-34380I-270J0D01*
G74*
G01*
X69250Y-34380D02*
G75*
G03X69250Y-34380I-270J0D01*
G74*
G01*
X43594Y-49894D02*
G75*
G03X43594Y-49894I-270J0D01*
G74*
G01*
X43594Y-45894D02*
G75*
G03X43594Y-45894I-270J0D01*
G74*
G01*
X60329Y-36529D02*
X60329Y-37070D01*
X60870Y-37070D01*
X60870Y-36529D01*
X60329Y-36529D01*
X60870Y-35800D02*
G75*
G03X60870Y-35800I-270J0D01*
G74*
G01*
X60870Y-34800D02*
G75*
G03X60870Y-34800I-270J0D01*
G74*
G01*
X59329Y-36529D02*
X59329Y-37070D01*
X59870Y-37070D01*
X59870Y-36529D01*
X59329Y-36529D01*
X59870Y-35800D02*
G75*
G03X59870Y-35800I-270J0D01*
G74*
G01*
X59870Y-34800D02*
G75*
G03X59870Y-34800I-270J0D01*
G74*
G01*
X62079Y-50879D02*
X62079Y-51420D01*
X62620Y-51420D01*
X62620Y-50879D01*
X62079Y-50879D01*
X62620Y-52150D02*
G75*
G03X62620Y-52150I-270J0D01*
G74*
G01*
X62620Y-53150D02*
G75*
G03X62620Y-53150I-270J0D01*
G74*
G01*
X61079Y-50879D02*
X61079Y-51420D01*
X61620Y-51420D01*
X61620Y-50879D01*
X61079Y-50879D01*
X61620Y-52150D02*
G75*
G03X61620Y-52150I-270J0D01*
G74*
G01*
X61620Y-53150D02*
G75*
G03X61620Y-53150I-270J0D01*
G74*
G01*
X60079Y-50879D02*
X60079Y-51420D01*
X60620Y-51420D01*
X60620Y-50879D01*
X60079Y-50879D01*
X60620Y-52150D02*
G75*
G03X60620Y-52150I-270J0D01*
G74*
G01*
X60620Y-53150D02*
G75*
G03X60620Y-53150I-270J0D01*
G74*
G01*
X66307Y-38857D02*
X66307Y-39398D01*
X66848Y-39398D01*
X66848Y-38857D01*
X66307Y-38857D01*
X66848Y-40128D02*
G75*
G03X66848Y-40128I-270J0D01*
G74*
G01*
X66848Y-41128D02*
G75*
G03X66848Y-41128I-270J0D01*
G74*
G01*
X66474Y-27739D02*
X66474Y-31180D01*
X69915Y-31180D01*
X69915Y-27739D01*
X66474Y-27739D01*
X62015Y-28460D02*
G75*
G03X62015Y-28460I-320J0D01*
G74*
G01*
X61374Y-29139D02*
X61374Y-29780D01*
X62015Y-29780D01*
X62015Y-29139D01*
X61374Y-29139D01*
X62015Y-30460D02*
G75*
G03X62015Y-30460I-320J0D01*
G74*
G01*
X42400Y-44270D02*
G75*
G03X42400Y-44270I-300J0D01*
G74*
G01*
X43400Y-44270D02*
G75*
G03X43400Y-44270I-300J0D01*
G74*
G01*
X39800Y-46100D02*
G75*
G03X39800Y-46100I-300J0D01*
G74*
G01*
X40800Y-46100D02*
G75*
G03X40800Y-46100I-300J0D01*
G74*
G01*
X39800Y-42600D02*
G75*
G03X39800Y-42600I-300J0D01*
G74*
G01*
X40800Y-42600D02*
G75*
G03X40800Y-42600I-300J0D01*
G74*
G01*
X39800Y-39100D02*
G75*
G03X39800Y-39100I-300J0D01*
G74*
G01*
X40800Y-39100D02*
G75*
G03X40800Y-39100I-300J0D01*
G74*
G01*
X39800Y-35600D02*
G75*
G03X39800Y-35600I-300J0D01*
G74*
G01*
X40800Y-35600D02*
G75*
G03X40800Y-35600I-300J0D01*
G74*
G01*
X39800Y-32100D02*
G75*
G03X39800Y-32100I-300J0D01*
G74*
G01*
X40800Y-32100D02*
G75*
G03X40800Y-32100I-300J0D01*
G74*
G01*
X39800Y-28600D02*
G75*
G03X39800Y-28600I-300J0D01*
G74*
G01*
X40800Y-28600D02*
G75*
G03X40800Y-28600I-300J0D01*
G74*
G01*
X39800Y-25100D02*
G75*
G03X39800Y-25100I-300J0D01*
G74*
G01*
X40800Y-25100D02*
G75*
G03X40800Y-25100I-300J0D01*
G74*
G01*
X65930Y-32210D02*
G75*
G03X65930Y-32210I-300J0D01*
G74*
G01*
X65930Y-33210D02*
G75*
G03X65930Y-33210I-300J0D01*
G74*
G01*
X39800Y-49600D02*
G75*
G03X39800Y-49600I-300J0D01*
G74*
G01*
X40800Y-49600D02*
G75*
G03X40800Y-49600I-300J0D01*
G74*
G01*
X44615Y-46809D02*
X44615Y-47650D01*
X45176Y-47650D01*
X45176Y-46809D01*
X44615Y-46809D01*
X45615Y-47090D02*
X45615Y-47370D01*
X46176Y-47090D02*
X46176Y-47370D01*
X45615Y-47370D02*
G75*
G03X46176Y-47370I280J0D01*
G74*
G01*
X46176Y-47090D02*
G75*
G03X45615Y-47090I-280J0D01*
G74*
G01*
X46615Y-47090D02*
X46615Y-47370D01*
X47176Y-47090D02*
X47176Y-47370D01*
X46615Y-47370D02*
G75*
G03X47176Y-47370I280J0D01*
G74*
G01*
X47176Y-47090D02*
G75*
G03X46615Y-47090I-280J0D01*
G74*
G01*
X47615Y-47090D02*
X47615Y-47370D01*
X48176Y-47090D02*
X48176Y-47370D01*
X47615Y-47370D02*
G75*
G03X48176Y-47370I280J0D01*
G74*
G01*
X48176Y-47090D02*
G75*
G03X47615Y-47090I-280J0D01*
G74*
G01*
X48615Y-47090D02*
X48615Y-47370D01*
X49176Y-47090D02*
X49176Y-47370D01*
X48615Y-47370D02*
G75*
G03X49176Y-47370I280J0D01*
G74*
G01*
X49176Y-47090D02*
G75*
G03X48615Y-47090I-280J0D01*
G74*
G01*
X49615Y-47090D02*
X49615Y-47370D01*
X50176Y-47090D02*
X50176Y-47370D01*
X49615Y-47370D02*
G75*
G03X50176Y-47370I280J0D01*
G74*
G01*
X50176Y-47090D02*
G75*
G03X49615Y-47090I-280J0D01*
G74*
G01*
X50615Y-47090D02*
X50615Y-47370D01*
X51176Y-47090D02*
X51176Y-47370D01*
X50615Y-47370D02*
G75*
G03X51176Y-47370I280J0D01*
G74*
G01*
X51176Y-47090D02*
G75*
G03X50615Y-47090I-280J0D01*
G74*
G01*
X51615Y-47090D02*
X51615Y-47370D01*
X52176Y-47090D02*
X52176Y-47370D01*
X51615Y-47370D02*
G75*
G03X52176Y-47370I280J0D01*
G74*
G01*
X52176Y-47090D02*
G75*
G03X51615Y-47090I-280J0D01*
G74*
G01*
X52615Y-47090D02*
X52615Y-47370D01*
X53176Y-47090D02*
X53176Y-47370D01*
X52615Y-47370D02*
G75*
G03X53176Y-47370I280J0D01*
G74*
G01*
X53176Y-47090D02*
G75*
G03X52615Y-47090I-280J0D01*
G74*
G01*
X53615Y-47090D02*
X53615Y-47370D01*
X54176Y-47090D02*
X54176Y-47370D01*
X53615Y-47370D02*
G75*
G03X54176Y-47370I280J0D01*
G74*
G01*
X54176Y-47090D02*
G75*
G03X53615Y-47090I-280J0D01*
G74*
G01*
X54615Y-47090D02*
X54615Y-47370D01*
X55176Y-47090D02*
X55176Y-47370D01*
X54615Y-47370D02*
G75*
G03X55176Y-47370I280J0D01*
G74*
G01*
X55176Y-47090D02*
G75*
G03X54615Y-47090I-280J0D01*
G74*
G01*
X55615Y-47090D02*
X55615Y-47370D01*
X56176Y-47090D02*
X56176Y-47370D01*
X55615Y-47370D02*
G75*
G03X56176Y-47370I280J0D01*
G74*
G01*
X56176Y-47090D02*
G75*
G03X55615Y-47090I-280J0D01*
G74*
G01*
X56615Y-47090D02*
X56615Y-47370D01*
X57176Y-47090D02*
X57176Y-47370D01*
X56615Y-47370D02*
G75*
G03X57176Y-47370I280J0D01*
G74*
G01*
X57176Y-47090D02*
G75*
G03X56615Y-47090I-280J0D01*
G74*
G01*
X57615Y-47090D02*
X57615Y-47370D01*
X58176Y-47090D02*
X58176Y-47370D01*
X57615Y-47370D02*
G75*
G03X58176Y-47370I280J0D01*
G74*
G01*
X58176Y-47090D02*
G75*
G03X57615Y-47090I-280J0D01*
G74*
G01*
X58615Y-47090D02*
X58615Y-47370D01*
X59176Y-47090D02*
X59176Y-47370D01*
X58615Y-47370D02*
G75*
G03X59176Y-47370I280J0D01*
G74*
G01*
X59176Y-47090D02*
G75*
G03X58615Y-47090I-280J0D01*
G74*
G01*
X59615Y-47090D02*
X59615Y-47370D01*
X60176Y-47090D02*
X60176Y-47370D01*
X59615Y-47370D02*
G75*
G03X60176Y-47370I280J0D01*
G74*
G01*
X60176Y-47090D02*
G75*
G03X59615Y-47090I-280J0D01*
G74*
G01*
X60615Y-47090D02*
X60615Y-47370D01*
X61176Y-47090D02*
X61176Y-47370D01*
X60615Y-47370D02*
G75*
G03X61176Y-47370I280J0D01*
G74*
G01*
X61176Y-47090D02*
G75*
G03X60615Y-47090I-280J0D01*
G74*
G01*
X61615Y-47090D02*
X61615Y-47370D01*
X62176Y-47090D02*
X62176Y-47370D01*
X61615Y-47370D02*
G75*
G03X62176Y-47370I280J0D01*
G74*
G01*
X62176Y-47090D02*
G75*
G03X61615Y-47090I-280J0D01*
G74*
G01*
X62615Y-47090D02*
X62615Y-47370D01*
X63176Y-47090D02*
X63176Y-47370D01*
X62615Y-47370D02*
G75*
G03X63176Y-47370I280J0D01*
G74*
G01*
X63176Y-47090D02*
G75*
G03X62615Y-47090I-280J0D01*
G74*
G01*
X63615Y-47090D02*
X63615Y-47370D01*
X64176Y-47090D02*
X64176Y-47370D01*
X63615Y-47370D02*
G75*
G03X64176Y-47370I280J0D01*
G74*
G01*
X64176Y-47090D02*
G75*
G03X63615Y-47090I-280J0D01*
G74*
G01*
X63615Y-41090D02*
X63615Y-41370D01*
X64176Y-41090D02*
X64176Y-41370D01*
X63615Y-41370D02*
G75*
G03X64176Y-41370I280J0D01*
G74*
G01*
X64176Y-41090D02*
G75*
G03X63615Y-41090I-280J0D01*
G74*
G01*
X62615Y-41090D02*
X62615Y-41370D01*
X63176Y-41090D02*
X63176Y-41370D01*
X62615Y-41370D02*
G75*
G03X63176Y-41370I280J0D01*
G74*
G01*
X63176Y-41090D02*
G75*
G03X62615Y-41090I-280J0D01*
G74*
G01*
X61615Y-41090D02*
X61615Y-41370D01*
X62176Y-41090D02*
X62176Y-41370D01*
X61615Y-41370D02*
G75*
G03X62176Y-41370I280J0D01*
G74*
G01*
X62176Y-41090D02*
G75*
G03X61615Y-41090I-280J0D01*
G74*
G01*
X60615Y-41090D02*
X60615Y-41370D01*
X61176Y-41090D02*
X61176Y-41370D01*
X60615Y-41370D02*
G75*
G03X61176Y-41370I280J0D01*
G74*
G01*
X61176Y-41090D02*
G75*
G03X60615Y-41090I-280J0D01*
G74*
G01*
X59615Y-41090D02*
X59615Y-41370D01*
X60176Y-41090D02*
X60176Y-41370D01*
X59615Y-41370D02*
G75*
G03X60176Y-41370I280J0D01*
G74*
G01*
X60176Y-41090D02*
G75*
G03X59615Y-41090I-280J0D01*
G74*
G01*
X58615Y-41090D02*
X58615Y-41370D01*
X59176Y-41090D02*
X59176Y-41370D01*
X58615Y-41370D02*
G75*
G03X59176Y-41370I280J0D01*
G74*
G01*
X59176Y-41090D02*
G75*
G03X58615Y-41090I-280J0D01*
G74*
G01*
X57615Y-41090D02*
X57615Y-41370D01*
X58176Y-41090D02*
X58176Y-41370D01*
X57615Y-41370D02*
G75*
G03X58176Y-41370I280J0D01*
G74*
G01*
X58176Y-41090D02*
G75*
G03X57615Y-41090I-280J0D01*
G74*
G01*
X56615Y-41090D02*
X56615Y-41370D01*
X57176Y-41090D02*
X57176Y-41370D01*
X56615Y-41370D02*
G75*
G03X57176Y-41370I280J0D01*
G74*
G01*
X57176Y-41090D02*
G75*
G03X56615Y-41090I-280J0D01*
G74*
G01*
X55615Y-41090D02*
X55615Y-41370D01*
X56176Y-41090D02*
X56176Y-41370D01*
X55615Y-41370D02*
G75*
G03X56176Y-41370I280J0D01*
G74*
G01*
X56176Y-41090D02*
G75*
G03X55615Y-41090I-280J0D01*
G74*
G01*
X54615Y-41090D02*
X54615Y-41370D01*
X55176Y-41090D02*
X55176Y-41370D01*
X54615Y-41370D02*
G75*
G03X55176Y-41370I280J0D01*
G74*
G01*
X55176Y-41090D02*
G75*
G03X54615Y-41090I-280J0D01*
G74*
G01*
X53615Y-41090D02*
X53615Y-41370D01*
X54176Y-41090D02*
X54176Y-41370D01*
X53615Y-41370D02*
G75*
G03X54176Y-41370I280J0D01*
G74*
G01*
X54176Y-41090D02*
G75*
G03X53615Y-41090I-280J0D01*
G74*
G01*
X52615Y-41090D02*
X52615Y-41370D01*
X53176Y-41090D02*
X53176Y-41370D01*
X52615Y-41370D02*
G75*
G03X53176Y-41370I280J0D01*
G74*
G01*
X53176Y-41090D02*
G75*
G03X52615Y-41090I-280J0D01*
G74*
G01*
X51615Y-41090D02*
X51615Y-41370D01*
X52176Y-41090D02*
X52176Y-41370D01*
X51615Y-41370D02*
G75*
G03X52176Y-41370I280J0D01*
G74*
G01*
X52176Y-41090D02*
G75*
G03X51615Y-41090I-280J0D01*
G74*
G01*
X50615Y-41090D02*
X50615Y-41370D01*
X51176Y-41090D02*
X51176Y-41370D01*
X50615Y-41370D02*
G75*
G03X51176Y-41370I280J0D01*
G74*
G01*
X51176Y-41090D02*
G75*
G03X50615Y-41090I-280J0D01*
G74*
G01*
X49615Y-41090D02*
X49615Y-41370D01*
X50176Y-41090D02*
X50176Y-41370D01*
X49615Y-41370D02*
G75*
G03X50176Y-41370I280J0D01*
G74*
G01*
X50176Y-41090D02*
G75*
G03X49615Y-41090I-280J0D01*
G74*
G01*
X48615Y-41090D02*
X48615Y-41370D01*
X49176Y-41090D02*
X49176Y-41370D01*
X48615Y-41370D02*
G75*
G03X49176Y-41370I280J0D01*
G74*
G01*
X49176Y-41090D02*
G75*
G03X48615Y-41090I-280J0D01*
G74*
G01*
X47615Y-41090D02*
X47615Y-41370D01*
X48176Y-41090D02*
X48176Y-41370D01*
X47615Y-41370D02*
G75*
G03X48176Y-41370I280J0D01*
G74*
G01*
X48176Y-41090D02*
G75*
G03X47615Y-41090I-280J0D01*
G74*
G01*
X46615Y-41090D02*
X46615Y-41370D01*
X47176Y-41090D02*
X47176Y-41370D01*
X46615Y-41370D02*
G75*
G03X47176Y-41370I280J0D01*
G74*
G01*
X47176Y-41090D02*
G75*
G03X46615Y-41090I-280J0D01*
G74*
G01*
X45615Y-41090D02*
X45615Y-41370D01*
X46176Y-41090D02*
X46176Y-41370D01*
X45615Y-41370D02*
G75*
G03X46176Y-41370I280J0D01*
G74*
G01*
X46176Y-41090D02*
G75*
G03X45615Y-41090I-280J0D01*
G74*
G01*
X44615Y-41090D02*
X44615Y-41370D01*
X45176Y-41090D02*
X45176Y-41370D01*
X44615Y-41370D02*
G75*
G03X45176Y-41370I280J0D01*
G74*
G01*
X45176Y-41090D02*
G75*
G03X44615Y-41090I-280J0D01*
G74*
G01*
X47971Y-45558D02*
X47971Y-45838D01*
X48532Y-45558D02*
X48532Y-45838D01*
X47971Y-45838D02*
G75*
G03X48532Y-45838I280J0D01*
G74*
G01*
X48532Y-45558D02*
G75*
G03X47971Y-45558I-280J0D01*
G74*
G01*
X48971Y-45558D02*
X48971Y-45838D01*
X49532Y-45558D02*
X49532Y-45838D01*
X48971Y-45838D02*
G75*
G03X49532Y-45838I280J0D01*
G74*
G01*
X49532Y-45558D02*
G75*
G03X48971Y-45558I-280J0D01*
G74*
G01*
X49971Y-45558D02*
X49971Y-45838D01*
X50532Y-45558D02*
X50532Y-45838D01*
X49971Y-45838D02*
G75*
G03X50532Y-45838I280J0D01*
G74*
G01*
X50532Y-45558D02*
G75*
G03X49971Y-45558I-280J0D01*
G74*
G01*
X50971Y-45558D02*
X50971Y-45838D01*
X51532Y-45558D02*
X51532Y-45838D01*
X50971Y-45838D02*
G75*
G03X51532Y-45838I280J0D01*
G74*
G01*
X51532Y-45558D02*
G75*
G03X50971Y-45558I-280J0D01*
G74*
G01*
X51971Y-45558D02*
X51971Y-45838D01*
X52532Y-45558D02*
X52532Y-45838D01*
X51971Y-45838D02*
G75*
G03X52532Y-45838I280J0D01*
G74*
G01*
X52532Y-45558D02*
G75*
G03X51971Y-45558I-280J0D01*
G74*
G01*
X52971Y-45558D02*
X52971Y-45838D01*
X53532Y-45558D02*
X53532Y-45838D01*
X52971Y-45838D02*
G75*
G03X53532Y-45838I280J0D01*
G74*
G01*
X53532Y-45558D02*
G75*
G03X52971Y-45558I-280J0D01*
G74*
G01*
X53971Y-45558D02*
X53971Y-45838D01*
X54532Y-45558D02*
X54532Y-45838D01*
X53971Y-45838D02*
G75*
G03X54532Y-45838I280J0D01*
G74*
G01*
X54532Y-45558D02*
G75*
G03X53971Y-45558I-280J0D01*
G74*
G01*
X54971Y-45558D02*
X54971Y-45838D01*
X55532Y-45558D02*
X55532Y-45838D01*
X54971Y-45838D02*
G75*
G03X55532Y-45838I280J0D01*
G74*
G01*
X55532Y-45558D02*
G75*
G03X54971Y-45558I-280J0D01*
G74*
G01*
X55971Y-45558D02*
X55971Y-45838D01*
X56532Y-45558D02*
X56532Y-45838D01*
X55971Y-45838D02*
G75*
G03X56532Y-45838I280J0D01*
G74*
G01*
X56532Y-45558D02*
G75*
G03X55971Y-45558I-280J0D01*
G74*
G01*
X56971Y-45558D02*
X56971Y-45838D01*
X57532Y-45558D02*
X57532Y-45838D01*
X56971Y-45838D02*
G75*
G03X57532Y-45838I280J0D01*
G74*
G01*
X57532Y-45558D02*
G75*
G03X56971Y-45558I-280J0D01*
G74*
G01*
X57971Y-45558D02*
X57971Y-45838D01*
X58532Y-45558D02*
X58532Y-45838D01*
X57971Y-45838D02*
G75*
G03X58532Y-45838I280J0D01*
G74*
G01*
X58532Y-45558D02*
G75*
G03X57971Y-45558I-280J0D01*
G74*
G01*
X58971Y-45558D02*
X58971Y-45838D01*
X59532Y-45558D02*
X59532Y-45838D01*
X58971Y-45838D02*
G75*
G03X59532Y-45838I280J0D01*
G74*
G01*
X59532Y-45558D02*
G75*
G03X58971Y-45558I-280J0D01*
G74*
G01*
X59971Y-45558D02*
X59971Y-45838D01*
X60532Y-45558D02*
X60532Y-45838D01*
X59971Y-45838D02*
G75*
G03X60532Y-45838I280J0D01*
G74*
G01*
X60532Y-45558D02*
G75*
G03X59971Y-45558I-280J0D01*
G74*
G01*
X46971Y-45277D02*
X46971Y-46118D01*
X47532Y-46118D01*
X47532Y-45277D01*
X46971Y-45277D01*
X59971Y-42558D02*
X59971Y-42838D01*
X60532Y-42558D02*
X60532Y-42838D01*
X59971Y-42838D02*
G75*
G03X60532Y-42838I280J0D01*
G74*
G01*
X60532Y-42558D02*
G75*
G03X59971Y-42558I-280J0D01*
G74*
G01*
X58971Y-42558D02*
X58971Y-42838D01*
X59532Y-42558D02*
X59532Y-42838D01*
X58971Y-42838D02*
G75*
G03X59532Y-42838I280J0D01*
G74*
G01*
X59532Y-42558D02*
G75*
G03X58971Y-42558I-280J0D01*
G74*
G01*
X57971Y-42558D02*
X57971Y-42838D01*
X58532Y-42558D02*
X58532Y-42838D01*
X57971Y-42838D02*
G75*
G03X58532Y-42838I280J0D01*
G74*
G01*
X58532Y-42558D02*
G75*
G03X57971Y-42558I-280J0D01*
G74*
G01*
X56971Y-42558D02*
X56971Y-42838D01*
X57532Y-42558D02*
X57532Y-42838D01*
X56971Y-42838D02*
G75*
G03X57532Y-42838I280J0D01*
G74*
G01*
X57532Y-42558D02*
G75*
G03X56971Y-42558I-280J0D01*
G74*
G01*
X55971Y-42558D02*
X55971Y-42838D01*
X56532Y-42558D02*
X56532Y-42838D01*
X55971Y-42838D02*
G75*
G03X56532Y-42838I280J0D01*
G74*
G01*
X56532Y-42558D02*
G75*
G03X55971Y-42558I-280J0D01*
G74*
G01*
X54971Y-42558D02*
X54971Y-42838D01*
X55532Y-42558D02*
X55532Y-42838D01*
X54971Y-42838D02*
G75*
G03X55532Y-42838I280J0D01*
G74*
G01*
X55532Y-42558D02*
G75*
G03X54971Y-42558I-280J0D01*
G74*
G01*
X53971Y-42558D02*
X53971Y-42838D01*
X54532Y-42558D02*
X54532Y-42838D01*
X53971Y-42838D02*
G75*
G03X54532Y-42838I280J0D01*
G74*
G01*
X54532Y-42558D02*
G75*
G03X53971Y-42558I-280J0D01*
G74*
G01*
X52971Y-42558D02*
X52971Y-42838D01*
X53532Y-42558D02*
X53532Y-42838D01*
X52971Y-42838D02*
G75*
G03X53532Y-42838I280J0D01*
G74*
G01*
X53532Y-42558D02*
G75*
G03X52971Y-42558I-280J0D01*
G74*
G01*
X51971Y-42558D02*
X51971Y-42838D01*
X52532Y-42558D02*
X52532Y-42838D01*
X51971Y-42838D02*
G75*
G03X52532Y-42838I280J0D01*
G74*
G01*
X52532Y-42558D02*
G75*
G03X51971Y-42558I-280J0D01*
G74*
G01*
X50971Y-42558D02*
X50971Y-42838D01*
X51532Y-42558D02*
X51532Y-42838D01*
X50971Y-42838D02*
G75*
G03X51532Y-42838I280J0D01*
G74*
G01*
X51532Y-42558D02*
G75*
G03X50971Y-42558I-280J0D01*
G74*
G01*
X49971Y-42558D02*
X49971Y-42838D01*
X50532Y-42558D02*
X50532Y-42838D01*
X49971Y-42838D02*
G75*
G03X50532Y-42838I280J0D01*
G74*
G01*
X50532Y-42558D02*
G75*
G03X49971Y-42558I-280J0D01*
G74*
G01*
X48971Y-42558D02*
X48971Y-42838D01*
X49532Y-42558D02*
X49532Y-42838D01*
X48971Y-42838D02*
G75*
G03X49532Y-42838I280J0D01*
G74*
G01*
X49532Y-42558D02*
G75*
G03X48971Y-42558I-280J0D01*
G74*
G01*
X47971Y-42558D02*
X47971Y-42838D01*
X48532Y-42558D02*
X48532Y-42838D01*
X47971Y-42838D02*
G75*
G03X48532Y-42838I280J0D01*
G74*
G01*
X48532Y-42558D02*
G75*
G03X47971Y-42558I-280J0D01*
G74*
G01*
X46971Y-42558D02*
X46971Y-42838D01*
X47532Y-42558D02*
X47532Y-42838D01*
X46971Y-42838D02*
G75*
G03X47532Y-42838I280J0D01*
G74*
G01*
X47532Y-42558D02*
G75*
G03X46971Y-42558I-280J0D01*
G74*
G01*
X44629Y-38249D02*
X44629Y-39090D01*
X45190Y-39090D01*
X45190Y-38249D01*
X44629Y-38249D01*
X45629Y-38530D02*
X45629Y-38810D01*
X46190Y-38530D02*
X46190Y-38810D01*
X45629Y-38810D02*
G75*
G03X46190Y-38810I280J0D01*
G74*
G01*
X46190Y-38530D02*
G75*
G03X45629Y-38530I-280J0D01*
G74*
G01*
X46629Y-38530D02*
X46629Y-38810D01*
X47190Y-38530D02*
X47190Y-38810D01*
X46629Y-38810D02*
G75*
G03X47190Y-38810I280J0D01*
G74*
G01*
X47190Y-38530D02*
G75*
G03X46629Y-38530I-280J0D01*
G74*
G01*
X47629Y-38530D02*
X47629Y-38810D01*
X48190Y-38530D02*
X48190Y-38810D01*
X47629Y-38810D02*
G75*
G03X48190Y-38810I280J0D01*
G74*
G01*
X48190Y-38530D02*
G75*
G03X47629Y-38530I-280J0D01*
G74*
G01*
X48629Y-38530D02*
X48629Y-38810D01*
X49190Y-38530D02*
X49190Y-38810D01*
X48629Y-38810D02*
G75*
G03X49190Y-38810I280J0D01*
G74*
G01*
X49190Y-38530D02*
G75*
G03X48629Y-38530I-280J0D01*
G74*
G01*
X49629Y-38530D02*
X49629Y-38810D01*
X50190Y-38530D02*
X50190Y-38810D01*
X49629Y-38810D02*
G75*
G03X50190Y-38810I280J0D01*
G74*
G01*
X50190Y-38530D02*
G75*
G03X49629Y-38530I-280J0D01*
G74*
G01*
X50629Y-38530D02*
X50629Y-38810D01*
X51190Y-38530D02*
X51190Y-38810D01*
X50629Y-38810D02*
G75*
G03X51190Y-38810I280J0D01*
G74*
G01*
X51190Y-38530D02*
G75*
G03X50629Y-38530I-280J0D01*
G74*
G01*
X51629Y-38530D02*
X51629Y-38810D01*
X52190Y-38530D02*
X52190Y-38810D01*
X51629Y-38810D02*
G75*
G03X52190Y-38810I280J0D01*
G74*
G01*
X52190Y-38530D02*
G75*
G03X51629Y-38530I-280J0D01*
G74*
G01*
X52629Y-38530D02*
X52629Y-38810D01*
X53190Y-38530D02*
X53190Y-38810D01*
X52629Y-38810D02*
G75*
G03X53190Y-38810I280J0D01*
G74*
G01*
X53190Y-38530D02*
G75*
G03X52629Y-38530I-280J0D01*
G74*
G01*
X52629Y-35530D02*
X52629Y-35810D01*
X53190Y-35530D02*
X53190Y-35810D01*
X52629Y-35810D02*
G75*
G03X53190Y-35810I280J0D01*
G74*
G01*
X53190Y-35530D02*
G75*
G03X52629Y-35530I-280J0D01*
G74*
G01*
X51629Y-35530D02*
X51629Y-35810D01*
X52190Y-35530D02*
X52190Y-35810D01*
X51629Y-35810D02*
G75*
G03X52190Y-35810I280J0D01*
G74*
G01*
X52190Y-35530D02*
G75*
G03X51629Y-35530I-280J0D01*
G74*
G01*
X50629Y-35530D02*
X50629Y-35810D01*
X51190Y-35530D02*
X51190Y-35810D01*
X50629Y-35810D02*
G75*
G03X51190Y-35810I280J0D01*
G74*
G01*
X51190Y-35530D02*
G75*
G03X50629Y-35530I-280J0D01*
G74*
G01*
X49629Y-35530D02*
X49629Y-35810D01*
X50190Y-35530D02*
X50190Y-35810D01*
X49629Y-35810D02*
G75*
G03X50190Y-35810I280J0D01*
G74*
G01*
X50190Y-35530D02*
G75*
G03X49629Y-35530I-280J0D01*
G74*
G01*
X48629Y-35530D02*
X48629Y-35810D01*
X49190Y-35530D02*
X49190Y-35810D01*
X48629Y-35810D02*
G75*
G03X49190Y-35810I280J0D01*
G74*
G01*
X49190Y-35530D02*
G75*
G03X48629Y-35530I-280J0D01*
G74*
G01*
X47629Y-35530D02*
X47629Y-35810D01*
X48190Y-35530D02*
X48190Y-35810D01*
X47629Y-35810D02*
G75*
G03X48190Y-35810I280J0D01*
G74*
G01*
X48190Y-35530D02*
G75*
G03X47629Y-35530I-280J0D01*
G74*
G01*
X46629Y-35530D02*
X46629Y-35810D01*
X47190Y-35530D02*
X47190Y-35810D01*
X46629Y-35810D02*
G75*
G03X47190Y-35810I280J0D01*
G74*
G01*
X47190Y-35530D02*
G75*
G03X46629Y-35530I-280J0D01*
G74*
G01*
X45629Y-35530D02*
X45629Y-35810D01*
X46190Y-35530D02*
X46190Y-35810D01*
X45629Y-35810D02*
G75*
G03X46190Y-35810I280J0D01*
G74*
G01*
X46190Y-35530D02*
G75*
G03X45629Y-35530I-280J0D01*
G74*
G01*
X44629Y-35530D02*
X44629Y-35810D01*
X45190Y-35530D02*
X45190Y-35810D01*
X44629Y-35810D02*
G75*
G03X45190Y-35810I280J0D01*
G74*
G01*
X45190Y-35530D02*
G75*
G03X44629Y-35530I-280J0D01*
G74*
G01*
X59759Y-29719D02*
X59759Y-30560D01*
X60320Y-30560D01*
X60320Y-29719D01*
X59759Y-29719D01*
X59320Y-30280D02*
X59320Y-30000D01*
X58759Y-30280D02*
X58759Y-30000D01*
X59320Y-30000D02*
G75*
G03X58759Y-30000I-280J0D01*
G74*
G01*
X58759Y-30280D02*
G75*
G03X59320Y-30280I280J0D01*
G74*
G01*
X58320Y-30280D02*
X58320Y-30000D01*
X57759Y-30280D02*
X57759Y-30000D01*
X58320Y-30000D02*
G75*
G03X57759Y-30000I-280J0D01*
G74*
G01*
X57759Y-30280D02*
G75*
G03X58320Y-30280I280J0D01*
G74*
G01*
X57320Y-30280D02*
X57320Y-30000D01*
X56759Y-30280D02*
X56759Y-30000D01*
X57320Y-30000D02*
G75*
G03X56759Y-30000I-280J0D01*
G74*
G01*
X56759Y-30280D02*
G75*
G03X57320Y-30280I280J0D01*
G74*
G01*
X56320Y-30280D02*
X56320Y-30000D01*
X55759Y-30280D02*
X55759Y-30000D01*
X56320Y-30000D02*
G75*
G03X55759Y-30000I-280J0D01*
G74*
G01*
X55759Y-30280D02*
G75*
G03X56320Y-30280I280J0D01*
G74*
G01*
X55320Y-30280D02*
X55320Y-30000D01*
X54759Y-30280D02*
X54759Y-30000D01*
X55320Y-30000D02*
G75*
G03X54759Y-30000I-280J0D01*
G74*
G01*
X54759Y-30280D02*
G75*
G03X55320Y-30280I280J0D01*
G74*
G01*
X54320Y-30280D02*
X54320Y-30000D01*
X53759Y-30280D02*
X53759Y-30000D01*
X54320Y-30000D02*
G75*
G03X53759Y-30000I-280J0D01*
G74*
G01*
X53759Y-30280D02*
G75*
G03X54320Y-30280I280J0D01*
G74*
G01*
X53320Y-30280D02*
X53320Y-30000D01*
X52759Y-30280D02*
X52759Y-30000D01*
X53320Y-30000D02*
G75*
G03X52759Y-30000I-280J0D01*
G74*
G01*
X52759Y-30280D02*
G75*
G03X53320Y-30280I280J0D01*
G74*
G01*
X53320Y-33280D02*
X53320Y-33000D01*
X52759Y-33280D02*
X52759Y-33000D01*
X53320Y-33000D02*
G75*
G03X52759Y-33000I-280J0D01*
G74*
G01*
X52759Y-33280D02*
G75*
G03X53320Y-33280I280J0D01*
G74*
G01*
X54320Y-33280D02*
X54320Y-33000D01*
X53759Y-33280D02*
X53759Y-33000D01*
X54320Y-33000D02*
G75*
G03X53759Y-33000I-280J0D01*
G74*
G01*
X53759Y-33280D02*
G75*
G03X54320Y-33280I280J0D01*
G74*
G01*
X55320Y-33280D02*
X55320Y-33000D01*
X54759Y-33280D02*
X54759Y-33000D01*
X55320Y-33000D02*
G75*
G03X54759Y-33000I-280J0D01*
G74*
G01*
X54759Y-33280D02*
G75*
G03X55320Y-33280I280J0D01*
G74*
G01*
X56320Y-33280D02*
X56320Y-33000D01*
X55759Y-33280D02*
X55759Y-33000D01*
X56320Y-33000D02*
G75*
G03X55759Y-33000I-280J0D01*
G74*
G01*
X55759Y-33280D02*
G75*
G03X56320Y-33280I280J0D01*
G74*
G01*
X57320Y-33280D02*
X57320Y-33000D01*
X56759Y-33280D02*
X56759Y-33000D01*
X57320Y-33000D02*
G75*
G03X56759Y-33000I-280J0D01*
G74*
G01*
X56759Y-33280D02*
G75*
G03X57320Y-33280I280J0D01*
G74*
G01*
X58320Y-33280D02*
X58320Y-33000D01*
X57759Y-33280D02*
X57759Y-33000D01*
X58320Y-33000D02*
G75*
G03X57759Y-33000I-280J0D01*
G74*
G01*
X57759Y-33280D02*
G75*
G03X58320Y-33280I280J0D01*
G74*
G01*
X59320Y-33280D02*
X59320Y-33000D01*
X58759Y-33280D02*
X58759Y-33000D01*
X59320Y-33000D02*
G75*
G03X58759Y-33000I-280J0D01*
G74*
G01*
X58759Y-33280D02*
G75*
G03X59320Y-33280I280J0D01*
G74*
G01*
X60320Y-33280D02*
X60320Y-33000D01*
X59759Y-33280D02*
X59759Y-33000D01*
X60320Y-33000D02*
G75*
G03X59759Y-33000I-280J0D01*
G74*
G01*
X59759Y-33280D02*
G75*
G03X60320Y-33280I280J0D01*
G74*
G01*
X63854Y-35524D02*
X63854Y-36015D01*
X64345Y-36015D01*
X64345Y-35524D01*
X63854Y-35524D01*
X67345Y-35770D02*
G75*
G03X67345Y-35770I-245J0D01*
G74*
G01*
X56385Y-50011D02*
X56385Y-50208D01*
X57112Y-50011D02*
X57112Y-50208D01*
X56385Y-50208D02*
G75*
G03X57112Y-50208I363J0D01*
G74*
G01*
X57112Y-50011D02*
G75*
G03X56385Y-50011I-363J0D01*
G74*
G01*
X58307Y-50011D02*
X58307Y-50208D01*
X59034Y-50011D02*
X59034Y-50208D01*
X58307Y-50208D02*
G75*
G03X59034Y-50208I363J0D01*
G74*
G01*
X59034Y-50011D02*
G75*
G03X58307Y-50011I-363J0D01*
G74*
G01*
X40704Y-52124D02*
X40704Y-52615D01*
X41195Y-52615D01*
X41195Y-52124D01*
X40704Y-52124D01*
X40195Y-52370D02*
G75*
G03X40195Y-52370I-245J0D01*
G74*
G01*
X68129Y-36699D02*
X68129Y-37190D01*
X68620Y-37190D01*
X68620Y-36699D01*
X68129Y-36699D01*
X68620Y-35945D02*
G75*
G03X68620Y-35945I-245J0D01*
G74*
G01*
X59095Y-51900D02*
G75*
G03X59095Y-51900I-245J0D01*
G74*
G01*
X59095Y-52900D02*
G75*
G03X59095Y-52900I-245J0D01*
G74*
G01*
X57345Y-51900D02*
G75*
G03X57345Y-51900I-245J0D01*
G74*
G01*
X57345Y-52900D02*
G75*
G03X57345Y-52900I-245J0D01*
G74*
G01*
X61455Y-48880D02*
G75*
G03X61455Y-48880I-245J0D01*
G74*
G01*
X61455Y-49880D02*
G75*
G03X61455Y-49880I-245J0D01*
G74*
G01*
X61729Y-25229D02*
X61729Y-26170D01*
X62670Y-26170D01*
X62670Y-25229D01*
X61729Y-25229D01*
X64670Y-25700D02*
G75*
G03X64670Y-25700I-470J0D01*
G74*
G01*
X65729Y-25229D02*
X65729Y-26170D01*
X66670Y-26170D01*
X66670Y-25229D01*
X65729Y-25229D01*
X68670Y-25700D02*
G75*
G03X68670Y-25700I-470J0D01*
G74*
G01*
X51629Y-53429D02*
X51629Y-54370D01*
X52570Y-54370D01*
X52570Y-53429D01*
X51629Y-53429D01*
X50570Y-53900D02*
G75*
G03X50570Y-53900I-470J0D01*
G74*
G01*
X47629Y-53429D02*
X47629Y-54370D01*
X48570Y-54370D01*
X48570Y-53429D01*
X47629Y-53429D01*
X46570Y-53900D02*
G75*
G03X46570Y-53900I-470J0D01*
G74*
G01*
X70489Y-32339D02*
X70489Y-33280D01*
X71430Y-33280D01*
X71430Y-32339D01*
X70489Y-32339D01*
X71430Y-34810D02*
G75*
G03X71430Y-34810I-470J0D01*
G74*
G01*
X59199Y-25129D02*
X59199Y-26070D01*
X60140Y-26070D01*
X60140Y-25129D01*
X59199Y-25129D01*
X58140Y-25600D02*
G75*
G03X58140Y-25600I-470J0D01*
G74*
G01*
X55184Y-25124D02*
X55184Y-26065D01*
X56125Y-26065D01*
X56125Y-25124D01*
X55184Y-25124D01*
X54125Y-25595D02*
G75*
G03X54125Y-25595I-470J0D01*
G74*
G01*
X63684Y-48414D02*
X63684Y-48905D01*
X64175Y-48905D01*
X64175Y-48414D01*
X63684Y-48414D01*
X63175Y-48660D02*
G75*
G03X63175Y-48660I-245J0D01*
G74*
G01*
X62674Y-39414D02*
X62674Y-39905D01*
X63165Y-39905D01*
X63165Y-39414D01*
X62674Y-39414D01*
X64165Y-39660D02*
G75*
G03X64165Y-39660I-245J0D01*
G74*
G01*
X54614Y-39314D02*
X54614Y-39805D01*
X55105Y-39805D01*
X55105Y-39314D01*
X54614Y-39314D01*
X56105Y-39560D02*
G75*
G03X56105Y-39560I-245J0D01*
G74*
G01*
X57105Y-39560D02*
G75*
G03X57105Y-39560I-245J0D01*
G74*
G01*
X58105Y-39560D02*
G75*
G03X58105Y-39560I-245J0D01*
G74*
G01*
X69424Y-39964D02*
X69424Y-40455D01*
X69915Y-40455D01*
X69915Y-39964D01*
X69424Y-39964D01*
X70915Y-40210D02*
G75*
G03X70915Y-40210I-245J0D01*
G74*
G01*
X71915Y-40210D02*
G75*
G03X71915Y-40210I-245J0D01*
G74*
G01*
X71554Y-37654D02*
X71554Y-38145D01*
X72045Y-38145D01*
X72045Y-37654D01*
X71554Y-37654D01*
X71045Y-37900D02*
G75*
G03X71045Y-37900I-245J0D01*
G74*
G01*
X70045Y-37900D02*
G75*
G03X70045Y-37900I-245J0D01*
G74*
G01*
X54430Y-36642D02*
X54430Y-37133D01*
X54921Y-37133D01*
X54921Y-36642D01*
X54430Y-36642D01*
X54921Y-35888D02*
G75*
G03X54921Y-35888I-245J0D01*
G74*
G01*
X66360Y-51580D02*
G75*
G03X66360Y-51580I-270J0D01*
G74*
G01*
X70360Y-51580D02*
G75*
G03X70360Y-51580I-270J0D01*
G74*
G01*
X69669Y-49409D02*
X69669Y-49900D01*
X70160Y-49900D01*
X70160Y-49409D01*
X69669Y-49409D01*
X71160Y-49655D02*
G75*
G03X71160Y-49655I-245J0D01*
G74*
G01*
X71160Y-50655D02*
G75*
G03X71160Y-50655I-245J0D01*
G74*
G01*
X66080Y-52945D02*
G75*
G03X66080Y-52945I-300J0D01*
G74*
G01*
X66080Y-53945D02*
G75*
G03X66080Y-53945I-300J0D01*
G74*
G01*
X67524Y-32404D02*
X67524Y-32895D01*
X68015Y-32895D01*
X68015Y-32404D01*
X67524Y-32404D01*
X69015Y-32650D02*
G75*
G03X69015Y-32650I-245J0D01*
G74*
G01*
X67854Y-49554D02*
X67854Y-50045D01*
X68345Y-50045D01*
X68345Y-49554D01*
X67854Y-49554D01*
X67345Y-49800D02*
G75*
G03X67345Y-49800I-245J0D01*
G74*
G01*
X68489Y-52669D02*
X68489Y-53160D01*
X68980Y-53160D01*
X68980Y-52669D01*
X68489Y-52669D01*
X68980Y-53915D02*
G75*
G03X68980Y-53915I-245J0D01*
G74*
G01*
X62045Y-31590D02*
G75*
G03X62045Y-31590I-245J0D01*
G74*
G01*
X62045Y-32590D02*
G75*
G03X62045Y-32590I-245J0D01*
G74*
G01*
X66045Y-50500D02*
G75*
G03X66045Y-50500I-245J0D01*
G74*
G01*
X66045Y-49500D02*
G75*
G03X66045Y-49500I-245J0D01*
G74*
G01*
X55285Y-48390D02*
G75*
G03X55285Y-48390I-245J0D01*
G74*
G01*
X56285Y-48390D02*
G75*
G03X56285Y-48390I-245J0D01*
G74*
G01*
X55815Y-31570D02*
G75*
G03X55815Y-31570I-245J0D01*
G74*
G01*
X54815Y-31570D02*
G75*
G03X54815Y-31570I-245J0D01*
G74*
G01*
X51545Y-37200D02*
G75*
G03X51545Y-37200I-245J0D01*
G74*
G01*
X50545Y-37200D02*
G75*
G03X50545Y-37200I-245J0D01*
G74*
G01*
X72370Y-54400D02*
G75*
G03X72370Y-54400I-770J0D01*
G74*
G01*
X72370Y-25900D02*
G75*
G03X72370Y-25900I-770J0D01*
G74*
G01*
X53070Y-28150D02*
G75*
G03X53070Y-28150I-770J0D01*
G74*
G01*
X40220Y-54650D02*
G75*
G03X40220Y-54650I-770J0D01*
G74*
G01*
G54D12*
X70502Y-44530D02*
X70931Y-44530D01*
X71017Y-44558D01*
X71074Y-44615D01*
X71102Y-44701D01*
X71102Y-44758D01*
X71102Y-43930D02*
X71102Y-44272D01*
X71102Y-44101D02*
X70502Y-44101D01*
X70588Y-44158D01*
X70645Y-44215D01*
X70674Y-44272D01*
X68002Y-45601D02*
X68488Y-45601D01*
X68545Y-45572D01*
X68574Y-45544D01*
X68602Y-45487D01*
X68602Y-45372D01*
X68574Y-45315D01*
X68545Y-45287D01*
X68488Y-45258D01*
X68002Y-45258D01*
X68574Y-45001D02*
X68602Y-44915D01*
X68602Y-44772D01*
X68574Y-44715D01*
X68545Y-44687D01*
X68488Y-44658D01*
X68431Y-44658D01*
X68374Y-44687D01*
X68345Y-44715D01*
X68317Y-44772D01*
X68288Y-44887D01*
X68260Y-44944D01*
X68231Y-44972D01*
X68174Y-45001D01*
X68117Y-45001D01*
X68060Y-44972D01*
X68031Y-44944D01*
X68002Y-44887D01*
X68002Y-44744D01*
X68031Y-44658D01*
X68288Y-44201D02*
X68317Y-44115D01*
X68345Y-44087D01*
X68402Y-44058D01*
X68488Y-44058D01*
X68545Y-44087D01*
X68574Y-44115D01*
X68602Y-44172D01*
X68602Y-44401D01*
X68002Y-44401D01*
X68002Y-44201D01*
X68031Y-44144D01*
X68060Y-44115D01*
X68117Y-44087D01*
X68174Y-44087D01*
X68231Y-44115D01*
X68260Y-44144D01*
X68288Y-44201D01*
X68288Y-44401D01*
X68660Y-43944D02*
X68660Y-43487D01*
X68060Y-43372D02*
X68031Y-43344D01*
X68002Y-43287D01*
X68002Y-43144D01*
X68031Y-43087D01*
X68060Y-43058D01*
X68117Y-43030D01*
X68174Y-43030D01*
X68260Y-43058D01*
X68602Y-43401D01*
X68602Y-43030D01*
G54D14*
X43092Y-53673D02*
X43111Y-53616D01*
X43111Y-53520D01*
X43092Y-53482D01*
X43073Y-53463D01*
X43035Y-53444D01*
X42997Y-53444D01*
X42959Y-53463D01*
X42940Y-53482D01*
X42921Y-53520D01*
X42902Y-53597D01*
X42883Y-53635D01*
X42864Y-53654D01*
X42826Y-53673D01*
X42788Y-53673D01*
X42750Y-53654D01*
X42730Y-53635D01*
X42711Y-53597D01*
X42711Y-53501D01*
X42730Y-53444D01*
X42711Y-53311D02*
X43111Y-53216D01*
X42826Y-53140D01*
X43111Y-53063D01*
X42711Y-52968D01*
X42750Y-52835D02*
X42730Y-52816D01*
X42711Y-52778D01*
X42711Y-52682D01*
X42730Y-52644D01*
X42750Y-52625D01*
X42788Y-52606D01*
X42826Y-52606D01*
X42883Y-52625D01*
X43111Y-52854D01*
X43111Y-52606D01*
X43811Y-53720D02*
X43621Y-53854D01*
X43811Y-53949D02*
X43411Y-53949D01*
X43411Y-53797D01*
X43430Y-53759D01*
X43450Y-53740D01*
X43488Y-53720D01*
X43545Y-53720D01*
X43583Y-53740D01*
X43602Y-53759D01*
X43621Y-53797D01*
X43621Y-53949D01*
X43602Y-53549D02*
X43602Y-53416D01*
X43811Y-53359D02*
X43811Y-53549D01*
X43411Y-53549D01*
X43411Y-53359D01*
X43792Y-53206D02*
X43811Y-53149D01*
X43811Y-53054D01*
X43792Y-53016D01*
X43773Y-52997D01*
X43735Y-52978D01*
X43697Y-52978D01*
X43659Y-52997D01*
X43640Y-53016D01*
X43621Y-53054D01*
X43602Y-53130D01*
X43583Y-53168D01*
X43564Y-53187D01*
X43526Y-53206D01*
X43488Y-53206D01*
X43450Y-53187D01*
X43430Y-53168D01*
X43411Y-53130D01*
X43411Y-53035D01*
X43430Y-52978D01*
X43602Y-52806D02*
X43602Y-52673D01*
X43811Y-52616D02*
X43811Y-52806D01*
X43411Y-52806D01*
X43411Y-52616D01*
X43411Y-52501D02*
X43411Y-52273D01*
X43811Y-52387D02*
X43411Y-52387D01*
G54D18*
X52628Y-34645D02*
X52628Y-33964D01*
X52791Y-33964D01*
X52831Y-33997D01*
X52852Y-34029D01*
X52872Y-34094D01*
X52872Y-34191D01*
X52852Y-34256D01*
X52831Y-34288D01*
X52791Y-34321D01*
X52628Y-34321D01*
X53280Y-34645D02*
X53035Y-34645D01*
X53158Y-34645D02*
X53158Y-33964D01*
X53117Y-34061D01*
X53076Y-34126D01*
X53035Y-34159D01*
G54D16*
X45990Y-33684D02*
X46047Y-33712D01*
X46142Y-33712D01*
X46180Y-33684D01*
X46200Y-33655D01*
X46219Y-33598D01*
X46219Y-33541D01*
X46200Y-33484D01*
X46180Y-33455D01*
X46142Y-33427D01*
X46066Y-33398D01*
X46028Y-33370D01*
X46009Y-33341D01*
X45990Y-33284D01*
X45990Y-33227D01*
X46009Y-33170D01*
X46028Y-33141D01*
X46066Y-33112D01*
X46161Y-33112D01*
X46219Y-33141D01*
X46371Y-33541D02*
X46561Y-33541D01*
X46333Y-33712D02*
X46466Y-33112D01*
X46600Y-33712D01*
X46923Y-33712D02*
X46733Y-33712D01*
X46733Y-33112D01*
X47057Y-33712D02*
X47057Y-33112D01*
X47247Y-33712D02*
X47247Y-33112D01*
X47342Y-33112D01*
X47400Y-33141D01*
X47438Y-33198D01*
X47457Y-33255D01*
X47476Y-33370D01*
X47476Y-33455D01*
X47457Y-33570D01*
X47438Y-33627D01*
X47400Y-33684D01*
X47342Y-33712D01*
X47247Y-33712D01*
X47628Y-33541D02*
X47819Y-33541D01*
X47590Y-33712D02*
X47723Y-33112D01*
X47857Y-33712D01*
X47895Y-33770D02*
X48200Y-33770D01*
X48295Y-33112D02*
X48295Y-33598D01*
X48314Y-33655D01*
X48333Y-33684D01*
X48371Y-33712D01*
X48447Y-33712D01*
X48485Y-33684D01*
X48504Y-33655D01*
X48523Y-33598D01*
X48523Y-33112D01*
X48714Y-33712D02*
X48714Y-33112D01*
X48942Y-33712D01*
X48942Y-33112D01*
X49323Y-33712D02*
X49133Y-33712D01*
X49133Y-33112D01*
X49438Y-33170D02*
X49457Y-33141D01*
X49495Y-33112D01*
X49590Y-33112D01*
X49628Y-33141D01*
X49647Y-33170D01*
X49666Y-33227D01*
X49666Y-33284D01*
X49647Y-33370D01*
X49419Y-33712D01*
X49666Y-33712D01*
X49895Y-33370D02*
X49857Y-33341D01*
X49838Y-33312D01*
X49819Y-33255D01*
X49819Y-33227D01*
X49838Y-33170D01*
X49857Y-33141D01*
X49895Y-33112D01*
X49971Y-33112D01*
X50009Y-33141D01*
X50028Y-33170D01*
X50047Y-33227D01*
X50047Y-33255D01*
X50028Y-33312D01*
X50009Y-33341D01*
X49971Y-33370D01*
X49895Y-33370D01*
X49857Y-33398D01*
X49838Y-33427D01*
X49819Y-33484D01*
X49819Y-33598D01*
X49838Y-33655D01*
X49857Y-33684D01*
X49895Y-33712D01*
X49971Y-33712D01*
X50009Y-33684D01*
X50028Y-33655D01*
X50047Y-33598D01*
X50047Y-33484D01*
X50028Y-33427D01*
X50009Y-33398D01*
X49971Y-33370D01*
X50295Y-33112D02*
X50333Y-33112D01*
X50371Y-33141D01*
X50390Y-33170D01*
X50409Y-33227D01*
X50428Y-33341D01*
X50428Y-33484D01*
X50409Y-33598D01*
X50390Y-33655D01*
X50371Y-33684D01*
X50333Y-33712D01*
X50295Y-33712D01*
X50257Y-33684D01*
X50238Y-33655D01*
X50219Y-33598D01*
X50200Y-33484D01*
X50200Y-33341D01*
X50219Y-33227D01*
X50238Y-33170D01*
X50257Y-33141D01*
X50295Y-33112D01*
X50561Y-33112D02*
X50809Y-33112D01*
X50676Y-33341D01*
X50733Y-33341D01*
X50771Y-33370D01*
X50790Y-33398D01*
X50809Y-33455D01*
X50809Y-33598D01*
X50790Y-33655D01*
X50771Y-33684D01*
X50733Y-33712D01*
X50619Y-33712D01*
X50580Y-33684D01*
X50561Y-33655D01*
G54D18*
X53524Y-50435D02*
X53524Y-49754D01*
X53687Y-49754D01*
X53727Y-49787D01*
X53748Y-49819D01*
X53768Y-49884D01*
X53768Y-49981D01*
X53748Y-50046D01*
X53727Y-50078D01*
X53687Y-50111D01*
X53524Y-50111D01*
X53931Y-49819D02*
X53952Y-49787D01*
X53992Y-49754D01*
X54094Y-49754D01*
X54135Y-49787D01*
X54155Y-49819D01*
X54176Y-49884D01*
X54176Y-49949D01*
X54155Y-50046D01*
X53911Y-50435D01*
X54176Y-50435D01*
G54D16*
X44142Y-49162D02*
X44276Y-49762D01*
X44409Y-49162D01*
X44771Y-49705D02*
X44752Y-49734D01*
X44695Y-49762D01*
X44656Y-49762D01*
X44599Y-49734D01*
X44561Y-49677D01*
X44542Y-49620D01*
X44523Y-49505D01*
X44523Y-49420D01*
X44542Y-49305D01*
X44561Y-49248D01*
X44599Y-49191D01*
X44656Y-49162D01*
X44695Y-49162D01*
X44752Y-49191D01*
X44771Y-49220D01*
X45171Y-49705D02*
X45152Y-49734D01*
X45095Y-49762D01*
X45056Y-49762D01*
X44999Y-49734D01*
X44961Y-49677D01*
X44942Y-49620D01*
X44923Y-49505D01*
X44923Y-49420D01*
X44942Y-49305D01*
X44961Y-49248D01*
X44999Y-49191D01*
X45056Y-49162D01*
X45095Y-49162D01*
X45152Y-49191D01*
X45171Y-49220D01*
G54D18*
X52359Y-51975D02*
X52359Y-51294D01*
X52522Y-51294D01*
X52562Y-51327D01*
X52583Y-51359D01*
X52603Y-51424D01*
X52603Y-51521D01*
X52583Y-51586D01*
X52562Y-51618D01*
X52522Y-51651D01*
X52359Y-51651D01*
X52746Y-51294D02*
X53011Y-51294D01*
X52868Y-51554D01*
X52929Y-51554D01*
X52970Y-51586D01*
X52990Y-51618D01*
X53011Y-51683D01*
X53011Y-51845D01*
X52990Y-51910D01*
X52970Y-51943D01*
X52929Y-51975D01*
X52807Y-51975D01*
X52766Y-51943D01*
X52746Y-51910D01*
G54D16*
X44199Y-50341D02*
X44161Y-50312D01*
X44104Y-50312D01*
X44046Y-50341D01*
X44008Y-50398D01*
X43989Y-50455D01*
X43970Y-50570D01*
X43970Y-50655D01*
X43989Y-50770D01*
X44008Y-50827D01*
X44046Y-50884D01*
X44104Y-50912D01*
X44142Y-50912D01*
X44199Y-50884D01*
X44218Y-50855D01*
X44218Y-50655D01*
X44142Y-50655D01*
X44389Y-50912D02*
X44389Y-50312D01*
X44618Y-50912D01*
X44618Y-50312D01*
X44808Y-50912D02*
X44808Y-50312D01*
X44904Y-50312D01*
X44961Y-50341D01*
X44999Y-50398D01*
X45018Y-50455D01*
X45037Y-50570D01*
X45037Y-50655D01*
X45018Y-50770D01*
X44999Y-50827D01*
X44961Y-50884D01*
X44904Y-50912D01*
X44808Y-50912D01*
G54D18*
X53484Y-48675D02*
X53484Y-47994D01*
X53647Y-47994D01*
X53687Y-48027D01*
X53708Y-48059D01*
X53728Y-48124D01*
X53728Y-48221D01*
X53708Y-48286D01*
X53687Y-48318D01*
X53647Y-48351D01*
X53484Y-48351D01*
X54095Y-48221D02*
X54095Y-48675D01*
X53993Y-47962D02*
X53891Y-48448D01*
X54156Y-48448D01*
G54D16*
X45428Y-52014D02*
X45485Y-52042D01*
X45580Y-52042D01*
X45619Y-52014D01*
X45638Y-51985D01*
X45657Y-51928D01*
X45657Y-51871D01*
X45638Y-51814D01*
X45619Y-51785D01*
X45580Y-51757D01*
X45504Y-51728D01*
X45466Y-51700D01*
X45447Y-51671D01*
X45428Y-51614D01*
X45428Y-51557D01*
X45447Y-51500D01*
X45466Y-51471D01*
X45504Y-51442D01*
X45600Y-51442D01*
X45657Y-51471D01*
X45828Y-51728D02*
X45961Y-51728D01*
X46019Y-52042D02*
X45828Y-52042D01*
X45828Y-51442D01*
X46019Y-51442D01*
X46190Y-52042D02*
X46190Y-51442D01*
X46419Y-52042D01*
X46419Y-51442D01*
X46590Y-52014D02*
X46647Y-52042D01*
X46742Y-52042D01*
X46780Y-52014D01*
X46800Y-51985D01*
X46819Y-51928D01*
X46819Y-51871D01*
X46800Y-51814D01*
X46780Y-51785D01*
X46742Y-51757D01*
X46666Y-51728D01*
X46628Y-51700D01*
X46609Y-51671D01*
X46590Y-51614D01*
X46590Y-51557D01*
X46609Y-51500D01*
X46628Y-51471D01*
X46666Y-51442D01*
X46761Y-51442D01*
X46819Y-51471D01*
X46895Y-52100D02*
X47200Y-52100D01*
X47276Y-51871D02*
X47466Y-51871D01*
X47238Y-52042D02*
X47371Y-51442D01*
X47504Y-52042D01*
X47638Y-52042D02*
X47638Y-51442D01*
X47866Y-52042D01*
X47866Y-51442D01*
X48038Y-51871D02*
X48228Y-51871D01*
X48000Y-52042D02*
X48133Y-51442D01*
X48266Y-52042D01*
X48590Y-52042D02*
X48400Y-52042D01*
X48400Y-51442D01*
X48800Y-51442D02*
X48876Y-51442D01*
X48914Y-51471D01*
X48952Y-51528D01*
X48971Y-51642D01*
X48971Y-51842D01*
X48952Y-51957D01*
X48914Y-52014D01*
X48876Y-52042D01*
X48800Y-52042D01*
X48761Y-52014D01*
X48723Y-51957D01*
X48704Y-51842D01*
X48704Y-51642D01*
X48723Y-51528D01*
X48761Y-51471D01*
X48800Y-51442D01*
X49352Y-51471D02*
X49314Y-51442D01*
X49257Y-51442D01*
X49200Y-51471D01*
X49161Y-51528D01*
X49142Y-51585D01*
X49123Y-51700D01*
X49123Y-51785D01*
X49142Y-51900D01*
X49161Y-51957D01*
X49200Y-52014D01*
X49257Y-52042D01*
X49295Y-52042D01*
X49352Y-52014D01*
X49371Y-51985D01*
X49371Y-51785D01*
X49295Y-51785D01*
G54D18*
X52644Y-40293D02*
X52644Y-39612D01*
X52807Y-39612D01*
X52847Y-39645D01*
X52868Y-39677D01*
X52888Y-39742D01*
X52888Y-39839D01*
X52868Y-39904D01*
X52847Y-39936D01*
X52807Y-39969D01*
X52644Y-39969D01*
X53031Y-39612D02*
X53316Y-39612D01*
X53133Y-40293D01*
G54D16*
X42282Y-40304D02*
X42282Y-39704D01*
X42435Y-39704D01*
X42473Y-39733D01*
X42492Y-39762D01*
X42511Y-39819D01*
X42511Y-39904D01*
X42492Y-39962D01*
X42473Y-39990D01*
X42435Y-40019D01*
X42282Y-40019D01*
X42759Y-39704D02*
X42835Y-39704D01*
X42873Y-39733D01*
X42911Y-39790D01*
X42930Y-39904D01*
X42930Y-40104D01*
X42911Y-40219D01*
X42873Y-40276D01*
X42835Y-40304D01*
X42759Y-40304D01*
X42721Y-40276D01*
X42682Y-40219D01*
X42663Y-40104D01*
X42663Y-39904D01*
X42682Y-39790D01*
X42721Y-39733D01*
X42759Y-39704D01*
X43330Y-40304D02*
X43197Y-40019D01*
X43102Y-40304D02*
X43102Y-39704D01*
X43254Y-39704D01*
X43292Y-39733D01*
X43311Y-39762D01*
X43330Y-39819D01*
X43330Y-39904D01*
X43311Y-39962D01*
X43292Y-39990D01*
X43254Y-40019D01*
X43102Y-40019D01*
X43444Y-39704D02*
X43673Y-39704D01*
X43559Y-40304D02*
X43559Y-39704D01*
X43711Y-40362D02*
X44016Y-40362D01*
X44244Y-39990D02*
X44302Y-40019D01*
X44321Y-40047D01*
X44340Y-40104D01*
X44340Y-40190D01*
X44321Y-40247D01*
X44302Y-40276D01*
X44263Y-40304D01*
X44111Y-40304D01*
X44111Y-39704D01*
X44244Y-39704D01*
X44282Y-39733D01*
X44302Y-39762D01*
X44321Y-39819D01*
X44321Y-39876D01*
X44302Y-39933D01*
X44282Y-39962D01*
X44244Y-39990D01*
X44111Y-39990D01*
G54D14*
X54472Y-52171D02*
X54210Y-52338D01*
X54472Y-52457D02*
X53922Y-52457D01*
X53922Y-52266D01*
X53948Y-52219D01*
X53975Y-52195D01*
X54027Y-52171D01*
X54105Y-52171D01*
X54158Y-52195D01*
X54184Y-52219D01*
X54210Y-52266D01*
X54210Y-52457D01*
X54472Y-51695D02*
X54472Y-51980D01*
X54472Y-51838D02*
X53922Y-51838D01*
X54001Y-51885D01*
X54053Y-51933D01*
X54079Y-51980D01*
X53922Y-51528D02*
X53922Y-51219D01*
X54132Y-51385D01*
X54132Y-51314D01*
X54158Y-51266D01*
X54184Y-51242D01*
X54236Y-51219D01*
X54367Y-51219D01*
X54420Y-51242D01*
X54446Y-51266D01*
X54472Y-51314D01*
X54472Y-51457D01*
X54446Y-51504D01*
X54420Y-51528D01*
X54472Y-50659D02*
X54472Y-50945D01*
X54472Y-50802D02*
X53922Y-50802D01*
X54001Y-50849D01*
X54053Y-50897D01*
X54079Y-50945D01*
X54472Y-50445D02*
X53922Y-50445D01*
X54263Y-50397D02*
X54472Y-50254D01*
X54105Y-50254D02*
X54315Y-50445D01*
X64408Y-38227D02*
X64241Y-37965D01*
X64122Y-38227D02*
X64122Y-37677D01*
X64313Y-37677D01*
X64360Y-37703D01*
X64384Y-37730D01*
X64408Y-37782D01*
X64408Y-37860D01*
X64384Y-37913D01*
X64360Y-37939D01*
X64313Y-37965D01*
X64122Y-37965D01*
X64884Y-38227D02*
X64599Y-38227D01*
X64741Y-38227D02*
X64741Y-37677D01*
X64694Y-37756D01*
X64646Y-37808D01*
X64599Y-37834D01*
X65313Y-37677D02*
X65218Y-37677D01*
X65170Y-37703D01*
X65146Y-37730D01*
X65099Y-37808D01*
X65075Y-37913D01*
X65075Y-38122D01*
X65099Y-38175D01*
X65122Y-38201D01*
X65170Y-38227D01*
X65265Y-38227D01*
X65313Y-38201D01*
X65337Y-38175D01*
X65360Y-38122D01*
X65360Y-37991D01*
X65337Y-37939D01*
X65313Y-37913D01*
X65265Y-37887D01*
X65170Y-37887D01*
X65122Y-37913D01*
X65099Y-37939D01*
X65075Y-37991D01*
X63245Y-38117D02*
X62959Y-38117D01*
X63102Y-38117D02*
X63102Y-37567D01*
X63055Y-37646D01*
X63007Y-37698D01*
X62959Y-37724D01*
X63459Y-38117D02*
X63459Y-37567D01*
X63507Y-37908D02*
X63650Y-38117D01*
X63650Y-37750D02*
X63459Y-37960D01*
X64848Y-36983D02*
X64681Y-36721D01*
X64562Y-36983D02*
X64562Y-36433D01*
X64753Y-36433D01*
X64800Y-36459D01*
X64824Y-36486D01*
X64848Y-36538D01*
X64848Y-36616D01*
X64824Y-36669D01*
X64800Y-36695D01*
X64753Y-36721D01*
X64562Y-36721D01*
X65324Y-36983D02*
X65039Y-36983D01*
X65181Y-36983D02*
X65181Y-36433D01*
X65134Y-36512D01*
X65086Y-36564D01*
X65039Y-36590D01*
X65777Y-36433D02*
X65539Y-36433D01*
X65515Y-36695D01*
X65539Y-36669D01*
X65586Y-36643D01*
X65705Y-36643D01*
X65753Y-36669D01*
X65777Y-36695D01*
X65800Y-36747D01*
X65800Y-36878D01*
X65777Y-36931D01*
X65753Y-36957D01*
X65705Y-36983D01*
X65586Y-36983D01*
X65539Y-36957D01*
X65515Y-36931D01*
X64790Y-36967D02*
X64504Y-36967D01*
X64647Y-36967D02*
X64647Y-36417D01*
X64600Y-36496D01*
X64552Y-36548D01*
X64504Y-36574D01*
X65004Y-36967D02*
X65004Y-36417D01*
X65052Y-36758D02*
X65195Y-36967D01*
X65195Y-36600D02*
X65004Y-36810D01*
X66938Y-48462D02*
X66771Y-48200D01*
X66652Y-48462D02*
X66652Y-47912D01*
X66843Y-47912D01*
X66890Y-47938D01*
X66914Y-47965D01*
X66938Y-48017D01*
X66938Y-48095D01*
X66914Y-48148D01*
X66890Y-48174D01*
X66843Y-48200D01*
X66652Y-48200D01*
X67414Y-48462D02*
X67129Y-48462D01*
X67271Y-48462D02*
X67271Y-47912D01*
X67224Y-47991D01*
X67176Y-48043D01*
X67129Y-48069D01*
X67843Y-48095D02*
X67843Y-48462D01*
X67724Y-47886D02*
X67605Y-48279D01*
X67914Y-48279D01*
X67200Y-48462D02*
X66914Y-48462D01*
X67057Y-48462D02*
X67057Y-47912D01*
X67010Y-47991D01*
X66962Y-48043D01*
X66914Y-48069D01*
X67414Y-48462D02*
X67414Y-47912D01*
X67462Y-48253D02*
X67605Y-48462D01*
X67605Y-48095D02*
X67414Y-48305D01*
X42556Y-48105D02*
X42294Y-48272D01*
X42556Y-48391D02*
X42006Y-48391D01*
X42006Y-48200D01*
X42032Y-48153D01*
X42059Y-48129D01*
X42111Y-48105D01*
X42189Y-48105D01*
X42242Y-48129D01*
X42268Y-48153D01*
X42294Y-48200D01*
X42294Y-48391D01*
X42556Y-47629D02*
X42556Y-47914D01*
X42556Y-47772D02*
X42006Y-47772D01*
X42085Y-47819D01*
X42137Y-47867D01*
X42163Y-47914D01*
X42059Y-47438D02*
X42032Y-47414D01*
X42006Y-47367D01*
X42006Y-47248D01*
X42032Y-47200D01*
X42059Y-47176D01*
X42111Y-47153D01*
X42163Y-47153D01*
X42242Y-47176D01*
X42556Y-47462D01*
X42556Y-47153D01*
X41305Y-47538D02*
X41672Y-47538D01*
X41096Y-47658D02*
X41489Y-47777D01*
X41489Y-47467D01*
X41122Y-47324D02*
X41122Y-46991D01*
X41672Y-47205D01*
X41122Y-46705D02*
X41122Y-46658D01*
X41148Y-46610D01*
X41175Y-46586D01*
X41227Y-46562D01*
X41332Y-46538D01*
X41463Y-46538D01*
X41567Y-46562D01*
X41620Y-46586D01*
X41646Y-46610D01*
X41672Y-46658D01*
X41672Y-46705D01*
X41646Y-46753D01*
X41620Y-46777D01*
X41567Y-46800D01*
X41463Y-46824D01*
X41332Y-46824D01*
X41227Y-46800D01*
X41175Y-46777D01*
X41148Y-46753D01*
X41122Y-46705D01*
X43972Y-29933D02*
X43710Y-30100D01*
X43972Y-30219D02*
X43422Y-30219D01*
X43422Y-30028D01*
X43448Y-29980D01*
X43475Y-29957D01*
X43527Y-29933D01*
X43605Y-29933D01*
X43658Y-29957D01*
X43684Y-29980D01*
X43710Y-30028D01*
X43710Y-30219D01*
X43972Y-29457D02*
X43972Y-29742D01*
X43972Y-29600D02*
X43422Y-29600D01*
X43501Y-29647D01*
X43553Y-29695D01*
X43579Y-29742D01*
X43605Y-30230D02*
X43972Y-30230D01*
X43396Y-30350D02*
X43789Y-30469D01*
X43789Y-30159D01*
X43422Y-30016D02*
X43422Y-29683D01*
X43972Y-29897D01*
X43422Y-29397D02*
X43422Y-29350D01*
X43448Y-29302D01*
X43475Y-29278D01*
X43527Y-29254D01*
X43632Y-29230D01*
X43763Y-29230D01*
X43867Y-29254D01*
X43920Y-29278D01*
X43946Y-29302D01*
X43972Y-29350D01*
X43972Y-29397D01*
X43946Y-29445D01*
X43920Y-29469D01*
X43867Y-29492D01*
X43763Y-29516D01*
X43632Y-29516D01*
X43527Y-29492D01*
X43475Y-29469D01*
X43448Y-29445D01*
X43422Y-29397D01*
X44972Y-29933D02*
X44710Y-30100D01*
X44972Y-30219D02*
X44422Y-30219D01*
X44422Y-30028D01*
X44448Y-29980D01*
X44475Y-29957D01*
X44527Y-29933D01*
X44605Y-29933D01*
X44658Y-29957D01*
X44684Y-29980D01*
X44710Y-30028D01*
X44710Y-30219D01*
X44475Y-29742D02*
X44448Y-29719D01*
X44422Y-29671D01*
X44422Y-29552D01*
X44448Y-29504D01*
X44475Y-29480D01*
X44527Y-29457D01*
X44579Y-29457D01*
X44658Y-29480D01*
X44972Y-29766D01*
X44972Y-29457D01*
X44605Y-30230D02*
X44972Y-30230D01*
X44396Y-30350D02*
X44789Y-30469D01*
X44789Y-30159D01*
X44422Y-30016D02*
X44422Y-29683D01*
X44972Y-29897D01*
X44422Y-29397D02*
X44422Y-29350D01*
X44448Y-29302D01*
X44475Y-29278D01*
X44527Y-29254D01*
X44632Y-29230D01*
X44763Y-29230D01*
X44867Y-29254D01*
X44920Y-29278D01*
X44946Y-29302D01*
X44972Y-29350D01*
X44972Y-29397D01*
X44946Y-29445D01*
X44920Y-29469D01*
X44867Y-29492D01*
X44763Y-29516D01*
X44632Y-29516D01*
X44527Y-29492D01*
X44475Y-29469D01*
X44448Y-29445D01*
X44422Y-29397D01*
X45972Y-28933D02*
X45710Y-29100D01*
X45972Y-29219D02*
X45422Y-29219D01*
X45422Y-29028D01*
X45448Y-28980D01*
X45475Y-28957D01*
X45527Y-28933D01*
X45605Y-28933D01*
X45658Y-28957D01*
X45684Y-28980D01*
X45710Y-29028D01*
X45710Y-29219D01*
X45422Y-28766D02*
X45422Y-28457D01*
X45632Y-28623D01*
X45632Y-28552D01*
X45658Y-28504D01*
X45684Y-28480D01*
X45736Y-28457D01*
X45867Y-28457D01*
X45920Y-28480D01*
X45946Y-28504D01*
X45972Y-28552D01*
X45972Y-28695D01*
X45946Y-28742D01*
X45920Y-28766D01*
X45605Y-29230D02*
X45972Y-29230D01*
X45396Y-29350D02*
X45789Y-29469D01*
X45789Y-29159D01*
X45422Y-29016D02*
X45422Y-28683D01*
X45972Y-28897D01*
X45422Y-28397D02*
X45422Y-28350D01*
X45448Y-28302D01*
X45475Y-28278D01*
X45527Y-28254D01*
X45632Y-28230D01*
X45763Y-28230D01*
X45867Y-28254D01*
X45920Y-28278D01*
X45946Y-28302D01*
X45972Y-28350D01*
X45972Y-28397D01*
X45946Y-28445D01*
X45920Y-28469D01*
X45867Y-28492D01*
X45763Y-28516D01*
X45632Y-28516D01*
X45527Y-28492D01*
X45475Y-28469D01*
X45448Y-28445D01*
X45422Y-28397D01*
X46972Y-28933D02*
X46710Y-29100D01*
X46972Y-29219D02*
X46422Y-29219D01*
X46422Y-29028D01*
X46448Y-28980D01*
X46475Y-28957D01*
X46527Y-28933D01*
X46605Y-28933D01*
X46658Y-28957D01*
X46684Y-28980D01*
X46710Y-29028D01*
X46710Y-29219D01*
X46605Y-28504D02*
X46972Y-28504D01*
X46396Y-28623D02*
X46789Y-28742D01*
X46789Y-28433D01*
X46605Y-29230D02*
X46972Y-29230D01*
X46396Y-29350D02*
X46789Y-29469D01*
X46789Y-29159D01*
X46422Y-29016D02*
X46422Y-28683D01*
X46972Y-28897D01*
X46422Y-28397D02*
X46422Y-28350D01*
X46448Y-28302D01*
X46475Y-28278D01*
X46527Y-28254D01*
X46632Y-28230D01*
X46763Y-28230D01*
X46867Y-28254D01*
X46920Y-28278D01*
X46946Y-28302D01*
X46972Y-28350D01*
X46972Y-28397D01*
X46946Y-28445D01*
X46920Y-28469D01*
X46867Y-28492D01*
X46763Y-28516D01*
X46632Y-28516D01*
X46527Y-28492D01*
X46475Y-28469D01*
X46448Y-28445D01*
X46422Y-28397D01*
X47972Y-28933D02*
X47710Y-29100D01*
X47972Y-29219D02*
X47422Y-29219D01*
X47422Y-29028D01*
X47448Y-28980D01*
X47475Y-28957D01*
X47527Y-28933D01*
X47605Y-28933D01*
X47658Y-28957D01*
X47684Y-28980D01*
X47710Y-29028D01*
X47710Y-29219D01*
X47422Y-28480D02*
X47422Y-28719D01*
X47684Y-28742D01*
X47658Y-28719D01*
X47632Y-28671D01*
X47632Y-28552D01*
X47658Y-28504D01*
X47684Y-28480D01*
X47736Y-28457D01*
X47867Y-28457D01*
X47920Y-28480D01*
X47946Y-28504D01*
X47972Y-28552D01*
X47972Y-28671D01*
X47946Y-28719D01*
X47920Y-28742D01*
X47972Y-28695D02*
X47710Y-28861D01*
X47972Y-28980D02*
X47422Y-28980D01*
X47422Y-28790D01*
X47448Y-28742D01*
X47475Y-28719D01*
X47527Y-28695D01*
X47605Y-28695D01*
X47658Y-28719D01*
X47684Y-28742D01*
X47710Y-28790D01*
X47710Y-28980D01*
X48972Y-28933D02*
X48710Y-29100D01*
X48972Y-29219D02*
X48422Y-29219D01*
X48422Y-29028D01*
X48448Y-28980D01*
X48475Y-28957D01*
X48527Y-28933D01*
X48605Y-28933D01*
X48658Y-28957D01*
X48684Y-28980D01*
X48710Y-29028D01*
X48710Y-29219D01*
X48422Y-28504D02*
X48422Y-28600D01*
X48448Y-28647D01*
X48475Y-28671D01*
X48553Y-28719D01*
X48658Y-28742D01*
X48867Y-28742D01*
X48920Y-28719D01*
X48946Y-28695D01*
X48972Y-28647D01*
X48972Y-28552D01*
X48946Y-28504D01*
X48920Y-28480D01*
X48867Y-28457D01*
X48736Y-28457D01*
X48684Y-28480D01*
X48658Y-28504D01*
X48632Y-28552D01*
X48632Y-28647D01*
X48658Y-28695D01*
X48684Y-28719D01*
X48736Y-28742D01*
X48605Y-29230D02*
X48972Y-29230D01*
X48396Y-29350D02*
X48789Y-29469D01*
X48789Y-29159D01*
X48422Y-29016D02*
X48422Y-28683D01*
X48972Y-28897D01*
X48422Y-28397D02*
X48422Y-28350D01*
X48448Y-28302D01*
X48475Y-28278D01*
X48527Y-28254D01*
X48632Y-28230D01*
X48763Y-28230D01*
X48867Y-28254D01*
X48920Y-28278D01*
X48946Y-28302D01*
X48972Y-28350D01*
X48972Y-28397D01*
X48946Y-28445D01*
X48920Y-28469D01*
X48867Y-28492D01*
X48763Y-28516D01*
X48632Y-28516D01*
X48527Y-28492D01*
X48475Y-28469D01*
X48448Y-28445D01*
X48422Y-28397D01*
X49972Y-28933D02*
X49710Y-29100D01*
X49972Y-29219D02*
X49422Y-29219D01*
X49422Y-29028D01*
X49448Y-28980D01*
X49475Y-28957D01*
X49527Y-28933D01*
X49605Y-28933D01*
X49658Y-28957D01*
X49684Y-28980D01*
X49710Y-29028D01*
X49710Y-29219D01*
X49422Y-28766D02*
X49422Y-28433D01*
X49972Y-28647D01*
X49605Y-29230D02*
X49972Y-29230D01*
X49396Y-29350D02*
X49789Y-29469D01*
X49789Y-29159D01*
X49422Y-29016D02*
X49422Y-28683D01*
X49972Y-28897D01*
X49422Y-28397D02*
X49422Y-28350D01*
X49448Y-28302D01*
X49475Y-28278D01*
X49527Y-28254D01*
X49632Y-28230D01*
X49763Y-28230D01*
X49867Y-28254D01*
X49920Y-28278D01*
X49946Y-28302D01*
X49972Y-28350D01*
X49972Y-28397D01*
X49946Y-28445D01*
X49920Y-28469D01*
X49867Y-28492D01*
X49763Y-28516D01*
X49632Y-28516D01*
X49527Y-28492D01*
X49475Y-28469D01*
X49448Y-28445D01*
X49422Y-28397D01*
X50972Y-28933D02*
X50710Y-29100D01*
X50972Y-29219D02*
X50422Y-29219D01*
X50422Y-29028D01*
X50448Y-28980D01*
X50475Y-28957D01*
X50527Y-28933D01*
X50605Y-28933D01*
X50658Y-28957D01*
X50684Y-28980D01*
X50710Y-29028D01*
X50710Y-29219D01*
X50658Y-28647D02*
X50632Y-28695D01*
X50605Y-28719D01*
X50553Y-28742D01*
X50527Y-28742D01*
X50475Y-28719D01*
X50448Y-28695D01*
X50422Y-28647D01*
X50422Y-28552D01*
X50448Y-28504D01*
X50475Y-28480D01*
X50527Y-28457D01*
X50553Y-28457D01*
X50605Y-28480D01*
X50632Y-28504D01*
X50658Y-28552D01*
X50658Y-28647D01*
X50684Y-28695D01*
X50710Y-28719D01*
X50763Y-28742D01*
X50867Y-28742D01*
X50920Y-28719D01*
X50946Y-28695D01*
X50972Y-28647D01*
X50972Y-28552D01*
X50946Y-28504D01*
X50920Y-28480D01*
X50867Y-28457D01*
X50763Y-28457D01*
X50710Y-28480D01*
X50684Y-28504D01*
X50658Y-28552D01*
X50605Y-29230D02*
X50972Y-29230D01*
X50396Y-29350D02*
X50789Y-29469D01*
X50789Y-29159D01*
X50422Y-29016D02*
X50422Y-28683D01*
X50972Y-28897D01*
X50422Y-28397D02*
X50422Y-28350D01*
X50448Y-28302D01*
X50475Y-28278D01*
X50527Y-28254D01*
X50632Y-28230D01*
X50763Y-28230D01*
X50867Y-28254D01*
X50920Y-28278D01*
X50946Y-28302D01*
X50972Y-28350D01*
X50972Y-28397D01*
X50946Y-28445D01*
X50920Y-28469D01*
X50867Y-28492D01*
X50763Y-28516D01*
X50632Y-28516D01*
X50527Y-28492D01*
X50475Y-28469D01*
X50448Y-28445D01*
X50422Y-28397D01*
X67396Y-34482D02*
X67230Y-34220D01*
X67110Y-34482D02*
X67110Y-33932D01*
X67301Y-33932D01*
X67349Y-33958D01*
X67372Y-33985D01*
X67396Y-34037D01*
X67396Y-34115D01*
X67372Y-34168D01*
X67349Y-34194D01*
X67301Y-34220D01*
X67110Y-34220D01*
X67634Y-34482D02*
X67730Y-34482D01*
X67777Y-34456D01*
X67801Y-34430D01*
X67849Y-34351D01*
X67872Y-34246D01*
X67872Y-34037D01*
X67849Y-33985D01*
X67825Y-33958D01*
X67777Y-33932D01*
X67682Y-33932D01*
X67634Y-33958D01*
X67610Y-33985D01*
X67587Y-34037D01*
X67587Y-34168D01*
X67610Y-34220D01*
X67634Y-34246D01*
X67682Y-34273D01*
X67777Y-34273D01*
X67825Y-34246D01*
X67849Y-34220D01*
X67872Y-34168D01*
X66599Y-34235D02*
X66599Y-34602D01*
X66480Y-34026D02*
X66360Y-34419D01*
X66670Y-34419D01*
X66813Y-34052D02*
X67146Y-34052D01*
X66932Y-34602D01*
X67432Y-34052D02*
X67480Y-34052D01*
X67527Y-34078D01*
X67551Y-34105D01*
X67575Y-34157D01*
X67599Y-34262D01*
X67599Y-34393D01*
X67575Y-34497D01*
X67551Y-34550D01*
X67527Y-34576D01*
X67480Y-34602D01*
X67432Y-34602D01*
X67384Y-34576D01*
X67360Y-34550D01*
X67337Y-34497D01*
X67313Y-34393D01*
X67313Y-34262D01*
X67337Y-34157D01*
X67360Y-34105D01*
X67384Y-34078D01*
X67432Y-34052D01*
X43656Y-48061D02*
X43394Y-48228D01*
X43656Y-48347D02*
X43106Y-48347D01*
X43106Y-48156D01*
X43132Y-48109D01*
X43159Y-48085D01*
X43211Y-48061D01*
X43289Y-48061D01*
X43342Y-48085D01*
X43368Y-48109D01*
X43394Y-48156D01*
X43394Y-48347D01*
X43656Y-47585D02*
X43656Y-47870D01*
X43656Y-47728D02*
X43106Y-47728D01*
X43185Y-47775D01*
X43237Y-47823D01*
X43263Y-47870D01*
X43656Y-47109D02*
X43656Y-47394D01*
X43656Y-47251D02*
X43106Y-47251D01*
X43185Y-47299D01*
X43237Y-47347D01*
X43263Y-47394D01*
X43546Y-47953D02*
X43546Y-48239D01*
X43546Y-48096D02*
X42996Y-48096D01*
X43075Y-48143D01*
X43127Y-48191D01*
X43153Y-48239D01*
X43546Y-47739D02*
X42996Y-47739D01*
X43337Y-47691D02*
X43546Y-47548D01*
X43179Y-47548D02*
X43389Y-47739D01*
G54D13*
X60797Y-38091D02*
X60397Y-38091D01*
X60797Y-37862D02*
X60569Y-38034D01*
X60397Y-37862D02*
X60626Y-38091D01*
X60397Y-37519D02*
X60397Y-37595D01*
X60416Y-37634D01*
X60436Y-37653D01*
X60493Y-37691D01*
X60569Y-37710D01*
X60721Y-37710D01*
X60759Y-37691D01*
X60778Y-37672D01*
X60797Y-37634D01*
X60797Y-37557D01*
X60778Y-37519D01*
X60759Y-37500D01*
X60721Y-37481D01*
X60626Y-37481D01*
X60588Y-37500D01*
X60569Y-37519D01*
X60550Y-37557D01*
X60550Y-37634D01*
X60569Y-37672D01*
X60588Y-37691D01*
X60626Y-37710D01*
X61648Y-36513D02*
X61667Y-36455D01*
X61667Y-36360D01*
X61648Y-36322D01*
X61629Y-36303D01*
X61591Y-36284D01*
X61553Y-36284D01*
X61515Y-36303D01*
X61496Y-36322D01*
X61477Y-36360D01*
X61458Y-36436D01*
X61439Y-36474D01*
X61420Y-36493D01*
X61382Y-36513D01*
X61344Y-36513D01*
X61306Y-36493D01*
X61286Y-36474D01*
X61267Y-36436D01*
X61267Y-36341D01*
X61286Y-36284D01*
X61458Y-36113D02*
X61458Y-35979D01*
X61667Y-35922D02*
X61667Y-36113D01*
X61267Y-36113D01*
X61267Y-35922D01*
X61667Y-35522D02*
X61477Y-35655D01*
X61667Y-35751D02*
X61267Y-35751D01*
X61267Y-35598D01*
X61286Y-35560D01*
X61306Y-35541D01*
X61344Y-35522D01*
X61401Y-35522D01*
X61439Y-35541D01*
X61458Y-35560D01*
X61477Y-35598D01*
X61477Y-35751D01*
X61267Y-35408D02*
X61667Y-35274D01*
X61267Y-35141D01*
X61267Y-34932D02*
X61267Y-34855D01*
X61286Y-34817D01*
X61325Y-34779D01*
X61401Y-34760D01*
X61534Y-34760D01*
X61610Y-34779D01*
X61648Y-34817D01*
X61667Y-34855D01*
X61667Y-34932D01*
X61648Y-34970D01*
X61610Y-35008D01*
X61534Y-35027D01*
X61401Y-35027D01*
X61325Y-35008D01*
X61286Y-34970D01*
X61267Y-34932D01*
X61706Y-34684D02*
X61706Y-34379D01*
X61267Y-34094D02*
X61267Y-34284D01*
X61458Y-34303D01*
X61439Y-34284D01*
X61420Y-34246D01*
X61420Y-34151D01*
X61439Y-34113D01*
X61458Y-34094D01*
X61496Y-34074D01*
X61591Y-34074D01*
X61629Y-34094D01*
X61648Y-34113D01*
X61667Y-34151D01*
X61667Y-34246D01*
X61648Y-34284D01*
X61629Y-34303D01*
X59791Y-38075D02*
X59391Y-38075D01*
X59791Y-37846D02*
X59563Y-38018D01*
X59391Y-37846D02*
X59620Y-38075D01*
X59391Y-37484D02*
X59391Y-37675D01*
X59582Y-37694D01*
X59563Y-37675D01*
X59544Y-37637D01*
X59544Y-37541D01*
X59563Y-37503D01*
X59582Y-37484D01*
X59620Y-37465D01*
X59715Y-37465D01*
X59753Y-37484D01*
X59772Y-37503D01*
X59791Y-37541D01*
X59791Y-37637D01*
X59772Y-37675D01*
X59753Y-37694D01*
X58912Y-36953D02*
X58931Y-36895D01*
X58931Y-36800D01*
X58912Y-36762D01*
X58893Y-36743D01*
X58855Y-36724D01*
X58817Y-36724D01*
X58779Y-36743D01*
X58760Y-36762D01*
X58741Y-36800D01*
X58722Y-36876D01*
X58703Y-36914D01*
X58684Y-36933D01*
X58646Y-36953D01*
X58608Y-36953D01*
X58570Y-36933D01*
X58550Y-36914D01*
X58531Y-36876D01*
X58531Y-36781D01*
X58550Y-36724D01*
X58722Y-36553D02*
X58722Y-36419D01*
X58931Y-36362D02*
X58931Y-36553D01*
X58531Y-36553D01*
X58531Y-36362D01*
X58931Y-35962D02*
X58741Y-36095D01*
X58931Y-36191D02*
X58531Y-36191D01*
X58531Y-36038D01*
X58550Y-36000D01*
X58570Y-35981D01*
X58608Y-35962D01*
X58665Y-35962D01*
X58703Y-35981D01*
X58722Y-36000D01*
X58741Y-36038D01*
X58741Y-36191D01*
X58531Y-35848D02*
X58931Y-35714D01*
X58531Y-35581D01*
X58531Y-35372D02*
X58531Y-35295D01*
X58550Y-35257D01*
X58589Y-35219D01*
X58665Y-35200D01*
X58798Y-35200D01*
X58874Y-35219D01*
X58912Y-35257D01*
X58931Y-35295D01*
X58931Y-35372D01*
X58912Y-35410D01*
X58874Y-35448D01*
X58798Y-35467D01*
X58665Y-35467D01*
X58589Y-35448D01*
X58550Y-35410D01*
X58531Y-35372D01*
X58970Y-35124D02*
X58970Y-34819D01*
X58665Y-34553D02*
X58931Y-34553D01*
X58512Y-34648D02*
X58798Y-34743D01*
X58798Y-34495D01*
X62561Y-54295D02*
X62161Y-54295D01*
X62561Y-54066D02*
X62333Y-54238D01*
X62161Y-54066D02*
X62390Y-54295D01*
X62295Y-53723D02*
X62561Y-53723D01*
X62142Y-53819D02*
X62428Y-53914D01*
X62428Y-53666D01*
X62492Y-56369D02*
X62511Y-56311D01*
X62511Y-56216D01*
X62492Y-56178D01*
X62473Y-56159D01*
X62435Y-56140D01*
X62397Y-56140D01*
X62359Y-56159D01*
X62340Y-56178D01*
X62321Y-56216D01*
X62302Y-56292D01*
X62283Y-56330D01*
X62264Y-56349D01*
X62226Y-56369D01*
X62188Y-56369D01*
X62150Y-56349D01*
X62130Y-56330D01*
X62111Y-56292D01*
X62111Y-56197D01*
X62130Y-56140D01*
X62302Y-55969D02*
X62302Y-55835D01*
X62511Y-55778D02*
X62511Y-55969D01*
X62111Y-55969D01*
X62111Y-55778D01*
X62511Y-55378D02*
X62321Y-55511D01*
X62511Y-55607D02*
X62111Y-55607D01*
X62111Y-55454D01*
X62130Y-55416D01*
X62150Y-55397D01*
X62188Y-55378D01*
X62245Y-55378D01*
X62283Y-55397D01*
X62302Y-55416D01*
X62321Y-55454D01*
X62321Y-55607D01*
X62111Y-55264D02*
X62511Y-55130D01*
X62111Y-54997D01*
X62111Y-54788D02*
X62111Y-54711D01*
X62130Y-54673D01*
X62169Y-54635D01*
X62245Y-54616D01*
X62378Y-54616D01*
X62454Y-54635D01*
X62492Y-54673D01*
X62511Y-54711D01*
X62511Y-54788D01*
X62492Y-54826D01*
X62454Y-54864D01*
X62378Y-54883D01*
X62245Y-54883D01*
X62169Y-54864D01*
X62130Y-54826D01*
X62111Y-54788D01*
X62550Y-54540D02*
X62550Y-54235D01*
X62111Y-54178D02*
X62111Y-53930D01*
X62264Y-54064D01*
X62264Y-54007D01*
X62283Y-53969D01*
X62302Y-53950D01*
X62340Y-53930D01*
X62435Y-53930D01*
X62473Y-53950D01*
X62492Y-53969D01*
X62511Y-54007D01*
X62511Y-54121D01*
X62492Y-54159D01*
X62473Y-54178D01*
X61561Y-54295D02*
X61161Y-54295D01*
X61561Y-54066D02*
X61333Y-54238D01*
X61161Y-54066D02*
X61390Y-54295D01*
X61161Y-53933D02*
X61161Y-53685D01*
X61314Y-53819D01*
X61314Y-53761D01*
X61333Y-53723D01*
X61352Y-53704D01*
X61390Y-53685D01*
X61485Y-53685D01*
X61523Y-53704D01*
X61542Y-53723D01*
X61561Y-53761D01*
X61561Y-53876D01*
X61542Y-53914D01*
X61523Y-53933D01*
X61492Y-56369D02*
X61511Y-56311D01*
X61511Y-56216D01*
X61492Y-56178D01*
X61473Y-56159D01*
X61435Y-56140D01*
X61397Y-56140D01*
X61359Y-56159D01*
X61340Y-56178D01*
X61321Y-56216D01*
X61302Y-56292D01*
X61283Y-56330D01*
X61264Y-56349D01*
X61226Y-56369D01*
X61188Y-56369D01*
X61150Y-56349D01*
X61130Y-56330D01*
X61111Y-56292D01*
X61111Y-56197D01*
X61130Y-56140D01*
X61302Y-55969D02*
X61302Y-55835D01*
X61511Y-55778D02*
X61511Y-55969D01*
X61111Y-55969D01*
X61111Y-55778D01*
X61511Y-55378D02*
X61321Y-55511D01*
X61511Y-55607D02*
X61111Y-55607D01*
X61111Y-55454D01*
X61130Y-55416D01*
X61150Y-55397D01*
X61188Y-55378D01*
X61245Y-55378D01*
X61283Y-55397D01*
X61302Y-55416D01*
X61321Y-55454D01*
X61321Y-55607D01*
X61111Y-55264D02*
X61511Y-55130D01*
X61111Y-54997D01*
X61111Y-54788D02*
X61111Y-54711D01*
X61130Y-54673D01*
X61169Y-54635D01*
X61245Y-54616D01*
X61378Y-54616D01*
X61454Y-54635D01*
X61492Y-54673D01*
X61511Y-54711D01*
X61511Y-54788D01*
X61492Y-54826D01*
X61454Y-54864D01*
X61378Y-54883D01*
X61245Y-54883D01*
X61169Y-54864D01*
X61130Y-54826D01*
X61111Y-54788D01*
X61550Y-54540D02*
X61550Y-54235D01*
X61150Y-54159D02*
X61130Y-54140D01*
X61111Y-54102D01*
X61111Y-54007D01*
X61130Y-53969D01*
X61150Y-53950D01*
X61188Y-53930D01*
X61226Y-53930D01*
X61283Y-53950D01*
X61511Y-54178D01*
X61511Y-53930D01*
X60561Y-54295D02*
X60161Y-54295D01*
X60561Y-54066D02*
X60333Y-54238D01*
X60161Y-54066D02*
X60390Y-54295D01*
X60200Y-53914D02*
X60180Y-53895D01*
X60161Y-53857D01*
X60161Y-53761D01*
X60180Y-53723D01*
X60200Y-53704D01*
X60238Y-53685D01*
X60276Y-53685D01*
X60333Y-53704D01*
X60561Y-53933D01*
X60561Y-53685D01*
X60492Y-56369D02*
X60511Y-56311D01*
X60511Y-56216D01*
X60492Y-56178D01*
X60473Y-56159D01*
X60435Y-56140D01*
X60397Y-56140D01*
X60359Y-56159D01*
X60340Y-56178D01*
X60321Y-56216D01*
X60302Y-56292D01*
X60283Y-56330D01*
X60264Y-56349D01*
X60226Y-56369D01*
X60188Y-56369D01*
X60150Y-56349D01*
X60130Y-56330D01*
X60111Y-56292D01*
X60111Y-56197D01*
X60130Y-56140D01*
X60302Y-55969D02*
X60302Y-55835D01*
X60511Y-55778D02*
X60511Y-55969D01*
X60111Y-55969D01*
X60111Y-55778D01*
X60511Y-55378D02*
X60321Y-55511D01*
X60511Y-55607D02*
X60111Y-55607D01*
X60111Y-55454D01*
X60130Y-55416D01*
X60150Y-55397D01*
X60188Y-55378D01*
X60245Y-55378D01*
X60283Y-55397D01*
X60302Y-55416D01*
X60321Y-55454D01*
X60321Y-55607D01*
X60111Y-55264D02*
X60511Y-55130D01*
X60111Y-54997D01*
X60111Y-54788D02*
X60111Y-54711D01*
X60130Y-54673D01*
X60169Y-54635D01*
X60245Y-54616D01*
X60378Y-54616D01*
X60454Y-54635D01*
X60492Y-54673D01*
X60511Y-54711D01*
X60511Y-54788D01*
X60492Y-54826D01*
X60454Y-54864D01*
X60378Y-54883D01*
X60245Y-54883D01*
X60169Y-54864D01*
X60130Y-54826D01*
X60111Y-54788D01*
X60550Y-54540D02*
X60550Y-54235D01*
X60511Y-53930D02*
X60511Y-54159D01*
X60511Y-54045D02*
X60111Y-54045D01*
X60169Y-54083D01*
X60207Y-54121D01*
X60226Y-54159D01*
X65941Y-40415D02*
X65541Y-40415D01*
X65941Y-40186D02*
X65713Y-40358D01*
X65541Y-40186D02*
X65770Y-40415D01*
X65941Y-39805D02*
X65941Y-40034D01*
X65941Y-39919D02*
X65541Y-39919D01*
X65599Y-39958D01*
X65637Y-39996D01*
X65656Y-40034D01*
X67752Y-41213D02*
X67771Y-41156D01*
X67771Y-41061D01*
X67752Y-41023D01*
X67733Y-41004D01*
X67695Y-40985D01*
X67657Y-40985D01*
X67619Y-41004D01*
X67600Y-41023D01*
X67581Y-41061D01*
X67562Y-41137D01*
X67543Y-41175D01*
X67524Y-41194D01*
X67486Y-41213D01*
X67448Y-41213D01*
X67410Y-41194D01*
X67390Y-41175D01*
X67371Y-41137D01*
X67371Y-41042D01*
X67390Y-40985D01*
X67562Y-40813D02*
X67562Y-40680D01*
X67771Y-40623D02*
X67771Y-40813D01*
X67371Y-40813D01*
X67371Y-40623D01*
X67771Y-40261D02*
X67771Y-40451D01*
X67371Y-40451D01*
X67562Y-40128D02*
X67562Y-39994D01*
X67771Y-39937D02*
X67771Y-40128D01*
X67371Y-40128D01*
X67371Y-39937D01*
X67733Y-39537D02*
X67752Y-39556D01*
X67771Y-39613D01*
X67771Y-39651D01*
X67752Y-39709D01*
X67714Y-39747D01*
X67676Y-39766D01*
X67600Y-39785D01*
X67543Y-39785D01*
X67467Y-39766D01*
X67429Y-39747D01*
X67390Y-39709D01*
X67371Y-39651D01*
X67371Y-39613D01*
X67390Y-39556D01*
X67410Y-39537D01*
X67371Y-39423D02*
X67371Y-39194D01*
X67771Y-39309D02*
X67371Y-39309D01*
X67371Y-38985D02*
X67371Y-38909D01*
X67390Y-38870D01*
X67429Y-38832D01*
X67505Y-38813D01*
X67638Y-38813D01*
X67714Y-38832D01*
X67752Y-38870D01*
X67771Y-38909D01*
X67771Y-38985D01*
X67752Y-39023D01*
X67714Y-39061D01*
X67638Y-39080D01*
X67505Y-39080D01*
X67429Y-39061D01*
X67390Y-39023D01*
X67371Y-38985D01*
X67771Y-38413D02*
X67581Y-38547D01*
X67771Y-38642D02*
X67371Y-38642D01*
X67371Y-38490D01*
X67390Y-38451D01*
X67410Y-38432D01*
X67448Y-38413D01*
X67505Y-38413D01*
X67543Y-38432D01*
X67562Y-38451D01*
X67581Y-38490D01*
X67581Y-38642D01*
X67810Y-38337D02*
X67810Y-38032D01*
X67371Y-37994D02*
X67771Y-37861D01*
X67371Y-37728D01*
G54D14*
X64337Y-29764D02*
X64823Y-29764D01*
X64880Y-29745D01*
X64909Y-29726D01*
X64937Y-29688D01*
X64937Y-29612D01*
X64909Y-29574D01*
X64880Y-29555D01*
X64823Y-29536D01*
X64337Y-29536D01*
X64537Y-29174D02*
X64937Y-29174D01*
X64309Y-29269D02*
X64737Y-29364D01*
X64737Y-29117D01*
X66137Y-30376D02*
X66137Y-30567D01*
X65537Y-30567D01*
X66137Y-30243D02*
X65537Y-30243D01*
X65966Y-30110D01*
X65537Y-29976D01*
X66137Y-29976D01*
X65537Y-29824D02*
X65537Y-29557D01*
X66137Y-29729D01*
X65795Y-29348D02*
X65766Y-29386D01*
X65737Y-29405D01*
X65680Y-29424D01*
X65652Y-29424D01*
X65595Y-29405D01*
X65566Y-29386D01*
X65537Y-29348D01*
X65537Y-29271D01*
X65566Y-29233D01*
X65595Y-29214D01*
X65652Y-29195D01*
X65680Y-29195D01*
X65737Y-29214D01*
X65766Y-29233D01*
X65795Y-29271D01*
X65795Y-29348D01*
X65823Y-29386D01*
X65852Y-29405D01*
X65909Y-29424D01*
X66023Y-29424D01*
X66080Y-29405D01*
X66109Y-29386D01*
X66137Y-29348D01*
X66137Y-29271D01*
X66109Y-29233D01*
X66080Y-29214D01*
X66023Y-29195D01*
X65909Y-29195D01*
X65852Y-29214D01*
X65823Y-29233D01*
X65795Y-29271D01*
X65537Y-28948D02*
X65537Y-28910D01*
X65566Y-28871D01*
X65595Y-28852D01*
X65652Y-28833D01*
X65766Y-28814D01*
X65909Y-28814D01*
X66023Y-28833D01*
X66080Y-28852D01*
X66109Y-28871D01*
X66137Y-28910D01*
X66137Y-28948D01*
X66109Y-28986D01*
X66080Y-29005D01*
X66023Y-29024D01*
X65909Y-29043D01*
X65766Y-29043D01*
X65652Y-29024D01*
X65595Y-29005D01*
X65566Y-28986D01*
X65537Y-28948D01*
X65537Y-28452D02*
X65537Y-28643D01*
X65823Y-28662D01*
X65795Y-28643D01*
X65766Y-28605D01*
X65766Y-28510D01*
X65795Y-28471D01*
X65823Y-28452D01*
X65880Y-28433D01*
X66023Y-28433D01*
X66080Y-28452D01*
X66109Y-28471D01*
X66137Y-28510D01*
X66137Y-28605D01*
X66109Y-28643D01*
X66080Y-28662D01*
G54D19*
X42235Y-42891D02*
X42235Y-42591D01*
X42307Y-42591D01*
X42350Y-42605D01*
X42378Y-42634D01*
X42392Y-42662D01*
X42407Y-42720D01*
X42407Y-42762D01*
X42392Y-42820D01*
X42378Y-42848D01*
X42350Y-42877D01*
X42307Y-42891D01*
X42235Y-42891D01*
X42692Y-42891D02*
X42521Y-42891D01*
X42607Y-42891D02*
X42607Y-42591D01*
X42578Y-42634D01*
X42550Y-42662D01*
X42521Y-42677D01*
X42978Y-42891D02*
X42807Y-42891D01*
X42892Y-42891D02*
X42892Y-42591D01*
X42864Y-42634D01*
X42835Y-42662D01*
X42807Y-42677D01*
X42407Y-45891D02*
X42264Y-45891D01*
X42264Y-45591D01*
X42507Y-45734D02*
X42607Y-45734D01*
X42650Y-45891D02*
X42507Y-45891D01*
X42507Y-45591D01*
X42650Y-45591D01*
X42778Y-45891D02*
X42778Y-45591D01*
X42850Y-45591D01*
X42892Y-45605D01*
X42921Y-45634D01*
X42935Y-45662D01*
X42950Y-45720D01*
X42950Y-45762D01*
X42935Y-45820D01*
X42921Y-45848D01*
X42892Y-45877D01*
X42850Y-45891D01*
X42778Y-45891D01*
X39778Y-44721D02*
X39778Y-44421D01*
X39850Y-44421D01*
X39892Y-44435D01*
X39921Y-44464D01*
X39935Y-44492D01*
X39950Y-44550D01*
X39950Y-44592D01*
X39935Y-44650D01*
X39921Y-44678D01*
X39892Y-44707D01*
X39850Y-44721D01*
X39778Y-44721D01*
X40064Y-44450D02*
X40078Y-44435D01*
X40107Y-44421D01*
X40178Y-44421D01*
X40207Y-44435D01*
X40221Y-44450D01*
X40235Y-44478D01*
X40235Y-44507D01*
X40221Y-44550D01*
X40050Y-44721D01*
X40235Y-44721D01*
X39807Y-47721D02*
X39664Y-47721D01*
X39664Y-47421D01*
X39907Y-47564D02*
X40007Y-47564D01*
X40050Y-47721D02*
X39907Y-47721D01*
X39907Y-47421D01*
X40050Y-47421D01*
X40178Y-47721D02*
X40178Y-47421D01*
X40250Y-47421D01*
X40292Y-47435D01*
X40321Y-47464D01*
X40335Y-47492D01*
X40350Y-47550D01*
X40350Y-47592D01*
X40335Y-47650D01*
X40321Y-47678D01*
X40292Y-47707D01*
X40250Y-47721D01*
X40178Y-47721D01*
X39778Y-41221D02*
X39778Y-40921D01*
X39850Y-40921D01*
X39892Y-40935D01*
X39921Y-40964D01*
X39935Y-40992D01*
X39950Y-41050D01*
X39950Y-41092D01*
X39935Y-41150D01*
X39921Y-41178D01*
X39892Y-41207D01*
X39850Y-41221D01*
X39778Y-41221D01*
X40050Y-40921D02*
X40235Y-40921D01*
X40135Y-41035D01*
X40178Y-41035D01*
X40207Y-41050D01*
X40221Y-41064D01*
X40235Y-41092D01*
X40235Y-41164D01*
X40221Y-41192D01*
X40207Y-41207D01*
X40178Y-41221D01*
X40092Y-41221D01*
X40064Y-41207D01*
X40050Y-41192D01*
X39807Y-44221D02*
X39664Y-44221D01*
X39664Y-43921D01*
X39907Y-44064D02*
X40007Y-44064D01*
X40050Y-44221D02*
X39907Y-44221D01*
X39907Y-43921D01*
X40050Y-43921D01*
X40178Y-44221D02*
X40178Y-43921D01*
X40250Y-43921D01*
X40292Y-43935D01*
X40321Y-43964D01*
X40335Y-43992D01*
X40350Y-44050D01*
X40350Y-44092D01*
X40335Y-44150D01*
X40321Y-44178D01*
X40292Y-44207D01*
X40250Y-44221D01*
X40178Y-44221D01*
X39778Y-37721D02*
X39778Y-37421D01*
X39850Y-37421D01*
X39892Y-37435D01*
X39921Y-37464D01*
X39935Y-37492D01*
X39950Y-37550D01*
X39950Y-37592D01*
X39935Y-37650D01*
X39921Y-37678D01*
X39892Y-37707D01*
X39850Y-37721D01*
X39778Y-37721D01*
X40207Y-37521D02*
X40207Y-37721D01*
X40135Y-37407D02*
X40064Y-37621D01*
X40250Y-37621D01*
X39807Y-40721D02*
X39664Y-40721D01*
X39664Y-40421D01*
X39907Y-40564D02*
X40007Y-40564D01*
X40050Y-40721D02*
X39907Y-40721D01*
X39907Y-40421D01*
X40050Y-40421D01*
X40178Y-40721D02*
X40178Y-40421D01*
X40250Y-40421D01*
X40292Y-40435D01*
X40321Y-40464D01*
X40335Y-40492D01*
X40350Y-40550D01*
X40350Y-40592D01*
X40335Y-40650D01*
X40321Y-40678D01*
X40292Y-40707D01*
X40250Y-40721D01*
X40178Y-40721D01*
X39778Y-34221D02*
X39778Y-33921D01*
X39850Y-33921D01*
X39892Y-33935D01*
X39921Y-33964D01*
X39935Y-33992D01*
X39950Y-34050D01*
X39950Y-34092D01*
X39935Y-34150D01*
X39921Y-34178D01*
X39892Y-34207D01*
X39850Y-34221D01*
X39778Y-34221D01*
X40221Y-33921D02*
X40078Y-33921D01*
X40064Y-34064D01*
X40078Y-34050D01*
X40107Y-34035D01*
X40178Y-34035D01*
X40207Y-34050D01*
X40221Y-34064D01*
X40235Y-34092D01*
X40235Y-34164D01*
X40221Y-34192D01*
X40207Y-34207D01*
X40178Y-34221D01*
X40107Y-34221D01*
X40078Y-34207D01*
X40064Y-34192D01*
X39807Y-37221D02*
X39664Y-37221D01*
X39664Y-36921D01*
X39907Y-37064D02*
X40007Y-37064D01*
X40050Y-37221D02*
X39907Y-37221D01*
X39907Y-36921D01*
X40050Y-36921D01*
X40178Y-37221D02*
X40178Y-36921D01*
X40250Y-36921D01*
X40292Y-36935D01*
X40321Y-36964D01*
X40335Y-36992D01*
X40350Y-37050D01*
X40350Y-37092D01*
X40335Y-37150D01*
X40321Y-37178D01*
X40292Y-37207D01*
X40250Y-37221D01*
X40178Y-37221D01*
X39778Y-30721D02*
X39778Y-30421D01*
X39850Y-30421D01*
X39892Y-30435D01*
X39921Y-30464D01*
X39935Y-30492D01*
X39950Y-30550D01*
X39950Y-30592D01*
X39935Y-30650D01*
X39921Y-30678D01*
X39892Y-30707D01*
X39850Y-30721D01*
X39778Y-30721D01*
X40207Y-30421D02*
X40150Y-30421D01*
X40121Y-30435D01*
X40107Y-30450D01*
X40078Y-30492D01*
X40064Y-30550D01*
X40064Y-30664D01*
X40078Y-30692D01*
X40092Y-30707D01*
X40121Y-30721D01*
X40178Y-30721D01*
X40207Y-30707D01*
X40221Y-30692D01*
X40235Y-30664D01*
X40235Y-30592D01*
X40221Y-30564D01*
X40207Y-30550D01*
X40178Y-30535D01*
X40121Y-30535D01*
X40092Y-30550D01*
X40078Y-30564D01*
X40064Y-30592D01*
X39807Y-33721D02*
X39664Y-33721D01*
X39664Y-33421D01*
X39907Y-33564D02*
X40007Y-33564D01*
X40050Y-33721D02*
X39907Y-33721D01*
X39907Y-33421D01*
X40050Y-33421D01*
X40178Y-33721D02*
X40178Y-33421D01*
X40250Y-33421D01*
X40292Y-33435D01*
X40321Y-33464D01*
X40335Y-33492D01*
X40350Y-33550D01*
X40350Y-33592D01*
X40335Y-33650D01*
X40321Y-33678D01*
X40292Y-33707D01*
X40250Y-33721D01*
X40178Y-33721D01*
X39778Y-27221D02*
X39778Y-26921D01*
X39850Y-26921D01*
X39892Y-26935D01*
X39921Y-26964D01*
X39935Y-26992D01*
X39950Y-27050D01*
X39950Y-27092D01*
X39935Y-27150D01*
X39921Y-27178D01*
X39892Y-27207D01*
X39850Y-27221D01*
X39778Y-27221D01*
X40050Y-26921D02*
X40250Y-26921D01*
X40121Y-27221D01*
X39807Y-30221D02*
X39664Y-30221D01*
X39664Y-29921D01*
X39907Y-30064D02*
X40007Y-30064D01*
X40050Y-30221D02*
X39907Y-30221D01*
X39907Y-29921D01*
X40050Y-29921D01*
X40178Y-30221D02*
X40178Y-29921D01*
X40250Y-29921D01*
X40292Y-29935D01*
X40321Y-29964D01*
X40335Y-29992D01*
X40350Y-30050D01*
X40350Y-30092D01*
X40335Y-30150D01*
X40321Y-30178D01*
X40292Y-30207D01*
X40250Y-30221D01*
X40178Y-30221D01*
X39778Y-23721D02*
X39778Y-23421D01*
X39850Y-23421D01*
X39892Y-23435D01*
X39921Y-23464D01*
X39935Y-23492D01*
X39950Y-23550D01*
X39950Y-23592D01*
X39935Y-23650D01*
X39921Y-23678D01*
X39892Y-23707D01*
X39850Y-23721D01*
X39778Y-23721D01*
X40121Y-23550D02*
X40092Y-23535D01*
X40078Y-23521D01*
X40064Y-23492D01*
X40064Y-23478D01*
X40078Y-23450D01*
X40092Y-23435D01*
X40121Y-23421D01*
X40178Y-23421D01*
X40207Y-23435D01*
X40221Y-23450D01*
X40235Y-23478D01*
X40235Y-23492D01*
X40221Y-23521D01*
X40207Y-23535D01*
X40178Y-23550D01*
X40121Y-23550D01*
X40092Y-23564D01*
X40078Y-23578D01*
X40064Y-23607D01*
X40064Y-23664D01*
X40078Y-23692D01*
X40092Y-23707D01*
X40121Y-23721D01*
X40178Y-23721D01*
X40207Y-23707D01*
X40221Y-23692D01*
X40235Y-23664D01*
X40235Y-23607D01*
X40221Y-23578D01*
X40207Y-23564D01*
X40178Y-23550D01*
X39807Y-26721D02*
X39664Y-26721D01*
X39664Y-26421D01*
X39907Y-26564D02*
X40007Y-26564D01*
X40050Y-26721D02*
X39907Y-26721D01*
X39907Y-26421D01*
X40050Y-26421D01*
X40178Y-26721D02*
X40178Y-26421D01*
X40250Y-26421D01*
X40292Y-26435D01*
X40321Y-26464D01*
X40335Y-26492D01*
X40350Y-26550D01*
X40350Y-26592D01*
X40335Y-26650D01*
X40321Y-26678D01*
X40292Y-26707D01*
X40250Y-26721D01*
X40178Y-26721D01*
X66635Y-31921D02*
X66635Y-31621D01*
X66707Y-31621D01*
X66750Y-31635D01*
X66778Y-31664D01*
X66792Y-31692D01*
X66807Y-31750D01*
X66807Y-31792D01*
X66792Y-31850D01*
X66778Y-31878D01*
X66750Y-31907D01*
X66707Y-31921D01*
X66635Y-31921D01*
X67092Y-31921D02*
X66921Y-31921D01*
X67007Y-31921D02*
X67007Y-31621D01*
X66978Y-31664D01*
X66950Y-31692D01*
X66921Y-31707D01*
X67278Y-31621D02*
X67307Y-31621D01*
X67335Y-31635D01*
X67350Y-31650D01*
X67364Y-31678D01*
X67378Y-31735D01*
X67378Y-31807D01*
X67364Y-31864D01*
X67350Y-31892D01*
X67335Y-31907D01*
X67307Y-31921D01*
X67278Y-31921D01*
X67250Y-31907D01*
X67235Y-31892D01*
X67221Y-31864D01*
X67207Y-31807D01*
X67207Y-31735D01*
X67221Y-31678D01*
X67235Y-31650D01*
X67250Y-31635D01*
X67278Y-31621D01*
X64251Y-32902D02*
X64251Y-33045D01*
X63951Y-33045D01*
X64094Y-32802D02*
X64094Y-32702D01*
X64251Y-32660D02*
X64251Y-32802D01*
X63951Y-32802D01*
X63951Y-32660D01*
X64251Y-32531D02*
X63951Y-32531D01*
X63951Y-32460D01*
X63965Y-32417D01*
X63994Y-32388D01*
X64022Y-32374D01*
X64080Y-32360D01*
X64122Y-32360D01*
X64180Y-32374D01*
X64208Y-32388D01*
X64237Y-32417D01*
X64251Y-32460D01*
X64251Y-32531D01*
X39778Y-48221D02*
X39778Y-47921D01*
X39850Y-47921D01*
X39892Y-47935D01*
X39921Y-47964D01*
X39935Y-47992D01*
X39950Y-48050D01*
X39950Y-48092D01*
X39935Y-48150D01*
X39921Y-48178D01*
X39892Y-48207D01*
X39850Y-48221D01*
X39778Y-48221D01*
X40235Y-48221D02*
X40064Y-48221D01*
X40150Y-48221D02*
X40150Y-47921D01*
X40121Y-47964D01*
X40092Y-47992D01*
X40064Y-48007D01*
X39807Y-51221D02*
X39664Y-51221D01*
X39664Y-50921D01*
X39907Y-51064D02*
X40007Y-51064D01*
X40050Y-51221D02*
X39907Y-51221D01*
X39907Y-50921D01*
X40050Y-50921D01*
X40178Y-51221D02*
X40178Y-50921D01*
X40250Y-50921D01*
X40292Y-50935D01*
X40321Y-50964D01*
X40335Y-50992D01*
X40350Y-51050D01*
X40350Y-51092D01*
X40335Y-51150D01*
X40321Y-51178D01*
X40292Y-51207D01*
X40250Y-51221D01*
X40178Y-51221D01*
G54D20*
X45312Y-43858D02*
X45312Y-44425D01*
X45333Y-44491D01*
X45355Y-44525D01*
X45397Y-44558D01*
X45483Y-44558D01*
X45526Y-44525D01*
X45547Y-44491D01*
X45569Y-44425D01*
X45569Y-43858D01*
X45762Y-43925D02*
X45783Y-43891D01*
X45826Y-43858D01*
X45933Y-43858D01*
X45976Y-43891D01*
X45997Y-43925D01*
X46019Y-43991D01*
X46019Y-44058D01*
X45997Y-44158D01*
X45740Y-44558D01*
X46019Y-44558D01*
G54D21*
G54D12*
X46960Y-44523D02*
X46960Y-43823D01*
X47226Y-43823D01*
X47293Y-43856D01*
X47326Y-43890D01*
X47360Y-43956D01*
X47360Y-44056D01*
X47326Y-44123D01*
X47293Y-44156D01*
X47226Y-44190D01*
X46960Y-44190D01*
X47660Y-44523D02*
X47660Y-43823D01*
X48393Y-44456D02*
X48360Y-44490D01*
X48260Y-44523D01*
X48193Y-44523D01*
X48093Y-44490D01*
X48026Y-44423D01*
X47993Y-44356D01*
X47960Y-44223D01*
X47960Y-44123D01*
X47993Y-43990D01*
X48026Y-43923D01*
X48093Y-43856D01*
X48193Y-43823D01*
X48260Y-43823D01*
X48360Y-43856D01*
X48393Y-43890D01*
X49060Y-44523D02*
X48660Y-44523D01*
X48860Y-44523D02*
X48860Y-43823D01*
X48793Y-43923D01*
X48726Y-43990D01*
X48660Y-44023D01*
X49460Y-44123D02*
X49393Y-44090D01*
X49360Y-44056D01*
X49326Y-43990D01*
X49326Y-43956D01*
X49360Y-43890D01*
X49393Y-43856D01*
X49460Y-43823D01*
X49593Y-43823D01*
X49660Y-43856D01*
X49693Y-43890D01*
X49726Y-43956D01*
X49726Y-43990D01*
X49693Y-44056D01*
X49660Y-44090D01*
X49593Y-44123D01*
X49460Y-44123D01*
X49393Y-44156D01*
X49360Y-44190D01*
X49326Y-44256D01*
X49326Y-44390D01*
X49360Y-44456D01*
X49393Y-44490D01*
X49460Y-44523D01*
X49593Y-44523D01*
X49660Y-44490D01*
X49693Y-44456D01*
X49726Y-44390D01*
X49726Y-44256D01*
X49693Y-44190D01*
X49660Y-44156D01*
X49593Y-44123D01*
X50260Y-44156D02*
X50026Y-44156D01*
X50026Y-44523D02*
X50026Y-43823D01*
X50360Y-43823D01*
X50926Y-44056D02*
X50926Y-44523D01*
X50760Y-43790D02*
X50593Y-44290D01*
X51026Y-44290D01*
X51626Y-43823D02*
X51293Y-43823D01*
X51260Y-44156D01*
X51293Y-44123D01*
X51360Y-44090D01*
X51526Y-44090D01*
X51593Y-44123D01*
X51626Y-44156D01*
X51660Y-44223D01*
X51660Y-44390D01*
X51626Y-44456D01*
X51593Y-44490D01*
X51526Y-44523D01*
X51360Y-44523D01*
X51293Y-44490D01*
X51260Y-44456D01*
X52293Y-43823D02*
X51960Y-43823D01*
X51926Y-44156D01*
X51960Y-44123D01*
X52026Y-44090D01*
X52193Y-44090D01*
X52260Y-44123D01*
X52293Y-44156D01*
X52326Y-44223D01*
X52326Y-44390D01*
X52293Y-44456D01*
X52260Y-44490D01*
X52193Y-44523D01*
X52026Y-44523D01*
X51960Y-44490D01*
X51926Y-44456D01*
X52760Y-43823D02*
X52826Y-43823D01*
X52893Y-43856D01*
X52926Y-43890D01*
X52960Y-43956D01*
X52993Y-44090D01*
X52993Y-44256D01*
X52960Y-44390D01*
X52926Y-44456D01*
X52893Y-44490D01*
X52826Y-44523D01*
X52760Y-44523D01*
X52693Y-44490D01*
X52660Y-44456D01*
X52626Y-44390D01*
X52593Y-44256D01*
X52593Y-44090D01*
X52626Y-43956D01*
X52660Y-43890D01*
X52693Y-43856D01*
X52760Y-43823D01*
G54D20*
X55952Y-43882D02*
X55952Y-44368D01*
X55973Y-44425D01*
X55995Y-44454D01*
X56037Y-44482D01*
X56123Y-44482D01*
X56166Y-44454D01*
X56187Y-44425D01*
X56209Y-44368D01*
X56209Y-43882D01*
X56659Y-44482D02*
X56402Y-44482D01*
X56530Y-44482D02*
X56530Y-43882D01*
X56487Y-43968D01*
X56445Y-44025D01*
X56402Y-44054D01*
G54D21*
G54D20*
X56991Y-44482D02*
X56991Y-43882D01*
X57162Y-43882D01*
X57205Y-43911D01*
X57227Y-43940D01*
X57248Y-43997D01*
X57248Y-44082D01*
X57227Y-44140D01*
X57205Y-44168D01*
X57162Y-44197D01*
X56991Y-44197D01*
X57441Y-44482D02*
X57441Y-43882D01*
X57912Y-44425D02*
X57891Y-44454D01*
X57827Y-44482D01*
X57784Y-44482D01*
X57720Y-44454D01*
X57677Y-44397D01*
X57655Y-44340D01*
X57634Y-44225D01*
X57634Y-44140D01*
X57655Y-44025D01*
X57677Y-43968D01*
X57720Y-43911D01*
X57784Y-43882D01*
X57827Y-43882D01*
X57891Y-43911D01*
X57912Y-43940D01*
X58341Y-44482D02*
X58084Y-44482D01*
X58212Y-44482D02*
X58212Y-43882D01*
X58170Y-43968D01*
X58127Y-44025D01*
X58084Y-44054D01*
X58598Y-44140D02*
X58555Y-44111D01*
X58534Y-44082D01*
X58512Y-44025D01*
X58512Y-43997D01*
X58534Y-43940D01*
X58555Y-43911D01*
X58598Y-43882D01*
X58684Y-43882D01*
X58727Y-43911D01*
X58748Y-43940D01*
X58770Y-43997D01*
X58770Y-44025D01*
X58748Y-44082D01*
X58727Y-44111D01*
X58684Y-44140D01*
X58598Y-44140D01*
X58555Y-44168D01*
X58534Y-44197D01*
X58512Y-44254D01*
X58512Y-44368D01*
X58534Y-44425D01*
X58555Y-44454D01*
X58598Y-44482D01*
X58684Y-44482D01*
X58727Y-44454D01*
X58748Y-44425D01*
X58770Y-44368D01*
X58770Y-44254D01*
X58748Y-44197D01*
X58727Y-44168D01*
X58684Y-44140D01*
X59112Y-44168D02*
X58962Y-44168D01*
X58962Y-44482D02*
X58962Y-43882D01*
X59177Y-43882D01*
X59327Y-43940D02*
X59348Y-43911D01*
X59391Y-43882D01*
X59498Y-43882D01*
X59541Y-43911D01*
X59562Y-43940D01*
X59584Y-43997D01*
X59584Y-44054D01*
X59562Y-44140D01*
X59305Y-44482D01*
X59584Y-44482D01*
X59991Y-43882D02*
X59777Y-43882D01*
X59755Y-44168D01*
X59777Y-44140D01*
X59820Y-44111D01*
X59927Y-44111D01*
X59970Y-44140D01*
X59991Y-44168D01*
X60012Y-44225D01*
X60012Y-44368D01*
X59991Y-44425D01*
X59970Y-44454D01*
X59927Y-44482D01*
X59820Y-44482D01*
X59777Y-44454D01*
X59755Y-44425D01*
X60420Y-43882D02*
X60205Y-43882D01*
X60184Y-44168D01*
X60205Y-44140D01*
X60248Y-44111D01*
X60355Y-44111D01*
X60398Y-44140D01*
X60420Y-44168D01*
X60441Y-44225D01*
X60441Y-44368D01*
X60420Y-44425D01*
X60398Y-44454D01*
X60355Y-44482D01*
X60248Y-44482D01*
X60205Y-44454D01*
X60184Y-44425D01*
X60719Y-43882D02*
X60762Y-43882D01*
X60805Y-43911D01*
X60827Y-43940D01*
X60848Y-43997D01*
X60869Y-44111D01*
X60869Y-44254D01*
X60848Y-44368D01*
X60827Y-44425D01*
X60805Y-44454D01*
X60762Y-44482D01*
X60719Y-44482D01*
X60677Y-44454D01*
X60655Y-44425D01*
X60634Y-44368D01*
X60612Y-44254D01*
X60612Y-44111D01*
X60634Y-43997D01*
X60655Y-43940D01*
X60677Y-43911D01*
X60719Y-43882D01*
G54D21*
G54D20*
X44667Y-37883D02*
X44667Y-37183D01*
X44839Y-37183D01*
X44882Y-37216D01*
X44903Y-37250D01*
X44925Y-37316D01*
X44925Y-37416D01*
X44903Y-37483D01*
X44882Y-37516D01*
X44839Y-37550D01*
X44667Y-37550D01*
X45310Y-37183D02*
X45225Y-37183D01*
X45182Y-37216D01*
X45160Y-37250D01*
X45117Y-37350D01*
X45096Y-37483D01*
X45096Y-37750D01*
X45117Y-37816D01*
X45139Y-37850D01*
X45182Y-37883D01*
X45267Y-37883D01*
X45310Y-37850D01*
X45332Y-37816D01*
X45353Y-37750D01*
X45353Y-37583D01*
X45332Y-37516D01*
X45310Y-37483D01*
X45267Y-37450D01*
X45182Y-37450D01*
X45139Y-37483D01*
X45117Y-37516D01*
X45096Y-37583D01*
G54D21*
G54D20*
X45596Y-36783D02*
X45596Y-37350D01*
X45617Y-37416D01*
X45639Y-37450D01*
X45682Y-37483D01*
X45767Y-37483D01*
X45810Y-37450D01*
X45832Y-37416D01*
X45853Y-37350D01*
X45853Y-36783D01*
X46067Y-37483D02*
X46067Y-36783D01*
X46325Y-37483D01*
X46325Y-36783D01*
X46753Y-37483D02*
X46539Y-37483D01*
X46539Y-36783D01*
X46882Y-36850D02*
X46903Y-36816D01*
X46946Y-36783D01*
X47053Y-36783D01*
X47096Y-36816D01*
X47117Y-36850D01*
X47139Y-36916D01*
X47139Y-36983D01*
X47117Y-37083D01*
X46860Y-37483D01*
X47139Y-37483D01*
X47396Y-37083D02*
X47353Y-37050D01*
X47332Y-37016D01*
X47310Y-36950D01*
X47310Y-36916D01*
X47332Y-36850D01*
X47353Y-36816D01*
X47396Y-36783D01*
X47482Y-36783D01*
X47525Y-36816D01*
X47546Y-36850D01*
X47567Y-36916D01*
X47567Y-36950D01*
X47546Y-37016D01*
X47525Y-37050D01*
X47482Y-37083D01*
X47396Y-37083D01*
X47353Y-37116D01*
X47332Y-37150D01*
X47310Y-37216D01*
X47310Y-37350D01*
X47332Y-37416D01*
X47353Y-37450D01*
X47396Y-37483D01*
X47482Y-37483D01*
X47525Y-37450D01*
X47546Y-37416D01*
X47567Y-37350D01*
X47567Y-37216D01*
X47546Y-37150D01*
X47525Y-37116D01*
X47482Y-37083D01*
X47846Y-36783D02*
X47889Y-36783D01*
X47932Y-36816D01*
X47953Y-36850D01*
X47975Y-36916D01*
X47996Y-37050D01*
X47996Y-37216D01*
X47975Y-37350D01*
X47953Y-37416D01*
X47932Y-37450D01*
X47889Y-37483D01*
X47846Y-37483D01*
X47803Y-37450D01*
X47782Y-37416D01*
X47760Y-37350D01*
X47739Y-37216D01*
X47739Y-37050D01*
X47760Y-36916D01*
X47782Y-36850D01*
X47803Y-36816D01*
X47846Y-36783D01*
X48146Y-36783D02*
X48425Y-36783D01*
X48275Y-37050D01*
X48339Y-37050D01*
X48382Y-37083D01*
X48403Y-37116D01*
X48425Y-37183D01*
X48425Y-37350D01*
X48403Y-37416D01*
X48382Y-37450D01*
X48339Y-37483D01*
X48210Y-37483D01*
X48167Y-37450D01*
X48146Y-37416D01*
G54D21*
G54D20*
X58697Y-31782D02*
X58697Y-32268D01*
X58718Y-32325D01*
X58740Y-32354D01*
X58782Y-32382D01*
X58868Y-32382D01*
X58911Y-32354D01*
X58932Y-32325D01*
X58954Y-32268D01*
X58954Y-31782D01*
X59125Y-31782D02*
X59404Y-31782D01*
X59254Y-32011D01*
X59318Y-32011D01*
X59361Y-32040D01*
X59382Y-32068D01*
X59404Y-32125D01*
X59404Y-32268D01*
X59382Y-32325D01*
X59361Y-32354D01*
X59318Y-32382D01*
X59190Y-32382D01*
X59147Y-32354D01*
X59125Y-32325D01*
G54D21*
G54D20*
X56631Y-31812D02*
X56417Y-31812D01*
X56417Y-31212D01*
X56760Y-31270D02*
X56781Y-31241D01*
X56824Y-31212D01*
X56931Y-31212D01*
X56974Y-31241D01*
X56995Y-31270D01*
X57017Y-31327D01*
X57017Y-31384D01*
X56995Y-31470D01*
X56738Y-31812D01*
X57017Y-31812D01*
X57231Y-31812D02*
X57317Y-31812D01*
X57360Y-31784D01*
X57381Y-31755D01*
X57424Y-31670D01*
X57445Y-31555D01*
X57445Y-31327D01*
X57424Y-31270D01*
X57402Y-31241D01*
X57360Y-31212D01*
X57274Y-31212D01*
X57231Y-31241D01*
X57210Y-31270D01*
X57188Y-31327D01*
X57188Y-31470D01*
X57210Y-31527D01*
X57231Y-31555D01*
X57274Y-31584D01*
X57360Y-31584D01*
X57402Y-31555D01*
X57424Y-31527D01*
X57445Y-31470D01*
X57595Y-31212D02*
X57874Y-31212D01*
X57724Y-31441D01*
X57788Y-31441D01*
X57831Y-31470D01*
X57852Y-31498D01*
X57874Y-31555D01*
X57874Y-31698D01*
X57852Y-31755D01*
X57831Y-31784D01*
X57788Y-31812D01*
X57660Y-31812D01*
X57617Y-31784D01*
X57595Y-31755D01*
X58067Y-31812D02*
X58067Y-31212D01*
X58174Y-31212D01*
X58238Y-31241D01*
X58281Y-31298D01*
X58302Y-31355D01*
X58324Y-31470D01*
X58324Y-31555D01*
X58302Y-31670D01*
X58281Y-31727D01*
X58238Y-31784D01*
X58174Y-31812D01*
X58067Y-31812D01*
G54D21*
G54D14*
X66606Y-36100D02*
X66206Y-36100D01*
X66206Y-36004D01*
X66225Y-35947D01*
X66264Y-35909D01*
X66302Y-35890D01*
X66378Y-35871D01*
X66435Y-35871D01*
X66511Y-35890D01*
X66549Y-35909D01*
X66587Y-35947D01*
X66606Y-36004D01*
X66606Y-36100D01*
X66606Y-35681D02*
X66606Y-35604D01*
X66587Y-35566D01*
X66568Y-35547D01*
X66511Y-35509D01*
X66435Y-35490D01*
X66283Y-35490D01*
X66245Y-35509D01*
X66225Y-35528D01*
X66206Y-35566D01*
X66206Y-35643D01*
X66225Y-35681D01*
X66245Y-35700D01*
X66283Y-35719D01*
X66378Y-35719D01*
X66416Y-35700D01*
X66435Y-35681D01*
X66454Y-35643D01*
X66454Y-35566D01*
X66435Y-35528D01*
X66416Y-35509D01*
X66378Y-35490D01*
X64825Y-36657D02*
X64596Y-36657D01*
X64711Y-36657D02*
X64711Y-36257D01*
X64673Y-36315D01*
X64634Y-36353D01*
X64596Y-36372D01*
X64996Y-36391D02*
X64996Y-36657D01*
X64996Y-36429D02*
X65015Y-36410D01*
X65054Y-36391D01*
X65111Y-36391D01*
X65149Y-36410D01*
X65168Y-36448D01*
X65168Y-36657D01*
X65530Y-36391D02*
X65530Y-36657D01*
X65434Y-36238D02*
X65339Y-36524D01*
X65587Y-36524D01*
X65815Y-36257D02*
X65854Y-36257D01*
X65892Y-36276D01*
X65911Y-36296D01*
X65930Y-36334D01*
X65949Y-36410D01*
X65949Y-36505D01*
X65930Y-36581D01*
X65911Y-36619D01*
X65892Y-36638D01*
X65854Y-36657D01*
X65815Y-36657D01*
X65777Y-36638D01*
X65758Y-36619D01*
X65739Y-36581D01*
X65720Y-36505D01*
X65720Y-36410D01*
X65739Y-36334D01*
X65758Y-36296D01*
X65777Y-36276D01*
X65815Y-36257D01*
X66196Y-36257D02*
X66234Y-36257D01*
X66273Y-36276D01*
X66292Y-36296D01*
X66311Y-36334D01*
X66330Y-36410D01*
X66330Y-36505D01*
X66311Y-36581D01*
X66292Y-36619D01*
X66273Y-36638D01*
X66234Y-36657D01*
X66196Y-36657D01*
X66158Y-36638D01*
X66139Y-36619D01*
X66120Y-36581D01*
X66101Y-36505D01*
X66101Y-36410D01*
X66120Y-36334D01*
X66139Y-36296D01*
X66158Y-36276D01*
X66196Y-36257D01*
X66463Y-36257D02*
X66730Y-36257D01*
X66558Y-36657D01*
G54D12*
X57258Y-49788D02*
X57658Y-50388D01*
X57658Y-49788D02*
X57258Y-50388D01*
X58201Y-50388D02*
X57858Y-50388D01*
X58029Y-50388D02*
X58029Y-49788D01*
X57972Y-49874D01*
X57915Y-49931D01*
X57858Y-49960D01*
X57074Y-48855D02*
X57045Y-48884D01*
X56960Y-48912D01*
X56902Y-48912D01*
X56817Y-48884D01*
X56760Y-48827D01*
X56731Y-48770D01*
X56702Y-48655D01*
X56702Y-48570D01*
X56731Y-48455D01*
X56760Y-48398D01*
X56817Y-48341D01*
X56902Y-48312D01*
X56960Y-48312D01*
X57045Y-48341D01*
X57074Y-48370D01*
X57674Y-48912D02*
X57474Y-48627D01*
X57331Y-48912D02*
X57331Y-48312D01*
X57560Y-48312D01*
X57617Y-48341D01*
X57645Y-48370D01*
X57674Y-48427D01*
X57674Y-48512D01*
X57645Y-48570D01*
X57617Y-48598D01*
X57560Y-48627D01*
X57331Y-48627D01*
X58045Y-48627D02*
X58045Y-48912D01*
X57845Y-48312D02*
X58045Y-48627D01*
X58245Y-48312D01*
X58417Y-48884D02*
X58502Y-48912D01*
X58645Y-48912D01*
X58702Y-48884D01*
X58731Y-48855D01*
X58760Y-48798D01*
X58760Y-48741D01*
X58731Y-48684D01*
X58702Y-48655D01*
X58645Y-48627D01*
X58531Y-48598D01*
X58474Y-48570D01*
X58445Y-48541D01*
X58417Y-48484D01*
X58417Y-48427D01*
X58445Y-48370D01*
X58474Y-48341D01*
X58531Y-48312D01*
X58674Y-48312D01*
X58760Y-48341D01*
X58931Y-48312D02*
X59274Y-48312D01*
X59102Y-48912D02*
X59102Y-48312D01*
X59445Y-48741D02*
X59731Y-48741D01*
X59388Y-48912D02*
X59588Y-48312D01*
X59788Y-48912D01*
X60274Y-48912D02*
X59988Y-48912D01*
X59988Y-48312D01*
G54D11*
X40400Y-52961D02*
X40385Y-52976D01*
X40342Y-52990D01*
X40314Y-52990D01*
X40271Y-52976D01*
X40242Y-52947D01*
X40228Y-52919D01*
X40214Y-52861D01*
X40214Y-52819D01*
X40228Y-52761D01*
X40242Y-52733D01*
X40271Y-52704D01*
X40314Y-52690D01*
X40342Y-52690D01*
X40385Y-52704D01*
X40400Y-52719D01*
X40671Y-52690D02*
X40528Y-52690D01*
X40514Y-52833D01*
X40528Y-52819D01*
X40557Y-52804D01*
X40628Y-52804D01*
X40657Y-52819D01*
X40671Y-52833D01*
X40685Y-52861D01*
X40685Y-52933D01*
X40671Y-52961D01*
X40657Y-52976D01*
X40628Y-52990D01*
X40557Y-52990D01*
X40528Y-52976D01*
X40514Y-52961D01*
X40292Y-51876D02*
X40149Y-51876D01*
X40220Y-51876D02*
X40220Y-51576D01*
X40196Y-51619D01*
X40173Y-51647D01*
X40149Y-51662D01*
X40446Y-51576D02*
X40470Y-51576D01*
X40494Y-51590D01*
X40506Y-51605D01*
X40518Y-51633D01*
X40530Y-51690D01*
X40530Y-51762D01*
X40518Y-51819D01*
X40506Y-51847D01*
X40494Y-51862D01*
X40470Y-51876D01*
X40446Y-51876D01*
X40423Y-51862D01*
X40411Y-51847D01*
X40399Y-51819D01*
X40387Y-51762D01*
X40387Y-51690D01*
X40399Y-51633D01*
X40411Y-51605D01*
X40423Y-51590D01*
X40446Y-51576D01*
X40744Y-51676D02*
X40744Y-51876D01*
X40637Y-51676D02*
X40637Y-51833D01*
X40649Y-51862D01*
X40673Y-51876D01*
X40708Y-51876D01*
X40732Y-51862D01*
X40744Y-51847D01*
X40946Y-51719D02*
X40863Y-51719D01*
X40863Y-51876D02*
X40863Y-51576D01*
X40982Y-51576D01*
G54D22*
X41235Y-52377D02*
X41464Y-52377D01*
X41350Y-52491D02*
X41350Y-52262D01*
G54D11*
X67968Y-36495D02*
X67983Y-36509D01*
X67997Y-36552D01*
X67997Y-36580D01*
X67983Y-36623D01*
X67954Y-36652D01*
X67926Y-36666D01*
X67868Y-36680D01*
X67826Y-36680D01*
X67768Y-36666D01*
X67740Y-36652D01*
X67711Y-36623D01*
X67697Y-36580D01*
X67697Y-36552D01*
X67711Y-36509D01*
X67726Y-36495D01*
X67797Y-36237D02*
X67997Y-36237D01*
X67683Y-36309D02*
X67897Y-36380D01*
X67897Y-36195D01*
X69006Y-36926D02*
X69006Y-37069D01*
X69006Y-36998D02*
X68706Y-36998D01*
X68749Y-37022D01*
X68777Y-37045D01*
X68792Y-37069D01*
X68706Y-36772D02*
X68706Y-36748D01*
X68720Y-36724D01*
X68735Y-36712D01*
X68763Y-36700D01*
X68820Y-36688D01*
X68892Y-36688D01*
X68949Y-36700D01*
X68977Y-36712D01*
X68992Y-36724D01*
X69006Y-36748D01*
X69006Y-36772D01*
X68992Y-36795D01*
X68977Y-36807D01*
X68949Y-36819D01*
X68892Y-36831D01*
X68820Y-36831D01*
X68763Y-36819D01*
X68735Y-36807D01*
X68720Y-36795D01*
X68706Y-36772D01*
X68706Y-36534D02*
X68706Y-36510D01*
X68720Y-36486D01*
X68735Y-36474D01*
X68763Y-36462D01*
X68820Y-36450D01*
X68892Y-36450D01*
X68949Y-36462D01*
X68977Y-36474D01*
X68992Y-36486D01*
X69006Y-36510D01*
X69006Y-36534D01*
X68992Y-36557D01*
X68977Y-36569D01*
X68949Y-36581D01*
X68892Y-36593D01*
X68820Y-36593D01*
X68763Y-36581D01*
X68735Y-36569D01*
X68720Y-36557D01*
X68706Y-36534D01*
X68806Y-36236D02*
X69006Y-36236D01*
X68806Y-36343D02*
X68963Y-36343D01*
X68992Y-36331D01*
X69006Y-36307D01*
X69006Y-36272D01*
X68992Y-36248D01*
X68977Y-36236D01*
X68849Y-36034D02*
X68849Y-36117D01*
X69006Y-36117D02*
X68706Y-36117D01*
X68706Y-35998D01*
G54D22*
X68382Y-37459D02*
X68382Y-37230D01*
X68496Y-37345D02*
X68267Y-37345D01*
G54D14*
X58163Y-51836D02*
X58182Y-51855D01*
X58201Y-51912D01*
X58201Y-51950D01*
X58182Y-52008D01*
X58144Y-52046D01*
X58106Y-52065D01*
X58030Y-52084D01*
X57973Y-52084D01*
X57897Y-52065D01*
X57859Y-52046D01*
X57820Y-52008D01*
X57801Y-51950D01*
X57801Y-51912D01*
X57820Y-51855D01*
X57840Y-51836D01*
X57801Y-51703D02*
X57801Y-51455D01*
X57954Y-51589D01*
X57954Y-51531D01*
X57973Y-51493D01*
X57992Y-51474D01*
X58030Y-51455D01*
X58125Y-51455D01*
X58163Y-51474D01*
X58182Y-51493D01*
X58201Y-51531D01*
X58201Y-51646D01*
X58182Y-51684D01*
X58163Y-51703D01*
X58598Y-53069D02*
X58578Y-53050D01*
X58559Y-53011D01*
X58559Y-52916D01*
X58578Y-52878D01*
X58598Y-52859D01*
X58636Y-52840D01*
X58674Y-52840D01*
X58731Y-52859D01*
X58959Y-53088D01*
X58959Y-52840D01*
X58598Y-52688D02*
X58578Y-52669D01*
X58559Y-52631D01*
X58559Y-52535D01*
X58578Y-52497D01*
X58598Y-52478D01*
X58636Y-52459D01*
X58674Y-52459D01*
X58731Y-52478D01*
X58959Y-52707D01*
X58959Y-52459D01*
X58693Y-52288D02*
X59093Y-52288D01*
X58712Y-52288D02*
X58693Y-52250D01*
X58693Y-52173D01*
X58712Y-52135D01*
X58731Y-52116D01*
X58769Y-52097D01*
X58883Y-52097D01*
X58921Y-52116D01*
X58940Y-52135D01*
X58959Y-52173D01*
X58959Y-52250D01*
X58940Y-52288D01*
X58750Y-51792D02*
X58750Y-51926D01*
X58959Y-51926D02*
X58559Y-51926D01*
X58559Y-51735D01*
X56303Y-51836D02*
X56322Y-51855D01*
X56341Y-51912D01*
X56341Y-51950D01*
X56322Y-52008D01*
X56284Y-52046D01*
X56246Y-52065D01*
X56170Y-52084D01*
X56113Y-52084D01*
X56037Y-52065D01*
X55999Y-52046D01*
X55960Y-52008D01*
X55941Y-51950D01*
X55941Y-51912D01*
X55960Y-51855D01*
X55980Y-51836D01*
X55980Y-51684D02*
X55960Y-51665D01*
X55941Y-51627D01*
X55941Y-51531D01*
X55960Y-51493D01*
X55980Y-51474D01*
X56018Y-51455D01*
X56056Y-51455D01*
X56113Y-51474D01*
X56341Y-51703D01*
X56341Y-51455D01*
X56900Y-53097D02*
X56880Y-53078D01*
X56861Y-53039D01*
X56861Y-52944D01*
X56880Y-52906D01*
X56900Y-52887D01*
X56938Y-52868D01*
X56976Y-52868D01*
X57033Y-52887D01*
X57261Y-53116D01*
X57261Y-52868D01*
X56900Y-52716D02*
X56880Y-52697D01*
X56861Y-52659D01*
X56861Y-52563D01*
X56880Y-52525D01*
X56900Y-52506D01*
X56938Y-52487D01*
X56976Y-52487D01*
X57033Y-52506D01*
X57261Y-52735D01*
X57261Y-52487D01*
X56995Y-52316D02*
X57395Y-52316D01*
X57014Y-52316D02*
X56995Y-52278D01*
X56995Y-52201D01*
X57014Y-52163D01*
X57033Y-52144D01*
X57071Y-52125D01*
X57185Y-52125D01*
X57223Y-52144D01*
X57242Y-52163D01*
X57261Y-52201D01*
X57261Y-52278D01*
X57242Y-52316D01*
X57052Y-51820D02*
X57052Y-51954D01*
X57261Y-51954D02*
X56861Y-51954D01*
X56861Y-51763D01*
X60523Y-50066D02*
X60542Y-50085D01*
X60561Y-50142D01*
X60561Y-50180D01*
X60542Y-50238D01*
X60504Y-50276D01*
X60466Y-50295D01*
X60390Y-50314D01*
X60333Y-50314D01*
X60257Y-50295D01*
X60219Y-50276D01*
X60180Y-50238D01*
X60161Y-50180D01*
X60161Y-50142D01*
X60180Y-50085D01*
X60200Y-50066D01*
X60561Y-49685D02*
X60561Y-49914D01*
X60561Y-49799D02*
X60161Y-49799D01*
X60219Y-49838D01*
X60257Y-49876D01*
X60276Y-49914D01*
X61910Y-50227D02*
X61890Y-50208D01*
X61871Y-50170D01*
X61871Y-50075D01*
X61890Y-50037D01*
X61910Y-50018D01*
X61948Y-49999D01*
X61986Y-49999D01*
X62043Y-50018D01*
X62271Y-50246D01*
X62271Y-49999D01*
X61910Y-49846D02*
X61890Y-49827D01*
X61871Y-49789D01*
X61871Y-49694D01*
X61890Y-49656D01*
X61910Y-49637D01*
X61948Y-49618D01*
X61986Y-49618D01*
X62043Y-49637D01*
X62271Y-49865D01*
X62271Y-49618D01*
X61871Y-49370D02*
X61871Y-49332D01*
X61890Y-49294D01*
X61910Y-49275D01*
X61948Y-49256D01*
X62024Y-49237D01*
X62119Y-49237D01*
X62195Y-49256D01*
X62233Y-49275D01*
X62252Y-49294D01*
X62271Y-49332D01*
X62271Y-49370D01*
X62252Y-49408D01*
X62233Y-49427D01*
X62195Y-49446D01*
X62119Y-49465D01*
X62024Y-49465D01*
X61948Y-49446D01*
X61910Y-49427D01*
X61890Y-49408D01*
X61871Y-49370D01*
X62005Y-49065D02*
X62271Y-49065D01*
X62043Y-49065D02*
X62024Y-49046D01*
X62005Y-49008D01*
X62005Y-48951D01*
X62024Y-48913D01*
X62062Y-48894D01*
X62271Y-48894D01*
X62062Y-48570D02*
X62062Y-48703D01*
X62271Y-48703D02*
X61871Y-48703D01*
X61871Y-48513D01*
G54D12*
X62671Y-27042D02*
X62671Y-26442D01*
X62900Y-26442D01*
X62957Y-26471D01*
X62985Y-26500D01*
X63014Y-26557D01*
X63014Y-26642D01*
X62985Y-26700D01*
X62957Y-26728D01*
X62900Y-26757D01*
X62671Y-26757D01*
X63585Y-27042D02*
X63242Y-27042D01*
X63414Y-27042D02*
X63414Y-26442D01*
X63357Y-26528D01*
X63300Y-26585D01*
X63242Y-26614D01*
X64100Y-26642D02*
X64100Y-27042D01*
X63957Y-26414D02*
X63814Y-26842D01*
X64185Y-26842D01*
X62094Y-23899D02*
X62151Y-23927D01*
X62265Y-23927D01*
X62322Y-23899D01*
X62351Y-23842D01*
X62351Y-23813D01*
X62322Y-23756D01*
X62265Y-23727D01*
X62180Y-23727D01*
X62122Y-23699D01*
X62094Y-23642D01*
X62094Y-23613D01*
X62122Y-23556D01*
X62180Y-23527D01*
X62265Y-23527D01*
X62322Y-23556D01*
X62608Y-23527D02*
X62608Y-23927D01*
X62608Y-23585D02*
X62637Y-23556D01*
X62694Y-23527D01*
X62780Y-23527D01*
X62837Y-23556D01*
X62865Y-23613D01*
X62865Y-23927D01*
X63008Y-23985D02*
X63465Y-23985D01*
X63865Y-23927D02*
X63865Y-23327D01*
X63865Y-23899D02*
X63808Y-23927D01*
X63694Y-23927D01*
X63637Y-23899D01*
X63608Y-23870D01*
X63580Y-23813D01*
X63580Y-23642D01*
X63608Y-23585D01*
X63637Y-23556D01*
X63694Y-23527D01*
X63808Y-23527D01*
X63865Y-23556D01*
X64408Y-23527D02*
X64408Y-23927D01*
X64265Y-23299D02*
X64122Y-23727D01*
X64494Y-23727D01*
X66371Y-27042D02*
X66371Y-26442D01*
X66600Y-26442D01*
X66657Y-26471D01*
X66685Y-26500D01*
X66714Y-26557D01*
X66714Y-26642D01*
X66685Y-26700D01*
X66657Y-26728D01*
X66600Y-26757D01*
X66371Y-26757D01*
X67285Y-27042D02*
X66942Y-27042D01*
X67114Y-27042D02*
X67114Y-26442D01*
X67057Y-26528D01*
X67000Y-26585D01*
X66942Y-26614D01*
X67485Y-26442D02*
X67857Y-26442D01*
X67657Y-26671D01*
X67742Y-26671D01*
X67800Y-26700D01*
X67828Y-26728D01*
X67857Y-26785D01*
X67857Y-26928D01*
X67828Y-26985D01*
X67800Y-27014D01*
X67742Y-27042D01*
X67571Y-27042D01*
X67514Y-27014D01*
X67485Y-26985D01*
X66079Y-23954D02*
X66136Y-23982D01*
X66250Y-23982D01*
X66307Y-23954D01*
X66336Y-23897D01*
X66336Y-23868D01*
X66307Y-23811D01*
X66250Y-23782D01*
X66165Y-23782D01*
X66107Y-23754D01*
X66079Y-23697D01*
X66079Y-23668D01*
X66107Y-23611D01*
X66165Y-23582D01*
X66250Y-23582D01*
X66307Y-23611D01*
X66593Y-23582D02*
X66593Y-23982D01*
X66593Y-23640D02*
X66622Y-23611D01*
X66679Y-23582D01*
X66765Y-23582D01*
X66822Y-23611D01*
X66850Y-23668D01*
X66850Y-23982D01*
X66993Y-24040D02*
X67450Y-24040D01*
X67850Y-23982D02*
X67850Y-23382D01*
X67850Y-23954D02*
X67793Y-23982D01*
X67679Y-23982D01*
X67622Y-23954D01*
X67593Y-23925D01*
X67565Y-23868D01*
X67565Y-23697D01*
X67593Y-23640D01*
X67622Y-23611D01*
X67679Y-23582D01*
X67793Y-23582D01*
X67850Y-23611D01*
X68079Y-23382D02*
X68450Y-23382D01*
X68250Y-23611D01*
X68336Y-23611D01*
X68393Y-23640D01*
X68422Y-23668D01*
X68450Y-23725D01*
X68450Y-23868D01*
X68422Y-23925D01*
X68393Y-23954D01*
X68336Y-23982D01*
X68165Y-23982D01*
X68107Y-23954D01*
X68079Y-23925D01*
X50271Y-55242D02*
X50271Y-54642D01*
X50500Y-54642D01*
X50557Y-54671D01*
X50585Y-54700D01*
X50614Y-54757D01*
X50614Y-54842D01*
X50585Y-54900D01*
X50557Y-54928D01*
X50500Y-54957D01*
X50271Y-54957D01*
X51185Y-55242D02*
X50842Y-55242D01*
X51014Y-55242D02*
X51014Y-54642D01*
X50957Y-54728D01*
X50900Y-54785D01*
X50842Y-54814D01*
X51414Y-54700D02*
X51442Y-54671D01*
X51500Y-54642D01*
X51642Y-54642D01*
X51700Y-54671D01*
X51728Y-54700D01*
X51757Y-54757D01*
X51757Y-54814D01*
X51728Y-54900D01*
X51385Y-55242D01*
X51757Y-55242D01*
X49914Y-56114D02*
X49971Y-56142D01*
X50085Y-56142D01*
X50142Y-56114D01*
X50171Y-56057D01*
X50171Y-56028D01*
X50142Y-55971D01*
X50085Y-55942D01*
X50000Y-55942D01*
X49942Y-55914D01*
X49914Y-55857D01*
X49914Y-55828D01*
X49942Y-55771D01*
X50000Y-55742D01*
X50085Y-55742D01*
X50142Y-55771D01*
X50428Y-55742D02*
X50428Y-56142D01*
X50428Y-55800D02*
X50457Y-55771D01*
X50514Y-55742D01*
X50600Y-55742D01*
X50657Y-55771D01*
X50685Y-55828D01*
X50685Y-56142D01*
X50828Y-56200D02*
X51285Y-56200D01*
X51685Y-56142D02*
X51685Y-55542D01*
X51685Y-56114D02*
X51628Y-56142D01*
X51514Y-56142D01*
X51457Y-56114D01*
X51428Y-56085D01*
X51400Y-56028D01*
X51400Y-55857D01*
X51428Y-55800D01*
X51457Y-55771D01*
X51514Y-55742D01*
X51628Y-55742D01*
X51685Y-55771D01*
X51942Y-55600D02*
X51971Y-55571D01*
X52028Y-55542D01*
X52171Y-55542D01*
X52228Y-55571D01*
X52257Y-55600D01*
X52285Y-55657D01*
X52285Y-55714D01*
X52257Y-55800D01*
X51914Y-56142D01*
X52285Y-56142D01*
X46271Y-55242D02*
X46271Y-54642D01*
X46500Y-54642D01*
X46557Y-54671D01*
X46585Y-54700D01*
X46614Y-54757D01*
X46614Y-54842D01*
X46585Y-54900D01*
X46557Y-54928D01*
X46500Y-54957D01*
X46271Y-54957D01*
X47185Y-55242D02*
X46842Y-55242D01*
X47014Y-55242D02*
X47014Y-54642D01*
X46957Y-54728D01*
X46900Y-54785D01*
X46842Y-54814D01*
X47757Y-55242D02*
X47414Y-55242D01*
X47585Y-55242D02*
X47585Y-54642D01*
X47528Y-54728D01*
X47471Y-54785D01*
X47414Y-54814D01*
X45554Y-56169D02*
X45611Y-56197D01*
X45725Y-56197D01*
X45782Y-56169D01*
X45811Y-56112D01*
X45811Y-56083D01*
X45782Y-56026D01*
X45725Y-55997D01*
X45640Y-55997D01*
X45582Y-55969D01*
X45554Y-55912D01*
X45554Y-55883D01*
X45582Y-55826D01*
X45640Y-55797D01*
X45725Y-55797D01*
X45782Y-55826D01*
X46068Y-55797D02*
X46068Y-56197D01*
X46068Y-55855D02*
X46097Y-55826D01*
X46154Y-55797D01*
X46240Y-55797D01*
X46297Y-55826D01*
X46325Y-55883D01*
X46325Y-56197D01*
X46468Y-56255D02*
X46925Y-56255D01*
X47325Y-56197D02*
X47325Y-55597D01*
X47325Y-56169D02*
X47268Y-56197D01*
X47154Y-56197D01*
X47097Y-56169D01*
X47068Y-56140D01*
X47040Y-56083D01*
X47040Y-55912D01*
X47068Y-55855D01*
X47097Y-55826D01*
X47154Y-55797D01*
X47268Y-55797D01*
X47325Y-55826D01*
X47925Y-56197D02*
X47582Y-56197D01*
X47754Y-56197D02*
X47754Y-55597D01*
X47697Y-55683D01*
X47640Y-55740D01*
X47582Y-55769D01*
X70291Y-34187D02*
X70291Y-33587D01*
X70520Y-33587D01*
X70577Y-33616D01*
X70605Y-33645D01*
X70634Y-33702D01*
X70634Y-33787D01*
X70605Y-33845D01*
X70577Y-33873D01*
X70520Y-33902D01*
X70291Y-33902D01*
X71205Y-34187D02*
X70862Y-34187D01*
X71034Y-34187D02*
X71034Y-33587D01*
X70977Y-33673D01*
X70920Y-33730D01*
X70862Y-33759D01*
X71577Y-33587D02*
X71634Y-33587D01*
X71691Y-33616D01*
X71720Y-33645D01*
X71748Y-33702D01*
X71777Y-33816D01*
X71777Y-33959D01*
X71748Y-34073D01*
X71720Y-34130D01*
X71691Y-34159D01*
X71634Y-34187D01*
X71577Y-34187D01*
X71520Y-34159D01*
X71491Y-34130D01*
X71462Y-34073D01*
X71434Y-33959D01*
X71434Y-33816D01*
X71462Y-33702D01*
X71491Y-33645D01*
X71520Y-33616D01*
X71577Y-33587D01*
X71242Y-31542D02*
X70642Y-31542D01*
X70642Y-31400D01*
X70671Y-31314D01*
X70728Y-31257D01*
X70785Y-31228D01*
X70900Y-31200D01*
X70985Y-31200D01*
X71100Y-31228D01*
X71157Y-31257D01*
X71214Y-31314D01*
X71242Y-31400D01*
X71242Y-31542D01*
X71185Y-30600D02*
X71214Y-30628D01*
X71242Y-30714D01*
X71242Y-30771D01*
X71214Y-30857D01*
X71157Y-30914D01*
X71100Y-30942D01*
X70985Y-30971D01*
X70900Y-30971D01*
X70785Y-30942D01*
X70728Y-30914D01*
X70671Y-30857D01*
X70642Y-30771D01*
X70642Y-30714D01*
X70671Y-30628D01*
X70700Y-30600D01*
X71300Y-30485D02*
X71300Y-30028D01*
X71242Y-29885D02*
X70642Y-29885D01*
X71242Y-29600D02*
X70642Y-29600D01*
X71242Y-29257D01*
X70642Y-29257D01*
X58227Y-27842D02*
X58227Y-27242D01*
X58455Y-27242D01*
X58512Y-27271D01*
X58541Y-27300D01*
X58570Y-27357D01*
X58570Y-27442D01*
X58541Y-27500D01*
X58512Y-27528D01*
X58455Y-27557D01*
X58227Y-27557D01*
X58855Y-27842D02*
X58970Y-27842D01*
X59027Y-27814D01*
X59055Y-27785D01*
X59112Y-27700D01*
X59141Y-27585D01*
X59141Y-27357D01*
X59112Y-27300D01*
X59084Y-27271D01*
X59027Y-27242D01*
X58912Y-27242D01*
X58855Y-27271D01*
X58827Y-27300D01*
X58798Y-27357D01*
X58798Y-27500D01*
X58827Y-27557D01*
X58855Y-27585D01*
X58912Y-27614D01*
X59027Y-27614D01*
X59084Y-27585D01*
X59112Y-27557D01*
X59141Y-27500D01*
X57643Y-23827D02*
X57643Y-23227D01*
X57843Y-23656D01*
X58043Y-23227D01*
X58043Y-23827D01*
X58443Y-23227D02*
X58557Y-23227D01*
X58615Y-23256D01*
X58672Y-23313D01*
X58700Y-23427D01*
X58700Y-23627D01*
X58672Y-23742D01*
X58615Y-23799D01*
X58557Y-23827D01*
X58443Y-23827D01*
X58386Y-23799D01*
X58329Y-23742D01*
X58300Y-23627D01*
X58300Y-23427D01*
X58329Y-23313D01*
X58386Y-23256D01*
X58443Y-23227D01*
X58872Y-23227D02*
X59215Y-23227D01*
X59043Y-23827D02*
X59043Y-23227D01*
X59529Y-23227D02*
X59643Y-23227D01*
X59700Y-23256D01*
X59757Y-23313D01*
X59786Y-23427D01*
X59786Y-23627D01*
X59757Y-23742D01*
X59700Y-23799D01*
X59643Y-23827D01*
X59529Y-23827D01*
X59472Y-23799D01*
X59415Y-23742D01*
X59386Y-23627D01*
X59386Y-23427D01*
X59415Y-23313D01*
X59472Y-23256D01*
X59529Y-23227D01*
X60386Y-23827D02*
X60186Y-23542D01*
X60043Y-23827D02*
X60043Y-23227D01*
X60272Y-23227D01*
X60329Y-23256D01*
X60357Y-23285D01*
X60386Y-23342D01*
X60386Y-23427D01*
X60357Y-23485D01*
X60329Y-23513D01*
X60272Y-23542D01*
X60043Y-23542D01*
X60500Y-23885D02*
X60957Y-23885D01*
X61072Y-23285D02*
X61100Y-23256D01*
X61157Y-23227D01*
X61300Y-23227D01*
X61357Y-23256D01*
X61386Y-23285D01*
X61415Y-23342D01*
X61415Y-23399D01*
X61386Y-23485D01*
X61043Y-23827D01*
X61415Y-23827D01*
X54212Y-27837D02*
X54212Y-27237D01*
X54440Y-27237D01*
X54497Y-27266D01*
X54526Y-27295D01*
X54555Y-27352D01*
X54555Y-27437D01*
X54526Y-27495D01*
X54497Y-27523D01*
X54440Y-27552D01*
X54212Y-27552D01*
X54897Y-27495D02*
X54840Y-27466D01*
X54812Y-27437D01*
X54783Y-27380D01*
X54783Y-27352D01*
X54812Y-27295D01*
X54840Y-27266D01*
X54897Y-27237D01*
X55012Y-27237D01*
X55069Y-27266D01*
X55097Y-27295D01*
X55126Y-27352D01*
X55126Y-27380D01*
X55097Y-27437D01*
X55069Y-27466D01*
X55012Y-27495D01*
X54897Y-27495D01*
X54840Y-27523D01*
X54812Y-27552D01*
X54783Y-27609D01*
X54783Y-27723D01*
X54812Y-27780D01*
X54840Y-27809D01*
X54897Y-27837D01*
X55012Y-27837D01*
X55069Y-27809D01*
X55097Y-27780D01*
X55126Y-27723D01*
X55126Y-27609D01*
X55097Y-27552D01*
X55069Y-27523D01*
X55012Y-27495D01*
X51968Y-23782D02*
X51968Y-23182D01*
X52168Y-23611D01*
X52368Y-23182D01*
X52368Y-23782D01*
X52768Y-23182D02*
X52882Y-23182D01*
X52940Y-23211D01*
X52997Y-23268D01*
X53025Y-23382D01*
X53025Y-23582D01*
X52997Y-23697D01*
X52940Y-23754D01*
X52882Y-23782D01*
X52768Y-23782D01*
X52711Y-23754D01*
X52654Y-23697D01*
X52625Y-23582D01*
X52625Y-23382D01*
X52654Y-23268D01*
X52711Y-23211D01*
X52768Y-23182D01*
X53197Y-23182D02*
X53540Y-23182D01*
X53368Y-23782D02*
X53368Y-23182D01*
X53854Y-23182D02*
X53968Y-23182D01*
X54025Y-23211D01*
X54082Y-23268D01*
X54111Y-23382D01*
X54111Y-23582D01*
X54082Y-23697D01*
X54025Y-23754D01*
X53968Y-23782D01*
X53854Y-23782D01*
X53797Y-23754D01*
X53740Y-23697D01*
X53711Y-23582D01*
X53711Y-23382D01*
X53740Y-23268D01*
X53797Y-23211D01*
X53854Y-23182D01*
X54711Y-23782D02*
X54511Y-23497D01*
X54368Y-23782D02*
X54368Y-23182D01*
X54597Y-23182D01*
X54654Y-23211D01*
X54682Y-23240D01*
X54711Y-23297D01*
X54711Y-23382D01*
X54682Y-23440D01*
X54654Y-23468D01*
X54597Y-23497D01*
X54368Y-23497D01*
X54825Y-23840D02*
X55282Y-23840D01*
X55740Y-23782D02*
X55397Y-23782D01*
X55568Y-23782D02*
X55568Y-23182D01*
X55511Y-23268D01*
X55454Y-23325D01*
X55397Y-23354D01*
G54D18*
X62910Y-49935D02*
X62910Y-49254D01*
X63073Y-49254D01*
X63114Y-49287D01*
X63134Y-49319D01*
X63154Y-49384D01*
X63154Y-49481D01*
X63134Y-49546D01*
X63114Y-49578D01*
X63073Y-49611D01*
X62910Y-49611D01*
X63562Y-49935D02*
X63317Y-49935D01*
X63440Y-49935D02*
X63440Y-49254D01*
X63399Y-49351D01*
X63358Y-49416D01*
X63317Y-49449D01*
X63949Y-49254D02*
X63745Y-49254D01*
X63725Y-49578D01*
X63745Y-49546D01*
X63786Y-49514D01*
X63888Y-49514D01*
X63929Y-49546D01*
X63949Y-49578D01*
X63970Y-49643D01*
X63970Y-49805D01*
X63949Y-49870D01*
X63929Y-49903D01*
X63888Y-49935D01*
X63786Y-49935D01*
X63745Y-49903D01*
X63725Y-49870D01*
G54D12*
G54D16*
X62582Y-49845D02*
X62563Y-49874D01*
X62506Y-49902D01*
X62468Y-49902D01*
X62410Y-49874D01*
X62372Y-49817D01*
X62353Y-49760D01*
X62334Y-49645D01*
X62334Y-49560D01*
X62353Y-49445D01*
X62372Y-49388D01*
X62410Y-49331D01*
X62468Y-49302D01*
X62506Y-49302D01*
X62563Y-49331D01*
X62582Y-49360D01*
X62830Y-49302D02*
X62906Y-49302D01*
X62944Y-49331D01*
X62982Y-49388D01*
X63001Y-49502D01*
X63001Y-49702D01*
X62982Y-49817D01*
X62944Y-49874D01*
X62906Y-49902D01*
X62830Y-49902D01*
X62791Y-49874D01*
X62753Y-49817D01*
X62734Y-49702D01*
X62734Y-49502D01*
X62753Y-49388D01*
X62791Y-49331D01*
X62830Y-49302D01*
X63172Y-49902D02*
X63172Y-49302D01*
X63401Y-49902D01*
X63401Y-49302D01*
X63591Y-49902D02*
X63591Y-49302D01*
X63820Y-49902D01*
X63820Y-49302D01*
X63915Y-49960D02*
X64220Y-49960D01*
X64296Y-49360D02*
X64315Y-49331D01*
X64353Y-49302D01*
X64449Y-49302D01*
X64487Y-49331D01*
X64506Y-49360D01*
X64525Y-49417D01*
X64525Y-49474D01*
X64506Y-49560D01*
X64277Y-49902D01*
X64525Y-49902D01*
G54D12*
G54D18*
X61220Y-40015D02*
X61220Y-39334D01*
X61383Y-39334D01*
X61424Y-39367D01*
X61444Y-39399D01*
X61464Y-39464D01*
X61464Y-39561D01*
X61444Y-39626D01*
X61424Y-39658D01*
X61383Y-39691D01*
X61220Y-39691D01*
X61872Y-40015D02*
X61627Y-40015D01*
X61750Y-40015D02*
X61750Y-39334D01*
X61709Y-39431D01*
X61668Y-39496D01*
X61627Y-39529D01*
X62239Y-39334D02*
X62157Y-39334D01*
X62117Y-39367D01*
X62096Y-39399D01*
X62055Y-39496D01*
X62035Y-39626D01*
X62035Y-39885D01*
X62055Y-39950D01*
X62076Y-39983D01*
X62117Y-40015D01*
X62198Y-40015D01*
X62239Y-39983D01*
X62259Y-39950D01*
X62280Y-39885D01*
X62280Y-39723D01*
X62259Y-39658D01*
X62239Y-39626D01*
X62198Y-39594D01*
X62117Y-39594D01*
X62076Y-39626D01*
X62055Y-39658D01*
X62035Y-39723D01*
G54D12*
G54D16*
X62572Y-38845D02*
X62553Y-38874D01*
X62496Y-38902D01*
X62458Y-38902D01*
X62400Y-38874D01*
X62362Y-38817D01*
X62343Y-38760D01*
X62324Y-38645D01*
X62324Y-38560D01*
X62343Y-38445D01*
X62362Y-38388D01*
X62400Y-38331D01*
X62458Y-38302D01*
X62496Y-38302D01*
X62553Y-38331D01*
X62572Y-38360D01*
X62820Y-38302D02*
X62896Y-38302D01*
X62934Y-38331D01*
X62972Y-38388D01*
X62991Y-38502D01*
X62991Y-38702D01*
X62972Y-38817D01*
X62934Y-38874D01*
X62896Y-38902D01*
X62820Y-38902D01*
X62781Y-38874D01*
X62743Y-38817D01*
X62724Y-38702D01*
X62724Y-38502D01*
X62743Y-38388D01*
X62781Y-38331D01*
X62820Y-38302D01*
X63162Y-38902D02*
X63162Y-38302D01*
X63391Y-38902D01*
X63391Y-38302D01*
X63581Y-38902D02*
X63581Y-38302D01*
X63810Y-38902D01*
X63810Y-38302D01*
X63905Y-38960D02*
X64210Y-38960D01*
X64286Y-38360D02*
X64305Y-38331D01*
X64343Y-38302D01*
X64439Y-38302D01*
X64477Y-38331D01*
X64496Y-38360D01*
X64515Y-38417D01*
X64515Y-38474D01*
X64496Y-38560D01*
X64267Y-38902D01*
X64515Y-38902D01*
G54D12*
G54D18*
X56044Y-38836D02*
X56044Y-38153D01*
X56207Y-38153D01*
X56247Y-38185D01*
X56268Y-38218D01*
X56288Y-38283D01*
X56288Y-38381D01*
X56268Y-38446D01*
X56247Y-38478D01*
X56207Y-38511D01*
X56044Y-38511D01*
X56675Y-38153D02*
X56472Y-38153D01*
X56451Y-38478D01*
X56472Y-38446D01*
X56512Y-38413D01*
X56614Y-38413D01*
X56655Y-38446D01*
X56675Y-38478D01*
X56696Y-38543D01*
X56696Y-38706D01*
X56675Y-38771D01*
X56655Y-38803D01*
X56614Y-38836D01*
X56512Y-38836D01*
X56472Y-38803D01*
X56451Y-38771D01*
G54D12*
G54D16*
X55512Y-38745D02*
X55493Y-38774D01*
X55436Y-38802D01*
X55398Y-38802D01*
X55340Y-38774D01*
X55302Y-38717D01*
X55283Y-38660D01*
X55264Y-38545D01*
X55264Y-38460D01*
X55283Y-38345D01*
X55302Y-38288D01*
X55340Y-38231D01*
X55398Y-38202D01*
X55436Y-38202D01*
X55493Y-38231D01*
X55512Y-38260D01*
X55760Y-38202D02*
X55836Y-38202D01*
X55874Y-38231D01*
X55912Y-38288D01*
X55931Y-38402D01*
X55931Y-38602D01*
X55912Y-38717D01*
X55874Y-38774D01*
X55836Y-38802D01*
X55760Y-38802D01*
X55721Y-38774D01*
X55683Y-38717D01*
X55664Y-38602D01*
X55664Y-38402D01*
X55683Y-38288D01*
X55721Y-38231D01*
X55760Y-38202D01*
X56102Y-38802D02*
X56102Y-38202D01*
X56331Y-38802D01*
X56331Y-38202D01*
X56521Y-38802D02*
X56521Y-38202D01*
X56750Y-38802D01*
X56750Y-38202D01*
X56845Y-38860D02*
X57150Y-38860D01*
X57417Y-38402D02*
X57417Y-38802D01*
X57321Y-38174D02*
X57226Y-38602D01*
X57474Y-38602D01*
G54D12*
G54D23*
X70300Y-41571D02*
X70361Y-41605D01*
X70462Y-41605D01*
X70502Y-41571D01*
X70522Y-41538D01*
X70542Y-41471D01*
X70542Y-41403D01*
X70522Y-41336D01*
X70502Y-41303D01*
X70462Y-41269D01*
X70381Y-41236D01*
X70341Y-41202D01*
X70320Y-41168D01*
X70300Y-41101D01*
X70300Y-41034D01*
X70320Y-40967D01*
X70341Y-40933D01*
X70381Y-40900D01*
X70482Y-40900D01*
X70542Y-40933D01*
X70684Y-40900D02*
X70785Y-41605D01*
X70866Y-41101D01*
X70946Y-41605D01*
X71047Y-40900D01*
X71431Y-41605D02*
X71189Y-41605D01*
X71310Y-41605D02*
X71310Y-40900D01*
X71269Y-41001D01*
X71229Y-41068D01*
X71189Y-41101D01*
G54D12*
G54D16*
X69660Y-38852D02*
X69736Y-38852D01*
X69774Y-38881D01*
X69812Y-38938D01*
X69831Y-39052D01*
X69831Y-39252D01*
X69812Y-39367D01*
X69774Y-39424D01*
X69736Y-39452D01*
X69660Y-39452D01*
X69622Y-39424D01*
X69584Y-39367D01*
X69565Y-39252D01*
X69565Y-39052D01*
X69584Y-38938D01*
X69622Y-38881D01*
X69660Y-38852D01*
X70003Y-39452D02*
X70003Y-38852D01*
X70231Y-39452D01*
X70231Y-38852D01*
X70708Y-38824D02*
X70365Y-39595D01*
X70917Y-38852D02*
X70993Y-38852D01*
X71031Y-38881D01*
X71070Y-38938D01*
X71089Y-39052D01*
X71089Y-39252D01*
X71070Y-39367D01*
X71031Y-39424D01*
X70993Y-39452D01*
X70917Y-39452D01*
X70879Y-39424D01*
X70841Y-39367D01*
X70822Y-39252D01*
X70822Y-39052D01*
X70841Y-38938D01*
X70879Y-38881D01*
X70917Y-38852D01*
X71393Y-39138D02*
X71260Y-39138D01*
X71260Y-39452D02*
X71260Y-38852D01*
X71450Y-38852D01*
X71736Y-39138D02*
X71603Y-39138D01*
X71603Y-39452D02*
X71603Y-38852D01*
X71793Y-38852D01*
G54D12*
G54D23*
X70168Y-39141D02*
X70229Y-39175D01*
X70330Y-39175D01*
X70370Y-39141D01*
X70390Y-39108D01*
X70410Y-39041D01*
X70410Y-38973D01*
X70390Y-38906D01*
X70370Y-38873D01*
X70330Y-38839D01*
X70249Y-38806D01*
X70209Y-38772D01*
X70188Y-38738D01*
X70168Y-38671D01*
X70168Y-38604D01*
X70188Y-38537D01*
X70209Y-38503D01*
X70249Y-38470D01*
X70350Y-38470D01*
X70410Y-38503D01*
X70552Y-38470D02*
X70653Y-39175D01*
X70734Y-38671D01*
X70814Y-39175D01*
X70915Y-38470D01*
X71036Y-38470D02*
X71299Y-38470D01*
X71158Y-38738D01*
X71218Y-38738D01*
X71258Y-38772D01*
X71279Y-38806D01*
X71299Y-38873D01*
X71299Y-39041D01*
X71279Y-39108D01*
X71258Y-39141D01*
X71218Y-39175D01*
X71097Y-39175D01*
X71057Y-39141D01*
X71036Y-39108D01*
G54D12*
G54D16*
X69790Y-38542D02*
X69866Y-38542D01*
X69904Y-38571D01*
X69942Y-38628D01*
X69961Y-38742D01*
X69961Y-38942D01*
X69942Y-39057D01*
X69904Y-39114D01*
X69866Y-39142D01*
X69790Y-39142D01*
X69752Y-39114D01*
X69714Y-39057D01*
X69695Y-38942D01*
X69695Y-38742D01*
X69714Y-38628D01*
X69752Y-38571D01*
X69790Y-38542D01*
X70133Y-39142D02*
X70133Y-38542D01*
X70361Y-39142D01*
X70361Y-38542D01*
X70838Y-38514D02*
X70495Y-39285D01*
X71047Y-38542D02*
X71123Y-38542D01*
X71161Y-38571D01*
X71200Y-38628D01*
X71219Y-38742D01*
X71219Y-38942D01*
X71200Y-39057D01*
X71161Y-39114D01*
X71123Y-39142D01*
X71047Y-39142D01*
X71009Y-39114D01*
X70971Y-39057D01*
X70952Y-38942D01*
X70952Y-38742D01*
X70971Y-38628D01*
X71009Y-38571D01*
X71047Y-38542D01*
X71523Y-38828D02*
X71390Y-38828D01*
X71390Y-39142D02*
X71390Y-38542D01*
X71580Y-38542D01*
X71866Y-38828D02*
X71733Y-38828D01*
X71733Y-39142D02*
X71733Y-38542D01*
X71923Y-38542D01*
G54D12*
G54D18*
X55035Y-38599D02*
X54354Y-38599D01*
X54354Y-38436D01*
X54387Y-38395D01*
X54419Y-38375D01*
X54484Y-38355D01*
X54581Y-38355D01*
X54646Y-38375D01*
X54678Y-38395D01*
X54711Y-38436D01*
X54711Y-38599D01*
X55035Y-37947D02*
X55035Y-38192D01*
X55035Y-38069D02*
X54354Y-38069D01*
X54451Y-38110D01*
X54516Y-38151D01*
X54549Y-38192D01*
X54354Y-37804D02*
X54354Y-37519D01*
X55035Y-37702D01*
G54D12*
G54D16*
X53918Y-37321D02*
X53318Y-37321D01*
X53318Y-37226D01*
X53347Y-37168D01*
X53404Y-37130D01*
X53461Y-37111D01*
X53576Y-37092D01*
X53661Y-37092D01*
X53776Y-37111D01*
X53833Y-37130D01*
X53890Y-37168D01*
X53918Y-37226D01*
X53918Y-37321D01*
X53861Y-36692D02*
X53890Y-36711D01*
X53918Y-36768D01*
X53918Y-36807D01*
X53890Y-36864D01*
X53833Y-36902D01*
X53776Y-36921D01*
X53661Y-36940D01*
X53576Y-36940D01*
X53461Y-36921D01*
X53404Y-36902D01*
X53347Y-36864D01*
X53318Y-36807D01*
X53318Y-36768D01*
X53347Y-36711D01*
X53376Y-36692D01*
X53976Y-36616D02*
X53976Y-36311D01*
X53918Y-36159D02*
X53890Y-36197D01*
X53861Y-36216D01*
X53804Y-36235D01*
X53633Y-36235D01*
X53576Y-36216D01*
X53547Y-36197D01*
X53518Y-36159D01*
X53518Y-36102D01*
X53547Y-36064D01*
X53576Y-36045D01*
X53633Y-36026D01*
X53804Y-36026D01*
X53861Y-36045D01*
X53890Y-36064D01*
X53918Y-36102D01*
X53918Y-36159D01*
X53518Y-35683D02*
X53918Y-35683D01*
X53518Y-35854D02*
X53833Y-35854D01*
X53890Y-35835D01*
X53918Y-35797D01*
X53918Y-35740D01*
X53890Y-35702D01*
X53861Y-35683D01*
X53518Y-35549D02*
X53518Y-35397D01*
X53318Y-35492D02*
X53833Y-35492D01*
X53890Y-35473D01*
X53918Y-35435D01*
X53918Y-35397D01*
G54D12*
G54D14*
X67353Y-51872D02*
X67186Y-51610D01*
X67067Y-51872D02*
X67067Y-51322D01*
X67258Y-51322D01*
X67305Y-51348D01*
X67329Y-51375D01*
X67353Y-51427D01*
X67353Y-51505D01*
X67329Y-51558D01*
X67305Y-51584D01*
X67258Y-51610D01*
X67067Y-51610D01*
X67829Y-51872D02*
X67544Y-51872D01*
X67686Y-51872D02*
X67686Y-51322D01*
X67639Y-51401D01*
X67591Y-51453D01*
X67544Y-51479D01*
X67996Y-51322D02*
X68329Y-51322D01*
X68115Y-51872D01*
X67709Y-51435D02*
X67709Y-51802D01*
X67590Y-51226D02*
X67470Y-51619D01*
X67780Y-51619D01*
X67923Y-51252D02*
X68256Y-51252D01*
X68042Y-51802D01*
X68542Y-51252D02*
X68590Y-51252D01*
X68637Y-51278D01*
X68661Y-51305D01*
X68685Y-51357D01*
X68709Y-51462D01*
X68709Y-51593D01*
X68685Y-51697D01*
X68661Y-51750D01*
X68637Y-51776D01*
X68590Y-51802D01*
X68542Y-51802D01*
X68494Y-51776D01*
X68470Y-51750D01*
X68447Y-51697D01*
X68423Y-51593D01*
X68423Y-51462D01*
X68447Y-51357D01*
X68470Y-51305D01*
X68494Y-51278D01*
X68542Y-51252D01*
X68676Y-49959D02*
X69000Y-49959D01*
X69038Y-49940D01*
X69057Y-49921D01*
X69076Y-49883D01*
X69076Y-49807D01*
X69057Y-49769D01*
X69038Y-49750D01*
X69000Y-49731D01*
X68676Y-49731D01*
X68676Y-49350D02*
X68676Y-49540D01*
X68867Y-49559D01*
X68848Y-49540D01*
X68829Y-49502D01*
X68829Y-49407D01*
X68848Y-49369D01*
X68867Y-49350D01*
X68905Y-49331D01*
X69000Y-49331D01*
X69038Y-49350D01*
X69057Y-49369D01*
X69076Y-49407D01*
X69076Y-49502D01*
X69057Y-49540D01*
X69038Y-49559D01*
X72176Y-50521D02*
X72176Y-50255D01*
X72576Y-50426D01*
X72348Y-50045D02*
X72329Y-50083D01*
X72310Y-50102D01*
X72272Y-50121D01*
X72253Y-50121D01*
X72215Y-50102D01*
X72195Y-50083D01*
X72176Y-50045D01*
X72176Y-49969D01*
X72195Y-49931D01*
X72215Y-49912D01*
X72253Y-49893D01*
X72272Y-49893D01*
X72310Y-49912D01*
X72329Y-49931D01*
X72348Y-49969D01*
X72348Y-50045D01*
X72367Y-50083D01*
X72386Y-50102D01*
X72424Y-50121D01*
X72500Y-50121D01*
X72538Y-50102D01*
X72557Y-50083D01*
X72576Y-50045D01*
X72576Y-49969D01*
X72557Y-49931D01*
X72538Y-49912D01*
X72500Y-49893D01*
X72424Y-49893D01*
X72386Y-49912D01*
X72367Y-49931D01*
X72348Y-49969D01*
X72576Y-49531D02*
X72576Y-49721D01*
X72176Y-49721D01*
X72176Y-49321D02*
X72176Y-49283D01*
X72195Y-49245D01*
X72215Y-49226D01*
X72253Y-49207D01*
X72329Y-49188D01*
X72424Y-49188D01*
X72500Y-49207D01*
X72538Y-49226D01*
X72557Y-49245D01*
X72576Y-49283D01*
X72576Y-49321D01*
X72557Y-49359D01*
X72538Y-49378D01*
X72500Y-49397D01*
X72424Y-49416D01*
X72329Y-49416D01*
X72253Y-49397D01*
X72215Y-49378D01*
X72195Y-49359D01*
X72176Y-49321D01*
X72176Y-48826D02*
X72176Y-49016D01*
X72367Y-49035D01*
X72348Y-49016D01*
X72329Y-48978D01*
X72329Y-48883D01*
X72348Y-48845D01*
X72367Y-48826D01*
X72405Y-48807D01*
X72500Y-48807D01*
X72538Y-48826D01*
X72557Y-48845D01*
X72576Y-48883D01*
X72576Y-48978D01*
X72557Y-49016D01*
X72538Y-49035D01*
G54D19*
X67401Y-53809D02*
X67101Y-53809D01*
X67101Y-53737D01*
X67115Y-53695D01*
X67144Y-53666D01*
X67172Y-53652D01*
X67230Y-53637D01*
X67272Y-53637D01*
X67330Y-53652D01*
X67358Y-53666D01*
X67387Y-53695D01*
X67401Y-53737D01*
X67401Y-53809D01*
X67401Y-53352D02*
X67401Y-53523D01*
X67401Y-53437D02*
X67101Y-53437D01*
X67144Y-53466D01*
X67172Y-53495D01*
X67187Y-53523D01*
X67101Y-53252D02*
X67101Y-53066D01*
X67215Y-53166D01*
X67215Y-53123D01*
X67230Y-53095D01*
X67244Y-53080D01*
X67272Y-53066D01*
X67344Y-53066D01*
X67372Y-53080D01*
X67387Y-53095D01*
X67401Y-53123D01*
X67401Y-53209D01*
X67387Y-53237D01*
X67372Y-53252D01*
X64401Y-53637D02*
X64401Y-53780D01*
X64101Y-53780D01*
X64244Y-53537D02*
X64244Y-53437D01*
X64401Y-53395D02*
X64401Y-53537D01*
X64101Y-53537D01*
X64101Y-53395D01*
X64401Y-53266D02*
X64101Y-53266D01*
X64101Y-53195D01*
X64115Y-53152D01*
X64144Y-53123D01*
X64172Y-53109D01*
X64230Y-53095D01*
X64272Y-53095D01*
X64330Y-53109D01*
X64358Y-53123D01*
X64387Y-53152D01*
X64401Y-53195D01*
X64401Y-53266D01*
G54D11*
X68220Y-32243D02*
X68205Y-32258D01*
X68162Y-32272D01*
X68134Y-32272D01*
X68091Y-32258D01*
X68062Y-32229D01*
X68048Y-32201D01*
X68034Y-32143D01*
X68034Y-32101D01*
X68048Y-32043D01*
X68062Y-32015D01*
X68091Y-31986D01*
X68134Y-31972D01*
X68162Y-31972D01*
X68205Y-31986D01*
X68220Y-32001D01*
X68320Y-31972D02*
X68520Y-31972D01*
X68391Y-32272D01*
X67838Y-33496D02*
X67695Y-33496D01*
X67766Y-33496D02*
X67766Y-33196D01*
X67742Y-33239D01*
X67719Y-33267D01*
X67695Y-33282D01*
X67992Y-33196D02*
X68016Y-33196D01*
X68040Y-33210D01*
X68052Y-33225D01*
X68064Y-33253D01*
X68076Y-33310D01*
X68076Y-33382D01*
X68064Y-33439D01*
X68052Y-33467D01*
X68040Y-33482D01*
X68016Y-33496D01*
X67992Y-33496D01*
X67969Y-33482D01*
X67957Y-33467D01*
X67945Y-33439D01*
X67933Y-33382D01*
X67933Y-33310D01*
X67945Y-33253D01*
X67957Y-33225D01*
X67969Y-33210D01*
X67992Y-33196D01*
X68230Y-33196D02*
X68254Y-33196D01*
X68278Y-33210D01*
X68290Y-33225D01*
X68302Y-33253D01*
X68314Y-33310D01*
X68314Y-33382D01*
X68302Y-33439D01*
X68290Y-33467D01*
X68278Y-33482D01*
X68254Y-33496D01*
X68230Y-33496D01*
X68207Y-33482D01*
X68195Y-33467D01*
X68183Y-33439D01*
X68171Y-33382D01*
X68171Y-33310D01*
X68183Y-33253D01*
X68195Y-33225D01*
X68207Y-33210D01*
X68230Y-33196D01*
X68528Y-33296D02*
X68528Y-33496D01*
X68421Y-33296D02*
X68421Y-33453D01*
X68433Y-33482D01*
X68457Y-33496D01*
X68492Y-33496D01*
X68516Y-33482D01*
X68528Y-33467D01*
X68730Y-33339D02*
X68647Y-33339D01*
X68647Y-33496D02*
X68647Y-33196D01*
X68766Y-33196D01*
G54D22*
X67255Y-32657D02*
X67484Y-32657D01*
X67370Y-32771D02*
X67370Y-32542D01*
G54D14*
G54D11*
X67650Y-50592D02*
X67635Y-50607D01*
X67592Y-50621D01*
X67564Y-50621D01*
X67521Y-50607D01*
X67492Y-50578D01*
X67478Y-50550D01*
X67464Y-50492D01*
X67464Y-50450D01*
X67478Y-50392D01*
X67492Y-50364D01*
X67521Y-50335D01*
X67564Y-50321D01*
X67592Y-50321D01*
X67635Y-50335D01*
X67650Y-50350D01*
X67907Y-50321D02*
X67850Y-50321D01*
X67821Y-50335D01*
X67807Y-50350D01*
X67778Y-50392D01*
X67764Y-50450D01*
X67764Y-50564D01*
X67778Y-50592D01*
X67792Y-50607D01*
X67821Y-50621D01*
X67878Y-50621D01*
X67907Y-50607D01*
X67921Y-50592D01*
X67935Y-50564D01*
X67935Y-50492D01*
X67921Y-50464D01*
X67907Y-50450D01*
X67878Y-50435D01*
X67821Y-50435D01*
X67792Y-50450D01*
X67778Y-50464D01*
X67764Y-50492D01*
X67117Y-49321D02*
X66974Y-49321D01*
X67046Y-49321D02*
X67046Y-49021D01*
X67022Y-49064D01*
X66998Y-49092D01*
X66974Y-49107D01*
X67272Y-49021D02*
X67296Y-49021D01*
X67320Y-49035D01*
X67332Y-49050D01*
X67344Y-49078D01*
X67355Y-49135D01*
X67355Y-49207D01*
X67344Y-49264D01*
X67332Y-49292D01*
X67320Y-49307D01*
X67296Y-49321D01*
X67272Y-49321D01*
X67248Y-49307D01*
X67236Y-49292D01*
X67224Y-49264D01*
X67213Y-49207D01*
X67213Y-49135D01*
X67224Y-49078D01*
X67236Y-49050D01*
X67248Y-49035D01*
X67272Y-49021D01*
X67510Y-49021D02*
X67534Y-49021D01*
X67558Y-49035D01*
X67570Y-49050D01*
X67582Y-49078D01*
X67594Y-49135D01*
X67594Y-49207D01*
X67582Y-49264D01*
X67570Y-49292D01*
X67558Y-49307D01*
X67534Y-49321D01*
X67510Y-49321D01*
X67486Y-49307D01*
X67475Y-49292D01*
X67463Y-49264D01*
X67451Y-49207D01*
X67451Y-49135D01*
X67463Y-49078D01*
X67475Y-49050D01*
X67486Y-49035D01*
X67510Y-49021D01*
X67998Y-49121D02*
X67998Y-49321D01*
X67891Y-49121D02*
X67891Y-49278D01*
X67903Y-49307D01*
X67927Y-49321D01*
X67963Y-49321D01*
X67986Y-49307D01*
X67998Y-49292D01*
X68201Y-49164D02*
X68117Y-49164D01*
X68117Y-49321D02*
X68117Y-49021D01*
X68236Y-49021D01*
G54D22*
X68385Y-49807D02*
X68614Y-49807D01*
X68500Y-49921D02*
X68500Y-49692D01*
G54D14*
G54D11*
X69326Y-53465D02*
X69341Y-53479D01*
X69355Y-53522D01*
X69355Y-53550D01*
X69341Y-53593D01*
X69312Y-53622D01*
X69284Y-53636D01*
X69226Y-53650D01*
X69184Y-53650D01*
X69126Y-53636D01*
X69098Y-53622D01*
X69069Y-53593D01*
X69055Y-53550D01*
X69055Y-53522D01*
X69069Y-53479D01*
X69084Y-53465D01*
X69184Y-53293D02*
X69169Y-53322D01*
X69155Y-53336D01*
X69126Y-53350D01*
X69112Y-53350D01*
X69084Y-53336D01*
X69069Y-53322D01*
X69055Y-53293D01*
X69055Y-53236D01*
X69069Y-53207D01*
X69084Y-53193D01*
X69112Y-53179D01*
X69126Y-53179D01*
X69155Y-53193D01*
X69169Y-53207D01*
X69184Y-53236D01*
X69184Y-53293D01*
X69198Y-53322D01*
X69212Y-53336D01*
X69241Y-53350D01*
X69298Y-53350D01*
X69326Y-53336D01*
X69341Y-53322D01*
X69355Y-53293D01*
X69355Y-53236D01*
X69341Y-53207D01*
X69326Y-53193D01*
X69298Y-53179D01*
X69241Y-53179D01*
X69212Y-53193D01*
X69198Y-53207D01*
X69184Y-53236D01*
X68356Y-53897D02*
X68356Y-54040D01*
X68356Y-53968D02*
X68056Y-53968D01*
X68099Y-53992D01*
X68127Y-54016D01*
X68142Y-54040D01*
X68056Y-53742D02*
X68056Y-53718D01*
X68070Y-53694D01*
X68085Y-53682D01*
X68113Y-53670D01*
X68170Y-53659D01*
X68242Y-53659D01*
X68299Y-53670D01*
X68327Y-53682D01*
X68342Y-53694D01*
X68356Y-53718D01*
X68356Y-53742D01*
X68342Y-53766D01*
X68327Y-53778D01*
X68299Y-53790D01*
X68242Y-53801D01*
X68170Y-53801D01*
X68113Y-53790D01*
X68085Y-53778D01*
X68070Y-53766D01*
X68056Y-53742D01*
X68056Y-53504D02*
X68056Y-53480D01*
X68070Y-53456D01*
X68085Y-53444D01*
X68113Y-53432D01*
X68170Y-53420D01*
X68242Y-53420D01*
X68299Y-53432D01*
X68327Y-53444D01*
X68342Y-53456D01*
X68356Y-53480D01*
X68356Y-53504D01*
X68342Y-53528D01*
X68327Y-53540D01*
X68299Y-53551D01*
X68242Y-53563D01*
X68170Y-53563D01*
X68113Y-53551D01*
X68085Y-53540D01*
X68070Y-53528D01*
X68056Y-53504D01*
X68156Y-53016D02*
X68356Y-53016D01*
X68156Y-53123D02*
X68313Y-53123D01*
X68342Y-53111D01*
X68356Y-53087D01*
X68356Y-53051D01*
X68342Y-53028D01*
X68327Y-53016D01*
X68199Y-52813D02*
X68199Y-52897D01*
X68356Y-52897D02*
X68056Y-52897D01*
X68056Y-52778D01*
G54D22*
X68742Y-52629D02*
X68742Y-52400D01*
X68856Y-52515D02*
X68627Y-52515D01*
G54D14*
X62823Y-32256D02*
X62842Y-32275D01*
X62861Y-32332D01*
X62861Y-32370D01*
X62842Y-32428D01*
X62804Y-32466D01*
X62766Y-32485D01*
X62690Y-32504D01*
X62633Y-32504D01*
X62557Y-32485D01*
X62519Y-32466D01*
X62480Y-32428D01*
X62461Y-32370D01*
X62461Y-32332D01*
X62480Y-32275D01*
X62500Y-32256D01*
X62861Y-32066D02*
X62861Y-31989D01*
X62842Y-31951D01*
X62823Y-31932D01*
X62766Y-31894D01*
X62690Y-31875D01*
X62538Y-31875D01*
X62500Y-31894D01*
X62480Y-31913D01*
X62461Y-31951D01*
X62461Y-32028D01*
X62480Y-32066D01*
X62500Y-32085D01*
X62538Y-32104D01*
X62633Y-32104D01*
X62671Y-32085D01*
X62690Y-32066D01*
X62709Y-32028D01*
X62709Y-31951D01*
X62690Y-31913D01*
X62671Y-31894D01*
X62633Y-31875D01*
X62461Y-32747D02*
X62461Y-32709D01*
X62480Y-32670D01*
X62500Y-32651D01*
X62538Y-32632D01*
X62614Y-32613D01*
X62709Y-32613D01*
X62785Y-32632D01*
X62823Y-32651D01*
X62842Y-32670D01*
X62861Y-32709D01*
X62861Y-32747D01*
X62842Y-32785D01*
X62823Y-32804D01*
X62785Y-32823D01*
X62709Y-32842D01*
X62614Y-32842D01*
X62538Y-32823D01*
X62500Y-32804D01*
X62480Y-32785D01*
X62461Y-32747D01*
X62842Y-32423D02*
X62861Y-32423D01*
X62900Y-32442D01*
X62919Y-32461D01*
X62861Y-32042D02*
X62861Y-32270D01*
X62861Y-32156D02*
X62461Y-32156D01*
X62519Y-32194D01*
X62557Y-32232D01*
X62576Y-32270D01*
X62595Y-31699D02*
X62861Y-31699D01*
X62595Y-31870D02*
X62804Y-31870D01*
X62842Y-31851D01*
X62861Y-31813D01*
X62861Y-31756D01*
X62842Y-31718D01*
X62823Y-31699D01*
X62652Y-31375D02*
X62652Y-31509D01*
X62861Y-31509D02*
X62461Y-31509D01*
X62461Y-31318D01*
X65023Y-50157D02*
X65042Y-50176D01*
X65061Y-50233D01*
X65061Y-50271D01*
X65042Y-50328D01*
X65004Y-50366D01*
X64966Y-50385D01*
X64890Y-50404D01*
X64833Y-50404D01*
X64757Y-50385D01*
X64719Y-50366D01*
X64680Y-50328D01*
X64661Y-50271D01*
X64661Y-50233D01*
X64680Y-50176D01*
X64700Y-50157D01*
X65061Y-49776D02*
X65061Y-50004D01*
X65061Y-49890D02*
X64661Y-49890D01*
X64719Y-49928D01*
X64757Y-49966D01*
X64776Y-50004D01*
X64661Y-49528D02*
X64661Y-49490D01*
X64680Y-49452D01*
X64700Y-49433D01*
X64738Y-49414D01*
X64814Y-49395D01*
X64909Y-49395D01*
X64985Y-49414D01*
X65023Y-49433D01*
X65042Y-49452D01*
X65061Y-49490D01*
X65061Y-49528D01*
X65042Y-49566D01*
X65023Y-49585D01*
X64985Y-49604D01*
X64909Y-49623D01*
X64814Y-49623D01*
X64738Y-49604D01*
X64700Y-49585D01*
X64680Y-49566D01*
X64661Y-49528D01*
X64661Y-50809D02*
X64661Y-50771D01*
X64680Y-50733D01*
X64700Y-50714D01*
X64738Y-50695D01*
X64814Y-50676D01*
X64909Y-50676D01*
X64985Y-50695D01*
X65023Y-50714D01*
X65042Y-50733D01*
X65061Y-50771D01*
X65061Y-50809D01*
X65042Y-50847D01*
X65023Y-50866D01*
X64985Y-50885D01*
X64909Y-50904D01*
X64814Y-50904D01*
X64738Y-50885D01*
X64700Y-50866D01*
X64680Y-50847D01*
X64661Y-50809D01*
X65042Y-50485D02*
X65061Y-50485D01*
X65100Y-50504D01*
X65119Y-50523D01*
X65061Y-50104D02*
X65061Y-50333D01*
X65061Y-50219D02*
X64661Y-50219D01*
X64719Y-50257D01*
X64757Y-50295D01*
X64776Y-50333D01*
X64795Y-49457D02*
X65061Y-49457D01*
X64795Y-49628D02*
X65004Y-49628D01*
X65042Y-49609D01*
X65061Y-49571D01*
X65061Y-49514D01*
X65042Y-49476D01*
X65023Y-49457D01*
X64852Y-49133D02*
X64852Y-49266D01*
X65061Y-49266D02*
X64661Y-49266D01*
X64661Y-49076D01*
X55322Y-49113D02*
X55303Y-49132D01*
X55246Y-49151D01*
X55208Y-49151D01*
X55151Y-49132D01*
X55113Y-49094D01*
X55094Y-49056D01*
X55075Y-48980D01*
X55075Y-48923D01*
X55094Y-48847D01*
X55113Y-48809D01*
X55151Y-48770D01*
X55208Y-48751D01*
X55246Y-48751D01*
X55303Y-48770D01*
X55322Y-48790D01*
X55703Y-49151D02*
X55475Y-49151D01*
X55589Y-49151D02*
X55589Y-48751D01*
X55551Y-48809D01*
X55513Y-48847D01*
X55475Y-48866D01*
X56084Y-49151D02*
X55856Y-49151D01*
X55970Y-49151D02*
X55970Y-48751D01*
X55932Y-48809D01*
X55894Y-48847D01*
X55856Y-48866D01*
X54882Y-47251D02*
X54920Y-47251D01*
X54959Y-47270D01*
X54978Y-47290D01*
X54997Y-47328D01*
X55016Y-47404D01*
X55016Y-47499D01*
X54997Y-47575D01*
X54978Y-47613D01*
X54959Y-47632D01*
X54920Y-47651D01*
X54882Y-47651D01*
X54844Y-47632D01*
X54825Y-47613D01*
X54806Y-47575D01*
X54787Y-47499D01*
X54787Y-47404D01*
X54806Y-47328D01*
X54825Y-47290D01*
X54844Y-47270D01*
X54882Y-47251D01*
X55206Y-47632D02*
X55206Y-47651D01*
X55187Y-47690D01*
X55168Y-47709D01*
X55587Y-47651D02*
X55359Y-47651D01*
X55473Y-47651D02*
X55473Y-47251D01*
X55435Y-47309D01*
X55397Y-47347D01*
X55359Y-47366D01*
X55930Y-47385D02*
X55930Y-47651D01*
X55759Y-47385D02*
X55759Y-47594D01*
X55778Y-47632D01*
X55816Y-47651D01*
X55873Y-47651D01*
X55911Y-47632D01*
X55930Y-47613D01*
X56254Y-47442D02*
X56120Y-47442D01*
X56120Y-47651D02*
X56120Y-47251D01*
X56311Y-47251D01*
X53162Y-31553D02*
X53143Y-31572D01*
X53086Y-31591D01*
X53048Y-31591D01*
X52991Y-31572D01*
X52953Y-31534D01*
X52934Y-31496D01*
X52915Y-31420D01*
X52915Y-31363D01*
X52934Y-31287D01*
X52953Y-31249D01*
X52991Y-31210D01*
X53048Y-31191D01*
X53086Y-31191D01*
X53143Y-31210D01*
X53162Y-31230D01*
X53543Y-31591D02*
X53315Y-31591D01*
X53429Y-31591D02*
X53429Y-31191D01*
X53391Y-31249D01*
X53353Y-31287D01*
X53315Y-31306D01*
X53696Y-31230D02*
X53715Y-31210D01*
X53753Y-31191D01*
X53848Y-31191D01*
X53886Y-31210D01*
X53905Y-31230D01*
X53924Y-31268D01*
X53924Y-31306D01*
X53905Y-31363D01*
X53677Y-31591D01*
X53924Y-31591D01*
X54260Y-32231D02*
X54298Y-32231D01*
X54336Y-32250D01*
X54355Y-32270D01*
X54374Y-32308D01*
X54393Y-32384D01*
X54393Y-32479D01*
X54374Y-32555D01*
X54355Y-32593D01*
X54336Y-32612D01*
X54298Y-32631D01*
X54260Y-32631D01*
X54222Y-32612D01*
X54203Y-32593D01*
X54184Y-32555D01*
X54165Y-32479D01*
X54165Y-32384D01*
X54184Y-32308D01*
X54203Y-32270D01*
X54222Y-32250D01*
X54260Y-32231D01*
X54584Y-32612D02*
X54584Y-32631D01*
X54565Y-32670D01*
X54546Y-32689D01*
X54965Y-32631D02*
X54736Y-32631D01*
X54850Y-32631D02*
X54850Y-32231D01*
X54812Y-32289D01*
X54774Y-32327D01*
X54736Y-32346D01*
X55612Y-32365D02*
X55612Y-32631D01*
X55441Y-32365D02*
X55441Y-32574D01*
X55460Y-32612D01*
X55498Y-32631D01*
X55555Y-32631D01*
X55593Y-32612D01*
X55612Y-32593D01*
X55936Y-32422D02*
X55803Y-32422D01*
X55803Y-32631D02*
X55803Y-32231D01*
X55993Y-32231D01*
X52313Y-37437D02*
X52332Y-37456D01*
X52351Y-37513D01*
X52351Y-37551D01*
X52332Y-37608D01*
X52294Y-37646D01*
X52256Y-37665D01*
X52180Y-37684D01*
X52123Y-37684D01*
X52047Y-37665D01*
X52009Y-37646D01*
X51970Y-37608D01*
X51951Y-37551D01*
X51951Y-37513D01*
X51970Y-37456D01*
X51990Y-37437D01*
X52351Y-37056D02*
X52351Y-37284D01*
X52351Y-37170D02*
X51951Y-37170D01*
X52009Y-37208D01*
X52047Y-37246D01*
X52066Y-37284D01*
X51951Y-36922D02*
X51951Y-36675D01*
X52104Y-36808D01*
X52104Y-36751D01*
X52123Y-36713D01*
X52142Y-36694D01*
X52180Y-36675D01*
X52275Y-36675D01*
X52313Y-36694D01*
X52332Y-36713D01*
X52351Y-36751D01*
X52351Y-36865D01*
X52332Y-36903D01*
X52313Y-36922D01*
X49990Y-37861D02*
X50028Y-37861D01*
X50066Y-37880D01*
X50085Y-37900D01*
X50104Y-37938D01*
X50123Y-38014D01*
X50123Y-38109D01*
X50104Y-38185D01*
X50085Y-38223D01*
X50066Y-38242D01*
X50028Y-38261D01*
X49990Y-38261D01*
X49952Y-38242D01*
X49933Y-38223D01*
X49914Y-38185D01*
X49895Y-38109D01*
X49895Y-38014D01*
X49914Y-37938D01*
X49933Y-37900D01*
X49952Y-37880D01*
X49990Y-37861D01*
X50314Y-38242D02*
X50314Y-38261D01*
X50295Y-38300D01*
X50276Y-38319D01*
X50695Y-38261D02*
X50466Y-38261D01*
X50580Y-38261D02*
X50580Y-37861D01*
X50542Y-37919D01*
X50504Y-37957D01*
X50466Y-37976D01*
X51342Y-37995D02*
X51342Y-38261D01*
X51171Y-37995D02*
X51171Y-38204D01*
X51190Y-38242D01*
X51228Y-38261D01*
X51285Y-38261D01*
X51323Y-38242D01*
X51342Y-38223D01*
X51666Y-38052D02*
X51533Y-38052D01*
X51533Y-38261D02*
X51533Y-37861D01*
X51723Y-37861D01*
G54D16*
X71209Y-53361D02*
X70980Y-53361D01*
X71095Y-53361D02*
X71095Y-52961D01*
X71057Y-53019D01*
X71019Y-53057D01*
X70980Y-53076D01*
X71380Y-53361D02*
X71380Y-52961D01*
X71533Y-52961D01*
X71571Y-52980D01*
X71590Y-53000D01*
X71609Y-53038D01*
X71609Y-53095D01*
X71590Y-53133D01*
X71571Y-53152D01*
X71533Y-53171D01*
X71380Y-53171D01*
X71780Y-53361D02*
X71780Y-52961D01*
X71971Y-53361D02*
X71971Y-52961D01*
X72200Y-53361D01*
X72200Y-52961D01*
X71038Y-55661D02*
X71038Y-55261D01*
X71190Y-55261D01*
X71228Y-55280D01*
X71247Y-55300D01*
X71266Y-55338D01*
X71266Y-55395D01*
X71247Y-55433D01*
X71228Y-55452D01*
X71190Y-55471D01*
X71038Y-55471D01*
X71495Y-55261D02*
X71495Y-55357D01*
X71400Y-55319D02*
X71495Y-55357D01*
X71590Y-55319D01*
X71438Y-55433D02*
X71495Y-55357D01*
X71552Y-55433D01*
X71800Y-55261D02*
X71800Y-55357D01*
X71704Y-55319D02*
X71800Y-55357D01*
X71895Y-55319D01*
X71742Y-55433D02*
X71800Y-55357D01*
X71857Y-55433D01*
X72104Y-55261D02*
X72104Y-55357D01*
X72009Y-55319D02*
X72104Y-55357D01*
X72200Y-55319D01*
X72047Y-55433D02*
X72104Y-55357D01*
X72161Y-55433D01*
X71209Y-24861D02*
X70980Y-24861D01*
X71095Y-24861D02*
X71095Y-24461D01*
X71057Y-24519D01*
X71019Y-24557D01*
X70980Y-24576D01*
X71380Y-24861D02*
X71380Y-24461D01*
X71533Y-24461D01*
X71571Y-24480D01*
X71590Y-24500D01*
X71609Y-24538D01*
X71609Y-24595D01*
X71590Y-24633D01*
X71571Y-24652D01*
X71533Y-24671D01*
X71380Y-24671D01*
X71780Y-24861D02*
X71780Y-24461D01*
X71971Y-24861D02*
X71971Y-24461D01*
X72200Y-24861D01*
X72200Y-24461D01*
X71038Y-27161D02*
X71038Y-26761D01*
X71190Y-26761D01*
X71228Y-26780D01*
X71247Y-26800D01*
X71266Y-26838D01*
X71266Y-26895D01*
X71247Y-26933D01*
X71228Y-26952D01*
X71190Y-26971D01*
X71038Y-26971D01*
X71495Y-26761D02*
X71495Y-26857D01*
X71400Y-26819D02*
X71495Y-26857D01*
X71590Y-26819D01*
X71438Y-26933D02*
X71495Y-26857D01*
X71552Y-26933D01*
X71800Y-26761D02*
X71800Y-26857D01*
X71704Y-26819D02*
X71800Y-26857D01*
X71895Y-26819D01*
X71742Y-26933D02*
X71800Y-26857D01*
X71857Y-26933D01*
X72104Y-26761D02*
X72104Y-26857D01*
X72009Y-26819D02*
X72104Y-26857D01*
X72200Y-26819D01*
X72047Y-26933D02*
X72104Y-26857D01*
X72161Y-26933D01*
X51909Y-27111D02*
X51680Y-27111D01*
X51795Y-27111D02*
X51795Y-26711D01*
X51757Y-26769D01*
X51719Y-26807D01*
X51680Y-26826D01*
X52080Y-27111D02*
X52080Y-26711D01*
X52233Y-26711D01*
X52271Y-26730D01*
X52290Y-26750D01*
X52309Y-26788D01*
X52309Y-26845D01*
X52290Y-26883D01*
X52271Y-26902D01*
X52233Y-26921D01*
X52080Y-26921D01*
X52480Y-27111D02*
X52480Y-26711D01*
X52671Y-27111D02*
X52671Y-26711D01*
X52900Y-27111D01*
X52900Y-26711D01*
X51738Y-29411D02*
X51738Y-29011D01*
X51890Y-29011D01*
X51928Y-29030D01*
X51947Y-29050D01*
X51966Y-29088D01*
X51966Y-29145D01*
X51947Y-29183D01*
X51928Y-29202D01*
X51890Y-29221D01*
X51738Y-29221D01*
X52195Y-29011D02*
X52195Y-29107D01*
X52100Y-29069D02*
X52195Y-29107D01*
X52290Y-29069D01*
X52138Y-29183D02*
X52195Y-29107D01*
X52252Y-29183D01*
X52500Y-29011D02*
X52500Y-29107D01*
X52404Y-29069D02*
X52500Y-29107D01*
X52595Y-29069D01*
X52442Y-29183D02*
X52500Y-29107D01*
X52557Y-29183D01*
X52804Y-29011D02*
X52804Y-29107D01*
X52709Y-29069D02*
X52804Y-29107D01*
X52900Y-29069D01*
X52747Y-29183D02*
X52804Y-29107D01*
X52861Y-29183D01*
X39059Y-53611D02*
X38830Y-53611D01*
X38945Y-53611D02*
X38945Y-53211D01*
X38907Y-53269D01*
X38869Y-53307D01*
X38830Y-53326D01*
X39230Y-53611D02*
X39230Y-53211D01*
X39383Y-53211D01*
X39421Y-53230D01*
X39440Y-53250D01*
X39459Y-53288D01*
X39459Y-53345D01*
X39440Y-53383D01*
X39421Y-53402D01*
X39383Y-53421D01*
X39230Y-53421D01*
X39630Y-53611D02*
X39630Y-53211D01*
X39821Y-53611D02*
X39821Y-53211D01*
X40050Y-53611D01*
X40050Y-53211D01*
X38888Y-55911D02*
X38888Y-55511D01*
X39040Y-55511D01*
X39078Y-55530D01*
X39097Y-55550D01*
X39116Y-55588D01*
X39116Y-55645D01*
X39097Y-55683D01*
X39078Y-55702D01*
X39040Y-55721D01*
X38888Y-55721D01*
X39345Y-55511D02*
X39345Y-55607D01*
X39250Y-55569D02*
X39345Y-55607D01*
X39440Y-55569D01*
X39288Y-55683D02*
X39345Y-55607D01*
X39402Y-55683D01*
X39650Y-55511D02*
X39650Y-55607D01*
X39554Y-55569D02*
X39650Y-55607D01*
X39745Y-55569D01*
X39592Y-55683D02*
X39650Y-55607D01*
X39707Y-55683D01*
X39954Y-55511D02*
X39954Y-55607D01*
X39859Y-55569D02*
X39954Y-55607D01*
X40050Y-55569D01*
X39897Y-55683D02*
X39954Y-55607D01*
X40011Y-55683D01*
M02*
