G04 (created by PCBNEW (2013-june-11)-stable) date mar 07 oct 2014 09:39:09 ART*
%MOIN*%
G04 Gerber Fmt 3.4, Leading zero omitted, Abs format*
%FSLAX34Y34*%
G01*
G70*
G90*
G04 APERTURE LIST*
%ADD10C,0.00590551*%
%ADD11C,0.012*%
G04 APERTURE END LIST*
G54D10*
X4000Y-4000D02*
X112930Y-4000D01*
X112930Y-78680D01*
X4000Y-78680D01*
X4000Y-4000D01*
X4700Y-4700D02*
X112230Y-4700D01*
X112230Y-77980D01*
X4700Y-77980D01*
X4700Y-4700D01*
X25780Y-4000D02*
X25780Y-4700D01*
X15032Y-4552D02*
X14747Y-4552D01*
X14890Y-4552D02*
X14890Y-4052D01*
X14842Y-4123D01*
X14794Y-4171D01*
X14747Y-4195D01*
X25780Y-78680D02*
X25780Y-77980D01*
X15032Y-78532D02*
X14747Y-78532D01*
X14890Y-78532D02*
X14890Y-78032D01*
X14842Y-78103D01*
X14794Y-78151D01*
X14747Y-78175D01*
X47560Y-4000D02*
X47560Y-4700D01*
X36527Y-4100D02*
X36550Y-4076D01*
X36598Y-4052D01*
X36717Y-4052D01*
X36765Y-4076D01*
X36789Y-4100D01*
X36812Y-4147D01*
X36812Y-4195D01*
X36789Y-4266D01*
X36503Y-4552D01*
X36812Y-4552D01*
X47560Y-78680D02*
X47560Y-77980D01*
X36527Y-78080D02*
X36550Y-78056D01*
X36598Y-78032D01*
X36717Y-78032D01*
X36765Y-78056D01*
X36789Y-78080D01*
X36812Y-78127D01*
X36812Y-78175D01*
X36789Y-78246D01*
X36503Y-78532D01*
X36812Y-78532D01*
X69340Y-4000D02*
X69340Y-4700D01*
X58283Y-4052D02*
X58592Y-4052D01*
X58426Y-4242D01*
X58497Y-4242D01*
X58545Y-4266D01*
X58569Y-4290D01*
X58592Y-4338D01*
X58592Y-4457D01*
X58569Y-4504D01*
X58545Y-4528D01*
X58497Y-4552D01*
X58354Y-4552D01*
X58307Y-4528D01*
X58283Y-4504D01*
X69340Y-78680D02*
X69340Y-77980D01*
X58283Y-78032D02*
X58592Y-78032D01*
X58426Y-78222D01*
X58497Y-78222D01*
X58545Y-78246D01*
X58569Y-78270D01*
X58592Y-78318D01*
X58592Y-78437D01*
X58569Y-78484D01*
X58545Y-78508D01*
X58497Y-78532D01*
X58354Y-78532D01*
X58307Y-78508D01*
X58283Y-78484D01*
X91120Y-4000D02*
X91120Y-4700D01*
X80325Y-4219D02*
X80325Y-4552D01*
X80206Y-4028D02*
X80087Y-4385D01*
X80396Y-4385D01*
X91120Y-78680D02*
X91120Y-77980D01*
X80325Y-78199D02*
X80325Y-78532D01*
X80206Y-78008D02*
X80087Y-78365D01*
X80396Y-78365D01*
X102129Y-4052D02*
X101890Y-4052D01*
X101867Y-4290D01*
X101890Y-4266D01*
X101938Y-4242D01*
X102057Y-4242D01*
X102105Y-4266D01*
X102129Y-4290D01*
X102152Y-4338D01*
X102152Y-4457D01*
X102129Y-4504D01*
X102105Y-4528D01*
X102057Y-4552D01*
X101938Y-4552D01*
X101890Y-4528D01*
X101867Y-4504D01*
X102129Y-78032D02*
X101890Y-78032D01*
X101867Y-78270D01*
X101890Y-78246D01*
X101938Y-78222D01*
X102057Y-78222D01*
X102105Y-78246D01*
X102129Y-78270D01*
X102152Y-78318D01*
X102152Y-78437D01*
X102129Y-78484D01*
X102105Y-78508D01*
X102057Y-78532D01*
X101938Y-78532D01*
X101890Y-78508D01*
X101867Y-78484D01*
X4000Y-28890D02*
X4700Y-28890D01*
X4230Y-16509D02*
X4469Y-16509D01*
X4183Y-16652D02*
X4350Y-16152D01*
X4516Y-16652D01*
X112930Y-28890D02*
X112230Y-28890D01*
X112460Y-16509D02*
X112699Y-16509D01*
X112413Y-16652D02*
X112580Y-16152D01*
X112746Y-16652D01*
X4000Y-53780D02*
X4700Y-53780D01*
X4385Y-41280D02*
X4457Y-41304D01*
X4480Y-41328D01*
X4504Y-41375D01*
X4504Y-41447D01*
X4480Y-41494D01*
X4457Y-41518D01*
X4409Y-41542D01*
X4219Y-41542D01*
X4219Y-41042D01*
X4385Y-41042D01*
X4433Y-41066D01*
X4457Y-41090D01*
X4480Y-41137D01*
X4480Y-41185D01*
X4457Y-41232D01*
X4433Y-41256D01*
X4385Y-41280D01*
X4219Y-41280D01*
X112930Y-53780D02*
X112230Y-53780D01*
X112615Y-41280D02*
X112687Y-41304D01*
X112710Y-41328D01*
X112734Y-41375D01*
X112734Y-41447D01*
X112710Y-41494D01*
X112687Y-41518D01*
X112639Y-41542D01*
X112449Y-41542D01*
X112449Y-41042D01*
X112615Y-41042D01*
X112663Y-41066D01*
X112687Y-41090D01*
X112710Y-41137D01*
X112710Y-41185D01*
X112687Y-41232D01*
X112663Y-41256D01*
X112615Y-41280D01*
X112449Y-41280D01*
X4504Y-66384D02*
X4480Y-66408D01*
X4409Y-66432D01*
X4361Y-66432D01*
X4290Y-66408D01*
X4242Y-66360D01*
X4219Y-66313D01*
X4195Y-66218D01*
X4195Y-66146D01*
X4219Y-66051D01*
X4242Y-66003D01*
X4290Y-65956D01*
X4361Y-65932D01*
X4409Y-65932D01*
X4480Y-65956D01*
X4504Y-65980D01*
X112734Y-66384D02*
X112710Y-66408D01*
X112639Y-66432D01*
X112591Y-66432D01*
X112520Y-66408D01*
X112472Y-66360D01*
X112449Y-66313D01*
X112425Y-66218D01*
X112425Y-66146D01*
X112449Y-66051D01*
X112472Y-66003D01*
X112520Y-65956D01*
X112591Y-65932D01*
X112639Y-65932D01*
X112710Y-65956D01*
X112734Y-65980D01*
X79380Y-76422D02*
X79455Y-75822D01*
X79597Y-75822D01*
X79680Y-75851D01*
X79730Y-75908D01*
X79751Y-75965D01*
X79765Y-76080D01*
X79755Y-76165D01*
X79712Y-76280D01*
X79676Y-76337D01*
X79612Y-76394D01*
X79522Y-76422D01*
X79380Y-76422D01*
X80237Y-76422D02*
X80276Y-76108D01*
X80255Y-76051D01*
X80201Y-76022D01*
X80087Y-76022D01*
X80026Y-76051D01*
X80240Y-76394D02*
X80180Y-76422D01*
X80037Y-76422D01*
X79983Y-76394D01*
X79962Y-76337D01*
X79969Y-76280D01*
X80005Y-76222D01*
X80065Y-76194D01*
X80208Y-76194D01*
X80269Y-76165D01*
X80487Y-76022D02*
X80715Y-76022D01*
X80597Y-75822D02*
X80533Y-76337D01*
X80555Y-76394D01*
X80608Y-76422D01*
X80665Y-76422D01*
X81097Y-76394D02*
X81037Y-76422D01*
X80922Y-76422D01*
X80869Y-76394D01*
X80847Y-76337D01*
X80876Y-76108D01*
X80912Y-76051D01*
X80972Y-76022D01*
X81087Y-76022D01*
X81140Y-76051D01*
X81162Y-76108D01*
X81155Y-76165D01*
X80862Y-76222D01*
X81387Y-76365D02*
X81412Y-76394D01*
X81380Y-76422D01*
X81355Y-76394D01*
X81387Y-76365D01*
X81380Y-76422D01*
X81426Y-76051D02*
X81451Y-76080D01*
X81419Y-76108D01*
X81394Y-76080D01*
X81426Y-76051D01*
X81419Y-76108D01*
X82140Y-75822D02*
X82540Y-75822D01*
X82208Y-76422D01*
X83237Y-76422D02*
X83183Y-76394D01*
X83158Y-76365D01*
X83137Y-76308D01*
X83158Y-76137D01*
X83194Y-76080D01*
X83226Y-76051D01*
X83287Y-76022D01*
X83372Y-76022D01*
X83426Y-76051D01*
X83451Y-76080D01*
X83472Y-76137D01*
X83451Y-76308D01*
X83415Y-76365D01*
X83383Y-76394D01*
X83322Y-76422D01*
X83237Y-76422D01*
X83955Y-76394D02*
X83894Y-76422D01*
X83780Y-76422D01*
X83726Y-76394D01*
X83701Y-76365D01*
X83680Y-76308D01*
X83701Y-76137D01*
X83737Y-76080D01*
X83769Y-76051D01*
X83830Y-76022D01*
X83944Y-76022D01*
X83997Y-76051D01*
X84172Y-76022D02*
X84401Y-76022D01*
X84283Y-75822D02*
X84219Y-76337D01*
X84240Y-76394D01*
X84294Y-76422D01*
X84351Y-76422D01*
X85047Y-75880D02*
X85080Y-75851D01*
X85140Y-75822D01*
X85283Y-75822D01*
X85337Y-75851D01*
X85362Y-75880D01*
X85383Y-75937D01*
X85376Y-75994D01*
X85337Y-76080D01*
X84951Y-76422D01*
X85322Y-76422D01*
X85769Y-75822D02*
X85826Y-75822D01*
X85880Y-75851D01*
X85905Y-75880D01*
X85926Y-75937D01*
X85940Y-76051D01*
X85922Y-76194D01*
X85880Y-76308D01*
X85844Y-76365D01*
X85812Y-76394D01*
X85751Y-76422D01*
X85694Y-76422D01*
X85640Y-76394D01*
X85615Y-76365D01*
X85594Y-76308D01*
X85580Y-76194D01*
X85597Y-76051D01*
X85640Y-75937D01*
X85676Y-75880D01*
X85708Y-75851D01*
X85769Y-75822D01*
X86465Y-76422D02*
X86122Y-76422D01*
X86294Y-76422D02*
X86369Y-75822D01*
X86301Y-75908D01*
X86237Y-75965D01*
X86176Y-75994D01*
X87030Y-76022D02*
X86980Y-76422D01*
X86915Y-75794D02*
X86719Y-76222D01*
X87090Y-76222D01*
X70972Y-77622D02*
X70972Y-77022D01*
X71315Y-77622D02*
X71058Y-77280D01*
X71315Y-77022D02*
X70972Y-77365D01*
X71572Y-77622D02*
X71572Y-77222D01*
X71572Y-77022D02*
X71544Y-77051D01*
X71572Y-77080D01*
X71601Y-77051D01*
X71572Y-77022D01*
X71572Y-77080D01*
X72201Y-77565D02*
X72172Y-77594D01*
X72087Y-77622D01*
X72030Y-77622D01*
X71944Y-77594D01*
X71887Y-77537D01*
X71858Y-77480D01*
X71830Y-77365D01*
X71830Y-77280D01*
X71858Y-77165D01*
X71887Y-77108D01*
X71944Y-77051D01*
X72030Y-77022D01*
X72087Y-77022D01*
X72172Y-77051D01*
X72201Y-77080D01*
X72715Y-77622D02*
X72715Y-77308D01*
X72687Y-77251D01*
X72630Y-77222D01*
X72515Y-77222D01*
X72458Y-77251D01*
X72715Y-77594D02*
X72658Y-77622D01*
X72515Y-77622D01*
X72458Y-77594D01*
X72430Y-77537D01*
X72430Y-77480D01*
X72458Y-77422D01*
X72515Y-77394D01*
X72658Y-77394D01*
X72715Y-77365D01*
X73258Y-77622D02*
X73258Y-77022D01*
X73258Y-77594D02*
X73201Y-77622D01*
X73087Y-77622D01*
X73030Y-77594D01*
X73001Y-77565D01*
X72972Y-77508D01*
X72972Y-77337D01*
X73001Y-77280D01*
X73030Y-77251D01*
X73087Y-77222D01*
X73201Y-77222D01*
X73258Y-77251D01*
X74001Y-77308D02*
X74201Y-77308D01*
X74287Y-77622D02*
X74001Y-77622D01*
X74001Y-77022D01*
X74287Y-77022D01*
X74544Y-77565D02*
X74572Y-77594D01*
X74544Y-77622D01*
X74515Y-77594D01*
X74544Y-77565D01*
X74544Y-77622D01*
X74829Y-77622D02*
X74829Y-77022D01*
X74972Y-77022D01*
X75058Y-77051D01*
X75115Y-77108D01*
X75144Y-77165D01*
X75172Y-77280D01*
X75172Y-77365D01*
X75144Y-77480D01*
X75115Y-77537D01*
X75058Y-77594D01*
X74972Y-77622D01*
X74829Y-77622D01*
X75429Y-77565D02*
X75458Y-77594D01*
X75429Y-77622D01*
X75401Y-77594D01*
X75429Y-77565D01*
X75429Y-77622D01*
X75687Y-77451D02*
X75972Y-77451D01*
X75629Y-77622D02*
X75829Y-77022D01*
X76029Y-77622D01*
X76229Y-77565D02*
X76258Y-77594D01*
X76229Y-77622D01*
X76201Y-77594D01*
X76229Y-77565D01*
X76229Y-77622D01*
X104522Y-76422D02*
X104358Y-76137D01*
X104180Y-76422D02*
X104255Y-75822D01*
X104483Y-75822D01*
X104537Y-75851D01*
X104562Y-75880D01*
X104583Y-75937D01*
X104572Y-76022D01*
X104537Y-76080D01*
X104505Y-76108D01*
X104444Y-76137D01*
X104215Y-76137D01*
X105012Y-76394D02*
X104951Y-76422D01*
X104837Y-76422D01*
X104783Y-76394D01*
X104762Y-76337D01*
X104790Y-76108D01*
X104826Y-76051D01*
X104887Y-76022D01*
X105001Y-76022D01*
X105055Y-76051D01*
X105076Y-76108D01*
X105069Y-76165D01*
X104776Y-76222D01*
X105287Y-76022D02*
X105380Y-76422D01*
X105572Y-76022D01*
X105758Y-76365D02*
X105783Y-76394D01*
X105751Y-76422D01*
X105726Y-76394D01*
X105758Y-76365D01*
X105751Y-76422D01*
X105797Y-76051D02*
X105822Y-76080D01*
X105790Y-76108D01*
X105765Y-76080D01*
X105797Y-76051D01*
X105790Y-76108D01*
X70944Y-76394D02*
X71030Y-76422D01*
X71172Y-76422D01*
X71230Y-76394D01*
X71258Y-76365D01*
X71287Y-76308D01*
X71287Y-76251D01*
X71258Y-76194D01*
X71230Y-76165D01*
X71172Y-76137D01*
X71058Y-76108D01*
X71001Y-76080D01*
X70972Y-76051D01*
X70944Y-75994D01*
X70944Y-75937D01*
X70972Y-75880D01*
X71001Y-75851D01*
X71058Y-75822D01*
X71201Y-75822D01*
X71287Y-75851D01*
X71544Y-76422D02*
X71544Y-76022D01*
X71544Y-75822D02*
X71515Y-75851D01*
X71544Y-75880D01*
X71572Y-75851D01*
X71544Y-75822D01*
X71544Y-75880D01*
X71772Y-76022D02*
X72087Y-76022D01*
X71772Y-76422D01*
X72087Y-76422D01*
X72544Y-76394D02*
X72487Y-76422D01*
X72372Y-76422D01*
X72315Y-76394D01*
X72287Y-76337D01*
X72287Y-76108D01*
X72315Y-76051D01*
X72372Y-76022D01*
X72487Y-76022D01*
X72544Y-76051D01*
X72572Y-76108D01*
X72572Y-76165D01*
X72287Y-76222D01*
X72830Y-76365D02*
X72858Y-76394D01*
X72830Y-76422D01*
X72801Y-76394D01*
X72830Y-76365D01*
X72830Y-76422D01*
X72830Y-76051D02*
X72858Y-76080D01*
X72830Y-76108D01*
X72801Y-76080D01*
X72830Y-76051D01*
X72830Y-76108D01*
X73544Y-76251D02*
X73830Y-76251D01*
X73487Y-76422D02*
X73687Y-75822D01*
X73887Y-76422D01*
X74344Y-76022D02*
X74344Y-76422D01*
X74201Y-75794D02*
X74058Y-76222D01*
X74430Y-76222D01*
X104172Y-77622D02*
X104172Y-77022D01*
X104715Y-77622D02*
X104715Y-77022D01*
X104715Y-77594D02*
X104658Y-77622D01*
X104544Y-77622D01*
X104487Y-77594D01*
X104458Y-77565D01*
X104430Y-77508D01*
X104430Y-77337D01*
X104458Y-77280D01*
X104487Y-77251D01*
X104544Y-77222D01*
X104658Y-77222D01*
X104715Y-77251D01*
X105001Y-77565D02*
X105030Y-77594D01*
X105001Y-77622D01*
X104972Y-77594D01*
X105001Y-77565D01*
X105001Y-77622D01*
X105001Y-77251D02*
X105030Y-77280D01*
X105001Y-77308D01*
X104972Y-77280D01*
X105001Y-77251D01*
X105001Y-77308D01*
X106058Y-77622D02*
X105715Y-77622D01*
X105887Y-77622D02*
X105887Y-77022D01*
X105829Y-77108D01*
X105772Y-77165D01*
X105715Y-77194D01*
X106744Y-76994D02*
X106230Y-77765D01*
X107258Y-77622D02*
X106915Y-77622D01*
X107087Y-77622D02*
X107087Y-77022D01*
X107029Y-77108D01*
X106972Y-77165D01*
X106915Y-77194D01*
X70969Y-74622D02*
X71312Y-74622D01*
X71065Y-75222D02*
X71140Y-74622D01*
X71437Y-75222D02*
X71487Y-74822D01*
X71512Y-74622D02*
X71480Y-74651D01*
X71505Y-74680D01*
X71537Y-74651D01*
X71512Y-74622D01*
X71505Y-74680D01*
X71687Y-74822D02*
X71915Y-74822D01*
X71797Y-74622D02*
X71733Y-75137D01*
X71755Y-75194D01*
X71808Y-75222D01*
X71865Y-75222D01*
X72151Y-75222D02*
X72097Y-75194D01*
X72076Y-75137D01*
X72140Y-74622D01*
X72612Y-75194D02*
X72551Y-75222D01*
X72437Y-75222D01*
X72383Y-75194D01*
X72362Y-75137D01*
X72390Y-74908D01*
X72426Y-74851D01*
X72487Y-74822D01*
X72601Y-74822D01*
X72655Y-74851D01*
X72676Y-74908D01*
X72669Y-74965D01*
X72376Y-75022D01*
X72901Y-75165D02*
X72926Y-75194D01*
X72894Y-75222D01*
X72869Y-75194D01*
X72901Y-75165D01*
X72894Y-75222D01*
X72940Y-74851D02*
X72965Y-74880D01*
X72933Y-74908D01*
X72908Y-74880D01*
X72940Y-74851D01*
X72933Y-74908D01*
X71172Y-72508D02*
X70972Y-72508D01*
X70972Y-72822D02*
X70972Y-72222D01*
X71258Y-72222D01*
X71487Y-72822D02*
X71487Y-72422D01*
X71487Y-72222D02*
X71458Y-72251D01*
X71487Y-72280D01*
X71515Y-72251D01*
X71487Y-72222D01*
X71487Y-72280D01*
X71858Y-72822D02*
X71801Y-72794D01*
X71772Y-72737D01*
X71772Y-72222D01*
X72315Y-72794D02*
X72258Y-72822D01*
X72144Y-72822D01*
X72087Y-72794D01*
X72058Y-72737D01*
X72058Y-72508D01*
X72087Y-72451D01*
X72144Y-72422D01*
X72258Y-72422D01*
X72315Y-72451D01*
X72344Y-72508D01*
X72344Y-72565D01*
X72058Y-72622D01*
X72601Y-72765D02*
X72630Y-72794D01*
X72601Y-72822D01*
X72572Y-72794D01*
X72601Y-72765D01*
X72601Y-72822D01*
X72601Y-72451D02*
X72630Y-72480D01*
X72601Y-72508D01*
X72572Y-72480D01*
X72601Y-72451D01*
X72601Y-72508D01*
X73344Y-72422D02*
X73344Y-73022D01*
X73344Y-72451D02*
X73401Y-72422D01*
X73515Y-72422D01*
X73572Y-72451D01*
X73601Y-72480D01*
X73630Y-72537D01*
X73630Y-72708D01*
X73601Y-72765D01*
X73572Y-72794D01*
X73515Y-72822D01*
X73401Y-72822D01*
X73344Y-72794D01*
X73887Y-72822D02*
X73887Y-72422D01*
X73887Y-72222D02*
X73858Y-72251D01*
X73887Y-72280D01*
X73915Y-72251D01*
X73887Y-72222D01*
X73887Y-72280D01*
X74172Y-72422D02*
X74172Y-72822D01*
X74172Y-72480D02*
X74201Y-72451D01*
X74258Y-72422D01*
X74344Y-72422D01*
X74401Y-72451D01*
X74430Y-72508D01*
X74430Y-72822D01*
X74972Y-72422D02*
X74972Y-72908D01*
X74944Y-72965D01*
X74915Y-72994D01*
X74858Y-73022D01*
X74772Y-73022D01*
X74715Y-72994D01*
X74972Y-72794D02*
X74915Y-72822D01*
X74801Y-72822D01*
X74744Y-72794D01*
X74715Y-72765D01*
X74687Y-72708D01*
X74687Y-72537D01*
X74715Y-72480D01*
X74744Y-72451D01*
X74801Y-72422D01*
X74915Y-72422D01*
X74972Y-72451D01*
X75515Y-72422D02*
X75515Y-72822D01*
X75258Y-72422D02*
X75258Y-72737D01*
X75287Y-72794D01*
X75344Y-72822D01*
X75430Y-72822D01*
X75487Y-72794D01*
X75515Y-72765D01*
X75801Y-72822D02*
X75801Y-72422D01*
X75801Y-72222D02*
X75772Y-72251D01*
X75801Y-72280D01*
X75830Y-72251D01*
X75801Y-72222D01*
X75801Y-72280D01*
X76344Y-72794D02*
X76287Y-72822D01*
X76172Y-72822D01*
X76115Y-72794D01*
X76087Y-72765D01*
X76058Y-72708D01*
X76058Y-72537D01*
X76087Y-72480D01*
X76115Y-72451D01*
X76172Y-72422D01*
X76287Y-72422D01*
X76344Y-72451D01*
X76858Y-72822D02*
X76858Y-72508D01*
X76830Y-72451D01*
X76772Y-72422D01*
X76658Y-72422D01*
X76601Y-72451D01*
X76858Y-72794D02*
X76801Y-72822D01*
X76658Y-72822D01*
X76601Y-72794D01*
X76572Y-72737D01*
X76572Y-72680D01*
X76601Y-72622D01*
X76658Y-72594D01*
X76801Y-72594D01*
X76858Y-72565D01*
X77144Y-72822D02*
X77144Y-72422D01*
X77144Y-72537D02*
X77172Y-72480D01*
X77201Y-72451D01*
X77258Y-72422D01*
X77315Y-72422D01*
X77601Y-72822D02*
X77544Y-72794D01*
X77515Y-72765D01*
X77487Y-72708D01*
X77487Y-72537D01*
X77515Y-72480D01*
X77544Y-72451D01*
X77601Y-72422D01*
X77687Y-72422D01*
X77744Y-72451D01*
X77772Y-72480D01*
X77801Y-72537D01*
X77801Y-72708D01*
X77772Y-72765D01*
X77744Y-72794D01*
X77687Y-72822D01*
X77601Y-72822D01*
X78058Y-72765D02*
X78087Y-72794D01*
X78058Y-72822D01*
X78030Y-72794D01*
X78058Y-72765D01*
X78058Y-72822D01*
X78344Y-72822D02*
X78344Y-72222D01*
X78401Y-72594D02*
X78572Y-72822D01*
X78572Y-72422D02*
X78344Y-72651D01*
X78829Y-72822D02*
X78829Y-72422D01*
X78829Y-72222D02*
X78801Y-72251D01*
X78829Y-72280D01*
X78858Y-72251D01*
X78829Y-72222D01*
X78829Y-72280D01*
X79372Y-72794D02*
X79315Y-72822D01*
X79201Y-72822D01*
X79144Y-72794D01*
X79115Y-72765D01*
X79087Y-72708D01*
X79087Y-72537D01*
X79115Y-72480D01*
X79144Y-72451D01*
X79201Y-72422D01*
X79315Y-72422D01*
X79372Y-72451D01*
X79887Y-72822D02*
X79887Y-72508D01*
X79858Y-72451D01*
X79801Y-72422D01*
X79687Y-72422D01*
X79629Y-72451D01*
X79887Y-72794D02*
X79829Y-72822D01*
X79687Y-72822D01*
X79629Y-72794D01*
X79601Y-72737D01*
X79601Y-72680D01*
X79629Y-72622D01*
X79687Y-72594D01*
X79829Y-72594D01*
X79887Y-72565D01*
X80429Y-72822D02*
X80429Y-72222D01*
X80429Y-72794D02*
X80372Y-72822D01*
X80258Y-72822D01*
X80201Y-72794D01*
X80172Y-72765D01*
X80144Y-72708D01*
X80144Y-72537D01*
X80172Y-72480D01*
X80201Y-72451D01*
X80258Y-72422D01*
X80372Y-72422D01*
X80429Y-72451D01*
X80572Y-72880D02*
X81029Y-72880D01*
X81172Y-72422D02*
X81172Y-73022D01*
X81172Y-72451D02*
X81229Y-72422D01*
X81344Y-72422D01*
X81401Y-72451D01*
X81429Y-72480D01*
X81458Y-72537D01*
X81458Y-72708D01*
X81429Y-72765D01*
X81401Y-72794D01*
X81344Y-72822D01*
X81229Y-72822D01*
X81172Y-72794D01*
X81972Y-72794D02*
X81915Y-72822D01*
X81801Y-72822D01*
X81744Y-72794D01*
X81715Y-72765D01*
X81687Y-72708D01*
X81687Y-72537D01*
X81715Y-72480D01*
X81744Y-72451D01*
X81801Y-72422D01*
X81915Y-72422D01*
X81972Y-72451D01*
X82229Y-72822D02*
X82229Y-72222D01*
X82229Y-72451D02*
X82287Y-72422D01*
X82401Y-72422D01*
X82458Y-72451D01*
X82487Y-72480D01*
X82515Y-72537D01*
X82515Y-72708D01*
X82487Y-72765D01*
X82458Y-72794D01*
X82401Y-72822D01*
X82287Y-72822D01*
X82229Y-72794D01*
X70944Y-73994D02*
X71030Y-74022D01*
X71172Y-74022D01*
X71230Y-73994D01*
X71258Y-73965D01*
X71287Y-73908D01*
X71287Y-73851D01*
X71258Y-73794D01*
X71230Y-73765D01*
X71172Y-73737D01*
X71058Y-73708D01*
X71001Y-73680D01*
X70972Y-73651D01*
X70944Y-73594D01*
X70944Y-73537D01*
X70972Y-73480D01*
X71001Y-73451D01*
X71058Y-73422D01*
X71201Y-73422D01*
X71287Y-73451D01*
X71544Y-74022D02*
X71544Y-73422D01*
X71801Y-74022D02*
X71801Y-73708D01*
X71772Y-73651D01*
X71715Y-73622D01*
X71630Y-73622D01*
X71572Y-73651D01*
X71544Y-73680D01*
X72315Y-73994D02*
X72258Y-74022D01*
X72144Y-74022D01*
X72087Y-73994D01*
X72058Y-73937D01*
X72058Y-73708D01*
X72087Y-73651D01*
X72144Y-73622D01*
X72258Y-73622D01*
X72315Y-73651D01*
X72344Y-73708D01*
X72344Y-73765D01*
X72058Y-73822D01*
X72830Y-73994D02*
X72772Y-74022D01*
X72658Y-74022D01*
X72601Y-73994D01*
X72572Y-73937D01*
X72572Y-73708D01*
X72601Y-73651D01*
X72658Y-73622D01*
X72772Y-73622D01*
X72830Y-73651D01*
X72858Y-73708D01*
X72858Y-73765D01*
X72572Y-73822D01*
X73030Y-73622D02*
X73258Y-73622D01*
X73115Y-73422D02*
X73115Y-73937D01*
X73144Y-73994D01*
X73201Y-74022D01*
X73258Y-74022D01*
X73458Y-73965D02*
X73487Y-73994D01*
X73458Y-74022D01*
X73430Y-73994D01*
X73458Y-73965D01*
X73458Y-74022D01*
X73458Y-73651D02*
X73487Y-73680D01*
X73458Y-73708D01*
X73430Y-73680D01*
X73458Y-73651D01*
X73458Y-73708D01*
X70230Y-71980D02*
X70230Y-77980D01*
X70230Y-71980D02*
X112230Y-71980D01*
X70230Y-71980D02*
X112230Y-71980D01*
X70230Y-74380D02*
X112230Y-74380D01*
X103430Y-75580D02*
X103430Y-77980D01*
X70230Y-76780D02*
X112230Y-76780D01*
X70230Y-75580D02*
X112230Y-75580D01*
X76830Y-75580D02*
X76830Y-76780D01*
G54D11*
X53400Y-55923D02*
X53400Y-55123D01*
X53657Y-55923D02*
X53657Y-55504D01*
X53628Y-55428D01*
X53571Y-55390D01*
X53485Y-55390D01*
X53428Y-55428D01*
X53400Y-55466D01*
X53857Y-55390D02*
X54085Y-55390D01*
X53942Y-55123D02*
X53942Y-55809D01*
X53971Y-55885D01*
X54028Y-55923D01*
X54085Y-55923D01*
X54200Y-55390D02*
X54428Y-55390D01*
X54285Y-55123D02*
X54285Y-55809D01*
X54314Y-55885D01*
X54371Y-55923D01*
X54428Y-55923D01*
X54628Y-55390D02*
X54628Y-56190D01*
X54628Y-55428D02*
X54685Y-55390D01*
X54800Y-55390D01*
X54857Y-55428D01*
X54885Y-55466D01*
X54914Y-55542D01*
X54914Y-55771D01*
X54885Y-55847D01*
X54857Y-55885D01*
X54800Y-55923D01*
X54685Y-55923D01*
X54628Y-55885D01*
X55171Y-55847D02*
X55200Y-55885D01*
X55171Y-55923D01*
X55142Y-55885D01*
X55171Y-55847D01*
X55171Y-55923D01*
X55171Y-55428D02*
X55200Y-55466D01*
X55171Y-55504D01*
X55142Y-55466D01*
X55171Y-55428D01*
X55171Y-55504D01*
X55885Y-55085D02*
X55371Y-56114D01*
X56514Y-55085D02*
X56000Y-56114D01*
X56685Y-55885D02*
X56742Y-55923D01*
X56857Y-55923D01*
X56914Y-55885D01*
X56942Y-55809D01*
X56942Y-55771D01*
X56914Y-55695D01*
X56857Y-55657D01*
X56771Y-55657D01*
X56714Y-55619D01*
X56685Y-55542D01*
X56685Y-55504D01*
X56714Y-55428D01*
X56771Y-55390D01*
X56857Y-55390D01*
X56914Y-55428D01*
X57200Y-55923D02*
X57200Y-55390D01*
X57200Y-55123D02*
X57171Y-55161D01*
X57200Y-55200D01*
X57228Y-55161D01*
X57200Y-55123D01*
X57200Y-55200D01*
X57457Y-55885D02*
X57514Y-55923D01*
X57628Y-55923D01*
X57685Y-55885D01*
X57714Y-55809D01*
X57714Y-55771D01*
X57685Y-55695D01*
X57628Y-55657D01*
X57542Y-55657D01*
X57485Y-55619D01*
X57457Y-55542D01*
X57457Y-55504D01*
X57485Y-55428D01*
X57542Y-55390D01*
X57628Y-55390D01*
X57685Y-55428D01*
X57885Y-55390D02*
X58114Y-55390D01*
X57971Y-55123D02*
X57971Y-55809D01*
X58000Y-55885D01*
X58057Y-55923D01*
X58114Y-55923D01*
X58542Y-55885D02*
X58485Y-55923D01*
X58371Y-55923D01*
X58314Y-55885D01*
X58285Y-55809D01*
X58285Y-55504D01*
X58314Y-55428D01*
X58371Y-55390D01*
X58485Y-55390D01*
X58542Y-55428D01*
X58571Y-55504D01*
X58571Y-55580D01*
X58285Y-55657D01*
X58828Y-55923D02*
X58828Y-55390D01*
X58828Y-55466D02*
X58857Y-55428D01*
X58914Y-55390D01*
X59000Y-55390D01*
X59057Y-55428D01*
X59085Y-55504D01*
X59085Y-55923D01*
X59085Y-55504D02*
X59114Y-55428D01*
X59171Y-55390D01*
X59257Y-55390D01*
X59314Y-55428D01*
X59342Y-55504D01*
X59342Y-55923D01*
X59885Y-55923D02*
X59885Y-55504D01*
X59857Y-55428D01*
X59800Y-55390D01*
X59685Y-55390D01*
X59628Y-55428D01*
X59885Y-55885D02*
X59828Y-55923D01*
X59685Y-55923D01*
X59628Y-55885D01*
X59600Y-55809D01*
X59600Y-55733D01*
X59628Y-55657D01*
X59685Y-55619D01*
X59828Y-55619D01*
X59885Y-55580D01*
X60171Y-55619D02*
X60628Y-55619D01*
X60914Y-55923D02*
X60914Y-55390D01*
X60914Y-55123D02*
X60885Y-55161D01*
X60914Y-55200D01*
X60942Y-55161D01*
X60914Y-55123D01*
X60914Y-55200D01*
X61457Y-55885D02*
X61399Y-55923D01*
X61285Y-55923D01*
X61228Y-55885D01*
X61199Y-55847D01*
X61171Y-55771D01*
X61171Y-55542D01*
X61199Y-55466D01*
X61228Y-55428D01*
X61285Y-55390D01*
X61399Y-55390D01*
X61457Y-55428D01*
X61971Y-55923D02*
X61971Y-55504D01*
X61942Y-55428D01*
X61885Y-55390D01*
X61771Y-55390D01*
X61714Y-55428D01*
X61971Y-55885D02*
X61914Y-55923D01*
X61771Y-55923D01*
X61714Y-55885D01*
X61685Y-55809D01*
X61685Y-55733D01*
X61714Y-55657D01*
X61771Y-55619D01*
X61914Y-55619D01*
X61971Y-55580D01*
X62257Y-55923D02*
X62257Y-55390D01*
X62257Y-55542D02*
X62285Y-55466D01*
X62314Y-55428D01*
X62371Y-55390D01*
X62428Y-55390D01*
X62714Y-55923D02*
X62657Y-55885D01*
X62628Y-55847D01*
X62600Y-55771D01*
X62600Y-55542D01*
X62628Y-55466D01*
X62657Y-55428D01*
X62714Y-55390D01*
X62800Y-55390D01*
X62857Y-55428D01*
X62885Y-55466D01*
X62914Y-55542D01*
X62914Y-55771D01*
X62885Y-55847D01*
X62857Y-55885D01*
X62800Y-55923D01*
X62714Y-55923D01*
X63171Y-55847D02*
X63200Y-55885D01*
X63171Y-55923D01*
X63142Y-55885D01*
X63171Y-55847D01*
X63171Y-55923D01*
X63457Y-55923D02*
X63457Y-55123D01*
X63457Y-55428D02*
X63514Y-55390D01*
X63628Y-55390D01*
X63685Y-55428D01*
X63714Y-55466D01*
X63742Y-55542D01*
X63742Y-55771D01*
X63714Y-55847D01*
X63685Y-55885D01*
X63628Y-55923D01*
X63514Y-55923D01*
X63457Y-55885D01*
X64085Y-55923D02*
X64028Y-55885D01*
X63999Y-55809D01*
X63999Y-55123D01*
X64399Y-55923D02*
X64342Y-55885D01*
X64314Y-55847D01*
X64285Y-55771D01*
X64285Y-55542D01*
X64314Y-55466D01*
X64342Y-55428D01*
X64399Y-55390D01*
X64485Y-55390D01*
X64542Y-55428D01*
X64571Y-55466D01*
X64599Y-55542D01*
X64599Y-55771D01*
X64571Y-55847D01*
X64542Y-55885D01*
X64485Y-55923D01*
X64399Y-55923D01*
X65114Y-55390D02*
X65114Y-56038D01*
X65085Y-56114D01*
X65057Y-56152D01*
X64999Y-56190D01*
X64914Y-56190D01*
X64857Y-56152D01*
X65114Y-55885D02*
X65057Y-55923D01*
X64942Y-55923D01*
X64885Y-55885D01*
X64857Y-55847D01*
X64828Y-55771D01*
X64828Y-55542D01*
X64857Y-55466D01*
X64885Y-55428D01*
X64942Y-55390D01*
X65057Y-55390D01*
X65114Y-55428D01*
X65371Y-55885D02*
X65428Y-55923D01*
X65542Y-55923D01*
X65599Y-55885D01*
X65628Y-55809D01*
X65628Y-55771D01*
X65599Y-55695D01*
X65542Y-55657D01*
X65457Y-55657D01*
X65399Y-55619D01*
X65371Y-55542D01*
X65371Y-55504D01*
X65399Y-55428D01*
X65457Y-55390D01*
X65542Y-55390D01*
X65599Y-55428D01*
X65885Y-55390D02*
X65885Y-56190D01*
X65885Y-55428D02*
X65942Y-55390D01*
X66057Y-55390D01*
X66114Y-55428D01*
X66142Y-55466D01*
X66171Y-55542D01*
X66171Y-55771D01*
X66142Y-55847D01*
X66114Y-55885D01*
X66057Y-55923D01*
X65942Y-55923D01*
X65885Y-55885D01*
X66514Y-55923D02*
X66457Y-55885D01*
X66428Y-55847D01*
X66399Y-55771D01*
X66399Y-55542D01*
X66428Y-55466D01*
X66457Y-55428D01*
X66514Y-55390D01*
X66599Y-55390D01*
X66657Y-55428D01*
X66685Y-55466D01*
X66714Y-55542D01*
X66714Y-55771D01*
X66685Y-55847D01*
X66657Y-55885D01*
X66599Y-55923D01*
X66514Y-55923D01*
X66885Y-55390D02*
X67114Y-55390D01*
X66971Y-55123D02*
X66971Y-55809D01*
X66999Y-55885D01*
X67057Y-55923D01*
X67114Y-55923D01*
X67314Y-55847D02*
X67342Y-55885D01*
X67314Y-55923D01*
X67285Y-55885D01*
X67314Y-55847D01*
X67314Y-55923D01*
X67857Y-55885D02*
X67799Y-55923D01*
X67685Y-55923D01*
X67628Y-55885D01*
X67599Y-55847D01*
X67571Y-55771D01*
X67571Y-55542D01*
X67599Y-55466D01*
X67628Y-55428D01*
X67685Y-55390D01*
X67799Y-55390D01*
X67857Y-55428D01*
X68199Y-55923D02*
X68142Y-55885D01*
X68114Y-55847D01*
X68085Y-55771D01*
X68085Y-55542D01*
X68114Y-55466D01*
X68142Y-55428D01*
X68199Y-55390D01*
X68285Y-55390D01*
X68342Y-55428D01*
X68371Y-55466D01*
X68399Y-55542D01*
X68399Y-55771D01*
X68371Y-55847D01*
X68342Y-55885D01*
X68285Y-55923D01*
X68199Y-55923D01*
X68657Y-55923D02*
X68657Y-55390D01*
X68657Y-55466D02*
X68685Y-55428D01*
X68742Y-55390D01*
X68828Y-55390D01*
X68885Y-55428D01*
X68914Y-55504D01*
X68914Y-55923D01*
X68914Y-55504D02*
X68942Y-55428D01*
X68999Y-55390D01*
X69085Y-55390D01*
X69142Y-55428D01*
X69171Y-55504D01*
X69171Y-55923D01*
X69457Y-55847D02*
X69485Y-55885D01*
X69457Y-55923D01*
X69428Y-55885D01*
X69457Y-55847D01*
X69457Y-55923D01*
X69999Y-55923D02*
X69999Y-55504D01*
X69971Y-55428D01*
X69914Y-55390D01*
X69799Y-55390D01*
X69742Y-55428D01*
X69999Y-55885D02*
X69942Y-55923D01*
X69799Y-55923D01*
X69742Y-55885D01*
X69714Y-55809D01*
X69714Y-55733D01*
X69742Y-55657D01*
X69799Y-55619D01*
X69942Y-55619D01*
X69999Y-55580D01*
X70285Y-55923D02*
X70285Y-55390D01*
X70285Y-55542D02*
X70314Y-55466D01*
X70342Y-55428D01*
X70399Y-55390D01*
X70457Y-55390D01*
X71085Y-55085D02*
X70571Y-56114D01*
X42785Y-24990D02*
X43014Y-24990D01*
X42871Y-25523D02*
X42871Y-24838D01*
X42900Y-24761D01*
X42957Y-24723D01*
X43014Y-24723D01*
X43442Y-25485D02*
X43385Y-25523D01*
X43271Y-25523D01*
X43214Y-25485D01*
X43185Y-25409D01*
X43185Y-25104D01*
X43214Y-25028D01*
X43271Y-24990D01*
X43385Y-24990D01*
X43442Y-25028D01*
X43471Y-25104D01*
X43471Y-25180D01*
X43185Y-25257D01*
X43985Y-25523D02*
X43985Y-24723D01*
X43985Y-25485D02*
X43928Y-25523D01*
X43814Y-25523D01*
X43757Y-25485D01*
X43728Y-25447D01*
X43700Y-25371D01*
X43700Y-25142D01*
X43728Y-25066D01*
X43757Y-25028D01*
X43814Y-24990D01*
X43928Y-24990D01*
X43985Y-25028D01*
X44357Y-25523D02*
X44300Y-25485D01*
X44271Y-25447D01*
X44242Y-25371D01*
X44242Y-25142D01*
X44271Y-25066D01*
X44300Y-25028D01*
X44357Y-24990D01*
X44442Y-24990D01*
X44500Y-25028D01*
X44528Y-25066D01*
X44557Y-25142D01*
X44557Y-25371D01*
X44528Y-25447D01*
X44500Y-25485D01*
X44442Y-25523D01*
X44357Y-25523D01*
X44814Y-25523D02*
X44814Y-24990D01*
X44814Y-25142D02*
X44842Y-25066D01*
X44871Y-25028D01*
X44928Y-24990D01*
X44985Y-24990D01*
X45442Y-25523D02*
X45442Y-25104D01*
X45414Y-25028D01*
X45357Y-24990D01*
X45242Y-24990D01*
X45185Y-25028D01*
X45442Y-25485D02*
X45385Y-25523D01*
X45242Y-25523D01*
X45185Y-25485D01*
X45157Y-25409D01*
X45157Y-25333D01*
X45185Y-25257D01*
X45242Y-25219D01*
X45385Y-25219D01*
X45442Y-25180D01*
X45728Y-24990D02*
X45728Y-25790D01*
X45728Y-25028D02*
X45785Y-24990D01*
X45900Y-24990D01*
X45957Y-25028D01*
X45985Y-25066D01*
X46014Y-25142D01*
X46014Y-25371D01*
X45985Y-25447D01*
X45957Y-25485D01*
X45900Y-25523D01*
X45785Y-25523D01*
X45728Y-25485D01*
X46271Y-25523D02*
X46271Y-24990D01*
X46271Y-25142D02*
X46300Y-25066D01*
X46328Y-25028D01*
X46385Y-24990D01*
X46442Y-24990D01*
X46728Y-25523D02*
X46671Y-25485D01*
X46642Y-25447D01*
X46614Y-25371D01*
X46614Y-25142D01*
X46642Y-25066D01*
X46671Y-25028D01*
X46728Y-24990D01*
X46814Y-24990D01*
X46871Y-25028D01*
X46900Y-25066D01*
X46928Y-25142D01*
X46928Y-25371D01*
X46900Y-25447D01*
X46871Y-25485D01*
X46814Y-25523D01*
X46728Y-25523D01*
X47185Y-24990D02*
X47185Y-25676D01*
X47157Y-25752D01*
X47100Y-25790D01*
X47071Y-25790D01*
X47185Y-24723D02*
X47157Y-24761D01*
X47185Y-24800D01*
X47214Y-24761D01*
X47185Y-24723D01*
X47185Y-24800D01*
X47700Y-25485D02*
X47642Y-25523D01*
X47528Y-25523D01*
X47471Y-25485D01*
X47442Y-25409D01*
X47442Y-25104D01*
X47471Y-25028D01*
X47528Y-24990D01*
X47642Y-24990D01*
X47700Y-25028D01*
X47728Y-25104D01*
X47728Y-25180D01*
X47442Y-25257D01*
X48242Y-25485D02*
X48185Y-25523D01*
X48071Y-25523D01*
X48014Y-25485D01*
X47985Y-25447D01*
X47957Y-25371D01*
X47957Y-25142D01*
X47985Y-25066D01*
X48014Y-25028D01*
X48071Y-24990D01*
X48185Y-24990D01*
X48242Y-25028D01*
X48414Y-24990D02*
X48642Y-24990D01*
X48500Y-24723D02*
X48500Y-25409D01*
X48528Y-25485D01*
X48585Y-25523D01*
X48642Y-25523D01*
X48842Y-25447D02*
X48871Y-25485D01*
X48842Y-25523D01*
X48814Y-25485D01*
X48842Y-25447D01*
X48842Y-25523D01*
X49214Y-25523D02*
X49157Y-25485D01*
X49128Y-25447D01*
X49100Y-25371D01*
X49100Y-25142D01*
X49128Y-25066D01*
X49157Y-25028D01*
X49214Y-24990D01*
X49300Y-24990D01*
X49357Y-25028D01*
X49385Y-25066D01*
X49414Y-25142D01*
X49414Y-25371D01*
X49385Y-25447D01*
X49357Y-25485D01*
X49300Y-25523D01*
X49214Y-25523D01*
X49671Y-25523D02*
X49671Y-24990D01*
X49671Y-25142D02*
X49700Y-25066D01*
X49728Y-25028D01*
X49785Y-24990D01*
X49842Y-24990D01*
X50300Y-24990D02*
X50300Y-25638D01*
X50271Y-25714D01*
X50242Y-25752D01*
X50185Y-25790D01*
X50100Y-25790D01*
X50042Y-25752D01*
X50300Y-25485D02*
X50242Y-25523D01*
X50128Y-25523D01*
X50071Y-25485D01*
X50042Y-25447D01*
X50014Y-25371D01*
X50014Y-25142D01*
X50042Y-25066D01*
X50071Y-25028D01*
X50128Y-24990D01*
X50242Y-24990D01*
X50300Y-25028D01*
X51014Y-24685D02*
X50500Y-25714D01*
X51442Y-25485D02*
X51385Y-25523D01*
X51271Y-25523D01*
X51214Y-25485D01*
X51185Y-25409D01*
X51185Y-25104D01*
X51214Y-25028D01*
X51271Y-24990D01*
X51385Y-24990D01*
X51442Y-25028D01*
X51471Y-25104D01*
X51471Y-25180D01*
X51185Y-25257D01*
X51700Y-25485D02*
X51757Y-25523D01*
X51871Y-25523D01*
X51928Y-25485D01*
X51957Y-25409D01*
X51957Y-25371D01*
X51928Y-25295D01*
X51871Y-25257D01*
X51785Y-25257D01*
X51728Y-25219D01*
X51700Y-25142D01*
X51700Y-25104D01*
X51728Y-25028D01*
X51785Y-24990D01*
X51871Y-24990D01*
X51928Y-25028D01*
X72819Y-35085D02*
X72819Y-34628D01*
X73123Y-34857D02*
X72514Y-34857D01*
X72819Y-32971D02*
X72819Y-32514D01*
M02*
