G04 (created by PCBNEW-RS274X (2012-01-19 BZR 3256)-stable) date mar 16 jul 2013 12:41:11 ART*
G01*
G70*
G90*
%MOIN*%
G04 Gerber Fmt 3.4, Leading zero omitted, Abs format*
%FSLAX34Y34*%
G04 APERTURE LIST*
%ADD10C,0.006000*%
%ADD11C,0.012000*%
%ADD12C,0.060000*%
%ADD13C,0.157500*%
%ADD14R,0.060000X0.060000*%
%ADD15C,0.055000*%
%ADD16R,0.055000X0.055000*%
%ADD17R,0.350000X0.350000*%
%ADD18C,0.070000*%
%ADD19R,0.070000X0.070000*%
%ADD20C,0.066000*%
%ADD21R,0.062000X0.090000*%
%ADD22O,0.062000X0.090000*%
%ADD23O,0.078700X0.098400*%
%ADD24R,0.100000X0.100000*%
%ADD25C,0.100000*%
%ADD26C,0.160000*%
%ADD27C,0.055100*%
%ADD28C,0.019700*%
%ADD29C,0.010000*%
G04 APERTURE END LIST*
G54D10*
X04000Y-04000D02*
X113000Y-04000D01*
X113000Y-78670D01*
X04000Y-78670D01*
X04000Y-04000D01*
X04700Y-04700D02*
X112300Y-04700D01*
X112300Y-77970D01*
X04700Y-77970D01*
X04700Y-04700D01*
X25800Y-04000D02*
X25800Y-04700D01*
X15043Y-04552D02*
X14757Y-04552D01*
X14900Y-04552D02*
X14900Y-04052D01*
X14852Y-04124D01*
X14805Y-04171D01*
X14757Y-04195D01*
X25800Y-78670D02*
X25800Y-77970D01*
X15043Y-78522D02*
X14757Y-78522D01*
X14900Y-78522D02*
X14900Y-78022D01*
X14852Y-78094D01*
X14805Y-78141D01*
X14757Y-78165D01*
X47600Y-04000D02*
X47600Y-04700D01*
X36557Y-04100D02*
X36581Y-04076D01*
X36629Y-04052D01*
X36748Y-04052D01*
X36795Y-04076D01*
X36819Y-04100D01*
X36843Y-04148D01*
X36843Y-04195D01*
X36819Y-04267D01*
X36533Y-04552D01*
X36843Y-04552D01*
X47600Y-78670D02*
X47600Y-77970D01*
X36557Y-78070D02*
X36581Y-78046D01*
X36629Y-78022D01*
X36748Y-78022D01*
X36795Y-78046D01*
X36819Y-78070D01*
X36843Y-78118D01*
X36843Y-78165D01*
X36819Y-78237D01*
X36533Y-78522D01*
X36843Y-78522D01*
X69400Y-04000D02*
X69400Y-04700D01*
X58333Y-04052D02*
X58643Y-04052D01*
X58476Y-04243D01*
X58548Y-04243D01*
X58595Y-04267D01*
X58619Y-04290D01*
X58643Y-04338D01*
X58643Y-04457D01*
X58619Y-04505D01*
X58595Y-04529D01*
X58548Y-04552D01*
X58405Y-04552D01*
X58357Y-04529D01*
X58333Y-04505D01*
X69400Y-78670D02*
X69400Y-77970D01*
X58333Y-78022D02*
X58643Y-78022D01*
X58476Y-78213D01*
X58548Y-78213D01*
X58595Y-78237D01*
X58619Y-78260D01*
X58643Y-78308D01*
X58643Y-78427D01*
X58619Y-78475D01*
X58595Y-78499D01*
X58548Y-78522D01*
X58405Y-78522D01*
X58357Y-78499D01*
X58333Y-78475D01*
X91200Y-04000D02*
X91200Y-04700D01*
X80395Y-04219D02*
X80395Y-04552D01*
X80276Y-04029D02*
X80157Y-04386D01*
X80467Y-04386D01*
X91200Y-78670D02*
X91200Y-77970D01*
X80395Y-78189D02*
X80395Y-78522D01*
X80276Y-77999D02*
X80157Y-78356D01*
X80467Y-78356D01*
X102219Y-04052D02*
X101981Y-04052D01*
X101957Y-04290D01*
X101981Y-04267D01*
X102029Y-04243D01*
X102148Y-04243D01*
X102195Y-04267D01*
X102219Y-04290D01*
X102243Y-04338D01*
X102243Y-04457D01*
X102219Y-04505D01*
X102195Y-04529D01*
X102148Y-04552D01*
X102029Y-04552D01*
X101981Y-04529D01*
X101957Y-04505D01*
X102219Y-78022D02*
X101981Y-78022D01*
X101957Y-78260D01*
X101981Y-78237D01*
X102029Y-78213D01*
X102148Y-78213D01*
X102195Y-78237D01*
X102219Y-78260D01*
X102243Y-78308D01*
X102243Y-78427D01*
X102219Y-78475D01*
X102195Y-78499D01*
X102148Y-78522D01*
X102029Y-78522D01*
X101981Y-78499D01*
X101957Y-78475D01*
X04000Y-28890D02*
X04700Y-28890D01*
X04231Y-16510D02*
X04469Y-16510D01*
X04184Y-16652D02*
X04350Y-16152D01*
X04517Y-16652D01*
X113000Y-28890D02*
X112300Y-28890D01*
X112531Y-16510D02*
X112769Y-16510D01*
X112484Y-16652D02*
X112650Y-16152D01*
X112817Y-16652D01*
X04000Y-53780D02*
X04700Y-53780D01*
X04386Y-41280D02*
X04457Y-41304D01*
X04481Y-41328D01*
X04505Y-41376D01*
X04505Y-41447D01*
X04481Y-41495D01*
X04457Y-41519D01*
X04410Y-41542D01*
X04219Y-41542D01*
X04219Y-41042D01*
X04386Y-41042D01*
X04433Y-41066D01*
X04457Y-41090D01*
X04481Y-41138D01*
X04481Y-41185D01*
X04457Y-41233D01*
X04433Y-41257D01*
X04386Y-41280D01*
X04219Y-41280D01*
X113000Y-53780D02*
X112300Y-53780D01*
X112686Y-41280D02*
X112757Y-41304D01*
X112781Y-41328D01*
X112805Y-41376D01*
X112805Y-41447D01*
X112781Y-41495D01*
X112757Y-41519D01*
X112710Y-41542D01*
X112519Y-41542D01*
X112519Y-41042D01*
X112686Y-41042D01*
X112733Y-41066D01*
X112757Y-41090D01*
X112781Y-41138D01*
X112781Y-41185D01*
X112757Y-41233D01*
X112733Y-41257D01*
X112686Y-41280D01*
X112519Y-41280D01*
X04505Y-66385D02*
X04481Y-66409D01*
X04410Y-66432D01*
X04362Y-66432D01*
X04290Y-66409D01*
X04243Y-66361D01*
X04219Y-66313D01*
X04195Y-66218D01*
X04195Y-66147D01*
X04219Y-66051D01*
X04243Y-66004D01*
X04290Y-65956D01*
X04362Y-65932D01*
X04410Y-65932D01*
X04481Y-65956D01*
X04505Y-65980D01*
X112805Y-66385D02*
X112781Y-66409D01*
X112710Y-66432D01*
X112662Y-66432D01*
X112590Y-66409D01*
X112543Y-66361D01*
X112519Y-66313D01*
X112495Y-66218D01*
X112495Y-66147D01*
X112519Y-66051D01*
X112543Y-66004D01*
X112590Y-65956D01*
X112662Y-65932D01*
X112710Y-65932D01*
X112781Y-65956D01*
X112805Y-65980D01*
G54D11*
X79443Y-76413D02*
X79443Y-75813D01*
X79586Y-75813D01*
X79671Y-75841D01*
X79729Y-75899D01*
X79757Y-75956D01*
X79786Y-76070D01*
X79786Y-76156D01*
X79757Y-76270D01*
X79729Y-76327D01*
X79671Y-76384D01*
X79586Y-76413D01*
X79443Y-76413D01*
X80300Y-76413D02*
X80300Y-76099D01*
X80271Y-76041D01*
X80214Y-76013D01*
X80100Y-76013D01*
X80043Y-76041D01*
X80300Y-76384D02*
X80243Y-76413D01*
X80100Y-76413D01*
X80043Y-76384D01*
X80014Y-76327D01*
X80014Y-76270D01*
X80043Y-76213D01*
X80100Y-76184D01*
X80243Y-76184D01*
X80300Y-76156D01*
X80500Y-76013D02*
X80729Y-76013D01*
X80586Y-75813D02*
X80586Y-76327D01*
X80614Y-76384D01*
X80672Y-76413D01*
X80729Y-76413D01*
X81157Y-76384D02*
X81100Y-76413D01*
X80986Y-76413D01*
X80929Y-76384D01*
X80900Y-76327D01*
X80900Y-76099D01*
X80929Y-76041D01*
X80986Y-76013D01*
X81100Y-76013D01*
X81157Y-76041D01*
X81186Y-76099D01*
X81186Y-76156D01*
X80900Y-76213D01*
X81443Y-76356D02*
X81471Y-76384D01*
X81443Y-76413D01*
X81414Y-76384D01*
X81443Y-76356D01*
X81443Y-76413D01*
X81443Y-76041D02*
X81471Y-76070D01*
X81443Y-76099D01*
X81414Y-76070D01*
X81443Y-76041D01*
X81443Y-76099D01*
X82500Y-76413D02*
X82157Y-76413D01*
X82329Y-76413D02*
X82329Y-75813D01*
X82272Y-75899D01*
X82214Y-75956D01*
X82157Y-75984D01*
X83014Y-75813D02*
X82900Y-75813D01*
X82843Y-75841D01*
X82814Y-75870D01*
X82757Y-75956D01*
X82728Y-76070D01*
X82728Y-76299D01*
X82757Y-76356D01*
X82785Y-76384D01*
X82843Y-76413D01*
X82957Y-76413D01*
X83014Y-76384D01*
X83043Y-76356D01*
X83071Y-76299D01*
X83071Y-76156D01*
X83043Y-76099D01*
X83014Y-76070D01*
X82957Y-76041D01*
X82843Y-76041D01*
X82785Y-76070D01*
X82757Y-76099D01*
X82728Y-76156D01*
X83785Y-76013D02*
X83785Y-76527D01*
X83756Y-76584D01*
X83699Y-76613D01*
X83671Y-76613D01*
X83785Y-75813D02*
X83756Y-75841D01*
X83785Y-75870D01*
X83813Y-75841D01*
X83785Y-75813D01*
X83785Y-75870D01*
X84328Y-76013D02*
X84328Y-76413D01*
X84071Y-76013D02*
X84071Y-76327D01*
X84099Y-76384D01*
X84157Y-76413D01*
X84242Y-76413D01*
X84299Y-76384D01*
X84328Y-76356D01*
X84700Y-76413D02*
X84642Y-76384D01*
X84614Y-76327D01*
X84614Y-75813D01*
X85356Y-75870D02*
X85385Y-75841D01*
X85442Y-75813D01*
X85585Y-75813D01*
X85642Y-75841D01*
X85671Y-75870D01*
X85699Y-75927D01*
X85699Y-75984D01*
X85671Y-76070D01*
X85328Y-76413D01*
X85699Y-76413D01*
X86070Y-75813D02*
X86127Y-75813D01*
X86184Y-75841D01*
X86213Y-75870D01*
X86242Y-75927D01*
X86270Y-76041D01*
X86270Y-76184D01*
X86242Y-76299D01*
X86213Y-76356D01*
X86184Y-76384D01*
X86127Y-76413D01*
X86070Y-76413D01*
X86013Y-76384D01*
X85984Y-76356D01*
X85956Y-76299D01*
X85927Y-76184D01*
X85927Y-76041D01*
X85956Y-75927D01*
X85984Y-75870D01*
X86013Y-75841D01*
X86070Y-75813D01*
X86841Y-76413D02*
X86498Y-76413D01*
X86670Y-76413D02*
X86670Y-75813D01*
X86613Y-75899D01*
X86555Y-75956D01*
X86498Y-75984D01*
X87041Y-75813D02*
X87412Y-75813D01*
X87212Y-76041D01*
X87298Y-76041D01*
X87355Y-76070D01*
X87384Y-76099D01*
X87412Y-76156D01*
X87412Y-76299D01*
X87384Y-76356D01*
X87355Y-76384D01*
X87298Y-76413D01*
X87126Y-76413D01*
X87069Y-76384D01*
X87041Y-76356D01*
G54D10*
X71043Y-77613D02*
X71043Y-77013D01*
X71386Y-77613D02*
X71129Y-77270D01*
X71386Y-77013D02*
X71043Y-77356D01*
X71643Y-77613D02*
X71643Y-77213D01*
X71643Y-77013D02*
X71614Y-77041D01*
X71643Y-77070D01*
X71671Y-77041D01*
X71643Y-77013D01*
X71643Y-77070D01*
X72272Y-77556D02*
X72243Y-77584D01*
X72157Y-77613D01*
X72100Y-77613D01*
X72015Y-77584D01*
X71957Y-77527D01*
X71929Y-77470D01*
X71900Y-77356D01*
X71900Y-77270D01*
X71929Y-77156D01*
X71957Y-77099D01*
X72015Y-77041D01*
X72100Y-77013D01*
X72157Y-77013D01*
X72243Y-77041D01*
X72272Y-77070D01*
X72786Y-77613D02*
X72786Y-77299D01*
X72757Y-77241D01*
X72700Y-77213D01*
X72586Y-77213D01*
X72529Y-77241D01*
X72786Y-77584D02*
X72729Y-77613D01*
X72586Y-77613D01*
X72529Y-77584D01*
X72500Y-77527D01*
X72500Y-77470D01*
X72529Y-77413D01*
X72586Y-77384D01*
X72729Y-77384D01*
X72786Y-77356D01*
X73329Y-77613D02*
X73329Y-77013D01*
X73329Y-77584D02*
X73272Y-77613D01*
X73158Y-77613D01*
X73100Y-77584D01*
X73072Y-77556D01*
X73043Y-77499D01*
X73043Y-77327D01*
X73072Y-77270D01*
X73100Y-77241D01*
X73158Y-77213D01*
X73272Y-77213D01*
X73329Y-77241D01*
X74072Y-77299D02*
X74272Y-77299D01*
X74358Y-77613D02*
X74072Y-77613D01*
X74072Y-77013D01*
X74358Y-77013D01*
X74615Y-77556D02*
X74643Y-77584D01*
X74615Y-77613D01*
X74586Y-77584D01*
X74615Y-77556D01*
X74615Y-77613D01*
X74901Y-77613D02*
X74901Y-77013D01*
X75044Y-77013D01*
X75129Y-77041D01*
X75187Y-77099D01*
X75215Y-77156D01*
X75244Y-77270D01*
X75244Y-77356D01*
X75215Y-77470D01*
X75187Y-77527D01*
X75129Y-77584D01*
X75044Y-77613D01*
X74901Y-77613D01*
X75501Y-77556D02*
X75529Y-77584D01*
X75501Y-77613D01*
X75472Y-77584D01*
X75501Y-77556D01*
X75501Y-77613D01*
X75758Y-77441D02*
X76044Y-77441D01*
X75701Y-77613D02*
X75901Y-77013D01*
X76101Y-77613D01*
X76301Y-77556D02*
X76329Y-77584D01*
X76301Y-77613D01*
X76272Y-77584D01*
X76301Y-77556D01*
X76301Y-77613D01*
G54D11*
X104586Y-76413D02*
X104386Y-76127D01*
X104243Y-76413D02*
X104243Y-75813D01*
X104471Y-75813D01*
X104529Y-75841D01*
X104557Y-75870D01*
X104586Y-75927D01*
X104586Y-76013D01*
X104557Y-76070D01*
X104529Y-76099D01*
X104471Y-76127D01*
X104243Y-76127D01*
X105071Y-76384D02*
X105014Y-76413D01*
X104900Y-76413D01*
X104843Y-76384D01*
X104814Y-76327D01*
X104814Y-76099D01*
X104843Y-76041D01*
X104900Y-76013D01*
X105014Y-76013D01*
X105071Y-76041D01*
X105100Y-76099D01*
X105100Y-76156D01*
X104814Y-76213D01*
X105300Y-76013D02*
X105443Y-76413D01*
X105585Y-76013D01*
X105814Y-76356D02*
X105842Y-76384D01*
X105814Y-76413D01*
X105785Y-76384D01*
X105814Y-76356D01*
X105814Y-76413D01*
X105814Y-76041D02*
X105842Y-76070D01*
X105814Y-76099D01*
X105785Y-76070D01*
X105814Y-76041D01*
X105814Y-76099D01*
G54D10*
X71014Y-76384D02*
X71100Y-76413D01*
X71243Y-76413D01*
X71300Y-76384D01*
X71329Y-76356D01*
X71357Y-76299D01*
X71357Y-76241D01*
X71329Y-76184D01*
X71300Y-76156D01*
X71243Y-76127D01*
X71129Y-76099D01*
X71071Y-76070D01*
X71043Y-76041D01*
X71014Y-75984D01*
X71014Y-75927D01*
X71043Y-75870D01*
X71071Y-75841D01*
X71129Y-75813D01*
X71271Y-75813D01*
X71357Y-75841D01*
X71614Y-76413D02*
X71614Y-76013D01*
X71614Y-75813D02*
X71585Y-75841D01*
X71614Y-75870D01*
X71642Y-75841D01*
X71614Y-75813D01*
X71614Y-75870D01*
X71843Y-76013D02*
X72157Y-76013D01*
X71843Y-76413D01*
X72157Y-76413D01*
X72614Y-76384D02*
X72557Y-76413D01*
X72443Y-76413D01*
X72386Y-76384D01*
X72357Y-76327D01*
X72357Y-76099D01*
X72386Y-76041D01*
X72443Y-76013D01*
X72557Y-76013D01*
X72614Y-76041D01*
X72643Y-76099D01*
X72643Y-76156D01*
X72357Y-76213D01*
X72900Y-76356D02*
X72928Y-76384D01*
X72900Y-76413D01*
X72871Y-76384D01*
X72900Y-76356D01*
X72900Y-76413D01*
X72900Y-76041D02*
X72928Y-76070D01*
X72900Y-76099D01*
X72871Y-76070D01*
X72900Y-76041D01*
X72900Y-76099D01*
X73614Y-76241D02*
X73900Y-76241D01*
X73557Y-76413D02*
X73757Y-75813D01*
X73957Y-76413D01*
X74414Y-76013D02*
X74414Y-76413D01*
X74271Y-75784D02*
X74128Y-76213D01*
X74500Y-76213D01*
X104243Y-77613D02*
X104243Y-77013D01*
X104786Y-77613D02*
X104786Y-77013D01*
X104786Y-77584D02*
X104729Y-77613D01*
X104615Y-77613D01*
X104557Y-77584D01*
X104529Y-77556D01*
X104500Y-77499D01*
X104500Y-77327D01*
X104529Y-77270D01*
X104557Y-77241D01*
X104615Y-77213D01*
X104729Y-77213D01*
X104786Y-77241D01*
X105072Y-77556D02*
X105100Y-77584D01*
X105072Y-77613D01*
X105043Y-77584D01*
X105072Y-77556D01*
X105072Y-77613D01*
X105072Y-77241D02*
X105100Y-77270D01*
X105072Y-77299D01*
X105043Y-77270D01*
X105072Y-77241D01*
X105072Y-77299D01*
X106129Y-77613D02*
X105786Y-77613D01*
X105958Y-77613D02*
X105958Y-77013D01*
X105901Y-77099D01*
X105843Y-77156D01*
X105786Y-77184D01*
X106814Y-76984D02*
X106300Y-77756D01*
X107329Y-77613D02*
X106986Y-77613D01*
X107158Y-77613D02*
X107158Y-77013D01*
X107101Y-77099D01*
X107043Y-77156D01*
X106986Y-77184D01*
G54D11*
X70957Y-74613D02*
X71300Y-74613D01*
X71129Y-75213D02*
X71129Y-74613D01*
X71500Y-75213D02*
X71500Y-74813D01*
X71500Y-74613D02*
X71471Y-74641D01*
X71500Y-74670D01*
X71528Y-74641D01*
X71500Y-74613D01*
X71500Y-74670D01*
X71700Y-74813D02*
X71929Y-74813D01*
X71786Y-74613D02*
X71786Y-75127D01*
X71814Y-75184D01*
X71872Y-75213D01*
X71929Y-75213D01*
X72215Y-75213D02*
X72157Y-75184D01*
X72129Y-75127D01*
X72129Y-74613D01*
X72671Y-75184D02*
X72614Y-75213D01*
X72500Y-75213D01*
X72443Y-75184D01*
X72414Y-75127D01*
X72414Y-74899D01*
X72443Y-74841D01*
X72500Y-74813D01*
X72614Y-74813D01*
X72671Y-74841D01*
X72700Y-74899D01*
X72700Y-74956D01*
X72414Y-75013D01*
X72957Y-75156D02*
X72985Y-75184D01*
X72957Y-75213D01*
X72928Y-75184D01*
X72957Y-75156D01*
X72957Y-75213D01*
X72957Y-74841D02*
X72985Y-74870D01*
X72957Y-74899D01*
X72928Y-74870D01*
X72957Y-74841D01*
X72957Y-74899D01*
G54D10*
X71243Y-72499D02*
X71043Y-72499D01*
X71043Y-72813D02*
X71043Y-72213D01*
X71329Y-72213D01*
X71557Y-72813D02*
X71557Y-72413D01*
X71557Y-72213D02*
X71528Y-72241D01*
X71557Y-72270D01*
X71585Y-72241D01*
X71557Y-72213D01*
X71557Y-72270D01*
X71929Y-72813D02*
X71871Y-72784D01*
X71843Y-72727D01*
X71843Y-72213D01*
X72385Y-72784D02*
X72328Y-72813D01*
X72214Y-72813D01*
X72157Y-72784D01*
X72128Y-72727D01*
X72128Y-72499D01*
X72157Y-72441D01*
X72214Y-72413D01*
X72328Y-72413D01*
X72385Y-72441D01*
X72414Y-72499D01*
X72414Y-72556D01*
X72128Y-72613D01*
X72671Y-72756D02*
X72699Y-72784D01*
X72671Y-72813D01*
X72642Y-72784D01*
X72671Y-72756D01*
X72671Y-72813D01*
X72671Y-72441D02*
X72699Y-72470D01*
X72671Y-72499D01*
X72642Y-72470D01*
X72671Y-72441D01*
X72671Y-72499D01*
X73414Y-72413D02*
X73414Y-73013D01*
X73414Y-72441D02*
X73471Y-72413D01*
X73585Y-72413D01*
X73642Y-72441D01*
X73671Y-72470D01*
X73700Y-72527D01*
X73700Y-72699D01*
X73671Y-72756D01*
X73642Y-72784D01*
X73585Y-72813D01*
X73471Y-72813D01*
X73414Y-72784D01*
X73957Y-72813D02*
X73957Y-72413D01*
X73957Y-72213D02*
X73928Y-72241D01*
X73957Y-72270D01*
X73985Y-72241D01*
X73957Y-72213D01*
X73957Y-72270D01*
X74243Y-72413D02*
X74243Y-72813D01*
X74243Y-72470D02*
X74271Y-72441D01*
X74329Y-72413D01*
X74414Y-72413D01*
X74471Y-72441D01*
X74500Y-72499D01*
X74500Y-72813D01*
X75043Y-72413D02*
X75043Y-72899D01*
X75014Y-72956D01*
X74986Y-72984D01*
X74929Y-73013D01*
X74843Y-73013D01*
X74786Y-72984D01*
X75043Y-72784D02*
X74986Y-72813D01*
X74872Y-72813D01*
X74814Y-72784D01*
X74786Y-72756D01*
X74757Y-72699D01*
X74757Y-72527D01*
X74786Y-72470D01*
X74814Y-72441D01*
X74872Y-72413D01*
X74986Y-72413D01*
X75043Y-72441D01*
X75586Y-72413D02*
X75586Y-72813D01*
X75329Y-72413D02*
X75329Y-72727D01*
X75357Y-72784D01*
X75415Y-72813D01*
X75500Y-72813D01*
X75557Y-72784D01*
X75586Y-72756D01*
X75872Y-72813D02*
X75872Y-72413D01*
X75872Y-72213D02*
X75843Y-72241D01*
X75872Y-72270D01*
X75900Y-72241D01*
X75872Y-72213D01*
X75872Y-72270D01*
X76415Y-72784D02*
X76358Y-72813D01*
X76244Y-72813D01*
X76186Y-72784D01*
X76158Y-72756D01*
X76129Y-72699D01*
X76129Y-72527D01*
X76158Y-72470D01*
X76186Y-72441D01*
X76244Y-72413D01*
X76358Y-72413D01*
X76415Y-72441D01*
X76929Y-72813D02*
X76929Y-72499D01*
X76900Y-72441D01*
X76843Y-72413D01*
X76729Y-72413D01*
X76672Y-72441D01*
X76929Y-72784D02*
X76872Y-72813D01*
X76729Y-72813D01*
X76672Y-72784D01*
X76643Y-72727D01*
X76643Y-72670D01*
X76672Y-72613D01*
X76729Y-72584D01*
X76872Y-72584D01*
X76929Y-72556D01*
X77215Y-72813D02*
X77215Y-72413D01*
X77215Y-72527D02*
X77243Y-72470D01*
X77272Y-72441D01*
X77329Y-72413D01*
X77386Y-72413D01*
X77672Y-72813D02*
X77614Y-72784D01*
X77586Y-72756D01*
X77557Y-72699D01*
X77557Y-72527D01*
X77586Y-72470D01*
X77614Y-72441D01*
X77672Y-72413D01*
X77757Y-72413D01*
X77814Y-72441D01*
X77843Y-72470D01*
X77872Y-72527D01*
X77872Y-72699D01*
X77843Y-72756D01*
X77814Y-72784D01*
X77757Y-72813D01*
X77672Y-72813D01*
X78129Y-72756D02*
X78157Y-72784D01*
X78129Y-72813D01*
X78100Y-72784D01*
X78129Y-72756D01*
X78129Y-72813D01*
X78415Y-72813D02*
X78415Y-72213D01*
X78415Y-72441D02*
X78472Y-72413D01*
X78586Y-72413D01*
X78643Y-72441D01*
X78672Y-72470D01*
X78701Y-72527D01*
X78701Y-72699D01*
X78672Y-72756D01*
X78643Y-72784D01*
X78586Y-72813D01*
X78472Y-72813D01*
X78415Y-72784D01*
X78958Y-72813D02*
X78958Y-72413D01*
X78958Y-72527D02*
X78986Y-72470D01*
X79015Y-72441D01*
X79072Y-72413D01*
X79129Y-72413D01*
X79586Y-72813D02*
X79586Y-72213D01*
X79586Y-72784D02*
X79529Y-72813D01*
X79415Y-72813D01*
X79357Y-72784D01*
X79329Y-72756D01*
X79300Y-72699D01*
X79300Y-72527D01*
X79329Y-72470D01*
X79357Y-72441D01*
X79415Y-72413D01*
X79529Y-72413D01*
X79586Y-72441D01*
X71014Y-73984D02*
X71100Y-74013D01*
X71243Y-74013D01*
X71300Y-73984D01*
X71329Y-73956D01*
X71357Y-73899D01*
X71357Y-73841D01*
X71329Y-73784D01*
X71300Y-73756D01*
X71243Y-73727D01*
X71129Y-73699D01*
X71071Y-73670D01*
X71043Y-73641D01*
X71014Y-73584D01*
X71014Y-73527D01*
X71043Y-73470D01*
X71071Y-73441D01*
X71129Y-73413D01*
X71271Y-73413D01*
X71357Y-73441D01*
X71614Y-74013D02*
X71614Y-73413D01*
X71871Y-74013D02*
X71871Y-73699D01*
X71842Y-73641D01*
X71785Y-73613D01*
X71700Y-73613D01*
X71642Y-73641D01*
X71614Y-73670D01*
X72385Y-73984D02*
X72328Y-74013D01*
X72214Y-74013D01*
X72157Y-73984D01*
X72128Y-73927D01*
X72128Y-73699D01*
X72157Y-73641D01*
X72214Y-73613D01*
X72328Y-73613D01*
X72385Y-73641D01*
X72414Y-73699D01*
X72414Y-73756D01*
X72128Y-73813D01*
X72899Y-73984D02*
X72842Y-74013D01*
X72728Y-74013D01*
X72671Y-73984D01*
X72642Y-73927D01*
X72642Y-73699D01*
X72671Y-73641D01*
X72728Y-73613D01*
X72842Y-73613D01*
X72899Y-73641D01*
X72928Y-73699D01*
X72928Y-73756D01*
X72642Y-73813D01*
X73099Y-73613D02*
X73328Y-73613D01*
X73185Y-73413D02*
X73185Y-73927D01*
X73213Y-73984D01*
X73271Y-74013D01*
X73328Y-74013D01*
X73528Y-73956D02*
X73556Y-73984D01*
X73528Y-74013D01*
X73499Y-73984D01*
X73528Y-73956D01*
X73528Y-74013D01*
X73528Y-73641D02*
X73556Y-73670D01*
X73528Y-73699D01*
X73499Y-73670D01*
X73528Y-73641D01*
X73528Y-73699D01*
X74585Y-74013D02*
X74242Y-74013D01*
X74414Y-74013D02*
X74414Y-73413D01*
X74357Y-73499D01*
X74299Y-73556D01*
X74242Y-73584D01*
X75270Y-73384D02*
X74756Y-74156D01*
X75785Y-74013D02*
X75442Y-74013D01*
X75614Y-74013D02*
X75614Y-73413D01*
X75557Y-73499D01*
X75499Y-73556D01*
X75442Y-73584D01*
X70300Y-71970D02*
X70300Y-77970D01*
X70300Y-71970D02*
X112300Y-71970D01*
X70300Y-71970D02*
X112300Y-71970D01*
X70300Y-74370D02*
X112300Y-74370D01*
X103500Y-75570D02*
X103500Y-77970D01*
X70300Y-76770D02*
X112300Y-76770D01*
X70300Y-75570D02*
X112300Y-75570D01*
X76900Y-75570D02*
X76900Y-76770D01*
G54D11*
X56851Y-42274D02*
X56851Y-41474D01*
X56594Y-42274D02*
X56594Y-41855D01*
X56623Y-41779D01*
X56680Y-41740D01*
X56765Y-41740D01*
X56823Y-41779D01*
X56851Y-41817D01*
X56394Y-41740D02*
X56165Y-41740D01*
X56308Y-41474D02*
X56308Y-42160D01*
X56280Y-42236D01*
X56222Y-42274D01*
X56165Y-42274D01*
X56051Y-41740D02*
X55822Y-41740D01*
X55965Y-41474D02*
X55965Y-42160D01*
X55937Y-42236D01*
X55879Y-42274D01*
X55822Y-42274D01*
X55622Y-41740D02*
X55622Y-42540D01*
X55622Y-41779D02*
X55565Y-41740D01*
X55451Y-41740D01*
X55394Y-41779D01*
X55365Y-41817D01*
X55336Y-41893D01*
X55336Y-42121D01*
X55365Y-42198D01*
X55394Y-42236D01*
X55451Y-42274D01*
X55565Y-42274D01*
X55622Y-42236D01*
X55079Y-42198D02*
X55051Y-42236D01*
X55079Y-42274D01*
X55108Y-42236D01*
X55079Y-42198D01*
X55079Y-42274D01*
X55079Y-41779D02*
X55051Y-41817D01*
X55079Y-41855D01*
X55108Y-41817D01*
X55079Y-41779D01*
X55079Y-41855D01*
X54365Y-41436D02*
X54879Y-42464D01*
X53736Y-41436D02*
X54250Y-42464D01*
X53535Y-42274D02*
X53535Y-41740D01*
X53535Y-41893D02*
X53507Y-41817D01*
X53478Y-41779D01*
X53421Y-41740D01*
X53364Y-41740D01*
X53078Y-42274D02*
X53136Y-42236D01*
X53164Y-42198D01*
X53193Y-42121D01*
X53193Y-41893D01*
X53164Y-41817D01*
X53136Y-41779D01*
X53078Y-41740D01*
X52993Y-41740D01*
X52936Y-41779D01*
X52907Y-41817D01*
X52878Y-41893D01*
X52878Y-42121D01*
X52907Y-42198D01*
X52936Y-42236D01*
X52993Y-42274D01*
X53078Y-42274D01*
X52621Y-42274D02*
X52621Y-41474D01*
X52621Y-41779D02*
X52564Y-41740D01*
X52450Y-41740D01*
X52393Y-41779D01*
X52364Y-41817D01*
X52335Y-41893D01*
X52335Y-42121D01*
X52364Y-42198D01*
X52393Y-42236D01*
X52450Y-42274D01*
X52564Y-42274D01*
X52621Y-42236D01*
X51992Y-42274D02*
X52050Y-42236D01*
X52078Y-42198D01*
X52107Y-42121D01*
X52107Y-41893D01*
X52078Y-41817D01*
X52050Y-41779D01*
X51992Y-41740D01*
X51907Y-41740D01*
X51850Y-41779D01*
X51821Y-41817D01*
X51792Y-41893D01*
X51792Y-42121D01*
X51821Y-42198D01*
X51850Y-42236D01*
X51907Y-42274D01*
X51992Y-42274D01*
X51621Y-41740D02*
X51392Y-41740D01*
X51535Y-41474D02*
X51535Y-42160D01*
X51507Y-42236D01*
X51449Y-42274D01*
X51392Y-42274D01*
X51192Y-42274D02*
X51192Y-41740D01*
X51192Y-41474D02*
X51221Y-41512D01*
X51192Y-41550D01*
X51164Y-41512D01*
X51192Y-41474D01*
X51192Y-41550D01*
X50649Y-42236D02*
X50706Y-42274D01*
X50820Y-42274D01*
X50878Y-42236D01*
X50906Y-42198D01*
X50935Y-42121D01*
X50935Y-41893D01*
X50906Y-41817D01*
X50878Y-41779D01*
X50820Y-41740D01*
X50706Y-41740D01*
X50649Y-41779D01*
X50135Y-42274D02*
X50135Y-41855D01*
X50164Y-41779D01*
X50221Y-41740D01*
X50335Y-41740D01*
X50392Y-41779D01*
X50135Y-42236D02*
X50192Y-42274D01*
X50335Y-42274D01*
X50392Y-42236D01*
X50421Y-42160D01*
X50421Y-42083D01*
X50392Y-42007D01*
X50335Y-41969D01*
X50192Y-41969D01*
X50135Y-41931D01*
X49849Y-42274D02*
X49849Y-41740D01*
X49849Y-41893D02*
X49821Y-41817D01*
X49792Y-41779D01*
X49735Y-41740D01*
X49678Y-41740D01*
X49392Y-42274D02*
X49450Y-42236D01*
X49478Y-42198D01*
X49507Y-42121D01*
X49507Y-41893D01*
X49478Y-41817D01*
X49450Y-41779D01*
X49392Y-41740D01*
X49307Y-41740D01*
X49250Y-41779D01*
X49221Y-41817D01*
X49192Y-41893D01*
X49192Y-42121D01*
X49221Y-42198D01*
X49250Y-42236D01*
X49307Y-42274D01*
X49392Y-42274D01*
X48935Y-42198D02*
X48907Y-42236D01*
X48935Y-42274D01*
X48964Y-42236D01*
X48935Y-42198D01*
X48935Y-42274D01*
X48563Y-42274D02*
X48621Y-42236D01*
X48649Y-42198D01*
X48678Y-42121D01*
X48678Y-41893D01*
X48649Y-41817D01*
X48621Y-41779D01*
X48563Y-41740D01*
X48478Y-41740D01*
X48421Y-41779D01*
X48392Y-41817D01*
X48363Y-41893D01*
X48363Y-42121D01*
X48392Y-42198D01*
X48421Y-42236D01*
X48478Y-42274D01*
X48563Y-42274D01*
X48106Y-42274D02*
X48106Y-41740D01*
X48106Y-41893D02*
X48078Y-41817D01*
X48049Y-41779D01*
X47992Y-41740D01*
X47935Y-41740D01*
X47478Y-41740D02*
X47478Y-42388D01*
X47507Y-42464D01*
X47535Y-42502D01*
X47592Y-42540D01*
X47678Y-42540D01*
X47735Y-42502D01*
X47478Y-42236D02*
X47535Y-42274D01*
X47649Y-42274D01*
X47707Y-42236D01*
X47735Y-42198D01*
X47764Y-42121D01*
X47764Y-41893D01*
X47735Y-41817D01*
X47707Y-41779D01*
X47649Y-41740D01*
X47535Y-41740D01*
X47478Y-41779D01*
X46764Y-41436D02*
X47278Y-42464D01*
G54D12*
X54910Y-28430D03*
X54910Y-29430D03*
X55697Y-29430D03*
X55697Y-28430D03*
G54D13*
X56760Y-26568D03*
X56760Y-31292D03*
G54D14*
X57730Y-24880D03*
G54D12*
X58730Y-24880D03*
X59730Y-24880D03*
X59730Y-21880D03*
X58730Y-21880D03*
X57730Y-21880D03*
G54D15*
X34700Y-38995D03*
X36700Y-38995D03*
X34700Y-41995D03*
X36700Y-41995D03*
G54D16*
X40300Y-19000D03*
G54D15*
X39300Y-19000D03*
X38300Y-19000D03*
X37300Y-19000D03*
X36300Y-19000D03*
X35300Y-19000D03*
X34300Y-19000D03*
X33300Y-19000D03*
G54D16*
X34300Y-34120D03*
G54D15*
X35300Y-34120D03*
X36300Y-34120D03*
X37300Y-34120D03*
X38300Y-34120D03*
X39300Y-34120D03*
X40300Y-34120D03*
X41300Y-34120D03*
G54D16*
X34270Y-35236D03*
G54D15*
X35270Y-35236D03*
X36270Y-35236D03*
X37270Y-35236D03*
X38270Y-35236D03*
X39270Y-35236D03*
X40270Y-35236D03*
X41270Y-35236D03*
G54D16*
X34300Y-33000D03*
G54D15*
X35300Y-33000D03*
X36300Y-33000D03*
X37300Y-33000D03*
X38300Y-33000D03*
X39300Y-33000D03*
X40300Y-33000D03*
X41300Y-33000D03*
G54D16*
X43294Y-24332D03*
G54D15*
X44294Y-24332D03*
X45294Y-24332D03*
X46294Y-24332D03*
X47294Y-24332D03*
X48294Y-24332D03*
X49294Y-24332D03*
X50294Y-24332D03*
G54D16*
X33306Y-24584D03*
G54D15*
X34306Y-24584D03*
X35306Y-24584D03*
X36306Y-24584D03*
X37306Y-24584D03*
X38306Y-24584D03*
X39306Y-24584D03*
X40306Y-24584D03*
G54D12*
X42595Y-38015D03*
X42595Y-34015D03*
X56665Y-13225D03*
X56665Y-17225D03*
X59885Y-09445D03*
X59885Y-13445D03*
X52360Y-33285D03*
X56360Y-33285D03*
X31450Y-34250D03*
X31450Y-38250D03*
X32150Y-16450D03*
X32150Y-12450D03*
X33150Y-16450D03*
X33150Y-12450D03*
X34150Y-15450D03*
X34150Y-11450D03*
X35150Y-15450D03*
X35150Y-11450D03*
X36150Y-15450D03*
X36150Y-11450D03*
X37150Y-15450D03*
X37150Y-11450D03*
X38150Y-15450D03*
X38150Y-11450D03*
X39150Y-15450D03*
X39150Y-11450D03*
X49900Y-23200D03*
X53900Y-23200D03*
X53300Y-38540D03*
X53300Y-34540D03*
X32970Y-36220D03*
X32970Y-40220D03*
G54D14*
X50688Y-17478D03*
G54D12*
X50688Y-16478D03*
X50688Y-15478D03*
G54D14*
X57344Y-19756D03*
G54D12*
X58344Y-19756D03*
X59344Y-19756D03*
G54D14*
X48440Y-21020D03*
G54D12*
X48440Y-20020D03*
X48440Y-19020D03*
G54D14*
X47426Y-21020D03*
G54D12*
X47426Y-20020D03*
X47426Y-19020D03*
G54D14*
X50900Y-37450D03*
G54D12*
X50900Y-38450D03*
X50900Y-39450D03*
G54D14*
X49900Y-37450D03*
G54D12*
X49900Y-38450D03*
X49900Y-39450D03*
G54D14*
X48900Y-37450D03*
G54D12*
X48900Y-38450D03*
X48900Y-39450D03*
G54D14*
X54978Y-23728D03*
G54D12*
X54978Y-24728D03*
X54978Y-25728D03*
G54D17*
X53812Y-14026D03*
G54D18*
X52812Y-20526D03*
G54D19*
X53812Y-20526D03*
G54D18*
X54812Y-20526D03*
G54D20*
X38055Y-37205D03*
X37055Y-37205D03*
X28900Y-30700D03*
X27900Y-30700D03*
X28900Y-27200D03*
X27900Y-27200D03*
X28900Y-23700D03*
X27900Y-23700D03*
X28900Y-20200D03*
X27900Y-20200D03*
X28900Y-16700D03*
X27900Y-16700D03*
X28900Y-13200D03*
X27900Y-13200D03*
X28900Y-09700D03*
X27900Y-09700D03*
X50400Y-19700D03*
X51400Y-19700D03*
X56080Y-37040D03*
X56080Y-36040D03*
X28900Y-34200D03*
X27900Y-34200D03*
G54D21*
X33296Y-31830D03*
G54D22*
X34296Y-31830D03*
X35296Y-31830D03*
X36296Y-31830D03*
X37296Y-31830D03*
X38296Y-31830D03*
X39296Y-31830D03*
X40296Y-31830D03*
X41296Y-31830D03*
X42296Y-31830D03*
X43296Y-31830D03*
X44296Y-31830D03*
X45296Y-31830D03*
X46296Y-31830D03*
X47296Y-31830D03*
X48296Y-31830D03*
X49296Y-31830D03*
X50296Y-31830D03*
X51296Y-31830D03*
X52296Y-31830D03*
X52296Y-25830D03*
X51296Y-25830D03*
X50296Y-25830D03*
X49296Y-25830D03*
X48296Y-25830D03*
X47296Y-25830D03*
X46296Y-25830D03*
X45296Y-25830D03*
X44296Y-25830D03*
X43296Y-25830D03*
X42296Y-25830D03*
X41296Y-25830D03*
X40296Y-25830D03*
X39296Y-25830D03*
X38296Y-25830D03*
X37296Y-25830D03*
X36296Y-25830D03*
X35296Y-25830D03*
X34296Y-25830D03*
X33296Y-25830D03*
X36652Y-30298D03*
X37652Y-30298D03*
X38652Y-30298D03*
X39652Y-30298D03*
X40652Y-30298D03*
X41652Y-30298D03*
X42652Y-30298D03*
X43652Y-30298D03*
X44652Y-30298D03*
X45652Y-30298D03*
X46652Y-30298D03*
X47652Y-30298D03*
X48652Y-30298D03*
G54D21*
X35652Y-30298D03*
G54D22*
X48652Y-27298D03*
X47652Y-27298D03*
X46652Y-27298D03*
X45652Y-27298D03*
X44652Y-27298D03*
X43652Y-27298D03*
X42652Y-27298D03*
X41652Y-27298D03*
X40652Y-27298D03*
X39652Y-27298D03*
X38652Y-27298D03*
X37652Y-27298D03*
X36652Y-27298D03*
X35652Y-27298D03*
G54D21*
X33310Y-23270D03*
G54D22*
X34310Y-23270D03*
X35310Y-23270D03*
X36310Y-23270D03*
X37310Y-23270D03*
X38310Y-23270D03*
X39310Y-23270D03*
X40310Y-23270D03*
X41310Y-23270D03*
X41310Y-20270D03*
X40310Y-20270D03*
X39310Y-20270D03*
X38310Y-20270D03*
X37310Y-20270D03*
X36310Y-20270D03*
X35310Y-20270D03*
X34310Y-20270D03*
X33310Y-20270D03*
G54D21*
X47958Y-14618D03*
G54D22*
X46958Y-14618D03*
X45958Y-14618D03*
X44958Y-14618D03*
X43958Y-14618D03*
X42958Y-14618D03*
X41958Y-14618D03*
X40958Y-14618D03*
X40958Y-17618D03*
X41958Y-17618D03*
X42958Y-17618D03*
X43958Y-17618D03*
X44958Y-17618D03*
X45958Y-17618D03*
X46958Y-17618D03*
X47958Y-17618D03*
G54D16*
X52760Y-21680D03*
G54D15*
X55760Y-21680D03*
G54D23*
X45555Y-34826D03*
X47477Y-34826D03*
G54D16*
X31300Y-40250D03*
G54D15*
X31300Y-41250D03*
G54D16*
X49192Y-13612D03*
G54D15*
X49192Y-12612D03*
X47460Y-37580D03*
X47460Y-38580D03*
X45570Y-37580D03*
X45570Y-38580D03*
X50296Y-34466D03*
X50296Y-35466D03*
G54D24*
X52150Y-10200D03*
G54D25*
X54150Y-10200D03*
G54D24*
X56150Y-10200D03*
G54D25*
X58150Y-10200D03*
G54D24*
X42900Y-41200D03*
G54D25*
X44900Y-41200D03*
G54D24*
X38900Y-41200D03*
G54D25*
X40900Y-41200D03*
G54D24*
X59100Y-15300D03*
G54D25*
X59100Y-17300D03*
G54D24*
X48070Y-10200D03*
G54D25*
X46070Y-10200D03*
G54D24*
X44055Y-10195D03*
G54D25*
X42055Y-10195D03*
G54D26*
X58260Y-12870D03*
X40726Y-12832D03*
X28450Y-41300D03*
X58270Y-41280D03*
G54D27*
X49812Y-22016D03*
X51226Y-22016D03*
X43680Y-20100D03*
X44150Y-12620D03*
X47840Y-12610D03*
X45500Y-20100D03*
X50860Y-27420D03*
X50860Y-29640D03*
X51850Y-34450D03*
X51950Y-40450D03*
X53655Y-32340D03*
X51880Y-30140D03*
X58860Y-32325D03*
X51880Y-27480D03*
X45300Y-23340D03*
X48290Y-23320D03*
X45826Y-21802D03*
X43648Y-21802D03*
X43200Y-33300D03*
X51276Y-21330D03*
X46396Y-33300D03*
X49238Y-21302D03*
X56204Y-18138D03*
X47586Y-15642D03*
X41426Y-15664D03*
X56162Y-19628D03*
X47630Y-16500D03*
X40348Y-16500D03*
G54D28*
X40270Y-35236D02*
X39270Y-35236D01*
X60540Y-24776D02*
X60540Y-19650D01*
X51570Y-35466D02*
X50296Y-35466D01*
X58974Y-19126D02*
X58344Y-19756D01*
X39270Y-37580D02*
X39270Y-35236D01*
X52514Y-36500D02*
X52514Y-36410D01*
X43960Y-30920D02*
X44296Y-31256D01*
X45570Y-38580D02*
X44984Y-38580D01*
X36700Y-38995D02*
X37855Y-38995D01*
X59105Y-10405D02*
X58900Y-10200D01*
X53460Y-36500D02*
X52514Y-36500D01*
X44976Y-35490D02*
X44722Y-35236D01*
X44296Y-33716D02*
X44296Y-33690D01*
X38270Y-35236D02*
X37270Y-35236D01*
X48440Y-19020D02*
X47426Y-19020D01*
X42440Y-25830D02*
X42296Y-25830D01*
X47460Y-39122D02*
X47788Y-39450D01*
X56080Y-36040D02*
X53920Y-36040D01*
X51788Y-29040D02*
X47982Y-29040D01*
X44976Y-38572D02*
X44976Y-35490D01*
X32940Y-41250D02*
X34230Y-42540D01*
X36700Y-38995D02*
X36700Y-41995D01*
X58132Y-25710D02*
X58115Y-25727D01*
X55734Y-27690D02*
X55697Y-27727D01*
X58115Y-25727D02*
X58115Y-27236D01*
X58115Y-27236D02*
X57661Y-27690D01*
X57661Y-27690D02*
X55734Y-27690D01*
X51618Y-22408D02*
X51618Y-22876D01*
X53958Y-25216D02*
X56910Y-25216D01*
X61390Y-15715D02*
X61390Y-28840D01*
X56080Y-36040D02*
X57095Y-36040D01*
X61390Y-28840D02*
X58310Y-31920D01*
X61390Y-12190D02*
X61390Y-15715D01*
X59605Y-10405D02*
X61390Y-12190D01*
X59605Y-10405D02*
X59105Y-10405D01*
X48900Y-39450D02*
X49900Y-39450D01*
X60016Y-19126D02*
X58974Y-19126D01*
X42818Y-30298D02*
X43440Y-30920D01*
X60478Y-24838D02*
X60540Y-24776D01*
X44652Y-27298D02*
X44652Y-28292D01*
X40900Y-41200D02*
X40900Y-40492D01*
X57790Y-11020D02*
X54450Y-11020D01*
X54450Y-11020D02*
X54150Y-10720D01*
X44296Y-31256D02*
X44296Y-31830D01*
X60540Y-19650D02*
X60016Y-19126D01*
X44652Y-28608D02*
X44414Y-28846D01*
X55792Y-30404D02*
X53152Y-30404D01*
X42776Y-35236D02*
X44296Y-33716D01*
X47234Y-28292D02*
X44652Y-28292D01*
X44652Y-27298D02*
X44652Y-27022D01*
X50900Y-39450D02*
X52136Y-39450D01*
X42652Y-29288D02*
X42652Y-30298D01*
X44722Y-35236D02*
X42776Y-35236D01*
X55697Y-28430D02*
X55974Y-28430D01*
X49900Y-39450D02*
X50900Y-39450D01*
X41270Y-35236D02*
X42776Y-35236D01*
X54150Y-10720D02*
X54150Y-10200D01*
X56320Y-29876D02*
X55792Y-30404D01*
X44080Y-26450D02*
X43060Y-26450D01*
X53152Y-30404D02*
X51788Y-29040D01*
X58150Y-10660D02*
X57790Y-11020D01*
X45570Y-39526D02*
X44900Y-40196D01*
X44900Y-40276D02*
X44900Y-41200D01*
X44900Y-40196D02*
X44900Y-40276D01*
X45570Y-38580D02*
X45570Y-39526D01*
X40900Y-40492D02*
X41116Y-40276D01*
X41116Y-40276D02*
X44900Y-40276D01*
X55697Y-27727D02*
X55697Y-28430D01*
X47460Y-38580D02*
X47460Y-39122D01*
X58310Y-34825D02*
X57095Y-36040D01*
X58310Y-31920D02*
X58310Y-34825D01*
X53920Y-36040D02*
X53460Y-36500D01*
X51618Y-22876D02*
X53958Y-25216D01*
X51226Y-22016D02*
X51618Y-22408D01*
X56320Y-28776D02*
X56320Y-29876D01*
X49830Y-21998D02*
X49812Y-22016D01*
X44984Y-38580D02*
X44976Y-38572D01*
X43094Y-28846D02*
X42652Y-29288D01*
X48480Y-19020D02*
X49830Y-20370D01*
X43440Y-30920D02*
X43960Y-30920D01*
X52136Y-39450D02*
X52514Y-39072D01*
X58900Y-10200D02*
X58150Y-10200D01*
X48440Y-19020D02*
X48480Y-19020D01*
X42652Y-30298D02*
X42818Y-30298D01*
X37270Y-35236D02*
X36270Y-35236D01*
X44414Y-28846D02*
X43094Y-28846D01*
X47788Y-39450D02*
X48900Y-39450D01*
X47460Y-38580D02*
X45570Y-38580D01*
X59686Y-25630D02*
X58212Y-25630D01*
X60540Y-24776D02*
X59686Y-25630D01*
X58212Y-25630D02*
X58132Y-25710D01*
X44652Y-27022D02*
X44080Y-26450D01*
X43060Y-26450D02*
X42440Y-25830D01*
X49830Y-20370D02*
X49830Y-21998D01*
X36270Y-35236D02*
X35270Y-35236D01*
X58150Y-10200D02*
X58150Y-10660D01*
X34230Y-42540D02*
X36155Y-42540D01*
X44296Y-33690D02*
X44296Y-31830D01*
X47982Y-29040D02*
X47234Y-28292D01*
X37855Y-38995D02*
X39270Y-37580D01*
X35270Y-35236D02*
X34270Y-35236D01*
X52514Y-36410D02*
X51570Y-35466D01*
X41270Y-35236D02*
X40270Y-35236D01*
X39270Y-35236D02*
X38270Y-35236D01*
X31300Y-41250D02*
X32940Y-41250D01*
X44652Y-28292D02*
X44652Y-28608D01*
X55974Y-28430D02*
X56320Y-28776D01*
X57404Y-25710D02*
X58132Y-25710D01*
X56910Y-25216D02*
X57404Y-25710D01*
X36155Y-42540D02*
X36700Y-41995D01*
X52514Y-39072D02*
X52514Y-36500D01*
X50512Y-15004D02*
X50336Y-14828D01*
X49192Y-12612D02*
X47842Y-12612D01*
X50336Y-14828D02*
X50336Y-13178D01*
X51326Y-15336D02*
X51326Y-15114D01*
X43958Y-14618D02*
X44958Y-14618D01*
X44958Y-15390D02*
X44958Y-17618D01*
X53812Y-20526D02*
X53812Y-19478D01*
X53590Y-19700D02*
X53812Y-19478D01*
X53812Y-19478D02*
X53812Y-18900D01*
X42840Y-22622D02*
X42192Y-23270D01*
X56060Y-18900D02*
X53812Y-18900D01*
X43958Y-12812D02*
X43958Y-14618D01*
X59100Y-15860D02*
X56060Y-18900D01*
X51400Y-19700D02*
X53590Y-19700D01*
X59100Y-15300D02*
X59100Y-15860D01*
X43680Y-20100D02*
X42840Y-20940D01*
X42192Y-23270D02*
X41310Y-23270D01*
X52992Y-17990D02*
X52530Y-17990D01*
X52320Y-17780D02*
X52320Y-16330D01*
X53812Y-18900D02*
X53812Y-18810D01*
X42840Y-20940D02*
X42840Y-22622D01*
X44958Y-17618D02*
X44958Y-18408D01*
X50336Y-13178D02*
X49770Y-12612D01*
X51326Y-15114D02*
X51216Y-15004D01*
X44150Y-12620D02*
X43958Y-12812D01*
X47842Y-12612D02*
X47840Y-12610D01*
X44958Y-18408D02*
X45500Y-18950D01*
X52530Y-17990D02*
X52320Y-17780D01*
X53812Y-18810D02*
X52992Y-17990D01*
X45500Y-18950D02*
X45500Y-20100D01*
X51216Y-15004D02*
X50512Y-15004D01*
X44958Y-14618D02*
X44958Y-15390D01*
X49770Y-12612D02*
X49192Y-12612D01*
X44958Y-17618D02*
X43958Y-17618D01*
X52320Y-16330D02*
X51326Y-15336D01*
X34700Y-40035D02*
X34700Y-41995D01*
X33296Y-32819D02*
X33296Y-31830D01*
X31300Y-39210D02*
X30765Y-38675D01*
X30765Y-37240D02*
X32270Y-35735D01*
X34515Y-40220D02*
X34700Y-40035D01*
X32270Y-33845D02*
X33296Y-32819D01*
X35652Y-30298D02*
X35302Y-30298D01*
X32270Y-35735D02*
X32270Y-33845D01*
X33296Y-31454D02*
X33296Y-31830D01*
X30765Y-38675D02*
X30765Y-37240D01*
X32970Y-40220D02*
X34515Y-40220D01*
X34700Y-38995D02*
X34700Y-40035D01*
X31330Y-40220D02*
X31300Y-40250D01*
X35302Y-30298D02*
X34410Y-31190D01*
X33560Y-31190D02*
X33296Y-31454D01*
X31300Y-40250D02*
X31300Y-39210D01*
X32970Y-40220D02*
X31330Y-40220D01*
X34410Y-31190D02*
X33560Y-31190D01*
X30008Y-29546D02*
X29480Y-30074D01*
X28900Y-33250D02*
X28900Y-34200D01*
X30008Y-25850D02*
X30008Y-29546D01*
X32150Y-14426D02*
X31220Y-15356D01*
X30404Y-21678D02*
X30404Y-25454D01*
X30836Y-21246D02*
X30404Y-21678D01*
X29480Y-30074D02*
X29480Y-32670D01*
X31220Y-19216D02*
X30836Y-19600D01*
X31220Y-15356D02*
X31220Y-19216D01*
X30836Y-19600D02*
X30836Y-21246D01*
X30404Y-25454D02*
X30008Y-25850D01*
X32150Y-12450D02*
X32150Y-14426D01*
X29480Y-32670D02*
X28900Y-33250D01*
X29926Y-11270D02*
X29926Y-14106D01*
X29926Y-14106D02*
X29436Y-14596D01*
X30206Y-10534D02*
X30206Y-10990D01*
X29436Y-14596D02*
X29436Y-18130D01*
X29436Y-18130D02*
X28900Y-18666D01*
X36150Y-11450D02*
X36150Y-10214D01*
X36150Y-10214D02*
X35876Y-09940D01*
X35876Y-09940D02*
X30800Y-09940D01*
X30800Y-09940D02*
X30206Y-10534D01*
X28900Y-18666D02*
X28900Y-20200D01*
X30206Y-10990D02*
X29926Y-11270D01*
X37150Y-11450D02*
X37150Y-09850D01*
X28900Y-14326D02*
X28900Y-16700D01*
X29506Y-13720D02*
X28900Y-14326D01*
X29506Y-11026D02*
X29506Y-13720D01*
X29926Y-10606D02*
X29506Y-11026D01*
X29926Y-10116D02*
X29926Y-10606D01*
X30556Y-09486D02*
X29926Y-10116D01*
X36786Y-09486D02*
X30556Y-09486D01*
X37150Y-09850D02*
X36786Y-09486D01*
X28900Y-21150D02*
X28900Y-23700D01*
X35150Y-11450D02*
X35150Y-10650D01*
X30940Y-10396D02*
X30660Y-10676D01*
X29506Y-20544D02*
X28900Y-21150D01*
X30346Y-14420D02*
X29820Y-14946D01*
X29506Y-18900D02*
X29506Y-20544D01*
X29820Y-14946D02*
X29820Y-18586D01*
X35150Y-10650D02*
X34896Y-10396D01*
X34896Y-10396D02*
X30940Y-10396D01*
X30346Y-11620D02*
X30346Y-14420D01*
X30660Y-10676D02*
X30660Y-11306D01*
X30660Y-11306D02*
X30346Y-11620D01*
X29820Y-18586D02*
X29506Y-18900D01*
X28900Y-25206D02*
X28900Y-27200D01*
X29446Y-24660D02*
X28900Y-25206D01*
X29446Y-21104D02*
X29446Y-24660D01*
X29900Y-20650D02*
X29446Y-21104D01*
X29900Y-19116D02*
X29900Y-20650D01*
X30294Y-18722D02*
X29900Y-19116D01*
X30766Y-14594D02*
X30294Y-15066D01*
X34150Y-10940D02*
X33950Y-10740D01*
X30294Y-15066D02*
X30294Y-18722D01*
X34150Y-11450D02*
X34150Y-10940D01*
X30766Y-11664D02*
X30766Y-14594D01*
X31010Y-11420D02*
X30766Y-11664D01*
X31010Y-11040D02*
X31010Y-11420D01*
X31310Y-10740D02*
X31010Y-11040D01*
X33950Y-10740D02*
X31310Y-10740D01*
X29996Y-24990D02*
X29506Y-25480D01*
X33150Y-11555D02*
X32741Y-11146D01*
X32741Y-11146D02*
X31846Y-11146D01*
X31846Y-11146D02*
X31260Y-11732D01*
X31260Y-11732D02*
X31260Y-14702D01*
X29996Y-21242D02*
X29996Y-24990D01*
X30316Y-20922D02*
X29996Y-21242D01*
X30316Y-19360D02*
X30316Y-20922D01*
X30712Y-18964D02*
X30316Y-19360D01*
X30712Y-15250D02*
X30712Y-18964D01*
X31260Y-14702D02*
X30712Y-15250D01*
X29506Y-25480D02*
X29506Y-29260D01*
X29506Y-29260D02*
X28900Y-29866D01*
X28900Y-29866D02*
X28900Y-30700D01*
X33150Y-12450D02*
X33150Y-11555D01*
X29506Y-10220D02*
X28900Y-10826D01*
X38150Y-11450D02*
X38150Y-09346D01*
X37834Y-09030D02*
X30066Y-09030D01*
X28900Y-10826D02*
X28900Y-13200D01*
X38150Y-09346D02*
X37834Y-09030D01*
X30066Y-09030D02*
X29506Y-09590D01*
X29506Y-09590D02*
X29506Y-10220D01*
X39150Y-11450D02*
X39150Y-09050D01*
X28900Y-09006D02*
X28900Y-09700D01*
X29330Y-08576D02*
X28900Y-09006D01*
X38676Y-08576D02*
X29330Y-08576D01*
X39150Y-09050D02*
X38676Y-08576D01*
X44055Y-10195D02*
X43495Y-10195D01*
X42958Y-10732D02*
X42958Y-14618D01*
X43495Y-10195D02*
X42958Y-10732D01*
X43440Y-12182D02*
X43440Y-17136D01*
X46070Y-10200D02*
X45422Y-10200D01*
X43440Y-17136D02*
X42958Y-17618D01*
X45422Y-10200D02*
X43440Y-12182D01*
X37055Y-37205D02*
X33205Y-37205D01*
X33205Y-37205D02*
X32160Y-38250D01*
X32160Y-38250D02*
X31450Y-38250D01*
X53300Y-38540D02*
X55240Y-38540D01*
X56080Y-37700D02*
X56080Y-37040D01*
X55240Y-38540D02*
X56080Y-37700D01*
X54978Y-24728D02*
X57578Y-24728D01*
X57578Y-24728D02*
X57730Y-24880D01*
X50646Y-23200D02*
X49900Y-23200D01*
X50670Y-23176D02*
X50646Y-23200D01*
X50400Y-19700D02*
X50400Y-19756D01*
X50670Y-20026D02*
X50670Y-23176D01*
X50400Y-19756D02*
X50670Y-20026D01*
X56620Y-20300D02*
X56620Y-19360D01*
X55760Y-21160D02*
X56620Y-20300D01*
X58680Y-17300D02*
X59100Y-17300D01*
X56620Y-19360D02*
X58680Y-17300D01*
X55760Y-21680D02*
X55760Y-21160D01*
X46070Y-11745D02*
X46070Y-14506D01*
X46950Y-09615D02*
X46950Y-10865D01*
X42210Y-10195D02*
X43165Y-09240D01*
X46950Y-10865D02*
X46070Y-11745D01*
X43165Y-09240D02*
X46575Y-09240D01*
X46070Y-14506D02*
X45958Y-14618D01*
X46575Y-09240D02*
X46950Y-09615D01*
X42055Y-10195D02*
X42210Y-10195D01*
X46440Y-11956D02*
X46440Y-15406D01*
X48070Y-10326D02*
X46440Y-11956D01*
X46440Y-15406D02*
X45958Y-15888D01*
X45958Y-15888D02*
X45958Y-17618D01*
X48070Y-10200D02*
X48070Y-10326D01*
X45570Y-37580D02*
X45570Y-34841D01*
X45555Y-34826D02*
X45555Y-32089D01*
X45555Y-32089D02*
X45296Y-31830D01*
X45570Y-34841D02*
X45555Y-34826D01*
X43652Y-30298D02*
X43828Y-30298D01*
X43828Y-30298D02*
X44450Y-30920D01*
X45296Y-31226D02*
X45296Y-31830D01*
X44450Y-30920D02*
X44990Y-30920D01*
X44990Y-30920D02*
X45296Y-31226D01*
X47477Y-34826D02*
X47477Y-33089D01*
X47058Y-32670D02*
X46530Y-32670D01*
X47460Y-34843D02*
X47477Y-34826D01*
X44838Y-30298D02*
X45450Y-30910D01*
X45450Y-30910D02*
X45920Y-30910D01*
X46296Y-32436D02*
X46296Y-31830D01*
X47477Y-33089D02*
X47058Y-32670D01*
X46530Y-32670D02*
X46296Y-32436D01*
X45920Y-30910D02*
X46296Y-31286D01*
X47460Y-37580D02*
X47460Y-34843D01*
X46296Y-31286D02*
X46296Y-31830D01*
X44652Y-30298D02*
X44838Y-30298D01*
X32150Y-16450D02*
X32150Y-16950D01*
X33300Y-18100D02*
X33300Y-19000D01*
X32150Y-16950D02*
X33300Y-18100D01*
X33310Y-19010D02*
X33300Y-19000D01*
X33310Y-20270D02*
X33310Y-19010D01*
X34310Y-20270D02*
X34310Y-19010D01*
X34310Y-19010D02*
X34300Y-19000D01*
X33150Y-16450D02*
X33400Y-16450D01*
X33400Y-16450D02*
X34300Y-17350D01*
X34300Y-17350D02*
X34300Y-19000D01*
X35300Y-17240D02*
X35300Y-19000D01*
X34150Y-15450D02*
X34150Y-16090D01*
X35310Y-20270D02*
X35310Y-19010D01*
X34150Y-16090D02*
X35300Y-17240D01*
X35310Y-19010D02*
X35300Y-19000D01*
X35150Y-15450D02*
X35150Y-16054D01*
X36300Y-17204D02*
X36300Y-19000D01*
X35150Y-16054D02*
X36300Y-17204D01*
X36310Y-20270D02*
X36310Y-19010D01*
X36310Y-19010D02*
X36300Y-19000D01*
X36150Y-15450D02*
X36150Y-16216D01*
X37300Y-17366D02*
X37300Y-19000D01*
X36150Y-16216D02*
X37300Y-17366D01*
X37310Y-20270D02*
X37310Y-19010D01*
X37310Y-19010D02*
X37300Y-19000D01*
X38300Y-17586D02*
X38300Y-19000D01*
X37150Y-15450D02*
X37150Y-16436D01*
X37150Y-16436D02*
X38300Y-17586D01*
X38310Y-20270D02*
X38310Y-19010D01*
X38310Y-19010D02*
X38300Y-19000D01*
X38150Y-15450D02*
X38150Y-16340D01*
X39300Y-17490D02*
X39300Y-19000D01*
X38150Y-16340D02*
X39300Y-17490D01*
X39310Y-20270D02*
X39310Y-19010D01*
X39310Y-19010D02*
X39300Y-19000D01*
X39916Y-18616D02*
X40300Y-19000D01*
X39150Y-15450D02*
X39150Y-16530D01*
X39916Y-17296D02*
X39916Y-18616D01*
X39150Y-16530D02*
X39916Y-17296D01*
X40310Y-20270D02*
X40310Y-19010D01*
X40310Y-19010D02*
X40300Y-19000D01*
X36652Y-30558D02*
X36290Y-30920D01*
X36290Y-30920D02*
X35280Y-30920D01*
X34820Y-31380D02*
X34820Y-31640D01*
X34820Y-31640D02*
X34630Y-31830D01*
X36652Y-30298D02*
X36652Y-30558D01*
X34630Y-31830D02*
X34296Y-31830D01*
X34300Y-33000D02*
X34300Y-31834D01*
X35280Y-30920D02*
X34820Y-31380D01*
X34300Y-31834D02*
X34296Y-31830D01*
X37652Y-30578D02*
X37330Y-30900D01*
X37652Y-30298D02*
X37652Y-30578D01*
X36920Y-30900D02*
X36630Y-31190D01*
X37330Y-30900D02*
X36920Y-30900D01*
X35780Y-31430D02*
X35780Y-31660D01*
X35300Y-33000D02*
X35300Y-31834D01*
X35610Y-31830D02*
X35296Y-31830D01*
X36020Y-31190D02*
X35780Y-31430D01*
X35780Y-31660D02*
X35610Y-31830D01*
X35300Y-31834D02*
X35296Y-31830D01*
X36630Y-31190D02*
X36020Y-31190D01*
X38652Y-30468D02*
X38180Y-30940D01*
X38180Y-30940D02*
X37940Y-30940D01*
X38652Y-30298D02*
X38652Y-30468D01*
X36300Y-33000D02*
X36300Y-31834D01*
X36656Y-31470D02*
X36296Y-31830D01*
X37070Y-31160D02*
X36760Y-31470D01*
X36760Y-31470D02*
X36656Y-31470D01*
X36300Y-31834D02*
X36296Y-31830D01*
X37940Y-30940D02*
X37720Y-31160D01*
X37720Y-31160D02*
X37070Y-31160D01*
X39652Y-30298D02*
X39652Y-30727D01*
X37300Y-31834D02*
X37296Y-31830D01*
X38460Y-31200D02*
X38120Y-31200D01*
X38981Y-30959D02*
X38635Y-31305D01*
X37300Y-33000D02*
X37300Y-31834D01*
X38565Y-31305D02*
X38460Y-31200D01*
X39420Y-30959D02*
X38981Y-30959D01*
X37810Y-31510D02*
X37810Y-31710D01*
X37810Y-31710D02*
X37690Y-31830D01*
X38120Y-31200D02*
X37810Y-31510D01*
X39652Y-30727D02*
X39420Y-30959D01*
X38635Y-31305D02*
X38565Y-31305D01*
X37690Y-31830D02*
X37296Y-31830D01*
X40652Y-30298D02*
X40652Y-30757D01*
X39789Y-29435D02*
X40652Y-30298D01*
X31450Y-32425D02*
X34440Y-29435D01*
X38670Y-31830D02*
X38296Y-31830D01*
X40449Y-30960D02*
X39930Y-30960D01*
X38810Y-31690D02*
X38670Y-31830D01*
X39090Y-31220D02*
X38810Y-31500D01*
X31450Y-34250D02*
X31450Y-32425D01*
X39670Y-31220D02*
X39090Y-31220D01*
X40652Y-30757D02*
X40449Y-30960D01*
X34440Y-29435D02*
X39789Y-29435D01*
X39930Y-30960D02*
X39670Y-31220D01*
X38810Y-31500D02*
X38810Y-31690D01*
X41652Y-30298D02*
X41652Y-30728D01*
X39750Y-31510D02*
X39750Y-31750D01*
X41160Y-31220D02*
X40040Y-31220D01*
X38300Y-33000D02*
X38520Y-33000D01*
X39670Y-31830D02*
X39296Y-31830D01*
X39750Y-31750D02*
X39670Y-31830D01*
X39296Y-32224D02*
X39296Y-31830D01*
X38520Y-33000D02*
X39296Y-32224D01*
X40040Y-31220D02*
X39750Y-31510D01*
X41652Y-30728D02*
X41160Y-31220D01*
X40310Y-23270D02*
X40300Y-23250D01*
X42652Y-27298D02*
X42652Y-26843D01*
X41070Y-26440D02*
X40820Y-26190D01*
X40820Y-26090D02*
X40560Y-25830D01*
X40300Y-24600D02*
X40300Y-25850D01*
X42652Y-26843D02*
X42520Y-26711D01*
X40820Y-26190D02*
X40820Y-26090D01*
X42520Y-26711D02*
X41991Y-26711D01*
X40300Y-25850D02*
X40296Y-25830D01*
X40300Y-23250D02*
X40300Y-24600D01*
X40306Y-24584D02*
X40300Y-24600D01*
X41720Y-26440D02*
X41070Y-26440D01*
X40300Y-24600D02*
X40306Y-24584D01*
X41991Y-26711D02*
X41720Y-26440D01*
X40560Y-25830D02*
X40296Y-25830D01*
X40092Y-26448D02*
X39794Y-26150D01*
X39794Y-25970D02*
X39654Y-25830D01*
X40961Y-26701D02*
X40708Y-26448D01*
X39794Y-26150D02*
X39794Y-25970D01*
X40708Y-26448D02*
X40092Y-26448D01*
X39300Y-24600D02*
X39306Y-24584D01*
X39310Y-23270D02*
X39300Y-23250D01*
X41652Y-27298D02*
X41652Y-26907D01*
X41446Y-26701D02*
X40961Y-26701D01*
X41652Y-26907D02*
X41446Y-26701D01*
X39300Y-25850D02*
X39296Y-25830D01*
X39654Y-25830D02*
X39296Y-25830D01*
X39306Y-24584D02*
X39300Y-24600D01*
X39300Y-24600D02*
X39300Y-25850D01*
X39300Y-23250D02*
X39300Y-24600D01*
X38300Y-25850D02*
X38300Y-24600D01*
X38300Y-24600D02*
X38300Y-23250D01*
X39716Y-26442D02*
X39100Y-26442D01*
X38678Y-25830D02*
X38296Y-25830D01*
X38306Y-24584D02*
X38300Y-24600D01*
X39983Y-26709D02*
X39716Y-26442D01*
X38796Y-25948D02*
X38678Y-25830D01*
X40510Y-26709D02*
X39983Y-26709D01*
X40652Y-26851D02*
X40510Y-26709D01*
X38300Y-23250D02*
X38310Y-23270D01*
X40652Y-27298D02*
X40652Y-26851D01*
X38300Y-24600D02*
X38306Y-24584D01*
X39100Y-26442D02*
X38796Y-26138D01*
X38796Y-26138D02*
X38796Y-25948D01*
X38296Y-25830D02*
X38300Y-25850D01*
X37296Y-25830D02*
X37300Y-25850D01*
X37718Y-25830D02*
X37296Y-25830D01*
X39652Y-26858D02*
X39498Y-26704D01*
X39652Y-27298D02*
X39652Y-26858D01*
X37300Y-24600D02*
X37306Y-24584D01*
X37300Y-24600D02*
X37300Y-23250D01*
X37824Y-26172D02*
X37824Y-25936D01*
X38992Y-26704D02*
X38730Y-26442D01*
X37300Y-25850D02*
X37300Y-24600D01*
X37300Y-23250D02*
X37310Y-23270D01*
X37824Y-25936D02*
X37718Y-25830D01*
X39498Y-26704D02*
X38992Y-26704D01*
X38730Y-26442D02*
X38094Y-26442D01*
X38094Y-26442D02*
X37824Y-26172D01*
X37306Y-24584D02*
X37300Y-24600D01*
X38494Y-26703D02*
X37985Y-26703D01*
X36300Y-23250D02*
X36300Y-24600D01*
X36300Y-25850D02*
X36296Y-25830D01*
X36306Y-24584D02*
X36300Y-24600D01*
X37736Y-26454D02*
X37088Y-26454D01*
X37088Y-26454D02*
X36814Y-26180D01*
X36814Y-25998D02*
X36646Y-25830D01*
X36310Y-23270D02*
X36300Y-23250D01*
X36646Y-25830D02*
X36296Y-25830D01*
X36814Y-26180D02*
X36814Y-25998D01*
X36300Y-24600D02*
X36306Y-24584D01*
X38652Y-27298D02*
X38652Y-26861D01*
X36300Y-24600D02*
X36300Y-25850D01*
X38652Y-26861D02*
X38494Y-26703D01*
X37985Y-26703D02*
X37736Y-26454D01*
X37548Y-26715D02*
X36979Y-26715D01*
X35300Y-24600D02*
X35300Y-25850D01*
X35306Y-24584D02*
X35306Y-23274D01*
X35754Y-25982D02*
X35602Y-25830D01*
X35602Y-25830D02*
X35296Y-25830D01*
X37652Y-26819D02*
X37548Y-26715D01*
X35306Y-23274D02*
X35310Y-23270D01*
X36710Y-26446D02*
X35964Y-26446D01*
X35306Y-24584D02*
X35300Y-24600D01*
X36979Y-26715D02*
X36710Y-26446D01*
X37652Y-27298D02*
X37652Y-26819D01*
X35754Y-26236D02*
X35754Y-25982D01*
X35964Y-26446D02*
X35754Y-26236D01*
X35300Y-25850D02*
X35296Y-25830D01*
X36586Y-26710D02*
X35858Y-26710D01*
X34296Y-24594D02*
X34306Y-24584D01*
X34306Y-24584D02*
X34306Y-23274D01*
X34306Y-23274D02*
X34310Y-23270D01*
X34296Y-25830D02*
X34296Y-24594D01*
X35858Y-26710D02*
X35744Y-26596D01*
X34970Y-26596D02*
X34204Y-25830D01*
X36652Y-27298D02*
X36652Y-26776D01*
X35744Y-26596D02*
X34970Y-26596D01*
X34204Y-25830D02*
X34296Y-25830D01*
X36652Y-26776D02*
X36586Y-26710D01*
X35146Y-26856D02*
X35146Y-26856D01*
X35652Y-26882D02*
X35626Y-26856D01*
X35652Y-27298D02*
X35652Y-26882D01*
X35626Y-26856D02*
X35146Y-26856D01*
X35146Y-26856D02*
X34322Y-26856D01*
X33310Y-23270D02*
X33310Y-24580D01*
X33310Y-24580D02*
X33306Y-24584D01*
X33306Y-25820D02*
X33296Y-25830D01*
X34322Y-26856D02*
X33296Y-25830D01*
X33306Y-24584D02*
X33306Y-25820D01*
X48334Y-36884D02*
X48900Y-37450D01*
X48312Y-34496D02*
X48312Y-35574D01*
X45788Y-30298D02*
X46400Y-30910D01*
X46960Y-30910D02*
X47296Y-31246D01*
X48312Y-35574D02*
X48334Y-35596D01*
X48334Y-35596D02*
X48334Y-36884D01*
X46400Y-30910D02*
X46960Y-30910D01*
X47828Y-34012D02*
X48312Y-34496D01*
X47296Y-31830D02*
X47296Y-32292D01*
X47296Y-32292D02*
X47828Y-32824D01*
X47296Y-31246D02*
X47296Y-31830D01*
X45652Y-30298D02*
X45788Y-30298D01*
X47828Y-32824D02*
X47828Y-34012D01*
X48752Y-34210D02*
X48296Y-33754D01*
X49900Y-37450D02*
X49900Y-37404D01*
X48296Y-31506D02*
X48296Y-31830D01*
X49170Y-36630D02*
X48752Y-36212D01*
X48296Y-33754D02*
X48296Y-31830D01*
X46848Y-30298D02*
X47570Y-31020D01*
X46652Y-30298D02*
X46848Y-30298D01*
X49900Y-37404D02*
X49170Y-36674D01*
X48752Y-36212D02*
X48752Y-34210D01*
X49170Y-36674D02*
X49170Y-36630D01*
X47810Y-31020D02*
X48296Y-31506D01*
X47570Y-31020D02*
X47810Y-31020D01*
X49030Y-30920D02*
X49296Y-31186D01*
X49192Y-36014D02*
X49192Y-31934D01*
X50900Y-37450D02*
X50900Y-37370D01*
X48140Y-30920D02*
X49030Y-30920D01*
X49296Y-31186D02*
X49296Y-31830D01*
X47652Y-30298D02*
X47652Y-30432D01*
X49192Y-31934D02*
X49296Y-31830D01*
X49984Y-36806D02*
X49192Y-36014D01*
X50900Y-37370D02*
X50336Y-36806D01*
X50336Y-36806D02*
X49984Y-36806D01*
X47652Y-30432D02*
X48140Y-30920D01*
X53652Y-29430D02*
X52360Y-28138D01*
X49620Y-26520D02*
X50230Y-26520D01*
X48842Y-27298D02*
X49620Y-26520D01*
X52360Y-28138D02*
X48906Y-28138D01*
X54910Y-29430D02*
X53652Y-29430D01*
X50230Y-26520D02*
X50296Y-26454D01*
X48652Y-27884D02*
X48652Y-27298D01*
X50296Y-26454D02*
X50296Y-25830D01*
X48652Y-27298D02*
X48842Y-27298D01*
X48906Y-28138D02*
X48652Y-27884D01*
X48666Y-26460D02*
X49296Y-25830D01*
X47652Y-27298D02*
X47652Y-26878D01*
X53438Y-29964D02*
X52052Y-28578D01*
X55697Y-29430D02*
X55697Y-29751D01*
X47652Y-27940D02*
X47652Y-27298D01*
X55484Y-29964D02*
X53438Y-29964D01*
X48070Y-26460D02*
X48666Y-26460D01*
X55697Y-29751D02*
X55484Y-29964D01*
X52052Y-28578D02*
X48290Y-28578D01*
X48290Y-28578D02*
X47652Y-27940D01*
X47652Y-26878D02*
X48070Y-26460D01*
X46652Y-27298D02*
X46652Y-27038D01*
X48440Y-21942D02*
X46770Y-23612D01*
X46652Y-27038D02*
X47250Y-26440D01*
X46770Y-24480D02*
X47236Y-24946D01*
X47730Y-24946D02*
X48296Y-25512D01*
X47590Y-26440D02*
X48200Y-25830D01*
X48440Y-21020D02*
X48440Y-21942D01*
X46770Y-23612D02*
X46770Y-24480D01*
X48200Y-25830D02*
X48296Y-25830D01*
X48296Y-25512D02*
X48296Y-25830D01*
X47236Y-24946D02*
X47730Y-24946D01*
X47250Y-26440D02*
X47590Y-26440D01*
X47120Y-25830D02*
X47296Y-25830D01*
X45652Y-26838D02*
X45782Y-26708D01*
X45782Y-22874D02*
X45782Y-26708D01*
X45782Y-26708D02*
X45940Y-26550D01*
X47426Y-21020D02*
X47426Y-21230D01*
X46400Y-26550D02*
X47120Y-25830D01*
X45652Y-27298D02*
X45652Y-26838D01*
X47426Y-21230D02*
X45782Y-22874D01*
X45940Y-26550D02*
X46400Y-26550D01*
X38900Y-39926D02*
X38900Y-41200D01*
X40811Y-38015D02*
X38900Y-39926D01*
X50860Y-29640D02*
X51296Y-30076D01*
X50294Y-24332D02*
X51852Y-24332D01*
X51296Y-30076D02*
X51296Y-31830D01*
X52940Y-26520D02*
X52700Y-26760D01*
X52940Y-25420D02*
X52940Y-26520D01*
X51520Y-26760D02*
X50860Y-27420D01*
X51852Y-24332D02*
X52940Y-25420D01*
X52700Y-26760D02*
X51520Y-26760D01*
X42595Y-38015D02*
X40811Y-38015D01*
X51296Y-31830D02*
X51296Y-33896D01*
X51950Y-40450D02*
X47050Y-40450D01*
X51850Y-34450D02*
X51296Y-33896D01*
X38900Y-42030D02*
X38900Y-41200D01*
X45440Y-42430D02*
X39300Y-42430D01*
X39300Y-42430D02*
X38900Y-42030D01*
X46070Y-41800D02*
X45440Y-42430D01*
X47050Y-40450D02*
X46070Y-41430D01*
X46070Y-41430D02*
X46070Y-41800D01*
X49294Y-24332D02*
X49448Y-24332D01*
X52500Y-27480D02*
X51880Y-27480D01*
X54350Y-39950D02*
X58860Y-35440D01*
X52280Y-31814D02*
X52296Y-31830D01*
X53380Y-25100D02*
X53380Y-26600D01*
X53655Y-32340D02*
X53145Y-31830D01*
X51800Y-39950D02*
X51840Y-39950D01*
X51880Y-30140D02*
X52280Y-30540D01*
X53145Y-31830D02*
X52296Y-31830D01*
X53380Y-26600D02*
X52500Y-27480D01*
X52280Y-30540D02*
X52280Y-31814D01*
X45720Y-41116D02*
X45720Y-41610D01*
X51840Y-39950D02*
X54350Y-39950D01*
X51840Y-39950D02*
X46886Y-39950D01*
X42900Y-41760D02*
X42900Y-41200D01*
X43186Y-42046D02*
X42900Y-41760D01*
X45284Y-42046D02*
X43186Y-42046D01*
X45720Y-41610D02*
X45284Y-42046D01*
X46886Y-39950D02*
X45720Y-41116D01*
X52360Y-31894D02*
X52296Y-31830D01*
X52060Y-23780D02*
X53380Y-25100D01*
X58860Y-35440D02*
X58860Y-32325D01*
X49448Y-24332D02*
X50000Y-23780D01*
X52360Y-33285D02*
X52360Y-31894D01*
X50000Y-23780D02*
X52060Y-23780D01*
X48294Y-23324D02*
X48294Y-24332D01*
X42536Y-08494D02*
X41160Y-09870D01*
X51300Y-24834D02*
X52296Y-25830D01*
X54400Y-08494D02*
X55660Y-08494D01*
X42470Y-16080D02*
X42470Y-18110D01*
X42470Y-18110D02*
X42810Y-18450D01*
X44270Y-18450D02*
X45040Y-19220D01*
X55660Y-08494D02*
X55660Y-09710D01*
X42455Y-11900D02*
X42455Y-16030D01*
X42455Y-16030D02*
X42460Y-16035D01*
X57255Y-09445D02*
X57225Y-09445D01*
X54400Y-08494D02*
X42536Y-08494D01*
X48294Y-24370D02*
X48758Y-24834D01*
X42810Y-18450D02*
X44270Y-18450D01*
X48294Y-24332D02*
X48294Y-24370D01*
X59885Y-09445D02*
X57255Y-09445D01*
X55660Y-09710D02*
X56150Y-10200D01*
X48758Y-24834D02*
X51300Y-24834D01*
X41160Y-10605D02*
X42455Y-11900D01*
X42460Y-16035D02*
X42460Y-16070D01*
X45040Y-19220D02*
X45040Y-23080D01*
X45040Y-23080D02*
X45300Y-23340D01*
X41160Y-09870D02*
X41160Y-10605D01*
X48290Y-23320D02*
X48294Y-23324D01*
X54414Y-08494D02*
X54400Y-08494D01*
X42460Y-16070D02*
X42470Y-16080D01*
X56304Y-08494D02*
X57255Y-09445D01*
X55660Y-08494D02*
X56304Y-08494D01*
X52150Y-10690D02*
X51975Y-10865D01*
X50390Y-22450D02*
X50250Y-22590D01*
X51975Y-10865D02*
X51975Y-11130D01*
X47450Y-14990D02*
X47450Y-14225D01*
X47294Y-23596D02*
X47294Y-23611D01*
X56665Y-12340D02*
X56665Y-13225D01*
X50250Y-22590D02*
X49770Y-22590D01*
X52150Y-11660D02*
X51975Y-11485D01*
X47450Y-14225D02*
X46740Y-13515D01*
X49890Y-18810D02*
X49515Y-18435D01*
X51975Y-11485D02*
X51975Y-11130D01*
X50390Y-20430D02*
X50390Y-22450D01*
X49900Y-19350D02*
X49900Y-19940D01*
X47430Y-17070D02*
X47035Y-16675D01*
X47035Y-15405D02*
X47450Y-14990D01*
X47780Y-18435D02*
X47430Y-18085D01*
X47294Y-23611D02*
X47294Y-24332D01*
X49890Y-19340D02*
X49900Y-19350D01*
X51296Y-25402D02*
X50989Y-25095D01*
X49890Y-18810D02*
X49890Y-19340D01*
X55985Y-11660D02*
X56665Y-12340D01*
X46740Y-13515D02*
X46740Y-12495D01*
X47634Y-24332D02*
X47294Y-24332D01*
X51296Y-25830D02*
X51296Y-25402D01*
X48030Y-22860D02*
X47294Y-23596D01*
X47430Y-18085D02*
X47430Y-17070D01*
X50989Y-25095D02*
X48525Y-25095D01*
X49500Y-22860D02*
X48030Y-22860D01*
X52645Y-11660D02*
X52660Y-11660D01*
X52660Y-11660D02*
X55985Y-11660D01*
X49770Y-22590D02*
X49500Y-22860D01*
X48525Y-25095D02*
X48238Y-24808D01*
X48238Y-24808D02*
X48110Y-24808D01*
X49515Y-18435D02*
X47780Y-18435D01*
X46740Y-12495D02*
X48105Y-11130D01*
X49900Y-19940D02*
X50390Y-20430D01*
X47035Y-16675D02*
X47035Y-15405D01*
X48110Y-24808D02*
X47634Y-24332D01*
X48105Y-11130D02*
X51975Y-11130D01*
X52660Y-11660D02*
X52150Y-11660D01*
X52150Y-10200D02*
X52150Y-10690D01*
X46294Y-23262D02*
X46294Y-24332D01*
X46962Y-20518D02*
X47798Y-20518D01*
X46296Y-25830D02*
X46296Y-24334D01*
X47798Y-20518D02*
X47930Y-20650D01*
X46958Y-18228D02*
X46376Y-18810D01*
X47930Y-21626D02*
X46294Y-23262D01*
X46958Y-17618D02*
X46958Y-18228D01*
X46376Y-19932D02*
X46962Y-20518D01*
X46296Y-24334D02*
X46294Y-24332D01*
X46376Y-18810D02*
X46376Y-19932D01*
X47930Y-20650D02*
X47930Y-21626D01*
X43190Y-18866D02*
X42176Y-18866D01*
X44655Y-23693D02*
X45294Y-24332D01*
X45294Y-24332D02*
X45294Y-25828D01*
X42176Y-18866D02*
X41958Y-18648D01*
X45294Y-25828D02*
X45296Y-25830D01*
X41958Y-17618D02*
X41958Y-17634D01*
X44172Y-18866D02*
X44186Y-18866D01*
X41958Y-17618D02*
X41958Y-18648D01*
X45438Y-25688D02*
X45296Y-25830D01*
X44186Y-18866D02*
X44655Y-19335D01*
X44655Y-19335D02*
X44655Y-23693D01*
X43190Y-18866D02*
X44172Y-18866D01*
X41476Y-18062D02*
X41476Y-18781D01*
X44462Y-24332D02*
X44294Y-24332D01*
X44294Y-19968D02*
X44294Y-24332D01*
X41958Y-14618D02*
X41958Y-16318D01*
X41476Y-18781D02*
X42030Y-19335D01*
X42030Y-19335D02*
X42840Y-19335D01*
X42734Y-19320D02*
X42840Y-19320D01*
X41476Y-16800D02*
X41476Y-18062D01*
X44296Y-24334D02*
X44294Y-24332D01*
X43646Y-19320D02*
X44294Y-19968D01*
X44296Y-25830D02*
X44296Y-24334D01*
X41958Y-16318D02*
X41476Y-16800D01*
X42840Y-19320D02*
X43646Y-19320D01*
X42840Y-19335D02*
X42840Y-19320D01*
X43294Y-25828D02*
X43296Y-25830D01*
X46486Y-17006D02*
X46486Y-18238D01*
X46486Y-17006D02*
X46486Y-16424D01*
X43648Y-21802D02*
X43294Y-22156D01*
X45980Y-21648D02*
X45826Y-21802D01*
X45980Y-18744D02*
X45980Y-21648D01*
X43294Y-24332D02*
X43294Y-25828D01*
X46725Y-16185D02*
X46725Y-14851D01*
X46725Y-14851D02*
X46958Y-14618D01*
X43294Y-24332D02*
X43294Y-22156D01*
X46486Y-18238D02*
X45980Y-18744D01*
X46486Y-16424D02*
X46725Y-16185D01*
X39570Y-33000D02*
X40296Y-32274D01*
X40296Y-32274D02*
X40296Y-31830D01*
X39300Y-33000D02*
X39570Y-33000D01*
X40300Y-33000D02*
X40576Y-33000D01*
X41296Y-32280D02*
X41296Y-31830D01*
X40576Y-33000D02*
X41296Y-32280D01*
X42296Y-31910D02*
X42296Y-31830D01*
X41300Y-32906D02*
X42296Y-31910D01*
X41300Y-33000D02*
X41300Y-32906D01*
X56360Y-33285D02*
X56360Y-33160D01*
X43219Y-33319D02*
X43200Y-33300D01*
X52150Y-22960D02*
X53434Y-24244D01*
X35300Y-34120D02*
X36300Y-34120D01*
X42150Y-29222D02*
X43006Y-28366D01*
X49600Y-35300D02*
X49900Y-35000D01*
X59250Y-23760D02*
X58850Y-23760D01*
X53130Y-33870D02*
X54400Y-32600D01*
X48864Y-20020D02*
X48440Y-20020D01*
X57840Y-19540D02*
X57840Y-20020D01*
X41810Y-26160D02*
X41810Y-26070D01*
X56665Y-15785D02*
X58065Y-14385D01*
X43200Y-33300D02*
X43219Y-33319D01*
X49900Y-38450D02*
X48900Y-38450D01*
X59250Y-23760D02*
X59250Y-24360D01*
X49306Y-21234D02*
X49306Y-20940D01*
X49238Y-21302D02*
X49306Y-21234D01*
X58366Y-24244D02*
X58850Y-23760D01*
X53300Y-34040D02*
X53130Y-33870D01*
X43296Y-31586D02*
X42660Y-30950D01*
X59885Y-13445D02*
X59885Y-13505D01*
X47426Y-20020D02*
X48440Y-20020D01*
X49306Y-20462D02*
X49306Y-20940D01*
X50900Y-38450D02*
X49900Y-38450D01*
X38055Y-36870D02*
X37405Y-36220D01*
X52000Y-35000D02*
X53130Y-33870D01*
X52150Y-22204D02*
X51276Y-21330D01*
X57840Y-20020D02*
X58140Y-20320D01*
X37405Y-36220D02*
X32970Y-36220D01*
X59955Y-14770D02*
X59955Y-18018D01*
X59344Y-19756D02*
X59344Y-20320D01*
X33500Y-34120D02*
X34300Y-34120D01*
X59490Y-13900D02*
X59490Y-14385D01*
X59885Y-13505D02*
X59490Y-13900D01*
X46754Y-38074D02*
X46396Y-37716D01*
X58000Y-19040D02*
X58000Y-19380D01*
X43296Y-33242D02*
X43296Y-31830D01*
X41810Y-26070D02*
X41570Y-25830D01*
X58000Y-19000D02*
X58000Y-19040D01*
X43200Y-33338D02*
X43296Y-33242D01*
X57000Y-32600D02*
X60900Y-28700D01*
X34300Y-34120D02*
X35300Y-34120D01*
X49600Y-35900D02*
X49600Y-35300D01*
X42951Y-26711D02*
X42690Y-26450D01*
X52150Y-22960D02*
X52150Y-22204D01*
X59344Y-20320D02*
X59344Y-21586D01*
X43652Y-26772D02*
X43591Y-26711D01*
X48864Y-20020D02*
X49306Y-20462D01*
X43440Y-28366D02*
X43652Y-28154D01*
X56665Y-17225D02*
X56665Y-15785D01*
X48724Y-38450D02*
X48348Y-38074D01*
X59570Y-14385D02*
X59955Y-14770D01*
X60900Y-28700D02*
X60900Y-19500D01*
X42660Y-30950D02*
X42340Y-30950D01*
X59344Y-21586D02*
X59250Y-21680D01*
X42690Y-26450D02*
X42100Y-26450D01*
X36300Y-34120D02*
X37300Y-34120D01*
X43652Y-28154D02*
X43652Y-27298D01*
X49900Y-35000D02*
X52000Y-35000D01*
X43652Y-27298D02*
X43652Y-26772D01*
X42100Y-26450D02*
X41810Y-26160D01*
X43591Y-26711D02*
X42951Y-26711D01*
X42340Y-30950D02*
X42150Y-30760D01*
X48900Y-38450D02*
X48724Y-38450D01*
X58000Y-19040D02*
X58000Y-19100D01*
X41570Y-25830D02*
X41296Y-25830D01*
X43200Y-33300D02*
X43200Y-33410D01*
X43200Y-33410D02*
X42595Y-34015D01*
X59250Y-21680D02*
X59250Y-23760D01*
X32970Y-34650D02*
X33500Y-34120D01*
X43006Y-28366D02*
X43440Y-28366D01*
X58140Y-20320D02*
X59344Y-20320D01*
X51550Y-38450D02*
X51800Y-38200D01*
X51800Y-38200D02*
X51800Y-37300D01*
X51800Y-37300D02*
X51000Y-36500D01*
X59955Y-18018D02*
X59955Y-18700D01*
X40300Y-34120D02*
X41300Y-34120D01*
X42595Y-34015D02*
X41405Y-34015D01*
X60100Y-18700D02*
X59955Y-18700D01*
X37300Y-34120D02*
X38300Y-34120D01*
X46396Y-37716D02*
X46396Y-33300D01*
X51000Y-36500D02*
X50200Y-36500D01*
X56920Y-32600D02*
X57000Y-32600D01*
X43296Y-31830D02*
X43296Y-31586D01*
X53434Y-24244D02*
X58366Y-24244D01*
X53300Y-34540D02*
X53300Y-34040D01*
X38300Y-34120D02*
X39300Y-34120D01*
X58065Y-14385D02*
X59490Y-14385D01*
X41405Y-34015D02*
X41300Y-34120D01*
X38055Y-37205D02*
X38055Y-36870D01*
X42150Y-30760D02*
X42150Y-29222D01*
X54400Y-32600D02*
X56920Y-32600D01*
X58300Y-18700D02*
X58000Y-19000D01*
X50900Y-38450D02*
X51550Y-38450D01*
X59490Y-14385D02*
X59570Y-14385D01*
X60900Y-19500D02*
X60100Y-18700D01*
X58000Y-19380D02*
X57840Y-19540D01*
X59250Y-24360D02*
X58730Y-24880D01*
X48348Y-38074D02*
X46754Y-38074D01*
X56360Y-33160D02*
X56920Y-32600D01*
X39300Y-34120D02*
X40300Y-34120D01*
X43200Y-33300D02*
X43200Y-33338D01*
X32970Y-36220D02*
X32970Y-34650D01*
X50200Y-36500D02*
X49600Y-35900D01*
X59955Y-18700D02*
X58300Y-18700D01*
X54910Y-28430D02*
X54910Y-25796D01*
X54910Y-25796D02*
X54978Y-25728D01*
X50296Y-34466D02*
X50296Y-31830D01*
X48652Y-30298D02*
X49258Y-30298D01*
X50296Y-31336D02*
X50296Y-31830D01*
X49258Y-30298D02*
X50296Y-31336D01*
X49576Y-17478D02*
X49192Y-17094D01*
X51660Y-18110D02*
X51660Y-18090D01*
X49390Y-16000D02*
X49192Y-15802D01*
X50948Y-20168D02*
X50948Y-19924D01*
X52812Y-20526D02*
X52812Y-21628D01*
X49192Y-15802D02*
X49192Y-14124D01*
X49192Y-14124D02*
X49192Y-13612D01*
X50948Y-19924D02*
X50898Y-19874D01*
X51660Y-18670D02*
X51660Y-18110D01*
X52812Y-21628D02*
X52760Y-21680D01*
X49192Y-17094D02*
X49192Y-15802D01*
X51306Y-20526D02*
X50948Y-20168D01*
X50898Y-19432D02*
X51660Y-18670D01*
X50898Y-19874D02*
X50898Y-19432D01*
X50688Y-17478D02*
X49576Y-17478D01*
X51660Y-18110D02*
X51660Y-16500D01*
X51660Y-16500D02*
X51160Y-16000D01*
X52812Y-20526D02*
X51306Y-20526D01*
X51160Y-16000D02*
X49390Y-16000D01*
X49500Y-13134D02*
X48796Y-13134D01*
X56638Y-23728D02*
X54978Y-23728D01*
X54978Y-20692D02*
X54812Y-20526D01*
X50750Y-11590D02*
X51266Y-12106D01*
X41426Y-15664D02*
X41514Y-15752D01*
X47958Y-13972D02*
X47958Y-14618D01*
X57002Y-23364D02*
X56638Y-23728D01*
X49764Y-13398D02*
X49500Y-13134D01*
X56120Y-18054D02*
X56204Y-18138D01*
X51266Y-12106D02*
X55826Y-12106D01*
X53900Y-23200D02*
X54400Y-23700D01*
X56162Y-19628D02*
X55264Y-20526D01*
X55826Y-12106D02*
X56120Y-12400D01*
X49764Y-15092D02*
X49764Y-13398D01*
X41514Y-15752D02*
X41514Y-16126D01*
X54978Y-23728D02*
X54978Y-20692D01*
X54950Y-23700D02*
X54978Y-23728D01*
X47958Y-14618D02*
X47958Y-15270D01*
X41514Y-16126D02*
X40958Y-16682D01*
X50150Y-15478D02*
X49764Y-15092D01*
X50688Y-15478D02*
X50150Y-15478D01*
X54400Y-23700D02*
X54950Y-23700D01*
X56120Y-12400D02*
X56120Y-18054D01*
X55264Y-20526D02*
X54812Y-20526D01*
X40958Y-16682D02*
X40958Y-17618D01*
X57002Y-21604D02*
X57002Y-23364D01*
X57344Y-19756D02*
X57344Y-21262D01*
X57344Y-21262D02*
X57002Y-21604D01*
X47958Y-15270D02*
X47586Y-15642D01*
X48090Y-11590D02*
X50750Y-11590D01*
X47190Y-12490D02*
X48090Y-11590D01*
X47190Y-13244D02*
X47190Y-12490D01*
X48796Y-13134D02*
X47958Y-13972D01*
X47958Y-14012D02*
X47190Y-13244D01*
X47958Y-14618D02*
X47958Y-14012D01*
X27900Y-23700D02*
X27900Y-27200D01*
X51370Y-16742D02*
X51370Y-17820D01*
X40370Y-15884D02*
X40958Y-15296D01*
X40370Y-16478D02*
X40370Y-15884D01*
X49852Y-18216D02*
X49254Y-17618D01*
X27900Y-13200D02*
X27900Y-16700D01*
X50688Y-16478D02*
X51106Y-16478D01*
X50974Y-18216D02*
X49852Y-18216D01*
X27900Y-09700D02*
X27900Y-09060D01*
X40958Y-14098D02*
X40958Y-14618D01*
X40958Y-11348D02*
X40740Y-11130D01*
X40740Y-09170D02*
X39796Y-08226D01*
X40348Y-16500D02*
X40348Y-18128D01*
X41310Y-19090D02*
X40348Y-18128D01*
X41310Y-19090D02*
X41310Y-20270D01*
X40958Y-15296D02*
X40958Y-14618D01*
X42070Y-12286D02*
X42070Y-13370D01*
X39796Y-08226D02*
X28734Y-08226D01*
X27900Y-20200D02*
X27900Y-16700D01*
X41132Y-11348D02*
X42070Y-12286D01*
X28734Y-08226D02*
X27900Y-09060D01*
X41614Y-13826D02*
X41230Y-13826D01*
X41230Y-13826D02*
X40958Y-14098D01*
X40958Y-11348D02*
X41132Y-11348D01*
X40740Y-11130D02*
X40740Y-09170D01*
X27900Y-23700D02*
X27900Y-20200D01*
X42070Y-13370D02*
X41614Y-13826D01*
X47958Y-16828D02*
X47630Y-16500D01*
X27900Y-30700D02*
X27900Y-34200D01*
X51106Y-16478D02*
X51370Y-16742D01*
X27900Y-09700D02*
X27900Y-13200D01*
X51370Y-17820D02*
X50974Y-18216D01*
X27900Y-27200D02*
X27900Y-30700D01*
X49254Y-17618D02*
X47958Y-17618D01*
X47958Y-17618D02*
X47958Y-16828D01*
X40348Y-16500D02*
X40370Y-16478D01*
G54D10*
G36*
X42946Y-25251D02*
X42831Y-25366D01*
X42797Y-25445D01*
X42678Y-25280D01*
X42492Y-25165D01*
X42433Y-25148D01*
X42346Y-25195D01*
X42346Y-25730D01*
X42346Y-25780D01*
X42346Y-25880D01*
X42246Y-25880D01*
X42246Y-25780D01*
X42246Y-25730D01*
X42246Y-25195D01*
X42159Y-25148D01*
X42100Y-25165D01*
X41914Y-25280D01*
X41794Y-25445D01*
X41761Y-25366D01*
X41607Y-25212D01*
X41405Y-25128D01*
X41187Y-25128D01*
X40985Y-25212D01*
X40831Y-25366D01*
X40796Y-25450D01*
X40761Y-25366D01*
X40648Y-25253D01*
X40648Y-24984D01*
X40751Y-24882D01*
X40831Y-24689D01*
X40831Y-24480D01*
X40751Y-24287D01*
X40648Y-24183D01*
X40648Y-23861D01*
X40775Y-23734D01*
X40810Y-23649D01*
X40845Y-23734D01*
X40999Y-23888D01*
X41201Y-23972D01*
X41419Y-23972D01*
X41621Y-23888D01*
X41775Y-23734D01*
X41823Y-23618D01*
X42192Y-23618D01*
X42325Y-23592D01*
X42326Y-23592D01*
X42438Y-23516D01*
X42946Y-23008D01*
X42946Y-23817D01*
X42878Y-23846D01*
X42808Y-23916D01*
X42770Y-24007D01*
X42770Y-24106D01*
X42770Y-24656D01*
X42808Y-24748D01*
X42878Y-24818D01*
X42946Y-24846D01*
X42946Y-25251D01*
X42946Y-25251D01*
G37*
G54D29*
X42946Y-25251D02*
X42831Y-25366D01*
X42797Y-25445D01*
X42678Y-25280D01*
X42492Y-25165D01*
X42433Y-25148D01*
X42346Y-25195D01*
X42346Y-25730D01*
X42346Y-25780D01*
X42346Y-25880D01*
X42246Y-25880D01*
X42246Y-25780D01*
X42246Y-25730D01*
X42246Y-25195D01*
X42159Y-25148D01*
X42100Y-25165D01*
X41914Y-25280D01*
X41794Y-25445D01*
X41761Y-25366D01*
X41607Y-25212D01*
X41405Y-25128D01*
X41187Y-25128D01*
X40985Y-25212D01*
X40831Y-25366D01*
X40796Y-25450D01*
X40761Y-25366D01*
X40648Y-25253D01*
X40648Y-24984D01*
X40751Y-24882D01*
X40831Y-24689D01*
X40831Y-24480D01*
X40751Y-24287D01*
X40648Y-24183D01*
X40648Y-23861D01*
X40775Y-23734D01*
X40810Y-23649D01*
X40845Y-23734D01*
X40999Y-23888D01*
X41201Y-23972D01*
X41419Y-23972D01*
X41621Y-23888D01*
X41775Y-23734D01*
X41823Y-23618D01*
X42192Y-23618D01*
X42325Y-23592D01*
X42326Y-23592D01*
X42438Y-23516D01*
X42946Y-23008D01*
X42946Y-23817D01*
X42878Y-23846D01*
X42808Y-23916D01*
X42770Y-24007D01*
X42770Y-24106D01*
X42770Y-24656D01*
X42808Y-24748D01*
X42878Y-24818D01*
X42946Y-24846D01*
X42946Y-25251D01*
G54D10*
G36*
X50042Y-22242D02*
X49770Y-22242D01*
X49637Y-22268D01*
X49524Y-22344D01*
X49523Y-22344D01*
X49523Y-22345D01*
X49356Y-22512D01*
X48362Y-22512D01*
X48686Y-22189D01*
X48686Y-22188D01*
X48736Y-22113D01*
X48761Y-22076D01*
X48762Y-22075D01*
X48787Y-21943D01*
X48788Y-21942D01*
X48788Y-21586D01*
X48793Y-21599D01*
X48940Y-21747D01*
X49133Y-21827D01*
X49342Y-21827D01*
X49535Y-21747D01*
X49683Y-21600D01*
X49763Y-21407D01*
X49763Y-21198D01*
X49683Y-21005D01*
X49654Y-20975D01*
X49654Y-20940D01*
X49654Y-20462D01*
X49628Y-20329D01*
X49628Y-20328D01*
X49552Y-20216D01*
X49110Y-19774D01*
X48998Y-19698D01*
X48868Y-19672D01*
X48751Y-19555D01*
X48672Y-19522D01*
X48726Y-19500D01*
X48755Y-19405D01*
X48440Y-19091D01*
X48125Y-19405D01*
X48154Y-19500D01*
X48211Y-19520D01*
X48129Y-19555D01*
X48012Y-19672D01*
X47854Y-19672D01*
X47737Y-19555D01*
X47658Y-19522D01*
X47712Y-19500D01*
X47741Y-19405D01*
X47426Y-19091D01*
X47355Y-19161D01*
X47111Y-19405D01*
X47140Y-19500D01*
X47197Y-19520D01*
X47115Y-19555D01*
X46961Y-19709D01*
X46877Y-19911D01*
X46877Y-19940D01*
X46724Y-19787D01*
X46724Y-18954D01*
X46971Y-18706D01*
X46986Y-18721D01*
X46946Y-18734D01*
X46873Y-18939D01*
X46884Y-19157D01*
X46946Y-19306D01*
X47041Y-19335D01*
X47320Y-19055D01*
X47355Y-19020D01*
X47426Y-18949D01*
X47497Y-19020D01*
X47532Y-19055D01*
X47811Y-19335D01*
X47906Y-19306D01*
X47930Y-19236D01*
X47960Y-19306D01*
X48055Y-19335D01*
X48334Y-19055D01*
X48369Y-19020D01*
X48440Y-18949D01*
X48511Y-19020D01*
X48546Y-19055D01*
X48825Y-19335D01*
X48920Y-19306D01*
X48993Y-19101D01*
X48982Y-18883D01*
X48940Y-18783D01*
X49371Y-18783D01*
X49542Y-18954D01*
X49542Y-19340D01*
X49552Y-19391D01*
X49552Y-19940D01*
X49578Y-20074D01*
X49654Y-20186D01*
X50042Y-20574D01*
X50042Y-22242D01*
X50042Y-22242D01*
G37*
G54D29*
X50042Y-22242D02*
X49770Y-22242D01*
X49637Y-22268D01*
X49524Y-22344D01*
X49523Y-22344D01*
X49523Y-22345D01*
X49356Y-22512D01*
X48362Y-22512D01*
X48686Y-22189D01*
X48686Y-22188D01*
X48736Y-22113D01*
X48761Y-22076D01*
X48762Y-22075D01*
X48787Y-21943D01*
X48788Y-21942D01*
X48788Y-21586D01*
X48793Y-21599D01*
X48940Y-21747D01*
X49133Y-21827D01*
X49342Y-21827D01*
X49535Y-21747D01*
X49683Y-21600D01*
X49763Y-21407D01*
X49763Y-21198D01*
X49683Y-21005D01*
X49654Y-20975D01*
X49654Y-20940D01*
X49654Y-20462D01*
X49628Y-20329D01*
X49628Y-20328D01*
X49552Y-20216D01*
X49110Y-19774D01*
X48998Y-19698D01*
X48868Y-19672D01*
X48751Y-19555D01*
X48672Y-19522D01*
X48726Y-19500D01*
X48755Y-19405D01*
X48440Y-19091D01*
X48125Y-19405D01*
X48154Y-19500D01*
X48211Y-19520D01*
X48129Y-19555D01*
X48012Y-19672D01*
X47854Y-19672D01*
X47737Y-19555D01*
X47658Y-19522D01*
X47712Y-19500D01*
X47741Y-19405D01*
X47426Y-19091D01*
X47355Y-19161D01*
X47111Y-19405D01*
X47140Y-19500D01*
X47197Y-19520D01*
X47115Y-19555D01*
X46961Y-19709D01*
X46877Y-19911D01*
X46877Y-19940D01*
X46724Y-19787D01*
X46724Y-18954D01*
X46971Y-18706D01*
X46986Y-18721D01*
X46946Y-18734D01*
X46873Y-18939D01*
X46884Y-19157D01*
X46946Y-19306D01*
X47041Y-19335D01*
X47320Y-19055D01*
X47355Y-19020D01*
X47426Y-18949D01*
X47497Y-19020D01*
X47532Y-19055D01*
X47811Y-19335D01*
X47906Y-19306D01*
X47930Y-19236D01*
X47960Y-19306D01*
X48055Y-19335D01*
X48334Y-19055D01*
X48369Y-19020D01*
X48440Y-18949D01*
X48511Y-19020D01*
X48546Y-19055D01*
X48825Y-19335D01*
X48920Y-19306D01*
X48993Y-19101D01*
X48982Y-18883D01*
X48940Y-18783D01*
X49371Y-18783D01*
X49542Y-18954D01*
X49542Y-19340D01*
X49552Y-19391D01*
X49552Y-19940D01*
X49578Y-20074D01*
X49654Y-20186D01*
X50042Y-20574D01*
X50042Y-22242D01*
G54D10*
G36*
X52146Y-23448D02*
X52060Y-23432D01*
X50906Y-23432D01*
X50915Y-23423D01*
X50915Y-23422D01*
X50916Y-23422D01*
X50991Y-23310D01*
X50992Y-23309D01*
X51017Y-23177D01*
X51018Y-23176D01*
X51018Y-21791D01*
X51171Y-21855D01*
X51309Y-21855D01*
X51802Y-22348D01*
X51802Y-22960D01*
X51828Y-23094D01*
X51904Y-23206D01*
X52146Y-23448D01*
X52146Y-23448D01*
G37*
G54D29*
X52146Y-23448D02*
X52060Y-23432D01*
X50906Y-23432D01*
X50915Y-23423D01*
X50915Y-23422D01*
X50916Y-23422D01*
X50991Y-23310D01*
X50992Y-23309D01*
X51017Y-23177D01*
X51018Y-23176D01*
X51018Y-21791D01*
X51171Y-21855D01*
X51309Y-21855D01*
X51802Y-22348D01*
X51802Y-22960D01*
X51828Y-23094D01*
X51904Y-23206D01*
X52146Y-23448D01*
G54D10*
G36*
X54751Y-25228D02*
X54667Y-25263D01*
X54513Y-25417D01*
X54429Y-25619D01*
X54429Y-25837D01*
X54513Y-26039D01*
X54562Y-26088D01*
X54562Y-28002D01*
X54445Y-28119D01*
X54361Y-28321D01*
X54361Y-28539D01*
X54445Y-28741D01*
X54599Y-28895D01*
X54683Y-28930D01*
X54599Y-28965D01*
X54482Y-29082D01*
X53796Y-29082D01*
X52606Y-27892D01*
X52509Y-27826D01*
X52633Y-27802D01*
X52634Y-27802D01*
X52746Y-27726D01*
X53626Y-26846D01*
X53701Y-26734D01*
X53702Y-26733D01*
X53728Y-26600D01*
X53728Y-25100D01*
X53727Y-25099D01*
X53702Y-24967D01*
X53701Y-24966D01*
X53676Y-24929D01*
X53626Y-24854D01*
X53626Y-24853D01*
X53347Y-24575D01*
X53433Y-24591D01*
X53434Y-24592D01*
X54440Y-24592D01*
X54429Y-24619D01*
X54429Y-24837D01*
X54513Y-25039D01*
X54667Y-25193D01*
X54751Y-25228D01*
X54751Y-25228D01*
G37*
G54D29*
X54751Y-25228D02*
X54667Y-25263D01*
X54513Y-25417D01*
X54429Y-25619D01*
X54429Y-25837D01*
X54513Y-26039D01*
X54562Y-26088D01*
X54562Y-28002D01*
X54445Y-28119D01*
X54361Y-28321D01*
X54361Y-28539D01*
X54445Y-28741D01*
X54599Y-28895D01*
X54683Y-28930D01*
X54599Y-28965D01*
X54482Y-29082D01*
X53796Y-29082D01*
X52606Y-27892D01*
X52509Y-27826D01*
X52633Y-27802D01*
X52634Y-27802D01*
X52746Y-27726D01*
X53626Y-26846D01*
X53701Y-26734D01*
X53702Y-26733D01*
X53728Y-26600D01*
X53728Y-25100D01*
X53727Y-25099D01*
X53702Y-24967D01*
X53701Y-24966D01*
X53676Y-24929D01*
X53626Y-24854D01*
X53626Y-24853D01*
X53347Y-24575D01*
X53433Y-24591D01*
X53434Y-24592D01*
X54440Y-24592D01*
X54429Y-24619D01*
X54429Y-24837D01*
X54513Y-25039D01*
X54667Y-25193D01*
X54751Y-25228D01*
G54D10*
G36*
X60552Y-28556D02*
X57797Y-31311D01*
X57797Y-31087D01*
X57797Y-26775D01*
X57797Y-26363D01*
X57640Y-25982D01*
X57348Y-25690D01*
X56967Y-25531D01*
X56555Y-25531D01*
X56174Y-25688D01*
X55882Y-25980D01*
X55723Y-26361D01*
X55723Y-26773D01*
X55880Y-27154D01*
X56172Y-27446D01*
X56553Y-27605D01*
X56965Y-27605D01*
X57346Y-27448D01*
X57638Y-27156D01*
X57797Y-26775D01*
X57797Y-31087D01*
X57640Y-30706D01*
X57348Y-30414D01*
X56967Y-30255D01*
X56555Y-30255D01*
X56250Y-30380D01*
X56250Y-28511D01*
X56239Y-28293D01*
X56177Y-28144D01*
X56082Y-28115D01*
X56012Y-28185D01*
X56012Y-28045D01*
X55983Y-27950D01*
X55778Y-27877D01*
X55560Y-27888D01*
X55411Y-27950D01*
X55382Y-28045D01*
X55697Y-28359D01*
X56012Y-28045D01*
X56012Y-28185D01*
X55768Y-28430D01*
X56082Y-28745D01*
X56177Y-28716D01*
X56250Y-28511D01*
X56250Y-30380D01*
X56174Y-30412D01*
X55882Y-30704D01*
X55723Y-31085D01*
X55723Y-31497D01*
X55880Y-31878D01*
X56172Y-32170D01*
X56368Y-32252D01*
X54400Y-32252D01*
X54266Y-32278D01*
X54180Y-32336D01*
X54180Y-32236D01*
X54100Y-32043D01*
X53953Y-31895D01*
X53760Y-31815D01*
X53622Y-31815D01*
X53391Y-31584D01*
X53279Y-31508D01*
X53145Y-31482D01*
X52809Y-31482D01*
X52761Y-31366D01*
X52628Y-31233D01*
X52628Y-30540D01*
X52602Y-30407D01*
X52601Y-30406D01*
X52576Y-30369D01*
X52526Y-30294D01*
X52526Y-30293D01*
X52405Y-30172D01*
X52405Y-30036D01*
X52325Y-29843D01*
X52178Y-29695D01*
X51985Y-29615D01*
X51776Y-29615D01*
X51583Y-29695D01*
X51494Y-29782D01*
X51385Y-29673D01*
X51385Y-29536D01*
X51305Y-29343D01*
X51158Y-29195D01*
X50965Y-29115D01*
X50756Y-29115D01*
X50563Y-29195D01*
X50415Y-29342D01*
X50335Y-29535D01*
X50335Y-29744D01*
X50415Y-29937D01*
X50562Y-30085D01*
X50755Y-30165D01*
X50893Y-30165D01*
X50948Y-30220D01*
X50948Y-31249D01*
X50831Y-31366D01*
X50796Y-31450D01*
X50761Y-31366D01*
X50622Y-31227D01*
X50618Y-31203D01*
X50617Y-31202D01*
X50542Y-31090D01*
X50541Y-31089D01*
X49504Y-30052D01*
X49392Y-29976D01*
X49258Y-29950D01*
X49165Y-29950D01*
X49117Y-29834D01*
X48963Y-29680D01*
X48761Y-29596D01*
X48543Y-29596D01*
X48341Y-29680D01*
X48187Y-29834D01*
X48152Y-29918D01*
X48117Y-29834D01*
X47963Y-29680D01*
X47761Y-29596D01*
X47543Y-29596D01*
X47341Y-29680D01*
X47187Y-29834D01*
X47152Y-29918D01*
X47117Y-29834D01*
X46963Y-29680D01*
X46761Y-29596D01*
X46543Y-29596D01*
X46341Y-29680D01*
X46187Y-29834D01*
X46152Y-29918D01*
X46117Y-29834D01*
X45963Y-29680D01*
X45761Y-29596D01*
X45543Y-29596D01*
X45341Y-29680D01*
X45187Y-29834D01*
X45152Y-29918D01*
X45117Y-29834D01*
X44963Y-29680D01*
X44761Y-29596D01*
X44543Y-29596D01*
X44341Y-29680D01*
X44187Y-29834D01*
X44152Y-29918D01*
X44117Y-29834D01*
X43963Y-29680D01*
X43761Y-29596D01*
X43543Y-29596D01*
X43341Y-29680D01*
X43187Y-29834D01*
X43153Y-29913D01*
X43034Y-29748D01*
X42848Y-29633D01*
X42789Y-29616D01*
X42702Y-29663D01*
X42702Y-30198D01*
X42702Y-30248D01*
X42702Y-30348D01*
X42602Y-30348D01*
X42602Y-30248D01*
X42602Y-30198D01*
X42602Y-29663D01*
X42515Y-29616D01*
X42498Y-29620D01*
X42498Y-29366D01*
X43150Y-28714D01*
X43440Y-28714D01*
X43573Y-28688D01*
X43574Y-28688D01*
X43686Y-28612D01*
X43897Y-28401D01*
X43897Y-28400D01*
X43898Y-28400D01*
X43973Y-28288D01*
X43974Y-28287D01*
X43999Y-28155D01*
X44000Y-28154D01*
X44000Y-27879D01*
X44117Y-27762D01*
X44150Y-27682D01*
X44270Y-27848D01*
X44456Y-27963D01*
X44515Y-27980D01*
X44602Y-27933D01*
X44602Y-27398D01*
X44602Y-27348D01*
X44602Y-27248D01*
X44602Y-27198D01*
X44602Y-26663D01*
X44515Y-26616D01*
X44456Y-26633D01*
X44270Y-26748D01*
X44150Y-26913D01*
X44117Y-26834D01*
X43986Y-26703D01*
X43974Y-26639D01*
X43974Y-26638D01*
X43898Y-26526D01*
X43837Y-26465D01*
X43725Y-26389D01*
X43675Y-26379D01*
X43761Y-26294D01*
X43796Y-26209D01*
X43831Y-26294D01*
X43985Y-26448D01*
X44187Y-26532D01*
X44405Y-26532D01*
X44607Y-26448D01*
X44761Y-26294D01*
X44796Y-26209D01*
X44831Y-26294D01*
X44985Y-26448D01*
X45187Y-26532D01*
X45405Y-26532D01*
X45434Y-26519D01*
X45434Y-26564D01*
X45406Y-26592D01*
X45349Y-26676D01*
X45348Y-26676D01*
X45341Y-26680D01*
X45187Y-26834D01*
X45153Y-26913D01*
X45034Y-26748D01*
X44848Y-26633D01*
X44789Y-26616D01*
X44702Y-26663D01*
X44702Y-27198D01*
X44702Y-27248D01*
X44702Y-27348D01*
X44702Y-27398D01*
X44702Y-27933D01*
X44789Y-27980D01*
X44848Y-27963D01*
X45034Y-27848D01*
X45153Y-27682D01*
X45187Y-27762D01*
X45341Y-27916D01*
X45543Y-28000D01*
X45761Y-28000D01*
X45963Y-27916D01*
X46117Y-27762D01*
X46152Y-27677D01*
X46187Y-27762D01*
X46341Y-27916D01*
X46543Y-28000D01*
X46761Y-28000D01*
X46963Y-27916D01*
X47117Y-27762D01*
X47152Y-27677D01*
X47187Y-27762D01*
X47304Y-27879D01*
X47304Y-27940D01*
X47330Y-28074D01*
X47406Y-28186D01*
X48044Y-28824D01*
X48156Y-28900D01*
X48157Y-28900D01*
X48290Y-28926D01*
X51908Y-28926D01*
X53192Y-30210D01*
X53304Y-30286D01*
X53305Y-30286D01*
X53438Y-30312D01*
X55484Y-30312D01*
X55617Y-30286D01*
X55618Y-30286D01*
X55730Y-30210D01*
X55943Y-29997D01*
X56019Y-29885D01*
X56019Y-29884D01*
X56019Y-29883D01*
X56162Y-29741D01*
X56246Y-29539D01*
X56246Y-29321D01*
X56162Y-29119D01*
X56008Y-28965D01*
X55929Y-28932D01*
X55983Y-28910D01*
X56012Y-28815D01*
X55697Y-28501D01*
X55382Y-28815D01*
X55411Y-28910D01*
X55468Y-28930D01*
X55386Y-28965D01*
X55303Y-29047D01*
X55221Y-28965D01*
X55136Y-28930D01*
X55221Y-28895D01*
X55375Y-28741D01*
X55417Y-28639D01*
X55626Y-28430D01*
X55417Y-28220D01*
X55375Y-28119D01*
X55258Y-28002D01*
X55258Y-26205D01*
X55289Y-26193D01*
X55443Y-26039D01*
X55527Y-25837D01*
X55527Y-25619D01*
X55443Y-25417D01*
X55289Y-25263D01*
X55204Y-25228D01*
X55289Y-25193D01*
X55406Y-25076D01*
X57181Y-25076D01*
X57181Y-25229D01*
X57219Y-25321D01*
X57289Y-25391D01*
X57380Y-25429D01*
X57479Y-25429D01*
X58079Y-25429D01*
X58171Y-25391D01*
X58241Y-25321D01*
X58279Y-25230D01*
X58279Y-25205D01*
X58419Y-25345D01*
X58621Y-25429D01*
X58839Y-25429D01*
X59041Y-25345D01*
X59195Y-25191D01*
X59230Y-25106D01*
X59265Y-25191D01*
X59419Y-25345D01*
X59621Y-25429D01*
X59839Y-25429D01*
X60041Y-25345D01*
X60195Y-25191D01*
X60279Y-24989D01*
X60279Y-24771D01*
X60195Y-24569D01*
X60041Y-24415D01*
X59839Y-24331D01*
X59621Y-24331D01*
X59598Y-24340D01*
X59598Y-23760D01*
X59598Y-22419D01*
X59621Y-22429D01*
X59839Y-22429D01*
X60041Y-22345D01*
X60195Y-22191D01*
X60279Y-21989D01*
X60279Y-21771D01*
X60195Y-21569D01*
X60041Y-21415D01*
X59839Y-21331D01*
X59692Y-21331D01*
X59692Y-20320D01*
X59692Y-20184D01*
X59809Y-20067D01*
X59893Y-19865D01*
X59893Y-19647D01*
X59809Y-19445D01*
X59655Y-19291D01*
X59453Y-19207D01*
X59235Y-19207D01*
X59033Y-19291D01*
X58879Y-19445D01*
X58846Y-19523D01*
X58824Y-19470D01*
X58729Y-19441D01*
X58415Y-19756D01*
X58344Y-19827D01*
X58273Y-19756D01*
X58344Y-19685D01*
X58379Y-19650D01*
X58659Y-19371D01*
X58630Y-19276D01*
X58425Y-19203D01*
X58348Y-19206D01*
X58348Y-19144D01*
X58444Y-19048D01*
X59955Y-19048D01*
X59956Y-19048D01*
X60552Y-19644D01*
X60552Y-28556D01*
X60552Y-28556D01*
G37*
G54D29*
X60552Y-28556D02*
X57797Y-31311D01*
X57797Y-31087D01*
X57797Y-26775D01*
X57797Y-26363D01*
X57640Y-25982D01*
X57348Y-25690D01*
X56967Y-25531D01*
X56555Y-25531D01*
X56174Y-25688D01*
X55882Y-25980D01*
X55723Y-26361D01*
X55723Y-26773D01*
X55880Y-27154D01*
X56172Y-27446D01*
X56553Y-27605D01*
X56965Y-27605D01*
X57346Y-27448D01*
X57638Y-27156D01*
X57797Y-26775D01*
X57797Y-31087D01*
X57640Y-30706D01*
X57348Y-30414D01*
X56967Y-30255D01*
X56555Y-30255D01*
X56250Y-30380D01*
X56250Y-28511D01*
X56239Y-28293D01*
X56177Y-28144D01*
X56082Y-28115D01*
X56012Y-28185D01*
X56012Y-28045D01*
X55983Y-27950D01*
X55778Y-27877D01*
X55560Y-27888D01*
X55411Y-27950D01*
X55382Y-28045D01*
X55697Y-28359D01*
X56012Y-28045D01*
X56012Y-28185D01*
X55768Y-28430D01*
X56082Y-28745D01*
X56177Y-28716D01*
X56250Y-28511D01*
X56250Y-30380D01*
X56174Y-30412D01*
X55882Y-30704D01*
X55723Y-31085D01*
X55723Y-31497D01*
X55880Y-31878D01*
X56172Y-32170D01*
X56368Y-32252D01*
X54400Y-32252D01*
X54266Y-32278D01*
X54180Y-32336D01*
X54180Y-32236D01*
X54100Y-32043D01*
X53953Y-31895D01*
X53760Y-31815D01*
X53622Y-31815D01*
X53391Y-31584D01*
X53279Y-31508D01*
X53145Y-31482D01*
X52809Y-31482D01*
X52761Y-31366D01*
X52628Y-31233D01*
X52628Y-30540D01*
X52602Y-30407D01*
X52601Y-30406D01*
X52576Y-30369D01*
X52526Y-30294D01*
X52526Y-30293D01*
X52405Y-30172D01*
X52405Y-30036D01*
X52325Y-29843D01*
X52178Y-29695D01*
X51985Y-29615D01*
X51776Y-29615D01*
X51583Y-29695D01*
X51494Y-29782D01*
X51385Y-29673D01*
X51385Y-29536D01*
X51305Y-29343D01*
X51158Y-29195D01*
X50965Y-29115D01*
X50756Y-29115D01*
X50563Y-29195D01*
X50415Y-29342D01*
X50335Y-29535D01*
X50335Y-29744D01*
X50415Y-29937D01*
X50562Y-30085D01*
X50755Y-30165D01*
X50893Y-30165D01*
X50948Y-30220D01*
X50948Y-31249D01*
X50831Y-31366D01*
X50796Y-31450D01*
X50761Y-31366D01*
X50622Y-31227D01*
X50618Y-31203D01*
X50617Y-31202D01*
X50542Y-31090D01*
X50541Y-31089D01*
X49504Y-30052D01*
X49392Y-29976D01*
X49258Y-29950D01*
X49165Y-29950D01*
X49117Y-29834D01*
X48963Y-29680D01*
X48761Y-29596D01*
X48543Y-29596D01*
X48341Y-29680D01*
X48187Y-29834D01*
X48152Y-29918D01*
X48117Y-29834D01*
X47963Y-29680D01*
X47761Y-29596D01*
X47543Y-29596D01*
X47341Y-29680D01*
X47187Y-29834D01*
X47152Y-29918D01*
X47117Y-29834D01*
X46963Y-29680D01*
X46761Y-29596D01*
X46543Y-29596D01*
X46341Y-29680D01*
X46187Y-29834D01*
X46152Y-29918D01*
X46117Y-29834D01*
X45963Y-29680D01*
X45761Y-29596D01*
X45543Y-29596D01*
X45341Y-29680D01*
X45187Y-29834D01*
X45152Y-29918D01*
X45117Y-29834D01*
X44963Y-29680D01*
X44761Y-29596D01*
X44543Y-29596D01*
X44341Y-29680D01*
X44187Y-29834D01*
X44152Y-29918D01*
X44117Y-29834D01*
X43963Y-29680D01*
X43761Y-29596D01*
X43543Y-29596D01*
X43341Y-29680D01*
X43187Y-29834D01*
X43153Y-29913D01*
X43034Y-29748D01*
X42848Y-29633D01*
X42789Y-29616D01*
X42702Y-29663D01*
X42702Y-30198D01*
X42702Y-30248D01*
X42702Y-30348D01*
X42602Y-30348D01*
X42602Y-30248D01*
X42602Y-30198D01*
X42602Y-29663D01*
X42515Y-29616D01*
X42498Y-29620D01*
X42498Y-29366D01*
X43150Y-28714D01*
X43440Y-28714D01*
X43573Y-28688D01*
X43574Y-28688D01*
X43686Y-28612D01*
X43897Y-28401D01*
X43897Y-28400D01*
X43898Y-28400D01*
X43973Y-28288D01*
X43974Y-28287D01*
X43999Y-28155D01*
X44000Y-28154D01*
X44000Y-27879D01*
X44117Y-27762D01*
X44150Y-27682D01*
X44270Y-27848D01*
X44456Y-27963D01*
X44515Y-27980D01*
X44602Y-27933D01*
X44602Y-27398D01*
X44602Y-27348D01*
X44602Y-27248D01*
X44602Y-27198D01*
X44602Y-26663D01*
X44515Y-26616D01*
X44456Y-26633D01*
X44270Y-26748D01*
X44150Y-26913D01*
X44117Y-26834D01*
X43986Y-26703D01*
X43974Y-26639D01*
X43974Y-26638D01*
X43898Y-26526D01*
X43837Y-26465D01*
X43725Y-26389D01*
X43675Y-26379D01*
X43761Y-26294D01*
X43796Y-26209D01*
X43831Y-26294D01*
X43985Y-26448D01*
X44187Y-26532D01*
X44405Y-26532D01*
X44607Y-26448D01*
X44761Y-26294D01*
X44796Y-26209D01*
X44831Y-26294D01*
X44985Y-26448D01*
X45187Y-26532D01*
X45405Y-26532D01*
X45434Y-26519D01*
X45434Y-26564D01*
X45406Y-26592D01*
X45349Y-26676D01*
X45348Y-26676D01*
X45341Y-26680D01*
X45187Y-26834D01*
X45153Y-26913D01*
X45034Y-26748D01*
X44848Y-26633D01*
X44789Y-26616D01*
X44702Y-26663D01*
X44702Y-27198D01*
X44702Y-27248D01*
X44702Y-27348D01*
X44702Y-27398D01*
X44702Y-27933D01*
X44789Y-27980D01*
X44848Y-27963D01*
X45034Y-27848D01*
X45153Y-27682D01*
X45187Y-27762D01*
X45341Y-27916D01*
X45543Y-28000D01*
X45761Y-28000D01*
X45963Y-27916D01*
X46117Y-27762D01*
X46152Y-27677D01*
X46187Y-27762D01*
X46341Y-27916D01*
X46543Y-28000D01*
X46761Y-28000D01*
X46963Y-27916D01*
X47117Y-27762D01*
X47152Y-27677D01*
X47187Y-27762D01*
X47304Y-27879D01*
X47304Y-27940D01*
X47330Y-28074D01*
X47406Y-28186D01*
X48044Y-28824D01*
X48156Y-28900D01*
X48157Y-28900D01*
X48290Y-28926D01*
X51908Y-28926D01*
X53192Y-30210D01*
X53304Y-30286D01*
X53305Y-30286D01*
X53438Y-30312D01*
X55484Y-30312D01*
X55617Y-30286D01*
X55618Y-30286D01*
X55730Y-30210D01*
X55943Y-29997D01*
X56019Y-29885D01*
X56019Y-29884D01*
X56019Y-29883D01*
X56162Y-29741D01*
X56246Y-29539D01*
X56246Y-29321D01*
X56162Y-29119D01*
X56008Y-28965D01*
X55929Y-28932D01*
X55983Y-28910D01*
X56012Y-28815D01*
X55697Y-28501D01*
X55382Y-28815D01*
X55411Y-28910D01*
X55468Y-28930D01*
X55386Y-28965D01*
X55303Y-29047D01*
X55221Y-28965D01*
X55136Y-28930D01*
X55221Y-28895D01*
X55375Y-28741D01*
X55417Y-28639D01*
X55626Y-28430D01*
X55417Y-28220D01*
X55375Y-28119D01*
X55258Y-28002D01*
X55258Y-26205D01*
X55289Y-26193D01*
X55443Y-26039D01*
X55527Y-25837D01*
X55527Y-25619D01*
X55443Y-25417D01*
X55289Y-25263D01*
X55204Y-25228D01*
X55289Y-25193D01*
X55406Y-25076D01*
X57181Y-25076D01*
X57181Y-25229D01*
X57219Y-25321D01*
X57289Y-25391D01*
X57380Y-25429D01*
X57479Y-25429D01*
X58079Y-25429D01*
X58171Y-25391D01*
X58241Y-25321D01*
X58279Y-25230D01*
X58279Y-25205D01*
X58419Y-25345D01*
X58621Y-25429D01*
X58839Y-25429D01*
X59041Y-25345D01*
X59195Y-25191D01*
X59230Y-25106D01*
X59265Y-25191D01*
X59419Y-25345D01*
X59621Y-25429D01*
X59839Y-25429D01*
X60041Y-25345D01*
X60195Y-25191D01*
X60279Y-24989D01*
X60279Y-24771D01*
X60195Y-24569D01*
X60041Y-24415D01*
X59839Y-24331D01*
X59621Y-24331D01*
X59598Y-24340D01*
X59598Y-23760D01*
X59598Y-22419D01*
X59621Y-22429D01*
X59839Y-22429D01*
X60041Y-22345D01*
X60195Y-22191D01*
X60279Y-21989D01*
X60279Y-21771D01*
X60195Y-21569D01*
X60041Y-21415D01*
X59839Y-21331D01*
X59692Y-21331D01*
X59692Y-20320D01*
X59692Y-20184D01*
X59809Y-20067D01*
X59893Y-19865D01*
X59893Y-19647D01*
X59809Y-19445D01*
X59655Y-19291D01*
X59453Y-19207D01*
X59235Y-19207D01*
X59033Y-19291D01*
X58879Y-19445D01*
X58846Y-19523D01*
X58824Y-19470D01*
X58729Y-19441D01*
X58415Y-19756D01*
X58344Y-19827D01*
X58273Y-19756D01*
X58344Y-19685D01*
X58379Y-19650D01*
X58659Y-19371D01*
X58630Y-19276D01*
X58425Y-19203D01*
X58348Y-19206D01*
X58348Y-19144D01*
X58444Y-19048D01*
X59955Y-19048D01*
X59956Y-19048D01*
X60552Y-19644D01*
X60552Y-28556D01*
G54D10*
G36*
X61600Y-43650D02*
X61248Y-43650D01*
X61248Y-28700D01*
X61248Y-19500D01*
X61222Y-19367D01*
X61221Y-19366D01*
X61146Y-19254D01*
X60346Y-18454D01*
X60303Y-18425D01*
X60303Y-18424D01*
X60303Y-18018D01*
X60303Y-14770D01*
X60277Y-14637D01*
X60276Y-14636D01*
X60201Y-14524D01*
X59838Y-14161D01*
X59838Y-14044D01*
X59888Y-13994D01*
X59994Y-13994D01*
X60196Y-13910D01*
X60350Y-13756D01*
X60434Y-13554D01*
X60434Y-13336D01*
X60350Y-13134D01*
X60196Y-12980D01*
X59994Y-12896D01*
X59776Y-12896D01*
X59574Y-12980D01*
X59420Y-13134D01*
X59336Y-13336D01*
X59336Y-13554D01*
X59338Y-13559D01*
X59310Y-13587D01*
X59310Y-13080D01*
X59310Y-12662D01*
X59150Y-12276D01*
X58855Y-11980D01*
X58610Y-11878D01*
X58610Y-10730D01*
X58150Y-10271D01*
X57690Y-10730D01*
X57743Y-10846D01*
X58021Y-10953D01*
X58318Y-10945D01*
X58557Y-10846D01*
X58610Y-10730D01*
X58610Y-11878D01*
X58470Y-11820D01*
X58052Y-11820D01*
X57666Y-11980D01*
X57370Y-12275D01*
X57210Y-12660D01*
X57210Y-13078D01*
X57370Y-13464D01*
X57665Y-13760D01*
X58050Y-13920D01*
X58468Y-13920D01*
X58854Y-13760D01*
X59150Y-13465D01*
X59310Y-13080D01*
X59310Y-13587D01*
X59244Y-13654D01*
X59168Y-13766D01*
X59142Y-13900D01*
X59142Y-14037D01*
X58065Y-14037D01*
X57932Y-14063D01*
X57819Y-14139D01*
X57818Y-14139D01*
X57818Y-14140D01*
X56468Y-15490D01*
X56468Y-13737D01*
X56556Y-13774D01*
X56774Y-13774D01*
X56976Y-13690D01*
X57130Y-13536D01*
X57214Y-13334D01*
X57214Y-13116D01*
X57130Y-12914D01*
X57013Y-12797D01*
X57013Y-12340D01*
X56987Y-12207D01*
X56986Y-12206D01*
X56961Y-12169D01*
X56911Y-12094D01*
X56911Y-12093D01*
X56231Y-11414D01*
X56119Y-11338D01*
X55985Y-11312D01*
X54903Y-11312D01*
X54903Y-10329D01*
X54895Y-10032D01*
X54796Y-09793D01*
X54680Y-09740D01*
X54610Y-09810D01*
X54610Y-09670D01*
X54557Y-09554D01*
X54279Y-09447D01*
X53982Y-09455D01*
X53743Y-09554D01*
X53690Y-09670D01*
X54150Y-10129D01*
X54610Y-09670D01*
X54610Y-09810D01*
X54221Y-10200D01*
X54680Y-10660D01*
X54796Y-10607D01*
X54903Y-10329D01*
X54903Y-11312D01*
X54610Y-11312D01*
X54610Y-10730D01*
X54150Y-10271D01*
X54079Y-10341D01*
X54079Y-10200D01*
X53620Y-09740D01*
X53504Y-09793D01*
X53397Y-10071D01*
X53405Y-10368D01*
X53504Y-10607D01*
X53620Y-10660D01*
X54079Y-10200D01*
X54079Y-10341D01*
X53690Y-10730D01*
X53743Y-10846D01*
X54021Y-10953D01*
X54318Y-10945D01*
X54557Y-10846D01*
X54610Y-10730D01*
X54610Y-11312D01*
X52660Y-11312D01*
X52645Y-11312D01*
X52323Y-11312D01*
X52323Y-11130D01*
X52323Y-11009D01*
X52383Y-10949D01*
X52699Y-10949D01*
X52791Y-10911D01*
X52861Y-10841D01*
X52899Y-10750D01*
X52899Y-10651D01*
X52899Y-09651D01*
X52861Y-09559D01*
X52791Y-09489D01*
X52700Y-09451D01*
X52601Y-09451D01*
X51601Y-09451D01*
X51509Y-09489D01*
X51439Y-09559D01*
X51401Y-09650D01*
X51401Y-09749D01*
X51401Y-10749D01*
X51414Y-10782D01*
X48805Y-10782D01*
X48819Y-10750D01*
X48819Y-10651D01*
X48819Y-09651D01*
X48781Y-09559D01*
X48711Y-09489D01*
X48620Y-09451D01*
X48521Y-09451D01*
X47521Y-09451D01*
X47429Y-09489D01*
X47359Y-09559D01*
X47321Y-09650D01*
X47321Y-09749D01*
X47321Y-10583D01*
X47298Y-10606D01*
X47298Y-09615D01*
X47272Y-09482D01*
X47272Y-09481D01*
X47196Y-09369D01*
X46821Y-08994D01*
X46709Y-08918D01*
X46575Y-08892D01*
X43165Y-08892D01*
X43032Y-08918D01*
X42919Y-08994D01*
X42389Y-09523D01*
X42205Y-09446D01*
X42076Y-09446D01*
X42680Y-08842D01*
X54400Y-08842D01*
X54414Y-08842D01*
X55312Y-08842D01*
X55312Y-09710D01*
X55338Y-09844D01*
X55401Y-09936D01*
X55401Y-10749D01*
X55439Y-10841D01*
X55509Y-10911D01*
X55600Y-10949D01*
X55699Y-10949D01*
X56699Y-10949D01*
X56791Y-10911D01*
X56861Y-10841D01*
X56899Y-10750D01*
X56899Y-10651D01*
X56899Y-09651D01*
X56861Y-09559D01*
X56791Y-09489D01*
X56700Y-09451D01*
X56601Y-09451D01*
X56008Y-09451D01*
X56008Y-08842D01*
X56160Y-08842D01*
X56917Y-09599D01*
X56979Y-09691D01*
X57092Y-09767D01*
X57225Y-09793D01*
X57255Y-09793D01*
X57504Y-09793D01*
X57397Y-10071D01*
X57405Y-10368D01*
X57504Y-10607D01*
X57620Y-10660D01*
X58044Y-10235D01*
X58079Y-10200D01*
X58150Y-10129D01*
X58221Y-10200D01*
X58256Y-10235D01*
X58680Y-10660D01*
X58796Y-10607D01*
X58903Y-10329D01*
X58895Y-10032D01*
X58796Y-09793D01*
X59457Y-09793D01*
X59574Y-09910D01*
X59776Y-09994D01*
X59994Y-09994D01*
X60196Y-09910D01*
X60350Y-09756D01*
X60434Y-09554D01*
X60434Y-09336D01*
X60350Y-09134D01*
X60196Y-08980D01*
X59994Y-08896D01*
X59776Y-08896D01*
X59574Y-08980D01*
X59457Y-09097D01*
X57399Y-09097D01*
X56550Y-08248D01*
X56438Y-08172D01*
X56304Y-08146D01*
X55660Y-08146D01*
X54414Y-08146D01*
X54400Y-08146D01*
X42536Y-08146D01*
X42403Y-08172D01*
X42290Y-08248D01*
X42289Y-08248D01*
X42289Y-08249D01*
X41088Y-09450D01*
X41088Y-09170D01*
X41062Y-09037D01*
X41062Y-09036D01*
X40986Y-08924D01*
X40042Y-07980D01*
X39930Y-07904D01*
X39796Y-07878D01*
X28734Y-07878D01*
X28601Y-07904D01*
X28488Y-07980D01*
X27654Y-08814D01*
X27578Y-08926D01*
X27552Y-09060D01*
X27552Y-09228D01*
X27409Y-09371D01*
X27320Y-09584D01*
X27320Y-09815D01*
X27408Y-10028D01*
X27552Y-10172D01*
X27552Y-12728D01*
X27409Y-12871D01*
X27320Y-13084D01*
X27320Y-13315D01*
X27408Y-13528D01*
X27552Y-13672D01*
X27552Y-16228D01*
X27409Y-16371D01*
X27320Y-16584D01*
X27320Y-16815D01*
X27408Y-17028D01*
X27552Y-17172D01*
X27552Y-19728D01*
X27409Y-19871D01*
X27320Y-20084D01*
X27320Y-20315D01*
X27408Y-20528D01*
X27552Y-20672D01*
X27552Y-23228D01*
X27409Y-23371D01*
X27320Y-23584D01*
X27320Y-23815D01*
X27408Y-24028D01*
X27552Y-24172D01*
X27552Y-26728D01*
X27409Y-26871D01*
X27320Y-27084D01*
X27320Y-27315D01*
X27408Y-27528D01*
X27552Y-27672D01*
X27552Y-30228D01*
X27409Y-30371D01*
X27320Y-30584D01*
X27320Y-30815D01*
X27408Y-31028D01*
X27552Y-31172D01*
X27552Y-33728D01*
X27409Y-33871D01*
X27320Y-34084D01*
X27320Y-34315D01*
X27408Y-34528D01*
X27571Y-34691D01*
X27784Y-34780D01*
X28015Y-34780D01*
X28228Y-34692D01*
X28391Y-34529D01*
X28399Y-34508D01*
X28408Y-34528D01*
X28571Y-34691D01*
X28784Y-34780D01*
X29015Y-34780D01*
X29228Y-34692D01*
X29391Y-34529D01*
X29480Y-34316D01*
X29480Y-34085D01*
X29392Y-33872D01*
X29248Y-33728D01*
X29248Y-33394D01*
X29726Y-32916D01*
X29802Y-32804D01*
X29802Y-32803D01*
X29828Y-32670D01*
X29828Y-30218D01*
X30254Y-29793D01*
X30254Y-29792D01*
X30304Y-29717D01*
X30329Y-29680D01*
X30330Y-29679D01*
X30355Y-29546D01*
X30356Y-29546D01*
X30356Y-25994D01*
X30650Y-25700D01*
X30726Y-25588D01*
X30726Y-25587D01*
X30752Y-25454D01*
X30752Y-21822D01*
X31081Y-21493D01*
X31081Y-21492D01*
X31082Y-21492D01*
X31157Y-21380D01*
X31158Y-21379D01*
X31183Y-21247D01*
X31184Y-21246D01*
X31184Y-19744D01*
X31466Y-19462D01*
X31542Y-19350D01*
X31542Y-19349D01*
X31568Y-19216D01*
X31568Y-15500D01*
X32396Y-14672D01*
X32472Y-14560D01*
X32472Y-14559D01*
X32498Y-14426D01*
X32498Y-12878D01*
X32615Y-12761D01*
X32650Y-12676D01*
X32685Y-12761D01*
X32839Y-12915D01*
X33041Y-12999D01*
X33259Y-12999D01*
X33461Y-12915D01*
X33615Y-12761D01*
X33699Y-12559D01*
X33699Y-12341D01*
X33615Y-12139D01*
X33498Y-12022D01*
X33498Y-11555D01*
X33472Y-11422D01*
X33471Y-11421D01*
X33396Y-11309D01*
X33175Y-11088D01*
X33736Y-11088D01*
X33685Y-11139D01*
X33601Y-11341D01*
X33601Y-11559D01*
X33685Y-11761D01*
X33839Y-11915D01*
X34041Y-11999D01*
X34259Y-11999D01*
X34461Y-11915D01*
X34615Y-11761D01*
X34650Y-11676D01*
X34685Y-11761D01*
X34839Y-11915D01*
X35041Y-11999D01*
X35259Y-11999D01*
X35461Y-11915D01*
X35615Y-11761D01*
X35650Y-11676D01*
X35685Y-11761D01*
X35839Y-11915D01*
X36041Y-11999D01*
X36259Y-11999D01*
X36461Y-11915D01*
X36615Y-11761D01*
X36650Y-11676D01*
X36685Y-11761D01*
X36839Y-11915D01*
X37041Y-11999D01*
X37259Y-11999D01*
X37461Y-11915D01*
X37615Y-11761D01*
X37650Y-11676D01*
X37685Y-11761D01*
X37839Y-11915D01*
X38041Y-11999D01*
X38259Y-11999D01*
X38461Y-11915D01*
X38615Y-11761D01*
X38650Y-11676D01*
X38685Y-11761D01*
X38839Y-11915D01*
X39041Y-11999D01*
X39259Y-11999D01*
X39461Y-11915D01*
X39615Y-11761D01*
X39699Y-11559D01*
X39699Y-11341D01*
X39615Y-11139D01*
X39498Y-11022D01*
X39498Y-09050D01*
X39472Y-08917D01*
X39471Y-08916D01*
X39396Y-08804D01*
X39166Y-08574D01*
X39652Y-08574D01*
X40392Y-09314D01*
X40392Y-11130D01*
X40418Y-11264D01*
X40494Y-11376D01*
X40712Y-11594D01*
X40824Y-11670D01*
X40825Y-11670D01*
X40958Y-11696D01*
X40988Y-11696D01*
X41172Y-11880D01*
X40936Y-11782D01*
X40518Y-11782D01*
X40132Y-11942D01*
X39836Y-12237D01*
X39676Y-12622D01*
X39676Y-13040D01*
X39836Y-13426D01*
X40131Y-13722D01*
X40516Y-13882D01*
X40691Y-13882D01*
X40636Y-13964D01*
X40624Y-14022D01*
X40493Y-14154D01*
X40409Y-14356D01*
X40409Y-14574D01*
X40409Y-14880D01*
X40493Y-15082D01*
X40586Y-15175D01*
X40124Y-15638D01*
X40048Y-15750D01*
X40022Y-15884D01*
X40022Y-16083D01*
X39903Y-16202D01*
X39823Y-16395D01*
X39823Y-16604D01*
X39898Y-16786D01*
X39498Y-16386D01*
X39498Y-15878D01*
X39615Y-15761D01*
X39699Y-15559D01*
X39699Y-15341D01*
X39615Y-15139D01*
X39461Y-14985D01*
X39259Y-14901D01*
X39041Y-14901D01*
X38839Y-14985D01*
X38685Y-15139D01*
X38650Y-15223D01*
X38615Y-15139D01*
X38461Y-14985D01*
X38259Y-14901D01*
X38041Y-14901D01*
X37839Y-14985D01*
X37685Y-15139D01*
X37650Y-15223D01*
X37615Y-15139D01*
X37461Y-14985D01*
X37259Y-14901D01*
X37041Y-14901D01*
X36839Y-14985D01*
X36685Y-15139D01*
X36650Y-15223D01*
X36615Y-15139D01*
X36461Y-14985D01*
X36259Y-14901D01*
X36041Y-14901D01*
X35839Y-14985D01*
X35685Y-15139D01*
X35650Y-15223D01*
X35615Y-15139D01*
X35461Y-14985D01*
X35259Y-14901D01*
X35041Y-14901D01*
X34839Y-14985D01*
X34685Y-15139D01*
X34650Y-15223D01*
X34615Y-15139D01*
X34461Y-14985D01*
X34259Y-14901D01*
X34041Y-14901D01*
X33839Y-14985D01*
X33685Y-15139D01*
X33601Y-15341D01*
X33601Y-15559D01*
X33685Y-15761D01*
X33802Y-15878D01*
X33802Y-16090D01*
X33828Y-16224D01*
X33904Y-16336D01*
X34952Y-17384D01*
X34952Y-18605D01*
X34855Y-18702D01*
X34799Y-18835D01*
X34745Y-18703D01*
X34648Y-18605D01*
X34648Y-17350D01*
X34647Y-17349D01*
X34622Y-17217D01*
X34621Y-17216D01*
X34596Y-17179D01*
X34546Y-17104D01*
X34546Y-17103D01*
X33646Y-16204D01*
X33640Y-16200D01*
X33615Y-16139D01*
X33461Y-15985D01*
X33259Y-15901D01*
X33041Y-15901D01*
X32839Y-15985D01*
X32685Y-16139D01*
X32650Y-16223D01*
X32615Y-16139D01*
X32461Y-15985D01*
X32259Y-15901D01*
X32041Y-15901D01*
X31839Y-15985D01*
X31685Y-16139D01*
X31601Y-16341D01*
X31601Y-16559D01*
X31685Y-16761D01*
X31802Y-16878D01*
X31802Y-16950D01*
X31828Y-17084D01*
X31904Y-17196D01*
X32952Y-18244D01*
X32952Y-18605D01*
X32855Y-18702D01*
X32775Y-18895D01*
X32775Y-19104D01*
X32855Y-19297D01*
X32962Y-19404D01*
X32962Y-19689D01*
X32845Y-19806D01*
X32761Y-20008D01*
X32761Y-20226D01*
X32761Y-20532D01*
X32845Y-20734D01*
X32999Y-20888D01*
X33201Y-20972D01*
X33419Y-20972D01*
X33621Y-20888D01*
X33775Y-20734D01*
X33810Y-20649D01*
X33845Y-20734D01*
X33999Y-20888D01*
X34201Y-20972D01*
X34419Y-20972D01*
X34621Y-20888D01*
X34775Y-20734D01*
X34810Y-20649D01*
X34845Y-20734D01*
X34999Y-20888D01*
X35201Y-20972D01*
X35419Y-20972D01*
X35621Y-20888D01*
X35775Y-20734D01*
X35810Y-20649D01*
X35845Y-20734D01*
X35999Y-20888D01*
X36201Y-20972D01*
X36419Y-20972D01*
X36621Y-20888D01*
X36775Y-20734D01*
X36810Y-20649D01*
X36845Y-20734D01*
X36999Y-20888D01*
X37201Y-20972D01*
X37419Y-20972D01*
X37621Y-20888D01*
X37775Y-20734D01*
X37810Y-20649D01*
X37845Y-20734D01*
X37999Y-20888D01*
X38201Y-20972D01*
X38419Y-20972D01*
X38621Y-20888D01*
X38775Y-20734D01*
X38810Y-20649D01*
X38845Y-20734D01*
X38999Y-20888D01*
X39201Y-20972D01*
X39419Y-20972D01*
X39621Y-20888D01*
X39775Y-20734D01*
X39810Y-20649D01*
X39845Y-20734D01*
X39999Y-20888D01*
X40201Y-20972D01*
X40419Y-20972D01*
X40621Y-20888D01*
X40775Y-20734D01*
X40810Y-20649D01*
X40845Y-20734D01*
X40999Y-20888D01*
X41201Y-20972D01*
X41419Y-20972D01*
X41621Y-20888D01*
X41775Y-20734D01*
X41859Y-20532D01*
X41859Y-20314D01*
X41859Y-20008D01*
X41775Y-19806D01*
X41658Y-19689D01*
X41658Y-19455D01*
X41784Y-19581D01*
X41896Y-19656D01*
X41897Y-19657D01*
X42030Y-19683D01*
X42840Y-19683D01*
X42916Y-19668D01*
X43369Y-19668D01*
X43235Y-19802D01*
X43155Y-19995D01*
X43155Y-20133D01*
X42594Y-20694D01*
X42518Y-20806D01*
X42492Y-20940D01*
X42492Y-22478D01*
X42048Y-22922D01*
X41823Y-22922D01*
X41775Y-22806D01*
X41621Y-22652D01*
X41419Y-22568D01*
X41201Y-22568D01*
X40999Y-22652D01*
X40845Y-22806D01*
X40810Y-22890D01*
X40775Y-22806D01*
X40621Y-22652D01*
X40419Y-22568D01*
X40201Y-22568D01*
X39999Y-22652D01*
X39845Y-22806D01*
X39810Y-22890D01*
X39775Y-22806D01*
X39621Y-22652D01*
X39419Y-22568D01*
X39201Y-22568D01*
X38999Y-22652D01*
X38845Y-22806D01*
X38810Y-22890D01*
X38775Y-22806D01*
X38621Y-22652D01*
X38419Y-22568D01*
X38201Y-22568D01*
X37999Y-22652D01*
X37845Y-22806D01*
X37810Y-22890D01*
X37775Y-22806D01*
X37621Y-22652D01*
X37419Y-22568D01*
X37201Y-22568D01*
X36999Y-22652D01*
X36845Y-22806D01*
X36810Y-22890D01*
X36775Y-22806D01*
X36621Y-22652D01*
X36419Y-22568D01*
X36201Y-22568D01*
X35999Y-22652D01*
X35845Y-22806D01*
X35810Y-22890D01*
X35775Y-22806D01*
X35621Y-22652D01*
X35419Y-22568D01*
X35201Y-22568D01*
X34999Y-22652D01*
X34845Y-22806D01*
X34810Y-22890D01*
X34775Y-22806D01*
X34621Y-22652D01*
X34419Y-22568D01*
X34201Y-22568D01*
X33999Y-22652D01*
X33869Y-22782D01*
X33869Y-22771D01*
X33831Y-22679D01*
X33761Y-22609D01*
X33670Y-22571D01*
X33571Y-22571D01*
X32951Y-22571D01*
X32859Y-22609D01*
X32789Y-22679D01*
X32751Y-22770D01*
X32751Y-22869D01*
X32751Y-23769D01*
X32789Y-23861D01*
X32859Y-23931D01*
X32950Y-23969D01*
X32962Y-23969D01*
X32962Y-24068D01*
X32890Y-24098D01*
X32820Y-24168D01*
X32782Y-24259D01*
X32782Y-24358D01*
X32782Y-24908D01*
X32820Y-25000D01*
X32890Y-25070D01*
X32958Y-25098D01*
X32958Y-25239D01*
X32831Y-25366D01*
X32747Y-25568D01*
X32747Y-25786D01*
X32747Y-26092D01*
X32831Y-26294D01*
X32985Y-26448D01*
X33187Y-26532D01*
X33405Y-26532D01*
X33476Y-26502D01*
X34075Y-27101D01*
X34076Y-27102D01*
X34188Y-27177D01*
X34189Y-27178D01*
X34321Y-27203D01*
X34322Y-27204D01*
X35103Y-27204D01*
X35103Y-27254D01*
X35103Y-27560D01*
X35187Y-27762D01*
X35341Y-27916D01*
X35543Y-28000D01*
X35761Y-28000D01*
X35963Y-27916D01*
X36117Y-27762D01*
X36152Y-27677D01*
X36187Y-27762D01*
X36341Y-27916D01*
X36543Y-28000D01*
X36761Y-28000D01*
X36963Y-27916D01*
X37117Y-27762D01*
X37152Y-27677D01*
X37187Y-27762D01*
X37341Y-27916D01*
X37543Y-28000D01*
X37761Y-28000D01*
X37963Y-27916D01*
X38117Y-27762D01*
X38152Y-27677D01*
X38187Y-27762D01*
X38341Y-27916D01*
X38543Y-28000D01*
X38761Y-28000D01*
X38963Y-27916D01*
X39117Y-27762D01*
X39152Y-27677D01*
X39187Y-27762D01*
X39341Y-27916D01*
X39543Y-28000D01*
X39761Y-28000D01*
X39963Y-27916D01*
X40117Y-27762D01*
X40152Y-27677D01*
X40187Y-27762D01*
X40341Y-27916D01*
X40543Y-28000D01*
X40761Y-28000D01*
X40963Y-27916D01*
X41117Y-27762D01*
X41152Y-27677D01*
X41187Y-27762D01*
X41341Y-27916D01*
X41543Y-28000D01*
X41761Y-28000D01*
X41963Y-27916D01*
X42117Y-27762D01*
X42152Y-27677D01*
X42187Y-27762D01*
X42341Y-27916D01*
X42543Y-28000D01*
X42761Y-28000D01*
X42963Y-27916D01*
X43117Y-27762D01*
X43152Y-27677D01*
X43187Y-27762D01*
X43304Y-27879D01*
X43304Y-28010D01*
X43296Y-28018D01*
X43006Y-28018D01*
X42873Y-28044D01*
X42760Y-28120D01*
X41904Y-28976D01*
X41828Y-29088D01*
X41802Y-29222D01*
X41802Y-29613D01*
X41761Y-29596D01*
X41543Y-29596D01*
X41341Y-29680D01*
X41187Y-29834D01*
X41152Y-29918D01*
X41117Y-29834D01*
X40963Y-29680D01*
X40761Y-29596D01*
X40543Y-29596D01*
X40471Y-29625D01*
X40035Y-29189D01*
X39923Y-29113D01*
X39789Y-29087D01*
X34440Y-29087D01*
X34307Y-29113D01*
X34194Y-29189D01*
X31204Y-32179D01*
X31128Y-32291D01*
X31102Y-32425D01*
X31102Y-33822D01*
X30985Y-33939D01*
X30901Y-34141D01*
X30901Y-34359D01*
X30985Y-34561D01*
X31139Y-34715D01*
X31341Y-34799D01*
X31559Y-34799D01*
X31761Y-34715D01*
X31915Y-34561D01*
X31922Y-34544D01*
X31922Y-35591D01*
X30519Y-36994D01*
X30443Y-37106D01*
X30417Y-37240D01*
X30417Y-38675D01*
X30443Y-38809D01*
X30519Y-38921D01*
X30952Y-39354D01*
X30952Y-39735D01*
X30884Y-39764D01*
X30814Y-39834D01*
X30776Y-39925D01*
X30776Y-40024D01*
X30776Y-40574D01*
X30814Y-40666D01*
X30884Y-40736D01*
X30975Y-40774D01*
X31066Y-40774D01*
X31028Y-40790D01*
X31003Y-40882D01*
X31300Y-41179D01*
X31597Y-40882D01*
X31572Y-40790D01*
X31527Y-40774D01*
X31624Y-40774D01*
X31716Y-40736D01*
X31786Y-40666D01*
X31824Y-40575D01*
X31824Y-40568D01*
X32542Y-40568D01*
X32659Y-40685D01*
X32861Y-40769D01*
X33079Y-40769D01*
X33281Y-40685D01*
X33398Y-40568D01*
X34352Y-40568D01*
X34352Y-41600D01*
X34255Y-41697D01*
X34175Y-41890D01*
X34175Y-42099D01*
X34255Y-42292D01*
X34402Y-42440D01*
X34595Y-42520D01*
X34804Y-42520D01*
X34997Y-42440D01*
X35145Y-42293D01*
X35225Y-42100D01*
X35225Y-41891D01*
X35145Y-41698D01*
X35048Y-41600D01*
X35048Y-40035D01*
X35048Y-39389D01*
X35145Y-39293D01*
X35225Y-39100D01*
X35225Y-38891D01*
X35145Y-38698D01*
X34998Y-38550D01*
X34805Y-38470D01*
X34596Y-38470D01*
X34403Y-38550D01*
X34255Y-38697D01*
X34175Y-38890D01*
X34175Y-39099D01*
X34255Y-39292D01*
X34352Y-39389D01*
X34352Y-39872D01*
X33398Y-39872D01*
X33281Y-39755D01*
X33079Y-39671D01*
X32861Y-39671D01*
X32659Y-39755D01*
X32542Y-39872D01*
X31801Y-39872D01*
X31786Y-39834D01*
X31716Y-39764D01*
X31648Y-39735D01*
X31648Y-39210D01*
X31622Y-39077D01*
X31621Y-39076D01*
X31596Y-39039D01*
X31546Y-38964D01*
X31546Y-38963D01*
X31381Y-38799D01*
X31559Y-38799D01*
X31761Y-38715D01*
X31878Y-38598D01*
X32160Y-38598D01*
X32293Y-38572D01*
X32294Y-38572D01*
X32406Y-38496D01*
X33349Y-37553D01*
X36583Y-37553D01*
X36726Y-37696D01*
X36939Y-37785D01*
X37170Y-37785D01*
X37383Y-37697D01*
X37546Y-37534D01*
X37554Y-37513D01*
X37563Y-37533D01*
X37726Y-37696D01*
X37939Y-37785D01*
X38170Y-37785D01*
X38383Y-37697D01*
X38546Y-37534D01*
X38635Y-37321D01*
X38635Y-37090D01*
X38567Y-36925D01*
X38567Y-35604D01*
X38270Y-35307D01*
X38199Y-35378D01*
X38199Y-35236D01*
X37902Y-34939D01*
X37810Y-34964D01*
X37772Y-35067D01*
X37730Y-34964D01*
X37638Y-34939D01*
X37567Y-35010D01*
X37567Y-34868D01*
X37542Y-34776D01*
X37346Y-34706D01*
X37138Y-34718D01*
X36998Y-34776D01*
X36973Y-34868D01*
X37270Y-35165D01*
X37567Y-34868D01*
X37567Y-35010D01*
X37341Y-35236D01*
X37638Y-35533D01*
X37730Y-35508D01*
X37767Y-35404D01*
X37810Y-35508D01*
X37902Y-35533D01*
X38199Y-35236D01*
X38199Y-35378D01*
X37973Y-35604D01*
X37998Y-35696D01*
X38194Y-35766D01*
X38402Y-35754D01*
X38542Y-35696D01*
X38567Y-35604D01*
X38567Y-36925D01*
X38547Y-36877D01*
X38384Y-36714D01*
X38353Y-36701D01*
X38352Y-36700D01*
X38301Y-36624D01*
X37651Y-35974D01*
X37567Y-35917D01*
X37567Y-35604D01*
X37270Y-35307D01*
X37199Y-35378D01*
X37199Y-35236D01*
X36902Y-34939D01*
X36810Y-34964D01*
X36772Y-35067D01*
X36730Y-34964D01*
X36638Y-34939D01*
X36567Y-35010D01*
X36567Y-34868D01*
X36542Y-34776D01*
X36346Y-34706D01*
X36138Y-34718D01*
X35998Y-34776D01*
X35973Y-34868D01*
X36270Y-35165D01*
X36567Y-34868D01*
X36567Y-35010D01*
X36341Y-35236D01*
X36638Y-35533D01*
X36730Y-35508D01*
X36767Y-35404D01*
X36810Y-35508D01*
X36902Y-35533D01*
X37199Y-35236D01*
X37199Y-35378D01*
X36973Y-35604D01*
X36998Y-35696D01*
X37194Y-35766D01*
X37402Y-35754D01*
X37542Y-35696D01*
X37567Y-35604D01*
X37567Y-35917D01*
X37539Y-35898D01*
X37405Y-35872D01*
X36567Y-35872D01*
X36567Y-35604D01*
X36270Y-35307D01*
X36199Y-35378D01*
X36199Y-35236D01*
X35902Y-34939D01*
X35810Y-34964D01*
X35772Y-35067D01*
X35730Y-34964D01*
X35638Y-34939D01*
X35567Y-35010D01*
X35567Y-34868D01*
X35542Y-34776D01*
X35346Y-34706D01*
X35138Y-34718D01*
X34998Y-34776D01*
X34973Y-34868D01*
X35270Y-35165D01*
X35567Y-34868D01*
X35567Y-35010D01*
X35341Y-35236D01*
X35638Y-35533D01*
X35730Y-35508D01*
X35767Y-35404D01*
X35810Y-35508D01*
X35902Y-35533D01*
X36199Y-35236D01*
X36199Y-35378D01*
X35973Y-35604D01*
X35998Y-35696D01*
X36194Y-35766D01*
X36402Y-35754D01*
X36542Y-35696D01*
X36567Y-35604D01*
X36567Y-35872D01*
X35567Y-35872D01*
X35567Y-35604D01*
X35270Y-35307D01*
X35199Y-35378D01*
X35199Y-35236D01*
X34902Y-34939D01*
X34810Y-34964D01*
X34794Y-35008D01*
X34794Y-34911D01*
X34756Y-34820D01*
X34686Y-34750D01*
X34594Y-34712D01*
X34382Y-34711D01*
X34320Y-34773D01*
X34320Y-35136D01*
X34320Y-35186D01*
X34320Y-35286D01*
X34320Y-35336D01*
X34320Y-35699D01*
X34382Y-35761D01*
X34594Y-35760D01*
X34686Y-35722D01*
X34756Y-35652D01*
X34794Y-35561D01*
X34794Y-35469D01*
X34810Y-35508D01*
X34902Y-35533D01*
X35199Y-35236D01*
X35199Y-35378D01*
X34973Y-35604D01*
X34998Y-35696D01*
X35194Y-35766D01*
X35402Y-35754D01*
X35542Y-35696D01*
X35567Y-35604D01*
X35567Y-35872D01*
X34220Y-35872D01*
X34220Y-35699D01*
X34220Y-35286D01*
X34220Y-35186D01*
X34220Y-34773D01*
X34158Y-34711D01*
X33946Y-34712D01*
X33854Y-34750D01*
X33784Y-34820D01*
X33746Y-34911D01*
X33746Y-35010D01*
X33745Y-35124D01*
X33807Y-35186D01*
X34220Y-35186D01*
X34220Y-35286D01*
X33807Y-35286D01*
X33745Y-35348D01*
X33746Y-35462D01*
X33746Y-35561D01*
X33784Y-35652D01*
X33854Y-35722D01*
X33946Y-35760D01*
X34158Y-35761D01*
X34220Y-35699D01*
X34220Y-35872D01*
X33398Y-35872D01*
X33318Y-35792D01*
X33318Y-34794D01*
X33644Y-34468D01*
X33785Y-34468D01*
X33814Y-34536D01*
X33884Y-34606D01*
X33975Y-34644D01*
X34074Y-34644D01*
X34624Y-34644D01*
X34716Y-34606D01*
X34786Y-34536D01*
X34814Y-34468D01*
X34905Y-34468D01*
X35002Y-34565D01*
X35195Y-34645D01*
X35404Y-34645D01*
X35597Y-34565D01*
X35694Y-34468D01*
X35905Y-34468D01*
X36002Y-34565D01*
X36195Y-34645D01*
X36404Y-34645D01*
X36597Y-34565D01*
X36694Y-34468D01*
X36905Y-34468D01*
X37002Y-34565D01*
X37195Y-34645D01*
X37404Y-34645D01*
X37597Y-34565D01*
X37694Y-34468D01*
X37905Y-34468D01*
X38002Y-34565D01*
X38195Y-34645D01*
X38404Y-34645D01*
X38597Y-34565D01*
X38694Y-34468D01*
X38905Y-34468D01*
X39002Y-34565D01*
X39195Y-34645D01*
X39404Y-34645D01*
X39597Y-34565D01*
X39694Y-34468D01*
X39905Y-34468D01*
X40002Y-34565D01*
X40195Y-34645D01*
X40404Y-34645D01*
X40597Y-34565D01*
X40694Y-34468D01*
X40905Y-34468D01*
X41002Y-34565D01*
X41195Y-34645D01*
X41404Y-34645D01*
X41597Y-34565D01*
X41745Y-34418D01*
X41767Y-34363D01*
X42167Y-34363D01*
X42284Y-34480D01*
X42486Y-34564D01*
X42704Y-34564D01*
X42906Y-34480D01*
X43060Y-34326D01*
X43144Y-34124D01*
X43144Y-33958D01*
X43277Y-33825D01*
X43304Y-33825D01*
X43497Y-33745D01*
X43645Y-33598D01*
X43725Y-33405D01*
X43725Y-33196D01*
X43645Y-33003D01*
X43644Y-33001D01*
X43644Y-32411D01*
X43761Y-32294D01*
X43794Y-32214D01*
X43914Y-32380D01*
X44100Y-32495D01*
X44159Y-32512D01*
X44246Y-32465D01*
X44246Y-31930D01*
X44246Y-31880D01*
X44246Y-31780D01*
X44346Y-31780D01*
X44346Y-31880D01*
X44346Y-31930D01*
X44346Y-32465D01*
X44433Y-32512D01*
X44492Y-32495D01*
X44678Y-32380D01*
X44797Y-32214D01*
X44831Y-32294D01*
X44985Y-32448D01*
X45187Y-32532D01*
X45207Y-32532D01*
X45207Y-34174D01*
X45198Y-34178D01*
X45020Y-34355D01*
X44924Y-34587D01*
X44924Y-34838D01*
X44924Y-35064D01*
X45020Y-35296D01*
X45197Y-35474D01*
X45222Y-35484D01*
X45222Y-37185D01*
X45125Y-37282D01*
X45045Y-37475D01*
X45045Y-37684D01*
X45125Y-37877D01*
X45272Y-38025D01*
X45399Y-38077D01*
X45298Y-38120D01*
X45273Y-38212D01*
X45570Y-38509D01*
X45867Y-38212D01*
X45842Y-38120D01*
X45732Y-38080D01*
X45867Y-38025D01*
X46015Y-37878D01*
X46058Y-37772D01*
X46074Y-37850D01*
X46150Y-37962D01*
X46508Y-38320D01*
X46620Y-38396D01*
X46621Y-38396D01*
X46754Y-38422D01*
X46959Y-38422D01*
X46930Y-38504D01*
X46942Y-38712D01*
X47000Y-38852D01*
X47092Y-38877D01*
X47354Y-38615D01*
X47389Y-38580D01*
X47460Y-38509D01*
X47531Y-38580D01*
X47566Y-38615D01*
X47828Y-38877D01*
X47920Y-38852D01*
X47990Y-38656D01*
X47978Y-38448D01*
X47967Y-38422D01*
X48203Y-38422D01*
X48358Y-38577D01*
X48435Y-38761D01*
X48589Y-38915D01*
X48667Y-38947D01*
X48614Y-38970D01*
X48585Y-39065D01*
X48900Y-39379D01*
X49215Y-39065D01*
X49186Y-38970D01*
X49128Y-38949D01*
X49211Y-38915D01*
X49328Y-38798D01*
X49472Y-38798D01*
X49589Y-38915D01*
X49667Y-38947D01*
X49614Y-38970D01*
X49585Y-39065D01*
X49900Y-39379D01*
X50215Y-39065D01*
X50186Y-38970D01*
X50128Y-38949D01*
X50211Y-38915D01*
X50328Y-38798D01*
X50472Y-38798D01*
X50589Y-38915D01*
X50667Y-38947D01*
X50614Y-38970D01*
X50585Y-39065D01*
X50900Y-39379D01*
X51215Y-39065D01*
X51186Y-38970D01*
X51128Y-38949D01*
X51211Y-38915D01*
X51328Y-38798D01*
X51550Y-38798D01*
X51683Y-38772D01*
X51684Y-38772D01*
X51796Y-38696D01*
X52046Y-38446D01*
X52121Y-38334D01*
X52122Y-38333D01*
X52148Y-38200D01*
X52148Y-37300D01*
X52122Y-37167D01*
X52121Y-37166D01*
X52046Y-37054D01*
X51246Y-36254D01*
X51134Y-36178D01*
X51000Y-36152D01*
X50344Y-36152D01*
X50170Y-35978D01*
X50220Y-35996D01*
X50428Y-35984D01*
X50568Y-35926D01*
X50593Y-35834D01*
X50331Y-35572D01*
X50296Y-35537D01*
X50225Y-35466D01*
X50296Y-35395D01*
X50367Y-35466D01*
X50402Y-35501D01*
X50664Y-35763D01*
X50756Y-35738D01*
X50826Y-35542D01*
X50814Y-35348D01*
X52000Y-35348D01*
X52133Y-35322D01*
X52134Y-35322D01*
X52246Y-35246D01*
X52778Y-34713D01*
X52835Y-34851D01*
X52989Y-35005D01*
X53191Y-35089D01*
X53409Y-35089D01*
X53611Y-35005D01*
X53765Y-34851D01*
X53849Y-34649D01*
X53849Y-34431D01*
X53765Y-34229D01*
X53648Y-34112D01*
X53648Y-34040D01*
X53622Y-33907D01*
X53621Y-33906D01*
X53607Y-33884D01*
X54544Y-32948D01*
X55921Y-32948D01*
X55895Y-32974D01*
X55811Y-33176D01*
X55811Y-33394D01*
X55895Y-33596D01*
X56049Y-33750D01*
X56251Y-33834D01*
X56469Y-33834D01*
X56671Y-33750D01*
X56825Y-33596D01*
X56909Y-33394D01*
X56909Y-33176D01*
X56887Y-33124D01*
X57079Y-32932D01*
X57133Y-32922D01*
X57134Y-32922D01*
X57246Y-32846D01*
X61146Y-28946D01*
X61221Y-28834D01*
X61222Y-28833D01*
X61248Y-28700D01*
X61248Y-43650D01*
X59385Y-43650D01*
X59385Y-32430D01*
X59385Y-32221D01*
X59305Y-32028D01*
X59158Y-31880D01*
X58965Y-31800D01*
X58756Y-31800D01*
X58563Y-31880D01*
X58415Y-32027D01*
X58335Y-32220D01*
X58335Y-32429D01*
X58415Y-32622D01*
X58512Y-32719D01*
X58512Y-35296D01*
X56663Y-37145D01*
X56663Y-36128D01*
X56653Y-35899D01*
X56585Y-35735D01*
X56487Y-35703D01*
X56417Y-35773D01*
X56417Y-35633D01*
X56385Y-35535D01*
X56168Y-35457D01*
X55939Y-35467D01*
X55775Y-35535D01*
X55743Y-35633D01*
X56080Y-35969D01*
X56417Y-35633D01*
X56417Y-35773D01*
X56151Y-36040D01*
X56487Y-36377D01*
X56585Y-36345D01*
X56663Y-36128D01*
X56663Y-37145D01*
X56660Y-37148D01*
X56660Y-36925D01*
X56572Y-36712D01*
X56409Y-36549D01*
X56386Y-36539D01*
X56417Y-36447D01*
X56080Y-36111D01*
X56009Y-36181D01*
X56009Y-36040D01*
X55673Y-35703D01*
X55575Y-35735D01*
X55497Y-35952D01*
X55507Y-36181D01*
X55575Y-36345D01*
X55673Y-36377D01*
X56009Y-36040D01*
X56009Y-36181D01*
X55743Y-36447D01*
X55773Y-36539D01*
X55752Y-36548D01*
X55589Y-36711D01*
X55500Y-36924D01*
X55500Y-37155D01*
X55588Y-37368D01*
X55732Y-37512D01*
X55732Y-37556D01*
X55096Y-38192D01*
X53728Y-38192D01*
X53611Y-38075D01*
X53409Y-37991D01*
X53191Y-37991D01*
X52989Y-38075D01*
X52835Y-38229D01*
X52751Y-38431D01*
X52751Y-38649D01*
X52835Y-38851D01*
X52989Y-39005D01*
X53191Y-39089D01*
X53409Y-39089D01*
X53611Y-39005D01*
X53728Y-38888D01*
X54920Y-38888D01*
X54206Y-39602D01*
X51840Y-39602D01*
X51800Y-39602D01*
X51427Y-39602D01*
X51453Y-39531D01*
X51442Y-39313D01*
X51380Y-39164D01*
X51285Y-39135D01*
X50971Y-39450D01*
X50900Y-39521D01*
X50829Y-39450D01*
X50794Y-39415D01*
X50515Y-39135D01*
X50420Y-39164D01*
X50401Y-39215D01*
X50380Y-39164D01*
X50285Y-39135D01*
X49971Y-39450D01*
X49900Y-39521D01*
X49829Y-39450D01*
X49794Y-39415D01*
X49515Y-39135D01*
X49420Y-39164D01*
X49401Y-39215D01*
X49380Y-39164D01*
X49285Y-39135D01*
X48971Y-39450D01*
X48900Y-39521D01*
X48829Y-39450D01*
X48794Y-39415D01*
X48515Y-39135D01*
X48420Y-39164D01*
X48347Y-39369D01*
X48358Y-39587D01*
X48364Y-39602D01*
X47757Y-39602D01*
X47757Y-38948D01*
X47460Y-38651D01*
X47163Y-38948D01*
X47188Y-39040D01*
X47384Y-39110D01*
X47592Y-39098D01*
X47732Y-39040D01*
X47757Y-38948D01*
X47757Y-39602D01*
X46886Y-39602D01*
X46753Y-39628D01*
X46640Y-39704D01*
X46639Y-39704D01*
X46639Y-39705D01*
X46100Y-40243D01*
X46100Y-38656D01*
X46088Y-38448D01*
X46030Y-38308D01*
X45938Y-38283D01*
X45641Y-38580D01*
X45938Y-38877D01*
X46030Y-38852D01*
X46100Y-38656D01*
X46100Y-40243D01*
X45867Y-40476D01*
X45867Y-38948D01*
X45570Y-38651D01*
X45499Y-38722D01*
X45499Y-38580D01*
X45202Y-38283D01*
X45110Y-38308D01*
X45040Y-38504D01*
X45052Y-38712D01*
X45110Y-38852D01*
X45202Y-38877D01*
X45499Y-38580D01*
X45499Y-38722D01*
X45273Y-38948D01*
X45298Y-39040D01*
X45494Y-39110D01*
X45702Y-39098D01*
X45842Y-39040D01*
X45867Y-38948D01*
X45867Y-40476D01*
X45547Y-40796D01*
X45546Y-40793D01*
X45430Y-40740D01*
X45360Y-40810D01*
X45360Y-40670D01*
X45307Y-40554D01*
X45029Y-40447D01*
X44732Y-40455D01*
X44493Y-40554D01*
X44440Y-40670D01*
X44900Y-41129D01*
X45360Y-40670D01*
X45360Y-40810D01*
X44971Y-41200D01*
X44900Y-41271D01*
X44829Y-41200D01*
X44794Y-41165D01*
X44370Y-40740D01*
X44254Y-40793D01*
X44147Y-41071D01*
X44155Y-41368D01*
X44254Y-41607D01*
X44321Y-41637D01*
X44290Y-41669D01*
X44319Y-41698D01*
X43649Y-41698D01*
X43649Y-41651D01*
X43649Y-40651D01*
X43611Y-40559D01*
X43541Y-40489D01*
X43450Y-40451D01*
X43351Y-40451D01*
X42351Y-40451D01*
X42259Y-40489D01*
X42189Y-40559D01*
X42151Y-40650D01*
X42151Y-40749D01*
X42151Y-41749D01*
X42189Y-41841D01*
X42259Y-41911D01*
X42350Y-41949D01*
X42449Y-41949D01*
X42615Y-41949D01*
X42654Y-42006D01*
X42730Y-42082D01*
X41653Y-42082D01*
X41653Y-41329D01*
X41645Y-41032D01*
X41546Y-40793D01*
X41430Y-40740D01*
X41360Y-40810D01*
X41360Y-40670D01*
X41307Y-40554D01*
X41029Y-40447D01*
X40732Y-40455D01*
X40493Y-40554D01*
X40440Y-40670D01*
X40900Y-41129D01*
X41360Y-40670D01*
X41360Y-40810D01*
X40971Y-41200D01*
X41430Y-41660D01*
X41546Y-41607D01*
X41653Y-41329D01*
X41653Y-42082D01*
X41360Y-42082D01*
X41360Y-41730D01*
X40900Y-41271D01*
X40829Y-41341D01*
X40829Y-41200D01*
X40370Y-40740D01*
X40254Y-40793D01*
X40147Y-41071D01*
X40155Y-41368D01*
X40254Y-41607D01*
X40370Y-41660D01*
X40829Y-41200D01*
X40829Y-41341D01*
X40440Y-41730D01*
X40493Y-41846D01*
X40771Y-41953D01*
X41068Y-41945D01*
X41307Y-41846D01*
X41360Y-41730D01*
X41360Y-42082D01*
X39444Y-42082D01*
X39311Y-41949D01*
X39449Y-41949D01*
X39541Y-41911D01*
X39611Y-41841D01*
X39649Y-41750D01*
X39649Y-41651D01*
X39649Y-40651D01*
X39611Y-40559D01*
X39541Y-40489D01*
X39450Y-40451D01*
X39351Y-40451D01*
X39248Y-40451D01*
X39248Y-40070D01*
X40955Y-38363D01*
X42167Y-38363D01*
X42284Y-38480D01*
X42486Y-38564D01*
X42704Y-38564D01*
X42906Y-38480D01*
X43060Y-38326D01*
X43144Y-38124D01*
X43144Y-37906D01*
X43060Y-37704D01*
X42906Y-37550D01*
X42704Y-37466D01*
X42486Y-37466D01*
X42284Y-37550D01*
X42167Y-37667D01*
X41800Y-37667D01*
X41800Y-35312D01*
X41788Y-35104D01*
X41730Y-34964D01*
X41638Y-34939D01*
X41567Y-35010D01*
X41567Y-34868D01*
X41542Y-34776D01*
X41346Y-34706D01*
X41138Y-34718D01*
X40998Y-34776D01*
X40973Y-34868D01*
X41270Y-35165D01*
X41567Y-34868D01*
X41567Y-35010D01*
X41341Y-35236D01*
X41638Y-35533D01*
X41730Y-35508D01*
X41800Y-35312D01*
X41800Y-37667D01*
X41567Y-37667D01*
X41567Y-35604D01*
X41270Y-35307D01*
X41199Y-35378D01*
X41199Y-35236D01*
X40902Y-34939D01*
X40810Y-34964D01*
X40772Y-35067D01*
X40730Y-34964D01*
X40638Y-34939D01*
X40567Y-35010D01*
X40567Y-34868D01*
X40542Y-34776D01*
X40346Y-34706D01*
X40138Y-34718D01*
X39998Y-34776D01*
X39973Y-34868D01*
X40270Y-35165D01*
X40567Y-34868D01*
X40567Y-35010D01*
X40341Y-35236D01*
X40638Y-35533D01*
X40730Y-35508D01*
X40767Y-35404D01*
X40810Y-35508D01*
X40902Y-35533D01*
X41199Y-35236D01*
X41199Y-35378D01*
X40973Y-35604D01*
X40998Y-35696D01*
X41194Y-35766D01*
X41402Y-35754D01*
X41542Y-35696D01*
X41567Y-35604D01*
X41567Y-37667D01*
X40811Y-37667D01*
X40678Y-37693D01*
X40567Y-37767D01*
X40567Y-35604D01*
X40270Y-35307D01*
X40199Y-35378D01*
X40199Y-35236D01*
X39902Y-34939D01*
X39810Y-34964D01*
X39772Y-35067D01*
X39730Y-34964D01*
X39638Y-34939D01*
X39567Y-35010D01*
X39567Y-34868D01*
X39542Y-34776D01*
X39346Y-34706D01*
X39138Y-34718D01*
X38998Y-34776D01*
X38973Y-34868D01*
X39270Y-35165D01*
X39567Y-34868D01*
X39567Y-35010D01*
X39341Y-35236D01*
X39638Y-35533D01*
X39730Y-35508D01*
X39767Y-35404D01*
X39810Y-35508D01*
X39902Y-35533D01*
X40199Y-35236D01*
X40199Y-35378D01*
X39973Y-35604D01*
X39998Y-35696D01*
X40194Y-35766D01*
X40402Y-35754D01*
X40542Y-35696D01*
X40567Y-35604D01*
X40567Y-37767D01*
X40565Y-37769D01*
X39567Y-38767D01*
X39567Y-35604D01*
X39270Y-35307D01*
X39199Y-35378D01*
X39199Y-35236D01*
X38902Y-34939D01*
X38810Y-34964D01*
X38772Y-35067D01*
X38730Y-34964D01*
X38638Y-34939D01*
X38567Y-35010D01*
X38567Y-34868D01*
X38542Y-34776D01*
X38346Y-34706D01*
X38138Y-34718D01*
X37998Y-34776D01*
X37973Y-34868D01*
X38270Y-35165D01*
X38567Y-34868D01*
X38567Y-35010D01*
X38341Y-35236D01*
X38638Y-35533D01*
X38730Y-35508D01*
X38767Y-35404D01*
X38810Y-35508D01*
X38902Y-35533D01*
X39199Y-35236D01*
X39199Y-35378D01*
X38973Y-35604D01*
X38998Y-35696D01*
X39194Y-35766D01*
X39402Y-35754D01*
X39542Y-35696D01*
X39567Y-35604D01*
X39567Y-38767D01*
X38654Y-39680D01*
X38578Y-39792D01*
X38552Y-39926D01*
X38552Y-40451D01*
X38351Y-40451D01*
X38259Y-40489D01*
X38189Y-40559D01*
X38151Y-40650D01*
X38151Y-40749D01*
X38151Y-41749D01*
X38189Y-41841D01*
X38259Y-41911D01*
X38350Y-41949D01*
X38449Y-41949D01*
X38552Y-41949D01*
X38552Y-42030D01*
X38578Y-42164D01*
X38654Y-42276D01*
X39053Y-42676D01*
X39054Y-42676D01*
X39129Y-42726D01*
X39166Y-42751D01*
X39167Y-42752D01*
X39300Y-42778D01*
X45440Y-42778D01*
X45573Y-42752D01*
X45574Y-42752D01*
X45686Y-42676D01*
X46315Y-42047D01*
X46315Y-42046D01*
X46316Y-42046D01*
X46391Y-41934D01*
X46392Y-41933D01*
X46396Y-41912D01*
X46396Y-42820D01*
X57304Y-42820D01*
X57304Y-41690D01*
X57380Y-41874D01*
X57675Y-42170D01*
X58060Y-42330D01*
X58478Y-42330D01*
X58864Y-42170D01*
X59160Y-41875D01*
X59320Y-41490D01*
X59320Y-41072D01*
X59160Y-40686D01*
X58865Y-40390D01*
X58480Y-40230D01*
X58062Y-40230D01*
X57676Y-40390D01*
X57380Y-40685D01*
X57265Y-40960D01*
X52090Y-40960D01*
X52247Y-40895D01*
X52395Y-40748D01*
X52475Y-40555D01*
X52475Y-40346D01*
X52455Y-40298D01*
X54350Y-40298D01*
X54483Y-40272D01*
X54484Y-40272D01*
X54596Y-40196D01*
X59106Y-35686D01*
X59182Y-35574D01*
X59182Y-35573D01*
X59208Y-35440D01*
X59208Y-32719D01*
X59305Y-32623D01*
X59385Y-32430D01*
X59385Y-43650D01*
X37230Y-43650D01*
X37230Y-42071D01*
X37230Y-39071D01*
X37218Y-38863D01*
X37160Y-38723D01*
X37068Y-38698D01*
X36997Y-38769D01*
X36997Y-38627D01*
X36972Y-38535D01*
X36776Y-38465D01*
X36568Y-38477D01*
X36428Y-38535D01*
X36403Y-38627D01*
X36700Y-38924D01*
X36997Y-38627D01*
X36997Y-38769D01*
X36771Y-38995D01*
X37068Y-39292D01*
X37160Y-39267D01*
X37230Y-39071D01*
X37230Y-42071D01*
X37218Y-41863D01*
X37160Y-41723D01*
X37068Y-41698D01*
X36997Y-41769D01*
X36997Y-41627D01*
X36997Y-39363D01*
X36700Y-39066D01*
X36629Y-39137D01*
X36629Y-38995D01*
X36332Y-38698D01*
X36240Y-38723D01*
X36170Y-38919D01*
X36182Y-39127D01*
X36240Y-39267D01*
X36332Y-39292D01*
X36629Y-38995D01*
X36629Y-39137D01*
X36403Y-39363D01*
X36428Y-39455D01*
X36624Y-39525D01*
X36832Y-39513D01*
X36972Y-39455D01*
X36997Y-39363D01*
X36997Y-41627D01*
X36972Y-41535D01*
X36776Y-41465D01*
X36568Y-41477D01*
X36428Y-41535D01*
X36403Y-41627D01*
X36700Y-41924D01*
X36997Y-41627D01*
X36997Y-41769D01*
X36771Y-41995D01*
X37068Y-42292D01*
X37160Y-42267D01*
X37230Y-42071D01*
X37230Y-43650D01*
X36997Y-43650D01*
X36997Y-42363D01*
X36700Y-42066D01*
X36629Y-42137D01*
X36629Y-41995D01*
X36332Y-41698D01*
X36240Y-41723D01*
X36170Y-41919D01*
X36182Y-42127D01*
X36240Y-42267D01*
X36332Y-42292D01*
X36629Y-41995D01*
X36629Y-42137D01*
X36403Y-42363D01*
X36428Y-42455D01*
X36624Y-42525D01*
X36832Y-42513D01*
X36972Y-42455D01*
X36997Y-42363D01*
X36997Y-43650D01*
X31830Y-43650D01*
X31830Y-41326D01*
X31818Y-41118D01*
X31760Y-40978D01*
X31668Y-40953D01*
X31371Y-41250D01*
X31668Y-41547D01*
X31760Y-41522D01*
X31830Y-41326D01*
X31830Y-43650D01*
X31597Y-43650D01*
X31597Y-41618D01*
X31300Y-41321D01*
X31229Y-41392D01*
X31229Y-41250D01*
X30932Y-40953D01*
X30840Y-40978D01*
X30770Y-41174D01*
X30782Y-41382D01*
X30840Y-41522D01*
X30932Y-41547D01*
X31229Y-41250D01*
X31229Y-41392D01*
X31003Y-41618D01*
X31028Y-41710D01*
X31224Y-41780D01*
X31432Y-41768D01*
X31572Y-41710D01*
X31597Y-41618D01*
X31597Y-43650D01*
X29500Y-43650D01*
X29500Y-41510D01*
X29500Y-41092D01*
X29340Y-40706D01*
X29045Y-40410D01*
X28660Y-40250D01*
X28242Y-40250D01*
X27856Y-40410D01*
X27560Y-40705D01*
X27400Y-41090D01*
X27400Y-41508D01*
X27560Y-41894D01*
X27855Y-42190D01*
X28240Y-42350D01*
X28658Y-42350D01*
X29044Y-42190D01*
X29340Y-41895D01*
X29500Y-41510D01*
X29500Y-43650D01*
X26950Y-43650D01*
X26950Y-07750D01*
X61600Y-07750D01*
X61600Y-43650D01*
X61600Y-43650D01*
G37*
G54D29*
X61600Y-43650D02*
X61248Y-43650D01*
X61248Y-28700D01*
X61248Y-19500D01*
X61222Y-19367D01*
X61221Y-19366D01*
X61146Y-19254D01*
X60346Y-18454D01*
X60303Y-18425D01*
X60303Y-18424D01*
X60303Y-18018D01*
X60303Y-14770D01*
X60277Y-14637D01*
X60276Y-14636D01*
X60201Y-14524D01*
X59838Y-14161D01*
X59838Y-14044D01*
X59888Y-13994D01*
X59994Y-13994D01*
X60196Y-13910D01*
X60350Y-13756D01*
X60434Y-13554D01*
X60434Y-13336D01*
X60350Y-13134D01*
X60196Y-12980D01*
X59994Y-12896D01*
X59776Y-12896D01*
X59574Y-12980D01*
X59420Y-13134D01*
X59336Y-13336D01*
X59336Y-13554D01*
X59338Y-13559D01*
X59310Y-13587D01*
X59310Y-13080D01*
X59310Y-12662D01*
X59150Y-12276D01*
X58855Y-11980D01*
X58610Y-11878D01*
X58610Y-10730D01*
X58150Y-10271D01*
X57690Y-10730D01*
X57743Y-10846D01*
X58021Y-10953D01*
X58318Y-10945D01*
X58557Y-10846D01*
X58610Y-10730D01*
X58610Y-11878D01*
X58470Y-11820D01*
X58052Y-11820D01*
X57666Y-11980D01*
X57370Y-12275D01*
X57210Y-12660D01*
X57210Y-13078D01*
X57370Y-13464D01*
X57665Y-13760D01*
X58050Y-13920D01*
X58468Y-13920D01*
X58854Y-13760D01*
X59150Y-13465D01*
X59310Y-13080D01*
X59310Y-13587D01*
X59244Y-13654D01*
X59168Y-13766D01*
X59142Y-13900D01*
X59142Y-14037D01*
X58065Y-14037D01*
X57932Y-14063D01*
X57819Y-14139D01*
X57818Y-14139D01*
X57818Y-14140D01*
X56468Y-15490D01*
X56468Y-13737D01*
X56556Y-13774D01*
X56774Y-13774D01*
X56976Y-13690D01*
X57130Y-13536D01*
X57214Y-13334D01*
X57214Y-13116D01*
X57130Y-12914D01*
X57013Y-12797D01*
X57013Y-12340D01*
X56987Y-12207D01*
X56986Y-12206D01*
X56961Y-12169D01*
X56911Y-12094D01*
X56911Y-12093D01*
X56231Y-11414D01*
X56119Y-11338D01*
X55985Y-11312D01*
X54903Y-11312D01*
X54903Y-10329D01*
X54895Y-10032D01*
X54796Y-09793D01*
X54680Y-09740D01*
X54610Y-09810D01*
X54610Y-09670D01*
X54557Y-09554D01*
X54279Y-09447D01*
X53982Y-09455D01*
X53743Y-09554D01*
X53690Y-09670D01*
X54150Y-10129D01*
X54610Y-09670D01*
X54610Y-09810D01*
X54221Y-10200D01*
X54680Y-10660D01*
X54796Y-10607D01*
X54903Y-10329D01*
X54903Y-11312D01*
X54610Y-11312D01*
X54610Y-10730D01*
X54150Y-10271D01*
X54079Y-10341D01*
X54079Y-10200D01*
X53620Y-09740D01*
X53504Y-09793D01*
X53397Y-10071D01*
X53405Y-10368D01*
X53504Y-10607D01*
X53620Y-10660D01*
X54079Y-10200D01*
X54079Y-10341D01*
X53690Y-10730D01*
X53743Y-10846D01*
X54021Y-10953D01*
X54318Y-10945D01*
X54557Y-10846D01*
X54610Y-10730D01*
X54610Y-11312D01*
X52660Y-11312D01*
X52645Y-11312D01*
X52323Y-11312D01*
X52323Y-11130D01*
X52323Y-11009D01*
X52383Y-10949D01*
X52699Y-10949D01*
X52791Y-10911D01*
X52861Y-10841D01*
X52899Y-10750D01*
X52899Y-10651D01*
X52899Y-09651D01*
X52861Y-09559D01*
X52791Y-09489D01*
X52700Y-09451D01*
X52601Y-09451D01*
X51601Y-09451D01*
X51509Y-09489D01*
X51439Y-09559D01*
X51401Y-09650D01*
X51401Y-09749D01*
X51401Y-10749D01*
X51414Y-10782D01*
X48805Y-10782D01*
X48819Y-10750D01*
X48819Y-10651D01*
X48819Y-09651D01*
X48781Y-09559D01*
X48711Y-09489D01*
X48620Y-09451D01*
X48521Y-09451D01*
X47521Y-09451D01*
X47429Y-09489D01*
X47359Y-09559D01*
X47321Y-09650D01*
X47321Y-09749D01*
X47321Y-10583D01*
X47298Y-10606D01*
X47298Y-09615D01*
X47272Y-09482D01*
X47272Y-09481D01*
X47196Y-09369D01*
X46821Y-08994D01*
X46709Y-08918D01*
X46575Y-08892D01*
X43165Y-08892D01*
X43032Y-08918D01*
X42919Y-08994D01*
X42389Y-09523D01*
X42205Y-09446D01*
X42076Y-09446D01*
X42680Y-08842D01*
X54400Y-08842D01*
X54414Y-08842D01*
X55312Y-08842D01*
X55312Y-09710D01*
X55338Y-09844D01*
X55401Y-09936D01*
X55401Y-10749D01*
X55439Y-10841D01*
X55509Y-10911D01*
X55600Y-10949D01*
X55699Y-10949D01*
X56699Y-10949D01*
X56791Y-10911D01*
X56861Y-10841D01*
X56899Y-10750D01*
X56899Y-10651D01*
X56899Y-09651D01*
X56861Y-09559D01*
X56791Y-09489D01*
X56700Y-09451D01*
X56601Y-09451D01*
X56008Y-09451D01*
X56008Y-08842D01*
X56160Y-08842D01*
X56917Y-09599D01*
X56979Y-09691D01*
X57092Y-09767D01*
X57225Y-09793D01*
X57255Y-09793D01*
X57504Y-09793D01*
X57397Y-10071D01*
X57405Y-10368D01*
X57504Y-10607D01*
X57620Y-10660D01*
X58044Y-10235D01*
X58079Y-10200D01*
X58150Y-10129D01*
X58221Y-10200D01*
X58256Y-10235D01*
X58680Y-10660D01*
X58796Y-10607D01*
X58903Y-10329D01*
X58895Y-10032D01*
X58796Y-09793D01*
X59457Y-09793D01*
X59574Y-09910D01*
X59776Y-09994D01*
X59994Y-09994D01*
X60196Y-09910D01*
X60350Y-09756D01*
X60434Y-09554D01*
X60434Y-09336D01*
X60350Y-09134D01*
X60196Y-08980D01*
X59994Y-08896D01*
X59776Y-08896D01*
X59574Y-08980D01*
X59457Y-09097D01*
X57399Y-09097D01*
X56550Y-08248D01*
X56438Y-08172D01*
X56304Y-08146D01*
X55660Y-08146D01*
X54414Y-08146D01*
X54400Y-08146D01*
X42536Y-08146D01*
X42403Y-08172D01*
X42290Y-08248D01*
X42289Y-08248D01*
X42289Y-08249D01*
X41088Y-09450D01*
X41088Y-09170D01*
X41062Y-09037D01*
X41062Y-09036D01*
X40986Y-08924D01*
X40042Y-07980D01*
X39930Y-07904D01*
X39796Y-07878D01*
X28734Y-07878D01*
X28601Y-07904D01*
X28488Y-07980D01*
X27654Y-08814D01*
X27578Y-08926D01*
X27552Y-09060D01*
X27552Y-09228D01*
X27409Y-09371D01*
X27320Y-09584D01*
X27320Y-09815D01*
X27408Y-10028D01*
X27552Y-10172D01*
X27552Y-12728D01*
X27409Y-12871D01*
X27320Y-13084D01*
X27320Y-13315D01*
X27408Y-13528D01*
X27552Y-13672D01*
X27552Y-16228D01*
X27409Y-16371D01*
X27320Y-16584D01*
X27320Y-16815D01*
X27408Y-17028D01*
X27552Y-17172D01*
X27552Y-19728D01*
X27409Y-19871D01*
X27320Y-20084D01*
X27320Y-20315D01*
X27408Y-20528D01*
X27552Y-20672D01*
X27552Y-23228D01*
X27409Y-23371D01*
X27320Y-23584D01*
X27320Y-23815D01*
X27408Y-24028D01*
X27552Y-24172D01*
X27552Y-26728D01*
X27409Y-26871D01*
X27320Y-27084D01*
X27320Y-27315D01*
X27408Y-27528D01*
X27552Y-27672D01*
X27552Y-30228D01*
X27409Y-30371D01*
X27320Y-30584D01*
X27320Y-30815D01*
X27408Y-31028D01*
X27552Y-31172D01*
X27552Y-33728D01*
X27409Y-33871D01*
X27320Y-34084D01*
X27320Y-34315D01*
X27408Y-34528D01*
X27571Y-34691D01*
X27784Y-34780D01*
X28015Y-34780D01*
X28228Y-34692D01*
X28391Y-34529D01*
X28399Y-34508D01*
X28408Y-34528D01*
X28571Y-34691D01*
X28784Y-34780D01*
X29015Y-34780D01*
X29228Y-34692D01*
X29391Y-34529D01*
X29480Y-34316D01*
X29480Y-34085D01*
X29392Y-33872D01*
X29248Y-33728D01*
X29248Y-33394D01*
X29726Y-32916D01*
X29802Y-32804D01*
X29802Y-32803D01*
X29828Y-32670D01*
X29828Y-30218D01*
X30254Y-29793D01*
X30254Y-29792D01*
X30304Y-29717D01*
X30329Y-29680D01*
X30330Y-29679D01*
X30355Y-29546D01*
X30356Y-29546D01*
X30356Y-25994D01*
X30650Y-25700D01*
X30726Y-25588D01*
X30726Y-25587D01*
X30752Y-25454D01*
X30752Y-21822D01*
X31081Y-21493D01*
X31081Y-21492D01*
X31082Y-21492D01*
X31157Y-21380D01*
X31158Y-21379D01*
X31183Y-21247D01*
X31184Y-21246D01*
X31184Y-19744D01*
X31466Y-19462D01*
X31542Y-19350D01*
X31542Y-19349D01*
X31568Y-19216D01*
X31568Y-15500D01*
X32396Y-14672D01*
X32472Y-14560D01*
X32472Y-14559D01*
X32498Y-14426D01*
X32498Y-12878D01*
X32615Y-12761D01*
X32650Y-12676D01*
X32685Y-12761D01*
X32839Y-12915D01*
X33041Y-12999D01*
X33259Y-12999D01*
X33461Y-12915D01*
X33615Y-12761D01*
X33699Y-12559D01*
X33699Y-12341D01*
X33615Y-12139D01*
X33498Y-12022D01*
X33498Y-11555D01*
X33472Y-11422D01*
X33471Y-11421D01*
X33396Y-11309D01*
X33175Y-11088D01*
X33736Y-11088D01*
X33685Y-11139D01*
X33601Y-11341D01*
X33601Y-11559D01*
X33685Y-11761D01*
X33839Y-11915D01*
X34041Y-11999D01*
X34259Y-11999D01*
X34461Y-11915D01*
X34615Y-11761D01*
X34650Y-11676D01*
X34685Y-11761D01*
X34839Y-11915D01*
X35041Y-11999D01*
X35259Y-11999D01*
X35461Y-11915D01*
X35615Y-11761D01*
X35650Y-11676D01*
X35685Y-11761D01*
X35839Y-11915D01*
X36041Y-11999D01*
X36259Y-11999D01*
X36461Y-11915D01*
X36615Y-11761D01*
X36650Y-11676D01*
X36685Y-11761D01*
X36839Y-11915D01*
X37041Y-11999D01*
X37259Y-11999D01*
X37461Y-11915D01*
X37615Y-11761D01*
X37650Y-11676D01*
X37685Y-11761D01*
X37839Y-11915D01*
X38041Y-11999D01*
X38259Y-11999D01*
X38461Y-11915D01*
X38615Y-11761D01*
X38650Y-11676D01*
X38685Y-11761D01*
X38839Y-11915D01*
X39041Y-11999D01*
X39259Y-11999D01*
X39461Y-11915D01*
X39615Y-11761D01*
X39699Y-11559D01*
X39699Y-11341D01*
X39615Y-11139D01*
X39498Y-11022D01*
X39498Y-09050D01*
X39472Y-08917D01*
X39471Y-08916D01*
X39396Y-08804D01*
X39166Y-08574D01*
X39652Y-08574D01*
X40392Y-09314D01*
X40392Y-11130D01*
X40418Y-11264D01*
X40494Y-11376D01*
X40712Y-11594D01*
X40824Y-11670D01*
X40825Y-11670D01*
X40958Y-11696D01*
X40988Y-11696D01*
X41172Y-11880D01*
X40936Y-11782D01*
X40518Y-11782D01*
X40132Y-11942D01*
X39836Y-12237D01*
X39676Y-12622D01*
X39676Y-13040D01*
X39836Y-13426D01*
X40131Y-13722D01*
X40516Y-13882D01*
X40691Y-13882D01*
X40636Y-13964D01*
X40624Y-14022D01*
X40493Y-14154D01*
X40409Y-14356D01*
X40409Y-14574D01*
X40409Y-14880D01*
X40493Y-15082D01*
X40586Y-15175D01*
X40124Y-15638D01*
X40048Y-15750D01*
X40022Y-15884D01*
X40022Y-16083D01*
X39903Y-16202D01*
X39823Y-16395D01*
X39823Y-16604D01*
X39898Y-16786D01*
X39498Y-16386D01*
X39498Y-15878D01*
X39615Y-15761D01*
X39699Y-15559D01*
X39699Y-15341D01*
X39615Y-15139D01*
X39461Y-14985D01*
X39259Y-14901D01*
X39041Y-14901D01*
X38839Y-14985D01*
X38685Y-15139D01*
X38650Y-15223D01*
X38615Y-15139D01*
X38461Y-14985D01*
X38259Y-14901D01*
X38041Y-14901D01*
X37839Y-14985D01*
X37685Y-15139D01*
X37650Y-15223D01*
X37615Y-15139D01*
X37461Y-14985D01*
X37259Y-14901D01*
X37041Y-14901D01*
X36839Y-14985D01*
X36685Y-15139D01*
X36650Y-15223D01*
X36615Y-15139D01*
X36461Y-14985D01*
X36259Y-14901D01*
X36041Y-14901D01*
X35839Y-14985D01*
X35685Y-15139D01*
X35650Y-15223D01*
X35615Y-15139D01*
X35461Y-14985D01*
X35259Y-14901D01*
X35041Y-14901D01*
X34839Y-14985D01*
X34685Y-15139D01*
X34650Y-15223D01*
X34615Y-15139D01*
X34461Y-14985D01*
X34259Y-14901D01*
X34041Y-14901D01*
X33839Y-14985D01*
X33685Y-15139D01*
X33601Y-15341D01*
X33601Y-15559D01*
X33685Y-15761D01*
X33802Y-15878D01*
X33802Y-16090D01*
X33828Y-16224D01*
X33904Y-16336D01*
X34952Y-17384D01*
X34952Y-18605D01*
X34855Y-18702D01*
X34799Y-18835D01*
X34745Y-18703D01*
X34648Y-18605D01*
X34648Y-17350D01*
X34647Y-17349D01*
X34622Y-17217D01*
X34621Y-17216D01*
X34596Y-17179D01*
X34546Y-17104D01*
X34546Y-17103D01*
X33646Y-16204D01*
X33640Y-16200D01*
X33615Y-16139D01*
X33461Y-15985D01*
X33259Y-15901D01*
X33041Y-15901D01*
X32839Y-15985D01*
X32685Y-16139D01*
X32650Y-16223D01*
X32615Y-16139D01*
X32461Y-15985D01*
X32259Y-15901D01*
X32041Y-15901D01*
X31839Y-15985D01*
X31685Y-16139D01*
X31601Y-16341D01*
X31601Y-16559D01*
X31685Y-16761D01*
X31802Y-16878D01*
X31802Y-16950D01*
X31828Y-17084D01*
X31904Y-17196D01*
X32952Y-18244D01*
X32952Y-18605D01*
X32855Y-18702D01*
X32775Y-18895D01*
X32775Y-19104D01*
X32855Y-19297D01*
X32962Y-19404D01*
X32962Y-19689D01*
X32845Y-19806D01*
X32761Y-20008D01*
X32761Y-20226D01*
X32761Y-20532D01*
X32845Y-20734D01*
X32999Y-20888D01*
X33201Y-20972D01*
X33419Y-20972D01*
X33621Y-20888D01*
X33775Y-20734D01*
X33810Y-20649D01*
X33845Y-20734D01*
X33999Y-20888D01*
X34201Y-20972D01*
X34419Y-20972D01*
X34621Y-20888D01*
X34775Y-20734D01*
X34810Y-20649D01*
X34845Y-20734D01*
X34999Y-20888D01*
X35201Y-20972D01*
X35419Y-20972D01*
X35621Y-20888D01*
X35775Y-20734D01*
X35810Y-20649D01*
X35845Y-20734D01*
X35999Y-20888D01*
X36201Y-20972D01*
X36419Y-20972D01*
X36621Y-20888D01*
X36775Y-20734D01*
X36810Y-20649D01*
X36845Y-20734D01*
X36999Y-20888D01*
X37201Y-20972D01*
X37419Y-20972D01*
X37621Y-20888D01*
X37775Y-20734D01*
X37810Y-20649D01*
X37845Y-20734D01*
X37999Y-20888D01*
X38201Y-20972D01*
X38419Y-20972D01*
X38621Y-20888D01*
X38775Y-20734D01*
X38810Y-20649D01*
X38845Y-20734D01*
X38999Y-20888D01*
X39201Y-20972D01*
X39419Y-20972D01*
X39621Y-20888D01*
X39775Y-20734D01*
X39810Y-20649D01*
X39845Y-20734D01*
X39999Y-20888D01*
X40201Y-20972D01*
X40419Y-20972D01*
X40621Y-20888D01*
X40775Y-20734D01*
X40810Y-20649D01*
X40845Y-20734D01*
X40999Y-20888D01*
X41201Y-20972D01*
X41419Y-20972D01*
X41621Y-20888D01*
X41775Y-20734D01*
X41859Y-20532D01*
X41859Y-20314D01*
X41859Y-20008D01*
X41775Y-19806D01*
X41658Y-19689D01*
X41658Y-19455D01*
X41784Y-19581D01*
X41896Y-19656D01*
X41897Y-19657D01*
X42030Y-19683D01*
X42840Y-19683D01*
X42916Y-19668D01*
X43369Y-19668D01*
X43235Y-19802D01*
X43155Y-19995D01*
X43155Y-20133D01*
X42594Y-20694D01*
X42518Y-20806D01*
X42492Y-20940D01*
X42492Y-22478D01*
X42048Y-22922D01*
X41823Y-22922D01*
X41775Y-22806D01*
X41621Y-22652D01*
X41419Y-22568D01*
X41201Y-22568D01*
X40999Y-22652D01*
X40845Y-22806D01*
X40810Y-22890D01*
X40775Y-22806D01*
X40621Y-22652D01*
X40419Y-22568D01*
X40201Y-22568D01*
X39999Y-22652D01*
X39845Y-22806D01*
X39810Y-22890D01*
X39775Y-22806D01*
X39621Y-22652D01*
X39419Y-22568D01*
X39201Y-22568D01*
X38999Y-22652D01*
X38845Y-22806D01*
X38810Y-22890D01*
X38775Y-22806D01*
X38621Y-22652D01*
X38419Y-22568D01*
X38201Y-22568D01*
X37999Y-22652D01*
X37845Y-22806D01*
X37810Y-22890D01*
X37775Y-22806D01*
X37621Y-22652D01*
X37419Y-22568D01*
X37201Y-22568D01*
X36999Y-22652D01*
X36845Y-22806D01*
X36810Y-22890D01*
X36775Y-22806D01*
X36621Y-22652D01*
X36419Y-22568D01*
X36201Y-22568D01*
X35999Y-22652D01*
X35845Y-22806D01*
X35810Y-22890D01*
X35775Y-22806D01*
X35621Y-22652D01*
X35419Y-22568D01*
X35201Y-22568D01*
X34999Y-22652D01*
X34845Y-22806D01*
X34810Y-22890D01*
X34775Y-22806D01*
X34621Y-22652D01*
X34419Y-22568D01*
X34201Y-22568D01*
X33999Y-22652D01*
X33869Y-22782D01*
X33869Y-22771D01*
X33831Y-22679D01*
X33761Y-22609D01*
X33670Y-22571D01*
X33571Y-22571D01*
X32951Y-22571D01*
X32859Y-22609D01*
X32789Y-22679D01*
X32751Y-22770D01*
X32751Y-22869D01*
X32751Y-23769D01*
X32789Y-23861D01*
X32859Y-23931D01*
X32950Y-23969D01*
X32962Y-23969D01*
X32962Y-24068D01*
X32890Y-24098D01*
X32820Y-24168D01*
X32782Y-24259D01*
X32782Y-24358D01*
X32782Y-24908D01*
X32820Y-25000D01*
X32890Y-25070D01*
X32958Y-25098D01*
X32958Y-25239D01*
X32831Y-25366D01*
X32747Y-25568D01*
X32747Y-25786D01*
X32747Y-26092D01*
X32831Y-26294D01*
X32985Y-26448D01*
X33187Y-26532D01*
X33405Y-26532D01*
X33476Y-26502D01*
X34075Y-27101D01*
X34076Y-27102D01*
X34188Y-27177D01*
X34189Y-27178D01*
X34321Y-27203D01*
X34322Y-27204D01*
X35103Y-27204D01*
X35103Y-27254D01*
X35103Y-27560D01*
X35187Y-27762D01*
X35341Y-27916D01*
X35543Y-28000D01*
X35761Y-28000D01*
X35963Y-27916D01*
X36117Y-27762D01*
X36152Y-27677D01*
X36187Y-27762D01*
X36341Y-27916D01*
X36543Y-28000D01*
X36761Y-28000D01*
X36963Y-27916D01*
X37117Y-27762D01*
X37152Y-27677D01*
X37187Y-27762D01*
X37341Y-27916D01*
X37543Y-28000D01*
X37761Y-28000D01*
X37963Y-27916D01*
X38117Y-27762D01*
X38152Y-27677D01*
X38187Y-27762D01*
X38341Y-27916D01*
X38543Y-28000D01*
X38761Y-28000D01*
X38963Y-27916D01*
X39117Y-27762D01*
X39152Y-27677D01*
X39187Y-27762D01*
X39341Y-27916D01*
X39543Y-28000D01*
X39761Y-28000D01*
X39963Y-27916D01*
X40117Y-27762D01*
X40152Y-27677D01*
X40187Y-27762D01*
X40341Y-27916D01*
X40543Y-28000D01*
X40761Y-28000D01*
X40963Y-27916D01*
X41117Y-27762D01*
X41152Y-27677D01*
X41187Y-27762D01*
X41341Y-27916D01*
X41543Y-28000D01*
X41761Y-28000D01*
X41963Y-27916D01*
X42117Y-27762D01*
X42152Y-27677D01*
X42187Y-27762D01*
X42341Y-27916D01*
X42543Y-28000D01*
X42761Y-28000D01*
X42963Y-27916D01*
X43117Y-27762D01*
X43152Y-27677D01*
X43187Y-27762D01*
X43304Y-27879D01*
X43304Y-28010D01*
X43296Y-28018D01*
X43006Y-28018D01*
X42873Y-28044D01*
X42760Y-28120D01*
X41904Y-28976D01*
X41828Y-29088D01*
X41802Y-29222D01*
X41802Y-29613D01*
X41761Y-29596D01*
X41543Y-29596D01*
X41341Y-29680D01*
X41187Y-29834D01*
X41152Y-29918D01*
X41117Y-29834D01*
X40963Y-29680D01*
X40761Y-29596D01*
X40543Y-29596D01*
X40471Y-29625D01*
X40035Y-29189D01*
X39923Y-29113D01*
X39789Y-29087D01*
X34440Y-29087D01*
X34307Y-29113D01*
X34194Y-29189D01*
X31204Y-32179D01*
X31128Y-32291D01*
X31102Y-32425D01*
X31102Y-33822D01*
X30985Y-33939D01*
X30901Y-34141D01*
X30901Y-34359D01*
X30985Y-34561D01*
X31139Y-34715D01*
X31341Y-34799D01*
X31559Y-34799D01*
X31761Y-34715D01*
X31915Y-34561D01*
X31922Y-34544D01*
X31922Y-35591D01*
X30519Y-36994D01*
X30443Y-37106D01*
X30417Y-37240D01*
X30417Y-38675D01*
X30443Y-38809D01*
X30519Y-38921D01*
X30952Y-39354D01*
X30952Y-39735D01*
X30884Y-39764D01*
X30814Y-39834D01*
X30776Y-39925D01*
X30776Y-40024D01*
X30776Y-40574D01*
X30814Y-40666D01*
X30884Y-40736D01*
X30975Y-40774D01*
X31066Y-40774D01*
X31028Y-40790D01*
X31003Y-40882D01*
X31300Y-41179D01*
X31597Y-40882D01*
X31572Y-40790D01*
X31527Y-40774D01*
X31624Y-40774D01*
X31716Y-40736D01*
X31786Y-40666D01*
X31824Y-40575D01*
X31824Y-40568D01*
X32542Y-40568D01*
X32659Y-40685D01*
X32861Y-40769D01*
X33079Y-40769D01*
X33281Y-40685D01*
X33398Y-40568D01*
X34352Y-40568D01*
X34352Y-41600D01*
X34255Y-41697D01*
X34175Y-41890D01*
X34175Y-42099D01*
X34255Y-42292D01*
X34402Y-42440D01*
X34595Y-42520D01*
X34804Y-42520D01*
X34997Y-42440D01*
X35145Y-42293D01*
X35225Y-42100D01*
X35225Y-41891D01*
X35145Y-41698D01*
X35048Y-41600D01*
X35048Y-40035D01*
X35048Y-39389D01*
X35145Y-39293D01*
X35225Y-39100D01*
X35225Y-38891D01*
X35145Y-38698D01*
X34998Y-38550D01*
X34805Y-38470D01*
X34596Y-38470D01*
X34403Y-38550D01*
X34255Y-38697D01*
X34175Y-38890D01*
X34175Y-39099D01*
X34255Y-39292D01*
X34352Y-39389D01*
X34352Y-39872D01*
X33398Y-39872D01*
X33281Y-39755D01*
X33079Y-39671D01*
X32861Y-39671D01*
X32659Y-39755D01*
X32542Y-39872D01*
X31801Y-39872D01*
X31786Y-39834D01*
X31716Y-39764D01*
X31648Y-39735D01*
X31648Y-39210D01*
X31622Y-39077D01*
X31621Y-39076D01*
X31596Y-39039D01*
X31546Y-38964D01*
X31546Y-38963D01*
X31381Y-38799D01*
X31559Y-38799D01*
X31761Y-38715D01*
X31878Y-38598D01*
X32160Y-38598D01*
X32293Y-38572D01*
X32294Y-38572D01*
X32406Y-38496D01*
X33349Y-37553D01*
X36583Y-37553D01*
X36726Y-37696D01*
X36939Y-37785D01*
X37170Y-37785D01*
X37383Y-37697D01*
X37546Y-37534D01*
X37554Y-37513D01*
X37563Y-37533D01*
X37726Y-37696D01*
X37939Y-37785D01*
X38170Y-37785D01*
X38383Y-37697D01*
X38546Y-37534D01*
X38635Y-37321D01*
X38635Y-37090D01*
X38567Y-36925D01*
X38567Y-35604D01*
X38270Y-35307D01*
X38199Y-35378D01*
X38199Y-35236D01*
X37902Y-34939D01*
X37810Y-34964D01*
X37772Y-35067D01*
X37730Y-34964D01*
X37638Y-34939D01*
X37567Y-35010D01*
X37567Y-34868D01*
X37542Y-34776D01*
X37346Y-34706D01*
X37138Y-34718D01*
X36998Y-34776D01*
X36973Y-34868D01*
X37270Y-35165D01*
X37567Y-34868D01*
X37567Y-35010D01*
X37341Y-35236D01*
X37638Y-35533D01*
X37730Y-35508D01*
X37767Y-35404D01*
X37810Y-35508D01*
X37902Y-35533D01*
X38199Y-35236D01*
X38199Y-35378D01*
X37973Y-35604D01*
X37998Y-35696D01*
X38194Y-35766D01*
X38402Y-35754D01*
X38542Y-35696D01*
X38567Y-35604D01*
X38567Y-36925D01*
X38547Y-36877D01*
X38384Y-36714D01*
X38353Y-36701D01*
X38352Y-36700D01*
X38301Y-36624D01*
X37651Y-35974D01*
X37567Y-35917D01*
X37567Y-35604D01*
X37270Y-35307D01*
X37199Y-35378D01*
X37199Y-35236D01*
X36902Y-34939D01*
X36810Y-34964D01*
X36772Y-35067D01*
X36730Y-34964D01*
X36638Y-34939D01*
X36567Y-35010D01*
X36567Y-34868D01*
X36542Y-34776D01*
X36346Y-34706D01*
X36138Y-34718D01*
X35998Y-34776D01*
X35973Y-34868D01*
X36270Y-35165D01*
X36567Y-34868D01*
X36567Y-35010D01*
X36341Y-35236D01*
X36638Y-35533D01*
X36730Y-35508D01*
X36767Y-35404D01*
X36810Y-35508D01*
X36902Y-35533D01*
X37199Y-35236D01*
X37199Y-35378D01*
X36973Y-35604D01*
X36998Y-35696D01*
X37194Y-35766D01*
X37402Y-35754D01*
X37542Y-35696D01*
X37567Y-35604D01*
X37567Y-35917D01*
X37539Y-35898D01*
X37405Y-35872D01*
X36567Y-35872D01*
X36567Y-35604D01*
X36270Y-35307D01*
X36199Y-35378D01*
X36199Y-35236D01*
X35902Y-34939D01*
X35810Y-34964D01*
X35772Y-35067D01*
X35730Y-34964D01*
X35638Y-34939D01*
X35567Y-35010D01*
X35567Y-34868D01*
X35542Y-34776D01*
X35346Y-34706D01*
X35138Y-34718D01*
X34998Y-34776D01*
X34973Y-34868D01*
X35270Y-35165D01*
X35567Y-34868D01*
X35567Y-35010D01*
X35341Y-35236D01*
X35638Y-35533D01*
X35730Y-35508D01*
X35767Y-35404D01*
X35810Y-35508D01*
X35902Y-35533D01*
X36199Y-35236D01*
X36199Y-35378D01*
X35973Y-35604D01*
X35998Y-35696D01*
X36194Y-35766D01*
X36402Y-35754D01*
X36542Y-35696D01*
X36567Y-35604D01*
X36567Y-35872D01*
X35567Y-35872D01*
X35567Y-35604D01*
X35270Y-35307D01*
X35199Y-35378D01*
X35199Y-35236D01*
X34902Y-34939D01*
X34810Y-34964D01*
X34794Y-35008D01*
X34794Y-34911D01*
X34756Y-34820D01*
X34686Y-34750D01*
X34594Y-34712D01*
X34382Y-34711D01*
X34320Y-34773D01*
X34320Y-35136D01*
X34320Y-35186D01*
X34320Y-35286D01*
X34320Y-35336D01*
X34320Y-35699D01*
X34382Y-35761D01*
X34594Y-35760D01*
X34686Y-35722D01*
X34756Y-35652D01*
X34794Y-35561D01*
X34794Y-35469D01*
X34810Y-35508D01*
X34902Y-35533D01*
X35199Y-35236D01*
X35199Y-35378D01*
X34973Y-35604D01*
X34998Y-35696D01*
X35194Y-35766D01*
X35402Y-35754D01*
X35542Y-35696D01*
X35567Y-35604D01*
X35567Y-35872D01*
X34220Y-35872D01*
X34220Y-35699D01*
X34220Y-35286D01*
X34220Y-35186D01*
X34220Y-34773D01*
X34158Y-34711D01*
X33946Y-34712D01*
X33854Y-34750D01*
X33784Y-34820D01*
X33746Y-34911D01*
X33746Y-35010D01*
X33745Y-35124D01*
X33807Y-35186D01*
X34220Y-35186D01*
X34220Y-35286D01*
X33807Y-35286D01*
X33745Y-35348D01*
X33746Y-35462D01*
X33746Y-35561D01*
X33784Y-35652D01*
X33854Y-35722D01*
X33946Y-35760D01*
X34158Y-35761D01*
X34220Y-35699D01*
X34220Y-35872D01*
X33398Y-35872D01*
X33318Y-35792D01*
X33318Y-34794D01*
X33644Y-34468D01*
X33785Y-34468D01*
X33814Y-34536D01*
X33884Y-34606D01*
X33975Y-34644D01*
X34074Y-34644D01*
X34624Y-34644D01*
X34716Y-34606D01*
X34786Y-34536D01*
X34814Y-34468D01*
X34905Y-34468D01*
X35002Y-34565D01*
X35195Y-34645D01*
X35404Y-34645D01*
X35597Y-34565D01*
X35694Y-34468D01*
X35905Y-34468D01*
X36002Y-34565D01*
X36195Y-34645D01*
X36404Y-34645D01*
X36597Y-34565D01*
X36694Y-34468D01*
X36905Y-34468D01*
X37002Y-34565D01*
X37195Y-34645D01*
X37404Y-34645D01*
X37597Y-34565D01*
X37694Y-34468D01*
X37905Y-34468D01*
X38002Y-34565D01*
X38195Y-34645D01*
X38404Y-34645D01*
X38597Y-34565D01*
X38694Y-34468D01*
X38905Y-34468D01*
X39002Y-34565D01*
X39195Y-34645D01*
X39404Y-34645D01*
X39597Y-34565D01*
X39694Y-34468D01*
X39905Y-34468D01*
X40002Y-34565D01*
X40195Y-34645D01*
X40404Y-34645D01*
X40597Y-34565D01*
X40694Y-34468D01*
X40905Y-34468D01*
X41002Y-34565D01*
X41195Y-34645D01*
X41404Y-34645D01*
X41597Y-34565D01*
X41745Y-34418D01*
X41767Y-34363D01*
X42167Y-34363D01*
X42284Y-34480D01*
X42486Y-34564D01*
X42704Y-34564D01*
X42906Y-34480D01*
X43060Y-34326D01*
X43144Y-34124D01*
X43144Y-33958D01*
X43277Y-33825D01*
X43304Y-33825D01*
X43497Y-33745D01*
X43645Y-33598D01*
X43725Y-33405D01*
X43725Y-33196D01*
X43645Y-33003D01*
X43644Y-33001D01*
X43644Y-32411D01*
X43761Y-32294D01*
X43794Y-32214D01*
X43914Y-32380D01*
X44100Y-32495D01*
X44159Y-32512D01*
X44246Y-32465D01*
X44246Y-31930D01*
X44246Y-31880D01*
X44246Y-31780D01*
X44346Y-31780D01*
X44346Y-31880D01*
X44346Y-31930D01*
X44346Y-32465D01*
X44433Y-32512D01*
X44492Y-32495D01*
X44678Y-32380D01*
X44797Y-32214D01*
X44831Y-32294D01*
X44985Y-32448D01*
X45187Y-32532D01*
X45207Y-32532D01*
X45207Y-34174D01*
X45198Y-34178D01*
X45020Y-34355D01*
X44924Y-34587D01*
X44924Y-34838D01*
X44924Y-35064D01*
X45020Y-35296D01*
X45197Y-35474D01*
X45222Y-35484D01*
X45222Y-37185D01*
X45125Y-37282D01*
X45045Y-37475D01*
X45045Y-37684D01*
X45125Y-37877D01*
X45272Y-38025D01*
X45399Y-38077D01*
X45298Y-38120D01*
X45273Y-38212D01*
X45570Y-38509D01*
X45867Y-38212D01*
X45842Y-38120D01*
X45732Y-38080D01*
X45867Y-38025D01*
X46015Y-37878D01*
X46058Y-37772D01*
X46074Y-37850D01*
X46150Y-37962D01*
X46508Y-38320D01*
X46620Y-38396D01*
X46621Y-38396D01*
X46754Y-38422D01*
X46959Y-38422D01*
X46930Y-38504D01*
X46942Y-38712D01*
X47000Y-38852D01*
X47092Y-38877D01*
X47354Y-38615D01*
X47389Y-38580D01*
X47460Y-38509D01*
X47531Y-38580D01*
X47566Y-38615D01*
X47828Y-38877D01*
X47920Y-38852D01*
X47990Y-38656D01*
X47978Y-38448D01*
X47967Y-38422D01*
X48203Y-38422D01*
X48358Y-38577D01*
X48435Y-38761D01*
X48589Y-38915D01*
X48667Y-38947D01*
X48614Y-38970D01*
X48585Y-39065D01*
X48900Y-39379D01*
X49215Y-39065D01*
X49186Y-38970D01*
X49128Y-38949D01*
X49211Y-38915D01*
X49328Y-38798D01*
X49472Y-38798D01*
X49589Y-38915D01*
X49667Y-38947D01*
X49614Y-38970D01*
X49585Y-39065D01*
X49900Y-39379D01*
X50215Y-39065D01*
X50186Y-38970D01*
X50128Y-38949D01*
X50211Y-38915D01*
X50328Y-38798D01*
X50472Y-38798D01*
X50589Y-38915D01*
X50667Y-38947D01*
X50614Y-38970D01*
X50585Y-39065D01*
X50900Y-39379D01*
X51215Y-39065D01*
X51186Y-38970D01*
X51128Y-38949D01*
X51211Y-38915D01*
X51328Y-38798D01*
X51550Y-38798D01*
X51683Y-38772D01*
X51684Y-38772D01*
X51796Y-38696D01*
X52046Y-38446D01*
X52121Y-38334D01*
X52122Y-38333D01*
X52148Y-38200D01*
X52148Y-37300D01*
X52122Y-37167D01*
X52121Y-37166D01*
X52046Y-37054D01*
X51246Y-36254D01*
X51134Y-36178D01*
X51000Y-36152D01*
X50344Y-36152D01*
X50170Y-35978D01*
X50220Y-35996D01*
X50428Y-35984D01*
X50568Y-35926D01*
X50593Y-35834D01*
X50331Y-35572D01*
X50296Y-35537D01*
X50225Y-35466D01*
X50296Y-35395D01*
X50367Y-35466D01*
X50402Y-35501D01*
X50664Y-35763D01*
X50756Y-35738D01*
X50826Y-35542D01*
X50814Y-35348D01*
X52000Y-35348D01*
X52133Y-35322D01*
X52134Y-35322D01*
X52246Y-35246D01*
X52778Y-34713D01*
X52835Y-34851D01*
X52989Y-35005D01*
X53191Y-35089D01*
X53409Y-35089D01*
X53611Y-35005D01*
X53765Y-34851D01*
X53849Y-34649D01*
X53849Y-34431D01*
X53765Y-34229D01*
X53648Y-34112D01*
X53648Y-34040D01*
X53622Y-33907D01*
X53621Y-33906D01*
X53607Y-33884D01*
X54544Y-32948D01*
X55921Y-32948D01*
X55895Y-32974D01*
X55811Y-33176D01*
X55811Y-33394D01*
X55895Y-33596D01*
X56049Y-33750D01*
X56251Y-33834D01*
X56469Y-33834D01*
X56671Y-33750D01*
X56825Y-33596D01*
X56909Y-33394D01*
X56909Y-33176D01*
X56887Y-33124D01*
X57079Y-32932D01*
X57133Y-32922D01*
X57134Y-32922D01*
X57246Y-32846D01*
X61146Y-28946D01*
X61221Y-28834D01*
X61222Y-28833D01*
X61248Y-28700D01*
X61248Y-43650D01*
X59385Y-43650D01*
X59385Y-32430D01*
X59385Y-32221D01*
X59305Y-32028D01*
X59158Y-31880D01*
X58965Y-31800D01*
X58756Y-31800D01*
X58563Y-31880D01*
X58415Y-32027D01*
X58335Y-32220D01*
X58335Y-32429D01*
X58415Y-32622D01*
X58512Y-32719D01*
X58512Y-35296D01*
X56663Y-37145D01*
X56663Y-36128D01*
X56653Y-35899D01*
X56585Y-35735D01*
X56487Y-35703D01*
X56417Y-35773D01*
X56417Y-35633D01*
X56385Y-35535D01*
X56168Y-35457D01*
X55939Y-35467D01*
X55775Y-35535D01*
X55743Y-35633D01*
X56080Y-35969D01*
X56417Y-35633D01*
X56417Y-35773D01*
X56151Y-36040D01*
X56487Y-36377D01*
X56585Y-36345D01*
X56663Y-36128D01*
X56663Y-37145D01*
X56660Y-37148D01*
X56660Y-36925D01*
X56572Y-36712D01*
X56409Y-36549D01*
X56386Y-36539D01*
X56417Y-36447D01*
X56080Y-36111D01*
X56009Y-36181D01*
X56009Y-36040D01*
X55673Y-35703D01*
X55575Y-35735D01*
X55497Y-35952D01*
X55507Y-36181D01*
X55575Y-36345D01*
X55673Y-36377D01*
X56009Y-36040D01*
X56009Y-36181D01*
X55743Y-36447D01*
X55773Y-36539D01*
X55752Y-36548D01*
X55589Y-36711D01*
X55500Y-36924D01*
X55500Y-37155D01*
X55588Y-37368D01*
X55732Y-37512D01*
X55732Y-37556D01*
X55096Y-38192D01*
X53728Y-38192D01*
X53611Y-38075D01*
X53409Y-37991D01*
X53191Y-37991D01*
X52989Y-38075D01*
X52835Y-38229D01*
X52751Y-38431D01*
X52751Y-38649D01*
X52835Y-38851D01*
X52989Y-39005D01*
X53191Y-39089D01*
X53409Y-39089D01*
X53611Y-39005D01*
X53728Y-38888D01*
X54920Y-38888D01*
X54206Y-39602D01*
X51840Y-39602D01*
X51800Y-39602D01*
X51427Y-39602D01*
X51453Y-39531D01*
X51442Y-39313D01*
X51380Y-39164D01*
X51285Y-39135D01*
X50971Y-39450D01*
X50900Y-39521D01*
X50829Y-39450D01*
X50794Y-39415D01*
X50515Y-39135D01*
X50420Y-39164D01*
X50401Y-39215D01*
X50380Y-39164D01*
X50285Y-39135D01*
X49971Y-39450D01*
X49900Y-39521D01*
X49829Y-39450D01*
X49794Y-39415D01*
X49515Y-39135D01*
X49420Y-39164D01*
X49401Y-39215D01*
X49380Y-39164D01*
X49285Y-39135D01*
X48971Y-39450D01*
X48900Y-39521D01*
X48829Y-39450D01*
X48794Y-39415D01*
X48515Y-39135D01*
X48420Y-39164D01*
X48347Y-39369D01*
X48358Y-39587D01*
X48364Y-39602D01*
X47757Y-39602D01*
X47757Y-38948D01*
X47460Y-38651D01*
X47163Y-38948D01*
X47188Y-39040D01*
X47384Y-39110D01*
X47592Y-39098D01*
X47732Y-39040D01*
X47757Y-38948D01*
X47757Y-39602D01*
X46886Y-39602D01*
X46753Y-39628D01*
X46640Y-39704D01*
X46639Y-39704D01*
X46639Y-39705D01*
X46100Y-40243D01*
X46100Y-38656D01*
X46088Y-38448D01*
X46030Y-38308D01*
X45938Y-38283D01*
X45641Y-38580D01*
X45938Y-38877D01*
X46030Y-38852D01*
X46100Y-38656D01*
X46100Y-40243D01*
X45867Y-40476D01*
X45867Y-38948D01*
X45570Y-38651D01*
X45499Y-38722D01*
X45499Y-38580D01*
X45202Y-38283D01*
X45110Y-38308D01*
X45040Y-38504D01*
X45052Y-38712D01*
X45110Y-38852D01*
X45202Y-38877D01*
X45499Y-38580D01*
X45499Y-38722D01*
X45273Y-38948D01*
X45298Y-39040D01*
X45494Y-39110D01*
X45702Y-39098D01*
X45842Y-39040D01*
X45867Y-38948D01*
X45867Y-40476D01*
X45547Y-40796D01*
X45546Y-40793D01*
X45430Y-40740D01*
X45360Y-40810D01*
X45360Y-40670D01*
X45307Y-40554D01*
X45029Y-40447D01*
X44732Y-40455D01*
X44493Y-40554D01*
X44440Y-40670D01*
X44900Y-41129D01*
X45360Y-40670D01*
X45360Y-40810D01*
X44971Y-41200D01*
X44900Y-41271D01*
X44829Y-41200D01*
X44794Y-41165D01*
X44370Y-40740D01*
X44254Y-40793D01*
X44147Y-41071D01*
X44155Y-41368D01*
X44254Y-41607D01*
X44321Y-41637D01*
X44290Y-41669D01*
X44319Y-41698D01*
X43649Y-41698D01*
X43649Y-41651D01*
X43649Y-40651D01*
X43611Y-40559D01*
X43541Y-40489D01*
X43450Y-40451D01*
X43351Y-40451D01*
X42351Y-40451D01*
X42259Y-40489D01*
X42189Y-40559D01*
X42151Y-40650D01*
X42151Y-40749D01*
X42151Y-41749D01*
X42189Y-41841D01*
X42259Y-41911D01*
X42350Y-41949D01*
X42449Y-41949D01*
X42615Y-41949D01*
X42654Y-42006D01*
X42730Y-42082D01*
X41653Y-42082D01*
X41653Y-41329D01*
X41645Y-41032D01*
X41546Y-40793D01*
X41430Y-40740D01*
X41360Y-40810D01*
X41360Y-40670D01*
X41307Y-40554D01*
X41029Y-40447D01*
X40732Y-40455D01*
X40493Y-40554D01*
X40440Y-40670D01*
X40900Y-41129D01*
X41360Y-40670D01*
X41360Y-40810D01*
X40971Y-41200D01*
X41430Y-41660D01*
X41546Y-41607D01*
X41653Y-41329D01*
X41653Y-42082D01*
X41360Y-42082D01*
X41360Y-41730D01*
X40900Y-41271D01*
X40829Y-41341D01*
X40829Y-41200D01*
X40370Y-40740D01*
X40254Y-40793D01*
X40147Y-41071D01*
X40155Y-41368D01*
X40254Y-41607D01*
X40370Y-41660D01*
X40829Y-41200D01*
X40829Y-41341D01*
X40440Y-41730D01*
X40493Y-41846D01*
X40771Y-41953D01*
X41068Y-41945D01*
X41307Y-41846D01*
X41360Y-41730D01*
X41360Y-42082D01*
X39444Y-42082D01*
X39311Y-41949D01*
X39449Y-41949D01*
X39541Y-41911D01*
X39611Y-41841D01*
X39649Y-41750D01*
X39649Y-41651D01*
X39649Y-40651D01*
X39611Y-40559D01*
X39541Y-40489D01*
X39450Y-40451D01*
X39351Y-40451D01*
X39248Y-40451D01*
X39248Y-40070D01*
X40955Y-38363D01*
X42167Y-38363D01*
X42284Y-38480D01*
X42486Y-38564D01*
X42704Y-38564D01*
X42906Y-38480D01*
X43060Y-38326D01*
X43144Y-38124D01*
X43144Y-37906D01*
X43060Y-37704D01*
X42906Y-37550D01*
X42704Y-37466D01*
X42486Y-37466D01*
X42284Y-37550D01*
X42167Y-37667D01*
X41800Y-37667D01*
X41800Y-35312D01*
X41788Y-35104D01*
X41730Y-34964D01*
X41638Y-34939D01*
X41567Y-35010D01*
X41567Y-34868D01*
X41542Y-34776D01*
X41346Y-34706D01*
X41138Y-34718D01*
X40998Y-34776D01*
X40973Y-34868D01*
X41270Y-35165D01*
X41567Y-34868D01*
X41567Y-35010D01*
X41341Y-35236D01*
X41638Y-35533D01*
X41730Y-35508D01*
X41800Y-35312D01*
X41800Y-37667D01*
X41567Y-37667D01*
X41567Y-35604D01*
X41270Y-35307D01*
X41199Y-35378D01*
X41199Y-35236D01*
X40902Y-34939D01*
X40810Y-34964D01*
X40772Y-35067D01*
X40730Y-34964D01*
X40638Y-34939D01*
X40567Y-35010D01*
X40567Y-34868D01*
X40542Y-34776D01*
X40346Y-34706D01*
X40138Y-34718D01*
X39998Y-34776D01*
X39973Y-34868D01*
X40270Y-35165D01*
X40567Y-34868D01*
X40567Y-35010D01*
X40341Y-35236D01*
X40638Y-35533D01*
X40730Y-35508D01*
X40767Y-35404D01*
X40810Y-35508D01*
X40902Y-35533D01*
X41199Y-35236D01*
X41199Y-35378D01*
X40973Y-35604D01*
X40998Y-35696D01*
X41194Y-35766D01*
X41402Y-35754D01*
X41542Y-35696D01*
X41567Y-35604D01*
X41567Y-37667D01*
X40811Y-37667D01*
X40678Y-37693D01*
X40567Y-37767D01*
X40567Y-35604D01*
X40270Y-35307D01*
X40199Y-35378D01*
X40199Y-35236D01*
X39902Y-34939D01*
X39810Y-34964D01*
X39772Y-35067D01*
X39730Y-34964D01*
X39638Y-34939D01*
X39567Y-35010D01*
X39567Y-34868D01*
X39542Y-34776D01*
X39346Y-34706D01*
X39138Y-34718D01*
X38998Y-34776D01*
X38973Y-34868D01*
X39270Y-35165D01*
X39567Y-34868D01*
X39567Y-35010D01*
X39341Y-35236D01*
X39638Y-35533D01*
X39730Y-35508D01*
X39767Y-35404D01*
X39810Y-35508D01*
X39902Y-35533D01*
X40199Y-35236D01*
X40199Y-35378D01*
X39973Y-35604D01*
X39998Y-35696D01*
X40194Y-35766D01*
X40402Y-35754D01*
X40542Y-35696D01*
X40567Y-35604D01*
X40567Y-37767D01*
X40565Y-37769D01*
X39567Y-38767D01*
X39567Y-35604D01*
X39270Y-35307D01*
X39199Y-35378D01*
X39199Y-35236D01*
X38902Y-34939D01*
X38810Y-34964D01*
X38772Y-35067D01*
X38730Y-34964D01*
X38638Y-34939D01*
X38567Y-35010D01*
X38567Y-34868D01*
X38542Y-34776D01*
X38346Y-34706D01*
X38138Y-34718D01*
X37998Y-34776D01*
X37973Y-34868D01*
X38270Y-35165D01*
X38567Y-34868D01*
X38567Y-35010D01*
X38341Y-35236D01*
X38638Y-35533D01*
X38730Y-35508D01*
X38767Y-35404D01*
X38810Y-35508D01*
X38902Y-35533D01*
X39199Y-35236D01*
X39199Y-35378D01*
X38973Y-35604D01*
X38998Y-35696D01*
X39194Y-35766D01*
X39402Y-35754D01*
X39542Y-35696D01*
X39567Y-35604D01*
X39567Y-38767D01*
X38654Y-39680D01*
X38578Y-39792D01*
X38552Y-39926D01*
X38552Y-40451D01*
X38351Y-40451D01*
X38259Y-40489D01*
X38189Y-40559D01*
X38151Y-40650D01*
X38151Y-40749D01*
X38151Y-41749D01*
X38189Y-41841D01*
X38259Y-41911D01*
X38350Y-41949D01*
X38449Y-41949D01*
X38552Y-41949D01*
X38552Y-42030D01*
X38578Y-42164D01*
X38654Y-42276D01*
X39053Y-42676D01*
X39054Y-42676D01*
X39129Y-42726D01*
X39166Y-42751D01*
X39167Y-42752D01*
X39300Y-42778D01*
X45440Y-42778D01*
X45573Y-42752D01*
X45574Y-42752D01*
X45686Y-42676D01*
X46315Y-42047D01*
X46315Y-42046D01*
X46316Y-42046D01*
X46391Y-41934D01*
X46392Y-41933D01*
X46396Y-41912D01*
X46396Y-42820D01*
X57304Y-42820D01*
X57304Y-41690D01*
X57380Y-41874D01*
X57675Y-42170D01*
X58060Y-42330D01*
X58478Y-42330D01*
X58864Y-42170D01*
X59160Y-41875D01*
X59320Y-41490D01*
X59320Y-41072D01*
X59160Y-40686D01*
X58865Y-40390D01*
X58480Y-40230D01*
X58062Y-40230D01*
X57676Y-40390D01*
X57380Y-40685D01*
X57265Y-40960D01*
X52090Y-40960D01*
X52247Y-40895D01*
X52395Y-40748D01*
X52475Y-40555D01*
X52475Y-40346D01*
X52455Y-40298D01*
X54350Y-40298D01*
X54483Y-40272D01*
X54484Y-40272D01*
X54596Y-40196D01*
X59106Y-35686D01*
X59182Y-35574D01*
X59182Y-35573D01*
X59208Y-35440D01*
X59208Y-32719D01*
X59305Y-32623D01*
X59385Y-32430D01*
X59385Y-43650D01*
X37230Y-43650D01*
X37230Y-42071D01*
X37230Y-39071D01*
X37218Y-38863D01*
X37160Y-38723D01*
X37068Y-38698D01*
X36997Y-38769D01*
X36997Y-38627D01*
X36972Y-38535D01*
X36776Y-38465D01*
X36568Y-38477D01*
X36428Y-38535D01*
X36403Y-38627D01*
X36700Y-38924D01*
X36997Y-38627D01*
X36997Y-38769D01*
X36771Y-38995D01*
X37068Y-39292D01*
X37160Y-39267D01*
X37230Y-39071D01*
X37230Y-42071D01*
X37218Y-41863D01*
X37160Y-41723D01*
X37068Y-41698D01*
X36997Y-41769D01*
X36997Y-41627D01*
X36997Y-39363D01*
X36700Y-39066D01*
X36629Y-39137D01*
X36629Y-38995D01*
X36332Y-38698D01*
X36240Y-38723D01*
X36170Y-38919D01*
X36182Y-39127D01*
X36240Y-39267D01*
X36332Y-39292D01*
X36629Y-38995D01*
X36629Y-39137D01*
X36403Y-39363D01*
X36428Y-39455D01*
X36624Y-39525D01*
X36832Y-39513D01*
X36972Y-39455D01*
X36997Y-39363D01*
X36997Y-41627D01*
X36972Y-41535D01*
X36776Y-41465D01*
X36568Y-41477D01*
X36428Y-41535D01*
X36403Y-41627D01*
X36700Y-41924D01*
X36997Y-41627D01*
X36997Y-41769D01*
X36771Y-41995D01*
X37068Y-42292D01*
X37160Y-42267D01*
X37230Y-42071D01*
X37230Y-43650D01*
X36997Y-43650D01*
X36997Y-42363D01*
X36700Y-42066D01*
X36629Y-42137D01*
X36629Y-41995D01*
X36332Y-41698D01*
X36240Y-41723D01*
X36170Y-41919D01*
X36182Y-42127D01*
X36240Y-42267D01*
X36332Y-42292D01*
X36629Y-41995D01*
X36629Y-42137D01*
X36403Y-42363D01*
X36428Y-42455D01*
X36624Y-42525D01*
X36832Y-42513D01*
X36972Y-42455D01*
X36997Y-42363D01*
X36997Y-43650D01*
X31830Y-43650D01*
X31830Y-41326D01*
X31818Y-41118D01*
X31760Y-40978D01*
X31668Y-40953D01*
X31371Y-41250D01*
X31668Y-41547D01*
X31760Y-41522D01*
X31830Y-41326D01*
X31830Y-43650D01*
X31597Y-43650D01*
X31597Y-41618D01*
X31300Y-41321D01*
X31229Y-41392D01*
X31229Y-41250D01*
X30932Y-40953D01*
X30840Y-40978D01*
X30770Y-41174D01*
X30782Y-41382D01*
X30840Y-41522D01*
X30932Y-41547D01*
X31229Y-41250D01*
X31229Y-41392D01*
X31003Y-41618D01*
X31028Y-41710D01*
X31224Y-41780D01*
X31432Y-41768D01*
X31572Y-41710D01*
X31597Y-41618D01*
X31597Y-43650D01*
X29500Y-43650D01*
X29500Y-41510D01*
X29500Y-41092D01*
X29340Y-40706D01*
X29045Y-40410D01*
X28660Y-40250D01*
X28242Y-40250D01*
X27856Y-40410D01*
X27560Y-40705D01*
X27400Y-41090D01*
X27400Y-41508D01*
X27560Y-41894D01*
X27855Y-42190D01*
X28240Y-42350D01*
X28658Y-42350D01*
X29044Y-42190D01*
X29340Y-41895D01*
X29500Y-41510D01*
X29500Y-43650D01*
X26950Y-43650D01*
X26950Y-07750D01*
X61600Y-07750D01*
X61600Y-43650D01*
M02*
