M48
;DRILL file {Pcbnew (2013-june-11)-stable} date mar 07 oct 2014 09:39:01 ART
;FORMAT={-:-/ absolute / metric / decimal}
FMAT,2
METRIC,TZ
T1C0.635
T2C0.813
T3C1.016
T4C1.143
T5C1.199
T6C1.524
T7C2.301
T8C3.048
%
G90
G05
M71
T1
X140.487Y-111.658
X157.709Y-86.39
X160.274Y-111.709
X162.57Y-86.446
T2
X100.33Y-63.754
X100.33Y-72.644
X100.33Y-81.534
X100.33Y-90.424
X100.33Y-99.314
X100.33Y-108.204
X100.33Y-117.094
X100.33Y-125.984
X101.473Y-133.02
X102.87Y-63.754
X102.87Y-72.644
X102.87Y-81.534
X102.87Y-90.424
X102.87Y-99.314
X102.87Y-108.204
X102.87Y-117.094
X102.87Y-125.984
X104.013Y-133.02
X106.934Y-112.446
X107.315Y-131.166
X107.315Y-138.786
X107.417Y-117.241
X107.417Y-127.401
X109.474Y-112.446
X110.043Y-116.571
X110.043Y-126.731
X111.125Y-70.739
X111.125Y-80.899
X112.395Y-131.166
X112.395Y-138.786
X113.665Y-70.739
X113.665Y-80.899
X114.036Y-104.724
X114.036Y-119.964
X114.046Y-87.376
X114.061Y-101.559
X114.071Y-90.602
X114.071Y-98.222
X116.205Y-68.199
X116.205Y-78.359
X116.51Y-128.615
X116.576Y-104.724
X116.576Y-119.964
X116.586Y-87.376
X116.586Y-122.936
X116.586Y-125.781
X116.601Y-101.559
X116.611Y-90.602
X116.611Y-98.222
X118.745Y-68.199
X118.745Y-78.359
X119.05Y-128.615
X119.116Y-104.724
X119.116Y-119.964
X119.126Y-87.376
X119.126Y-122.936
X119.126Y-125.781
X119.141Y-101.559
X119.151Y-90.602
X119.151Y-98.222
X120.02Y-108.453
X120.02Y-116.073
X121.285Y-68.199
X121.285Y-78.359
X121.59Y-128.615
X121.656Y-104.724
X121.656Y-119.964
X121.666Y-87.376
X121.666Y-122.936
X121.666Y-125.781
X121.681Y-101.559
X121.691Y-90.602
X121.691Y-98.222
X122.56Y-108.453
X122.56Y-116.073
X123.825Y-68.199
X123.825Y-78.359
X124.13Y-128.615
X124.196Y-104.724
X124.196Y-119.964
X124.206Y-87.376
X124.206Y-122.936
X124.206Y-125.781
X124.221Y-101.559
X124.231Y-90.602
X124.231Y-98.222
X125.1Y-108.453
X125.1Y-116.073
X126.365Y-68.199
X126.365Y-78.359
X126.67Y-128.615
X126.736Y-104.724
X126.736Y-119.964
X126.746Y-87.376
X126.746Y-122.936
X126.746Y-125.781
X126.761Y-101.559
X126.771Y-90.602
X126.771Y-98.222
X127.64Y-108.453
X127.64Y-116.073
X127.762Y-94.488
X128.905Y-68.199
X128.905Y-78.359
X129.21Y-128.615
X129.276Y-104.724
X129.276Y-119.964
X129.286Y-87.376
X129.286Y-122.936
X129.286Y-125.781
X129.301Y-101.559
X129.311Y-90.602
X129.311Y-98.222
X130.18Y-108.453
X130.18Y-116.073
X130.302Y-94.488
X131.75Y-128.615
X131.816Y-104.724
X131.816Y-119.964
X131.826Y-87.376
X131.826Y-122.936
X131.826Y-125.781
X131.841Y-101.559
X131.851Y-90.602
X131.851Y-98.222
X132.72Y-108.453
X132.72Y-116.073
X134.29Y-128.615
X134.356Y-104.724
X134.356Y-119.964
X134.366Y-122.936
X134.366Y-125.781
X134.391Y-90.602
X134.391Y-98.222
X134.722Y-76.556
X134.722Y-84.176
X135.26Y-108.453
X135.26Y-116.073
X136.896Y-104.724
X136.896Y-119.964
X137.262Y-76.556
X137.262Y-84.176
X137.655Y-125.514
X137.655Y-135.674
X137.8Y-108.453
X137.8Y-116.073
X138.608Y-80.188
X138.877Y-91.156
X138.877Y-93.696
X139.344Y-100.482
X139.436Y-104.724
X139.436Y-119.964
X139.802Y-76.556
X139.802Y-84.176
X139.802Y-122.911
X140.34Y-108.453
X140.34Y-116.073
X141.148Y-80.188
X141.884Y-100.482
X141.976Y-104.724
X141.976Y-119.964
X142.342Y-76.556
X142.342Y-84.176
X142.342Y-122.911
X142.88Y-108.453
X142.88Y-116.073
X144.424Y-100.482
X144.516Y-104.724
X144.516Y-119.964
X144.882Y-76.556
X144.882Y-84.176
X145.034Y-131.826
X145.034Y-134.366
X145.42Y-108.453
X145.42Y-116.073
X146.964Y-100.482
X147.056Y-104.724
X147.056Y-119.964
X147.422Y-76.556
X147.422Y-84.176
X147.96Y-108.453
X147.96Y-116.073
X149.479Y-131.826
X149.479Y-134.366
X149.596Y-104.724
X149.596Y-119.964
X149.962Y-76.556
X149.962Y-84.176
X150.5Y-108.453
X150.5Y-116.073
X152.136Y-104.724
X152.136Y-119.964
X152.502Y-76.556
X152.502Y-84.176
X153.04Y-108.453
X153.04Y-116.073
X154.676Y-104.724
X154.676Y-119.964
X155.473Y-124.155
X155.473Y-126.695
X156.972Y-80.239
X156.972Y-82.779
X157.216Y-104.724
X157.216Y-119.964
X158.496Y-96.342
X159.639Y-93.332
X159.756Y-104.724
X159.756Y-119.964
X159.817Y-100.736
X159.842Y-123.596
X162.296Y-104.724
X162.296Y-119.964
X162.357Y-100.736
X162.382Y-123.596
X162.814Y-90.856
X165.049Y-87.325
X165.76Y-122.53
X166.7Y-81.813
X166.7Y-84.353
X167.081Y-134.48
X167.081Y-137.02
X167.132Y-125.73
X167.132Y-128.27
X167.869Y-131.013
X168.656Y-96.342
X168.935Y-111.328
X168.935Y-113.868
X169.799Y-93.332
X170.434Y-90.856
X170.434Y-126.492
X170.934Y-111.328
X170.934Y-113.868
X172.136Y-82.931
X172.974Y-126.492
X173.672Y-91.3
X173.672Y-93.84
X174.587Y-134.404
X174.587Y-136.944
X174.676Y-82.931
X175.209Y-87.325
X175.92Y-122.53
X176.962Y-102.133
X177.292Y-96.266
X177.584Y-126.124
X178.029Y-131.013
X179.502Y-102.133
X179.832Y-96.266
X180.124Y-126.124
X180.124Y-128.664
X182.042Y-102.133
X182.372Y-96.266
T3
X151.384Y-88.392
X151.384Y-90.932
X151.384Y-93.472
X153.289Y-129.921
X153.289Y-132.461
X153.289Y-135.001
X153.924Y-88.392
X153.924Y-90.932
X153.924Y-93.472
X155.829Y-129.921
X155.829Y-132.461
X155.829Y-135.001
X158.369Y-129.921
X158.369Y-132.461
X158.369Y-135.001
X169.108Y-99.385
X169.108Y-101.925
X169.108Y-104.465
T4
X156.705Y-72.288
X156.705Y-74.828
X156.705Y-77.368
T5
X144.142Y-127.279
X149.024Y-127.279
T6
X117.094Y-136.906
X122.174Y-136.906
X127.254Y-136.906
X132.334Y-136.906
X136.284Y-65.011
X141.364Y-65.011
X146.482Y-65.024
X151.562Y-65.024
X157.988Y-65.278
X163.068Y-65.278
X168.148Y-65.278
X173.228Y-65.278
X180.238Y-83.337
X180.238Y-88.417
T7
X173.634Y-118.598
T8
X100.203Y-138.811
X132.842Y-71.501
X173.215Y-74.828
X181.864Y-65.786
X181.864Y-138.176
T0
M30
