G04 (created by PCBNEW (2013-june-11)-stable) date mar 30 sep 2014 13:56:37 ART*
%MOIN*%
G04 Gerber Fmt 3.4, Leading zero omitted, Abs format*
%FSLAX34Y34*%
G01*
G70*
G90*
G04 APERTURE LIST*
%ADD10C,0.005*%
%ADD11C,0.00787402*%
%ADD12C,0.011811*%
G04 APERTURE END LIST*
G54D10*
G54D11*
X55185Y-43835D02*
X55435Y-44085D01*
X55435Y-43835D02*
X55185Y-44085D01*
X61965Y-33887D02*
X62215Y-34137D01*
X62215Y-33887D02*
X61965Y-34137D01*
X62975Y-43855D02*
X63225Y-44105D01*
X63225Y-43855D02*
X62975Y-44105D01*
X63879Y-33909D02*
X64129Y-34159D01*
X64129Y-33909D02*
X63879Y-34159D01*
X39660Y-25100D02*
G75*
G03X39660Y-25100I-160J0D01*
G74*
G01*
X39660Y-28600D02*
G75*
G03X39660Y-28600I-160J0D01*
G74*
G01*
X39660Y-32100D02*
G75*
G03X39660Y-32100I-160J0D01*
G74*
G01*
X39660Y-35600D02*
G75*
G03X39660Y-35600I-160J0D01*
G74*
G01*
X39660Y-39100D02*
G75*
G03X39660Y-39100I-160J0D01*
G74*
G01*
X39660Y-42600D02*
G75*
G03X39660Y-42600I-160J0D01*
G74*
G01*
X39660Y-46100D02*
G75*
G03X39660Y-46100I-160J0D01*
G74*
G01*
X39660Y-49600D02*
G75*
G03X39660Y-49600I-160J0D01*
G74*
G01*
X40110Y-52370D02*
G75*
G03X40110Y-52370I-160J0D01*
G74*
G01*
X40660Y-25100D02*
G75*
G03X40660Y-25100I-160J0D01*
G74*
G01*
X40660Y-28600D02*
G75*
G03X40660Y-28600I-160J0D01*
G74*
G01*
X40660Y-32100D02*
G75*
G03X40660Y-32100I-160J0D01*
G74*
G01*
X40660Y-35600D02*
G75*
G03X40660Y-35600I-160J0D01*
G74*
G01*
X40660Y-39100D02*
G75*
G03X40660Y-39100I-160J0D01*
G74*
G01*
X40660Y-42600D02*
G75*
G03X40660Y-42600I-160J0D01*
G74*
G01*
X40660Y-46100D02*
G75*
G03X40660Y-46100I-160J0D01*
G74*
G01*
X40660Y-49600D02*
G75*
G03X40660Y-49600I-160J0D01*
G74*
G01*
X41110Y-52370D02*
G75*
G03X41110Y-52370I-160J0D01*
G74*
G01*
X42260Y-44270D02*
G75*
G03X42260Y-44270I-160J0D01*
G74*
G01*
X42410Y-51640D02*
G75*
G03X42410Y-51640I-160J0D01*
G74*
G01*
X42410Y-54640D02*
G75*
G03X42410Y-54640I-160J0D01*
G74*
G01*
X42450Y-46158D02*
G75*
G03X42450Y-46158I-160J0D01*
G74*
G01*
X42450Y-50158D02*
G75*
G03X42450Y-50158I-160J0D01*
G74*
G01*
X43260Y-44270D02*
G75*
G03X43260Y-44270I-160J0D01*
G74*
G01*
X43484Y-45894D02*
G75*
G03X43484Y-45894I-160J0D01*
G74*
G01*
X43484Y-49894D02*
G75*
G03X43484Y-49894I-160J0D01*
G74*
G01*
X43910Y-27850D02*
G75*
G03X43910Y-27850I-160J0D01*
G74*
G01*
X43910Y-31850D02*
G75*
G03X43910Y-31850I-160J0D01*
G74*
G01*
X44410Y-51640D02*
G75*
G03X44410Y-51640I-160J0D01*
G74*
G01*
X44410Y-54640D02*
G75*
G03X44410Y-54640I-160J0D01*
G74*
G01*
X44910Y-27850D02*
G75*
G03X44910Y-27850I-160J0D01*
G74*
G01*
X44910Y-31850D02*
G75*
G03X44910Y-31850I-160J0D01*
G74*
G01*
X45056Y-41230D02*
G75*
G03X45056Y-41230I-160J0D01*
G74*
G01*
X45056Y-47230D02*
G75*
G03X45056Y-47230I-160J0D01*
G74*
G01*
X45060Y-34400D02*
G75*
G03X45060Y-34400I-160J0D01*
G74*
G01*
X45066Y-39984D02*
G75*
G03X45066Y-39984I-160J0D01*
G74*
G01*
X45070Y-35670D02*
G75*
G03X45070Y-35670I-160J0D01*
G74*
G01*
X45070Y-38670D02*
G75*
G03X45070Y-38670I-160J0D01*
G74*
G01*
X45910Y-26850D02*
G75*
G03X45910Y-26850I-160J0D01*
G74*
G01*
X45910Y-30850D02*
G75*
G03X45910Y-30850I-160J0D01*
G74*
G01*
X46030Y-50636D02*
G75*
G03X46030Y-50636I-160J0D01*
G74*
G01*
X46056Y-41230D02*
G75*
G03X46056Y-41230I-160J0D01*
G74*
G01*
X46056Y-47230D02*
G75*
G03X46056Y-47230I-160J0D01*
G74*
G01*
X46060Y-34400D02*
G75*
G03X46060Y-34400I-160J0D01*
G74*
G01*
X46060Y-48400D02*
G75*
G03X46060Y-48400I-160J0D01*
G74*
G01*
X46060Y-49520D02*
G75*
G03X46060Y-49520I-160J0D01*
G74*
G01*
X46066Y-39984D02*
G75*
G03X46066Y-39984I-160J0D01*
G74*
G01*
X46070Y-35670D02*
G75*
G03X46070Y-35670I-160J0D01*
G74*
G01*
X46070Y-38670D02*
G75*
G03X46070Y-38670I-160J0D01*
G74*
G01*
X46910Y-26850D02*
G75*
G03X46910Y-26850I-160J0D01*
G74*
G01*
X46910Y-30850D02*
G75*
G03X46910Y-30850I-160J0D01*
G74*
G01*
X47030Y-50636D02*
G75*
G03X47030Y-50636I-160J0D01*
G74*
G01*
X47056Y-41230D02*
G75*
G03X47056Y-41230I-160J0D01*
G74*
G01*
X47056Y-47230D02*
G75*
G03X47056Y-47230I-160J0D01*
G74*
G01*
X47060Y-34400D02*
G75*
G03X47060Y-34400I-160J0D01*
G74*
G01*
X47060Y-48400D02*
G75*
G03X47060Y-48400I-160J0D01*
G74*
G01*
X47060Y-49520D02*
G75*
G03X47060Y-49520I-160J0D01*
G74*
G01*
X47066Y-39984D02*
G75*
G03X47066Y-39984I-160J0D01*
G74*
G01*
X47070Y-35670D02*
G75*
G03X47070Y-35670I-160J0D01*
G74*
G01*
X47070Y-38670D02*
G75*
G03X47070Y-38670I-160J0D01*
G74*
G01*
X47412Y-42698D02*
G75*
G03X47412Y-42698I-160J0D01*
G74*
G01*
X47412Y-45698D02*
G75*
G03X47412Y-45698I-160J0D01*
G74*
G01*
X47910Y-26850D02*
G75*
G03X47910Y-26850I-160J0D01*
G74*
G01*
X47910Y-30850D02*
G75*
G03X47910Y-30850I-160J0D01*
G74*
G01*
X48030Y-50636D02*
G75*
G03X48030Y-50636I-160J0D01*
G74*
G01*
X48056Y-41230D02*
G75*
G03X48056Y-41230I-160J0D01*
G74*
G01*
X48056Y-47230D02*
G75*
G03X48056Y-47230I-160J0D01*
G74*
G01*
X48060Y-34400D02*
G75*
G03X48060Y-34400I-160J0D01*
G74*
G01*
X48060Y-48400D02*
G75*
G03X48060Y-48400I-160J0D01*
G74*
G01*
X48060Y-49520D02*
G75*
G03X48060Y-49520I-160J0D01*
G74*
G01*
X48066Y-39984D02*
G75*
G03X48066Y-39984I-160J0D01*
G74*
G01*
X48070Y-35670D02*
G75*
G03X48070Y-35670I-160J0D01*
G74*
G01*
X48070Y-38670D02*
G75*
G03X48070Y-38670I-160J0D01*
G74*
G01*
X48412Y-42698D02*
G75*
G03X48412Y-42698I-160J0D01*
G74*
G01*
X48412Y-45698D02*
G75*
G03X48412Y-45698I-160J0D01*
G74*
G01*
X48910Y-26850D02*
G75*
G03X48910Y-26850I-160J0D01*
G74*
G01*
X48910Y-30850D02*
G75*
G03X48910Y-30850I-160J0D01*
G74*
G01*
X49030Y-50636D02*
G75*
G03X49030Y-50636I-160J0D01*
G74*
G01*
X49056Y-41230D02*
G75*
G03X49056Y-41230I-160J0D01*
G74*
G01*
X49056Y-47230D02*
G75*
G03X49056Y-47230I-160J0D01*
G74*
G01*
X49060Y-34400D02*
G75*
G03X49060Y-34400I-160J0D01*
G74*
G01*
X49060Y-48400D02*
G75*
G03X49060Y-48400I-160J0D01*
G74*
G01*
X49060Y-49520D02*
G75*
G03X49060Y-49520I-160J0D01*
G74*
G01*
X49066Y-39984D02*
G75*
G03X49066Y-39984I-160J0D01*
G74*
G01*
X49070Y-35670D02*
G75*
G03X49070Y-35670I-160J0D01*
G74*
G01*
X49070Y-38670D02*
G75*
G03X49070Y-38670I-160J0D01*
G74*
G01*
X49412Y-42698D02*
G75*
G03X49412Y-42698I-160J0D01*
G74*
G01*
X49412Y-45698D02*
G75*
G03X49412Y-45698I-160J0D01*
G74*
G01*
X49910Y-26850D02*
G75*
G03X49910Y-26850I-160J0D01*
G74*
G01*
X49910Y-30850D02*
G75*
G03X49910Y-30850I-160J0D01*
G74*
G01*
X50030Y-50636D02*
G75*
G03X50030Y-50636I-160J0D01*
G74*
G01*
X50056Y-41230D02*
G75*
G03X50056Y-41230I-160J0D01*
G74*
G01*
X50056Y-47230D02*
G75*
G03X50056Y-47230I-160J0D01*
G74*
G01*
X50060Y-34400D02*
G75*
G03X50060Y-34400I-160J0D01*
G74*
G01*
X50060Y-48400D02*
G75*
G03X50060Y-48400I-160J0D01*
G74*
G01*
X50060Y-49520D02*
G75*
G03X50060Y-49520I-160J0D01*
G74*
G01*
X50066Y-39984D02*
G75*
G03X50066Y-39984I-160J0D01*
G74*
G01*
X50070Y-35670D02*
G75*
G03X50070Y-35670I-160J0D01*
G74*
G01*
X50070Y-38670D02*
G75*
G03X50070Y-38670I-160J0D01*
G74*
G01*
X50412Y-42698D02*
G75*
G03X50412Y-42698I-160J0D01*
G74*
G01*
X50412Y-45698D02*
G75*
G03X50412Y-45698I-160J0D01*
G74*
G01*
X50910Y-26850D02*
G75*
G03X50910Y-26850I-160J0D01*
G74*
G01*
X50910Y-30850D02*
G75*
G03X50910Y-30850I-160J0D01*
G74*
G01*
X51030Y-50636D02*
G75*
G03X51030Y-50636I-160J0D01*
G74*
G01*
X51056Y-41230D02*
G75*
G03X51056Y-41230I-160J0D01*
G74*
G01*
X51056Y-47230D02*
G75*
G03X51056Y-47230I-160J0D01*
G74*
G01*
X51060Y-34400D02*
G75*
G03X51060Y-34400I-160J0D01*
G74*
G01*
X51060Y-48400D02*
G75*
G03X51060Y-48400I-160J0D01*
G74*
G01*
X51060Y-49520D02*
G75*
G03X51060Y-49520I-160J0D01*
G74*
G01*
X51066Y-39984D02*
G75*
G03X51066Y-39984I-160J0D01*
G74*
G01*
X51070Y-35670D02*
G75*
G03X51070Y-35670I-160J0D01*
G74*
G01*
X51070Y-38670D02*
G75*
G03X51070Y-38670I-160J0D01*
G74*
G01*
X51412Y-42698D02*
G75*
G03X51412Y-42698I-160J0D01*
G74*
G01*
X51412Y-45698D02*
G75*
G03X51412Y-45698I-160J0D01*
G74*
G01*
X51900Y-37190D02*
G75*
G03X51900Y-37190I-160J0D01*
G74*
G01*
X52030Y-50636D02*
G75*
G03X52030Y-50636I-160J0D01*
G74*
G01*
X52056Y-41230D02*
G75*
G03X52056Y-41230I-160J0D01*
G74*
G01*
X52056Y-47230D02*
G75*
G03X52056Y-47230I-160J0D01*
G74*
G01*
X52060Y-34400D02*
G75*
G03X52060Y-34400I-160J0D01*
G74*
G01*
X52060Y-48400D02*
G75*
G03X52060Y-48400I-160J0D01*
G74*
G01*
X52060Y-49520D02*
G75*
G03X52060Y-49520I-160J0D01*
G74*
G01*
X52066Y-39984D02*
G75*
G03X52066Y-39984I-160J0D01*
G74*
G01*
X52070Y-35670D02*
G75*
G03X52070Y-35670I-160J0D01*
G74*
G01*
X52070Y-38670D02*
G75*
G03X52070Y-38670I-160J0D01*
G74*
G01*
X52412Y-42698D02*
G75*
G03X52412Y-42698I-160J0D01*
G74*
G01*
X52412Y-45698D02*
G75*
G03X52412Y-45698I-160J0D01*
G74*
G01*
X52900Y-37190D02*
G75*
G03X52900Y-37190I-160J0D01*
G74*
G01*
X53030Y-50636D02*
G75*
G03X53030Y-50636I-160J0D01*
G74*
G01*
X53056Y-41230D02*
G75*
G03X53056Y-41230I-160J0D01*
G74*
G01*
X53056Y-47230D02*
G75*
G03X53056Y-47230I-160J0D01*
G74*
G01*
X53060Y-48400D02*
G75*
G03X53060Y-48400I-160J0D01*
G74*
G01*
X53060Y-49520D02*
G75*
G03X53060Y-49520I-160J0D01*
G74*
G01*
X53070Y-35670D02*
G75*
G03X53070Y-35670I-160J0D01*
G74*
G01*
X53070Y-38670D02*
G75*
G03X53070Y-38670I-160J0D01*
G74*
G01*
X53200Y-30140D02*
G75*
G03X53200Y-30140I-160J0D01*
G74*
G01*
X53200Y-33140D02*
G75*
G03X53200Y-33140I-160J0D01*
G74*
G01*
X53412Y-42698D02*
G75*
G03X53412Y-42698I-160J0D01*
G74*
G01*
X53412Y-45698D02*
G75*
G03X53412Y-45698I-160J0D01*
G74*
G01*
X54056Y-41230D02*
G75*
G03X54056Y-41230I-160J0D01*
G74*
G01*
X54056Y-47230D02*
G75*
G03X54056Y-47230I-160J0D01*
G74*
G01*
X54200Y-30140D02*
G75*
G03X54200Y-30140I-160J0D01*
G74*
G01*
X54200Y-33140D02*
G75*
G03X54200Y-33140I-160J0D01*
G74*
G01*
X54355Y-49415D02*
G75*
G03X54355Y-49415I-160J0D01*
G74*
G01*
X54355Y-53415D02*
G75*
G03X54355Y-53415I-160J0D01*
G74*
G01*
X54412Y-42698D02*
G75*
G03X54412Y-42698I-160J0D01*
G74*
G01*
X54412Y-45698D02*
G75*
G03X54412Y-45698I-160J0D01*
G74*
G01*
X54730Y-31570D02*
G75*
G03X54730Y-31570I-160J0D01*
G74*
G01*
X54836Y-35888D02*
G75*
G03X54836Y-35888I-160J0D01*
G74*
G01*
X54836Y-36888D02*
G75*
G03X54836Y-36888I-160J0D01*
G74*
G01*
X55020Y-39560D02*
G75*
G03X55020Y-39560I-160J0D01*
G74*
G01*
X55056Y-41230D02*
G75*
G03X55056Y-41230I-160J0D01*
G74*
G01*
X55056Y-47230D02*
G75*
G03X55056Y-47230I-160J0D01*
G74*
G01*
X55200Y-30140D02*
G75*
G03X55200Y-30140I-160J0D01*
G74*
G01*
X55200Y-33140D02*
G75*
G03X55200Y-33140I-160J0D01*
G74*
G01*
X55200Y-48390D02*
G75*
G03X55200Y-48390I-160J0D01*
G74*
G01*
X55412Y-42698D02*
G75*
G03X55412Y-42698I-160J0D01*
G74*
G01*
X55412Y-45698D02*
G75*
G03X55412Y-45698I-160J0D01*
G74*
G01*
X55730Y-31570D02*
G75*
G03X55730Y-31570I-160J0D01*
G74*
G01*
X56020Y-39560D02*
G75*
G03X56020Y-39560I-160J0D01*
G74*
G01*
X56056Y-41230D02*
G75*
G03X56056Y-41230I-160J0D01*
G74*
G01*
X56056Y-47230D02*
G75*
G03X56056Y-47230I-160J0D01*
G74*
G01*
X56200Y-30140D02*
G75*
G03X56200Y-30140I-160J0D01*
G74*
G01*
X56200Y-33140D02*
G75*
G03X56200Y-33140I-160J0D01*
G74*
G01*
X56200Y-48390D02*
G75*
G03X56200Y-48390I-160J0D01*
G74*
G01*
X56412Y-42698D02*
G75*
G03X56412Y-42698I-160J0D01*
G74*
G01*
X56412Y-45698D02*
G75*
G03X56412Y-45698I-160J0D01*
G74*
G01*
X57020Y-39560D02*
G75*
G03X57020Y-39560I-160J0D01*
G74*
G01*
X57056Y-41230D02*
G75*
G03X57056Y-41230I-160J0D01*
G74*
G01*
X57056Y-47230D02*
G75*
G03X57056Y-47230I-160J0D01*
G74*
G01*
X57200Y-30140D02*
G75*
G03X57200Y-30140I-160J0D01*
G74*
G01*
X57200Y-33140D02*
G75*
G03X57200Y-33140I-160J0D01*
G74*
G01*
X57260Y-51900D02*
G75*
G03X57260Y-51900I-160J0D01*
G74*
G01*
X57260Y-52900D02*
G75*
G03X57260Y-52900I-160J0D01*
G74*
G01*
X57412Y-42698D02*
G75*
G03X57412Y-42698I-160J0D01*
G74*
G01*
X57412Y-45698D02*
G75*
G03X57412Y-45698I-160J0D01*
G74*
G01*
X58020Y-39560D02*
G75*
G03X58020Y-39560I-160J0D01*
G74*
G01*
X58056Y-41230D02*
G75*
G03X58056Y-41230I-160J0D01*
G74*
G01*
X58056Y-47230D02*
G75*
G03X58056Y-47230I-160J0D01*
G74*
G01*
X58200Y-30140D02*
G75*
G03X58200Y-30140I-160J0D01*
G74*
G01*
X58200Y-33140D02*
G75*
G03X58200Y-33140I-160J0D01*
G74*
G01*
X58412Y-42698D02*
G75*
G03X58412Y-42698I-160J0D01*
G74*
G01*
X58412Y-45698D02*
G75*
G03X58412Y-45698I-160J0D01*
G74*
G01*
X59010Y-51900D02*
G75*
G03X59010Y-51900I-160J0D01*
G74*
G01*
X59010Y-52900D02*
G75*
G03X59010Y-52900I-160J0D01*
G74*
G01*
X59056Y-41230D02*
G75*
G03X59056Y-41230I-160J0D01*
G74*
G01*
X59056Y-47230D02*
G75*
G03X59056Y-47230I-160J0D01*
G74*
G01*
X59200Y-30140D02*
G75*
G03X59200Y-30140I-160J0D01*
G74*
G01*
X59200Y-33140D02*
G75*
G03X59200Y-33140I-160J0D01*
G74*
G01*
X59412Y-42698D02*
G75*
G03X59412Y-42698I-160J0D01*
G74*
G01*
X59412Y-45698D02*
G75*
G03X59412Y-45698I-160J0D01*
G74*
G01*
X60056Y-41230D02*
G75*
G03X60056Y-41230I-160J0D01*
G74*
G01*
X60056Y-47230D02*
G75*
G03X60056Y-47230I-160J0D01*
G74*
G01*
X60200Y-30140D02*
G75*
G03X60200Y-30140I-160J0D01*
G74*
G01*
X60200Y-33140D02*
G75*
G03X60200Y-33140I-160J0D01*
G74*
G01*
X60412Y-42698D02*
G75*
G03X60412Y-42698I-160J0D01*
G74*
G01*
X60412Y-45698D02*
G75*
G03X60412Y-45698I-160J0D01*
G74*
G01*
X61056Y-41230D02*
G75*
G03X61056Y-41230I-160J0D01*
G74*
G01*
X61056Y-47230D02*
G75*
G03X61056Y-47230I-160J0D01*
G74*
G01*
X61370Y-48880D02*
G75*
G03X61370Y-48880I-160J0D01*
G74*
G01*
X61370Y-49880D02*
G75*
G03X61370Y-49880I-160J0D01*
G74*
G01*
X61960Y-31590D02*
G75*
G03X61960Y-31590I-160J0D01*
G74*
G01*
X61960Y-32590D02*
G75*
G03X61960Y-32590I-160J0D01*
G74*
G01*
X62056Y-41230D02*
G75*
G03X62056Y-41230I-160J0D01*
G74*
G01*
X62056Y-47230D02*
G75*
G03X62056Y-47230I-160J0D01*
G74*
G01*
X62560Y-37930D02*
G75*
G03X62560Y-37930I-160J0D01*
G74*
G01*
X63010Y-36745D02*
G75*
G03X63010Y-36745I-160J0D01*
G74*
G01*
X63056Y-41230D02*
G75*
G03X63056Y-41230I-160J0D01*
G74*
G01*
X63056Y-47230D02*
G75*
G03X63056Y-47230I-160J0D01*
G74*
G01*
X63080Y-39660D02*
G75*
G03X63080Y-39660I-160J0D01*
G74*
G01*
X63090Y-48660D02*
G75*
G03X63090Y-48660I-160J0D01*
G74*
G01*
X64056Y-41230D02*
G75*
G03X64056Y-41230I-160J0D01*
G74*
G01*
X64056Y-47230D02*
G75*
G03X64056Y-47230I-160J0D01*
G74*
G01*
X64080Y-39660D02*
G75*
G03X64080Y-39660I-160J0D01*
G74*
G01*
X64090Y-48660D02*
G75*
G03X64090Y-48660I-160J0D01*
G74*
G01*
X64260Y-35770D02*
G75*
G03X64260Y-35770I-160J0D01*
G74*
G01*
X65140Y-34380D02*
G75*
G03X65140Y-34380I-160J0D01*
G74*
G01*
X65420Y-48240D02*
G75*
G03X65420Y-48240I-160J0D01*
G74*
G01*
X65790Y-32210D02*
G75*
G03X65790Y-32210I-160J0D01*
G74*
G01*
X65790Y-33210D02*
G75*
G03X65790Y-33210I-160J0D01*
G74*
G01*
X65940Y-52945D02*
G75*
G03X65940Y-52945I-160J0D01*
G74*
G01*
X65940Y-53945D02*
G75*
G03X65940Y-53945I-160J0D01*
G74*
G01*
X65960Y-49500D02*
G75*
G03X65960Y-49500I-160J0D01*
G74*
G01*
X65960Y-50500D02*
G75*
G03X65960Y-50500I-160J0D01*
G74*
G01*
X66250Y-51580D02*
G75*
G03X66250Y-51580I-160J0D01*
G74*
G01*
X66560Y-37930D02*
G75*
G03X66560Y-37930I-160J0D01*
G74*
G01*
X66670Y-43830D02*
G75*
G03X66670Y-43830I-160J0D01*
G74*
G01*
X66670Y-44830D02*
G75*
G03X66670Y-44830I-160J0D01*
G74*
G01*
X67010Y-36745D02*
G75*
G03X67010Y-36745I-160J0D01*
G74*
G01*
X67260Y-35770D02*
G75*
G03X67260Y-35770I-160J0D01*
G74*
G01*
X67260Y-49800D02*
G75*
G03X67260Y-49800I-160J0D01*
G74*
G01*
X67457Y-43830D02*
G75*
G03X67457Y-43830I-160J0D01*
G74*
G01*
X67457Y-44830D02*
G75*
G03X67457Y-44830I-160J0D01*
G74*
G01*
X67930Y-32650D02*
G75*
G03X67930Y-32650I-160J0D01*
G74*
G01*
X68260Y-49800D02*
G75*
G03X68260Y-49800I-160J0D01*
G74*
G01*
X68535Y-35945D02*
G75*
G03X68535Y-35945I-160J0D01*
G74*
G01*
X68535Y-36945D02*
G75*
G03X68535Y-36945I-160J0D01*
G74*
G01*
X68895Y-52915D02*
G75*
G03X68895Y-52915I-160J0D01*
G74*
G01*
X68895Y-53915D02*
G75*
G03X68895Y-53915I-160J0D01*
G74*
G01*
X68930Y-32650D02*
G75*
G03X68930Y-32650I-160J0D01*
G74*
G01*
X69140Y-34380D02*
G75*
G03X69140Y-34380I-160J0D01*
G74*
G01*
X69420Y-48240D02*
G75*
G03X69420Y-48240I-160J0D01*
G74*
G01*
X69830Y-40210D02*
G75*
G03X69830Y-40210I-160J0D01*
G74*
G01*
X69960Y-37900D02*
G75*
G03X69960Y-37900I-160J0D01*
G74*
G01*
X70075Y-49655D02*
G75*
G03X70075Y-49655I-160J0D01*
G74*
G01*
X70250Y-51580D02*
G75*
G03X70250Y-51580I-160J0D01*
G74*
G01*
X70830Y-40210D02*
G75*
G03X70830Y-40210I-160J0D01*
G74*
G01*
X70960Y-37900D02*
G75*
G03X70960Y-37900I-160J0D01*
G74*
G01*
X71075Y-49655D02*
G75*
G03X71075Y-49655I-160J0D01*
G74*
G01*
X71075Y-50655D02*
G75*
G03X71075Y-50655I-160J0D01*
G74*
G01*
X71830Y-40210D02*
G75*
G03X71830Y-40210I-160J0D01*
G74*
G01*
X71960Y-37900D02*
G75*
G03X71960Y-37900I-160J0D01*
G74*
G01*
X59600Y-34600D02*
X59600Y-35000D01*
X59400Y-34800D02*
X59800Y-34800D01*
X59600Y-35600D02*
X59600Y-36000D01*
X59400Y-35800D02*
X59800Y-35800D01*
X59600Y-36600D02*
X59600Y-37000D01*
X59400Y-36800D02*
X59800Y-36800D01*
X60350Y-50950D02*
X60350Y-51350D01*
X60150Y-51150D02*
X60550Y-51150D01*
X60350Y-51950D02*
X60350Y-52350D01*
X60150Y-52150D02*
X60550Y-52150D01*
X60350Y-52950D02*
X60350Y-53350D01*
X60150Y-53150D02*
X60550Y-53150D01*
X60600Y-34600D02*
X60600Y-35000D01*
X60400Y-34800D02*
X60800Y-34800D01*
X60600Y-35600D02*
X60600Y-36000D01*
X60400Y-35800D02*
X60800Y-35800D01*
X60600Y-36600D02*
X60600Y-37000D01*
X60400Y-36800D02*
X60800Y-36800D01*
X61350Y-50950D02*
X61350Y-51350D01*
X61150Y-51150D02*
X61550Y-51150D01*
X61350Y-51950D02*
X61350Y-52350D01*
X61150Y-52150D02*
X61550Y-52150D01*
X61350Y-52950D02*
X61350Y-53350D01*
X61150Y-53150D02*
X61550Y-53150D01*
X62350Y-50950D02*
X62350Y-51350D01*
X62150Y-51150D02*
X62550Y-51150D01*
X62350Y-51950D02*
X62350Y-52350D01*
X62150Y-52150D02*
X62550Y-52150D01*
X62350Y-52950D02*
X62350Y-53350D01*
X62150Y-53150D02*
X62550Y-53150D01*
X66578Y-38928D02*
X66578Y-39328D01*
X66378Y-39128D02*
X66778Y-39128D01*
X66578Y-39928D02*
X66578Y-40328D01*
X66378Y-40128D02*
X66778Y-40128D01*
X66578Y-40928D02*
X66578Y-41328D01*
X66378Y-41128D02*
X66778Y-41128D01*
X61854Y-28619D02*
X61854Y-28300D01*
X61535Y-28300D01*
X61535Y-28619D01*
X61854Y-28619D01*
X61854Y-29619D02*
X61854Y-29300D01*
X61535Y-29300D01*
X61535Y-29619D01*
X61854Y-29619D01*
X61854Y-30619D02*
X61854Y-30300D01*
X61535Y-30300D01*
X61535Y-30619D01*
X61854Y-30619D01*
X56749Y-50346D02*
X56985Y-50110D01*
X56749Y-49874D01*
X56513Y-50110D01*
X56749Y-50346D01*
X58671Y-50346D02*
X58907Y-50110D01*
X58671Y-49874D01*
X58435Y-50110D01*
X58671Y-50346D01*
X45800Y-53600D02*
X46400Y-54200D01*
X46400Y-53600D02*
X45800Y-54200D01*
X46400Y-53900D02*
G75*
G03X46400Y-53900I-300J0D01*
G74*
G01*
X47800Y-53600D02*
X48400Y-54200D01*
X48400Y-53600D02*
X47800Y-54200D01*
X48400Y-53900D02*
G75*
G03X48400Y-53900I-300J0D01*
G74*
G01*
X49800Y-53600D02*
X50400Y-54200D01*
X50400Y-53600D02*
X49800Y-54200D01*
X50400Y-53900D02*
G75*
G03X50400Y-53900I-300J0D01*
G74*
G01*
X51800Y-53600D02*
X52400Y-54200D01*
X52400Y-53600D02*
X51800Y-54200D01*
X52400Y-53900D02*
G75*
G03X52400Y-53900I-300J0D01*
G74*
G01*
X53355Y-25295D02*
X53955Y-25895D01*
X53955Y-25295D02*
X53355Y-25895D01*
X53955Y-25595D02*
G75*
G03X53955Y-25595I-300J0D01*
G74*
G01*
X55355Y-25295D02*
X55955Y-25895D01*
X55955Y-25295D02*
X55355Y-25895D01*
X55955Y-25595D02*
G75*
G03X55955Y-25595I-300J0D01*
G74*
G01*
X57370Y-25300D02*
X57970Y-25900D01*
X57970Y-25300D02*
X57370Y-25900D01*
X57970Y-25600D02*
G75*
G03X57970Y-25600I-300J0D01*
G74*
G01*
X59370Y-25300D02*
X59970Y-25900D01*
X59970Y-25300D02*
X59370Y-25900D01*
X59970Y-25600D02*
G75*
G03X59970Y-25600I-300J0D01*
G74*
G01*
X61900Y-25400D02*
X62500Y-26000D01*
X62500Y-25400D02*
X61900Y-26000D01*
X62500Y-25700D02*
G75*
G03X62500Y-25700I-300J0D01*
G74*
G01*
X63900Y-25400D02*
X64500Y-26000D01*
X64500Y-25400D02*
X63900Y-26000D01*
X64500Y-25700D02*
G75*
G03X64500Y-25700I-300J0D01*
G74*
G01*
X65900Y-25400D02*
X66500Y-26000D01*
X66500Y-25400D02*
X65900Y-26000D01*
X66500Y-25700D02*
G75*
G03X66500Y-25700I-300J0D01*
G74*
G01*
X67900Y-25400D02*
X68500Y-26000D01*
X68500Y-25400D02*
X67900Y-26000D01*
X68500Y-25700D02*
G75*
G03X68500Y-25700I-300J0D01*
G74*
G01*
X70660Y-32510D02*
X71260Y-33110D01*
X71260Y-32510D02*
X70660Y-33110D01*
X71260Y-32810D02*
G75*
G03X71260Y-32810I-300J0D01*
G74*
G01*
X70660Y-34510D02*
X71260Y-35110D01*
X71260Y-34510D02*
X70660Y-35110D01*
X71260Y-34810D02*
G75*
G03X71260Y-34810I-300J0D01*
G74*
G01*
X67907Y-46239D02*
X68813Y-47145D01*
X68813Y-46239D02*
X67907Y-47145D01*
X68360Y-46239D02*
X68360Y-47145D01*
X67907Y-46692D02*
X68813Y-46692D01*
X38850Y-54050D02*
X40050Y-55250D01*
X40050Y-54050D02*
X38850Y-55250D01*
X39874Y-55074D02*
X39874Y-54225D01*
X39025Y-54225D01*
X39025Y-55074D01*
X39874Y-55074D01*
X51700Y-27550D02*
X52900Y-28750D01*
X52900Y-27550D02*
X51700Y-28750D01*
X52724Y-28574D02*
X52724Y-27725D01*
X51875Y-27725D01*
X51875Y-28574D01*
X52724Y-28574D01*
X67595Y-28860D02*
X68795Y-30060D01*
X68795Y-28860D02*
X67595Y-30060D01*
X68619Y-29884D02*
X68619Y-29035D01*
X67770Y-29035D01*
X67770Y-29884D01*
X68619Y-29884D01*
X71000Y-25300D02*
X72200Y-26500D01*
X72200Y-25300D02*
X71000Y-26500D01*
X72024Y-26324D02*
X72024Y-25475D01*
X71175Y-25475D01*
X71175Y-26324D01*
X72024Y-26324D01*
X71000Y-53800D02*
X72200Y-55000D01*
X72200Y-53800D02*
X71000Y-55000D01*
X72024Y-54824D02*
X72024Y-53975D01*
X71175Y-53975D01*
X71175Y-54824D01*
X72024Y-54824D01*
G54D12*
X1068Y-1777D02*
X1068Y-596D01*
X1349Y-596D01*
X1518Y-652D01*
X1631Y-764D01*
X1687Y-877D01*
X1743Y-1102D01*
X1743Y-1271D01*
X1687Y-1496D01*
X1631Y-1608D01*
X1518Y-1721D01*
X1349Y-1777D01*
X1068Y-1777D01*
X2249Y-1777D02*
X2249Y-989D01*
X2249Y-1214D02*
X2305Y-1102D01*
X2362Y-1046D01*
X2474Y-989D01*
X2587Y-989D01*
X2980Y-1777D02*
X2980Y-989D01*
X2980Y-596D02*
X2924Y-652D01*
X2980Y-708D01*
X3037Y-652D01*
X2980Y-596D01*
X2980Y-708D01*
X3712Y-1777D02*
X3599Y-1721D01*
X3543Y-1608D01*
X3543Y-596D01*
X4330Y-1777D02*
X4218Y-1721D01*
X4161Y-1608D01*
X4161Y-596D01*
X5680Y-1777D02*
X5680Y-596D01*
X6074Y-1439D01*
X6467Y-596D01*
X6467Y-1777D01*
X7536Y-1777D02*
X7536Y-1158D01*
X7480Y-1046D01*
X7367Y-989D01*
X7142Y-989D01*
X7030Y-1046D01*
X7536Y-1721D02*
X7424Y-1777D01*
X7142Y-1777D01*
X7030Y-1721D01*
X6974Y-1608D01*
X6974Y-1496D01*
X7030Y-1383D01*
X7142Y-1327D01*
X7424Y-1327D01*
X7536Y-1271D01*
X8098Y-989D02*
X8098Y-2170D01*
X8098Y-1046D02*
X8211Y-989D01*
X8436Y-989D01*
X8548Y-1046D01*
X8605Y-1102D01*
X8661Y-1214D01*
X8661Y-1552D01*
X8605Y-1664D01*
X8548Y-1721D01*
X8436Y-1777D01*
X8211Y-1777D01*
X8098Y-1721D01*
X9167Y-1664D02*
X9223Y-1721D01*
X9167Y-1777D01*
X9111Y-1721D01*
X9167Y-1664D01*
X9167Y-1777D01*
X9167Y-1046D02*
X9223Y-1102D01*
X9167Y-1158D01*
X9111Y-1102D01*
X9167Y-1046D01*
X9167Y-1158D01*
X-250Y-3654D02*
X0Y-3904D01*
X0Y-3654D02*
X-250Y-3904D01*
X1293Y-3076D02*
X1406Y-3076D01*
X1518Y-3132D01*
X1574Y-3188D01*
X1631Y-3301D01*
X1687Y-3526D01*
X1687Y-3807D01*
X1631Y-4032D01*
X1574Y-4145D01*
X1518Y-4201D01*
X1406Y-4257D01*
X1293Y-4257D01*
X1181Y-4201D01*
X1124Y-4145D01*
X1068Y-4032D01*
X1012Y-3807D01*
X1012Y-3526D01*
X1068Y-3301D01*
X1124Y-3188D01*
X1181Y-3132D01*
X1293Y-3076D01*
X2193Y-4145D02*
X2249Y-4201D01*
X2193Y-4257D01*
X2137Y-4201D01*
X2193Y-4145D01*
X2193Y-4257D01*
X3262Y-3076D02*
X3037Y-3076D01*
X2924Y-3132D01*
X2868Y-3188D01*
X2755Y-3357D01*
X2699Y-3582D01*
X2699Y-4032D01*
X2755Y-4145D01*
X2812Y-4201D01*
X2924Y-4257D01*
X3149Y-4257D01*
X3262Y-4201D01*
X3318Y-4145D01*
X3374Y-4032D01*
X3374Y-3751D01*
X3318Y-3638D01*
X3262Y-3582D01*
X3149Y-3526D01*
X2924Y-3526D01*
X2812Y-3582D01*
X2755Y-3638D01*
X2699Y-3751D01*
X4386Y-3470D02*
X4386Y-4257D01*
X4105Y-3020D02*
X3824Y-3863D01*
X4555Y-3863D01*
X5005Y-4257D02*
X5005Y-3470D01*
X5005Y-3582D02*
X5061Y-3526D01*
X5174Y-3470D01*
X5343Y-3470D01*
X5455Y-3526D01*
X5511Y-3638D01*
X5511Y-4257D01*
X5511Y-3638D02*
X5568Y-3526D01*
X5680Y-3470D01*
X5849Y-3470D01*
X5961Y-3526D01*
X6017Y-3638D01*
X6017Y-4257D01*
X6580Y-4257D02*
X6580Y-3470D01*
X6580Y-3582D02*
X6636Y-3526D01*
X6749Y-3470D01*
X6917Y-3470D01*
X7030Y-3526D01*
X7086Y-3638D01*
X7086Y-4257D01*
X7086Y-3638D02*
X7142Y-3526D01*
X7255Y-3470D01*
X7424Y-3470D01*
X7536Y-3526D01*
X7592Y-3638D01*
X7592Y-4257D01*
X9898Y-3020D02*
X8886Y-4538D01*
X11417Y-3076D02*
X11529Y-3076D01*
X11642Y-3132D01*
X11698Y-3188D01*
X11754Y-3301D01*
X11811Y-3526D01*
X11811Y-3807D01*
X11754Y-4032D01*
X11698Y-4145D01*
X11642Y-4201D01*
X11529Y-4257D01*
X11417Y-4257D01*
X11304Y-4201D01*
X11248Y-4145D01*
X11192Y-4032D01*
X11136Y-3807D01*
X11136Y-3526D01*
X11192Y-3301D01*
X11248Y-3188D01*
X11304Y-3132D01*
X11417Y-3076D01*
X12317Y-4145D02*
X12373Y-4201D01*
X12317Y-4257D01*
X12260Y-4201D01*
X12317Y-4145D01*
X12317Y-4257D01*
X13104Y-3076D02*
X13217Y-3076D01*
X13329Y-3132D01*
X13385Y-3188D01*
X13442Y-3301D01*
X13498Y-3526D01*
X13498Y-3807D01*
X13442Y-4032D01*
X13385Y-4145D01*
X13329Y-4201D01*
X13217Y-4257D01*
X13104Y-4257D01*
X12992Y-4201D01*
X12935Y-4145D01*
X12879Y-4032D01*
X12823Y-3807D01*
X12823Y-3526D01*
X12879Y-3301D01*
X12935Y-3188D01*
X12992Y-3132D01*
X13104Y-3076D01*
X13948Y-3188D02*
X14004Y-3132D01*
X14116Y-3076D01*
X14398Y-3076D01*
X14510Y-3132D01*
X14566Y-3188D01*
X14623Y-3301D01*
X14623Y-3413D01*
X14566Y-3582D01*
X13892Y-4257D01*
X14623Y-4257D01*
X15691Y-3076D02*
X15129Y-3076D01*
X15073Y-3638D01*
X15129Y-3582D01*
X15241Y-3526D01*
X15523Y-3526D01*
X15635Y-3582D01*
X15691Y-3638D01*
X15748Y-3751D01*
X15748Y-4032D01*
X15691Y-4145D01*
X15635Y-4201D01*
X15523Y-4257D01*
X15241Y-4257D01*
X15129Y-4201D01*
X15073Y-4145D01*
X16197Y-3076D02*
X16197Y-3301D01*
X16647Y-3076D02*
X16647Y-3301D01*
X18391Y-4707D02*
X18335Y-4651D01*
X18222Y-4482D01*
X18166Y-4370D01*
X18110Y-4201D01*
X18053Y-3920D01*
X18053Y-3695D01*
X18110Y-3413D01*
X18166Y-3245D01*
X18222Y-3132D01*
X18335Y-2964D01*
X18391Y-2907D01*
X19347Y-3470D02*
X19347Y-4257D01*
X19066Y-3020D02*
X18785Y-3863D01*
X19516Y-3863D01*
X20866Y-4257D02*
X20866Y-3076D01*
X21372Y-4257D02*
X21372Y-3638D01*
X21316Y-3526D01*
X21203Y-3470D01*
X21034Y-3470D01*
X20922Y-3526D01*
X20866Y-3582D01*
X22103Y-4257D02*
X21991Y-4201D01*
X21934Y-4145D01*
X21878Y-4032D01*
X21878Y-3695D01*
X21934Y-3582D01*
X21991Y-3526D01*
X22103Y-3470D01*
X22272Y-3470D01*
X22384Y-3526D01*
X22440Y-3582D01*
X22497Y-3695D01*
X22497Y-4032D01*
X22440Y-4145D01*
X22384Y-4201D01*
X22272Y-4257D01*
X22103Y-4257D01*
X23172Y-4257D02*
X23059Y-4201D01*
X23003Y-4088D01*
X23003Y-3076D01*
X24071Y-4201D02*
X23959Y-4257D01*
X23734Y-4257D01*
X23622Y-4201D01*
X23565Y-4088D01*
X23565Y-3638D01*
X23622Y-3526D01*
X23734Y-3470D01*
X23959Y-3470D01*
X24071Y-3526D01*
X24128Y-3638D01*
X24128Y-3751D01*
X23565Y-3863D01*
X24578Y-4201D02*
X24690Y-4257D01*
X24915Y-4257D01*
X25028Y-4201D01*
X25084Y-4088D01*
X25084Y-4032D01*
X25028Y-3920D01*
X24915Y-3863D01*
X24746Y-3863D01*
X24634Y-3807D01*
X24578Y-3695D01*
X24578Y-3638D01*
X24634Y-3526D01*
X24746Y-3470D01*
X24915Y-3470D01*
X25028Y-3526D01*
X25478Y-4707D02*
X25534Y-4651D01*
X25646Y-4482D01*
X25703Y-4370D01*
X25759Y-4201D01*
X25815Y-3920D01*
X25815Y-3695D01*
X25759Y-3413D01*
X25703Y-3245D01*
X25646Y-3132D01*
X25534Y-2964D01*
X25478Y-2907D01*
G54D11*
X0Y-5338D02*
G75*
G03X0Y-5338I-160J0D01*
G74*
G01*
G54D12*
X1293Y-4635D02*
X1406Y-4635D01*
X1518Y-4691D01*
X1574Y-4748D01*
X1631Y-4860D01*
X1687Y-5085D01*
X1687Y-5366D01*
X1631Y-5591D01*
X1574Y-5704D01*
X1518Y-5760D01*
X1406Y-5816D01*
X1293Y-5816D01*
X1181Y-5760D01*
X1124Y-5704D01*
X1068Y-5591D01*
X1012Y-5366D01*
X1012Y-5085D01*
X1068Y-4860D01*
X1124Y-4748D01*
X1181Y-4691D01*
X1293Y-4635D01*
X2193Y-5704D02*
X2249Y-5760D01*
X2193Y-5816D01*
X2137Y-5760D01*
X2193Y-5704D01*
X2193Y-5816D01*
X2924Y-5141D02*
X2812Y-5085D01*
X2755Y-5029D01*
X2699Y-4916D01*
X2699Y-4860D01*
X2755Y-4748D01*
X2812Y-4691D01*
X2924Y-4635D01*
X3149Y-4635D01*
X3262Y-4691D01*
X3318Y-4748D01*
X3374Y-4860D01*
X3374Y-4916D01*
X3318Y-5029D01*
X3262Y-5085D01*
X3149Y-5141D01*
X2924Y-5141D01*
X2812Y-5197D01*
X2755Y-5254D01*
X2699Y-5366D01*
X2699Y-5591D01*
X2755Y-5704D01*
X2812Y-5760D01*
X2924Y-5816D01*
X3149Y-5816D01*
X3262Y-5760D01*
X3318Y-5704D01*
X3374Y-5591D01*
X3374Y-5366D01*
X3318Y-5254D01*
X3262Y-5197D01*
X3149Y-5141D01*
X4499Y-5816D02*
X3824Y-5816D01*
X4161Y-5816D02*
X4161Y-4635D01*
X4049Y-4804D01*
X3937Y-4916D01*
X3824Y-4973D01*
X5005Y-5816D02*
X5005Y-5029D01*
X5005Y-5141D02*
X5061Y-5085D01*
X5174Y-5029D01*
X5343Y-5029D01*
X5455Y-5085D01*
X5511Y-5197D01*
X5511Y-5816D01*
X5511Y-5197D02*
X5568Y-5085D01*
X5680Y-5029D01*
X5849Y-5029D01*
X5961Y-5085D01*
X6017Y-5197D01*
X6017Y-5816D01*
X6580Y-5816D02*
X6580Y-5029D01*
X6580Y-5141D02*
X6636Y-5085D01*
X6749Y-5029D01*
X6917Y-5029D01*
X7030Y-5085D01*
X7086Y-5197D01*
X7086Y-5816D01*
X7086Y-5197D02*
X7142Y-5085D01*
X7255Y-5029D01*
X7424Y-5029D01*
X7536Y-5085D01*
X7592Y-5197D01*
X7592Y-5816D01*
X9898Y-4579D02*
X8886Y-6097D01*
X11417Y-4635D02*
X11529Y-4635D01*
X11642Y-4691D01*
X11698Y-4748D01*
X11754Y-4860D01*
X11811Y-5085D01*
X11811Y-5366D01*
X11754Y-5591D01*
X11698Y-5704D01*
X11642Y-5760D01*
X11529Y-5816D01*
X11417Y-5816D01*
X11304Y-5760D01*
X11248Y-5704D01*
X11192Y-5591D01*
X11136Y-5366D01*
X11136Y-5085D01*
X11192Y-4860D01*
X11248Y-4748D01*
X11304Y-4691D01*
X11417Y-4635D01*
X12317Y-5704D02*
X12373Y-5760D01*
X12317Y-5816D01*
X12260Y-5760D01*
X12317Y-5704D01*
X12317Y-5816D01*
X13104Y-4635D02*
X13217Y-4635D01*
X13329Y-4691D01*
X13385Y-4748D01*
X13442Y-4860D01*
X13498Y-5085D01*
X13498Y-5366D01*
X13442Y-5591D01*
X13385Y-5704D01*
X13329Y-5760D01*
X13217Y-5816D01*
X13104Y-5816D01*
X12992Y-5760D01*
X12935Y-5704D01*
X12879Y-5591D01*
X12823Y-5366D01*
X12823Y-5085D01*
X12879Y-4860D01*
X12935Y-4748D01*
X12992Y-4691D01*
X13104Y-4635D01*
X13892Y-4635D02*
X14623Y-4635D01*
X14229Y-5085D01*
X14398Y-5085D01*
X14510Y-5141D01*
X14566Y-5197D01*
X14623Y-5310D01*
X14623Y-5591D01*
X14566Y-5704D01*
X14510Y-5760D01*
X14398Y-5816D01*
X14060Y-5816D01*
X13948Y-5760D01*
X13892Y-5704D01*
X15073Y-4748D02*
X15129Y-4691D01*
X15241Y-4635D01*
X15523Y-4635D01*
X15635Y-4691D01*
X15691Y-4748D01*
X15748Y-4860D01*
X15748Y-4973D01*
X15691Y-5141D01*
X15016Y-5816D01*
X15748Y-5816D01*
X16197Y-4635D02*
X16197Y-4860D01*
X16647Y-4635D02*
X16647Y-4860D01*
X18391Y-6266D02*
X18335Y-6210D01*
X18222Y-6041D01*
X18166Y-5929D01*
X18110Y-5760D01*
X18053Y-5479D01*
X18053Y-5254D01*
X18110Y-4973D01*
X18166Y-4804D01*
X18222Y-4691D01*
X18335Y-4523D01*
X18391Y-4466D01*
X18785Y-4748D02*
X18841Y-4691D01*
X18953Y-4635D01*
X19235Y-4635D01*
X19347Y-4691D01*
X19403Y-4748D01*
X19460Y-4860D01*
X19460Y-4973D01*
X19403Y-5141D01*
X18728Y-5816D01*
X19460Y-5816D01*
X20528Y-4635D02*
X19966Y-4635D01*
X19910Y-5197D01*
X19966Y-5141D01*
X20078Y-5085D01*
X20359Y-5085D01*
X20472Y-5141D01*
X20528Y-5197D01*
X20584Y-5310D01*
X20584Y-5591D01*
X20528Y-5704D01*
X20472Y-5760D01*
X20359Y-5816D01*
X20078Y-5816D01*
X19966Y-5760D01*
X19910Y-5704D01*
X21709Y-5816D02*
X21034Y-5816D01*
X21372Y-5816D02*
X21372Y-4635D01*
X21259Y-4804D01*
X21147Y-4916D01*
X21034Y-4973D01*
X23115Y-5816D02*
X23115Y-4635D01*
X23622Y-5816D02*
X23622Y-5197D01*
X23565Y-5085D01*
X23453Y-5029D01*
X23284Y-5029D01*
X23172Y-5085D01*
X23115Y-5141D01*
X24353Y-5816D02*
X24240Y-5760D01*
X24184Y-5704D01*
X24128Y-5591D01*
X24128Y-5254D01*
X24184Y-5141D01*
X24240Y-5085D01*
X24353Y-5029D01*
X24521Y-5029D01*
X24634Y-5085D01*
X24690Y-5141D01*
X24746Y-5254D01*
X24746Y-5591D01*
X24690Y-5704D01*
X24634Y-5760D01*
X24521Y-5816D01*
X24353Y-5816D01*
X25421Y-5816D02*
X25309Y-5760D01*
X25253Y-5647D01*
X25253Y-4635D01*
X26321Y-5760D02*
X26209Y-5816D01*
X25984Y-5816D01*
X25871Y-5760D01*
X25815Y-5647D01*
X25815Y-5197D01*
X25871Y-5085D01*
X25984Y-5029D01*
X26209Y-5029D01*
X26321Y-5085D01*
X26377Y-5197D01*
X26377Y-5310D01*
X25815Y-5422D01*
X26827Y-5760D02*
X26940Y-5816D01*
X27165Y-5816D01*
X27277Y-5760D01*
X27334Y-5647D01*
X27334Y-5591D01*
X27277Y-5479D01*
X27165Y-5422D01*
X26996Y-5422D01*
X26884Y-5366D01*
X26827Y-5254D01*
X26827Y-5197D01*
X26884Y-5085D01*
X26996Y-5029D01*
X27165Y-5029D01*
X27277Y-5085D01*
X27727Y-6266D02*
X27784Y-6210D01*
X27896Y-6041D01*
X27952Y-5929D01*
X28008Y-5760D01*
X28065Y-5479D01*
X28065Y-5254D01*
X28008Y-4973D01*
X27952Y-4804D01*
X27896Y-4691D01*
X27784Y-4523D01*
X27727Y-4466D01*
X-200Y-6697D02*
X-200Y-7097D01*
X-400Y-6897D02*
X0Y-6897D01*
X1687Y-7375D02*
X1012Y-7375D01*
X1349Y-7375D02*
X1349Y-6194D01*
X1237Y-6363D01*
X1124Y-6475D01*
X1012Y-6532D01*
X2193Y-7263D02*
X2249Y-7319D01*
X2193Y-7375D01*
X2137Y-7319D01*
X2193Y-7263D01*
X2193Y-7375D01*
X2980Y-6194D02*
X3093Y-6194D01*
X3205Y-6250D01*
X3262Y-6307D01*
X3318Y-6419D01*
X3374Y-6644D01*
X3374Y-6925D01*
X3318Y-7150D01*
X3262Y-7263D01*
X3205Y-7319D01*
X3093Y-7375D01*
X2980Y-7375D01*
X2868Y-7319D01*
X2812Y-7263D01*
X2755Y-7150D01*
X2699Y-6925D01*
X2699Y-6644D01*
X2755Y-6419D01*
X2812Y-6307D01*
X2868Y-6250D01*
X2980Y-6194D01*
X3824Y-6307D02*
X3880Y-6250D01*
X3993Y-6194D01*
X4274Y-6194D01*
X4386Y-6250D01*
X4443Y-6307D01*
X4499Y-6419D01*
X4499Y-6532D01*
X4443Y-6700D01*
X3768Y-7375D01*
X4499Y-7375D01*
X5005Y-7375D02*
X5005Y-6588D01*
X5005Y-6700D02*
X5061Y-6644D01*
X5174Y-6588D01*
X5343Y-6588D01*
X5455Y-6644D01*
X5511Y-6757D01*
X5511Y-7375D01*
X5511Y-6757D02*
X5568Y-6644D01*
X5680Y-6588D01*
X5849Y-6588D01*
X5961Y-6644D01*
X6017Y-6757D01*
X6017Y-7375D01*
X6580Y-7375D02*
X6580Y-6588D01*
X6580Y-6700D02*
X6636Y-6644D01*
X6749Y-6588D01*
X6917Y-6588D01*
X7030Y-6644D01*
X7086Y-6757D01*
X7086Y-7375D01*
X7086Y-6757D02*
X7142Y-6644D01*
X7255Y-6588D01*
X7424Y-6588D01*
X7536Y-6644D01*
X7592Y-6757D01*
X7592Y-7375D01*
X9898Y-6138D02*
X8886Y-7656D01*
X11417Y-6194D02*
X11529Y-6194D01*
X11642Y-6250D01*
X11698Y-6307D01*
X11754Y-6419D01*
X11811Y-6644D01*
X11811Y-6925D01*
X11754Y-7150D01*
X11698Y-7263D01*
X11642Y-7319D01*
X11529Y-7375D01*
X11417Y-7375D01*
X11304Y-7319D01*
X11248Y-7263D01*
X11192Y-7150D01*
X11136Y-6925D01*
X11136Y-6644D01*
X11192Y-6419D01*
X11248Y-6307D01*
X11304Y-6250D01*
X11417Y-6194D01*
X12317Y-7263D02*
X12373Y-7319D01*
X12317Y-7375D01*
X12260Y-7319D01*
X12317Y-7263D01*
X12317Y-7375D01*
X13104Y-6194D02*
X13217Y-6194D01*
X13329Y-6250D01*
X13385Y-6307D01*
X13442Y-6419D01*
X13498Y-6644D01*
X13498Y-6925D01*
X13442Y-7150D01*
X13385Y-7263D01*
X13329Y-7319D01*
X13217Y-7375D01*
X13104Y-7375D01*
X12992Y-7319D01*
X12935Y-7263D01*
X12879Y-7150D01*
X12823Y-6925D01*
X12823Y-6644D01*
X12879Y-6419D01*
X12935Y-6307D01*
X12992Y-6250D01*
X13104Y-6194D01*
X14510Y-6588D02*
X14510Y-7375D01*
X14229Y-6138D02*
X13948Y-6982D01*
X14679Y-6982D01*
X15354Y-6194D02*
X15466Y-6194D01*
X15579Y-6250D01*
X15635Y-6307D01*
X15691Y-6419D01*
X15748Y-6644D01*
X15748Y-6925D01*
X15691Y-7150D01*
X15635Y-7263D01*
X15579Y-7319D01*
X15466Y-7375D01*
X15354Y-7375D01*
X15241Y-7319D01*
X15185Y-7263D01*
X15129Y-7150D01*
X15073Y-6925D01*
X15073Y-6644D01*
X15129Y-6419D01*
X15185Y-6307D01*
X15241Y-6250D01*
X15354Y-6194D01*
X16197Y-6194D02*
X16197Y-6419D01*
X16647Y-6194D02*
X16647Y-6419D01*
X18391Y-7825D02*
X18335Y-7769D01*
X18222Y-7600D01*
X18166Y-7488D01*
X18110Y-7319D01*
X18053Y-7038D01*
X18053Y-6813D01*
X18110Y-6532D01*
X18166Y-6363D01*
X18222Y-6250D01*
X18335Y-6082D01*
X18391Y-6025D01*
X19460Y-7375D02*
X18785Y-7375D01*
X19122Y-7375D02*
X19122Y-6194D01*
X19010Y-6363D01*
X18897Y-6475D01*
X18785Y-6532D01*
X20134Y-6700D02*
X20022Y-6644D01*
X19966Y-6588D01*
X19910Y-6475D01*
X19910Y-6419D01*
X19966Y-6307D01*
X20022Y-6250D01*
X20134Y-6194D01*
X20359Y-6194D01*
X20472Y-6250D01*
X20528Y-6307D01*
X20584Y-6419D01*
X20584Y-6475D01*
X20528Y-6588D01*
X20472Y-6644D01*
X20359Y-6700D01*
X20134Y-6700D01*
X20022Y-6757D01*
X19966Y-6813D01*
X19910Y-6925D01*
X19910Y-7150D01*
X19966Y-7263D01*
X20022Y-7319D01*
X20134Y-7375D01*
X20359Y-7375D01*
X20472Y-7319D01*
X20528Y-7263D01*
X20584Y-7150D01*
X20584Y-6925D01*
X20528Y-6813D01*
X20472Y-6757D01*
X20359Y-6700D01*
X21991Y-7375D02*
X21991Y-6194D01*
X22497Y-7375D02*
X22497Y-6757D01*
X22440Y-6644D01*
X22328Y-6588D01*
X22159Y-6588D01*
X22047Y-6644D01*
X21991Y-6700D01*
X23228Y-7375D02*
X23115Y-7319D01*
X23059Y-7263D01*
X23003Y-7150D01*
X23003Y-6813D01*
X23059Y-6700D01*
X23115Y-6644D01*
X23228Y-6588D01*
X23397Y-6588D01*
X23509Y-6644D01*
X23565Y-6700D01*
X23622Y-6813D01*
X23622Y-7150D01*
X23565Y-7263D01*
X23509Y-7319D01*
X23397Y-7375D01*
X23228Y-7375D01*
X24296Y-7375D02*
X24184Y-7319D01*
X24128Y-7206D01*
X24128Y-6194D01*
X25196Y-7319D02*
X25084Y-7375D01*
X24859Y-7375D01*
X24746Y-7319D01*
X24690Y-7206D01*
X24690Y-6757D01*
X24746Y-6644D01*
X24859Y-6588D01*
X25084Y-6588D01*
X25196Y-6644D01*
X25253Y-6757D01*
X25253Y-6869D01*
X24690Y-6982D01*
X25703Y-7319D02*
X25815Y-7375D01*
X26040Y-7375D01*
X26152Y-7319D01*
X26209Y-7206D01*
X26209Y-7150D01*
X26152Y-7038D01*
X26040Y-6982D01*
X25871Y-6982D01*
X25759Y-6925D01*
X25703Y-6813D01*
X25703Y-6757D01*
X25759Y-6644D01*
X25871Y-6588D01*
X26040Y-6588D01*
X26152Y-6644D01*
X26602Y-7825D02*
X26659Y-7769D01*
X26771Y-7600D01*
X26827Y-7488D01*
X26884Y-7319D01*
X26940Y-7038D01*
X26940Y-6813D01*
X26884Y-6532D01*
X26827Y-6363D01*
X26771Y-6250D01*
X26659Y-6082D01*
X26602Y-6025D01*
G54D11*
X-65Y-8615D02*
X-65Y-8297D01*
X-384Y-8297D01*
X-384Y-8615D01*
X-65Y-8615D01*
G54D12*
X1687Y-8934D02*
X1012Y-8934D01*
X1349Y-8934D02*
X1349Y-7753D01*
X1237Y-7922D01*
X1124Y-8034D01*
X1012Y-8091D01*
X2193Y-8822D02*
X2249Y-8878D01*
X2193Y-8934D01*
X2137Y-8878D01*
X2193Y-8822D01*
X2193Y-8934D01*
X3374Y-8934D02*
X2699Y-8934D01*
X3037Y-8934D02*
X3037Y-7753D01*
X2924Y-7922D01*
X2812Y-8034D01*
X2699Y-8091D01*
X4386Y-8147D02*
X4386Y-8934D01*
X4105Y-7697D02*
X3824Y-8541D01*
X4555Y-8541D01*
X5005Y-8934D02*
X5005Y-8147D01*
X5005Y-8259D02*
X5061Y-8203D01*
X5174Y-8147D01*
X5343Y-8147D01*
X5455Y-8203D01*
X5511Y-8316D01*
X5511Y-8934D01*
X5511Y-8316D02*
X5568Y-8203D01*
X5680Y-8147D01*
X5849Y-8147D01*
X5961Y-8203D01*
X6017Y-8316D01*
X6017Y-8934D01*
X6580Y-8934D02*
X6580Y-8147D01*
X6580Y-8259D02*
X6636Y-8203D01*
X6749Y-8147D01*
X6917Y-8147D01*
X7030Y-8203D01*
X7086Y-8316D01*
X7086Y-8934D01*
X7086Y-8316D02*
X7142Y-8203D01*
X7255Y-8147D01*
X7424Y-8147D01*
X7536Y-8203D01*
X7592Y-8316D01*
X7592Y-8934D01*
X9898Y-7697D02*
X8886Y-9215D01*
X11417Y-7753D02*
X11529Y-7753D01*
X11642Y-7809D01*
X11698Y-7866D01*
X11754Y-7978D01*
X11811Y-8203D01*
X11811Y-8484D01*
X11754Y-8709D01*
X11698Y-8822D01*
X11642Y-8878D01*
X11529Y-8934D01*
X11417Y-8934D01*
X11304Y-8878D01*
X11248Y-8822D01*
X11192Y-8709D01*
X11136Y-8484D01*
X11136Y-8203D01*
X11192Y-7978D01*
X11248Y-7866D01*
X11304Y-7809D01*
X11417Y-7753D01*
X12317Y-8822D02*
X12373Y-8878D01*
X12317Y-8934D01*
X12260Y-8878D01*
X12317Y-8822D01*
X12317Y-8934D01*
X13104Y-7753D02*
X13217Y-7753D01*
X13329Y-7809D01*
X13385Y-7866D01*
X13442Y-7978D01*
X13498Y-8203D01*
X13498Y-8484D01*
X13442Y-8709D01*
X13385Y-8822D01*
X13329Y-8878D01*
X13217Y-8934D01*
X13104Y-8934D01*
X12992Y-8878D01*
X12935Y-8822D01*
X12879Y-8709D01*
X12823Y-8484D01*
X12823Y-8203D01*
X12879Y-7978D01*
X12935Y-7866D01*
X12992Y-7809D01*
X13104Y-7753D01*
X14510Y-8147D02*
X14510Y-8934D01*
X14229Y-7697D02*
X13948Y-8541D01*
X14679Y-8541D01*
X15691Y-7753D02*
X15129Y-7753D01*
X15073Y-8316D01*
X15129Y-8259D01*
X15241Y-8203D01*
X15523Y-8203D01*
X15635Y-8259D01*
X15691Y-8316D01*
X15748Y-8428D01*
X15748Y-8709D01*
X15691Y-8822D01*
X15635Y-8878D01*
X15523Y-8934D01*
X15241Y-8934D01*
X15129Y-8878D01*
X15073Y-8822D01*
X16197Y-7753D02*
X16197Y-7978D01*
X16647Y-7753D02*
X16647Y-7978D01*
X18391Y-9384D02*
X18335Y-9328D01*
X18222Y-9159D01*
X18166Y-9047D01*
X18110Y-8878D01*
X18053Y-8597D01*
X18053Y-8372D01*
X18110Y-8091D01*
X18166Y-7922D01*
X18222Y-7809D01*
X18335Y-7641D01*
X18391Y-7584D01*
X18728Y-7753D02*
X19460Y-7753D01*
X19066Y-8203D01*
X19235Y-8203D01*
X19347Y-8259D01*
X19403Y-8316D01*
X19460Y-8428D01*
X19460Y-8709D01*
X19403Y-8822D01*
X19347Y-8878D01*
X19235Y-8934D01*
X18897Y-8934D01*
X18785Y-8878D01*
X18728Y-8822D01*
X20866Y-8934D02*
X20866Y-7753D01*
X21372Y-8934D02*
X21372Y-8316D01*
X21316Y-8203D01*
X21203Y-8147D01*
X21034Y-8147D01*
X20922Y-8203D01*
X20866Y-8259D01*
X22103Y-8934D02*
X21991Y-8878D01*
X21934Y-8822D01*
X21878Y-8709D01*
X21878Y-8372D01*
X21934Y-8259D01*
X21991Y-8203D01*
X22103Y-8147D01*
X22272Y-8147D01*
X22384Y-8203D01*
X22440Y-8259D01*
X22497Y-8372D01*
X22497Y-8709D01*
X22440Y-8822D01*
X22384Y-8878D01*
X22272Y-8934D01*
X22103Y-8934D01*
X23172Y-8934D02*
X23059Y-8878D01*
X23003Y-8766D01*
X23003Y-7753D01*
X24071Y-8878D02*
X23959Y-8934D01*
X23734Y-8934D01*
X23622Y-8878D01*
X23565Y-8766D01*
X23565Y-8316D01*
X23622Y-8203D01*
X23734Y-8147D01*
X23959Y-8147D01*
X24071Y-8203D01*
X24128Y-8316D01*
X24128Y-8428D01*
X23565Y-8541D01*
X24578Y-8878D02*
X24690Y-8934D01*
X24915Y-8934D01*
X25028Y-8878D01*
X25084Y-8766D01*
X25084Y-8709D01*
X25028Y-8597D01*
X24915Y-8541D01*
X24746Y-8541D01*
X24634Y-8484D01*
X24578Y-8372D01*
X24578Y-8316D01*
X24634Y-8203D01*
X24746Y-8147D01*
X24915Y-8147D01*
X25028Y-8203D01*
X25478Y-9384D02*
X25534Y-9328D01*
X25646Y-9159D01*
X25703Y-9047D01*
X25759Y-8878D01*
X25815Y-8597D01*
X25815Y-8372D01*
X25759Y-8091D01*
X25703Y-7922D01*
X25646Y-7809D01*
X25534Y-7641D01*
X25478Y-7584D01*
G54D11*
X-236Y-10251D02*
X0Y-10015D01*
X-236Y-9779D01*
X-472Y-10015D01*
X-236Y-10251D01*
G54D12*
X1687Y-10493D02*
X1012Y-10493D01*
X1349Y-10493D02*
X1349Y-9312D01*
X1237Y-9481D01*
X1124Y-9593D01*
X1012Y-9650D01*
X2193Y-10381D02*
X2249Y-10437D01*
X2193Y-10493D01*
X2137Y-10437D01*
X2193Y-10381D01*
X2193Y-10493D01*
X2699Y-9425D02*
X2755Y-9368D01*
X2868Y-9312D01*
X3149Y-9312D01*
X3262Y-9368D01*
X3318Y-9425D01*
X3374Y-9537D01*
X3374Y-9650D01*
X3318Y-9818D01*
X2643Y-10493D01*
X3374Y-10493D01*
X4105Y-9312D02*
X4218Y-9312D01*
X4330Y-9368D01*
X4386Y-9425D01*
X4443Y-9537D01*
X4499Y-9762D01*
X4499Y-10043D01*
X4443Y-10268D01*
X4386Y-10381D01*
X4330Y-10437D01*
X4218Y-10493D01*
X4105Y-10493D01*
X3993Y-10437D01*
X3937Y-10381D01*
X3880Y-10268D01*
X3824Y-10043D01*
X3824Y-9762D01*
X3880Y-9537D01*
X3937Y-9425D01*
X3993Y-9368D01*
X4105Y-9312D01*
X5005Y-10493D02*
X5005Y-9706D01*
X5005Y-9818D02*
X5061Y-9762D01*
X5174Y-9706D01*
X5343Y-9706D01*
X5455Y-9762D01*
X5511Y-9875D01*
X5511Y-10493D01*
X5511Y-9875D02*
X5568Y-9762D01*
X5680Y-9706D01*
X5849Y-9706D01*
X5961Y-9762D01*
X6017Y-9875D01*
X6017Y-10493D01*
X6580Y-10493D02*
X6580Y-9706D01*
X6580Y-9818D02*
X6636Y-9762D01*
X6749Y-9706D01*
X6917Y-9706D01*
X7030Y-9762D01*
X7086Y-9875D01*
X7086Y-10493D01*
X7086Y-9875D02*
X7142Y-9762D01*
X7255Y-9706D01*
X7424Y-9706D01*
X7536Y-9762D01*
X7592Y-9875D01*
X7592Y-10493D01*
X9898Y-9256D02*
X8886Y-10775D01*
X11417Y-9312D02*
X11529Y-9312D01*
X11642Y-9368D01*
X11698Y-9425D01*
X11754Y-9537D01*
X11811Y-9762D01*
X11811Y-10043D01*
X11754Y-10268D01*
X11698Y-10381D01*
X11642Y-10437D01*
X11529Y-10493D01*
X11417Y-10493D01*
X11304Y-10437D01*
X11248Y-10381D01*
X11192Y-10268D01*
X11136Y-10043D01*
X11136Y-9762D01*
X11192Y-9537D01*
X11248Y-9425D01*
X11304Y-9368D01*
X11417Y-9312D01*
X12317Y-10381D02*
X12373Y-10437D01*
X12317Y-10493D01*
X12260Y-10437D01*
X12317Y-10381D01*
X12317Y-10493D01*
X13104Y-9312D02*
X13217Y-9312D01*
X13329Y-9368D01*
X13385Y-9425D01*
X13442Y-9537D01*
X13498Y-9762D01*
X13498Y-10043D01*
X13442Y-10268D01*
X13385Y-10381D01*
X13329Y-10437D01*
X13217Y-10493D01*
X13104Y-10493D01*
X12992Y-10437D01*
X12935Y-10381D01*
X12879Y-10268D01*
X12823Y-10043D01*
X12823Y-9762D01*
X12879Y-9537D01*
X12935Y-9425D01*
X12992Y-9368D01*
X13104Y-9312D01*
X14510Y-9706D02*
X14510Y-10493D01*
X14229Y-9256D02*
X13948Y-10100D01*
X14679Y-10100D01*
X15016Y-9312D02*
X15804Y-9312D01*
X15298Y-10493D01*
X16197Y-9312D02*
X16197Y-9537D01*
X16647Y-9312D02*
X16647Y-9537D01*
X18391Y-10943D02*
X18335Y-10887D01*
X18222Y-10718D01*
X18166Y-10606D01*
X18110Y-10437D01*
X18053Y-10156D01*
X18053Y-9931D01*
X18110Y-9650D01*
X18166Y-9481D01*
X18222Y-9368D01*
X18335Y-9200D01*
X18391Y-9143D01*
X18785Y-9425D02*
X18841Y-9368D01*
X18953Y-9312D01*
X19235Y-9312D01*
X19347Y-9368D01*
X19403Y-9425D01*
X19460Y-9537D01*
X19460Y-9650D01*
X19403Y-9818D01*
X18728Y-10493D01*
X19460Y-10493D01*
X20866Y-10493D02*
X20866Y-9312D01*
X21372Y-10493D02*
X21372Y-9875D01*
X21316Y-9762D01*
X21203Y-9706D01*
X21034Y-9706D01*
X20922Y-9762D01*
X20866Y-9818D01*
X22103Y-10493D02*
X21991Y-10437D01*
X21934Y-10381D01*
X21878Y-10268D01*
X21878Y-9931D01*
X21934Y-9818D01*
X21991Y-9762D01*
X22103Y-9706D01*
X22272Y-9706D01*
X22384Y-9762D01*
X22440Y-9818D01*
X22497Y-9931D01*
X22497Y-10268D01*
X22440Y-10381D01*
X22384Y-10437D01*
X22272Y-10493D01*
X22103Y-10493D01*
X23172Y-10493D02*
X23059Y-10437D01*
X23003Y-10325D01*
X23003Y-9312D01*
X24071Y-10437D02*
X23959Y-10493D01*
X23734Y-10493D01*
X23622Y-10437D01*
X23565Y-10325D01*
X23565Y-9875D01*
X23622Y-9762D01*
X23734Y-9706D01*
X23959Y-9706D01*
X24071Y-9762D01*
X24128Y-9875D01*
X24128Y-9987D01*
X23565Y-10100D01*
X24578Y-10437D02*
X24690Y-10493D01*
X24915Y-10493D01*
X25028Y-10437D01*
X25084Y-10325D01*
X25084Y-10268D01*
X25028Y-10156D01*
X24915Y-10100D01*
X24746Y-10100D01*
X24634Y-10043D01*
X24578Y-9931D01*
X24578Y-9875D01*
X24634Y-9762D01*
X24746Y-9706D01*
X24915Y-9706D01*
X25028Y-9762D01*
X25478Y-10943D02*
X25534Y-10887D01*
X25646Y-10718D01*
X25703Y-10606D01*
X25759Y-10437D01*
X25815Y-10156D01*
X25815Y-9931D01*
X25759Y-9650D01*
X25703Y-9481D01*
X25646Y-9368D01*
X25534Y-9200D01*
X25478Y-9143D01*
X-600Y-11274D02*
X0Y-11874D01*
X0Y-11274D02*
X-600Y-11874D01*
G54D11*
X0Y-11574D02*
G75*
G03X0Y-11574I-300J0D01*
G74*
G01*
G54D12*
X1687Y-12052D02*
X1012Y-12052D01*
X1349Y-12052D02*
X1349Y-10871D01*
X1237Y-11040D01*
X1124Y-11152D01*
X1012Y-11209D01*
X2193Y-11940D02*
X2249Y-11996D01*
X2193Y-12052D01*
X2137Y-11996D01*
X2193Y-11940D01*
X2193Y-12052D01*
X3318Y-10871D02*
X2755Y-10871D01*
X2699Y-11434D01*
X2755Y-11377D01*
X2868Y-11321D01*
X3149Y-11321D01*
X3262Y-11377D01*
X3318Y-11434D01*
X3374Y-11546D01*
X3374Y-11827D01*
X3318Y-11940D01*
X3262Y-11996D01*
X3149Y-12052D01*
X2868Y-12052D01*
X2755Y-11996D01*
X2699Y-11940D01*
X3824Y-10984D02*
X3880Y-10928D01*
X3993Y-10871D01*
X4274Y-10871D01*
X4386Y-10928D01*
X4443Y-10984D01*
X4499Y-11096D01*
X4499Y-11209D01*
X4443Y-11377D01*
X3768Y-12052D01*
X4499Y-12052D01*
X5005Y-12052D02*
X5005Y-11265D01*
X5005Y-11377D02*
X5061Y-11321D01*
X5174Y-11265D01*
X5343Y-11265D01*
X5455Y-11321D01*
X5511Y-11434D01*
X5511Y-12052D01*
X5511Y-11434D02*
X5568Y-11321D01*
X5680Y-11265D01*
X5849Y-11265D01*
X5961Y-11321D01*
X6017Y-11434D01*
X6017Y-12052D01*
X6580Y-12052D02*
X6580Y-11265D01*
X6580Y-11377D02*
X6636Y-11321D01*
X6749Y-11265D01*
X6917Y-11265D01*
X7030Y-11321D01*
X7086Y-11434D01*
X7086Y-12052D01*
X7086Y-11434D02*
X7142Y-11321D01*
X7255Y-11265D01*
X7424Y-11265D01*
X7536Y-11321D01*
X7592Y-11434D01*
X7592Y-12052D01*
X9898Y-10815D02*
X8886Y-12334D01*
X11417Y-10871D02*
X11529Y-10871D01*
X11642Y-10928D01*
X11698Y-10984D01*
X11754Y-11096D01*
X11811Y-11321D01*
X11811Y-11602D01*
X11754Y-11827D01*
X11698Y-11940D01*
X11642Y-11996D01*
X11529Y-12052D01*
X11417Y-12052D01*
X11304Y-11996D01*
X11248Y-11940D01*
X11192Y-11827D01*
X11136Y-11602D01*
X11136Y-11321D01*
X11192Y-11096D01*
X11248Y-10984D01*
X11304Y-10928D01*
X11417Y-10871D01*
X12317Y-11940D02*
X12373Y-11996D01*
X12317Y-12052D01*
X12260Y-11996D01*
X12317Y-11940D01*
X12317Y-12052D01*
X13104Y-10871D02*
X13217Y-10871D01*
X13329Y-10928D01*
X13385Y-10984D01*
X13442Y-11096D01*
X13498Y-11321D01*
X13498Y-11602D01*
X13442Y-11827D01*
X13385Y-11940D01*
X13329Y-11996D01*
X13217Y-12052D01*
X13104Y-12052D01*
X12992Y-11996D01*
X12935Y-11940D01*
X12879Y-11827D01*
X12823Y-11602D01*
X12823Y-11321D01*
X12879Y-11096D01*
X12935Y-10984D01*
X12992Y-10928D01*
X13104Y-10871D01*
X14510Y-10871D02*
X14285Y-10871D01*
X14173Y-10928D01*
X14116Y-10984D01*
X14004Y-11152D01*
X13948Y-11377D01*
X13948Y-11827D01*
X14004Y-11940D01*
X14060Y-11996D01*
X14173Y-12052D01*
X14398Y-12052D01*
X14510Y-11996D01*
X14566Y-11940D01*
X14623Y-11827D01*
X14623Y-11546D01*
X14566Y-11434D01*
X14510Y-11377D01*
X14398Y-11321D01*
X14173Y-11321D01*
X14060Y-11377D01*
X14004Y-11434D01*
X13948Y-11546D01*
X15354Y-10871D02*
X15466Y-10871D01*
X15579Y-10928D01*
X15635Y-10984D01*
X15691Y-11096D01*
X15748Y-11321D01*
X15748Y-11602D01*
X15691Y-11827D01*
X15635Y-11940D01*
X15579Y-11996D01*
X15466Y-12052D01*
X15354Y-12052D01*
X15241Y-11996D01*
X15185Y-11940D01*
X15129Y-11827D01*
X15073Y-11602D01*
X15073Y-11321D01*
X15129Y-11096D01*
X15185Y-10984D01*
X15241Y-10928D01*
X15354Y-10871D01*
X16197Y-10871D02*
X16197Y-11096D01*
X16647Y-10871D02*
X16647Y-11096D01*
X18391Y-12502D02*
X18335Y-12446D01*
X18222Y-12277D01*
X18166Y-12165D01*
X18110Y-11996D01*
X18053Y-11715D01*
X18053Y-11490D01*
X18110Y-11209D01*
X18166Y-11040D01*
X18222Y-10928D01*
X18335Y-10759D01*
X18391Y-10703D01*
X19460Y-12052D02*
X18785Y-12052D01*
X19122Y-12052D02*
X19122Y-10871D01*
X19010Y-11040D01*
X18897Y-11152D01*
X18785Y-11209D01*
X20472Y-11265D02*
X20472Y-12052D01*
X20191Y-10815D02*
X19910Y-11659D01*
X20641Y-11659D01*
X21991Y-12052D02*
X21991Y-10871D01*
X22497Y-12052D02*
X22497Y-11434D01*
X22440Y-11321D01*
X22328Y-11265D01*
X22159Y-11265D01*
X22047Y-11321D01*
X21991Y-11377D01*
X23228Y-12052D02*
X23115Y-11996D01*
X23059Y-11940D01*
X23003Y-11827D01*
X23003Y-11490D01*
X23059Y-11377D01*
X23115Y-11321D01*
X23228Y-11265D01*
X23397Y-11265D01*
X23509Y-11321D01*
X23565Y-11377D01*
X23622Y-11490D01*
X23622Y-11827D01*
X23565Y-11940D01*
X23509Y-11996D01*
X23397Y-12052D01*
X23228Y-12052D01*
X24296Y-12052D02*
X24184Y-11996D01*
X24128Y-11884D01*
X24128Y-10871D01*
X25196Y-11996D02*
X25084Y-12052D01*
X24859Y-12052D01*
X24746Y-11996D01*
X24690Y-11884D01*
X24690Y-11434D01*
X24746Y-11321D01*
X24859Y-11265D01*
X25084Y-11265D01*
X25196Y-11321D01*
X25253Y-11434D01*
X25253Y-11546D01*
X24690Y-11659D01*
X25703Y-11996D02*
X25815Y-12052D01*
X26040Y-12052D01*
X26152Y-11996D01*
X26209Y-11884D01*
X26209Y-11827D01*
X26152Y-11715D01*
X26040Y-11659D01*
X25871Y-11659D01*
X25759Y-11602D01*
X25703Y-11490D01*
X25703Y-11434D01*
X25759Y-11321D01*
X25871Y-11265D01*
X26040Y-11265D01*
X26152Y-11321D01*
X26602Y-12502D02*
X26659Y-12446D01*
X26771Y-12277D01*
X26827Y-12165D01*
X26884Y-11996D01*
X26940Y-11715D01*
X26940Y-11490D01*
X26884Y-11209D01*
X26827Y-11040D01*
X26771Y-10928D01*
X26659Y-10759D01*
X26602Y-10703D01*
X-906Y-12680D02*
X0Y-13586D01*
X0Y-12680D02*
X-906Y-13586D01*
X-453Y-12680D02*
X-453Y-13586D01*
X-906Y-13133D02*
X0Y-13133D01*
X1012Y-12543D02*
X1068Y-12487D01*
X1181Y-12430D01*
X1462Y-12430D01*
X1574Y-12487D01*
X1631Y-12543D01*
X1687Y-12655D01*
X1687Y-12768D01*
X1631Y-12937D01*
X956Y-13611D01*
X1687Y-13611D01*
X2193Y-13499D02*
X2249Y-13555D01*
X2193Y-13611D01*
X2137Y-13555D01*
X2193Y-13499D01*
X2193Y-13611D01*
X2643Y-12430D02*
X3374Y-12430D01*
X2980Y-12880D01*
X3149Y-12880D01*
X3262Y-12937D01*
X3318Y-12993D01*
X3374Y-13105D01*
X3374Y-13386D01*
X3318Y-13499D01*
X3262Y-13555D01*
X3149Y-13611D01*
X2812Y-13611D01*
X2699Y-13555D01*
X2643Y-13499D01*
X4105Y-12430D02*
X4218Y-12430D01*
X4330Y-12487D01*
X4386Y-12543D01*
X4443Y-12655D01*
X4499Y-12880D01*
X4499Y-13161D01*
X4443Y-13386D01*
X4386Y-13499D01*
X4330Y-13555D01*
X4218Y-13611D01*
X4105Y-13611D01*
X3993Y-13555D01*
X3937Y-13499D01*
X3880Y-13386D01*
X3824Y-13161D01*
X3824Y-12880D01*
X3880Y-12655D01*
X3937Y-12543D01*
X3993Y-12487D01*
X4105Y-12430D01*
X5005Y-13611D02*
X5005Y-12824D01*
X5005Y-12937D02*
X5061Y-12880D01*
X5174Y-12824D01*
X5343Y-12824D01*
X5455Y-12880D01*
X5511Y-12993D01*
X5511Y-13611D01*
X5511Y-12993D02*
X5568Y-12880D01*
X5680Y-12824D01*
X5849Y-12824D01*
X5961Y-12880D01*
X6017Y-12993D01*
X6017Y-13611D01*
X6580Y-13611D02*
X6580Y-12824D01*
X6580Y-12937D02*
X6636Y-12880D01*
X6749Y-12824D01*
X6917Y-12824D01*
X7030Y-12880D01*
X7086Y-12993D01*
X7086Y-13611D01*
X7086Y-12993D02*
X7142Y-12880D01*
X7255Y-12824D01*
X7424Y-12824D01*
X7536Y-12880D01*
X7592Y-12993D01*
X7592Y-13611D01*
X9898Y-12374D02*
X8886Y-13893D01*
X11417Y-12430D02*
X11529Y-12430D01*
X11642Y-12487D01*
X11698Y-12543D01*
X11754Y-12655D01*
X11811Y-12880D01*
X11811Y-13161D01*
X11754Y-13386D01*
X11698Y-13499D01*
X11642Y-13555D01*
X11529Y-13611D01*
X11417Y-13611D01*
X11304Y-13555D01*
X11248Y-13499D01*
X11192Y-13386D01*
X11136Y-13161D01*
X11136Y-12880D01*
X11192Y-12655D01*
X11248Y-12543D01*
X11304Y-12487D01*
X11417Y-12430D01*
X12317Y-13499D02*
X12373Y-13555D01*
X12317Y-13611D01*
X12260Y-13555D01*
X12317Y-13499D01*
X12317Y-13611D01*
X13104Y-12430D02*
X13217Y-12430D01*
X13329Y-12487D01*
X13385Y-12543D01*
X13442Y-12655D01*
X13498Y-12880D01*
X13498Y-13161D01*
X13442Y-13386D01*
X13385Y-13499D01*
X13329Y-13555D01*
X13217Y-13611D01*
X13104Y-13611D01*
X12992Y-13555D01*
X12935Y-13499D01*
X12879Y-13386D01*
X12823Y-13161D01*
X12823Y-12880D01*
X12879Y-12655D01*
X12935Y-12543D01*
X12992Y-12487D01*
X13104Y-12430D01*
X14060Y-13611D02*
X14285Y-13611D01*
X14398Y-13555D01*
X14454Y-13499D01*
X14566Y-13330D01*
X14623Y-13105D01*
X14623Y-12655D01*
X14566Y-12543D01*
X14510Y-12487D01*
X14398Y-12430D01*
X14173Y-12430D01*
X14060Y-12487D01*
X14004Y-12543D01*
X13948Y-12655D01*
X13948Y-12937D01*
X14004Y-13049D01*
X14060Y-13105D01*
X14173Y-13161D01*
X14398Y-13161D01*
X14510Y-13105D01*
X14566Y-13049D01*
X14623Y-12937D01*
X15748Y-13611D02*
X15073Y-13611D01*
X15410Y-13611D02*
X15410Y-12430D01*
X15298Y-12599D01*
X15185Y-12712D01*
X15073Y-12768D01*
X16197Y-12430D02*
X16197Y-12655D01*
X16647Y-12430D02*
X16647Y-12655D01*
X18391Y-14061D02*
X18335Y-14005D01*
X18222Y-13836D01*
X18166Y-13724D01*
X18110Y-13555D01*
X18053Y-13274D01*
X18053Y-13049D01*
X18110Y-12768D01*
X18166Y-12599D01*
X18222Y-12487D01*
X18335Y-12318D01*
X18391Y-12262D01*
X19460Y-13611D02*
X18785Y-13611D01*
X19122Y-13611D02*
X19122Y-12430D01*
X19010Y-12599D01*
X18897Y-12712D01*
X18785Y-12768D01*
X20866Y-13611D02*
X20866Y-12430D01*
X21372Y-13611D02*
X21372Y-12993D01*
X21316Y-12880D01*
X21203Y-12824D01*
X21034Y-12824D01*
X20922Y-12880D01*
X20866Y-12937D01*
X22103Y-13611D02*
X21991Y-13555D01*
X21934Y-13499D01*
X21878Y-13386D01*
X21878Y-13049D01*
X21934Y-12937D01*
X21991Y-12880D01*
X22103Y-12824D01*
X22272Y-12824D01*
X22384Y-12880D01*
X22440Y-12937D01*
X22497Y-13049D01*
X22497Y-13386D01*
X22440Y-13499D01*
X22384Y-13555D01*
X22272Y-13611D01*
X22103Y-13611D01*
X23172Y-13611D02*
X23059Y-13555D01*
X23003Y-13443D01*
X23003Y-12430D01*
X24071Y-13555D02*
X23959Y-13611D01*
X23734Y-13611D01*
X23622Y-13555D01*
X23565Y-13443D01*
X23565Y-12993D01*
X23622Y-12880D01*
X23734Y-12824D01*
X23959Y-12824D01*
X24071Y-12880D01*
X24128Y-12993D01*
X24128Y-13105D01*
X23565Y-13218D01*
X24521Y-14061D02*
X24578Y-14005D01*
X24690Y-13836D01*
X24746Y-13724D01*
X24803Y-13555D01*
X24859Y-13274D01*
X24859Y-13049D01*
X24803Y-12768D01*
X24746Y-12599D01*
X24690Y-12487D01*
X24578Y-12318D01*
X24521Y-12262D01*
X-1200Y-14092D02*
X0Y-15292D01*
X0Y-14092D02*
X-1200Y-15292D01*
G54D11*
X-175Y-15117D02*
X-175Y-14268D01*
X-1024Y-14268D01*
X-1024Y-15117D01*
X-175Y-15117D01*
G54D12*
X956Y-13989D02*
X1687Y-13989D01*
X1293Y-14439D01*
X1462Y-14439D01*
X1574Y-14496D01*
X1631Y-14552D01*
X1687Y-14664D01*
X1687Y-14946D01*
X1631Y-15058D01*
X1574Y-15114D01*
X1462Y-15170D01*
X1124Y-15170D01*
X1012Y-15114D01*
X956Y-15058D01*
X2193Y-15058D02*
X2249Y-15114D01*
X2193Y-15170D01*
X2137Y-15114D01*
X2193Y-15058D01*
X2193Y-15170D01*
X2980Y-13989D02*
X3093Y-13989D01*
X3205Y-14046D01*
X3262Y-14102D01*
X3318Y-14214D01*
X3374Y-14439D01*
X3374Y-14721D01*
X3318Y-14946D01*
X3262Y-15058D01*
X3205Y-15114D01*
X3093Y-15170D01*
X2980Y-15170D01*
X2868Y-15114D01*
X2812Y-15058D01*
X2755Y-14946D01*
X2699Y-14721D01*
X2699Y-14439D01*
X2755Y-14214D01*
X2812Y-14102D01*
X2868Y-14046D01*
X2980Y-13989D01*
X4443Y-13989D02*
X3880Y-13989D01*
X3824Y-14552D01*
X3880Y-14496D01*
X3993Y-14439D01*
X4274Y-14439D01*
X4386Y-14496D01*
X4443Y-14552D01*
X4499Y-14664D01*
X4499Y-14946D01*
X4443Y-15058D01*
X4386Y-15114D01*
X4274Y-15170D01*
X3993Y-15170D01*
X3880Y-15114D01*
X3824Y-15058D01*
X5005Y-15170D02*
X5005Y-14383D01*
X5005Y-14496D02*
X5061Y-14439D01*
X5174Y-14383D01*
X5343Y-14383D01*
X5455Y-14439D01*
X5511Y-14552D01*
X5511Y-15170D01*
X5511Y-14552D02*
X5568Y-14439D01*
X5680Y-14383D01*
X5849Y-14383D01*
X5961Y-14439D01*
X6017Y-14552D01*
X6017Y-15170D01*
X6580Y-15170D02*
X6580Y-14383D01*
X6580Y-14496D02*
X6636Y-14439D01*
X6749Y-14383D01*
X6917Y-14383D01*
X7030Y-14439D01*
X7086Y-14552D01*
X7086Y-15170D01*
X7086Y-14552D02*
X7142Y-14439D01*
X7255Y-14383D01*
X7424Y-14383D01*
X7536Y-14439D01*
X7592Y-14552D01*
X7592Y-15170D01*
X9898Y-13933D02*
X8886Y-15452D01*
X11417Y-13989D02*
X11529Y-13989D01*
X11642Y-14046D01*
X11698Y-14102D01*
X11754Y-14214D01*
X11811Y-14439D01*
X11811Y-14721D01*
X11754Y-14946D01*
X11698Y-15058D01*
X11642Y-15114D01*
X11529Y-15170D01*
X11417Y-15170D01*
X11304Y-15114D01*
X11248Y-15058D01*
X11192Y-14946D01*
X11136Y-14721D01*
X11136Y-14439D01*
X11192Y-14214D01*
X11248Y-14102D01*
X11304Y-14046D01*
X11417Y-13989D01*
X12317Y-15058D02*
X12373Y-15114D01*
X12317Y-15170D01*
X12260Y-15114D01*
X12317Y-15058D01*
X12317Y-15170D01*
X13498Y-15170D02*
X12823Y-15170D01*
X13160Y-15170D02*
X13160Y-13989D01*
X13048Y-14158D01*
X12935Y-14271D01*
X12823Y-14327D01*
X13948Y-14102D02*
X14004Y-14046D01*
X14116Y-13989D01*
X14398Y-13989D01*
X14510Y-14046D01*
X14566Y-14102D01*
X14623Y-14214D01*
X14623Y-14327D01*
X14566Y-14496D01*
X13892Y-15170D01*
X14623Y-15170D01*
X15354Y-13989D02*
X15466Y-13989D01*
X15579Y-14046D01*
X15635Y-14102D01*
X15691Y-14214D01*
X15748Y-14439D01*
X15748Y-14721D01*
X15691Y-14946D01*
X15635Y-15058D01*
X15579Y-15114D01*
X15466Y-15170D01*
X15354Y-15170D01*
X15241Y-15114D01*
X15185Y-15058D01*
X15129Y-14946D01*
X15073Y-14721D01*
X15073Y-14439D01*
X15129Y-14214D01*
X15185Y-14102D01*
X15241Y-14046D01*
X15354Y-13989D01*
X16197Y-13989D02*
X16197Y-14214D01*
X16647Y-13989D02*
X16647Y-14214D01*
X18391Y-15620D02*
X18335Y-15564D01*
X18222Y-15395D01*
X18166Y-15283D01*
X18110Y-15114D01*
X18053Y-14833D01*
X18053Y-14608D01*
X18110Y-14327D01*
X18166Y-14158D01*
X18222Y-14046D01*
X18335Y-13877D01*
X18391Y-13821D01*
X19403Y-13989D02*
X18841Y-13989D01*
X18785Y-14552D01*
X18841Y-14496D01*
X18953Y-14439D01*
X19235Y-14439D01*
X19347Y-14496D01*
X19403Y-14552D01*
X19460Y-14664D01*
X19460Y-14946D01*
X19403Y-15058D01*
X19347Y-15114D01*
X19235Y-15170D01*
X18953Y-15170D01*
X18841Y-15114D01*
X18785Y-15058D01*
X20866Y-15170D02*
X20866Y-13989D01*
X21372Y-15170D02*
X21372Y-14552D01*
X21316Y-14439D01*
X21203Y-14383D01*
X21034Y-14383D01*
X20922Y-14439D01*
X20866Y-14496D01*
X22103Y-15170D02*
X21991Y-15114D01*
X21934Y-15058D01*
X21878Y-14946D01*
X21878Y-14608D01*
X21934Y-14496D01*
X21991Y-14439D01*
X22103Y-14383D01*
X22272Y-14383D01*
X22384Y-14439D01*
X22440Y-14496D01*
X22497Y-14608D01*
X22497Y-14946D01*
X22440Y-15058D01*
X22384Y-15114D01*
X22272Y-15170D01*
X22103Y-15170D01*
X23172Y-15170D02*
X23059Y-15114D01*
X23003Y-15002D01*
X23003Y-13989D01*
X24071Y-15114D02*
X23959Y-15170D01*
X23734Y-15170D01*
X23622Y-15114D01*
X23565Y-15002D01*
X23565Y-14552D01*
X23622Y-14439D01*
X23734Y-14383D01*
X23959Y-14383D01*
X24071Y-14439D01*
X24128Y-14552D01*
X24128Y-14664D01*
X23565Y-14777D01*
X24578Y-15114D02*
X24690Y-15170D01*
X24915Y-15170D01*
X25028Y-15114D01*
X25084Y-15002D01*
X25084Y-14946D01*
X25028Y-14833D01*
X24915Y-14777D01*
X24746Y-14777D01*
X24634Y-14721D01*
X24578Y-14608D01*
X24578Y-14552D01*
X24634Y-14439D01*
X24746Y-14383D01*
X24915Y-14383D01*
X25028Y-14439D01*
X25478Y-15620D02*
X25534Y-15564D01*
X25646Y-15395D01*
X25703Y-15283D01*
X25759Y-15114D01*
X25815Y-14833D01*
X25815Y-14608D01*
X25759Y-14327D01*
X25703Y-14158D01*
X25646Y-14046D01*
X25534Y-13877D01*
X25478Y-13821D01*
M02*
