%TF.GenerationSoftware,KiCad,Pcbnew,4.0.6*%
%TF.CreationDate,2017-05-25T21:52:32-03:00*%
%TF.ProjectId,np08,6E7030382E6B696361645F7063620000,rev?*%
%TF.FileFunction,Copper,L1,Top,Signal*%
%FSLAX46Y46*%
G04 Gerber Fmt 4.6, Leading zero omitted, Abs format (unit mm)*
G04 Created by KiCad (PCBNEW 4.0.6) date Thu May 25 21:52:32 2017*
%MOMM*%
%LPD*%
G01*
G04 APERTURE LIST*
%ADD10C,0.100000*%
%ADD11R,1.600000X2.200000*%
%ADD12R,0.750000X1.200000*%
%ADD13R,1.200000X1.200000*%
%ADD14R,1.000000X1.000000*%
%ADD15O,1.000000X1.000000*%
%ADD16R,1.897380X1.173480*%
%ADD17R,1.897380X2.374900*%
%ADD18R,2.100580X1.473200*%
%ADD19R,1.379220X0.449580*%
%ADD20R,0.500000X0.900000*%
%ADD21R,0.900000X0.500000*%
%ADD22R,2.750000X1.000000*%
%ADD23R,4.500000X2.000000*%
%ADD24C,0.700000*%
%ADD25C,0.250000*%
%ADD26C,0.254000*%
G04 APERTURE END LIST*
D10*
D11*
X148000000Y-96500000D03*
X148000000Y-93500000D03*
D12*
X156210000Y-136840000D03*
X156210000Y-134940000D03*
X163830000Y-136840000D03*
X163830000Y-134940000D03*
X166370000Y-124780000D03*
X166370000Y-126680000D03*
D13*
X148000000Y-100400000D03*
X148000000Y-102600000D03*
D14*
X172720000Y-133350000D03*
D15*
X172720000Y-132080000D03*
X172720000Y-130810000D03*
D16*
X173355000Y-110693200D03*
X173355000Y-109016800D03*
D17*
X173355000Y-106941620D03*
X173355000Y-112768380D03*
D18*
X171056300Y-107393740D03*
X171056300Y-112316260D03*
D19*
X170695620Y-111155480D03*
X170695620Y-110505240D03*
X170695620Y-109855000D03*
X170695620Y-109204760D03*
X170695620Y-108554520D03*
D14*
X172720000Y-102870000D03*
D15*
X172720000Y-101600000D03*
X172720000Y-100330000D03*
X172720000Y-99060000D03*
D14*
X150495000Y-135255000D03*
D15*
X150495000Y-136525000D03*
D14*
X150495000Y-128905000D03*
D15*
X150495000Y-130175000D03*
X150495000Y-131445000D03*
D14*
X172720000Y-127635000D03*
D15*
X172720000Y-126365000D03*
D14*
X172720000Y-122555000D03*
D15*
X172720000Y-121285000D03*
D14*
X145415000Y-128905000D03*
D15*
X145415000Y-127635000D03*
X145415000Y-126365000D03*
X145415000Y-125095000D03*
X145415000Y-123825000D03*
X145415000Y-122555000D03*
X145415000Y-121285000D03*
X145415000Y-120015000D03*
D14*
X145415000Y-107315000D03*
D15*
X145415000Y-108585000D03*
X145415000Y-109855000D03*
X145415000Y-111125000D03*
X145415000Y-112395000D03*
X145415000Y-113665000D03*
X145415000Y-114935000D03*
X145415000Y-116205000D03*
D14*
X172720000Y-118110000D03*
D15*
X172720000Y-116840000D03*
D20*
X150380000Y-102870000D03*
X151880000Y-102870000D03*
D21*
X159537400Y-106002520D03*
X159537400Y-104502520D03*
D22*
X166710000Y-97060000D03*
X160950000Y-97060000D03*
X160950000Y-101060000D03*
X166710000Y-101060000D03*
D10*
G36*
X150655302Y-119673823D02*
X150259323Y-119277844D01*
X151390694Y-118146473D01*
X151786673Y-118542452D01*
X150655302Y-119673823D01*
X150655302Y-119673823D01*
G37*
G36*
X151220988Y-120239508D02*
X150825009Y-119843529D01*
X151956380Y-118712158D01*
X152352359Y-119108137D01*
X151220988Y-120239508D01*
X151220988Y-120239508D01*
G37*
G36*
X151786673Y-120805193D02*
X151390694Y-120409214D01*
X152522065Y-119277843D01*
X152918044Y-119673822D01*
X151786673Y-120805193D01*
X151786673Y-120805193D01*
G37*
G36*
X152352358Y-121370879D02*
X151956379Y-120974900D01*
X153087750Y-119843529D01*
X153483729Y-120239508D01*
X152352358Y-121370879D01*
X152352358Y-121370879D01*
G37*
G36*
X152918044Y-121936564D02*
X152522065Y-121540585D01*
X153653436Y-120409214D01*
X154049415Y-120805193D01*
X152918044Y-121936564D01*
X152918044Y-121936564D01*
G37*
G36*
X153483729Y-122502250D02*
X153087750Y-122106271D01*
X154219121Y-120974900D01*
X154615100Y-121370879D01*
X153483729Y-122502250D01*
X153483729Y-122502250D01*
G37*
G36*
X154049415Y-123067935D02*
X153653436Y-122671956D01*
X154784807Y-121540585D01*
X155180786Y-121936564D01*
X154049415Y-123067935D01*
X154049415Y-123067935D01*
G37*
G36*
X154615100Y-123633621D02*
X154219121Y-123237642D01*
X155350492Y-122106271D01*
X155746471Y-122502250D01*
X154615100Y-123633621D01*
X154615100Y-123633621D01*
G37*
G36*
X155180786Y-124199306D02*
X154784807Y-123803327D01*
X155916178Y-122671956D01*
X156312157Y-123067935D01*
X155180786Y-124199306D01*
X155180786Y-124199306D01*
G37*
G36*
X155746471Y-124764991D02*
X155350492Y-124369012D01*
X156481863Y-123237641D01*
X156877842Y-123633620D01*
X155746471Y-124764991D01*
X155746471Y-124764991D01*
G37*
G36*
X156312156Y-125330677D02*
X155916177Y-124934698D01*
X157047548Y-123803327D01*
X157443527Y-124199306D01*
X156312156Y-125330677D01*
X156312156Y-125330677D01*
G37*
G36*
X160059823Y-124934698D02*
X159663844Y-125330677D01*
X158532473Y-124199306D01*
X158928452Y-123803327D01*
X160059823Y-124934698D01*
X160059823Y-124934698D01*
G37*
G36*
X160625508Y-124369012D02*
X160229529Y-124764991D01*
X159098158Y-123633620D01*
X159494137Y-123237641D01*
X160625508Y-124369012D01*
X160625508Y-124369012D01*
G37*
G36*
X161191193Y-123803327D02*
X160795214Y-124199306D01*
X159663843Y-123067935D01*
X160059822Y-122671956D01*
X161191193Y-123803327D01*
X161191193Y-123803327D01*
G37*
G36*
X161756879Y-123237642D02*
X161360900Y-123633621D01*
X160229529Y-122502250D01*
X160625508Y-122106271D01*
X161756879Y-123237642D01*
X161756879Y-123237642D01*
G37*
G36*
X162322564Y-122671956D02*
X161926585Y-123067935D01*
X160795214Y-121936564D01*
X161191193Y-121540585D01*
X162322564Y-122671956D01*
X162322564Y-122671956D01*
G37*
G36*
X162888250Y-122106271D02*
X162492271Y-122502250D01*
X161360900Y-121370879D01*
X161756879Y-120974900D01*
X162888250Y-122106271D01*
X162888250Y-122106271D01*
G37*
G36*
X163453935Y-121540585D02*
X163057956Y-121936564D01*
X161926585Y-120805193D01*
X162322564Y-120409214D01*
X163453935Y-121540585D01*
X163453935Y-121540585D01*
G37*
G36*
X164019621Y-120974900D02*
X163623642Y-121370879D01*
X162492271Y-120239508D01*
X162888250Y-119843529D01*
X164019621Y-120974900D01*
X164019621Y-120974900D01*
G37*
G36*
X164585306Y-120409214D02*
X164189327Y-120805193D01*
X163057956Y-119673822D01*
X163453935Y-119277843D01*
X164585306Y-120409214D01*
X164585306Y-120409214D01*
G37*
G36*
X165150991Y-119843529D02*
X164755012Y-120239508D01*
X163623641Y-119108137D01*
X164019620Y-118712158D01*
X165150991Y-119843529D01*
X165150991Y-119843529D01*
G37*
G36*
X165716677Y-119277844D02*
X165320698Y-119673823D01*
X164189327Y-118542452D01*
X164585306Y-118146473D01*
X165716677Y-119277844D01*
X165716677Y-119277844D01*
G37*
G36*
X164585306Y-117057527D02*
X164189327Y-116661548D01*
X165320698Y-115530177D01*
X165716677Y-115926156D01*
X164585306Y-117057527D01*
X164585306Y-117057527D01*
G37*
G36*
X164019620Y-116491842D02*
X163623641Y-116095863D01*
X164755012Y-114964492D01*
X165150991Y-115360471D01*
X164019620Y-116491842D01*
X164019620Y-116491842D01*
G37*
G36*
X163453935Y-115926157D02*
X163057956Y-115530178D01*
X164189327Y-114398807D01*
X164585306Y-114794786D01*
X163453935Y-115926157D01*
X163453935Y-115926157D01*
G37*
G36*
X162888250Y-115360471D02*
X162492271Y-114964492D01*
X163623642Y-113833121D01*
X164019621Y-114229100D01*
X162888250Y-115360471D01*
X162888250Y-115360471D01*
G37*
G36*
X162322564Y-114794786D02*
X161926585Y-114398807D01*
X163057956Y-113267436D01*
X163453935Y-113663415D01*
X162322564Y-114794786D01*
X162322564Y-114794786D01*
G37*
G36*
X161756879Y-114229100D02*
X161360900Y-113833121D01*
X162492271Y-112701750D01*
X162888250Y-113097729D01*
X161756879Y-114229100D01*
X161756879Y-114229100D01*
G37*
G36*
X161191193Y-113663415D02*
X160795214Y-113267436D01*
X161926585Y-112136065D01*
X162322564Y-112532044D01*
X161191193Y-113663415D01*
X161191193Y-113663415D01*
G37*
G36*
X160625508Y-113097729D02*
X160229529Y-112701750D01*
X161360900Y-111570379D01*
X161756879Y-111966358D01*
X160625508Y-113097729D01*
X160625508Y-113097729D01*
G37*
G36*
X160059822Y-112532044D02*
X159663843Y-112136065D01*
X160795214Y-111004694D01*
X161191193Y-111400673D01*
X160059822Y-112532044D01*
X160059822Y-112532044D01*
G37*
G36*
X159494137Y-111966359D02*
X159098158Y-111570380D01*
X160229529Y-110439009D01*
X160625508Y-110834988D01*
X159494137Y-111966359D01*
X159494137Y-111966359D01*
G37*
G36*
X158928452Y-111400673D02*
X158532473Y-111004694D01*
X159663844Y-109873323D01*
X160059823Y-110269302D01*
X158928452Y-111400673D01*
X158928452Y-111400673D01*
G37*
G36*
X157443527Y-111004694D02*
X157047548Y-111400673D01*
X155916177Y-110269302D01*
X156312156Y-109873323D01*
X157443527Y-111004694D01*
X157443527Y-111004694D01*
G37*
G36*
X156877842Y-111570380D02*
X156481863Y-111966359D01*
X155350492Y-110834988D01*
X155746471Y-110439009D01*
X156877842Y-111570380D01*
X156877842Y-111570380D01*
G37*
G36*
X156312157Y-112136065D02*
X155916178Y-112532044D01*
X154784807Y-111400673D01*
X155180786Y-111004694D01*
X156312157Y-112136065D01*
X156312157Y-112136065D01*
G37*
G36*
X155746471Y-112701750D02*
X155350492Y-113097729D01*
X154219121Y-111966358D01*
X154615100Y-111570379D01*
X155746471Y-112701750D01*
X155746471Y-112701750D01*
G37*
G36*
X155180786Y-113267436D02*
X154784807Y-113663415D01*
X153653436Y-112532044D01*
X154049415Y-112136065D01*
X155180786Y-113267436D01*
X155180786Y-113267436D01*
G37*
G36*
X154615100Y-113833121D02*
X154219121Y-114229100D01*
X153087750Y-113097729D01*
X153483729Y-112701750D01*
X154615100Y-113833121D01*
X154615100Y-113833121D01*
G37*
G36*
X154049415Y-114398807D02*
X153653436Y-114794786D01*
X152522065Y-113663415D01*
X152918044Y-113267436D01*
X154049415Y-114398807D01*
X154049415Y-114398807D01*
G37*
G36*
X153483729Y-114964492D02*
X153087750Y-115360471D01*
X151956379Y-114229100D01*
X152352358Y-113833121D01*
X153483729Y-114964492D01*
X153483729Y-114964492D01*
G37*
G36*
X152918044Y-115530178D02*
X152522065Y-115926157D01*
X151390694Y-114794786D01*
X151786673Y-114398807D01*
X152918044Y-115530178D01*
X152918044Y-115530178D01*
G37*
G36*
X152352359Y-116095863D02*
X151956380Y-116491842D01*
X150825009Y-115360471D01*
X151220988Y-114964492D01*
X152352359Y-116095863D01*
X152352359Y-116095863D01*
G37*
G36*
X151786673Y-116661548D02*
X151390694Y-117057527D01*
X150259323Y-115926156D01*
X150655302Y-115530177D01*
X151786673Y-116661548D01*
X151786673Y-116661548D01*
G37*
D23*
X155770000Y-130810000D03*
X164270000Y-130810000D03*
D24*
X165862000Y-116840000D03*
X167259000Y-115443000D03*
X166370000Y-114681000D03*
X163195000Y-116967000D03*
X158000000Y-99000000D03*
X150500000Y-99000000D03*
X164973000Y-125984000D03*
X160655000Y-125984000D03*
X162433000Y-136779000D03*
X157607000Y-136779000D03*
X163068000Y-101092000D03*
X164592000Y-101092000D03*
X155500000Y-104500000D03*
X153000000Y-106000000D03*
X151000000Y-96000000D03*
X158000000Y-96000000D03*
X161417000Y-99822000D03*
X159512000Y-103124000D03*
X164592000Y-97028000D03*
X163068000Y-97028000D03*
X149606000Y-120142000D03*
X150749000Y-121285000D03*
X151130000Y-122301000D03*
X151130000Y-123444000D03*
X153035000Y-123698000D03*
X151892000Y-125984000D03*
X151765000Y-127254000D03*
X148082000Y-128905000D03*
X157500000Y-104500000D03*
X150000000Y-101000000D03*
X155321000Y-125984000D03*
X160655000Y-127127000D03*
X159258000Y-127381000D03*
X170307000Y-127254000D03*
X166243000Y-122555000D03*
X166243000Y-121412000D03*
X166370000Y-120269000D03*
X168783000Y-106807000D03*
X160655000Y-114427000D03*
X168402000Y-104140000D03*
X167259000Y-104013000D03*
X157480000Y-107188000D03*
X155321000Y-109220000D03*
X154178000Y-109347000D03*
X154178000Y-110490000D03*
X153035000Y-111633000D03*
X151384000Y-113284000D03*
X154813000Y-114935000D03*
X153924000Y-115824000D03*
X163322000Y-125095000D03*
X163068000Y-123952000D03*
X170307000Y-128778000D03*
X164973000Y-124714000D03*
X168402000Y-117983000D03*
X165100000Y-113792000D03*
D25*
X164953002Y-116293852D02*
X164973000Y-116332000D01*
X164973000Y-116332000D02*
X165354000Y-116332000D01*
X165354000Y-116332000D02*
X165862000Y-116840000D01*
X167259000Y-115443000D02*
X169672000Y-113030000D01*
X169672000Y-113030000D02*
X169672000Y-110490000D01*
X169672000Y-110490000D02*
X170688000Y-110490000D01*
X170688000Y-110490000D02*
X170695620Y-110505240D01*
X170695620Y-109855000D02*
X169291000Y-109855000D01*
X169291000Y-109855000D02*
X166370000Y-112776000D01*
X166370000Y-112776000D02*
X166370000Y-114681000D01*
X163195000Y-116967000D02*
X164338000Y-115824000D01*
X164338000Y-115824000D02*
X164338000Y-115697000D01*
X164338000Y-115697000D02*
X164387316Y-115728167D01*
X160950000Y-101060000D02*
X161000000Y-101000000D01*
X161000000Y-101000000D02*
X160000000Y-101000000D01*
X160000000Y-101000000D02*
X158000000Y-99000000D01*
X150500000Y-99000000D02*
X148000000Y-96500000D01*
X156210000Y-136840000D02*
X156210000Y-136779000D01*
X156210000Y-136779000D02*
X155956000Y-136525000D01*
X155956000Y-136525000D02*
X150495000Y-136525000D01*
X160427518Y-111768369D02*
X160401000Y-111760000D01*
X160401000Y-111760000D02*
X161163000Y-110998000D01*
X161163000Y-110998000D02*
X161163000Y-109855000D01*
X161163000Y-109855000D02*
X161036000Y-109728000D01*
X161036000Y-109728000D02*
X161036000Y-109601000D01*
X161036000Y-109601000D02*
X160909000Y-109474000D01*
X160909000Y-109474000D02*
X160909000Y-101092000D01*
X160909000Y-101092000D02*
X160950000Y-101060000D01*
X166710000Y-101060000D02*
X166751000Y-101092000D01*
X166751000Y-101092000D02*
X169672000Y-104013000D01*
X169672000Y-104013000D02*
X169672000Y-108458000D01*
X169672000Y-108458000D02*
X170561000Y-108458000D01*
X170561000Y-108458000D02*
X170688000Y-108585000D01*
X170688000Y-108585000D02*
X170695620Y-108554520D01*
X166370000Y-126680000D02*
X166370000Y-126619000D01*
X166370000Y-126619000D02*
X166878000Y-127127000D01*
X166878000Y-127127000D02*
X166878000Y-132207000D01*
X166878000Y-132207000D02*
X164592000Y-134493000D01*
X164592000Y-134493000D02*
X164592000Y-135890000D01*
X164592000Y-135890000D02*
X163830000Y-136652000D01*
X163830000Y-136652000D02*
X163830000Y-136840000D01*
X159296148Y-124567002D02*
X159258000Y-124587000D01*
X159258000Y-124587000D02*
X158623000Y-123952000D01*
X158623000Y-123952000D02*
X158623000Y-123444000D01*
X158623000Y-123444000D02*
X159766000Y-122301000D01*
X159766000Y-122301000D02*
X159766000Y-112522000D01*
X159766000Y-112522000D02*
X160401000Y-111887000D01*
X160401000Y-111887000D02*
X160401000Y-111760000D01*
X160401000Y-111760000D02*
X160427518Y-111768369D01*
X166370000Y-126680000D02*
X166370000Y-126619000D01*
X166370000Y-126619000D02*
X165608000Y-126619000D01*
X165608000Y-126619000D02*
X164973000Y-125984000D01*
X160655000Y-125984000D02*
X159258000Y-124587000D01*
X159258000Y-124587000D02*
X159296148Y-124567002D01*
X160427518Y-111768369D02*
X160401000Y-111760000D01*
X160909000Y-101092000D02*
X160950000Y-101060000D01*
X160950000Y-101060000D02*
X160909000Y-101092000D01*
X163830000Y-136840000D02*
X163830000Y-136779000D01*
X163830000Y-136779000D02*
X162433000Y-136779000D01*
X157607000Y-136779000D02*
X156210000Y-136779000D01*
X156210000Y-136779000D02*
X156210000Y-136840000D01*
X156210000Y-136840000D02*
X156210000Y-136779000D01*
X160950000Y-101060000D02*
X160909000Y-101092000D01*
X160909000Y-101092000D02*
X163068000Y-101092000D01*
X164592000Y-101092000D02*
X166751000Y-101092000D01*
X166751000Y-101092000D02*
X166710000Y-101060000D01*
X170695620Y-108554520D02*
X170688000Y-108585000D01*
X170688000Y-108585000D02*
X170688000Y-109220000D01*
X170688000Y-109220000D02*
X170695620Y-109204760D01*
X159537400Y-104502520D02*
X159500000Y-104500000D01*
X159500000Y-104500000D02*
X159000000Y-104500000D01*
X159000000Y-104500000D02*
X158000000Y-103500000D01*
X158000000Y-103500000D02*
X156500000Y-103500000D01*
X156500000Y-103500000D02*
X155500000Y-104500000D01*
X153000000Y-106000000D02*
X149500000Y-109500000D01*
X149500000Y-109500000D02*
X149500000Y-116500000D01*
X149500000Y-116500000D02*
X151000000Y-118000000D01*
X151000000Y-118000000D02*
X151000000Y-119000000D01*
X151000000Y-119000000D02*
X151022998Y-118910148D01*
X148000000Y-93500000D02*
X148500000Y-93500000D01*
X148500000Y-93500000D02*
X151000000Y-96000000D01*
X158000000Y-96000000D02*
X160000000Y-96000000D01*
X160000000Y-96000000D02*
X161000000Y-97000000D01*
X161000000Y-97000000D02*
X160950000Y-97060000D01*
X151003000Y-118872000D02*
X151022998Y-118910148D01*
X160950000Y-97060000D02*
X160909000Y-97028000D01*
X160909000Y-97028000D02*
X161417000Y-97536000D01*
X161417000Y-97536000D02*
X161417000Y-99822000D01*
X159512000Y-103124000D02*
X159512000Y-104521000D01*
X159512000Y-104521000D02*
X159537400Y-104502520D01*
X151003000Y-118872000D02*
X151022998Y-118910148D01*
X160950000Y-97060000D02*
X160909000Y-97028000D01*
X166710000Y-97060000D02*
X166751000Y-97028000D01*
X166751000Y-97028000D02*
X164592000Y-97028000D01*
X163068000Y-97028000D02*
X160909000Y-97028000D01*
X160909000Y-97028000D02*
X160950000Y-97060000D01*
X151588684Y-119475833D02*
X151638000Y-119507000D01*
X151638000Y-119507000D02*
X151511000Y-119507000D01*
X151511000Y-119507000D02*
X150876000Y-120142000D01*
X150876000Y-120142000D02*
X149606000Y-120142000D01*
X152154369Y-120041518D02*
X152146000Y-120015000D01*
X152146000Y-120015000D02*
X151384000Y-120777000D01*
X151384000Y-120777000D02*
X151257000Y-120777000D01*
X151257000Y-120777000D02*
X150749000Y-121285000D01*
X152720054Y-120607204D02*
X152781000Y-120650000D01*
X152781000Y-120650000D02*
X151130000Y-122301000D01*
X153285740Y-121172889D02*
X153289000Y-121158000D01*
X153289000Y-121158000D02*
X151765000Y-122682000D01*
X151765000Y-122682000D02*
X151765000Y-122809000D01*
X151765000Y-122809000D02*
X151130000Y-123444000D01*
X151880000Y-102870000D02*
X151892000Y-102870000D01*
X151892000Y-102870000D02*
X157988000Y-108966000D01*
X157988000Y-108966000D02*
X157988000Y-111125000D01*
X157988000Y-111125000D02*
X155575000Y-113538000D01*
X155575000Y-113538000D02*
X155575000Y-115189000D01*
X155575000Y-115189000D02*
X155448000Y-115316000D01*
X155448000Y-115316000D02*
X155448000Y-115443000D01*
X155448000Y-115443000D02*
X154559000Y-116332000D01*
X154559000Y-116332000D02*
X154559000Y-120904000D01*
X154559000Y-120904000D02*
X153797000Y-121666000D01*
X153797000Y-121666000D02*
X153797000Y-121793000D01*
X153797000Y-121793000D02*
X153851425Y-121738575D01*
X154417111Y-122304260D02*
X154432000Y-122301000D01*
X154432000Y-122301000D02*
X153035000Y-123698000D01*
X154982796Y-122869946D02*
X154940000Y-122809000D01*
X154940000Y-122809000D02*
X153670000Y-124079000D01*
X153670000Y-124079000D02*
X153670000Y-124206000D01*
X153670000Y-124206000D02*
X151892000Y-125984000D01*
X151765000Y-127254000D02*
X155575000Y-123444000D01*
X155575000Y-123444000D02*
X155548482Y-123435631D01*
X156114167Y-124001316D02*
X156083000Y-123952000D01*
X156083000Y-123952000D02*
X152400000Y-127635000D01*
X152400000Y-127635000D02*
X152400000Y-127762000D01*
X152400000Y-127762000D02*
X152273000Y-127889000D01*
X152273000Y-127889000D02*
X152146000Y-127889000D01*
X152146000Y-127889000D02*
X152019000Y-128016000D01*
X152019000Y-128016000D02*
X148971000Y-128016000D01*
X148971000Y-128016000D02*
X148082000Y-128905000D01*
X159537400Y-106002520D02*
X159500000Y-106000000D01*
X159500000Y-106000000D02*
X159000000Y-106000000D01*
X159000000Y-106000000D02*
X157500000Y-104500000D01*
X150000000Y-101000000D02*
X148500000Y-101000000D01*
X148500000Y-101000000D02*
X148000000Y-100500000D01*
X148000000Y-100500000D02*
X148000000Y-100400000D01*
X156679852Y-124567002D02*
X156718000Y-124587000D01*
X156718000Y-124587000D02*
X155321000Y-125984000D01*
X159537400Y-106002520D02*
X159512000Y-106045000D01*
X159861833Y-111202684D02*
X159893000Y-111252000D01*
X159893000Y-111252000D02*
X160528000Y-110617000D01*
X160528000Y-110617000D02*
X160528000Y-110109000D01*
X160528000Y-110109000D02*
X159512000Y-109093000D01*
X159512000Y-109093000D02*
X159512000Y-106045000D01*
X159512000Y-106045000D02*
X159537400Y-106002520D01*
X156679852Y-124567002D02*
X156718000Y-124587000D01*
X159861833Y-111202684D02*
X159893000Y-111252000D01*
X159893000Y-111252000D02*
X157353000Y-113792000D01*
X157353000Y-113792000D02*
X157353000Y-123825000D01*
X157353000Y-123825000D02*
X156718000Y-124460000D01*
X156718000Y-124460000D02*
X156718000Y-124587000D01*
X156718000Y-124587000D02*
X156679852Y-124567002D01*
X159861833Y-124001316D02*
X159893000Y-123952000D01*
X159893000Y-123952000D02*
X161417000Y-125476000D01*
X161417000Y-125476000D02*
X161417000Y-126238000D01*
X161417000Y-126238000D02*
X161290000Y-126365000D01*
X161290000Y-126365000D02*
X161290000Y-126492000D01*
X161290000Y-126492000D02*
X160655000Y-127127000D01*
X159258000Y-127381000D02*
X155829000Y-130810000D01*
X155829000Y-130810000D02*
X155770000Y-130810000D01*
X155770000Y-130810000D02*
X155829000Y-130810000D01*
X155829000Y-130810000D02*
X156210000Y-131191000D01*
X156210000Y-131191000D02*
X156210000Y-134940000D01*
X160427518Y-123435631D02*
X160401000Y-123444000D01*
X160401000Y-123444000D02*
X164211000Y-127254000D01*
X164211000Y-127254000D02*
X164211000Y-130810000D01*
X164211000Y-130810000D02*
X164270000Y-130810000D01*
X164270000Y-130810000D02*
X164211000Y-130810000D01*
X164211000Y-130810000D02*
X163830000Y-131191000D01*
X163830000Y-131191000D02*
X163830000Y-134940000D01*
X166370000Y-124780000D02*
X166370000Y-124841000D01*
X166370000Y-124841000D02*
X162687000Y-121158000D01*
X162687000Y-121158000D02*
X162690260Y-121172889D01*
X163255946Y-120607204D02*
X163195000Y-120650000D01*
X163195000Y-120650000D02*
X165735000Y-123190000D01*
X165735000Y-123190000D02*
X165862000Y-123190000D01*
X165862000Y-123190000D02*
X165989000Y-123317000D01*
X165989000Y-123317000D02*
X166624000Y-123317000D01*
X166624000Y-123317000D02*
X170307000Y-127000000D01*
X170307000Y-127000000D02*
X170307000Y-127254000D01*
X163821631Y-120041518D02*
X163830000Y-120015000D01*
X163830000Y-120015000D02*
X165608000Y-121793000D01*
X165608000Y-121793000D02*
X165608000Y-121920000D01*
X165608000Y-121920000D02*
X166243000Y-122555000D01*
X166243000Y-121412000D02*
X164338000Y-119507000D01*
X164338000Y-119507000D02*
X164387316Y-119475833D01*
X166370000Y-120269000D02*
X164973000Y-118872000D01*
X164973000Y-118872000D02*
X164953002Y-118910148D01*
X168783000Y-106807000D02*
X163322000Y-112268000D01*
X163322000Y-112268000D02*
X163322000Y-113284000D01*
X163322000Y-113284000D02*
X162687000Y-113919000D01*
X162687000Y-113919000D02*
X162687000Y-114046000D01*
X162687000Y-114046000D02*
X162690260Y-114031111D01*
X162124575Y-113465425D02*
X162179000Y-113411000D01*
X162179000Y-113411000D02*
X162052000Y-113411000D01*
X162052000Y-113411000D02*
X161290000Y-114173000D01*
X161290000Y-114173000D02*
X160909000Y-114173000D01*
X160909000Y-114173000D02*
X160655000Y-114427000D01*
X161558889Y-112899740D02*
X161544000Y-112903000D01*
X161544000Y-112903000D02*
X168402000Y-106045000D01*
X168402000Y-106045000D02*
X168402000Y-104140000D01*
X160993204Y-112334054D02*
X161036000Y-112395000D01*
X161036000Y-112395000D02*
X167259000Y-106172000D01*
X167259000Y-106172000D02*
X167259000Y-104013000D01*
X159296148Y-110636998D02*
X159258000Y-110617000D01*
X159258000Y-110617000D02*
X158623000Y-109982000D01*
X158623000Y-109982000D02*
X158623000Y-108712000D01*
X158623000Y-108712000D02*
X158496000Y-108585000D01*
X158496000Y-108585000D02*
X158496000Y-108458000D01*
X158496000Y-108458000D02*
X157480000Y-107442000D01*
X157480000Y-107442000D02*
X157480000Y-107188000D01*
X155321000Y-109220000D02*
X156718000Y-110617000D01*
X156718000Y-110617000D02*
X156679852Y-110636998D01*
X156114167Y-111202684D02*
X156083000Y-111252000D01*
X156083000Y-111252000D02*
X154178000Y-109347000D01*
X154178000Y-110490000D02*
X154305000Y-110490000D01*
X154305000Y-110490000D02*
X155575000Y-111760000D01*
X155575000Y-111760000D02*
X155548482Y-111768369D01*
X154982796Y-112334054D02*
X154940000Y-112395000D01*
X154940000Y-112395000D02*
X154178000Y-111633000D01*
X154178000Y-111633000D02*
X153035000Y-111633000D01*
X154417111Y-112899740D02*
X154432000Y-112903000D01*
X154432000Y-112903000D02*
X154305000Y-112903000D01*
X154305000Y-112903000D02*
X153670000Y-112268000D01*
X153670000Y-112268000D02*
X153289000Y-112268000D01*
X153289000Y-112268000D02*
X153289000Y-112395000D01*
X153289000Y-112395000D02*
X152273000Y-112395000D01*
X152273000Y-112395000D02*
X151384000Y-113284000D01*
X153851425Y-113465425D02*
X154813000Y-114427000D01*
X154813000Y-114427000D02*
X154813000Y-114935000D01*
X153924000Y-115824000D02*
X153924000Y-114808000D01*
X153924000Y-114808000D02*
X153289000Y-114173000D01*
X153289000Y-114173000D02*
X153289000Y-114046000D01*
X153289000Y-114046000D02*
X153285740Y-114031111D01*
X150380000Y-102870000D02*
X150500000Y-103000000D01*
X150500000Y-103000000D02*
X148500000Y-103000000D01*
X148500000Y-103000000D02*
X148000000Y-102500000D01*
X148000000Y-102500000D02*
X148000000Y-102600000D01*
X163322000Y-125095000D02*
X163068000Y-125095000D01*
X163068000Y-125095000D02*
X161671000Y-123698000D01*
X161671000Y-123698000D02*
X161671000Y-123571000D01*
X161671000Y-123571000D02*
X161036000Y-122936000D01*
X161036000Y-122936000D02*
X161036000Y-122809000D01*
X161036000Y-122809000D02*
X160993204Y-122869946D01*
X161558889Y-122304260D02*
X161544000Y-122301000D01*
X161544000Y-122301000D02*
X163068000Y-123825000D01*
X163068000Y-123825000D02*
X163068000Y-123952000D01*
X170307000Y-128778000D02*
X171831000Y-130302000D01*
X171831000Y-130302000D02*
X171831000Y-131699000D01*
X171831000Y-131699000D02*
X172339000Y-131699000D01*
X172339000Y-131699000D02*
X172720000Y-132080000D01*
X162124575Y-121738575D02*
X164973000Y-124587000D01*
X164973000Y-124587000D02*
X164973000Y-124714000D01*
X168402000Y-117983000D02*
X164973000Y-114554000D01*
X164973000Y-114554000D02*
X164846000Y-114554000D01*
X164846000Y-114554000D02*
X164846000Y-114427000D01*
X164846000Y-114427000D02*
X164592000Y-114427000D01*
X164592000Y-114427000D02*
X163830000Y-115189000D01*
X163830000Y-115189000D02*
X163821631Y-115162482D01*
X165100000Y-113792000D02*
X163957000Y-113792000D01*
X163957000Y-113792000D02*
X163195000Y-114554000D01*
X163195000Y-114554000D02*
X163255946Y-114596796D01*
X150495000Y-135255000D02*
X150495000Y-131445000D01*
D26*
G36*
X175058000Y-144578000D02*
X142442000Y-144578000D01*
X142442000Y-142343599D01*
X154264699Y-142343599D01*
X154528281Y-142981515D01*
X155015918Y-143470004D01*
X155653373Y-143734699D01*
X156343599Y-143735301D01*
X156981515Y-143471719D01*
X157470004Y-142984082D01*
X157734699Y-142346627D01*
X157735301Y-141656401D01*
X157471719Y-141018485D01*
X156984082Y-140529996D01*
X156346627Y-140265301D01*
X155656401Y-140264699D01*
X155018485Y-140528281D01*
X154529996Y-141015918D01*
X154265301Y-141653373D01*
X154264699Y-142343599D01*
X142442000Y-142343599D01*
X142442000Y-136826874D01*
X149400881Y-136826874D01*
X149507873Y-137085209D01*
X149797396Y-137420323D01*
X150193123Y-137619132D01*
X150368000Y-137494135D01*
X150368000Y-136652000D01*
X150622000Y-136652000D01*
X150622000Y-137494135D01*
X150796877Y-137619132D01*
X151192604Y-137420323D01*
X151447101Y-137125750D01*
X155200000Y-137125750D01*
X155200000Y-137566309D01*
X155296673Y-137799698D01*
X155475301Y-137978327D01*
X155708690Y-138075000D01*
X155924250Y-138075000D01*
X156083000Y-137916250D01*
X156083000Y-136967000D01*
X156337000Y-136967000D01*
X156337000Y-137916250D01*
X156495750Y-138075000D01*
X156711310Y-138075000D01*
X156944699Y-137978327D01*
X157123327Y-137799698D01*
X157220000Y-137566309D01*
X157220000Y-137125750D01*
X162820000Y-137125750D01*
X162820000Y-137566309D01*
X162916673Y-137799698D01*
X163095301Y-137978327D01*
X163328690Y-138075000D01*
X163544250Y-138075000D01*
X163703000Y-137916250D01*
X163703000Y-136967000D01*
X163957000Y-136967000D01*
X163957000Y-137916250D01*
X164115750Y-138075000D01*
X164331310Y-138075000D01*
X164564699Y-137978327D01*
X164743327Y-137799698D01*
X164840000Y-137566309D01*
X164840000Y-137125750D01*
X164681250Y-136967000D01*
X163957000Y-136967000D01*
X163703000Y-136967000D01*
X162978750Y-136967000D01*
X162820000Y-137125750D01*
X157220000Y-137125750D01*
X157061250Y-136967000D01*
X156337000Y-136967000D01*
X156083000Y-136967000D01*
X155358750Y-136967000D01*
X155200000Y-137125750D01*
X151447101Y-137125750D01*
X151482127Y-137085209D01*
X151589119Y-136826874D01*
X151462954Y-136652000D01*
X150622000Y-136652000D01*
X150368000Y-136652000D01*
X149527046Y-136652000D01*
X149400881Y-136826874D01*
X142442000Y-136826874D01*
X142442000Y-120015000D01*
X144257764Y-120015000D01*
X144344161Y-120449346D01*
X144478234Y-120650000D01*
X144344161Y-120850654D01*
X144257764Y-121285000D01*
X144344161Y-121719346D01*
X144478234Y-121920000D01*
X144344161Y-122120654D01*
X144257764Y-122555000D01*
X144344161Y-122989346D01*
X144478234Y-123190000D01*
X144344161Y-123390654D01*
X144257764Y-123825000D01*
X144344161Y-124259346D01*
X144478234Y-124460000D01*
X144344161Y-124660654D01*
X144257764Y-125095000D01*
X144344161Y-125529346D01*
X144478234Y-125730000D01*
X144344161Y-125930654D01*
X144257764Y-126365000D01*
X144344161Y-126799346D01*
X144478234Y-127000000D01*
X144344161Y-127200654D01*
X144257764Y-127635000D01*
X144344161Y-128069346D01*
X144359805Y-128092759D01*
X144318569Y-128153110D01*
X144267560Y-128405000D01*
X144267560Y-129405000D01*
X144311838Y-129640317D01*
X144450910Y-129856441D01*
X144663110Y-130001431D01*
X144915000Y-130052440D01*
X145915000Y-130052440D01*
X146150317Y-130008162D01*
X146366441Y-129869090D01*
X146511431Y-129656890D01*
X146562440Y-129405000D01*
X146562440Y-128405000D01*
X146518162Y-128169683D01*
X146469414Y-128093927D01*
X146485839Y-128069346D01*
X146572236Y-127635000D01*
X146485839Y-127200654D01*
X146351766Y-127000000D01*
X146485839Y-126799346D01*
X146572236Y-126365000D01*
X146485839Y-125930654D01*
X146351766Y-125730000D01*
X146485839Y-125529346D01*
X146572236Y-125095000D01*
X146485839Y-124660654D01*
X146351766Y-124460000D01*
X146485839Y-124259346D01*
X146572236Y-123825000D01*
X146485839Y-123390654D01*
X146351766Y-123190000D01*
X146485839Y-122989346D01*
X146572236Y-122555000D01*
X146485839Y-122120654D01*
X146351766Y-121920000D01*
X146485839Y-121719346D01*
X146572236Y-121285000D01*
X146485839Y-120850654D01*
X146351766Y-120650000D01*
X146485839Y-120449346D01*
X146572236Y-120015000D01*
X146485839Y-119580654D01*
X146239802Y-119212434D01*
X145871582Y-118966397D01*
X145437236Y-118880000D01*
X145392764Y-118880000D01*
X144958418Y-118966397D01*
X144590198Y-119212434D01*
X144344161Y-119580654D01*
X144257764Y-120015000D01*
X142442000Y-120015000D01*
X142442000Y-108585000D01*
X144257764Y-108585000D01*
X144344161Y-109019346D01*
X144478234Y-109220000D01*
X144344161Y-109420654D01*
X144257764Y-109855000D01*
X144344161Y-110289346D01*
X144478234Y-110490000D01*
X144344161Y-110690654D01*
X144257764Y-111125000D01*
X144344161Y-111559346D01*
X144478234Y-111760000D01*
X144344161Y-111960654D01*
X144257764Y-112395000D01*
X144344161Y-112829346D01*
X144478234Y-113030000D01*
X144344161Y-113230654D01*
X144257764Y-113665000D01*
X144344161Y-114099346D01*
X144478234Y-114300000D01*
X144344161Y-114500654D01*
X144257764Y-114935000D01*
X144344161Y-115369346D01*
X144478234Y-115570000D01*
X144344161Y-115770654D01*
X144257764Y-116205000D01*
X144344161Y-116639346D01*
X144590198Y-117007566D01*
X144958418Y-117253603D01*
X145392764Y-117340000D01*
X145437236Y-117340000D01*
X145871582Y-117253603D01*
X146239802Y-117007566D01*
X146485839Y-116639346D01*
X146572236Y-116205000D01*
X146485839Y-115770654D01*
X146351766Y-115570000D01*
X146485839Y-115369346D01*
X146572236Y-114935000D01*
X146485839Y-114500654D01*
X146351766Y-114300000D01*
X146485839Y-114099346D01*
X146572236Y-113665000D01*
X146485839Y-113230654D01*
X146351766Y-113030000D01*
X146485839Y-112829346D01*
X146572236Y-112395000D01*
X146485839Y-111960654D01*
X146351766Y-111760000D01*
X146485839Y-111559346D01*
X146572236Y-111125000D01*
X146485839Y-110690654D01*
X146351766Y-110490000D01*
X146485839Y-110289346D01*
X146572236Y-109855000D01*
X146485839Y-109420654D01*
X146351766Y-109220000D01*
X146485839Y-109019346D01*
X146572236Y-108585000D01*
X146485839Y-108150654D01*
X146470195Y-108127241D01*
X146511431Y-108066890D01*
X146562440Y-107815000D01*
X146562440Y-106815000D01*
X146518162Y-106579683D01*
X146379090Y-106363559D01*
X146166890Y-106218569D01*
X145915000Y-106167560D01*
X144915000Y-106167560D01*
X144679683Y-106211838D01*
X144463559Y-106350910D01*
X144318569Y-106563110D01*
X144267560Y-106815000D01*
X144267560Y-107815000D01*
X144311838Y-108050317D01*
X144360586Y-108126073D01*
X144344161Y-108150654D01*
X144257764Y-108585000D01*
X142442000Y-108585000D01*
X142442000Y-99800000D01*
X146752560Y-99800000D01*
X146752560Y-101000000D01*
X146796838Y-101235317D01*
X146935910Y-101451441D01*
X147005711Y-101499134D01*
X146948559Y-101535910D01*
X146803569Y-101748110D01*
X146752560Y-102000000D01*
X146752560Y-103200000D01*
X146796838Y-103435317D01*
X146935910Y-103651441D01*
X147148110Y-103796431D01*
X147400000Y-103847440D01*
X148600000Y-103847440D01*
X148835317Y-103803162D01*
X148902393Y-103760000D01*
X149658548Y-103760000D01*
X149665910Y-103771441D01*
X149878110Y-103916431D01*
X150130000Y-103967440D01*
X150630000Y-103967440D01*
X150865317Y-103923162D01*
X151081441Y-103784090D01*
X151129134Y-103714289D01*
X151165910Y-103771441D01*
X151378110Y-103916431D01*
X151630000Y-103967440D01*
X151914638Y-103967440D01*
X152962165Y-105014967D01*
X152804931Y-105014830D01*
X152442771Y-105164471D01*
X152165445Y-105441314D01*
X152015172Y-105803212D01*
X152015079Y-105910119D01*
X148962599Y-108962599D01*
X148797852Y-109209161D01*
X148740000Y-109500000D01*
X148740000Y-116500000D01*
X148797852Y-116790839D01*
X148962599Y-117037401D01*
X150240000Y-118314802D01*
X150240000Y-118381549D01*
X149801514Y-118820035D01*
X149666429Y-119017738D01*
X149636213Y-119157027D01*
X149410931Y-119156830D01*
X149048771Y-119306471D01*
X148771445Y-119583314D01*
X148621172Y-119945212D01*
X148620830Y-120337069D01*
X148770471Y-120699229D01*
X149047314Y-120976555D01*
X149409212Y-121126828D01*
X149764138Y-121127138D01*
X149763830Y-121480069D01*
X149913471Y-121842229D01*
X150153934Y-122083111D01*
X150145172Y-122104212D01*
X150144830Y-122496069D01*
X150294471Y-122858229D01*
X150308500Y-122872282D01*
X150295445Y-122885314D01*
X150145172Y-123247212D01*
X150144830Y-123639069D01*
X150294471Y-124001229D01*
X150571314Y-124278555D01*
X150933212Y-124428828D01*
X151325069Y-124429170D01*
X151687229Y-124279529D01*
X151964555Y-124002686D01*
X152049914Y-123797119D01*
X152049830Y-123893069D01*
X152199471Y-124255229D01*
X152372569Y-124428629D01*
X151802276Y-124998922D01*
X151696931Y-124998830D01*
X151334771Y-125148471D01*
X151057445Y-125425314D01*
X150907172Y-125787212D01*
X150906830Y-126179069D01*
X151056471Y-126541229D01*
X151070610Y-126555393D01*
X150930445Y-126695314D01*
X150780172Y-127057212D01*
X150779999Y-127256000D01*
X148971000Y-127256000D01*
X148680161Y-127313852D01*
X148433599Y-127478599D01*
X147992276Y-127919922D01*
X147886931Y-127919830D01*
X147524771Y-128069471D01*
X147247445Y-128346314D01*
X147097172Y-128708212D01*
X147096830Y-129100069D01*
X147246471Y-129462229D01*
X147523314Y-129739555D01*
X147885212Y-129889828D01*
X148277069Y-129890170D01*
X148639229Y-129740529D01*
X148916555Y-129463686D01*
X149066828Y-129101788D01*
X149066921Y-128994881D01*
X149285802Y-128776000D01*
X149347560Y-128776000D01*
X149347560Y-129405000D01*
X149391838Y-129640317D01*
X149440586Y-129716073D01*
X149424161Y-129740654D01*
X149337764Y-130175000D01*
X149424161Y-130609346D01*
X149558234Y-130810000D01*
X149424161Y-131010654D01*
X149337764Y-131445000D01*
X149424161Y-131879346D01*
X149670198Y-132247566D01*
X149735000Y-132290865D01*
X149735000Y-134167721D01*
X149543559Y-134290910D01*
X149398569Y-134503110D01*
X149347560Y-134755000D01*
X149347560Y-135755000D01*
X149391838Y-135990317D01*
X149456003Y-136090032D01*
X149400881Y-136223126D01*
X149527046Y-136398000D01*
X149973075Y-136398000D01*
X149995000Y-136402440D01*
X150995000Y-136402440D01*
X151018597Y-136398000D01*
X151462954Y-136398000D01*
X151589119Y-136223126D01*
X151534233Y-136090602D01*
X151591431Y-136006890D01*
X151642440Y-135755000D01*
X151642440Y-134755000D01*
X151598162Y-134519683D01*
X151459090Y-134303559D01*
X151255000Y-134164110D01*
X151255000Y-132290865D01*
X151319802Y-132247566D01*
X151565839Y-131879346D01*
X151652236Y-131445000D01*
X151565839Y-131010654D01*
X151431766Y-130810000D01*
X151565839Y-130609346D01*
X151652236Y-130175000D01*
X151565839Y-129740654D01*
X151550195Y-129717241D01*
X151591431Y-129656890D01*
X151642440Y-129405000D01*
X151642440Y-128776000D01*
X152019000Y-128776000D01*
X152309839Y-128718148D01*
X152472809Y-128609255D01*
X152563839Y-128591148D01*
X152810401Y-128426401D01*
X152937401Y-128299401D01*
X153102148Y-128052839D01*
X153113368Y-127996434D01*
X154526986Y-126582816D01*
X154762314Y-126818555D01*
X155124212Y-126968828D01*
X155516069Y-126969170D01*
X155878229Y-126819529D01*
X156155555Y-126542686D01*
X156305828Y-126180788D01*
X156305921Y-126073881D01*
X156424585Y-125955217D01*
X156555783Y-125930531D01*
X156769965Y-125788486D01*
X157901336Y-124657115D01*
X157984418Y-124535520D01*
X157994146Y-124559005D01*
X158447090Y-125011949D01*
X158671596Y-125011949D01*
X159116233Y-124567313D01*
X159295838Y-124746918D01*
X158851201Y-125191554D01*
X158851201Y-125416060D01*
X159304145Y-125869004D01*
X159537534Y-125965677D01*
X159790153Y-125965678D01*
X160023542Y-125869005D01*
X160108790Y-125783756D01*
X160108790Y-125559250D01*
X159773679Y-125224138D01*
X159969423Y-125357885D01*
X160220585Y-125412369D01*
X160269385Y-125403187D01*
X160657000Y-125790802D01*
X160657000Y-125970673D01*
X160587852Y-126074161D01*
X160576632Y-126130566D01*
X160565276Y-126141922D01*
X160459931Y-126141830D01*
X160097771Y-126291471D01*
X159829497Y-126559278D01*
X159816686Y-126546445D01*
X159454788Y-126396172D01*
X159062931Y-126395830D01*
X158700771Y-126545471D01*
X158423445Y-126822314D01*
X158273172Y-127184212D01*
X158273079Y-127291119D01*
X156401638Y-129162560D01*
X153520000Y-129162560D01*
X153284683Y-129206838D01*
X153068559Y-129345910D01*
X152923569Y-129558110D01*
X152872560Y-129810000D01*
X152872560Y-131810000D01*
X152916838Y-132045317D01*
X153055910Y-132261441D01*
X153268110Y-132406431D01*
X153520000Y-132457440D01*
X155450000Y-132457440D01*
X155450000Y-133833156D01*
X155383559Y-133875910D01*
X155238569Y-134088110D01*
X155187560Y-134340000D01*
X155187560Y-135540000D01*
X155231838Y-135775317D01*
X155298329Y-135878646D01*
X155296673Y-135880302D01*
X155200000Y-136113691D01*
X155200000Y-136554250D01*
X155358750Y-136713000D01*
X156083000Y-136713000D01*
X156083000Y-136693000D01*
X156337000Y-136693000D01*
X156337000Y-136713000D01*
X157061250Y-136713000D01*
X157220000Y-136554250D01*
X157220000Y-136113691D01*
X157123327Y-135880302D01*
X157121957Y-135878932D01*
X157181431Y-135791890D01*
X157232440Y-135540000D01*
X157232440Y-134340000D01*
X157188162Y-134104683D01*
X157049090Y-133888559D01*
X156970000Y-133834519D01*
X156970000Y-132457440D01*
X158020000Y-132457440D01*
X158255317Y-132413162D01*
X158471441Y-132274090D01*
X158616431Y-132061890D01*
X158667440Y-131810000D01*
X158667440Y-129810000D01*
X158623162Y-129574683D01*
X158484090Y-129358559D01*
X158407544Y-129306258D01*
X159347724Y-128366078D01*
X159453069Y-128366170D01*
X159815229Y-128216529D01*
X160083503Y-127948722D01*
X160096314Y-127961555D01*
X160458212Y-128111828D01*
X160850069Y-128112170D01*
X161212229Y-127962529D01*
X161489555Y-127685686D01*
X161639828Y-127323788D01*
X161639921Y-127216881D01*
X161827401Y-127029401D01*
X161992148Y-126782839D01*
X162010255Y-126691809D01*
X162119148Y-126528839D01*
X162167576Y-126285378D01*
X163451000Y-127568802D01*
X163451000Y-129162560D01*
X162020000Y-129162560D01*
X161784683Y-129206838D01*
X161568559Y-129345910D01*
X161423569Y-129558110D01*
X161372560Y-129810000D01*
X161372560Y-131810000D01*
X161416838Y-132045317D01*
X161555910Y-132261441D01*
X161768110Y-132406431D01*
X162020000Y-132457440D01*
X163070000Y-132457440D01*
X163070000Y-133833156D01*
X163003559Y-133875910D01*
X162858569Y-134088110D01*
X162807560Y-134340000D01*
X162807560Y-135540000D01*
X162851838Y-135775317D01*
X162918329Y-135878646D01*
X162916673Y-135880302D01*
X162820000Y-136113691D01*
X162820000Y-136554250D01*
X162978750Y-136713000D01*
X163703000Y-136713000D01*
X163703000Y-136693000D01*
X163957000Y-136693000D01*
X163957000Y-136713000D01*
X164681250Y-136713000D01*
X164840000Y-136554250D01*
X164840000Y-136113691D01*
X164743327Y-135880302D01*
X164741957Y-135878932D01*
X164801431Y-135791890D01*
X164852440Y-135540000D01*
X164852440Y-134340000D01*
X164808162Y-134104683D01*
X164669090Y-133888559D01*
X164590000Y-133834519D01*
X164590000Y-132457440D01*
X166520000Y-132457440D01*
X166755317Y-132413162D01*
X166971441Y-132274090D01*
X167116431Y-132061890D01*
X167167440Y-131810000D01*
X167167440Y-129810000D01*
X167123162Y-129574683D01*
X166984090Y-129358559D01*
X166771890Y-129213569D01*
X166520000Y-129162560D01*
X164971000Y-129162560D01*
X164971000Y-127254000D01*
X164913663Y-126965750D01*
X165360000Y-126965750D01*
X165360000Y-127406309D01*
X165456673Y-127639698D01*
X165635301Y-127818327D01*
X165868690Y-127915000D01*
X166084250Y-127915000D01*
X166243000Y-127756250D01*
X166243000Y-126807000D01*
X166497000Y-126807000D01*
X166497000Y-127756250D01*
X166655750Y-127915000D01*
X166871310Y-127915000D01*
X167104699Y-127818327D01*
X167283327Y-127639698D01*
X167380000Y-127406309D01*
X167380000Y-126965750D01*
X167221250Y-126807000D01*
X166497000Y-126807000D01*
X166243000Y-126807000D01*
X165518750Y-126807000D01*
X165360000Y-126965750D01*
X164913663Y-126965750D01*
X164913148Y-126963161D01*
X164748401Y-126716599D01*
X163920816Y-125889014D01*
X164156555Y-125653686D01*
X164263106Y-125397083D01*
X164414314Y-125548555D01*
X164776212Y-125698828D01*
X165168069Y-125699170D01*
X165390335Y-125607332D01*
X165391838Y-125615317D01*
X165458329Y-125718646D01*
X165456673Y-125720302D01*
X165360000Y-125953691D01*
X165360000Y-126394250D01*
X165518750Y-126553000D01*
X166243000Y-126553000D01*
X166243000Y-126533000D01*
X166497000Y-126533000D01*
X166497000Y-126553000D01*
X167221250Y-126553000D01*
X167380000Y-126394250D01*
X167380000Y-125953691D01*
X167283327Y-125720302D01*
X167281957Y-125718932D01*
X167341431Y-125631890D01*
X167392440Y-125380000D01*
X167392440Y-125160242D01*
X169322143Y-127089945D01*
X169321830Y-127449069D01*
X169471471Y-127811229D01*
X169675999Y-128016114D01*
X169472445Y-128219314D01*
X169322172Y-128581212D01*
X169321830Y-128973069D01*
X169471471Y-129335229D01*
X169748314Y-129612555D01*
X170110212Y-129762828D01*
X170217119Y-129762921D01*
X171071000Y-130616802D01*
X171071000Y-131699000D01*
X171128852Y-131989839D01*
X171293599Y-132236401D01*
X171540161Y-132401148D01*
X171630207Y-132419059D01*
X171649161Y-132514346D01*
X171664805Y-132537759D01*
X171623569Y-132598110D01*
X171572560Y-132850000D01*
X171572560Y-133850000D01*
X171616838Y-134085317D01*
X171755910Y-134301441D01*
X171968110Y-134446431D01*
X172220000Y-134497440D01*
X173220000Y-134497440D01*
X173455317Y-134453162D01*
X173671441Y-134314090D01*
X173816431Y-134101890D01*
X173867440Y-133850000D01*
X173867440Y-132850000D01*
X173823162Y-132614683D01*
X173774414Y-132538927D01*
X173790839Y-132514346D01*
X173877236Y-132080000D01*
X173790839Y-131645654D01*
X173656766Y-131445000D01*
X173790839Y-131244346D01*
X173877236Y-130810000D01*
X173790839Y-130375654D01*
X173544802Y-130007434D01*
X173176582Y-129761397D01*
X172742236Y-129675000D01*
X172697764Y-129675000D01*
X172348312Y-129744510D01*
X171292078Y-128688276D01*
X171292170Y-128582931D01*
X171142529Y-128220771D01*
X170938001Y-128015886D01*
X171141555Y-127812686D01*
X171291828Y-127450788D01*
X171292170Y-127058931D01*
X171142529Y-126696771D01*
X170865686Y-126419445D01*
X170755489Y-126373687D01*
X170746802Y-126365000D01*
X171562764Y-126365000D01*
X171649161Y-126799346D01*
X171664805Y-126822759D01*
X171623569Y-126883110D01*
X171572560Y-127135000D01*
X171572560Y-128135000D01*
X171616838Y-128370317D01*
X171755910Y-128586441D01*
X171968110Y-128731431D01*
X172220000Y-128782440D01*
X173220000Y-128782440D01*
X173455317Y-128738162D01*
X173671441Y-128599090D01*
X173816431Y-128386890D01*
X173867440Y-128135000D01*
X173867440Y-127135000D01*
X173823162Y-126899683D01*
X173774414Y-126823927D01*
X173790839Y-126799346D01*
X173877236Y-126365000D01*
X173790839Y-125930654D01*
X173544802Y-125562434D01*
X173176582Y-125316397D01*
X172742236Y-125230000D01*
X172697764Y-125230000D01*
X172263418Y-125316397D01*
X171895198Y-125562434D01*
X171649161Y-125930654D01*
X171562764Y-126365000D01*
X170746802Y-126365000D01*
X167200178Y-122818376D01*
X167227828Y-122751788D01*
X167228170Y-122359931D01*
X167078529Y-121997771D01*
X167064500Y-121983718D01*
X167077555Y-121970686D01*
X167227828Y-121608788D01*
X167228110Y-121285000D01*
X171562764Y-121285000D01*
X171649161Y-121719346D01*
X171664805Y-121742759D01*
X171623569Y-121803110D01*
X171572560Y-122055000D01*
X171572560Y-123055000D01*
X171616838Y-123290317D01*
X171755910Y-123506441D01*
X171968110Y-123651431D01*
X172220000Y-123702440D01*
X173220000Y-123702440D01*
X173455317Y-123658162D01*
X173671441Y-123519090D01*
X173816431Y-123306890D01*
X173867440Y-123055000D01*
X173867440Y-122055000D01*
X173823162Y-121819683D01*
X173774414Y-121743927D01*
X173790839Y-121719346D01*
X173877236Y-121285000D01*
X173790839Y-120850654D01*
X173544802Y-120482434D01*
X173176582Y-120236397D01*
X172742236Y-120150000D01*
X172697764Y-120150000D01*
X172263418Y-120236397D01*
X171895198Y-120482434D01*
X171649161Y-120850654D01*
X171562764Y-121285000D01*
X167228110Y-121285000D01*
X167228170Y-121216931D01*
X167107408Y-120924664D01*
X167204555Y-120827686D01*
X167354828Y-120465788D01*
X167355170Y-120073931D01*
X167205529Y-119711771D01*
X166928686Y-119434445D01*
X166566788Y-119284172D01*
X166459881Y-119284079D01*
X166341217Y-119165415D01*
X166316531Y-119034217D01*
X166174486Y-118820035D01*
X165043115Y-117688664D01*
X164914387Y-117600708D01*
X165043115Y-117515336D01*
X165093788Y-117464663D01*
X165303314Y-117674555D01*
X165665212Y-117824828D01*
X166057069Y-117825170D01*
X166419229Y-117675529D01*
X166696555Y-117398686D01*
X166710148Y-117365950D01*
X167416922Y-118072724D01*
X167416830Y-118178069D01*
X167566471Y-118540229D01*
X167843314Y-118817555D01*
X168205212Y-118967828D01*
X168597069Y-118968170D01*
X168959229Y-118818529D01*
X169236555Y-118541686D01*
X169386828Y-118179788D01*
X169387170Y-117787931D01*
X169237529Y-117425771D01*
X168960686Y-117148445D01*
X168598788Y-116998172D01*
X168491881Y-116998079D01*
X168333802Y-116840000D01*
X171562764Y-116840000D01*
X171649161Y-117274346D01*
X171664805Y-117297759D01*
X171623569Y-117358110D01*
X171572560Y-117610000D01*
X171572560Y-118610000D01*
X171616838Y-118845317D01*
X171755910Y-119061441D01*
X171968110Y-119206431D01*
X172220000Y-119257440D01*
X173220000Y-119257440D01*
X173455317Y-119213162D01*
X173671441Y-119074090D01*
X173816431Y-118861890D01*
X173867440Y-118610000D01*
X173867440Y-117610000D01*
X173823162Y-117374683D01*
X173774414Y-117298927D01*
X173790839Y-117274346D01*
X173877236Y-116840000D01*
X173790839Y-116405654D01*
X173544802Y-116037434D01*
X173176582Y-115791397D01*
X172742236Y-115705000D01*
X172697764Y-115705000D01*
X172263418Y-115791397D01*
X171895198Y-116037434D01*
X171649161Y-116405654D01*
X171562764Y-116840000D01*
X168333802Y-116840000D01*
X167785166Y-116291364D01*
X167816229Y-116278529D01*
X168093555Y-116001686D01*
X168243828Y-115639788D01*
X168243921Y-115532881D01*
X170076502Y-113700300D01*
X171758870Y-113700300D01*
X171758870Y-113955830D01*
X171803148Y-114191147D01*
X171942220Y-114407271D01*
X172154420Y-114552261D01*
X172406310Y-114603270D01*
X174303690Y-114603270D01*
X174539007Y-114558992D01*
X174755131Y-114419920D01*
X174900121Y-114207720D01*
X174951130Y-113955830D01*
X174951130Y-111580930D01*
X174921773Y-111424910D01*
X174951130Y-111279940D01*
X174951130Y-110106460D01*
X174906852Y-109871143D01*
X174898380Y-109857978D01*
X174900121Y-109855430D01*
X174951130Y-109603540D01*
X174951130Y-108430060D01*
X174921773Y-108274040D01*
X174951130Y-108129070D01*
X174951130Y-105754170D01*
X174906852Y-105518853D01*
X174767780Y-105302729D01*
X174555580Y-105157739D01*
X174303690Y-105106730D01*
X172406310Y-105106730D01*
X172170993Y-105151008D01*
X171954869Y-105290080D01*
X171809879Y-105502280D01*
X171758870Y-105754170D01*
X171758870Y-106009700D01*
X170006010Y-106009700D01*
X169770693Y-106053978D01*
X169559037Y-106190175D01*
X169341686Y-105972445D01*
X169162000Y-105897833D01*
X169162000Y-104773111D01*
X169236555Y-104698686D01*
X169386828Y-104336788D01*
X169387170Y-103944931D01*
X169237529Y-103582771D01*
X168960686Y-103305445D01*
X168598788Y-103155172D01*
X168206931Y-103154830D01*
X167914664Y-103275592D01*
X167817686Y-103178445D01*
X167455788Y-103028172D01*
X167063931Y-103027830D01*
X166701771Y-103177471D01*
X166424445Y-103454314D01*
X166274172Y-103816212D01*
X166273830Y-104208069D01*
X166423471Y-104570229D01*
X166499000Y-104645890D01*
X166499000Y-105857198D01*
X161421904Y-110934294D01*
X161369844Y-110923001D01*
X161250878Y-110945386D01*
X161272886Y-110843932D01*
X161258290Y-110766361D01*
X161288000Y-110617000D01*
X161288000Y-110109000D01*
X161230148Y-109818161D01*
X161065401Y-109571599D01*
X160272000Y-108778198D01*
X160272000Y-106823969D01*
X160438841Y-106716610D01*
X160583831Y-106504410D01*
X160634840Y-106252520D01*
X160634840Y-105752520D01*
X160590562Y-105517203D01*
X160451490Y-105301079D01*
X160381689Y-105253386D01*
X160438841Y-105216610D01*
X160583831Y-105004410D01*
X160634840Y-104752520D01*
X160634840Y-104252520D01*
X160590562Y-104017203D01*
X160451490Y-103801079D01*
X160318786Y-103710406D01*
X160346555Y-103682686D01*
X160496828Y-103320788D01*
X160497170Y-102928931D01*
X160347529Y-102566771D01*
X160070686Y-102289445D01*
X159843237Y-102195000D01*
X160664250Y-102195000D01*
X160823000Y-102036250D01*
X160823000Y-101187000D01*
X161077000Y-101187000D01*
X161077000Y-102036250D01*
X161235750Y-102195000D01*
X162451309Y-102195000D01*
X162684698Y-102098327D01*
X162863327Y-101919699D01*
X162960000Y-101686310D01*
X162960000Y-101345750D01*
X164700000Y-101345750D01*
X164700000Y-101686310D01*
X164796673Y-101919699D01*
X164975302Y-102098327D01*
X165208691Y-102195000D01*
X166424250Y-102195000D01*
X166583000Y-102036250D01*
X166583000Y-101187000D01*
X166837000Y-101187000D01*
X166837000Y-102036250D01*
X166995750Y-102195000D01*
X168211309Y-102195000D01*
X168444698Y-102098327D01*
X168623327Y-101919699D01*
X168720000Y-101686310D01*
X168720000Y-101345750D01*
X168561250Y-101187000D01*
X166837000Y-101187000D01*
X166583000Y-101187000D01*
X164858750Y-101187000D01*
X164700000Y-101345750D01*
X162960000Y-101345750D01*
X162801250Y-101187000D01*
X161077000Y-101187000D01*
X160823000Y-101187000D01*
X159098750Y-101187000D01*
X158940000Y-101345750D01*
X158940000Y-101686310D01*
X159036673Y-101919699D01*
X159215302Y-102098327D01*
X159315006Y-102139626D01*
X158954771Y-102288471D01*
X158677445Y-102565314D01*
X158527172Y-102927212D01*
X158527147Y-102955748D01*
X158290839Y-102797852D01*
X158000000Y-102740000D01*
X156500000Y-102740000D01*
X156209161Y-102797852D01*
X155962599Y-102962599D01*
X155410276Y-103514922D01*
X155304931Y-103514830D01*
X154942771Y-103664471D01*
X154665445Y-103941314D01*
X154515172Y-104303212D01*
X154515072Y-104418270D01*
X152777440Y-102680638D01*
X152777440Y-102420000D01*
X152733162Y-102184683D01*
X152594090Y-101968559D01*
X152381890Y-101823569D01*
X152130000Y-101772560D01*
X151630000Y-101772560D01*
X151394683Y-101816838D01*
X151178559Y-101955910D01*
X151130866Y-102025711D01*
X151094090Y-101968559D01*
X150881890Y-101823569D01*
X150630000Y-101772560D01*
X150620308Y-101772560D01*
X150834555Y-101558686D01*
X150984828Y-101196788D01*
X150985170Y-100804931D01*
X150835529Y-100442771D01*
X150558686Y-100165445D01*
X150196788Y-100015172D01*
X149804931Y-100014830D01*
X149442771Y-100164471D01*
X149367110Y-100240000D01*
X149247440Y-100240000D01*
X149247440Y-99800000D01*
X149203162Y-99564683D01*
X149064090Y-99348559D01*
X148851890Y-99203569D01*
X148600000Y-99152560D01*
X147400000Y-99152560D01*
X147164683Y-99196838D01*
X146948559Y-99335910D01*
X146803569Y-99548110D01*
X146752560Y-99800000D01*
X142442000Y-99800000D01*
X142442000Y-96785750D01*
X146565000Y-96785750D01*
X146565000Y-97726309D01*
X146661673Y-97959698D01*
X146840301Y-98138327D01*
X147073690Y-98235000D01*
X147714250Y-98235000D01*
X147873000Y-98076250D01*
X147873000Y-96627000D01*
X148127000Y-96627000D01*
X148127000Y-98076250D01*
X148285750Y-98235000D01*
X148926310Y-98235000D01*
X149159699Y-98138327D01*
X149338327Y-97959698D01*
X149435000Y-97726309D01*
X149435000Y-96785750D01*
X149276250Y-96627000D01*
X148127000Y-96627000D01*
X147873000Y-96627000D01*
X146723750Y-96627000D01*
X146565000Y-96785750D01*
X142442000Y-96785750D01*
X142442000Y-92400000D01*
X146552560Y-92400000D01*
X146552560Y-94600000D01*
X146596838Y-94835317D01*
X146702482Y-94999493D01*
X146661673Y-95040302D01*
X146565000Y-95273691D01*
X146565000Y-96214250D01*
X146723750Y-96373000D01*
X147873000Y-96373000D01*
X147873000Y-96353000D01*
X148127000Y-96353000D01*
X148127000Y-96373000D01*
X149276250Y-96373000D01*
X149435000Y-96214250D01*
X149435000Y-95509802D01*
X150014922Y-96089724D01*
X150014830Y-96195069D01*
X150164471Y-96557229D01*
X150441314Y-96834555D01*
X150803212Y-96984828D01*
X151195069Y-96985170D01*
X151557229Y-96835529D01*
X151834555Y-96558686D01*
X151984828Y-96196788D01*
X151984829Y-96195069D01*
X157014830Y-96195069D01*
X157164471Y-96557229D01*
X157441314Y-96834555D01*
X157803212Y-96984828D01*
X158195069Y-96985170D01*
X158557229Y-96835529D01*
X158632890Y-96760000D01*
X158927560Y-96760000D01*
X158927560Y-97560000D01*
X158971838Y-97795317D01*
X159110910Y-98011441D01*
X159323110Y-98156431D01*
X159575000Y-98207440D01*
X160657000Y-98207440D01*
X160657000Y-99188889D01*
X160582445Y-99263314D01*
X160432172Y-99625212D01*
X160431910Y-99925000D01*
X159448691Y-99925000D01*
X159215302Y-100021673D01*
X159036673Y-100200301D01*
X158940000Y-100433690D01*
X158940000Y-100774250D01*
X159098750Y-100933000D01*
X160823000Y-100933000D01*
X160823000Y-100913000D01*
X161077000Y-100913000D01*
X161077000Y-100933000D01*
X162801250Y-100933000D01*
X162960000Y-100774250D01*
X162960000Y-100433690D01*
X164700000Y-100433690D01*
X164700000Y-100774250D01*
X164858750Y-100933000D01*
X166583000Y-100933000D01*
X166583000Y-100083750D01*
X166837000Y-100083750D01*
X166837000Y-100933000D01*
X168561250Y-100933000D01*
X168720000Y-100774250D01*
X168720000Y-100433690D01*
X168623327Y-100200301D01*
X168444698Y-100021673D01*
X168211309Y-99925000D01*
X166995750Y-99925000D01*
X166837000Y-100083750D01*
X166583000Y-100083750D01*
X166424250Y-99925000D01*
X165208691Y-99925000D01*
X164975302Y-100021673D01*
X164796673Y-100200301D01*
X164700000Y-100433690D01*
X162960000Y-100433690D01*
X162863327Y-100200301D01*
X162684698Y-100021673D01*
X162451309Y-99925000D01*
X162401910Y-99925000D01*
X162402170Y-99626931D01*
X162252529Y-99264771D01*
X162177000Y-99189110D01*
X162177000Y-99060000D01*
X171562764Y-99060000D01*
X171649161Y-99494346D01*
X171783234Y-99695000D01*
X171649161Y-99895654D01*
X171562764Y-100330000D01*
X171649161Y-100764346D01*
X171783234Y-100965000D01*
X171649161Y-101165654D01*
X171562764Y-101600000D01*
X171649161Y-102034346D01*
X171664805Y-102057759D01*
X171623569Y-102118110D01*
X171572560Y-102370000D01*
X171572560Y-103370000D01*
X171616838Y-103605317D01*
X171755910Y-103821441D01*
X171968110Y-103966431D01*
X172220000Y-104017440D01*
X173220000Y-104017440D01*
X173455317Y-103973162D01*
X173671441Y-103834090D01*
X173816431Y-103621890D01*
X173867440Y-103370000D01*
X173867440Y-102370000D01*
X173823162Y-102134683D01*
X173774414Y-102058927D01*
X173790839Y-102034346D01*
X173877236Y-101600000D01*
X173790839Y-101165654D01*
X173656766Y-100965000D01*
X173790839Y-100764346D01*
X173877236Y-100330000D01*
X173790839Y-99895654D01*
X173656766Y-99695000D01*
X173790839Y-99494346D01*
X173877236Y-99060000D01*
X173790839Y-98625654D01*
X173544802Y-98257434D01*
X173176582Y-98011397D01*
X172742236Y-97925000D01*
X172697764Y-97925000D01*
X172263418Y-98011397D01*
X171895198Y-98257434D01*
X171649161Y-98625654D01*
X171562764Y-99060000D01*
X162177000Y-99060000D01*
X162177000Y-98207440D01*
X162325000Y-98207440D01*
X162560317Y-98163162D01*
X162776441Y-98024090D01*
X162803381Y-97984662D01*
X162871212Y-98012828D01*
X163263069Y-98013170D01*
X163625229Y-97863529D01*
X163830114Y-97659001D01*
X164033314Y-97862555D01*
X164395212Y-98012828D01*
X164787069Y-98013170D01*
X164854179Y-97985441D01*
X164870910Y-98011441D01*
X165083110Y-98156431D01*
X165335000Y-98207440D01*
X168085000Y-98207440D01*
X168320317Y-98163162D01*
X168536441Y-98024090D01*
X168681431Y-97811890D01*
X168732440Y-97560000D01*
X168732440Y-96560000D01*
X168688162Y-96324683D01*
X168549090Y-96108559D01*
X168336890Y-95963569D01*
X168085000Y-95912560D01*
X165335000Y-95912560D01*
X165099683Y-95956838D01*
X164896202Y-96087774D01*
X164788788Y-96043172D01*
X164396931Y-96042830D01*
X164034771Y-96192471D01*
X163829886Y-96396999D01*
X163626686Y-96193445D01*
X163264788Y-96043172D01*
X162872931Y-96042830D01*
X162760738Y-96089187D01*
X162576890Y-95963569D01*
X162325000Y-95912560D01*
X160987362Y-95912560D01*
X160537401Y-95462599D01*
X160290839Y-95297852D01*
X160000000Y-95240000D01*
X158633111Y-95240000D01*
X158558686Y-95165445D01*
X158196788Y-95015172D01*
X157804931Y-95014830D01*
X157442771Y-95164471D01*
X157165445Y-95441314D01*
X157015172Y-95803212D01*
X157014830Y-96195069D01*
X151984829Y-96195069D01*
X151985170Y-95804931D01*
X151835529Y-95442771D01*
X151558686Y-95165445D01*
X151196788Y-95015172D01*
X151089881Y-95015079D01*
X149447440Y-93372638D01*
X149447440Y-93343599D01*
X154264699Y-93343599D01*
X154528281Y-93981515D01*
X155015918Y-94470004D01*
X155653373Y-94734699D01*
X156343599Y-94735301D01*
X156981515Y-94471719D01*
X157470004Y-93984082D01*
X157734699Y-93346627D01*
X157735301Y-92656401D01*
X157471719Y-92018485D01*
X156984082Y-91529996D01*
X156346627Y-91265301D01*
X155656401Y-91264699D01*
X155018485Y-91528281D01*
X154529996Y-92015918D01*
X154265301Y-92653373D01*
X154264699Y-93343599D01*
X149447440Y-93343599D01*
X149447440Y-92400000D01*
X149403162Y-92164683D01*
X149264090Y-91948559D01*
X149051890Y-91803569D01*
X148800000Y-91752560D01*
X147200000Y-91752560D01*
X146964683Y-91796838D01*
X146748559Y-91935910D01*
X146603569Y-92148110D01*
X146552560Y-92400000D01*
X142442000Y-92400000D01*
X142442000Y-91134000D01*
X175058000Y-91134000D01*
X175058000Y-144578000D01*
X175058000Y-144578000D01*
G37*
X175058000Y-144578000D02*
X142442000Y-144578000D01*
X142442000Y-142343599D01*
X154264699Y-142343599D01*
X154528281Y-142981515D01*
X155015918Y-143470004D01*
X155653373Y-143734699D01*
X156343599Y-143735301D01*
X156981515Y-143471719D01*
X157470004Y-142984082D01*
X157734699Y-142346627D01*
X157735301Y-141656401D01*
X157471719Y-141018485D01*
X156984082Y-140529996D01*
X156346627Y-140265301D01*
X155656401Y-140264699D01*
X155018485Y-140528281D01*
X154529996Y-141015918D01*
X154265301Y-141653373D01*
X154264699Y-142343599D01*
X142442000Y-142343599D01*
X142442000Y-136826874D01*
X149400881Y-136826874D01*
X149507873Y-137085209D01*
X149797396Y-137420323D01*
X150193123Y-137619132D01*
X150368000Y-137494135D01*
X150368000Y-136652000D01*
X150622000Y-136652000D01*
X150622000Y-137494135D01*
X150796877Y-137619132D01*
X151192604Y-137420323D01*
X151447101Y-137125750D01*
X155200000Y-137125750D01*
X155200000Y-137566309D01*
X155296673Y-137799698D01*
X155475301Y-137978327D01*
X155708690Y-138075000D01*
X155924250Y-138075000D01*
X156083000Y-137916250D01*
X156083000Y-136967000D01*
X156337000Y-136967000D01*
X156337000Y-137916250D01*
X156495750Y-138075000D01*
X156711310Y-138075000D01*
X156944699Y-137978327D01*
X157123327Y-137799698D01*
X157220000Y-137566309D01*
X157220000Y-137125750D01*
X162820000Y-137125750D01*
X162820000Y-137566309D01*
X162916673Y-137799698D01*
X163095301Y-137978327D01*
X163328690Y-138075000D01*
X163544250Y-138075000D01*
X163703000Y-137916250D01*
X163703000Y-136967000D01*
X163957000Y-136967000D01*
X163957000Y-137916250D01*
X164115750Y-138075000D01*
X164331310Y-138075000D01*
X164564699Y-137978327D01*
X164743327Y-137799698D01*
X164840000Y-137566309D01*
X164840000Y-137125750D01*
X164681250Y-136967000D01*
X163957000Y-136967000D01*
X163703000Y-136967000D01*
X162978750Y-136967000D01*
X162820000Y-137125750D01*
X157220000Y-137125750D01*
X157061250Y-136967000D01*
X156337000Y-136967000D01*
X156083000Y-136967000D01*
X155358750Y-136967000D01*
X155200000Y-137125750D01*
X151447101Y-137125750D01*
X151482127Y-137085209D01*
X151589119Y-136826874D01*
X151462954Y-136652000D01*
X150622000Y-136652000D01*
X150368000Y-136652000D01*
X149527046Y-136652000D01*
X149400881Y-136826874D01*
X142442000Y-136826874D01*
X142442000Y-120015000D01*
X144257764Y-120015000D01*
X144344161Y-120449346D01*
X144478234Y-120650000D01*
X144344161Y-120850654D01*
X144257764Y-121285000D01*
X144344161Y-121719346D01*
X144478234Y-121920000D01*
X144344161Y-122120654D01*
X144257764Y-122555000D01*
X144344161Y-122989346D01*
X144478234Y-123190000D01*
X144344161Y-123390654D01*
X144257764Y-123825000D01*
X144344161Y-124259346D01*
X144478234Y-124460000D01*
X144344161Y-124660654D01*
X144257764Y-125095000D01*
X144344161Y-125529346D01*
X144478234Y-125730000D01*
X144344161Y-125930654D01*
X144257764Y-126365000D01*
X144344161Y-126799346D01*
X144478234Y-127000000D01*
X144344161Y-127200654D01*
X144257764Y-127635000D01*
X144344161Y-128069346D01*
X144359805Y-128092759D01*
X144318569Y-128153110D01*
X144267560Y-128405000D01*
X144267560Y-129405000D01*
X144311838Y-129640317D01*
X144450910Y-129856441D01*
X144663110Y-130001431D01*
X144915000Y-130052440D01*
X145915000Y-130052440D01*
X146150317Y-130008162D01*
X146366441Y-129869090D01*
X146511431Y-129656890D01*
X146562440Y-129405000D01*
X146562440Y-128405000D01*
X146518162Y-128169683D01*
X146469414Y-128093927D01*
X146485839Y-128069346D01*
X146572236Y-127635000D01*
X146485839Y-127200654D01*
X146351766Y-127000000D01*
X146485839Y-126799346D01*
X146572236Y-126365000D01*
X146485839Y-125930654D01*
X146351766Y-125730000D01*
X146485839Y-125529346D01*
X146572236Y-125095000D01*
X146485839Y-124660654D01*
X146351766Y-124460000D01*
X146485839Y-124259346D01*
X146572236Y-123825000D01*
X146485839Y-123390654D01*
X146351766Y-123190000D01*
X146485839Y-122989346D01*
X146572236Y-122555000D01*
X146485839Y-122120654D01*
X146351766Y-121920000D01*
X146485839Y-121719346D01*
X146572236Y-121285000D01*
X146485839Y-120850654D01*
X146351766Y-120650000D01*
X146485839Y-120449346D01*
X146572236Y-120015000D01*
X146485839Y-119580654D01*
X146239802Y-119212434D01*
X145871582Y-118966397D01*
X145437236Y-118880000D01*
X145392764Y-118880000D01*
X144958418Y-118966397D01*
X144590198Y-119212434D01*
X144344161Y-119580654D01*
X144257764Y-120015000D01*
X142442000Y-120015000D01*
X142442000Y-108585000D01*
X144257764Y-108585000D01*
X144344161Y-109019346D01*
X144478234Y-109220000D01*
X144344161Y-109420654D01*
X144257764Y-109855000D01*
X144344161Y-110289346D01*
X144478234Y-110490000D01*
X144344161Y-110690654D01*
X144257764Y-111125000D01*
X144344161Y-111559346D01*
X144478234Y-111760000D01*
X144344161Y-111960654D01*
X144257764Y-112395000D01*
X144344161Y-112829346D01*
X144478234Y-113030000D01*
X144344161Y-113230654D01*
X144257764Y-113665000D01*
X144344161Y-114099346D01*
X144478234Y-114300000D01*
X144344161Y-114500654D01*
X144257764Y-114935000D01*
X144344161Y-115369346D01*
X144478234Y-115570000D01*
X144344161Y-115770654D01*
X144257764Y-116205000D01*
X144344161Y-116639346D01*
X144590198Y-117007566D01*
X144958418Y-117253603D01*
X145392764Y-117340000D01*
X145437236Y-117340000D01*
X145871582Y-117253603D01*
X146239802Y-117007566D01*
X146485839Y-116639346D01*
X146572236Y-116205000D01*
X146485839Y-115770654D01*
X146351766Y-115570000D01*
X146485839Y-115369346D01*
X146572236Y-114935000D01*
X146485839Y-114500654D01*
X146351766Y-114300000D01*
X146485839Y-114099346D01*
X146572236Y-113665000D01*
X146485839Y-113230654D01*
X146351766Y-113030000D01*
X146485839Y-112829346D01*
X146572236Y-112395000D01*
X146485839Y-111960654D01*
X146351766Y-111760000D01*
X146485839Y-111559346D01*
X146572236Y-111125000D01*
X146485839Y-110690654D01*
X146351766Y-110490000D01*
X146485839Y-110289346D01*
X146572236Y-109855000D01*
X146485839Y-109420654D01*
X146351766Y-109220000D01*
X146485839Y-109019346D01*
X146572236Y-108585000D01*
X146485839Y-108150654D01*
X146470195Y-108127241D01*
X146511431Y-108066890D01*
X146562440Y-107815000D01*
X146562440Y-106815000D01*
X146518162Y-106579683D01*
X146379090Y-106363559D01*
X146166890Y-106218569D01*
X145915000Y-106167560D01*
X144915000Y-106167560D01*
X144679683Y-106211838D01*
X144463559Y-106350910D01*
X144318569Y-106563110D01*
X144267560Y-106815000D01*
X144267560Y-107815000D01*
X144311838Y-108050317D01*
X144360586Y-108126073D01*
X144344161Y-108150654D01*
X144257764Y-108585000D01*
X142442000Y-108585000D01*
X142442000Y-99800000D01*
X146752560Y-99800000D01*
X146752560Y-101000000D01*
X146796838Y-101235317D01*
X146935910Y-101451441D01*
X147005711Y-101499134D01*
X146948559Y-101535910D01*
X146803569Y-101748110D01*
X146752560Y-102000000D01*
X146752560Y-103200000D01*
X146796838Y-103435317D01*
X146935910Y-103651441D01*
X147148110Y-103796431D01*
X147400000Y-103847440D01*
X148600000Y-103847440D01*
X148835317Y-103803162D01*
X148902393Y-103760000D01*
X149658548Y-103760000D01*
X149665910Y-103771441D01*
X149878110Y-103916431D01*
X150130000Y-103967440D01*
X150630000Y-103967440D01*
X150865317Y-103923162D01*
X151081441Y-103784090D01*
X151129134Y-103714289D01*
X151165910Y-103771441D01*
X151378110Y-103916431D01*
X151630000Y-103967440D01*
X151914638Y-103967440D01*
X152962165Y-105014967D01*
X152804931Y-105014830D01*
X152442771Y-105164471D01*
X152165445Y-105441314D01*
X152015172Y-105803212D01*
X152015079Y-105910119D01*
X148962599Y-108962599D01*
X148797852Y-109209161D01*
X148740000Y-109500000D01*
X148740000Y-116500000D01*
X148797852Y-116790839D01*
X148962599Y-117037401D01*
X150240000Y-118314802D01*
X150240000Y-118381549D01*
X149801514Y-118820035D01*
X149666429Y-119017738D01*
X149636213Y-119157027D01*
X149410931Y-119156830D01*
X149048771Y-119306471D01*
X148771445Y-119583314D01*
X148621172Y-119945212D01*
X148620830Y-120337069D01*
X148770471Y-120699229D01*
X149047314Y-120976555D01*
X149409212Y-121126828D01*
X149764138Y-121127138D01*
X149763830Y-121480069D01*
X149913471Y-121842229D01*
X150153934Y-122083111D01*
X150145172Y-122104212D01*
X150144830Y-122496069D01*
X150294471Y-122858229D01*
X150308500Y-122872282D01*
X150295445Y-122885314D01*
X150145172Y-123247212D01*
X150144830Y-123639069D01*
X150294471Y-124001229D01*
X150571314Y-124278555D01*
X150933212Y-124428828D01*
X151325069Y-124429170D01*
X151687229Y-124279529D01*
X151964555Y-124002686D01*
X152049914Y-123797119D01*
X152049830Y-123893069D01*
X152199471Y-124255229D01*
X152372569Y-124428629D01*
X151802276Y-124998922D01*
X151696931Y-124998830D01*
X151334771Y-125148471D01*
X151057445Y-125425314D01*
X150907172Y-125787212D01*
X150906830Y-126179069D01*
X151056471Y-126541229D01*
X151070610Y-126555393D01*
X150930445Y-126695314D01*
X150780172Y-127057212D01*
X150779999Y-127256000D01*
X148971000Y-127256000D01*
X148680161Y-127313852D01*
X148433599Y-127478599D01*
X147992276Y-127919922D01*
X147886931Y-127919830D01*
X147524771Y-128069471D01*
X147247445Y-128346314D01*
X147097172Y-128708212D01*
X147096830Y-129100069D01*
X147246471Y-129462229D01*
X147523314Y-129739555D01*
X147885212Y-129889828D01*
X148277069Y-129890170D01*
X148639229Y-129740529D01*
X148916555Y-129463686D01*
X149066828Y-129101788D01*
X149066921Y-128994881D01*
X149285802Y-128776000D01*
X149347560Y-128776000D01*
X149347560Y-129405000D01*
X149391838Y-129640317D01*
X149440586Y-129716073D01*
X149424161Y-129740654D01*
X149337764Y-130175000D01*
X149424161Y-130609346D01*
X149558234Y-130810000D01*
X149424161Y-131010654D01*
X149337764Y-131445000D01*
X149424161Y-131879346D01*
X149670198Y-132247566D01*
X149735000Y-132290865D01*
X149735000Y-134167721D01*
X149543559Y-134290910D01*
X149398569Y-134503110D01*
X149347560Y-134755000D01*
X149347560Y-135755000D01*
X149391838Y-135990317D01*
X149456003Y-136090032D01*
X149400881Y-136223126D01*
X149527046Y-136398000D01*
X149973075Y-136398000D01*
X149995000Y-136402440D01*
X150995000Y-136402440D01*
X151018597Y-136398000D01*
X151462954Y-136398000D01*
X151589119Y-136223126D01*
X151534233Y-136090602D01*
X151591431Y-136006890D01*
X151642440Y-135755000D01*
X151642440Y-134755000D01*
X151598162Y-134519683D01*
X151459090Y-134303559D01*
X151255000Y-134164110D01*
X151255000Y-132290865D01*
X151319802Y-132247566D01*
X151565839Y-131879346D01*
X151652236Y-131445000D01*
X151565839Y-131010654D01*
X151431766Y-130810000D01*
X151565839Y-130609346D01*
X151652236Y-130175000D01*
X151565839Y-129740654D01*
X151550195Y-129717241D01*
X151591431Y-129656890D01*
X151642440Y-129405000D01*
X151642440Y-128776000D01*
X152019000Y-128776000D01*
X152309839Y-128718148D01*
X152472809Y-128609255D01*
X152563839Y-128591148D01*
X152810401Y-128426401D01*
X152937401Y-128299401D01*
X153102148Y-128052839D01*
X153113368Y-127996434D01*
X154526986Y-126582816D01*
X154762314Y-126818555D01*
X155124212Y-126968828D01*
X155516069Y-126969170D01*
X155878229Y-126819529D01*
X156155555Y-126542686D01*
X156305828Y-126180788D01*
X156305921Y-126073881D01*
X156424585Y-125955217D01*
X156555783Y-125930531D01*
X156769965Y-125788486D01*
X157901336Y-124657115D01*
X157984418Y-124535520D01*
X157994146Y-124559005D01*
X158447090Y-125011949D01*
X158671596Y-125011949D01*
X159116233Y-124567313D01*
X159295838Y-124746918D01*
X158851201Y-125191554D01*
X158851201Y-125416060D01*
X159304145Y-125869004D01*
X159537534Y-125965677D01*
X159790153Y-125965678D01*
X160023542Y-125869005D01*
X160108790Y-125783756D01*
X160108790Y-125559250D01*
X159773679Y-125224138D01*
X159969423Y-125357885D01*
X160220585Y-125412369D01*
X160269385Y-125403187D01*
X160657000Y-125790802D01*
X160657000Y-125970673D01*
X160587852Y-126074161D01*
X160576632Y-126130566D01*
X160565276Y-126141922D01*
X160459931Y-126141830D01*
X160097771Y-126291471D01*
X159829497Y-126559278D01*
X159816686Y-126546445D01*
X159454788Y-126396172D01*
X159062931Y-126395830D01*
X158700771Y-126545471D01*
X158423445Y-126822314D01*
X158273172Y-127184212D01*
X158273079Y-127291119D01*
X156401638Y-129162560D01*
X153520000Y-129162560D01*
X153284683Y-129206838D01*
X153068559Y-129345910D01*
X152923569Y-129558110D01*
X152872560Y-129810000D01*
X152872560Y-131810000D01*
X152916838Y-132045317D01*
X153055910Y-132261441D01*
X153268110Y-132406431D01*
X153520000Y-132457440D01*
X155450000Y-132457440D01*
X155450000Y-133833156D01*
X155383559Y-133875910D01*
X155238569Y-134088110D01*
X155187560Y-134340000D01*
X155187560Y-135540000D01*
X155231838Y-135775317D01*
X155298329Y-135878646D01*
X155296673Y-135880302D01*
X155200000Y-136113691D01*
X155200000Y-136554250D01*
X155358750Y-136713000D01*
X156083000Y-136713000D01*
X156083000Y-136693000D01*
X156337000Y-136693000D01*
X156337000Y-136713000D01*
X157061250Y-136713000D01*
X157220000Y-136554250D01*
X157220000Y-136113691D01*
X157123327Y-135880302D01*
X157121957Y-135878932D01*
X157181431Y-135791890D01*
X157232440Y-135540000D01*
X157232440Y-134340000D01*
X157188162Y-134104683D01*
X157049090Y-133888559D01*
X156970000Y-133834519D01*
X156970000Y-132457440D01*
X158020000Y-132457440D01*
X158255317Y-132413162D01*
X158471441Y-132274090D01*
X158616431Y-132061890D01*
X158667440Y-131810000D01*
X158667440Y-129810000D01*
X158623162Y-129574683D01*
X158484090Y-129358559D01*
X158407544Y-129306258D01*
X159347724Y-128366078D01*
X159453069Y-128366170D01*
X159815229Y-128216529D01*
X160083503Y-127948722D01*
X160096314Y-127961555D01*
X160458212Y-128111828D01*
X160850069Y-128112170D01*
X161212229Y-127962529D01*
X161489555Y-127685686D01*
X161639828Y-127323788D01*
X161639921Y-127216881D01*
X161827401Y-127029401D01*
X161992148Y-126782839D01*
X162010255Y-126691809D01*
X162119148Y-126528839D01*
X162167576Y-126285378D01*
X163451000Y-127568802D01*
X163451000Y-129162560D01*
X162020000Y-129162560D01*
X161784683Y-129206838D01*
X161568559Y-129345910D01*
X161423569Y-129558110D01*
X161372560Y-129810000D01*
X161372560Y-131810000D01*
X161416838Y-132045317D01*
X161555910Y-132261441D01*
X161768110Y-132406431D01*
X162020000Y-132457440D01*
X163070000Y-132457440D01*
X163070000Y-133833156D01*
X163003559Y-133875910D01*
X162858569Y-134088110D01*
X162807560Y-134340000D01*
X162807560Y-135540000D01*
X162851838Y-135775317D01*
X162918329Y-135878646D01*
X162916673Y-135880302D01*
X162820000Y-136113691D01*
X162820000Y-136554250D01*
X162978750Y-136713000D01*
X163703000Y-136713000D01*
X163703000Y-136693000D01*
X163957000Y-136693000D01*
X163957000Y-136713000D01*
X164681250Y-136713000D01*
X164840000Y-136554250D01*
X164840000Y-136113691D01*
X164743327Y-135880302D01*
X164741957Y-135878932D01*
X164801431Y-135791890D01*
X164852440Y-135540000D01*
X164852440Y-134340000D01*
X164808162Y-134104683D01*
X164669090Y-133888559D01*
X164590000Y-133834519D01*
X164590000Y-132457440D01*
X166520000Y-132457440D01*
X166755317Y-132413162D01*
X166971441Y-132274090D01*
X167116431Y-132061890D01*
X167167440Y-131810000D01*
X167167440Y-129810000D01*
X167123162Y-129574683D01*
X166984090Y-129358559D01*
X166771890Y-129213569D01*
X166520000Y-129162560D01*
X164971000Y-129162560D01*
X164971000Y-127254000D01*
X164913663Y-126965750D01*
X165360000Y-126965750D01*
X165360000Y-127406309D01*
X165456673Y-127639698D01*
X165635301Y-127818327D01*
X165868690Y-127915000D01*
X166084250Y-127915000D01*
X166243000Y-127756250D01*
X166243000Y-126807000D01*
X166497000Y-126807000D01*
X166497000Y-127756250D01*
X166655750Y-127915000D01*
X166871310Y-127915000D01*
X167104699Y-127818327D01*
X167283327Y-127639698D01*
X167380000Y-127406309D01*
X167380000Y-126965750D01*
X167221250Y-126807000D01*
X166497000Y-126807000D01*
X166243000Y-126807000D01*
X165518750Y-126807000D01*
X165360000Y-126965750D01*
X164913663Y-126965750D01*
X164913148Y-126963161D01*
X164748401Y-126716599D01*
X163920816Y-125889014D01*
X164156555Y-125653686D01*
X164263106Y-125397083D01*
X164414314Y-125548555D01*
X164776212Y-125698828D01*
X165168069Y-125699170D01*
X165390335Y-125607332D01*
X165391838Y-125615317D01*
X165458329Y-125718646D01*
X165456673Y-125720302D01*
X165360000Y-125953691D01*
X165360000Y-126394250D01*
X165518750Y-126553000D01*
X166243000Y-126553000D01*
X166243000Y-126533000D01*
X166497000Y-126533000D01*
X166497000Y-126553000D01*
X167221250Y-126553000D01*
X167380000Y-126394250D01*
X167380000Y-125953691D01*
X167283327Y-125720302D01*
X167281957Y-125718932D01*
X167341431Y-125631890D01*
X167392440Y-125380000D01*
X167392440Y-125160242D01*
X169322143Y-127089945D01*
X169321830Y-127449069D01*
X169471471Y-127811229D01*
X169675999Y-128016114D01*
X169472445Y-128219314D01*
X169322172Y-128581212D01*
X169321830Y-128973069D01*
X169471471Y-129335229D01*
X169748314Y-129612555D01*
X170110212Y-129762828D01*
X170217119Y-129762921D01*
X171071000Y-130616802D01*
X171071000Y-131699000D01*
X171128852Y-131989839D01*
X171293599Y-132236401D01*
X171540161Y-132401148D01*
X171630207Y-132419059D01*
X171649161Y-132514346D01*
X171664805Y-132537759D01*
X171623569Y-132598110D01*
X171572560Y-132850000D01*
X171572560Y-133850000D01*
X171616838Y-134085317D01*
X171755910Y-134301441D01*
X171968110Y-134446431D01*
X172220000Y-134497440D01*
X173220000Y-134497440D01*
X173455317Y-134453162D01*
X173671441Y-134314090D01*
X173816431Y-134101890D01*
X173867440Y-133850000D01*
X173867440Y-132850000D01*
X173823162Y-132614683D01*
X173774414Y-132538927D01*
X173790839Y-132514346D01*
X173877236Y-132080000D01*
X173790839Y-131645654D01*
X173656766Y-131445000D01*
X173790839Y-131244346D01*
X173877236Y-130810000D01*
X173790839Y-130375654D01*
X173544802Y-130007434D01*
X173176582Y-129761397D01*
X172742236Y-129675000D01*
X172697764Y-129675000D01*
X172348312Y-129744510D01*
X171292078Y-128688276D01*
X171292170Y-128582931D01*
X171142529Y-128220771D01*
X170938001Y-128015886D01*
X171141555Y-127812686D01*
X171291828Y-127450788D01*
X171292170Y-127058931D01*
X171142529Y-126696771D01*
X170865686Y-126419445D01*
X170755489Y-126373687D01*
X170746802Y-126365000D01*
X171562764Y-126365000D01*
X171649161Y-126799346D01*
X171664805Y-126822759D01*
X171623569Y-126883110D01*
X171572560Y-127135000D01*
X171572560Y-128135000D01*
X171616838Y-128370317D01*
X171755910Y-128586441D01*
X171968110Y-128731431D01*
X172220000Y-128782440D01*
X173220000Y-128782440D01*
X173455317Y-128738162D01*
X173671441Y-128599090D01*
X173816431Y-128386890D01*
X173867440Y-128135000D01*
X173867440Y-127135000D01*
X173823162Y-126899683D01*
X173774414Y-126823927D01*
X173790839Y-126799346D01*
X173877236Y-126365000D01*
X173790839Y-125930654D01*
X173544802Y-125562434D01*
X173176582Y-125316397D01*
X172742236Y-125230000D01*
X172697764Y-125230000D01*
X172263418Y-125316397D01*
X171895198Y-125562434D01*
X171649161Y-125930654D01*
X171562764Y-126365000D01*
X170746802Y-126365000D01*
X167200178Y-122818376D01*
X167227828Y-122751788D01*
X167228170Y-122359931D01*
X167078529Y-121997771D01*
X167064500Y-121983718D01*
X167077555Y-121970686D01*
X167227828Y-121608788D01*
X167228110Y-121285000D01*
X171562764Y-121285000D01*
X171649161Y-121719346D01*
X171664805Y-121742759D01*
X171623569Y-121803110D01*
X171572560Y-122055000D01*
X171572560Y-123055000D01*
X171616838Y-123290317D01*
X171755910Y-123506441D01*
X171968110Y-123651431D01*
X172220000Y-123702440D01*
X173220000Y-123702440D01*
X173455317Y-123658162D01*
X173671441Y-123519090D01*
X173816431Y-123306890D01*
X173867440Y-123055000D01*
X173867440Y-122055000D01*
X173823162Y-121819683D01*
X173774414Y-121743927D01*
X173790839Y-121719346D01*
X173877236Y-121285000D01*
X173790839Y-120850654D01*
X173544802Y-120482434D01*
X173176582Y-120236397D01*
X172742236Y-120150000D01*
X172697764Y-120150000D01*
X172263418Y-120236397D01*
X171895198Y-120482434D01*
X171649161Y-120850654D01*
X171562764Y-121285000D01*
X167228110Y-121285000D01*
X167228170Y-121216931D01*
X167107408Y-120924664D01*
X167204555Y-120827686D01*
X167354828Y-120465788D01*
X167355170Y-120073931D01*
X167205529Y-119711771D01*
X166928686Y-119434445D01*
X166566788Y-119284172D01*
X166459881Y-119284079D01*
X166341217Y-119165415D01*
X166316531Y-119034217D01*
X166174486Y-118820035D01*
X165043115Y-117688664D01*
X164914387Y-117600708D01*
X165043115Y-117515336D01*
X165093788Y-117464663D01*
X165303314Y-117674555D01*
X165665212Y-117824828D01*
X166057069Y-117825170D01*
X166419229Y-117675529D01*
X166696555Y-117398686D01*
X166710148Y-117365950D01*
X167416922Y-118072724D01*
X167416830Y-118178069D01*
X167566471Y-118540229D01*
X167843314Y-118817555D01*
X168205212Y-118967828D01*
X168597069Y-118968170D01*
X168959229Y-118818529D01*
X169236555Y-118541686D01*
X169386828Y-118179788D01*
X169387170Y-117787931D01*
X169237529Y-117425771D01*
X168960686Y-117148445D01*
X168598788Y-116998172D01*
X168491881Y-116998079D01*
X168333802Y-116840000D01*
X171562764Y-116840000D01*
X171649161Y-117274346D01*
X171664805Y-117297759D01*
X171623569Y-117358110D01*
X171572560Y-117610000D01*
X171572560Y-118610000D01*
X171616838Y-118845317D01*
X171755910Y-119061441D01*
X171968110Y-119206431D01*
X172220000Y-119257440D01*
X173220000Y-119257440D01*
X173455317Y-119213162D01*
X173671441Y-119074090D01*
X173816431Y-118861890D01*
X173867440Y-118610000D01*
X173867440Y-117610000D01*
X173823162Y-117374683D01*
X173774414Y-117298927D01*
X173790839Y-117274346D01*
X173877236Y-116840000D01*
X173790839Y-116405654D01*
X173544802Y-116037434D01*
X173176582Y-115791397D01*
X172742236Y-115705000D01*
X172697764Y-115705000D01*
X172263418Y-115791397D01*
X171895198Y-116037434D01*
X171649161Y-116405654D01*
X171562764Y-116840000D01*
X168333802Y-116840000D01*
X167785166Y-116291364D01*
X167816229Y-116278529D01*
X168093555Y-116001686D01*
X168243828Y-115639788D01*
X168243921Y-115532881D01*
X170076502Y-113700300D01*
X171758870Y-113700300D01*
X171758870Y-113955830D01*
X171803148Y-114191147D01*
X171942220Y-114407271D01*
X172154420Y-114552261D01*
X172406310Y-114603270D01*
X174303690Y-114603270D01*
X174539007Y-114558992D01*
X174755131Y-114419920D01*
X174900121Y-114207720D01*
X174951130Y-113955830D01*
X174951130Y-111580930D01*
X174921773Y-111424910D01*
X174951130Y-111279940D01*
X174951130Y-110106460D01*
X174906852Y-109871143D01*
X174898380Y-109857978D01*
X174900121Y-109855430D01*
X174951130Y-109603540D01*
X174951130Y-108430060D01*
X174921773Y-108274040D01*
X174951130Y-108129070D01*
X174951130Y-105754170D01*
X174906852Y-105518853D01*
X174767780Y-105302729D01*
X174555580Y-105157739D01*
X174303690Y-105106730D01*
X172406310Y-105106730D01*
X172170993Y-105151008D01*
X171954869Y-105290080D01*
X171809879Y-105502280D01*
X171758870Y-105754170D01*
X171758870Y-106009700D01*
X170006010Y-106009700D01*
X169770693Y-106053978D01*
X169559037Y-106190175D01*
X169341686Y-105972445D01*
X169162000Y-105897833D01*
X169162000Y-104773111D01*
X169236555Y-104698686D01*
X169386828Y-104336788D01*
X169387170Y-103944931D01*
X169237529Y-103582771D01*
X168960686Y-103305445D01*
X168598788Y-103155172D01*
X168206931Y-103154830D01*
X167914664Y-103275592D01*
X167817686Y-103178445D01*
X167455788Y-103028172D01*
X167063931Y-103027830D01*
X166701771Y-103177471D01*
X166424445Y-103454314D01*
X166274172Y-103816212D01*
X166273830Y-104208069D01*
X166423471Y-104570229D01*
X166499000Y-104645890D01*
X166499000Y-105857198D01*
X161421904Y-110934294D01*
X161369844Y-110923001D01*
X161250878Y-110945386D01*
X161272886Y-110843932D01*
X161258290Y-110766361D01*
X161288000Y-110617000D01*
X161288000Y-110109000D01*
X161230148Y-109818161D01*
X161065401Y-109571599D01*
X160272000Y-108778198D01*
X160272000Y-106823969D01*
X160438841Y-106716610D01*
X160583831Y-106504410D01*
X160634840Y-106252520D01*
X160634840Y-105752520D01*
X160590562Y-105517203D01*
X160451490Y-105301079D01*
X160381689Y-105253386D01*
X160438841Y-105216610D01*
X160583831Y-105004410D01*
X160634840Y-104752520D01*
X160634840Y-104252520D01*
X160590562Y-104017203D01*
X160451490Y-103801079D01*
X160318786Y-103710406D01*
X160346555Y-103682686D01*
X160496828Y-103320788D01*
X160497170Y-102928931D01*
X160347529Y-102566771D01*
X160070686Y-102289445D01*
X159843237Y-102195000D01*
X160664250Y-102195000D01*
X160823000Y-102036250D01*
X160823000Y-101187000D01*
X161077000Y-101187000D01*
X161077000Y-102036250D01*
X161235750Y-102195000D01*
X162451309Y-102195000D01*
X162684698Y-102098327D01*
X162863327Y-101919699D01*
X162960000Y-101686310D01*
X162960000Y-101345750D01*
X164700000Y-101345750D01*
X164700000Y-101686310D01*
X164796673Y-101919699D01*
X164975302Y-102098327D01*
X165208691Y-102195000D01*
X166424250Y-102195000D01*
X166583000Y-102036250D01*
X166583000Y-101187000D01*
X166837000Y-101187000D01*
X166837000Y-102036250D01*
X166995750Y-102195000D01*
X168211309Y-102195000D01*
X168444698Y-102098327D01*
X168623327Y-101919699D01*
X168720000Y-101686310D01*
X168720000Y-101345750D01*
X168561250Y-101187000D01*
X166837000Y-101187000D01*
X166583000Y-101187000D01*
X164858750Y-101187000D01*
X164700000Y-101345750D01*
X162960000Y-101345750D01*
X162801250Y-101187000D01*
X161077000Y-101187000D01*
X160823000Y-101187000D01*
X159098750Y-101187000D01*
X158940000Y-101345750D01*
X158940000Y-101686310D01*
X159036673Y-101919699D01*
X159215302Y-102098327D01*
X159315006Y-102139626D01*
X158954771Y-102288471D01*
X158677445Y-102565314D01*
X158527172Y-102927212D01*
X158527147Y-102955748D01*
X158290839Y-102797852D01*
X158000000Y-102740000D01*
X156500000Y-102740000D01*
X156209161Y-102797852D01*
X155962599Y-102962599D01*
X155410276Y-103514922D01*
X155304931Y-103514830D01*
X154942771Y-103664471D01*
X154665445Y-103941314D01*
X154515172Y-104303212D01*
X154515072Y-104418270D01*
X152777440Y-102680638D01*
X152777440Y-102420000D01*
X152733162Y-102184683D01*
X152594090Y-101968559D01*
X152381890Y-101823569D01*
X152130000Y-101772560D01*
X151630000Y-101772560D01*
X151394683Y-101816838D01*
X151178559Y-101955910D01*
X151130866Y-102025711D01*
X151094090Y-101968559D01*
X150881890Y-101823569D01*
X150630000Y-101772560D01*
X150620308Y-101772560D01*
X150834555Y-101558686D01*
X150984828Y-101196788D01*
X150985170Y-100804931D01*
X150835529Y-100442771D01*
X150558686Y-100165445D01*
X150196788Y-100015172D01*
X149804931Y-100014830D01*
X149442771Y-100164471D01*
X149367110Y-100240000D01*
X149247440Y-100240000D01*
X149247440Y-99800000D01*
X149203162Y-99564683D01*
X149064090Y-99348559D01*
X148851890Y-99203569D01*
X148600000Y-99152560D01*
X147400000Y-99152560D01*
X147164683Y-99196838D01*
X146948559Y-99335910D01*
X146803569Y-99548110D01*
X146752560Y-99800000D01*
X142442000Y-99800000D01*
X142442000Y-96785750D01*
X146565000Y-96785750D01*
X146565000Y-97726309D01*
X146661673Y-97959698D01*
X146840301Y-98138327D01*
X147073690Y-98235000D01*
X147714250Y-98235000D01*
X147873000Y-98076250D01*
X147873000Y-96627000D01*
X148127000Y-96627000D01*
X148127000Y-98076250D01*
X148285750Y-98235000D01*
X148926310Y-98235000D01*
X149159699Y-98138327D01*
X149338327Y-97959698D01*
X149435000Y-97726309D01*
X149435000Y-96785750D01*
X149276250Y-96627000D01*
X148127000Y-96627000D01*
X147873000Y-96627000D01*
X146723750Y-96627000D01*
X146565000Y-96785750D01*
X142442000Y-96785750D01*
X142442000Y-92400000D01*
X146552560Y-92400000D01*
X146552560Y-94600000D01*
X146596838Y-94835317D01*
X146702482Y-94999493D01*
X146661673Y-95040302D01*
X146565000Y-95273691D01*
X146565000Y-96214250D01*
X146723750Y-96373000D01*
X147873000Y-96373000D01*
X147873000Y-96353000D01*
X148127000Y-96353000D01*
X148127000Y-96373000D01*
X149276250Y-96373000D01*
X149435000Y-96214250D01*
X149435000Y-95509802D01*
X150014922Y-96089724D01*
X150014830Y-96195069D01*
X150164471Y-96557229D01*
X150441314Y-96834555D01*
X150803212Y-96984828D01*
X151195069Y-96985170D01*
X151557229Y-96835529D01*
X151834555Y-96558686D01*
X151984828Y-96196788D01*
X151984829Y-96195069D01*
X157014830Y-96195069D01*
X157164471Y-96557229D01*
X157441314Y-96834555D01*
X157803212Y-96984828D01*
X158195069Y-96985170D01*
X158557229Y-96835529D01*
X158632890Y-96760000D01*
X158927560Y-96760000D01*
X158927560Y-97560000D01*
X158971838Y-97795317D01*
X159110910Y-98011441D01*
X159323110Y-98156431D01*
X159575000Y-98207440D01*
X160657000Y-98207440D01*
X160657000Y-99188889D01*
X160582445Y-99263314D01*
X160432172Y-99625212D01*
X160431910Y-99925000D01*
X159448691Y-99925000D01*
X159215302Y-100021673D01*
X159036673Y-100200301D01*
X158940000Y-100433690D01*
X158940000Y-100774250D01*
X159098750Y-100933000D01*
X160823000Y-100933000D01*
X160823000Y-100913000D01*
X161077000Y-100913000D01*
X161077000Y-100933000D01*
X162801250Y-100933000D01*
X162960000Y-100774250D01*
X162960000Y-100433690D01*
X164700000Y-100433690D01*
X164700000Y-100774250D01*
X164858750Y-100933000D01*
X166583000Y-100933000D01*
X166583000Y-100083750D01*
X166837000Y-100083750D01*
X166837000Y-100933000D01*
X168561250Y-100933000D01*
X168720000Y-100774250D01*
X168720000Y-100433690D01*
X168623327Y-100200301D01*
X168444698Y-100021673D01*
X168211309Y-99925000D01*
X166995750Y-99925000D01*
X166837000Y-100083750D01*
X166583000Y-100083750D01*
X166424250Y-99925000D01*
X165208691Y-99925000D01*
X164975302Y-100021673D01*
X164796673Y-100200301D01*
X164700000Y-100433690D01*
X162960000Y-100433690D01*
X162863327Y-100200301D01*
X162684698Y-100021673D01*
X162451309Y-99925000D01*
X162401910Y-99925000D01*
X162402170Y-99626931D01*
X162252529Y-99264771D01*
X162177000Y-99189110D01*
X162177000Y-99060000D01*
X171562764Y-99060000D01*
X171649161Y-99494346D01*
X171783234Y-99695000D01*
X171649161Y-99895654D01*
X171562764Y-100330000D01*
X171649161Y-100764346D01*
X171783234Y-100965000D01*
X171649161Y-101165654D01*
X171562764Y-101600000D01*
X171649161Y-102034346D01*
X171664805Y-102057759D01*
X171623569Y-102118110D01*
X171572560Y-102370000D01*
X171572560Y-103370000D01*
X171616838Y-103605317D01*
X171755910Y-103821441D01*
X171968110Y-103966431D01*
X172220000Y-104017440D01*
X173220000Y-104017440D01*
X173455317Y-103973162D01*
X173671441Y-103834090D01*
X173816431Y-103621890D01*
X173867440Y-103370000D01*
X173867440Y-102370000D01*
X173823162Y-102134683D01*
X173774414Y-102058927D01*
X173790839Y-102034346D01*
X173877236Y-101600000D01*
X173790839Y-101165654D01*
X173656766Y-100965000D01*
X173790839Y-100764346D01*
X173877236Y-100330000D01*
X173790839Y-99895654D01*
X173656766Y-99695000D01*
X173790839Y-99494346D01*
X173877236Y-99060000D01*
X173790839Y-98625654D01*
X173544802Y-98257434D01*
X173176582Y-98011397D01*
X172742236Y-97925000D01*
X172697764Y-97925000D01*
X172263418Y-98011397D01*
X171895198Y-98257434D01*
X171649161Y-98625654D01*
X171562764Y-99060000D01*
X162177000Y-99060000D01*
X162177000Y-98207440D01*
X162325000Y-98207440D01*
X162560317Y-98163162D01*
X162776441Y-98024090D01*
X162803381Y-97984662D01*
X162871212Y-98012828D01*
X163263069Y-98013170D01*
X163625229Y-97863529D01*
X163830114Y-97659001D01*
X164033314Y-97862555D01*
X164395212Y-98012828D01*
X164787069Y-98013170D01*
X164854179Y-97985441D01*
X164870910Y-98011441D01*
X165083110Y-98156431D01*
X165335000Y-98207440D01*
X168085000Y-98207440D01*
X168320317Y-98163162D01*
X168536441Y-98024090D01*
X168681431Y-97811890D01*
X168732440Y-97560000D01*
X168732440Y-96560000D01*
X168688162Y-96324683D01*
X168549090Y-96108559D01*
X168336890Y-95963569D01*
X168085000Y-95912560D01*
X165335000Y-95912560D01*
X165099683Y-95956838D01*
X164896202Y-96087774D01*
X164788788Y-96043172D01*
X164396931Y-96042830D01*
X164034771Y-96192471D01*
X163829886Y-96396999D01*
X163626686Y-96193445D01*
X163264788Y-96043172D01*
X162872931Y-96042830D01*
X162760738Y-96089187D01*
X162576890Y-95963569D01*
X162325000Y-95912560D01*
X160987362Y-95912560D01*
X160537401Y-95462599D01*
X160290839Y-95297852D01*
X160000000Y-95240000D01*
X158633111Y-95240000D01*
X158558686Y-95165445D01*
X158196788Y-95015172D01*
X157804931Y-95014830D01*
X157442771Y-95164471D01*
X157165445Y-95441314D01*
X157015172Y-95803212D01*
X157014830Y-96195069D01*
X151984829Y-96195069D01*
X151985170Y-95804931D01*
X151835529Y-95442771D01*
X151558686Y-95165445D01*
X151196788Y-95015172D01*
X151089881Y-95015079D01*
X149447440Y-93372638D01*
X149447440Y-93343599D01*
X154264699Y-93343599D01*
X154528281Y-93981515D01*
X155015918Y-94470004D01*
X155653373Y-94734699D01*
X156343599Y-94735301D01*
X156981515Y-94471719D01*
X157470004Y-93984082D01*
X157734699Y-93346627D01*
X157735301Y-92656401D01*
X157471719Y-92018485D01*
X156984082Y-91529996D01*
X156346627Y-91265301D01*
X155656401Y-91264699D01*
X155018485Y-91528281D01*
X154529996Y-92015918D01*
X154265301Y-92653373D01*
X154264699Y-93343599D01*
X149447440Y-93343599D01*
X149447440Y-92400000D01*
X149403162Y-92164683D01*
X149264090Y-91948559D01*
X149051890Y-91803569D01*
X148800000Y-91752560D01*
X147200000Y-91752560D01*
X146964683Y-91796838D01*
X146748559Y-91935910D01*
X146603569Y-92148110D01*
X146552560Y-92400000D01*
X142442000Y-92400000D01*
X142442000Y-91134000D01*
X175058000Y-91134000D01*
X175058000Y-144578000D01*
M02*
