%TF.GenerationSoftware,KiCad,Pcbnew,4.0.6*%
%TF.CreationDate,2017-05-25T21:52:32-03:00*%
%TF.ProjectId,np08,6E7030382E6B696361645F7063620000,rev?*%
%TF.FileFunction,Legend,Top*%
%FSLAX46Y46*%
G04 Gerber Fmt 4.6, Leading zero omitted, Abs format (unit mm)*
G04 Created by KiCad (PCBNEW 4.0.6) date Thu May 25 21:52:32 2017*
%MOMM*%
%LPD*%
G01*
G04 APERTURE LIST*
%ADD10C,0.100000*%
%ADD11C,0.120000*%
%ADD12C,0.200660*%
%ADD13C,0.150000*%
%ADD14C,0.099060*%
G04 APERTURE END LIST*
D10*
D11*
X146270000Y-94170000D02*
X146880000Y-93560000D01*
X146270000Y-96730000D02*
X146880000Y-96730000D01*
X149710000Y-94190000D02*
X149120000Y-93590000D01*
X149710000Y-96730000D02*
X149120000Y-96730000D01*
X146270000Y-94170000D02*
X146270000Y-96710000D01*
X149710000Y-96730000D02*
X149710000Y-94190000D01*
X155610000Y-136240000D02*
X155610000Y-135540000D01*
X156810000Y-135540000D02*
X156810000Y-136240000D01*
X163230000Y-136240000D02*
X163230000Y-135540000D01*
X164430000Y-135540000D02*
X164430000Y-136240000D01*
X166970000Y-125380000D02*
X166970000Y-126080000D01*
X165770000Y-126080000D02*
X165770000Y-125380000D01*
X147300000Y-103300000D02*
X148700000Y-103300000D01*
X148700000Y-103300000D02*
X148700000Y-100500000D01*
X147300000Y-103300000D02*
X147300000Y-100500000D01*
X174110000Y-132715000D02*
X174110000Y-130055000D01*
X174110000Y-130055000D02*
X171330000Y-130055000D01*
X171330000Y-130055000D02*
X171330000Y-132715000D01*
X171330000Y-132715000D02*
X174110000Y-132715000D01*
X174110000Y-133350000D02*
X174110000Y-134105000D01*
X174110000Y-134105000D02*
X172720000Y-134105000D01*
D12*
X175353980Y-114056160D02*
X175353980Y-105653840D01*
X175455580Y-114056160D02*
X175455580Y-105653840D01*
X175455580Y-105653840D02*
X175254920Y-105653840D01*
X175254920Y-105653840D02*
X175254920Y-114056160D01*
X175254920Y-114056160D02*
X175455580Y-114056160D01*
X175455580Y-113753900D02*
X170454320Y-113753900D01*
X170454320Y-113753900D02*
X170454320Y-105956100D01*
X170454320Y-105956100D02*
X175455580Y-105956100D01*
D11*
X174110000Y-102235000D02*
X174110000Y-98305000D01*
X174110000Y-98305000D02*
X171330000Y-98305000D01*
X171330000Y-98305000D02*
X171330000Y-102235000D01*
X171330000Y-102235000D02*
X174110000Y-102235000D01*
X174110000Y-102870000D02*
X174110000Y-103625000D01*
X174110000Y-103625000D02*
X172720000Y-103625000D01*
X149105000Y-135890000D02*
X149105000Y-137280000D01*
X149105000Y-137280000D02*
X151885000Y-137280000D01*
X151885000Y-137280000D02*
X151885000Y-135890000D01*
X151885000Y-135890000D02*
X149105000Y-135890000D01*
X149105000Y-135255000D02*
X149105000Y-134500000D01*
X149105000Y-134500000D02*
X150495000Y-134500000D01*
X149105000Y-129540000D02*
X149105000Y-132200000D01*
X149105000Y-132200000D02*
X151885000Y-132200000D01*
X151885000Y-132200000D02*
X151885000Y-129540000D01*
X151885000Y-129540000D02*
X149105000Y-129540000D01*
X149105000Y-128905000D02*
X149105000Y-128150000D01*
X149105000Y-128150000D02*
X150495000Y-128150000D01*
X174110000Y-127000000D02*
X174110000Y-125610000D01*
X174110000Y-125610000D02*
X171330000Y-125610000D01*
X171330000Y-125610000D02*
X171330000Y-127000000D01*
X171330000Y-127000000D02*
X174110000Y-127000000D01*
X174110000Y-127635000D02*
X174110000Y-128390000D01*
X174110000Y-128390000D02*
X172720000Y-128390000D01*
X174110000Y-121920000D02*
X174110000Y-120530000D01*
X174110000Y-120530000D02*
X171330000Y-120530000D01*
X171330000Y-120530000D02*
X171330000Y-121920000D01*
X171330000Y-121920000D02*
X174110000Y-121920000D01*
X174110000Y-122555000D02*
X174110000Y-123310000D01*
X174110000Y-123310000D02*
X172720000Y-123310000D01*
X146805000Y-128270000D02*
X146805000Y-119260000D01*
X146805000Y-119260000D02*
X144025000Y-119260000D01*
X144025000Y-119260000D02*
X144025000Y-128270000D01*
X144025000Y-128270000D02*
X146805000Y-128270000D01*
X146805000Y-128905000D02*
X146805000Y-129660000D01*
X146805000Y-129660000D02*
X145415000Y-129660000D01*
X144025000Y-107950000D02*
X144025000Y-116960000D01*
X144025000Y-116960000D02*
X146805000Y-116960000D01*
X146805000Y-116960000D02*
X146805000Y-107950000D01*
X146805000Y-107950000D02*
X144025000Y-107950000D01*
X144025000Y-107315000D02*
X144025000Y-106560000D01*
X144025000Y-106560000D02*
X145415000Y-106560000D01*
X174110000Y-117475000D02*
X174110000Y-116085000D01*
X174110000Y-116085000D02*
X171330000Y-116085000D01*
X171330000Y-116085000D02*
X171330000Y-117475000D01*
X171330000Y-117475000D02*
X174110000Y-117475000D01*
X174110000Y-118110000D02*
X174110000Y-118865000D01*
X174110000Y-118865000D02*
X172720000Y-118865000D01*
X151630000Y-103550000D02*
X150630000Y-103550000D01*
X150630000Y-102190000D02*
X151630000Y-102190000D01*
X160217400Y-104752520D02*
X160217400Y-105752520D01*
X158857400Y-105752520D02*
X158857400Y-104752520D01*
X160480000Y-101710000D02*
X160480000Y-102160000D01*
X160480000Y-102160000D02*
X167180000Y-102160000D01*
X167180000Y-102160000D02*
X167180000Y-101760000D01*
X160480000Y-100410000D02*
X160480000Y-97710000D01*
X167180000Y-97710000D02*
X167180000Y-100410000D01*
X160480000Y-95960000D02*
X167180000Y-95960000D01*
X167180000Y-95960000D02*
X167180000Y-96410000D01*
X160480000Y-96410000D02*
X160480000Y-95960000D01*
D13*
X150669445Y-117602000D02*
X151093709Y-118026264D01*
X157988000Y-110283445D02*
X158461762Y-110757206D01*
X165306555Y-117602000D02*
X164832794Y-117128238D01*
X157988000Y-124920555D02*
X157514238Y-124446794D01*
X150669445Y-117602000D02*
X151143206Y-117128238D01*
X157988000Y-124920555D02*
X158461762Y-124446794D01*
X165306555Y-117602000D02*
X164832794Y-118075762D01*
X157988000Y-110283445D02*
X157514238Y-110757206D01*
X151093709Y-118026264D02*
X150050726Y-119069247D01*
D11*
X165920000Y-128260000D02*
X153320000Y-128260000D01*
X153320000Y-128260000D02*
X153320000Y-133360000D01*
X153320000Y-133360000D02*
X165920000Y-133360000D01*
D13*
X145457143Y-95166666D02*
X145504762Y-95214285D01*
X145552381Y-95357142D01*
X145552381Y-95452380D01*
X145504762Y-95595238D01*
X145409524Y-95690476D01*
X145314286Y-95738095D01*
X145123810Y-95785714D01*
X144980952Y-95785714D01*
X144790476Y-95738095D01*
X144695238Y-95690476D01*
X144600000Y-95595238D01*
X144552381Y-95452380D01*
X144552381Y-95357142D01*
X144600000Y-95214285D01*
X144647619Y-95166666D01*
X145552381Y-94214285D02*
X145552381Y-94785714D01*
X145552381Y-94500000D02*
X144552381Y-94500000D01*
X144695238Y-94595238D01*
X144790476Y-94690476D01*
X144838095Y-94785714D01*
X146671429Y-93160952D02*
X146671429Y-92399047D01*
X147052381Y-92779999D02*
X146290476Y-92779999D01*
X155317143Y-136056666D02*
X155364762Y-136104285D01*
X155412381Y-136247142D01*
X155412381Y-136342380D01*
X155364762Y-136485238D01*
X155269524Y-136580476D01*
X155174286Y-136628095D01*
X154983810Y-136675714D01*
X154840952Y-136675714D01*
X154650476Y-136628095D01*
X154555238Y-136580476D01*
X154460000Y-136485238D01*
X154412381Y-136342380D01*
X154412381Y-136247142D01*
X154460000Y-136104285D01*
X154507619Y-136056666D01*
X154412381Y-135723333D02*
X154412381Y-135104285D01*
X154793333Y-135437619D01*
X154793333Y-135294761D01*
X154840952Y-135199523D01*
X154888571Y-135151904D01*
X154983810Y-135104285D01*
X155221905Y-135104285D01*
X155317143Y-135151904D01*
X155364762Y-135199523D01*
X155412381Y-135294761D01*
X155412381Y-135580476D01*
X155364762Y-135675714D01*
X155317143Y-135723333D01*
X162937143Y-136056666D02*
X162984762Y-136104285D01*
X163032381Y-136247142D01*
X163032381Y-136342380D01*
X162984762Y-136485238D01*
X162889524Y-136580476D01*
X162794286Y-136628095D01*
X162603810Y-136675714D01*
X162460952Y-136675714D01*
X162270476Y-136628095D01*
X162175238Y-136580476D01*
X162080000Y-136485238D01*
X162032381Y-136342380D01*
X162032381Y-136247142D01*
X162080000Y-136104285D01*
X162127619Y-136056666D01*
X162365714Y-135199523D02*
X163032381Y-135199523D01*
X161984762Y-135437619D02*
X162699048Y-135675714D01*
X162699048Y-135056666D01*
X167977143Y-125896666D02*
X168024762Y-125944285D01*
X168072381Y-126087142D01*
X168072381Y-126182380D01*
X168024762Y-126325238D01*
X167929524Y-126420476D01*
X167834286Y-126468095D01*
X167643810Y-126515714D01*
X167500952Y-126515714D01*
X167310476Y-126468095D01*
X167215238Y-126420476D01*
X167120000Y-126325238D01*
X167072381Y-126182380D01*
X167072381Y-126087142D01*
X167120000Y-125944285D01*
X167167619Y-125896666D01*
X167072381Y-124991904D02*
X167072381Y-125468095D01*
X167548571Y-125515714D01*
X167500952Y-125468095D01*
X167453333Y-125372857D01*
X167453333Y-125134761D01*
X167500952Y-125039523D01*
X167548571Y-124991904D01*
X167643810Y-124944285D01*
X167881905Y-124944285D01*
X167977143Y-124991904D01*
X168024762Y-125039523D01*
X168072381Y-125134761D01*
X168072381Y-125372857D01*
X168024762Y-125468095D01*
X167977143Y-125515714D01*
X147002381Y-102238095D02*
X146002381Y-102238095D01*
X146002381Y-102000000D01*
X146050000Y-101857142D01*
X146145238Y-101761904D01*
X146240476Y-101714285D01*
X146430952Y-101666666D01*
X146573810Y-101666666D01*
X146764286Y-101714285D01*
X146859524Y-101761904D01*
X146954762Y-101857142D01*
X147002381Y-102000000D01*
X147002381Y-102238095D01*
X147002381Y-100714285D02*
X147002381Y-101285714D01*
X147002381Y-101000000D02*
X146002381Y-101000000D01*
X146145238Y-101095238D01*
X146240476Y-101190476D01*
X146288095Y-101285714D01*
X172386667Y-134557381D02*
X172386667Y-135271667D01*
X172339047Y-135414524D01*
X172243809Y-135509762D01*
X172100952Y-135557381D01*
X172005714Y-135557381D01*
X173386667Y-135557381D02*
X172815238Y-135557381D01*
X173100952Y-135557381D02*
X173100952Y-134557381D01*
X173005714Y-134700238D01*
X172910476Y-134795476D01*
X172815238Y-134843095D01*
D14*
X176182322Y-110224328D02*
X175681942Y-110224328D01*
X175681942Y-110033707D01*
X175705770Y-109986052D01*
X175729598Y-109962224D01*
X175777253Y-109938396D01*
X175848736Y-109938396D01*
X175896391Y-109962224D01*
X175920219Y-109986052D01*
X175944046Y-110033707D01*
X175944046Y-110224328D01*
X176182322Y-109461844D02*
X176182322Y-109747776D01*
X176182322Y-109604810D02*
X175681942Y-109604810D01*
X175753425Y-109652465D01*
X175801080Y-109700120D01*
X175824908Y-109747776D01*
X169080482Y-110927243D02*
X169485552Y-110927243D01*
X169533207Y-110903415D01*
X169557035Y-110879588D01*
X169580862Y-110831932D01*
X169580862Y-110736622D01*
X169557035Y-110688967D01*
X169533207Y-110665139D01*
X169485552Y-110641311D01*
X169080482Y-110641311D01*
X169557035Y-110426863D02*
X169580862Y-110355380D01*
X169580862Y-110236242D01*
X169557035Y-110188586D01*
X169533207Y-110164759D01*
X169485552Y-110140931D01*
X169437897Y-110140931D01*
X169390241Y-110164759D01*
X169366414Y-110188586D01*
X169342586Y-110236242D01*
X169318759Y-110331552D01*
X169294931Y-110379207D01*
X169271103Y-110403035D01*
X169223448Y-110426863D01*
X169175793Y-110426863D01*
X169128138Y-110403035D01*
X169104310Y-110379207D01*
X169080482Y-110331552D01*
X169080482Y-110212414D01*
X169104310Y-110140931D01*
X169318759Y-109759690D02*
X169342586Y-109688207D01*
X169366414Y-109664379D01*
X169414069Y-109640551D01*
X169485552Y-109640551D01*
X169533207Y-109664379D01*
X169557035Y-109688207D01*
X169580862Y-109735862D01*
X169580862Y-109926483D01*
X169080482Y-109926483D01*
X169080482Y-109759690D01*
X169104310Y-109712034D01*
X169128138Y-109688207D01*
X169175793Y-109664379D01*
X169223448Y-109664379D01*
X169271103Y-109688207D01*
X169294931Y-109712034D01*
X169318759Y-109759690D01*
X169318759Y-109926483D01*
X169628518Y-109545241D02*
X169628518Y-109163999D01*
X169318759Y-108878068D02*
X169342586Y-108806585D01*
X169366414Y-108782757D01*
X169414069Y-108758929D01*
X169485552Y-108758929D01*
X169533207Y-108782757D01*
X169557035Y-108806585D01*
X169580862Y-108854240D01*
X169580862Y-109044861D01*
X169080482Y-109044861D01*
X169080482Y-108878068D01*
X169104310Y-108830412D01*
X169128138Y-108806585D01*
X169175793Y-108782757D01*
X169223448Y-108782757D01*
X169271103Y-108806585D01*
X169294931Y-108830412D01*
X169318759Y-108878068D01*
X169318759Y-109044861D01*
D13*
X171981905Y-105077381D02*
X171981905Y-104077381D01*
X172362858Y-104077381D01*
X172458096Y-104125000D01*
X172505715Y-104172619D01*
X172553334Y-104267857D01*
X172553334Y-104410714D01*
X172505715Y-104505952D01*
X172458096Y-104553571D01*
X172362858Y-104601190D01*
X171981905Y-104601190D01*
X172934286Y-104172619D02*
X172981905Y-104125000D01*
X173077143Y-104077381D01*
X173315239Y-104077381D01*
X173410477Y-104125000D01*
X173458096Y-104172619D01*
X173505715Y-104267857D01*
X173505715Y-104363095D01*
X173458096Y-104505952D01*
X172886667Y-105077381D01*
X173505715Y-105077381D01*
X146561905Y-136602381D02*
X146561905Y-135602381D01*
X146942858Y-135602381D01*
X147038096Y-135650000D01*
X147085715Y-135697619D01*
X147133334Y-135792857D01*
X147133334Y-135935714D01*
X147085715Y-136030952D01*
X147038096Y-136078571D01*
X146942858Y-136126190D01*
X146561905Y-136126190D01*
X147466667Y-135602381D02*
X148085715Y-135602381D01*
X147752381Y-135983333D01*
X147895239Y-135983333D01*
X147990477Y-136030952D01*
X148038096Y-136078571D01*
X148085715Y-136173810D01*
X148085715Y-136411905D01*
X148038096Y-136507143D01*
X147990477Y-136554762D01*
X147895239Y-136602381D01*
X147609524Y-136602381D01*
X147514286Y-136554762D01*
X147466667Y-136507143D01*
X149756905Y-127602381D02*
X149756905Y-126602381D01*
X150137858Y-126602381D01*
X150233096Y-126650000D01*
X150280715Y-126697619D01*
X150328334Y-126792857D01*
X150328334Y-126935714D01*
X150280715Y-127030952D01*
X150233096Y-127078571D01*
X150137858Y-127126190D01*
X149756905Y-127126190D01*
X151233096Y-126602381D02*
X150756905Y-126602381D01*
X150709286Y-127078571D01*
X150756905Y-127030952D01*
X150852143Y-126983333D01*
X151090239Y-126983333D01*
X151185477Y-127030952D01*
X151233096Y-127078571D01*
X151280715Y-127173810D01*
X151280715Y-127411905D01*
X151233096Y-127507143D01*
X151185477Y-127554762D01*
X151090239Y-127602381D01*
X150852143Y-127602381D01*
X150756905Y-127554762D01*
X150709286Y-127507143D01*
X171505714Y-129842381D02*
X171505714Y-128842381D01*
X171886667Y-128842381D01*
X171981905Y-128890000D01*
X172029524Y-128937619D01*
X172077143Y-129032857D01*
X172077143Y-129175714D01*
X172029524Y-129270952D01*
X171981905Y-129318571D01*
X171886667Y-129366190D01*
X171505714Y-129366190D01*
X173029524Y-129842381D02*
X172458095Y-129842381D01*
X172743809Y-129842381D02*
X172743809Y-128842381D01*
X172648571Y-128985238D01*
X172553333Y-129080476D01*
X172458095Y-129128095D01*
X173648571Y-128842381D02*
X173743810Y-128842381D01*
X173839048Y-128890000D01*
X173886667Y-128937619D01*
X173934286Y-129032857D01*
X173981905Y-129223333D01*
X173981905Y-129461429D01*
X173934286Y-129651905D01*
X173886667Y-129747143D01*
X173839048Y-129794762D01*
X173743810Y-129842381D01*
X173648571Y-129842381D01*
X173553333Y-129794762D01*
X173505714Y-129747143D01*
X173458095Y-129651905D01*
X173410476Y-129461429D01*
X173410476Y-129223333D01*
X173458095Y-129032857D01*
X173505714Y-128937619D01*
X173553333Y-128890000D01*
X173648571Y-128842381D01*
X171505714Y-124762381D02*
X171505714Y-123762381D01*
X171886667Y-123762381D01*
X171981905Y-123810000D01*
X172029524Y-123857619D01*
X172077143Y-123952857D01*
X172077143Y-124095714D01*
X172029524Y-124190952D01*
X171981905Y-124238571D01*
X171886667Y-124286190D01*
X171505714Y-124286190D01*
X173029524Y-124762381D02*
X172458095Y-124762381D01*
X172743809Y-124762381D02*
X172743809Y-123762381D01*
X172648571Y-123905238D01*
X172553333Y-124000476D01*
X172458095Y-124048095D01*
X173981905Y-124762381D02*
X173410476Y-124762381D01*
X173696190Y-124762381D02*
X173696190Y-123762381D01*
X173600952Y-123905238D01*
X173505714Y-124000476D01*
X173410476Y-124048095D01*
X144200714Y-131112381D02*
X144200714Y-130112381D01*
X144581667Y-130112381D01*
X144676905Y-130160000D01*
X144724524Y-130207619D01*
X144772143Y-130302857D01*
X144772143Y-130445714D01*
X144724524Y-130540952D01*
X144676905Y-130588571D01*
X144581667Y-130636190D01*
X144200714Y-130636190D01*
X145724524Y-131112381D02*
X145153095Y-131112381D01*
X145438809Y-131112381D02*
X145438809Y-130112381D01*
X145343571Y-130255238D01*
X145248333Y-130350476D01*
X145153095Y-130398095D01*
X146105476Y-130207619D02*
X146153095Y-130160000D01*
X146248333Y-130112381D01*
X146486429Y-130112381D01*
X146581667Y-130160000D01*
X146629286Y-130207619D01*
X146676905Y-130302857D01*
X146676905Y-130398095D01*
X146629286Y-130540952D01*
X146057857Y-131112381D01*
X146676905Y-131112381D01*
X144200714Y-106012381D02*
X144200714Y-105012381D01*
X144581667Y-105012381D01*
X144676905Y-105060000D01*
X144724524Y-105107619D01*
X144772143Y-105202857D01*
X144772143Y-105345714D01*
X144724524Y-105440952D01*
X144676905Y-105488571D01*
X144581667Y-105536190D01*
X144200714Y-105536190D01*
X145724524Y-106012381D02*
X145153095Y-106012381D01*
X145438809Y-106012381D02*
X145438809Y-105012381D01*
X145343571Y-105155238D01*
X145248333Y-105250476D01*
X145153095Y-105298095D01*
X146629286Y-105012381D02*
X146153095Y-105012381D01*
X146105476Y-105488571D01*
X146153095Y-105440952D01*
X146248333Y-105393333D01*
X146486429Y-105393333D01*
X146581667Y-105440952D01*
X146629286Y-105488571D01*
X146676905Y-105583810D01*
X146676905Y-105821905D01*
X146629286Y-105917143D01*
X146581667Y-105964762D01*
X146486429Y-106012381D01*
X146248333Y-106012381D01*
X146153095Y-105964762D01*
X146105476Y-105917143D01*
X171505714Y-120317381D02*
X171505714Y-119317381D01*
X171886667Y-119317381D01*
X171981905Y-119365000D01*
X172029524Y-119412619D01*
X172077143Y-119507857D01*
X172077143Y-119650714D01*
X172029524Y-119745952D01*
X171981905Y-119793571D01*
X171886667Y-119841190D01*
X171505714Y-119841190D01*
X173029524Y-120317381D02*
X172458095Y-120317381D01*
X172743809Y-120317381D02*
X172743809Y-119317381D01*
X172648571Y-119460238D01*
X172553333Y-119555476D01*
X172458095Y-119603095D01*
X173362857Y-119317381D02*
X174029524Y-119317381D01*
X173600952Y-120317381D01*
X150963334Y-101872381D02*
X150630000Y-101396190D01*
X150391905Y-101872381D02*
X150391905Y-100872381D01*
X150772858Y-100872381D01*
X150868096Y-100920000D01*
X150915715Y-100967619D01*
X150963334Y-101062857D01*
X150963334Y-101205714D01*
X150915715Y-101300952D01*
X150868096Y-101348571D01*
X150772858Y-101396190D01*
X150391905Y-101396190D01*
X151915715Y-101872381D02*
X151344286Y-101872381D01*
X151630000Y-101872381D02*
X151630000Y-100872381D01*
X151534762Y-101015238D01*
X151439524Y-101110476D01*
X151344286Y-101158095D01*
X158539781Y-105419186D02*
X158063590Y-105752520D01*
X158539781Y-105990615D02*
X157539781Y-105990615D01*
X157539781Y-105609662D01*
X157587400Y-105514424D01*
X157635019Y-105466805D01*
X157730257Y-105419186D01*
X157873114Y-105419186D01*
X157968352Y-105466805D01*
X158015971Y-105514424D01*
X158063590Y-105609662D01*
X158063590Y-105990615D01*
X157635019Y-105038234D02*
X157587400Y-104990615D01*
X157539781Y-104895377D01*
X157539781Y-104657281D01*
X157587400Y-104562043D01*
X157635019Y-104514424D01*
X157730257Y-104466805D01*
X157825495Y-104466805D01*
X157968352Y-104514424D01*
X158539781Y-105085853D01*
X158539781Y-104466805D01*
X162496667Y-95564762D02*
X162639524Y-95612381D01*
X162877620Y-95612381D01*
X162972858Y-95564762D01*
X163020477Y-95517143D01*
X163068096Y-95421905D01*
X163068096Y-95326667D01*
X163020477Y-95231429D01*
X162972858Y-95183810D01*
X162877620Y-95136190D01*
X162687143Y-95088571D01*
X162591905Y-95040952D01*
X162544286Y-94993333D01*
X162496667Y-94898095D01*
X162496667Y-94802857D01*
X162544286Y-94707619D01*
X162591905Y-94660000D01*
X162687143Y-94612381D01*
X162925239Y-94612381D01*
X163068096Y-94660000D01*
X163401429Y-94612381D02*
X163639524Y-95612381D01*
X163830001Y-94898095D01*
X164020477Y-95612381D01*
X164258572Y-94612381D01*
X165163334Y-95612381D02*
X164591905Y-95612381D01*
X164877619Y-95612381D02*
X164877619Y-94612381D01*
X164782381Y-94755238D01*
X164687143Y-94850476D01*
X164591905Y-94898095D01*
X150844538Y-113152278D02*
X151416958Y-113724698D01*
X151517973Y-113758370D01*
X151585316Y-113758370D01*
X151686331Y-113724698D01*
X151821019Y-113590010D01*
X151854691Y-113488995D01*
X151854691Y-113421652D01*
X151821019Y-113320637D01*
X151248599Y-112748217D01*
X151686331Y-112310484D02*
X151854690Y-112478843D01*
X151618988Y-112579858D02*
X151854690Y-112478843D01*
X151955706Y-112243140D01*
X151888362Y-112714545D02*
X151854690Y-112478843D01*
X152090393Y-112512514D01*
X152225080Y-111771736D02*
X152393438Y-111940095D01*
X152157736Y-112041110D02*
X152393438Y-111940095D01*
X152494454Y-111704392D01*
X152427110Y-112175797D02*
X152393438Y-111940095D01*
X152629141Y-111973766D01*
X152763828Y-111232988D02*
X152932186Y-111401347D01*
X152696484Y-111502362D02*
X152932186Y-111401347D01*
X153033202Y-111165644D01*
X152965858Y-111637049D02*
X152932186Y-111401347D01*
X153167889Y-111435018D01*
X154279057Y-111131972D02*
X153874996Y-111536033D01*
X154077026Y-111334003D02*
X153369919Y-110626896D01*
X153403591Y-110795255D01*
X153403591Y-110929942D01*
X153369919Y-111030957D01*
X159543809Y-127236190D02*
X159543809Y-127712381D01*
X159210476Y-126712381D02*
X159543809Y-127236190D01*
X159877143Y-126712381D01*
X160734286Y-127712381D02*
X160162857Y-127712381D01*
X160448571Y-127712381D02*
X160448571Y-126712381D01*
X160353333Y-126855238D01*
X160258095Y-126950476D01*
X160162857Y-126998095D01*
X159666667Y-93452381D02*
X159333333Y-92976190D01*
X159095238Y-93452381D02*
X159095238Y-92452381D01*
X159476191Y-92452381D01*
X159571429Y-92500000D01*
X159619048Y-92547619D01*
X159666667Y-92642857D01*
X159666667Y-92785714D01*
X159619048Y-92880952D01*
X159571429Y-92928571D01*
X159476191Y-92976190D01*
X159095238Y-92976190D01*
X160095238Y-92928571D02*
X160428572Y-92928571D01*
X160571429Y-93452381D02*
X160095238Y-93452381D01*
X160095238Y-92452381D01*
X160571429Y-92452381D01*
X161333334Y-92928571D02*
X161000000Y-92928571D01*
X161000000Y-93452381D02*
X161000000Y-92452381D01*
X161476191Y-92452381D01*
X162000000Y-92452381D02*
X162000000Y-92690476D01*
X161761905Y-92595238D02*
X162000000Y-92690476D01*
X162238096Y-92595238D01*
X161857143Y-92880952D02*
X162000000Y-92690476D01*
X162142858Y-92880952D01*
X162761905Y-92452381D02*
X162761905Y-92690476D01*
X162523810Y-92595238D02*
X162761905Y-92690476D01*
X163000001Y-92595238D01*
X162619048Y-92880952D02*
X162761905Y-92690476D01*
X162904763Y-92880952D01*
X154666667Y-139252381D02*
X154333333Y-138776190D01*
X154095238Y-139252381D02*
X154095238Y-138252381D01*
X154476191Y-138252381D01*
X154571429Y-138300000D01*
X154619048Y-138347619D01*
X154666667Y-138442857D01*
X154666667Y-138585714D01*
X154619048Y-138680952D01*
X154571429Y-138728571D01*
X154476191Y-138776190D01*
X154095238Y-138776190D01*
X155095238Y-138728571D02*
X155428572Y-138728571D01*
X155571429Y-139252381D02*
X155095238Y-139252381D01*
X155095238Y-138252381D01*
X155571429Y-138252381D01*
X156333334Y-138728571D02*
X156000000Y-138728571D01*
X156000000Y-139252381D02*
X156000000Y-138252381D01*
X156476191Y-138252381D01*
X157000000Y-138252381D02*
X157000000Y-138490476D01*
X156761905Y-138395238D02*
X157000000Y-138490476D01*
X157238096Y-138395238D01*
X156857143Y-138680952D02*
X157000000Y-138490476D01*
X157142858Y-138680952D01*
X157761905Y-138252381D02*
X157761905Y-138490476D01*
X157523810Y-138395238D02*
X157761905Y-138490476D01*
X158000001Y-138395238D01*
X157619048Y-138680952D02*
X157761905Y-138490476D01*
X157904763Y-138680952D01*
M02*
