%TF.GenerationSoftware,KiCad,Pcbnew,4.0.6*%
%TF.CreationDate,2017-05-25T21:52:32-03:00*%
%TF.ProjectId,np08,6E7030382E6B696361645F7063620000,rev?*%
%TF.FileFunction,Soldermask,Top*%
%FSLAX46Y46*%
G04 Gerber Fmt 4.6, Leading zero omitted, Abs format (unit mm)*
G04 Created by KiCad (PCBNEW 4.0.6) date Thu May 25 21:52:32 2017*
%MOMM*%
%LPD*%
G01*
G04 APERTURE LIST*
%ADD10C,0.100000*%
%ADD11R,2.000000X2.600000*%
%ADD12R,1.150000X1.600000*%
%ADD13R,1.600000X1.600000*%
%ADD14R,1.400000X1.400000*%
%ADD15O,1.400000X1.400000*%
%ADD16R,2.297380X1.573480*%
%ADD17R,2.297380X2.774900*%
%ADD18R,2.500580X1.873200*%
%ADD19R,1.779220X0.849580*%
%ADD20R,0.900000X1.300000*%
%ADD21R,1.300000X0.900000*%
%ADD22R,3.150000X1.400000*%
%ADD23R,4.900000X2.400000*%
%ADD24C,2.600000*%
G04 APERTURE END LIST*
D10*
D11*
X148000000Y-96500000D03*
X148000000Y-93500000D03*
D12*
X156210000Y-136840000D03*
X156210000Y-134940000D03*
X163830000Y-136840000D03*
X163830000Y-134940000D03*
X166370000Y-124780000D03*
X166370000Y-126680000D03*
D13*
X148000000Y-100400000D03*
X148000000Y-102600000D03*
D14*
X172720000Y-133350000D03*
D15*
X172720000Y-132080000D03*
X172720000Y-130810000D03*
D16*
X173355000Y-110693200D03*
X173355000Y-109016800D03*
D17*
X173355000Y-106941620D03*
X173355000Y-112768380D03*
D18*
X171056300Y-107393740D03*
X171056300Y-112316260D03*
D19*
X170695620Y-111155480D03*
X170695620Y-110505240D03*
X170695620Y-109855000D03*
X170695620Y-109204760D03*
X170695620Y-108554520D03*
D14*
X172720000Y-102870000D03*
D15*
X172720000Y-101600000D03*
X172720000Y-100330000D03*
X172720000Y-99060000D03*
D14*
X150495000Y-135255000D03*
D15*
X150495000Y-136525000D03*
D14*
X150495000Y-128905000D03*
D15*
X150495000Y-130175000D03*
X150495000Y-131445000D03*
D14*
X172720000Y-127635000D03*
D15*
X172720000Y-126365000D03*
D14*
X172720000Y-122555000D03*
D15*
X172720000Y-121285000D03*
D14*
X145415000Y-128905000D03*
D15*
X145415000Y-127635000D03*
X145415000Y-126365000D03*
X145415000Y-125095000D03*
X145415000Y-123825000D03*
X145415000Y-122555000D03*
X145415000Y-121285000D03*
X145415000Y-120015000D03*
D14*
X145415000Y-107315000D03*
D15*
X145415000Y-108585000D03*
X145415000Y-109855000D03*
X145415000Y-111125000D03*
X145415000Y-112395000D03*
X145415000Y-113665000D03*
X145415000Y-114935000D03*
X145415000Y-116205000D03*
D14*
X172720000Y-118110000D03*
D15*
X172720000Y-116840000D03*
D20*
X150380000Y-102870000D03*
X151880000Y-102870000D03*
D21*
X159537400Y-106002520D03*
X159537400Y-104502520D03*
D22*
X166710000Y-97060000D03*
X160950000Y-97060000D03*
X160950000Y-101060000D03*
X166710000Y-101060000D03*
D10*
G36*
X150655302Y-119956666D02*
X149976480Y-119277844D01*
X151390694Y-117863630D01*
X152069516Y-118542452D01*
X150655302Y-119956666D01*
X150655302Y-119956666D01*
G37*
G36*
X151220988Y-120522351D02*
X150542166Y-119843529D01*
X151956380Y-118429315D01*
X152635202Y-119108137D01*
X151220988Y-120522351D01*
X151220988Y-120522351D01*
G37*
G36*
X151786673Y-121088036D02*
X151107851Y-120409214D01*
X152522065Y-118995000D01*
X153200887Y-119673822D01*
X151786673Y-121088036D01*
X151786673Y-121088036D01*
G37*
G36*
X152352358Y-121653722D02*
X151673536Y-120974900D01*
X153087750Y-119560686D01*
X153766572Y-120239508D01*
X152352358Y-121653722D01*
X152352358Y-121653722D01*
G37*
G36*
X152918044Y-122219407D02*
X152239222Y-121540585D01*
X153653436Y-120126371D01*
X154332258Y-120805193D01*
X152918044Y-122219407D01*
X152918044Y-122219407D01*
G37*
G36*
X153483729Y-122785093D02*
X152804907Y-122106271D01*
X154219121Y-120692057D01*
X154897943Y-121370879D01*
X153483729Y-122785093D01*
X153483729Y-122785093D01*
G37*
G36*
X154049415Y-123350778D02*
X153370593Y-122671956D01*
X154784807Y-121257742D01*
X155463629Y-121936564D01*
X154049415Y-123350778D01*
X154049415Y-123350778D01*
G37*
G36*
X154615100Y-123916464D02*
X153936278Y-123237642D01*
X155350492Y-121823428D01*
X156029314Y-122502250D01*
X154615100Y-123916464D01*
X154615100Y-123916464D01*
G37*
G36*
X155180786Y-124482149D02*
X154501964Y-123803327D01*
X155916178Y-122389113D01*
X156595000Y-123067935D01*
X155180786Y-124482149D01*
X155180786Y-124482149D01*
G37*
G36*
X155746471Y-125047834D02*
X155067649Y-124369012D01*
X156481863Y-122954798D01*
X157160685Y-123633620D01*
X155746471Y-125047834D01*
X155746471Y-125047834D01*
G37*
G36*
X156312156Y-125613520D02*
X155633334Y-124934698D01*
X157047548Y-123520484D01*
X157726370Y-124199306D01*
X156312156Y-125613520D01*
X156312156Y-125613520D01*
G37*
G36*
X160342666Y-124934698D02*
X159663844Y-125613520D01*
X158249630Y-124199306D01*
X158928452Y-123520484D01*
X160342666Y-124934698D01*
X160342666Y-124934698D01*
G37*
G36*
X160908351Y-124369012D02*
X160229529Y-125047834D01*
X158815315Y-123633620D01*
X159494137Y-122954798D01*
X160908351Y-124369012D01*
X160908351Y-124369012D01*
G37*
G36*
X161474036Y-123803327D02*
X160795214Y-124482149D01*
X159381000Y-123067935D01*
X160059822Y-122389113D01*
X161474036Y-123803327D01*
X161474036Y-123803327D01*
G37*
G36*
X162039722Y-123237642D02*
X161360900Y-123916464D01*
X159946686Y-122502250D01*
X160625508Y-121823428D01*
X162039722Y-123237642D01*
X162039722Y-123237642D01*
G37*
G36*
X162605407Y-122671956D02*
X161926585Y-123350778D01*
X160512371Y-121936564D01*
X161191193Y-121257742D01*
X162605407Y-122671956D01*
X162605407Y-122671956D01*
G37*
G36*
X163171093Y-122106271D02*
X162492271Y-122785093D01*
X161078057Y-121370879D01*
X161756879Y-120692057D01*
X163171093Y-122106271D01*
X163171093Y-122106271D01*
G37*
G36*
X163736778Y-121540585D02*
X163057956Y-122219407D01*
X161643742Y-120805193D01*
X162322564Y-120126371D01*
X163736778Y-121540585D01*
X163736778Y-121540585D01*
G37*
G36*
X164302464Y-120974900D02*
X163623642Y-121653722D01*
X162209428Y-120239508D01*
X162888250Y-119560686D01*
X164302464Y-120974900D01*
X164302464Y-120974900D01*
G37*
G36*
X164868149Y-120409214D02*
X164189327Y-121088036D01*
X162775113Y-119673822D01*
X163453935Y-118995000D01*
X164868149Y-120409214D01*
X164868149Y-120409214D01*
G37*
G36*
X165433834Y-119843529D02*
X164755012Y-120522351D01*
X163340798Y-119108137D01*
X164019620Y-118429315D01*
X165433834Y-119843529D01*
X165433834Y-119843529D01*
G37*
G36*
X165999520Y-119277844D02*
X165320698Y-119956666D01*
X163906484Y-118542452D01*
X164585306Y-117863630D01*
X165999520Y-119277844D01*
X165999520Y-119277844D01*
G37*
G36*
X164585306Y-117340370D02*
X163906484Y-116661548D01*
X165320698Y-115247334D01*
X165999520Y-115926156D01*
X164585306Y-117340370D01*
X164585306Y-117340370D01*
G37*
G36*
X164019620Y-116774685D02*
X163340798Y-116095863D01*
X164755012Y-114681649D01*
X165433834Y-115360471D01*
X164019620Y-116774685D01*
X164019620Y-116774685D01*
G37*
G36*
X163453935Y-116209000D02*
X162775113Y-115530178D01*
X164189327Y-114115964D01*
X164868149Y-114794786D01*
X163453935Y-116209000D01*
X163453935Y-116209000D01*
G37*
G36*
X162888250Y-115643314D02*
X162209428Y-114964492D01*
X163623642Y-113550278D01*
X164302464Y-114229100D01*
X162888250Y-115643314D01*
X162888250Y-115643314D01*
G37*
G36*
X162322564Y-115077629D02*
X161643742Y-114398807D01*
X163057956Y-112984593D01*
X163736778Y-113663415D01*
X162322564Y-115077629D01*
X162322564Y-115077629D01*
G37*
G36*
X161756879Y-114511943D02*
X161078057Y-113833121D01*
X162492271Y-112418907D01*
X163171093Y-113097729D01*
X161756879Y-114511943D01*
X161756879Y-114511943D01*
G37*
G36*
X161191193Y-113946258D02*
X160512371Y-113267436D01*
X161926585Y-111853222D01*
X162605407Y-112532044D01*
X161191193Y-113946258D01*
X161191193Y-113946258D01*
G37*
G36*
X160625508Y-113380572D02*
X159946686Y-112701750D01*
X161360900Y-111287536D01*
X162039722Y-111966358D01*
X160625508Y-113380572D01*
X160625508Y-113380572D01*
G37*
G36*
X160059822Y-112814887D02*
X159381000Y-112136065D01*
X160795214Y-110721851D01*
X161474036Y-111400673D01*
X160059822Y-112814887D01*
X160059822Y-112814887D01*
G37*
G36*
X159494137Y-112249202D02*
X158815315Y-111570380D01*
X160229529Y-110156166D01*
X160908351Y-110834988D01*
X159494137Y-112249202D01*
X159494137Y-112249202D01*
G37*
G36*
X158928452Y-111683516D02*
X158249630Y-111004694D01*
X159663844Y-109590480D01*
X160342666Y-110269302D01*
X158928452Y-111683516D01*
X158928452Y-111683516D01*
G37*
G36*
X157726370Y-111004694D02*
X157047548Y-111683516D01*
X155633334Y-110269302D01*
X156312156Y-109590480D01*
X157726370Y-111004694D01*
X157726370Y-111004694D01*
G37*
G36*
X157160685Y-111570380D02*
X156481863Y-112249202D01*
X155067649Y-110834988D01*
X155746471Y-110156166D01*
X157160685Y-111570380D01*
X157160685Y-111570380D01*
G37*
G36*
X156595000Y-112136065D02*
X155916178Y-112814887D01*
X154501964Y-111400673D01*
X155180786Y-110721851D01*
X156595000Y-112136065D01*
X156595000Y-112136065D01*
G37*
G36*
X156029314Y-112701750D02*
X155350492Y-113380572D01*
X153936278Y-111966358D01*
X154615100Y-111287536D01*
X156029314Y-112701750D01*
X156029314Y-112701750D01*
G37*
G36*
X155463629Y-113267436D02*
X154784807Y-113946258D01*
X153370593Y-112532044D01*
X154049415Y-111853222D01*
X155463629Y-113267436D01*
X155463629Y-113267436D01*
G37*
G36*
X154897943Y-113833121D02*
X154219121Y-114511943D01*
X152804907Y-113097729D01*
X153483729Y-112418907D01*
X154897943Y-113833121D01*
X154897943Y-113833121D01*
G37*
G36*
X154332258Y-114398807D02*
X153653436Y-115077629D01*
X152239222Y-113663415D01*
X152918044Y-112984593D01*
X154332258Y-114398807D01*
X154332258Y-114398807D01*
G37*
G36*
X153766572Y-114964492D02*
X153087750Y-115643314D01*
X151673536Y-114229100D01*
X152352358Y-113550278D01*
X153766572Y-114964492D01*
X153766572Y-114964492D01*
G37*
G36*
X153200887Y-115530178D02*
X152522065Y-116209000D01*
X151107851Y-114794786D01*
X151786673Y-114115964D01*
X153200887Y-115530178D01*
X153200887Y-115530178D01*
G37*
G36*
X152635202Y-116095863D02*
X151956380Y-116774685D01*
X150542166Y-115360471D01*
X151220988Y-114681649D01*
X152635202Y-116095863D01*
X152635202Y-116095863D01*
G37*
G36*
X152069516Y-116661548D02*
X151390694Y-117340370D01*
X149976480Y-115926156D01*
X150655302Y-115247334D01*
X152069516Y-116661548D01*
X152069516Y-116661548D01*
G37*
D23*
X155770000Y-130810000D03*
X164270000Y-130810000D03*
D24*
X156000000Y-93000000D03*
X156000000Y-142000000D03*
M02*
