M48
;DRILL file {KiCad 4.0.6} date Thu May 25 21:54:05 2017
;FORMAT={-:-/ absolute / metric / decimal}
FMAT,2
METRIC,TZ
T1C0.400
T2C0.650
%
G90
G05
M71
T1
X148.082Y-128.905
X149.606Y-120.142
X150.Y-101.
X150.5Y-99.
X150.749Y-121.285
X151.Y-96.
X151.13Y-122.301
X151.13Y-123.444
X151.384Y-113.284
X151.765Y-127.254
X151.892Y-125.984
X153.Y-106.
X153.035Y-111.633
X153.035Y-123.698
X153.924Y-115.824
X154.178Y-109.347
X154.178Y-110.49
X154.813Y-114.935
X155.321Y-109.22
X155.321Y-125.984
X155.5Y-104.5
X157.48Y-107.188
X157.5Y-104.5
X157.607Y-136.779
X158.Y-96.
X158.Y-99.
X159.258Y-127.381
X159.512Y-103.124
X160.655Y-114.427
X160.655Y-125.984
X160.655Y-127.127
X161.417Y-99.822
X162.433Y-136.779
X163.068Y-97.028
X163.068Y-101.092
X163.068Y-123.952
X163.195Y-116.967
X163.322Y-125.095
X164.592Y-97.028
X164.592Y-101.092
X164.973Y-124.714
X164.973Y-125.984
X165.1Y-113.792
X165.862Y-116.84
X166.243Y-121.412
X166.243Y-122.555
X166.37Y-114.681
X166.37Y-120.269
X167.259Y-104.013
X167.259Y-115.443
X168.402Y-104.14
X168.402Y-117.983
X168.783Y-106.807
X170.307Y-127.254
X170.307Y-128.778
T2
X145.415Y-107.315
X145.415Y-108.585
X145.415Y-109.855
X145.415Y-111.125
X145.415Y-112.395
X145.415Y-113.665
X145.415Y-114.935
X145.415Y-116.205
X145.415Y-120.015
X145.415Y-121.285
X145.415Y-122.555
X145.415Y-123.825
X145.415Y-125.095
X145.415Y-126.365
X145.415Y-127.635
X145.415Y-128.905
X150.495Y-128.905
X150.495Y-130.175
X150.495Y-131.445
X150.495Y-135.255
X150.495Y-136.525
X172.72Y-99.06
X172.72Y-100.33
X172.72Y-101.6
X172.72Y-102.87
X172.72Y-116.84
X172.72Y-118.11
X172.72Y-121.285
X172.72Y-122.555
X172.72Y-126.365
X172.72Y-127.635
X172.72Y-130.81
X172.72Y-132.08
X172.72Y-133.35
T0
M30
